%FSLAX25Y25*%
%MOIN*%
G70*
G01*
G75*
G04 Layer_Color=16711935*
%ADD10R,0.09843X0.04331*%
%ADD11R,0.03150X0.03150*%
%ADD12C,0.02000*%
%ADD13C,0.01000*%
%ADD14C,0.04000*%
%ADD15C,0.01500*%
%ADD16C,0.03000*%
%ADD17C,0.05906*%
G04:AMPARAMS|DCode=18|XSize=59.06mil|YSize=59.06mil|CornerRadius=14.76mil|HoleSize=0mil|Usage=FLASHONLY|Rotation=180.000|XOffset=0mil|YOffset=0mil|HoleType=Round|Shape=RoundedRectangle|*
%AMROUNDEDRECTD18*
21,1,0.05906,0.02953,0,0,180.0*
21,1,0.02953,0.05906,0,0,180.0*
1,1,0.02953,-0.01476,0.01476*
1,1,0.02953,0.01476,0.01476*
1,1,0.02953,0.01476,-0.01476*
1,1,0.02953,-0.01476,-0.01476*
%
%ADD18ROUNDEDRECTD18*%
%ADD19C,0.03150*%
%ADD20O,0.17716X0.07874*%
%ADD21C,0.03937*%
%ADD22O,0.08000X0.11811*%
G04:AMPARAMS|DCode=23|XSize=98.43mil|YSize=98.43mil|CornerRadius=24.61mil|HoleSize=0mil|Usage=FLASHONLY|Rotation=270.000|XOffset=0mil|YOffset=0mil|HoleType=Round|Shape=RoundedRectangle|*
%AMROUNDEDRECTD23*
21,1,0.09843,0.04921,0,0,270.0*
21,1,0.04921,0.09843,0,0,270.0*
1,1,0.04921,-0.02461,-0.02461*
1,1,0.04921,-0.02461,0.02461*
1,1,0.04921,0.02461,0.02461*
1,1,0.04921,0.02461,-0.02461*
%
%ADD23ROUNDEDRECTD23*%
%ADD24C,0.02500*%
%ADD25R,0.03543X0.03937*%
%ADD26R,0.03937X0.03543*%
%ADD27R,0.07874X0.09449*%
G04:AMPARAMS|DCode=28|XSize=31.5mil|YSize=51.18mil|CornerRadius=7.87mil|HoleSize=0mil|Usage=FLASHONLY|Rotation=270.000|XOffset=0mil|YOffset=0mil|HoleType=Round|Shape=RoundedRectangle|*
%AMROUNDEDRECTD28*
21,1,0.03150,0.03543,0,0,270.0*
21,1,0.01575,0.05118,0,0,270.0*
1,1,0.01575,-0.01772,-0.00787*
1,1,0.01575,-0.01772,0.00787*
1,1,0.01575,0.01772,0.00787*
1,1,0.01575,0.01772,-0.00787*
%
%ADD28ROUNDEDRECTD28*%
G04:AMPARAMS|DCode=29|XSize=31.5mil|YSize=51.18mil|CornerRadius=7.87mil|HoleSize=0mil|Usage=FLASHONLY|Rotation=0.000|XOffset=0mil|YOffset=0mil|HoleType=Round|Shape=RoundedRectangle|*
%AMROUNDEDRECTD29*
21,1,0.03150,0.03543,0,0,0.0*
21,1,0.01575,0.05118,0,0,0.0*
1,1,0.01575,0.00787,-0.01772*
1,1,0.01575,-0.00787,-0.01772*
1,1,0.01575,-0.00787,0.01772*
1,1,0.01575,0.00787,0.01772*
%
%ADD29ROUNDEDRECTD29*%
%ADD30O,0.02165X0.05118*%
%ADD31O,0.05118X0.02165*%
%ADD32C,0.00100*%
%ADD33C,0.00029*%
%ADD34C,0.00787*%
%ADD35C,0.00500*%
D17*
X67270Y157470D02*
D03*
Y123270D02*
D03*
X244435Y157470D02*
D03*
Y123270D02*
D03*
X67270Y334635D02*
D03*
Y300435D02*
D03*
X244435Y334635D02*
D03*
Y300435D02*
D03*
D18*
X53491Y157470D02*
D03*
Y123270D02*
D03*
X230656Y157470D02*
D03*
Y123270D02*
D03*
X53491Y334635D02*
D03*
Y300435D02*
D03*
X230656Y334635D02*
D03*
Y300435D02*
D03*
D19*
X166685Y149624D02*
D03*
Y131907D02*
D03*
X343850Y149624D02*
D03*
Y131907D02*
D03*
X166685Y326789D02*
D03*
Y309072D02*
D03*
X343850Y326789D02*
D03*
Y309072D02*
D03*
D20*
X166685Y163206D02*
D03*
Y118324D02*
D03*
X343850Y163206D02*
D03*
Y118324D02*
D03*
X166685Y340372D02*
D03*
Y295490D02*
D03*
X343850Y340372D02*
D03*
Y295490D02*
D03*
D21*
X90655Y49970D02*
D03*
X51285D02*
D03*
X70970Y69655D02*
D03*
X267821Y49970D02*
D03*
X228450D02*
D03*
X248135Y69655D02*
D03*
X90655Y227135D02*
D03*
X51285D02*
D03*
X70970Y246820D02*
D03*
X267821Y227135D02*
D03*
X228450D02*
D03*
X248135Y246820D02*
D03*
D22*
X51285Y69655D02*
D03*
X61128D02*
D03*
X90655D02*
D03*
X80813D02*
D03*
X228450D02*
D03*
X238293D02*
D03*
X267821D02*
D03*
X257978D02*
D03*
X51285Y246820D02*
D03*
X61128D02*
D03*
X90655D02*
D03*
X80813D02*
D03*
X228450D02*
D03*
X238293D02*
D03*
X267821D02*
D03*
X257978D02*
D03*
D23*
X70970Y49970D02*
D03*
X248135D02*
D03*
X70970Y227135D02*
D03*
X248135D02*
D03*
D25*
X143316Y131370D02*
D03*
X136624D02*
D03*
X143316Y125470D02*
D03*
X136624D02*
D03*
X143316Y119570D02*
D03*
X136624D02*
D03*
X143316Y154970D02*
D03*
X136624D02*
D03*
X119391Y145752D02*
D03*
X112698D02*
D03*
X136624Y162470D02*
D03*
X143316D02*
D03*
Y113670D02*
D03*
X136624D02*
D03*
X136624Y143170D02*
D03*
X143316D02*
D03*
X136624Y137270D02*
D03*
X143316D02*
D03*
X98198Y145752D02*
D03*
X104891D02*
D03*
X75624Y136870D02*
D03*
X82316D02*
D03*
X75624Y143870D02*
D03*
X82316D02*
D03*
X75624Y149770D02*
D03*
X82316D02*
D03*
X75624Y130970D02*
D03*
X82316D02*
D03*
X104016Y95770D02*
D03*
X97324D02*
D03*
X115124D02*
D03*
X121817D02*
D03*
X112191Y169952D02*
D03*
X105498D02*
D03*
X143316Y149070D02*
D03*
X136624D02*
D03*
X320482Y131370D02*
D03*
X313789D02*
D03*
X320482Y125470D02*
D03*
X313789D02*
D03*
X320482Y119570D02*
D03*
X313789D02*
D03*
X320482Y154970D02*
D03*
X313789D02*
D03*
X296557Y145752D02*
D03*
X289864D02*
D03*
X313789Y162470D02*
D03*
X320482D02*
D03*
Y113670D02*
D03*
X313789D02*
D03*
X313789Y143170D02*
D03*
X320482D02*
D03*
X313789Y137270D02*
D03*
X320482D02*
D03*
X275364Y145752D02*
D03*
X282057D02*
D03*
X252789Y136870D02*
D03*
X259482D02*
D03*
X252789Y143870D02*
D03*
X259482D02*
D03*
X252789Y149770D02*
D03*
X259482D02*
D03*
X252789Y130970D02*
D03*
X259482D02*
D03*
X281182Y95770D02*
D03*
X274489D02*
D03*
X292289D02*
D03*
X298982D02*
D03*
X289357Y169952D02*
D03*
X282664D02*
D03*
X320482Y149070D02*
D03*
X313789D02*
D03*
X143316Y308535D02*
D03*
X136624D02*
D03*
X143316Y302635D02*
D03*
X136624D02*
D03*
X143316Y296735D02*
D03*
X136624D02*
D03*
X143316Y332135D02*
D03*
X136624D02*
D03*
X119391Y322917D02*
D03*
X112698D02*
D03*
X136624Y339635D02*
D03*
X143316D02*
D03*
Y290835D02*
D03*
X136624D02*
D03*
X136624Y320335D02*
D03*
X143316D02*
D03*
X136624Y314435D02*
D03*
X143316D02*
D03*
X98198Y322917D02*
D03*
X104891D02*
D03*
X75624Y314035D02*
D03*
X82316D02*
D03*
X75624Y321035D02*
D03*
X82316D02*
D03*
X75624Y326935D02*
D03*
X82316D02*
D03*
X75624Y308135D02*
D03*
X82316D02*
D03*
X104016Y272935D02*
D03*
X97324D02*
D03*
X115124D02*
D03*
X121817D02*
D03*
X112191Y347117D02*
D03*
X105498D02*
D03*
X143316Y326235D02*
D03*
X136624D02*
D03*
X320482Y308535D02*
D03*
X313789D02*
D03*
X320482Y302635D02*
D03*
X313789D02*
D03*
X320482Y296735D02*
D03*
X313789D02*
D03*
X320482Y332135D02*
D03*
X313789D02*
D03*
X296557Y322917D02*
D03*
X289864D02*
D03*
X313789Y339635D02*
D03*
X320482D02*
D03*
Y290835D02*
D03*
X313789D02*
D03*
X313789Y320335D02*
D03*
X320482D02*
D03*
X313789Y314435D02*
D03*
X320482D02*
D03*
X275364Y322917D02*
D03*
X282057D02*
D03*
X252789Y314035D02*
D03*
X259482D02*
D03*
X252789Y321035D02*
D03*
X259482D02*
D03*
X252789Y326935D02*
D03*
X259482D02*
D03*
X252789Y308135D02*
D03*
X259482D02*
D03*
X281182Y272935D02*
D03*
X274489D02*
D03*
X292289D02*
D03*
X298982D02*
D03*
X289357Y347117D02*
D03*
X282664D02*
D03*
X320482Y326235D02*
D03*
X313789D02*
D03*
D26*
X85270Y116024D02*
D03*
Y122716D02*
D03*
Y102724D02*
D03*
Y109416D02*
D03*
X53470Y130324D02*
D03*
Y137016D02*
D03*
Y150417D02*
D03*
Y143724D02*
D03*
X67270Y130324D02*
D03*
Y137016D02*
D03*
Y150417D02*
D03*
Y143724D02*
D03*
X262435Y116024D02*
D03*
Y122716D02*
D03*
Y102724D02*
D03*
Y109416D02*
D03*
X230635Y130324D02*
D03*
Y137016D02*
D03*
Y150417D02*
D03*
Y143724D02*
D03*
X244435Y130324D02*
D03*
Y137016D02*
D03*
Y150417D02*
D03*
Y143724D02*
D03*
X85270Y293189D02*
D03*
Y299882D02*
D03*
Y279889D02*
D03*
Y286582D02*
D03*
X53470Y307489D02*
D03*
Y314182D02*
D03*
Y327582D02*
D03*
Y320889D02*
D03*
X67270Y307489D02*
D03*
Y314182D02*
D03*
Y327582D02*
D03*
Y320889D02*
D03*
X262435Y293189D02*
D03*
Y299882D02*
D03*
Y279889D02*
D03*
Y286582D02*
D03*
X230635Y307489D02*
D03*
Y314182D02*
D03*
Y327582D02*
D03*
Y320889D02*
D03*
X244435Y307489D02*
D03*
Y314182D02*
D03*
Y327582D02*
D03*
Y320889D02*
D03*
D27*
X100917Y157852D02*
D03*
X116665D02*
D03*
X278083D02*
D03*
X293831D02*
D03*
X100917Y335017D02*
D03*
X116665D02*
D03*
X278083D02*
D03*
X293831D02*
D03*
D28*
X125712Y131486D02*
D03*
Y108454D02*
D03*
X93428Y108454D02*
D03*
Y131486D02*
D03*
X302877D02*
D03*
Y108454D02*
D03*
X270594Y108454D02*
D03*
Y131486D02*
D03*
X125712Y308651D02*
D03*
Y285620D02*
D03*
X93428Y285620D02*
D03*
Y308651D02*
D03*
X302877D02*
D03*
Y285620D02*
D03*
X270594Y285620D02*
D03*
Y308651D02*
D03*
D29*
X121086Y103828D02*
D03*
X98054D02*
D03*
X121086Y136112D02*
D03*
X98054D02*
D03*
X298251Y103828D02*
D03*
X275220D02*
D03*
X298251Y136112D02*
D03*
X275220D02*
D03*
X121086Y280994D02*
D03*
X98054D02*
D03*
X121086Y313277D02*
D03*
X98054D02*
D03*
X298251Y280994D02*
D03*
X275220D02*
D03*
X298251Y313277D02*
D03*
X275220D02*
D03*
D30*
X101696Y103828D02*
D03*
X104846D02*
D03*
X107995D02*
D03*
X111145D02*
D03*
X114295D02*
D03*
X117444D02*
D03*
Y136112D02*
D03*
X114295D02*
D03*
X111145D02*
D03*
X107995D02*
D03*
X104846D02*
D03*
X101696D02*
D03*
X278861Y103828D02*
D03*
X282011D02*
D03*
X285161D02*
D03*
X288310D02*
D03*
X291460D02*
D03*
X294609D02*
D03*
Y136112D02*
D03*
X291460D02*
D03*
X288310D02*
D03*
X285161D02*
D03*
X282011D02*
D03*
X278861D02*
D03*
X101696Y280994D02*
D03*
X104846D02*
D03*
X107995D02*
D03*
X111145D02*
D03*
X114295D02*
D03*
X117444D02*
D03*
Y313277D02*
D03*
X114295D02*
D03*
X111145D02*
D03*
X107995D02*
D03*
X104846D02*
D03*
X101696D02*
D03*
X278861Y280994D02*
D03*
X282011D02*
D03*
X285161D02*
D03*
X288310D02*
D03*
X291460D02*
D03*
X294609D02*
D03*
Y313277D02*
D03*
X291460D02*
D03*
X288310D02*
D03*
X285161D02*
D03*
X282011D02*
D03*
X278861D02*
D03*
D31*
X125712Y112096D02*
D03*
Y115246D02*
D03*
Y118395D02*
D03*
Y121545D02*
D03*
Y124695D02*
D03*
Y127844D02*
D03*
X93428D02*
D03*
Y124695D02*
D03*
Y121545D02*
D03*
Y118395D02*
D03*
Y115246D02*
D03*
Y112096D02*
D03*
X302877D02*
D03*
Y115246D02*
D03*
Y118395D02*
D03*
Y121545D02*
D03*
Y124695D02*
D03*
Y127844D02*
D03*
X270594D02*
D03*
Y124695D02*
D03*
Y121545D02*
D03*
Y118395D02*
D03*
Y115246D02*
D03*
Y112096D02*
D03*
X125712Y289261D02*
D03*
Y292411D02*
D03*
Y295561D02*
D03*
Y298710D02*
D03*
Y301860D02*
D03*
Y305010D02*
D03*
X93428D02*
D03*
Y301860D02*
D03*
Y298710D02*
D03*
Y295561D02*
D03*
Y292411D02*
D03*
Y289261D02*
D03*
X302877D02*
D03*
Y292411D02*
D03*
Y295561D02*
D03*
Y298710D02*
D03*
Y301860D02*
D03*
Y305010D02*
D03*
X270594D02*
D03*
Y301860D02*
D03*
Y298710D02*
D03*
Y295561D02*
D03*
Y292411D02*
D03*
Y289261D02*
D03*
M02*
