%FSLAX25Y25*%
%MOIN*%
G70*
G01*
G75*
G04 Layer_Color=2752767*
%ADD10C,0.01000*%
%ADD11C,0.00500*%
%ADD12C,0.00667*%
%ADD13C,0.01600*%
%ADD14C,0.00800*%
%ADD15C,0.01400*%
D10*
X5247028Y5558168D02*
G03*
X5247145Y5558052I5764850J5764733D01*
G01*
X-33465Y275590D02*
G03*
X-31496Y273622I1969J0D01*
G01*
D02*
G03*
X-29528Y275590I0J1969D01*
G01*
X-21654Y283465D02*
G03*
X-19685Y285433I0J1969D01*
G01*
D02*
G03*
X-21654Y287402I-1969J0D01*
G01*
X-25591D02*
G03*
X-33465Y279528I0J-7874D01*
G01*
X-25591Y283465D02*
G03*
X-29528Y279528I0J-3937D01*
G01*
X43307Y354331D02*
G03*
X39370Y350394I0J-3937D01*
G01*
X43307Y358268D02*
G03*
X35433Y350394I0J-7874D01*
G01*
X49213Y356299D02*
G03*
X47244Y358268I-1969J0D01*
G01*
X47244Y354331D02*
G03*
X49213Y356299I0J1969D01*
G01*
X37402Y344488D02*
G03*
X39370Y346457I0J1969D01*
G01*
X35433Y346457D02*
G03*
X37402Y344488I1969J0D01*
G01*
X177165Y350394D02*
G03*
X173228Y354331I-3937J0D01*
G01*
X181102Y350394D02*
G03*
X173228Y358268I-7874J0D01*
G01*
X179134Y344488D02*
G03*
X181102Y346457I0J1969D01*
G01*
X177165Y346457D02*
G03*
X179134Y344488I1969J0D01*
G01*
X167323Y356299D02*
G03*
X169291Y354331I1969J0D01*
G01*
X169291Y358268D02*
G03*
X167323Y356299I0J-1969D01*
G01*
X173228Y216535D02*
G03*
X177165Y220472I0J3937D01*
G01*
X173228Y212598D02*
G03*
X181102Y220472I0J7874D01*
G01*
X167323Y214567D02*
G03*
X169291Y212598I1969J0D01*
G01*
X169291Y216535D02*
G03*
X167323Y214567I0J-1969D01*
G01*
X179134Y226378D02*
G03*
X177165Y224410I0J-1969D01*
G01*
X181102Y224410D02*
G03*
X179134Y226378I-1969J0D01*
G01*
X39370Y220472D02*
G03*
X43307Y216535I3937J0D01*
G01*
X35433Y220472D02*
G03*
X43307Y212598I7874J0D01*
G01*
X37402Y226378D02*
G03*
X35433Y224409I0J-1969D01*
G01*
X39370Y224410D02*
G03*
X37402Y226378I-1969J0D01*
G01*
X49213Y214567D02*
G03*
X47244Y216535I-1969J0D01*
G01*
X47244Y212598D02*
G03*
X49213Y214567I0J1969D01*
G01*
X224410Y212598D02*
G03*
X226378Y214567I0J1969D01*
G01*
D02*
G03*
X224410Y216535I-1969J0D01*
G01*
X216535Y224410D02*
G03*
X214567Y226378I-1969J0D01*
G01*
D02*
G03*
X212598Y224409I0J-1969D01*
G01*
Y220472D02*
G03*
X220472Y212598I7874J0D01*
G01*
X216535Y220472D02*
G03*
X220472Y216535I3937J0D01*
G01*
X358268Y224410D02*
G03*
X356299Y226378I-1969J0D01*
G01*
D02*
G03*
X354331Y224410I0J-1969D01*
G01*
X346457Y216535D02*
G03*
X344488Y214567I0J-1969D01*
G01*
D02*
G03*
X346457Y212598I1969J0D01*
G01*
X350394D02*
G03*
X358268Y220472I0J7874D01*
G01*
X350394Y216535D02*
G03*
X354331Y220472I0J3937D01*
G01*
X346457Y358268D02*
G03*
X344488Y356299I0J-1969D01*
G01*
D02*
G03*
X346457Y354331I1969J0D01*
G01*
X354331Y346457D02*
G03*
X356299Y344488I1969J0D01*
G01*
D02*
G03*
X358268Y346457I0J1969D01*
G01*
Y350394D02*
G03*
X350394Y358268I-7874J0D01*
G01*
X354331Y350394D02*
G03*
X350394Y354331I-3937J0D01*
G01*
X212598Y346457D02*
G03*
X214567Y344488I1969J0D01*
G01*
D02*
G03*
X216535Y346457I0J1969D01*
G01*
X224410Y354331D02*
G03*
X226378Y356299I0J1969D01*
G01*
D02*
G03*
X224409Y358268I-1969J0D01*
G01*
X220472D02*
G03*
X212598Y350394I0J-7874D01*
G01*
X220472Y354331D02*
G03*
X216535Y350394I0J-3937D01*
G01*
X47244Y35433D02*
G03*
X49213Y37402I0J1969D01*
G01*
D02*
G03*
X47244Y39370I-1969J0D01*
G01*
X39370Y47244D02*
G03*
X37402Y49213I-1969J0D01*
G01*
D02*
G03*
X35433Y47244I0J-1969D01*
G01*
Y43307D02*
G03*
X43307Y35433I7874J0D01*
G01*
X39370Y43307D02*
G03*
X43307Y39370I3937J0D01*
G01*
X181102Y47244D02*
G03*
X179134Y49213I-1969J0D01*
G01*
D02*
G03*
X177165Y47244I0J-1969D01*
G01*
X169291Y39370D02*
G03*
X167323Y37402I0J-1969D01*
G01*
D02*
G03*
X169291Y35433I1969J0D01*
G01*
X173228D02*
G03*
X181102Y43307I0J7874D01*
G01*
X173228Y39370D02*
G03*
X177165Y43307I0J3937D01*
G01*
X169291Y181102D02*
G03*
X167323Y179134I0J-1969D01*
G01*
D02*
G03*
X169291Y177165I1969J0D01*
G01*
X177165Y169291D02*
G03*
X179134Y167323I1969J0D01*
G01*
D02*
G03*
X181102Y169291I0J1969D01*
G01*
Y173228D02*
G03*
X173228Y181102I-7874J0D01*
G01*
X177165Y173228D02*
G03*
X173228Y177165I-3937J0D01*
G01*
X35433Y169291D02*
G03*
X37402Y167323I1969J0D01*
G01*
D02*
G03*
X39370Y169291I0J1969D01*
G01*
X47244Y177165D02*
G03*
X49213Y179134I0J1969D01*
G01*
D02*
G03*
X47244Y181102I-1969J0D01*
G01*
X43307D02*
G03*
X35433Y173228I0J-7874D01*
G01*
X43307Y177165D02*
G03*
X39370Y173228I0J-3937D01*
G01*
X224410Y35433D02*
G03*
X226378Y37402I0J1969D01*
G01*
D02*
G03*
X224410Y39370I-1969J0D01*
G01*
X216535Y47244D02*
G03*
X214567Y49213I-1969J0D01*
G01*
D02*
G03*
X212598Y47244I0J-1969D01*
G01*
Y43307D02*
G03*
X220472Y35433I7874J0D01*
G01*
X216535Y43307D02*
G03*
X220472Y39370I3937J0D01*
G01*
X358268Y47244D02*
G03*
X356299Y49213I-1969J0D01*
G01*
D02*
G03*
X354331Y47244I0J-1969D01*
G01*
X346457Y39370D02*
G03*
X344488Y37402I0J-1969D01*
G01*
D02*
G03*
X346457Y35433I1969J0D01*
G01*
X350394D02*
G03*
X358268Y43307I0J7874D01*
G01*
X350394Y39370D02*
G03*
X354331Y43307I0J3937D01*
G01*
X346457Y181102D02*
G03*
X344488Y179134I0J-1969D01*
G01*
D02*
G03*
X346457Y177165I1969J0D01*
G01*
X354331Y169291D02*
G03*
X356299Y167323I1969J0D01*
G01*
D02*
G03*
X358268Y169291I0J1969D01*
G01*
Y173228D02*
G03*
X350394Y181102I-7874J0D01*
G01*
X354331Y173228D02*
G03*
X350394Y177165I-3937J0D01*
G01*
X212598Y169291D02*
G03*
X214567Y167323I1969J0D01*
G01*
D02*
G03*
X216535Y169291I0J1969D01*
G01*
X224410Y177165D02*
G03*
X226378Y179134I0J1969D01*
G01*
D02*
G03*
X224409Y181102I-1969J0D01*
G01*
X220472D02*
G03*
X212598Y173228I0J-7874D01*
G01*
X220472Y177165D02*
G03*
X216535Y173228I0J-3937D01*
G01*
X0Y0D02*
X393701D01*
X0D02*
Y393701D01*
X393701Y0D02*
Y374016D01*
Y393701D01*
X0D02*
X393701D01*
X-33465Y275590D02*
Y279528D01*
X-29528Y275590D02*
Y279528D01*
X-25591Y283465D02*
X-21654D01*
X-25591Y287402D02*
X-21654D01*
X-48228Y354331D02*
X441929D01*
X43307Y358268D02*
X47244D01*
X43307Y354331D02*
X47244D01*
X39370Y346457D02*
Y350394D01*
X35433Y346457D02*
Y350394D01*
X181102Y346457D02*
Y350394D01*
X177165Y346457D02*
Y350394D01*
X169291Y354331D02*
X173228D01*
X169291Y358268D02*
X173228D01*
X169291Y212598D02*
X173228D01*
X169291Y216535D02*
X173228D01*
X177165Y220472D02*
Y224410D01*
X181102Y220472D02*
Y224410D01*
X35433Y220472D02*
Y224409D01*
X39370Y220472D02*
Y224410D01*
X43307Y216535D02*
X47244D01*
X43307Y212598D02*
X47244D01*
X220472D02*
X224410D01*
X220472Y216535D02*
X224410D01*
X216535Y220472D02*
Y224410D01*
X212598Y220472D02*
Y224409D01*
X358268Y220472D02*
Y224410D01*
X354331Y220472D02*
Y224410D01*
X346457Y216535D02*
X350394D01*
X346457Y212598D02*
X350394D01*
X346457Y358268D02*
X350394D01*
X346457Y354331D02*
X350394D01*
X354331Y346457D02*
Y350394D01*
X358268Y346457D02*
Y350394D01*
X212598Y346457D02*
Y350394D01*
X216535Y346457D02*
Y350394D01*
X220472Y354331D02*
X224410D01*
X220472Y358268D02*
X224409D01*
X43307Y35433D02*
X47244D01*
X43307Y39370D02*
X47244D01*
X39370Y43307D02*
Y47244D01*
X35433Y43307D02*
Y47244D01*
X181102Y43307D02*
Y47244D01*
X177165Y43307D02*
Y47244D01*
X169291Y39370D02*
X173228D01*
X169291Y35433D02*
X173228D01*
X169291Y181102D02*
X173228D01*
X169291Y177165D02*
X173228D01*
X177165Y169291D02*
Y173228D01*
X181102Y169291D02*
Y173228D01*
X35433Y169291D02*
Y173228D01*
X39370Y169291D02*
Y173228D01*
X43307Y177165D02*
X47244D01*
X43307Y181102D02*
X47244D01*
X220472Y35433D02*
X224410D01*
X220472Y39370D02*
X224410D01*
X216535Y43307D02*
Y47244D01*
X212598Y43307D02*
Y47244D01*
X358268Y43307D02*
Y47244D01*
X354331Y43307D02*
Y47244D01*
X346457Y39370D02*
X350394D01*
X346457Y35433D02*
X350394D01*
X346457Y181102D02*
X350394D01*
X346457Y177165D02*
X350394D01*
X354331Y169291D02*
Y173228D01*
X358268Y169291D02*
Y173228D01*
X212598Y169291D02*
Y173228D01*
X216535Y169291D02*
Y173228D01*
X220472Y177165D02*
X224410D01*
X220472Y181102D02*
X224409D01*
X-48228Y216535D02*
X441929D01*
X-48228Y177165D02*
X441929D01*
X-48228Y39370D02*
X441929D01*
X177165Y-48228D02*
Y441929D01*
X216535Y-48228D02*
Y441929D01*
X354331Y-48228D02*
Y441929D01*
X39370Y-48228D02*
Y441929D01*
X354346Y443913D02*
Y451913D01*
X350847Y447413D02*
X354346Y443913D01*
X357846Y447413D01*
X216551Y443913D02*
Y451913D01*
X213051Y447413D02*
X216551Y443913D01*
X220051Y447413D01*
X177181Y443913D02*
Y451913D01*
X173681Y447413D02*
X177181Y443913D01*
X180681Y447413D01*
X39386Y443913D02*
Y451913D01*
X35886Y447413D02*
X39386Y443913D01*
X42886Y447413D01*
X443913Y39354D02*
X451913D01*
X443913D02*
X447413Y42854D01*
X443913Y39354D02*
X447413Y35854D01*
X443913Y177150D02*
X451913D01*
X443913D02*
X447413Y180650D01*
X443913Y177150D02*
X447413Y173650D01*
X443913Y216520D02*
X451913D01*
X443913D02*
X447413Y220020D01*
X443913Y216520D02*
X447413Y213020D01*
X443913Y354315D02*
X447413Y350815D01*
X443913Y354315D02*
X447413Y357815D01*
X443913Y354315D02*
X451913D01*
X-25543Y293327D02*
Y301327D01*
X-29043Y296827D02*
X-25543Y293327D01*
X-22043Y296827D01*
X351285Y455709D02*
X355284D01*
X357283Y457708D01*
X355284Y459707D01*
X351285D01*
X354284Y461707D02*
Y465705D01*
X352285Y471703D02*
X351285Y470704D01*
Y468704D01*
X352285Y467705D01*
X356284D01*
X357283Y468704D01*
Y470704D01*
X356284Y471703D01*
X353285Y473703D02*
X356284D01*
X357283Y474703D01*
Y477702D01*
X353285D01*
X352285Y480701D02*
X353285D01*
Y479701D01*
Y481700D01*
Y480701D01*
X356284D01*
X357283Y481700D01*
X213490Y455709D02*
X217489D01*
X219488Y457708D01*
X217489Y459707D01*
X213490D01*
X216489Y461707D02*
Y465705D01*
X214490Y471703D02*
X213490Y470704D01*
Y468704D01*
X214490Y467705D01*
X218489D01*
X219488Y468704D01*
Y470704D01*
X218489Y471703D01*
X215490Y473703D02*
X218489D01*
X219488Y474703D01*
Y477702D01*
X215490D01*
X214490Y480701D02*
X215490D01*
Y479701D01*
Y481700D01*
Y480701D01*
X218489D01*
X219488Y481700D01*
X174120Y455709D02*
X178119D01*
X180118Y457708D01*
X178119Y459707D01*
X174120D01*
X177119Y461707D02*
Y465705D01*
X175120Y471703D02*
X174120Y470704D01*
Y468704D01*
X175120Y467705D01*
X179118D01*
X180118Y468704D01*
Y470704D01*
X179118Y471703D01*
X176119Y473703D02*
X179118D01*
X180118Y474703D01*
Y477702D01*
X176119D01*
X175120Y480701D02*
X176119D01*
Y479701D01*
Y481700D01*
Y480701D01*
X179118D01*
X180118Y481700D01*
X36325Y455709D02*
X40323D01*
X42323Y457708D01*
X40323Y459707D01*
X36325D01*
X39324Y461707D02*
Y465705D01*
X37325Y471703D02*
X36325Y470704D01*
Y468704D01*
X37325Y467705D01*
X41323D01*
X42323Y468704D01*
Y470704D01*
X41323Y471703D01*
X38324Y473703D02*
X41323D01*
X42323Y474703D01*
Y477702D01*
X38324D01*
X37325Y480701D02*
X38324D01*
Y479701D01*
Y481700D01*
Y480701D01*
X41323D01*
X42323Y481700D01*
X455709Y42415D02*
Y38417D01*
X457708Y36417D01*
X459707Y38417D01*
Y42415D01*
X461707Y39416D02*
X465705D01*
X471703Y41416D02*
X470704Y42415D01*
X468704D01*
X467705Y41416D01*
Y37417D01*
X468704Y36417D01*
X470704D01*
X471703Y37417D01*
X473703Y40416D02*
Y37417D01*
X474703Y36417D01*
X477702D01*
Y40416D01*
X480701Y41416D02*
Y40416D01*
X479701D01*
X481700D01*
X480701D01*
Y37417D01*
X481700Y36417D01*
X455709Y180211D02*
Y176212D01*
X457708Y174213D01*
X459707Y176212D01*
Y180211D01*
X461707Y177212D02*
X465705D01*
X471703Y179211D02*
X470704Y180211D01*
X468704D01*
X467705Y179211D01*
Y175212D01*
X468704Y174213D01*
X470704D01*
X471703Y175212D01*
X473703Y178211D02*
Y175212D01*
X474703Y174213D01*
X477702D01*
Y178211D01*
X480701Y179211D02*
Y178211D01*
X479701D01*
X481700D01*
X480701D01*
Y175212D01*
X481700Y174213D01*
X455709Y219581D02*
Y215582D01*
X457708Y213583D01*
X459707Y215582D01*
Y219581D01*
X461707Y216582D02*
X465705D01*
X471703Y218581D02*
X470704Y219581D01*
X468704D01*
X467705Y218581D01*
Y214582D01*
X468704Y213583D01*
X470704D01*
X471703Y214582D01*
X473703Y217581D02*
Y214582D01*
X474703Y213583D01*
X477702D01*
Y217581D01*
X480701Y218581D02*
Y217581D01*
X479701D01*
X481700D01*
X480701D01*
Y214582D01*
X481700Y213583D01*
X455709Y357376D02*
Y353377D01*
X457708Y351378D01*
X459707Y353377D01*
Y357376D01*
X461707Y354377D02*
X465705D01*
X471703Y356376D02*
X470704Y357376D01*
X468705D01*
X467705Y356376D01*
Y352378D01*
X468705Y351378D01*
X470704D01*
X471703Y352378D01*
X473703Y355377D02*
Y352378D01*
X474703Y351378D01*
X477702D01*
Y355377D01*
X480701Y356376D02*
Y355377D01*
X479701D01*
X481700D01*
X480701D01*
Y352378D01*
X481700Y351378D01*
X-89567Y306102D02*
X-87568D01*
X-88567D01*
Y312100D01*
X-89567Y311101D01*
X-84569Y306102D02*
Y307102D01*
X-83569D01*
Y306102D01*
X-84569D01*
X-79570Y311101D02*
X-78570Y312100D01*
X-76571D01*
X-75572Y311101D01*
Y307102D01*
X-76571Y306102D01*
X-78570D01*
X-79570Y307102D01*
Y311101D01*
X-73572Y306102D02*
Y310101D01*
X-72572D01*
X-71573Y309101D01*
Y306102D01*
Y309101D01*
X-70573Y310101D01*
X-69573Y309101D01*
Y306102D01*
X-67574D02*
Y310101D01*
X-66574D01*
X-65575Y309101D01*
Y306102D01*
Y309101D01*
X-64575Y310101D01*
X-63575Y309101D01*
Y306102D01*
X-55578Y312100D02*
Y306102D01*
X-52579D01*
X-51579Y307102D01*
Y311101D01*
X-52579Y312100D01*
X-55578D01*
X-49580Y310101D02*
Y306102D01*
Y308102D01*
X-48580Y309101D01*
X-47581Y310101D01*
X-46581D01*
X-43582Y306102D02*
X-41583D01*
X-42582D01*
Y310101D01*
X-43582D01*
X-38583Y306102D02*
X-36584D01*
X-37584D01*
Y312100D01*
X-38583D01*
X-33585Y306102D02*
X-31586D01*
X-32585D01*
Y312100D01*
X-33585D01*
X-18590Y311101D02*
X-19590Y312100D01*
X-21589D01*
X-22589Y311101D01*
Y307102D01*
X-21589Y306102D01*
X-19590D01*
X-18590Y307102D01*
X-16590Y310101D02*
Y307102D01*
X-15591Y306102D01*
X-12592D01*
Y310101D01*
X-9593Y311101D02*
Y310101D01*
X-10593D01*
X-8593D01*
X-9593D01*
Y307102D01*
X-8593Y306102D01*
X546451Y110764D02*
X548450D01*
X547450D01*
Y116762D01*
X546451Y115762D01*
X555448Y116762D02*
X553448Y115762D01*
X551449Y113763D01*
Y111764D01*
X552449Y110764D01*
X554448D01*
X555448Y111764D01*
Y112763D01*
X554448Y113763D01*
X551449D01*
X557447Y115762D02*
X558447Y116762D01*
X560446D01*
X561446Y115762D01*
Y111764D01*
X560446Y110764D01*
X558447D01*
X557447Y111764D01*
Y115762D01*
X616032Y110764D02*
X618031D01*
X617032D01*
Y116762D01*
X616032Y115762D01*
X625029Y110764D02*
X621030D01*
X625029Y114762D01*
Y115762D01*
X624029Y116762D01*
X622030D01*
X621030Y115762D01*
X627028Y110764D02*
Y114762D01*
X628028D01*
X629028Y113763D01*
Y110764D01*
Y113763D01*
X630027Y114762D01*
X631027Y113763D01*
Y110764D01*
X633026D02*
X635026D01*
X634026D01*
Y114762D01*
X633026D01*
X638025Y110764D02*
X640024D01*
X639024D01*
Y116762D01*
X638025D01*
X651021Y110764D02*
X649021Y112763D01*
Y114762D01*
X651021Y116762D01*
X654020Y115762D02*
X655019Y116762D01*
X657019D01*
X658018Y115762D01*
Y111764D01*
X657019Y110764D01*
X655019D01*
X654020Y111764D01*
Y115762D01*
X660018Y110764D02*
Y111764D01*
X661017D01*
Y110764D01*
X660018D01*
X665016Y115762D02*
X666016Y116762D01*
X668015D01*
X669015Y115762D01*
Y114762D01*
X668015Y113763D01*
X667015D01*
X668015D01*
X669015Y112763D01*
Y111764D01*
X668015Y110764D01*
X666016D01*
X665016Y111764D01*
X671014Y115762D02*
X672014Y116762D01*
X674013D01*
X675013Y115762D01*
Y111764D01*
X674013Y110764D01*
X672014D01*
X671014Y111764D01*
Y115762D01*
X680011Y110764D02*
Y116762D01*
X677012Y113763D01*
X681011D01*
X683010Y115762D02*
X684010Y116762D01*
X686009D01*
X687009Y115762D01*
Y114762D01*
X686009Y113763D01*
X687009Y112763D01*
Y111764D01*
X686009Y110764D01*
X684010D01*
X683010Y111764D01*
Y112763D01*
X684010Y113763D01*
X683010Y114762D01*
Y115762D01*
X684010Y113763D02*
X686009D01*
X689008Y110764D02*
Y114762D01*
X690008D01*
X691008Y113763D01*
Y110764D01*
Y113763D01*
X692007Y114762D01*
X693007Y113763D01*
Y110764D01*
X695006D02*
Y114762D01*
X696006D01*
X697006Y113763D01*
Y110764D01*
Y113763D01*
X698005Y114762D01*
X699005Y113763D01*
Y110764D01*
X701004D02*
X703004Y112763D01*
Y114762D01*
X701004Y116762D01*
X985524Y110764D02*
Y116762D01*
X988523D01*
X989523Y115762D01*
Y113763D01*
X988523Y112763D01*
X985524D01*
X991522Y116762D02*
X995521D01*
X993521D01*
Y110764D01*
X997520Y116762D02*
Y110764D01*
Y113763D01*
X1001519D01*
Y116762D01*
Y110764D01*
X1035912D02*
Y116762D01*
X1038911D01*
X1039910Y115762D01*
Y113763D01*
X1038911Y112763D01*
X1035912D01*
X1037911D02*
X1039910Y110764D01*
X1042909D02*
X1044909D01*
X1045908Y111764D01*
Y113763D01*
X1044909Y114762D01*
X1042909D01*
X1041910Y113763D01*
Y111764D01*
X1042909Y110764D01*
X1047908Y114762D02*
Y111764D01*
X1048907Y110764D01*
X1051906D01*
Y114762D01*
X1053906Y110764D02*
Y114762D01*
X1056905D01*
X1057905Y113763D01*
Y110764D01*
X1063902Y116762D02*
Y110764D01*
X1060903D01*
X1059904Y111764D01*
Y113763D01*
X1060903Y114762D01*
X1063902D01*
X546451Y98764D02*
X548450D01*
X547450D01*
Y104762D01*
X546451Y103762D01*
X555448Y104762D02*
X553448Y103762D01*
X551449Y101763D01*
Y99764D01*
X552449Y98764D01*
X554448D01*
X555448Y99764D01*
Y100763D01*
X554448Y101763D01*
X551449D01*
X620031Y98764D02*
X616032D01*
X620031Y102762D01*
Y103762D01*
X619031Y104762D01*
X617032D01*
X616032Y103762D01*
X622030Y99764D02*
X623030Y98764D01*
X625029D01*
X626029Y99764D01*
Y103762D01*
X625029Y104762D01*
X623030D01*
X622030Y103762D01*
Y102762D01*
X623030Y101763D01*
X626029D01*
X628028Y98764D02*
Y99764D01*
X629028D01*
Y98764D01*
X628028D01*
X637025Y104762D02*
X633026D01*
Y101763D01*
X635026Y102762D01*
X636025D01*
X637025Y101763D01*
Y99764D01*
X636025Y98764D01*
X634026D01*
X633026Y99764D01*
X643023Y98764D02*
X639024D01*
X643023Y102762D01*
Y103762D01*
X642024Y104762D01*
X640024D01*
X639024Y103762D01*
X645022D02*
X646022Y104762D01*
X648022D01*
X649021Y103762D01*
Y102762D01*
X648022Y101763D01*
X649021Y100763D01*
Y99764D01*
X648022Y98764D01*
X646022D01*
X645022Y99764D01*
Y100763D01*
X646022Y101763D01*
X645022Y102762D01*
Y103762D01*
X646022Y101763D02*
X648022D01*
X651021Y98764D02*
Y102762D01*
X652020D01*
X653020Y101763D01*
Y98764D01*
Y101763D01*
X654020Y102762D01*
X655019Y101763D01*
Y98764D01*
X657019D02*
X659018D01*
X658018D01*
Y102762D01*
X657019D01*
X662017Y98764D02*
X664016D01*
X663017D01*
Y104762D01*
X662017D01*
X675013Y98764D02*
X673013Y100763D01*
Y102762D01*
X675013Y104762D01*
X678012Y103762D02*
X679011Y104762D01*
X681011D01*
X682011Y103762D01*
Y99764D01*
X681011Y98764D01*
X679011D01*
X678012Y99764D01*
Y103762D01*
X684010Y98764D02*
Y99764D01*
X685010D01*
Y98764D01*
X684010D01*
X689008Y104762D02*
X693007D01*
Y103762D01*
X689008Y99764D01*
Y98764D01*
X699005Y104762D02*
X695006D01*
Y101763D01*
X697006Y102762D01*
X698005D01*
X699005Y101763D01*
Y99764D01*
X698005Y98764D01*
X696006D01*
X695006Y99764D01*
X701004Y98764D02*
Y102762D01*
X702004D01*
X703004Y101763D01*
Y98764D01*
Y101763D01*
X704003Y102762D01*
X705003Y101763D01*
Y98764D01*
X707002D02*
Y102762D01*
X708002D01*
X709002Y101763D01*
Y98764D01*
Y101763D01*
X710002Y102762D01*
X711001Y101763D01*
Y98764D01*
X713000D02*
X715000Y100763D01*
Y102762D01*
X713000Y104762D01*
X985524Y98764D02*
Y104762D01*
X988523D01*
X989523Y103762D01*
Y101763D01*
X988523Y100763D01*
X985524D01*
X991522Y104762D02*
X995521D01*
X993521D01*
Y98764D01*
X997520Y104762D02*
Y98764D01*
Y101763D01*
X1001519D01*
Y104762D01*
Y98764D01*
X1035912D02*
Y104762D01*
X1038911D01*
X1039910Y103762D01*
Y101763D01*
X1038911Y100763D01*
X1035912D01*
X1037911D02*
X1039910Y98764D01*
X1042909D02*
X1044909D01*
X1045908Y99764D01*
Y101763D01*
X1044909Y102762D01*
X1042909D01*
X1041910Y101763D01*
Y99764D01*
X1042909Y98764D01*
X1047908Y102762D02*
Y99764D01*
X1048907Y98764D01*
X1051906D01*
Y102762D01*
X1053906Y98764D02*
Y102762D01*
X1056905D01*
X1057905Y101763D01*
Y98764D01*
X1063902Y104762D02*
Y98764D01*
X1060903D01*
X1059904Y99764D01*
Y101763D01*
X1060903Y102762D01*
X1063902D01*
X546451Y91762D02*
X547450Y92762D01*
X549450D01*
X550449Y91762D01*
Y90763D01*
X549450Y89763D01*
X550449Y88763D01*
Y87764D01*
X549450Y86764D01*
X547450D01*
X546451Y87764D01*
Y88763D01*
X547450Y89763D01*
X546451Y90763D01*
Y91762D01*
X547450Y89763D02*
X549450D01*
X619031Y86764D02*
Y92762D01*
X616032Y89763D01*
X620031D01*
X622030Y91762D02*
X623030Y92762D01*
X625029D01*
X626029Y91762D01*
Y90763D01*
X625029Y89763D01*
X624029D01*
X625029D01*
X626029Y88763D01*
Y87764D01*
X625029Y86764D01*
X623030D01*
X622030Y87764D01*
X628028Y86764D02*
Y87764D01*
X629028D01*
Y86764D01*
X628028D01*
X633026Y91762D02*
X634026Y92762D01*
X636025D01*
X637025Y91762D01*
Y90763D01*
X636025Y89763D01*
X635026D01*
X636025D01*
X637025Y88763D01*
Y87764D01*
X636025Y86764D01*
X634026D01*
X633026Y87764D01*
X639024Y91762D02*
X640024Y92762D01*
X642024D01*
X643023Y91762D01*
Y87764D01*
X642024Y86764D01*
X640024D01*
X639024Y87764D01*
Y91762D01*
X645022Y92762D02*
X649021D01*
Y91762D01*
X645022Y87764D01*
Y86764D01*
X651021D02*
Y90763D01*
X652020D01*
X653020Y89763D01*
Y86764D01*
Y89763D01*
X654020Y90763D01*
X655019Y89763D01*
Y86764D01*
X657019D02*
X659018D01*
X658018D01*
Y90763D01*
X657019D01*
X662017Y86764D02*
X664016D01*
X663017D01*
Y92762D01*
X662017D01*
X675013Y86764D02*
X673013Y88763D01*
Y90763D01*
X675013Y92762D01*
X678012Y86764D02*
X680011D01*
X679011D01*
Y92762D01*
X678012Y91762D01*
X683010Y86764D02*
Y87764D01*
X684010D01*
Y86764D01*
X683010D01*
X688009D02*
X690008D01*
X689008D01*
Y92762D01*
X688009Y91762D01*
X693007Y86764D02*
Y90763D01*
X694007D01*
X695006Y89763D01*
Y86764D01*
Y89763D01*
X696006Y90763D01*
X697006Y89763D01*
Y86764D01*
X699005D02*
Y90763D01*
X700005D01*
X701004Y89763D01*
Y86764D01*
Y89763D01*
X702004Y90763D01*
X703004Y89763D01*
Y86764D01*
X705003D02*
X707002Y88763D01*
Y90763D01*
X705003Y92762D01*
X985524Y86764D02*
Y92762D01*
X988523D01*
X989523Y91762D01*
Y89763D01*
X988523Y88763D01*
X985524D01*
X991522Y92762D02*
X995521D01*
X993521D01*
Y86764D01*
X997520Y92762D02*
Y86764D01*
Y89763D01*
X1001519D01*
Y92762D01*
Y86764D01*
X1035912D02*
Y92762D01*
X1038911D01*
X1039910Y91762D01*
Y89763D01*
X1038911Y88763D01*
X1035912D01*
X1037911D02*
X1039910Y86764D01*
X1042909D02*
X1044909D01*
X1045908Y87764D01*
Y89763D01*
X1044909Y90763D01*
X1042909D01*
X1041910Y89763D01*
Y87764D01*
X1042909Y86764D01*
X1047908Y90763D02*
Y87764D01*
X1048907Y86764D01*
X1051906D01*
Y90763D01*
X1053906Y86764D02*
Y90763D01*
X1056905D01*
X1057905Y89763D01*
Y86764D01*
X1063902Y92762D02*
Y86764D01*
X1060903D01*
X1059904Y87764D01*
Y89763D01*
X1060903Y90763D01*
X1063902D01*
X550449Y74764D02*
X546451D01*
X550449Y78763D01*
Y79762D01*
X549450Y80762D01*
X547450D01*
X546451Y79762D01*
X552449D02*
X553448Y80762D01*
X555448D01*
X556447Y79762D01*
Y75763D01*
X555448Y74764D01*
X553448D01*
X552449Y75763D01*
Y79762D01*
X620031Y80762D02*
X616032D01*
Y77763D01*
X618031Y78763D01*
X619031D01*
X620031Y77763D01*
Y75763D01*
X619031Y74764D01*
X617032D01*
X616032Y75763D01*
X622030Y79762D02*
X623030Y80762D01*
X625029D01*
X626029Y79762D01*
Y75763D01*
X625029Y74764D01*
X623030D01*
X622030Y75763D01*
Y79762D01*
X628028Y74764D02*
Y78763D01*
X629028D01*
X630027Y77763D01*
Y74764D01*
Y77763D01*
X631027Y78763D01*
X632027Y77763D01*
Y74764D01*
X634026D02*
X636025D01*
X635026D01*
Y78763D01*
X634026D01*
X639024Y74764D02*
X641024D01*
X640024D01*
Y80762D01*
X639024D01*
X652020Y74764D02*
X650021Y76763D01*
Y78763D01*
X652020Y80762D01*
X655019Y74764D02*
X657019D01*
X656019D01*
Y80762D01*
X655019Y79762D01*
X660018Y74764D02*
Y75763D01*
X661017D01*
Y74764D01*
X660018D01*
X669015D02*
X665016D01*
X669015Y78763D01*
Y79762D01*
X668015Y80762D01*
X666016D01*
X665016Y79762D01*
X671014Y80762D02*
X675013D01*
Y79762D01*
X671014Y75763D01*
Y74764D01*
X677012D02*
Y78763D01*
X678012D01*
X679011Y77763D01*
Y74764D01*
Y77763D01*
X680011Y78763D01*
X681011Y77763D01*
Y74764D01*
X683010D02*
Y78763D01*
X684010D01*
X685010Y77763D01*
Y74764D01*
Y77763D01*
X686009Y78763D01*
X687009Y77763D01*
Y74764D01*
X689008D02*
X691008Y76763D01*
Y78763D01*
X689008Y80762D01*
X985524Y74764D02*
Y80762D01*
X988523D01*
X989523Y79762D01*
Y77763D01*
X988523Y76763D01*
X985524D01*
X991522Y80762D02*
X995521D01*
X993521D01*
Y74764D01*
X997520Y80762D02*
Y74764D01*
Y77763D01*
X1001519D01*
Y80762D01*
Y74764D01*
X1035912D02*
Y80762D01*
X1038911D01*
X1039910Y79762D01*
Y77763D01*
X1038911Y76763D01*
X1035912D01*
X1037911D02*
X1039910Y74764D01*
X1042909D02*
X1044909D01*
X1045908Y75763D01*
Y77763D01*
X1044909Y78763D01*
X1042909D01*
X1041910Y77763D01*
Y75763D01*
X1042909Y74764D01*
X1047908Y78763D02*
Y75763D01*
X1048907Y74764D01*
X1051906D01*
Y78763D01*
X1053906Y74764D02*
Y78763D01*
X1056905D01*
X1057905Y77763D01*
Y74764D01*
X1063902Y80762D02*
Y74764D01*
X1060903D01*
X1059904Y75763D01*
Y77763D01*
X1060903Y78763D01*
X1063902D01*
X546451Y62764D02*
X548450D01*
X547450D01*
Y68762D01*
X546451Y67762D01*
X555448Y62764D02*
X551449D01*
X555448Y66763D01*
Y67762D01*
X554448Y68762D01*
X552449D01*
X551449Y67762D01*
X620031Y68762D02*
X618031Y67762D01*
X616032Y65763D01*
Y63763D01*
X617032Y62764D01*
X619031D01*
X620031Y63763D01*
Y64763D01*
X619031Y65763D01*
X616032D01*
X626029Y62764D02*
X622030D01*
X626029Y66763D01*
Y67762D01*
X625029Y68762D01*
X623030D01*
X622030Y67762D01*
X628028Y62764D02*
Y63763D01*
X629028D01*
Y62764D01*
X628028D01*
X633026Y63763D02*
X634026Y62764D01*
X636025D01*
X637025Y63763D01*
Y67762D01*
X636025Y68762D01*
X634026D01*
X633026Y67762D01*
Y66763D01*
X634026Y65763D01*
X637025D01*
X639024Y63763D02*
X640024Y62764D01*
X642024D01*
X643023Y63763D01*
Y67762D01*
X642024Y68762D01*
X640024D01*
X639024Y67762D01*
Y66763D01*
X640024Y65763D01*
X643023D01*
X649021Y62764D02*
X645022D01*
X649021Y66763D01*
Y67762D01*
X648022Y68762D01*
X646022D01*
X645022Y67762D01*
X651021Y62764D02*
Y66763D01*
X652020D01*
X653020Y65763D01*
Y62764D01*
Y65763D01*
X654020Y66763D01*
X655019Y65763D01*
Y62764D01*
X657019D02*
X659018D01*
X658018D01*
Y66763D01*
X657019D01*
X662017Y62764D02*
X664016D01*
X663017D01*
Y68762D01*
X662017D01*
X675013Y62764D02*
X673013Y64763D01*
Y66763D01*
X675013Y68762D01*
X678012Y62764D02*
X680011D01*
X679011D01*
Y68762D01*
X678012Y67762D01*
X683010Y62764D02*
Y63763D01*
X684010D01*
Y62764D01*
X683010D01*
X692007Y68762D02*
X690008Y67762D01*
X688009Y65763D01*
Y63763D01*
X689008Y62764D01*
X691008D01*
X692007Y63763D01*
Y64763D01*
X691008Y65763D01*
X688009D01*
X694007Y62764D02*
Y66763D01*
X695006D01*
X696006Y65763D01*
Y62764D01*
Y65763D01*
X697006Y66763D01*
X698005Y65763D01*
Y62764D01*
X700005D02*
Y66763D01*
X701004D01*
X702004Y65763D01*
Y62764D01*
Y65763D01*
X703004Y66763D01*
X704003Y65763D01*
Y62764D01*
X706003D02*
X708002Y64763D01*
Y66763D01*
X706003Y68762D01*
X985524Y62764D02*
Y68762D01*
X988523D01*
X989523Y67762D01*
Y65763D01*
X988523Y64763D01*
X985524D01*
X991522Y68762D02*
X995521D01*
X993521D01*
Y62764D01*
X997520Y68762D02*
Y62764D01*
Y65763D01*
X1001519D01*
Y68762D01*
Y62764D01*
X1035912D02*
Y68762D01*
X1038911D01*
X1039910Y67762D01*
Y65763D01*
X1038911Y64763D01*
X1035912D01*
X1037911D02*
X1039910Y62764D01*
X1042909D02*
X1044909D01*
X1045908Y63763D01*
Y65763D01*
X1044909Y66763D01*
X1042909D01*
X1041910Y65763D01*
Y63763D01*
X1042909Y62764D01*
X1047908Y66763D02*
Y63763D01*
X1048907Y62764D01*
X1051906D01*
Y66763D01*
X1053906Y62764D02*
Y66763D01*
X1056905D01*
X1057905Y65763D01*
Y62764D01*
X1063902Y68762D02*
Y62764D01*
X1060903D01*
X1059904Y63763D01*
Y65763D01*
X1060903Y66763D01*
X1063902D01*
X546451Y55762D02*
X547450Y56762D01*
X549450D01*
X550449Y55762D01*
Y54763D01*
X549450Y53763D01*
X550449Y52763D01*
Y51763D01*
X549450Y50764D01*
X547450D01*
X546451Y51763D01*
Y52763D01*
X547450Y53763D01*
X546451Y54763D01*
Y55762D01*
X547450Y53763D02*
X549450D01*
X619031Y50764D02*
Y56762D01*
X616032Y53763D01*
X620031D01*
X626029Y56762D02*
X622030D01*
Y53763D01*
X624029Y54763D01*
X625029D01*
X626029Y53763D01*
Y51763D01*
X625029Y50764D01*
X623030D01*
X622030Y51763D01*
X628028Y50764D02*
Y54763D01*
X629028D01*
X630027Y53763D01*
Y50764D01*
Y53763D01*
X631027Y54763D01*
X632027Y53763D01*
Y50764D01*
X634026D02*
X636025D01*
X635026D01*
Y54763D01*
X634026D01*
X639024Y50764D02*
X641024D01*
X640024D01*
Y56762D01*
X639024D01*
X652020Y50764D02*
X650021Y52763D01*
Y54763D01*
X652020Y56762D01*
X655019Y50764D02*
X657019D01*
X656019D01*
Y56762D01*
X655019Y55762D01*
X660018Y50764D02*
Y51763D01*
X661017D01*
Y50764D01*
X660018D01*
X665016D02*
X667015D01*
X666016D01*
Y56762D01*
X665016Y55762D01*
X673013Y50764D02*
Y56762D01*
X670014Y53763D01*
X674013D01*
X676013Y55762D02*
X677012Y56762D01*
X679011D01*
X680011Y55762D01*
Y54763D01*
X679011Y53763D01*
X678012D01*
X679011D01*
X680011Y52763D01*
Y51763D01*
X679011Y50764D01*
X677012D01*
X676013Y51763D01*
X682011Y50764D02*
Y54763D01*
X683010D01*
X684010Y53763D01*
Y50764D01*
Y53763D01*
X685010Y54763D01*
X686009Y53763D01*
Y50764D01*
X688009D02*
Y54763D01*
X689008D01*
X690008Y53763D01*
Y50764D01*
Y53763D01*
X691008Y54763D01*
X692007Y53763D01*
Y50764D01*
X694007D02*
X696006Y52763D01*
Y54763D01*
X694007Y56762D01*
X750392Y50764D02*
X752392D01*
X751392D01*
Y56762D01*
X750392Y55762D01*
X759389Y50764D02*
X755391D01*
X759389Y54763D01*
Y55762D01*
X758390Y56762D01*
X756390D01*
X755391Y55762D01*
X761389D02*
X762388Y56762D01*
X764388D01*
X765387Y55762D01*
Y51763D01*
X764388Y50764D01*
X762388D01*
X761389Y51763D01*
Y55762D01*
X767387Y50764D02*
Y54763D01*
X768387D01*
X769386Y53763D01*
Y50764D01*
Y53763D01*
X770386Y54763D01*
X771385Y53763D01*
Y50764D01*
X773385D02*
X775384D01*
X774385D01*
Y54763D01*
X773385D01*
X778383Y50764D02*
X780383D01*
X779383D01*
Y56762D01*
X778383D01*
X791379Y50764D02*
X789380Y52763D01*
Y54763D01*
X791379Y56762D01*
X794378Y55762D02*
X795378Y56762D01*
X797377D01*
X798377Y55762D01*
Y54763D01*
X797377Y53763D01*
X796377D01*
X797377D01*
X798377Y52763D01*
Y51763D01*
X797377Y50764D01*
X795378D01*
X794378Y51763D01*
X800376Y50764D02*
Y51763D01*
X801376D01*
Y50764D01*
X800376D01*
X805375Y55762D02*
X806374Y56762D01*
X808374D01*
X809373Y55762D01*
Y51763D01*
X808374Y50764D01*
X806374D01*
X805375Y51763D01*
Y55762D01*
X814372Y50764D02*
Y56762D01*
X811373Y53763D01*
X815371D01*
X817371Y55762D02*
X818370Y56762D01*
X820370D01*
X821369Y55762D01*
Y54763D01*
X820370Y53763D01*
X821369Y52763D01*
Y51763D01*
X820370Y50764D01*
X818370D01*
X817371Y51763D01*
Y52763D01*
X818370Y53763D01*
X817371Y54763D01*
Y55762D01*
X818370Y53763D02*
X820370D01*
X823369Y50764D02*
Y54763D01*
X824368D01*
X825368Y53763D01*
Y50764D01*
Y53763D01*
X826368Y54763D01*
X827367Y53763D01*
Y50764D01*
X829367D02*
Y54763D01*
X830366D01*
X831366Y53763D01*
Y50764D01*
Y53763D01*
X832366Y54763D01*
X833366Y53763D01*
Y50764D01*
X835365D02*
X837364Y52763D01*
Y54763D01*
X835365Y56762D01*
X864359D02*
X868358D01*
Y55762D01*
X864359Y51763D01*
Y50764D01*
X874356Y56762D02*
X870357D01*
Y53763D01*
X872357Y54763D01*
X873356D01*
X874356Y53763D01*
Y51763D01*
X873356Y50764D01*
X871357D01*
X870357Y51763D01*
X876355Y50764D02*
Y54763D01*
X877355D01*
X878355Y53763D01*
Y50764D01*
Y53763D01*
X879354Y54763D01*
X880354Y53763D01*
Y50764D01*
X882353D02*
X884353D01*
X883353D01*
Y54763D01*
X882353D01*
X887352Y50764D02*
X889351D01*
X888352D01*
Y56762D01*
X887352D01*
X900348Y50764D02*
X898348Y52763D01*
Y54763D01*
X900348Y56762D01*
X903347Y50764D02*
X905346D01*
X904346D01*
Y56762D01*
X903347Y55762D01*
X908345Y50764D02*
Y51763D01*
X909345D01*
Y50764D01*
X908345D01*
X913344Y51763D02*
X914343Y50764D01*
X916343D01*
X917342Y51763D01*
Y55762D01*
X916343Y56762D01*
X914343D01*
X913344Y55762D01*
Y54763D01*
X914343Y53763D01*
X917342D01*
X919341Y55762D02*
X920341Y56762D01*
X922341D01*
X923340Y55762D01*
Y51763D01*
X922341Y50764D01*
X920341D01*
X919341Y51763D01*
Y55762D01*
X929338Y56762D02*
X925340D01*
Y53763D01*
X927339Y54763D01*
X928339D01*
X929338Y53763D01*
Y51763D01*
X928339Y50764D01*
X926339D01*
X925340Y51763D01*
X931338Y50764D02*
Y54763D01*
X932337D01*
X933337Y53763D01*
Y50764D01*
Y53763D01*
X934337Y54763D01*
X935336Y53763D01*
Y50764D01*
X937336D02*
Y54763D01*
X938335D01*
X939335Y53763D01*
Y50764D01*
Y53763D01*
X940335Y54763D01*
X941334Y53763D01*
Y50764D01*
X943334D02*
X945333Y52763D01*
Y54763D01*
X943334Y56762D01*
X985524Y50764D02*
Y56762D01*
X988523D01*
X989523Y55762D01*
Y53763D01*
X988523Y52763D01*
X985524D01*
X991522Y56762D02*
X995521D01*
X993521D01*
Y50764D01*
X997520Y56762D02*
Y50764D01*
Y53763D01*
X1001519D01*
Y56762D01*
Y50764D01*
X1039910Y55762D02*
X1038911Y56762D01*
X1036911D01*
X1035912Y55762D01*
Y54763D01*
X1036911Y53763D01*
X1038911D01*
X1039910Y52763D01*
Y51763D01*
X1038911Y50764D01*
X1036911D01*
X1035912Y51763D01*
X1041910Y50764D02*
X1043909D01*
X1042909D01*
Y56762D01*
X1041910D01*
X1047908Y50764D02*
X1049907D01*
X1050907Y51763D01*
Y53763D01*
X1049907Y54763D01*
X1047908D01*
X1046908Y53763D01*
Y51763D01*
X1047908Y50764D01*
X1053906Y55762D02*
Y54763D01*
X1052906D01*
X1054905D01*
X1053906D01*
Y51763D01*
X1054905Y50764D01*
X550449Y38764D02*
X546451D01*
X550449Y42763D01*
Y43762D01*
X549450Y44762D01*
X547450D01*
X546451Y43762D01*
X556447Y38764D02*
X552449D01*
X556447Y42763D01*
Y43762D01*
X555448Y44762D01*
X553448D01*
X552449Y43762D01*
X561446Y38764D02*
Y44762D01*
X558447Y41763D01*
X562445D01*
X573245Y44762D02*
X577244D01*
X575245D01*
Y38764D01*
X580243D02*
X582242D01*
X583242Y39764D01*
Y41763D01*
X582242Y42763D01*
X580243D01*
X579244Y41763D01*
Y39764D01*
X580243Y38764D01*
X586241Y43762D02*
Y42763D01*
X585242D01*
X587241D01*
X586241D01*
Y39764D01*
X587241Y38764D01*
X591240Y42763D02*
X593239D01*
X594239Y41763D01*
Y38764D01*
X591240D01*
X590240Y39764D01*
X591240Y40763D01*
X594239D01*
X596238Y38764D02*
X598237D01*
X597238D01*
Y44762D01*
X596238D01*
X703401Y28763D02*
X707399D01*
X703401Y30762D02*
X707399D01*
X719395Y31762D02*
X718396Y32762D01*
X716396D01*
X715397Y31762D01*
Y27764D01*
X716396Y26764D01*
X718396D01*
X719395Y27764D01*
X722394Y30762D02*
X724394D01*
X725393Y29763D01*
Y26764D01*
X722394D01*
X721395Y27764D01*
X722394Y28763D01*
X725393D01*
X727393Y26764D02*
X729392D01*
X728393D01*
Y32762D01*
X727393D01*
X736390Y30762D02*
X733391D01*
X732391Y29763D01*
Y27764D01*
X733391Y26764D01*
X736390D01*
X738389Y30762D02*
Y27764D01*
X739389Y26764D01*
X742388D01*
Y30762D01*
X744387Y26764D02*
X746387D01*
X745387D01*
Y32762D01*
X744387D01*
X750385Y30762D02*
X752385D01*
X753384Y29763D01*
Y26764D01*
X750385D01*
X749386Y27764D01*
X750385Y28763D01*
X753384D01*
X756383Y31762D02*
Y30762D01*
X755384D01*
X757383D01*
X756383D01*
Y27764D01*
X757383Y26764D01*
X763381D02*
X761382D01*
X760382Y27764D01*
Y29763D01*
X761382Y30762D01*
X763381D01*
X764381Y29763D01*
Y28763D01*
X760382D01*
X770379Y32762D02*
Y26764D01*
X767380D01*
X766380Y27764D01*
Y29763D01*
X767380Y30762D01*
X770379D01*
X779376Y26764D02*
Y31762D01*
Y29763D01*
X778376D01*
X780376D01*
X779376D01*
Y31762D01*
X780376Y32762D01*
X783375Y30762D02*
Y26764D01*
Y28763D01*
X784374Y29763D01*
X785374Y30762D01*
X786374D01*
X790372Y26764D02*
X792372D01*
X793371Y27764D01*
Y29763D01*
X792372Y30762D01*
X790372D01*
X789373Y29763D01*
Y27764D01*
X790372Y26764D01*
X795371D02*
Y30762D01*
X796371D01*
X797370Y29763D01*
Y26764D01*
Y29763D01*
X798370Y30762D01*
X799369Y29763D01*
Y26764D01*
X808367Y31762D02*
Y30762D01*
X807367D01*
X809366D01*
X808367D01*
Y27764D01*
X809366Y26764D01*
X813365D02*
X815364D01*
X816364Y27764D01*
Y29763D01*
X815364Y30762D01*
X813365D01*
X812365Y29763D01*
Y27764D01*
X813365Y26764D01*
X819363D02*
X821362D01*
X822362Y27764D01*
Y29763D01*
X821362Y30762D01*
X819363D01*
X818363Y29763D01*
Y27764D01*
X819363Y26764D01*
X824361D02*
X826361D01*
X825361D01*
Y32762D01*
X824361D01*
X835358Y26764D02*
X838357D01*
X839357Y27764D01*
X838357Y28763D01*
X836357D01*
X835358Y29763D01*
X836357Y30762D01*
X839357D01*
X842356Y31762D02*
Y30762D01*
X841356D01*
X843355D01*
X842356D01*
Y27764D01*
X843355Y26764D01*
X847354Y30762D02*
X849353D01*
X850353Y29763D01*
Y26764D01*
X847354D01*
X846354Y27764D01*
X847354Y28763D01*
X850353D01*
X852352Y30762D02*
Y26764D01*
Y28763D01*
X853352Y29763D01*
X854352Y30762D01*
X855351D01*
X859350Y31762D02*
Y30762D01*
X858350D01*
X860350D01*
X859350D01*
Y27764D01*
X860350Y26764D01*
X873346Y30762D02*
X870347D01*
X869347Y29763D01*
Y27764D01*
X870347Y26764D01*
X873346D01*
X878344D02*
X876345D01*
X875345Y27764D01*
Y29763D01*
X876345Y30762D01*
X878344D01*
X879344Y29763D01*
Y28763D01*
X875345D01*
X881343Y26764D02*
Y30762D01*
X884342D01*
X885342Y29763D01*
Y26764D01*
X888341Y31762D02*
Y30762D01*
X887341D01*
X889340D01*
X888341D01*
Y27764D01*
X889340Y26764D01*
X892339Y30762D02*
Y26764D01*
Y28763D01*
X893339Y29763D01*
X894339Y30762D01*
X895339D01*
X901336Y26764D02*
X899337D01*
X898337Y27764D01*
Y29763D01*
X899337Y30762D01*
X901336D01*
X902336Y29763D01*
Y28763D01*
X898337D01*
X910334Y24764D02*
Y30762D01*
X913333D01*
X914332Y29763D01*
Y27764D01*
X913333Y26764D01*
X910334D01*
X917331D02*
X919331D01*
X920330Y27764D01*
Y29763D01*
X919331Y30762D01*
X917331D01*
X916332Y29763D01*
Y27764D01*
X917331Y26764D01*
X922330D02*
X925329D01*
X926328Y27764D01*
X925329Y28763D01*
X923329D01*
X922330Y29763D01*
X923329Y30762D01*
X926328D01*
X928328Y26764D02*
X930327D01*
X929327D01*
Y30762D01*
X928328D01*
X934326Y31762D02*
Y30762D01*
X933326D01*
X935326D01*
X934326D01*
Y27764D01*
X935326Y26764D01*
X938325D02*
X940324D01*
X939324D01*
Y30762D01*
X938325D01*
X944323Y26764D02*
X946322D01*
X947322Y27764D01*
Y29763D01*
X946322Y30762D01*
X944323D01*
X943323Y29763D01*
Y27764D01*
X944323Y26764D01*
X949321D02*
Y30762D01*
X952320D01*
X953320Y29763D01*
Y26764D01*
X962317Y31762D02*
Y30762D01*
X961317D01*
X963317D01*
X962317D01*
Y27764D01*
X963317Y26764D01*
X967315D02*
X969314D01*
X970314Y27764D01*
Y29763D01*
X969314Y30762D01*
X967315D01*
X966315Y29763D01*
Y27764D01*
X967315Y26764D01*
X979311Y31762D02*
Y30762D01*
X978312D01*
X980311D01*
X979311D01*
Y27764D01*
X980311Y26764D01*
X984310D02*
X986309D01*
X987309Y27764D01*
Y29763D01*
X986309Y30762D01*
X984310D01*
X983310Y29763D01*
Y27764D01*
X984310Y26764D01*
X990308D02*
X992307D01*
X993307Y27764D01*
Y29763D01*
X992307Y30762D01*
X990308D01*
X989308Y29763D01*
Y27764D01*
X990308Y26764D01*
X995306D02*
X997305D01*
X996306D01*
Y32762D01*
X995306D01*
X1009302Y26764D02*
X1007302D01*
X1006303Y27764D01*
Y29763D01*
X1007302Y30762D01*
X1009302D01*
X1010301Y29763D01*
Y28763D01*
X1006303D01*
X1012301Y26764D02*
Y30762D01*
X1015300D01*
X1016299Y29763D01*
Y26764D01*
X1022297Y32762D02*
Y26764D01*
X1019298D01*
X1018299Y27764D01*
Y29763D01*
X1019298Y30762D01*
X1022297D01*
X1034293D02*
X1031295D01*
X1030295Y29763D01*
Y27764D01*
X1031295Y26764D01*
X1034293D01*
X1039292D02*
X1037292D01*
X1036293Y27764D01*
Y29763D01*
X1037292Y30762D01*
X1039292D01*
X1040292Y29763D01*
Y28763D01*
X1036293D01*
X1042291Y26764D02*
Y30762D01*
X1045290D01*
X1046290Y29763D01*
Y26764D01*
X1049289Y31762D02*
Y30762D01*
X1048289D01*
X1050288D01*
X1049289D01*
Y27764D01*
X1050288Y26764D01*
X1053287Y30762D02*
Y26764D01*
Y28763D01*
X1054287Y29763D01*
X1055287Y30762D01*
X1056286D01*
X1062284Y26764D02*
X1060285D01*
X1059285Y27764D01*
Y29763D01*
X1060285Y30762D01*
X1062284D01*
X1063284Y29763D01*
Y28763D01*
X1059285D01*
X1071282Y24764D02*
Y30762D01*
X1074281D01*
X1075280Y29763D01*
Y27764D01*
X1074281Y26764D01*
X1071282D01*
X1078279D02*
X1080279D01*
X1081278Y27764D01*
Y29763D01*
X1080279Y30762D01*
X1078279D01*
X1077280Y29763D01*
Y27764D01*
X1078279Y26764D01*
X1083278D02*
X1086277D01*
X1087276Y27764D01*
X1086277Y28763D01*
X1084277D01*
X1083278Y29763D01*
X1084277Y30762D01*
X1087276D01*
X1089276Y26764D02*
X1091275D01*
X1090275D01*
Y30762D01*
X1089276D01*
X1095274Y31762D02*
Y30762D01*
X1094274D01*
X1096273D01*
X1095274D01*
Y27764D01*
X1096273Y26764D01*
X1099273D02*
X1101272D01*
X1100272D01*
Y30762D01*
X1099273D01*
X1105270Y26764D02*
X1107270D01*
X1108270Y27764D01*
Y29763D01*
X1107270Y30762D01*
X1105270D01*
X1104271Y29763D01*
Y27764D01*
X1105270Y26764D01*
X1110269D02*
Y30762D01*
X1113268D01*
X1114268Y29763D01*
Y26764D01*
X1116267D02*
Y27764D01*
X1117267D01*
Y26764D01*
X1116267D01*
X703401Y16763D02*
X707399D01*
X703401Y18763D02*
X707399D01*
X715397Y14764D02*
Y20762D01*
X718396D01*
X719395Y19762D01*
Y17763D01*
X718396Y16763D01*
X715397D01*
X717396D02*
X719395Y14764D01*
X722394D02*
X724394D01*
X725393Y15764D01*
Y17763D01*
X724394Y18763D01*
X722394D01*
X721395Y17763D01*
Y15764D01*
X722394Y14764D01*
X727393Y18763D02*
Y15764D01*
X728393Y14764D01*
X731391D01*
Y18763D01*
X734390Y19762D02*
Y18763D01*
X733391D01*
X735390D01*
X734390D01*
Y15764D01*
X735390Y14764D01*
X744387D02*
Y20762D01*
X747386D01*
X748386Y19762D01*
Y17763D01*
X747386Y16763D01*
X744387D01*
X751385Y18763D02*
X753384D01*
X754384Y17763D01*
Y14764D01*
X751385D01*
X750385Y15764D01*
X751385Y16763D01*
X754384D01*
X757383Y19762D02*
Y18763D01*
X756383D01*
X758383D01*
X757383D01*
Y15764D01*
X758383Y14764D01*
X761382Y20762D02*
Y14764D01*
Y17763D01*
X762382Y18763D01*
X764381D01*
X765380Y17763D01*
Y14764D01*
X773378Y20762D02*
Y14764D01*
X777377D01*
X782375D02*
X780376D01*
X779376Y15764D01*
Y17763D01*
X780376Y18763D01*
X782375D01*
X783375Y17763D01*
Y16763D01*
X779376D01*
X785374Y14764D02*
Y18763D01*
X788373D01*
X789373Y17763D01*
Y14764D01*
X793371Y12764D02*
X794371D01*
X795371Y13764D01*
Y18763D01*
X792372D01*
X791372Y17763D01*
Y15764D01*
X792372Y14764D01*
X795371D01*
X798370Y19762D02*
Y18763D01*
X797370D01*
X799369D01*
X798370D01*
Y15764D01*
X799369Y14764D01*
X802369Y20762D02*
Y14764D01*
Y17763D01*
X803368Y18763D01*
X805368D01*
X806367Y17763D01*
Y14764D01*
X814365Y17763D02*
X818363D01*
X816364Y19762D02*
Y15764D01*
X826361Y20762D02*
X830359D01*
X828360D01*
Y14764D01*
X833358D02*
X835358D01*
X836358Y15764D01*
Y17763D01*
X835358Y18763D01*
X833358D01*
X832359Y17763D01*
Y15764D01*
X833358Y14764D01*
X839357D02*
X841356D01*
X842356Y15764D01*
Y17763D01*
X841356Y18763D01*
X839357D01*
X838357Y17763D01*
Y15764D01*
X839357Y14764D01*
X844355D02*
X846354D01*
X845355D01*
Y20762D01*
X844355D01*
X859350Y19762D02*
X858350Y20762D01*
X856351D01*
X855351Y19762D01*
Y18763D01*
X856351Y17763D01*
X858350D01*
X859350Y16763D01*
Y15764D01*
X858350Y14764D01*
X856351D01*
X855351Y15764D01*
X861349Y14764D02*
X863349D01*
X862349D01*
Y18763D01*
X861349D01*
X866348D02*
X870347D01*
X866348Y14764D01*
X870347D01*
X875345D02*
X873346D01*
X872346Y15764D01*
Y17763D01*
X873346Y18763D01*
X875345D01*
X876345Y17763D01*
Y16763D01*
X872346D01*
X884342D02*
X888341D01*
X884342Y18763D02*
X888341D01*
X900337Y19762D02*
X899337Y20762D01*
X897338D01*
X896338Y19762D01*
Y18763D01*
X897338Y17763D01*
X899337D01*
X900337Y16763D01*
Y15764D01*
X899337Y14764D01*
X897338D01*
X896338Y15764D01*
X902336Y14764D02*
X904335D01*
X903336D01*
Y20762D01*
X902336D01*
X908334Y14764D02*
X910334D01*
X911333Y15764D01*
Y17763D01*
X910334Y18763D01*
X908334D01*
X907335Y17763D01*
Y15764D01*
X908334Y14764D01*
X914332Y19762D02*
Y18763D01*
X913333D01*
X915332D01*
X914332D01*
Y15764D01*
X915332Y14764D01*
X924329D02*
X926328D01*
X925329D01*
Y20762D01*
X924329D01*
X932327Y14764D02*
X930327D01*
X929327Y15764D01*
Y17763D01*
X930327Y18763D01*
X932327D01*
X933326Y17763D01*
Y16763D01*
X929327D01*
X935326Y14764D02*
Y18763D01*
X938325D01*
X939324Y17763D01*
Y14764D01*
X943323Y12764D02*
X944323D01*
X945322Y13764D01*
Y18763D01*
X942323D01*
X941324Y17763D01*
Y15764D01*
X942323Y14764D01*
X945322D01*
X948321Y19762D02*
Y18763D01*
X947322D01*
X949321D01*
X948321D01*
Y15764D01*
X949321Y14764D01*
X952320Y20762D02*
Y14764D01*
Y17763D01*
X953320Y18763D01*
X955319D01*
X956319Y17763D01*
Y14764D01*
X965316Y18763D02*
X967315D01*
X968315Y17763D01*
Y14764D01*
X965316D01*
X964316Y15764D01*
X965316Y16763D01*
X968315D01*
X970314Y14764D02*
X973313D01*
X974313Y15764D01*
X973313Y16763D01*
X971314D01*
X970314Y17763D01*
X971314Y18763D01*
X974313D01*
X986309Y20762D02*
Y14764D01*
X983310D01*
X982310Y15764D01*
Y17763D01*
X983310Y18763D01*
X986309D01*
X991307Y14764D02*
X989308D01*
X988308Y15764D01*
Y17763D01*
X989308Y18763D01*
X991307D01*
X992307Y17763D01*
Y16763D01*
X988308D01*
X995306Y14764D02*
Y19762D01*
Y17763D01*
X994306D01*
X996306D01*
X995306D01*
Y19762D01*
X996306Y20762D01*
X999305Y14764D02*
X1001304D01*
X1000305D01*
Y18763D01*
X999305D01*
X1004303Y14764D02*
Y18763D01*
X1007302D01*
X1008302Y17763D01*
Y14764D01*
X1013300D02*
X1011301D01*
X1010301Y15764D01*
Y17763D01*
X1011301Y18763D01*
X1013300D01*
X1014300Y17763D01*
Y16763D01*
X1010301D01*
X1020298Y20762D02*
Y14764D01*
X1017299D01*
X1016299Y15764D01*
Y17763D01*
X1017299Y18763D01*
X1020298D01*
X1028295Y14764D02*
X1030295D01*
X1029295D01*
Y18763D01*
X1028295D01*
X1033294Y14764D02*
Y18763D01*
X1036293D01*
X1037292Y17763D01*
Y14764D01*
X1046290Y19762D02*
Y18763D01*
X1045290D01*
X1047289D01*
X1046290D01*
Y15764D01*
X1047289Y14764D01*
X1050288Y20762D02*
Y14764D01*
Y17763D01*
X1051288Y18763D01*
X1053287D01*
X1054287Y17763D01*
Y14764D01*
X1059285D02*
X1057286D01*
X1056286Y15764D01*
Y17763D01*
X1057286Y18763D01*
X1059285D01*
X1060285Y17763D01*
Y16763D01*
X1056286D01*
X1068283Y14764D02*
Y20762D01*
X1071282D01*
X1072281Y19762D01*
Y17763D01*
X1071282Y16763D01*
X1068283D01*
X1078279Y19762D02*
X1077280Y20762D01*
X1075280D01*
X1074281Y19762D01*
Y15764D01*
X1075280Y14764D01*
X1077280D01*
X1078279Y15764D01*
X1080279Y20762D02*
Y14764D01*
X1083278D01*
X1084277Y15764D01*
Y16763D01*
X1083278Y17763D01*
X1080279D01*
X1083278D01*
X1084277Y18763D01*
Y19762D01*
X1083278Y20762D01*
X1080279D01*
X1092275Y14764D02*
X1094274D01*
X1093274D01*
Y20762D01*
X1092275D01*
X1098273Y18763D02*
X1100272D01*
X1101272Y17763D01*
Y14764D01*
X1098273D01*
X1097273Y15764D01*
X1098273Y16763D01*
X1101272D01*
X1103271Y18763D02*
Y15764D01*
X1104271Y14764D01*
X1107270D01*
Y13764D01*
X1106270Y12764D01*
X1105270D01*
X1107270Y14764D02*
Y18763D01*
X1110269Y14764D02*
X1112268D01*
X1113268Y15764D01*
Y17763D01*
X1112268Y18763D01*
X1110269D01*
X1109269Y17763D01*
Y15764D01*
X1110269Y14764D01*
X1115267Y18763D02*
Y15764D01*
X1116267Y14764D01*
X1119266D01*
Y18763D01*
X1122265Y19762D02*
Y18763D01*
X1121265D01*
X1123265D01*
X1122265D01*
Y15764D01*
X1123265Y14764D01*
D11*
X65270Y155470D02*
Y159470D01*
X69270D01*
Y155470D01*
X65270D01*
X51490D02*
Y159470D01*
X55490D01*
Y155470D01*
X51490D01*
X166685Y161206D02*
X164685Y165206D01*
X168685D01*
X166685Y161206D01*
Y116324D02*
X164685Y120324D01*
X168685D01*
X166685Y116324D01*
X90655Y47970D02*
X91655Y48970D01*
X92655D01*
X91655Y49970D01*
X92655Y50970D01*
X91655D01*
X90655Y51970D01*
X89655Y50970D01*
X88655D01*
X89655Y49970D01*
X88655Y48970D01*
X89655D01*
X90655Y47970D01*
X49285Y67655D02*
X50285Y69655D01*
X49285Y71655D01*
X51285Y70655D01*
X53285Y71655D01*
X52285Y69655D01*
X53285Y67655D01*
X51285Y68655D01*
X49285Y67655D01*
X59128D02*
X60128Y69655D01*
X59128Y71655D01*
X61128Y70655D01*
X63128Y71655D01*
X62128Y69655D01*
X63128Y67655D01*
X61128Y68655D01*
X59128Y67655D01*
X88655D02*
X89655Y69655D01*
X88655Y71655D01*
X90655Y70655D01*
X92655Y71655D01*
X91655Y69655D01*
X92655Y67655D01*
X90655Y68655D01*
X88655Y67655D01*
X78813D02*
X79813Y69655D01*
X78813Y71655D01*
X80813Y70655D01*
X82813Y71655D01*
X81813Y69655D01*
X82813Y67655D01*
X80813Y68655D01*
X78813Y67655D01*
X68970Y47970D02*
X69970Y49970D01*
X68970Y51970D01*
X70970Y50970D01*
X72970Y51970D01*
X71970Y49970D01*
X72970Y47970D01*
X70970Y48970D01*
X68970Y47970D01*
X51285D02*
X52285Y48970D01*
X53285D01*
X52285Y49970D01*
X53285Y50970D01*
X52285D01*
X51285Y51970D01*
X50285Y50970D01*
X49285D01*
X50285Y49970D01*
X49285Y48970D01*
X50285D01*
X51285Y47970D01*
X70970Y67655D02*
X71970Y68655D01*
X72970D01*
X71970Y69655D01*
X72970Y70655D01*
X71970D01*
X70970Y71655D01*
X69970Y70655D01*
X68970D01*
X69970Y69655D01*
X68970Y68655D01*
X69970D01*
X70970Y67655D01*
X65270Y121270D02*
Y125270D01*
X69270D01*
Y121270D01*
X65270D01*
X51490D02*
Y125270D01*
X55490D01*
Y121270D01*
X51490D01*
X129070Y153870D02*
Y152870D01*
X131070D01*
Y153870D01*
X132070D01*
Y155870D01*
X131070D01*
Y156870D01*
X129070D01*
Y155870D01*
X128070D01*
Y153870D01*
X129070D01*
X126070D02*
Y152870D01*
X128070D01*
Y153870D01*
X129070D01*
Y155870D01*
X128070D01*
Y156870D01*
X126070D01*
Y155870D01*
X125070D01*
Y153870D01*
X126070D01*
Y156870D02*
Y155870D01*
X128070D01*
Y156870D01*
X129070D01*
Y158870D01*
X128070D01*
Y159870D01*
X126070D01*
Y158870D01*
X125070D01*
Y156870D01*
X126070D01*
X129070D02*
Y155870D01*
X131070D01*
Y156870D01*
X132070D01*
Y158870D01*
X131070D01*
Y159870D01*
X129070D01*
Y158870D01*
X128070D01*
Y156870D01*
X129070D01*
X118570Y114470D02*
Y113470D01*
X120570D01*
Y114470D01*
X121570D01*
Y116470D01*
X120570D01*
Y117470D01*
X118570D01*
Y116470D01*
X117570D01*
Y114470D01*
X118570D01*
X115570D02*
Y113470D01*
X117570D01*
Y114470D01*
X118570D01*
Y116470D01*
X117570D01*
Y117470D01*
X115570D01*
Y116470D01*
X114570D01*
Y114470D01*
X115570D01*
Y111470D02*
Y110470D01*
X117570D01*
Y111470D01*
X118570D01*
Y113470D01*
X117570D01*
Y114470D01*
X115570D01*
Y113470D01*
X114570D01*
Y111470D01*
X115570D01*
X118570D02*
Y110470D01*
X120570D01*
Y111470D01*
X121570D01*
Y113470D01*
X120570D01*
Y114470D01*
X118570D01*
Y113470D01*
X117570D01*
Y111470D01*
X118570D01*
X150470Y113770D02*
Y112770D01*
X152470D01*
Y113770D01*
X153470D01*
Y115770D01*
X152470D01*
Y116770D01*
X150470D01*
Y115770D01*
X149470D01*
Y113770D01*
X150470D01*
X147470D02*
Y112770D01*
X149470D01*
Y113770D01*
X150470D01*
Y115770D01*
X149470D01*
Y116770D01*
X147470D01*
Y115770D01*
X146470D01*
Y113770D01*
X147470D01*
Y116770D02*
Y115770D01*
X149470D01*
Y116770D01*
X150470D01*
Y118770D01*
X149470D01*
Y119770D01*
X147470D01*
Y118770D01*
X146470D01*
Y116770D01*
X147470D01*
X150470D02*
Y115770D01*
X152470D01*
Y116770D01*
X153470D01*
Y118770D01*
X152470D01*
Y119770D01*
X150470D01*
Y118770D01*
X149470D01*
Y116770D01*
X150470D01*
X145570Y139270D02*
Y138270D01*
X147570D01*
Y139270D01*
X148570D01*
Y141270D01*
X147570D01*
Y142270D01*
X145570D01*
Y141270D01*
X144570D01*
Y139270D01*
X145570D01*
X135670Y165670D02*
Y164670D01*
X137670D01*
Y165670D01*
X138670D01*
Y167670D01*
X137670D01*
Y168670D01*
X135670D01*
Y167670D01*
X134670D01*
Y165670D01*
X135670D01*
X106970Y108470D02*
Y107470D01*
X108970D01*
Y108470D01*
X109970D01*
Y110470D01*
X108970D01*
Y111470D01*
X106970D01*
Y110470D01*
X105970D01*
Y108470D01*
X106970D01*
X110070Y90070D02*
Y89070D01*
X112070D01*
Y90070D01*
X113070D01*
Y92070D01*
X112070D01*
Y93070D01*
X110070D01*
Y92070D01*
X109070D01*
Y90070D01*
X110070D01*
X148770Y133770D02*
Y132770D01*
X150770D01*
Y133770D01*
X151770D01*
Y135770D01*
X150770D01*
Y136770D01*
X148770D01*
Y135770D01*
X147770D01*
Y133770D01*
X148770D01*
Y141670D02*
Y140670D01*
X150770D01*
Y141670D01*
X151770D01*
Y143670D01*
X150770D01*
Y144670D01*
X148770D01*
Y143670D01*
X147770D01*
Y141670D01*
X148770D01*
X146870Y156570D02*
Y155570D01*
X148870D01*
Y156570D01*
X149870D01*
Y158570D01*
X148870D01*
Y159570D01*
X146870D01*
Y158570D01*
X145870D01*
Y156570D01*
X146870D01*
Y153570D02*
Y152570D01*
X148870D01*
Y153570D01*
X149870D01*
Y155570D01*
X148870D01*
Y156570D01*
X146870D01*
Y155570D01*
X145870D01*
Y153570D01*
X146870D01*
Y150570D02*
Y149570D01*
X148870D01*
Y150570D01*
X149870D01*
Y152570D01*
X148870D01*
Y153570D01*
X146870D01*
Y152570D01*
X145870D01*
Y150570D01*
X146870D01*
X106970Y111470D02*
Y110470D01*
X108970D01*
Y111470D01*
X109970D01*
Y113470D01*
X108970D01*
Y114470D01*
X106970D01*
Y113470D01*
X105970D01*
Y111470D01*
X106970D01*
X103970D02*
Y110470D01*
X105970D01*
Y111470D01*
X106970D01*
Y113470D01*
X105970D01*
Y114470D01*
X103970D01*
Y113470D01*
X102970D01*
Y111470D01*
X103970D01*
Y108470D02*
Y107470D01*
X105970D01*
Y108470D01*
X106970D01*
Y110470D01*
X105970D01*
Y111470D01*
X103970D01*
Y110470D01*
X102970D01*
Y108470D01*
X103970D01*
X107070Y90070D02*
Y89070D01*
X109070D01*
Y90070D01*
X110070D01*
Y92070D01*
X109070D01*
Y93070D01*
X107070D01*
Y92070D01*
X106070D01*
Y90070D01*
X107070D01*
Y87070D02*
Y86070D01*
X109070D01*
Y87070D01*
X110070D01*
Y89070D01*
X109070D01*
Y90070D01*
X107070D01*
Y89070D01*
X106070D01*
Y87070D01*
X107070D01*
X110070D02*
Y86070D01*
X112070D01*
Y87070D01*
X113070D01*
Y89070D01*
X112070D01*
Y90070D01*
X110070D01*
Y89070D01*
X109070D01*
Y87070D01*
X110070D01*
X146870Y147570D02*
Y146570D01*
X148870D01*
Y147570D01*
X149870D01*
Y149570D01*
X148870D01*
Y150570D01*
X146870D01*
Y149570D01*
X145870D01*
Y147570D01*
X146870D01*
X130870Y145070D02*
Y144070D01*
X132870D01*
Y145070D01*
X133870D01*
Y147070D01*
X132870D01*
Y148070D01*
X130870D01*
Y147070D01*
X129870D01*
Y145070D01*
X130870D01*
X127870D02*
Y144070D01*
X129870D01*
Y145070D01*
X130870D01*
Y147070D01*
X129870D01*
Y148070D01*
X127870D01*
Y147070D01*
X126870D01*
Y145070D01*
X127870D01*
Y148070D02*
Y147070D01*
X129870D01*
Y148070D01*
X130870D01*
Y150070D01*
X129870D01*
Y151070D01*
X127870D01*
Y150070D01*
X126870D01*
Y148070D01*
X127870D01*
X130870D02*
Y147070D01*
X132870D01*
Y148070D01*
X133870D01*
Y150070D01*
X132870D01*
Y151070D01*
X130870D01*
Y150070D01*
X129870D01*
Y148070D01*
X130870D01*
X132270Y107570D02*
Y106570D01*
X134270D01*
Y107570D01*
X135270D01*
Y109570D01*
X134270D01*
Y110570D01*
X132270D01*
Y109570D01*
X131270D01*
Y107570D01*
X132270D01*
X129270D02*
Y106570D01*
X131270D01*
Y107570D01*
X132270D01*
Y109570D01*
X131270D01*
Y110570D01*
X129270D01*
Y109570D01*
X128270D01*
Y107570D01*
X129270D01*
Y104570D02*
Y103570D01*
X131270D01*
Y104570D01*
X132270D01*
Y106570D01*
X131270D01*
Y107570D01*
X129270D01*
Y106570D01*
X128270D01*
Y104570D01*
X129270D01*
X132270D02*
Y103570D01*
X134270D01*
Y104570D01*
X135270D01*
Y106570D01*
X134270D01*
Y107570D01*
X132270D01*
Y106570D01*
X131270D01*
Y104570D01*
X132270D01*
X118570Y121770D02*
Y120770D01*
X120570D01*
Y121770D01*
X121570D01*
Y123770D01*
X120570D01*
Y124770D01*
X118570D01*
Y123770D01*
X117570D01*
Y121770D01*
X118570D01*
X105870Y148870D02*
Y147870D01*
X107870D01*
Y148870D01*
X108870D01*
Y150870D01*
X107870D01*
Y151870D01*
X105870D01*
Y150870D01*
X104870D01*
Y148870D01*
X105870D01*
X109870D02*
Y147870D01*
X111870D01*
Y148870D01*
X112870D01*
Y150870D01*
X111870D01*
Y151870D01*
X109870D01*
Y150870D01*
X108870D01*
Y148870D01*
X109870D01*
X48070Y139370D02*
Y138370D01*
X50070D01*
Y139370D01*
X51070D01*
Y141370D01*
X50070D01*
Y142370D01*
X48070D01*
Y141370D01*
X47070D01*
Y139370D01*
X48070D01*
X242435Y155470D02*
Y159470D01*
X246435D01*
Y155470D01*
X242435D01*
X228656D02*
Y159470D01*
X232656D01*
Y155470D01*
X228656D01*
X343850Y161206D02*
X341850Y165206D01*
X345850D01*
X343850Y161206D01*
Y116324D02*
X341850Y120324D01*
X345850D01*
X343850Y116324D01*
X267821Y47970D02*
X268821Y48970D01*
X269820D01*
X268821Y49970D01*
X269820Y50970D01*
X268821D01*
X267821Y51970D01*
X266821Y50970D01*
X265821D01*
X266821Y49970D01*
X265821Y48970D01*
X266821D01*
X267821Y47970D01*
X226450Y67655D02*
X227450Y69655D01*
X226450Y71655D01*
X228450Y70655D01*
X230450Y71655D01*
X229450Y69655D01*
X230450Y67655D01*
X228450Y68655D01*
X226450Y67655D01*
X236293D02*
X237293Y69655D01*
X236293Y71655D01*
X238293Y70655D01*
X240293Y71655D01*
X239293Y69655D01*
X240293Y67655D01*
X238293Y68655D01*
X236293Y67655D01*
X265821D02*
X266821Y69655D01*
X265821Y71655D01*
X267821Y70655D01*
X269820Y71655D01*
X268821Y69655D01*
X269820Y67655D01*
X267821Y68655D01*
X265821Y67655D01*
X255978D02*
X256978Y69655D01*
X255978Y71655D01*
X257978Y70655D01*
X259978Y71655D01*
X258978Y69655D01*
X259978Y67655D01*
X257978Y68655D01*
X255978Y67655D01*
X246135Y47970D02*
X247135Y49970D01*
X246135Y51970D01*
X248135Y50970D01*
X250135Y51970D01*
X249135Y49970D01*
X250135Y47970D01*
X248135Y48970D01*
X246135Y47970D01*
X228450D02*
X229450Y48970D01*
X230450D01*
X229450Y49970D01*
X230450Y50970D01*
X229450D01*
X228450Y51970D01*
X227450Y50970D01*
X226450D01*
X227450Y49970D01*
X226450Y48970D01*
X227450D01*
X228450Y47970D01*
X248135Y67655D02*
X249135Y68655D01*
X250135D01*
X249135Y69655D01*
X250135Y70655D01*
X249135D01*
X248135Y71655D01*
X247135Y70655D01*
X246135D01*
X247135Y69655D01*
X246135Y68655D01*
X247135D01*
X248135Y67655D01*
X242435Y121270D02*
Y125270D01*
X246435D01*
Y121270D01*
X242435D01*
X228656D02*
Y125270D01*
X232656D01*
Y121270D01*
X228656D01*
X306235Y153870D02*
Y152870D01*
X308235D01*
Y153870D01*
X309235D01*
Y155870D01*
X308235D01*
Y156870D01*
X306235D01*
Y155870D01*
X305235D01*
Y153870D01*
X306235D01*
X303235D02*
Y152870D01*
X305235D01*
Y153870D01*
X306235D01*
Y155870D01*
X305235D01*
Y156870D01*
X303235D01*
Y155870D01*
X302235D01*
Y153870D01*
X303235D01*
Y156870D02*
Y155870D01*
X305235D01*
Y156870D01*
X306235D01*
Y158870D01*
X305235D01*
Y159870D01*
X303235D01*
Y158870D01*
X302235D01*
Y156870D01*
X303235D01*
X306235D02*
Y155870D01*
X308235D01*
Y156870D01*
X309235D01*
Y158870D01*
X308235D01*
Y159870D01*
X306235D01*
Y158870D01*
X305235D01*
Y156870D01*
X306235D01*
X295735Y114470D02*
Y113470D01*
X297735D01*
Y114470D01*
X298735D01*
Y116470D01*
X297735D01*
Y117470D01*
X295735D01*
Y116470D01*
X294735D01*
Y114470D01*
X295735D01*
X292735D02*
Y113470D01*
X294735D01*
Y114470D01*
X295735D01*
Y116470D01*
X294735D01*
Y117470D01*
X292735D01*
Y116470D01*
X291735D01*
Y114470D01*
X292735D01*
Y111470D02*
Y110470D01*
X294735D01*
Y111470D01*
X295735D01*
Y113470D01*
X294735D01*
Y114470D01*
X292735D01*
Y113470D01*
X291735D01*
Y111470D01*
X292735D01*
X295735D02*
Y110470D01*
X297735D01*
Y111470D01*
X298735D01*
Y113470D01*
X297735D01*
Y114470D01*
X295735D01*
Y113470D01*
X294735D01*
Y111470D01*
X295735D01*
X327635Y113770D02*
Y112770D01*
X329635D01*
Y113770D01*
X330635D01*
Y115770D01*
X329635D01*
Y116770D01*
X327635D01*
Y115770D01*
X326635D01*
Y113770D01*
X327635D01*
X324635D02*
Y112770D01*
X326635D01*
Y113770D01*
X327635D01*
Y115770D01*
X326635D01*
Y116770D01*
X324635D01*
Y115770D01*
X323635D01*
Y113770D01*
X324635D01*
Y116770D02*
Y115770D01*
X326635D01*
Y116770D01*
X327635D01*
Y118770D01*
X326635D01*
Y119770D01*
X324635D01*
Y118770D01*
X323635D01*
Y116770D01*
X324635D01*
X327635D02*
Y115770D01*
X329635D01*
Y116770D01*
X330635D01*
Y118770D01*
X329635D01*
Y119770D01*
X327635D01*
Y118770D01*
X326635D01*
Y116770D01*
X327635D01*
X322735Y139270D02*
Y138270D01*
X324735D01*
Y139270D01*
X325735D01*
Y141270D01*
X324735D01*
Y142270D01*
X322735D01*
Y141270D01*
X321735D01*
Y139270D01*
X322735D01*
X312835Y165670D02*
Y164670D01*
X314835D01*
Y165670D01*
X315835D01*
Y167670D01*
X314835D01*
Y168670D01*
X312835D01*
Y167670D01*
X311835D01*
Y165670D01*
X312835D01*
X284135Y108470D02*
Y107470D01*
X286135D01*
Y108470D01*
X287135D01*
Y110470D01*
X286135D01*
Y111470D01*
X284135D01*
Y110470D01*
X283135D01*
Y108470D01*
X284135D01*
X287235Y90070D02*
Y89070D01*
X289235D01*
Y90070D01*
X290235D01*
Y92070D01*
X289235D01*
Y93070D01*
X287235D01*
Y92070D01*
X286235D01*
Y90070D01*
X287235D01*
X325935Y133770D02*
Y132770D01*
X327935D01*
Y133770D01*
X328935D01*
Y135770D01*
X327935D01*
Y136770D01*
X325935D01*
Y135770D01*
X324935D01*
Y133770D01*
X325935D01*
Y141670D02*
Y140670D01*
X327935D01*
Y141670D01*
X328935D01*
Y143670D01*
X327935D01*
Y144670D01*
X325935D01*
Y143670D01*
X324935D01*
Y141670D01*
X325935D01*
X324035Y156570D02*
Y155570D01*
X326035D01*
Y156570D01*
X327035D01*
Y158570D01*
X326035D01*
Y159570D01*
X324035D01*
Y158570D01*
X323035D01*
Y156570D01*
X324035D01*
Y153570D02*
Y152570D01*
X326035D01*
Y153570D01*
X327035D01*
Y155570D01*
X326035D01*
Y156570D01*
X324035D01*
Y155570D01*
X323035D01*
Y153570D01*
X324035D01*
Y150570D02*
Y149570D01*
X326035D01*
Y150570D01*
X327035D01*
Y152570D01*
X326035D01*
Y153570D01*
X324035D01*
Y152570D01*
X323035D01*
Y150570D01*
X324035D01*
X284135Y111470D02*
Y110470D01*
X286135D01*
Y111470D01*
X287135D01*
Y113470D01*
X286135D01*
Y114470D01*
X284135D01*
Y113470D01*
X283135D01*
Y111470D01*
X284135D01*
X281135D02*
Y110470D01*
X283135D01*
Y111470D01*
X284135D01*
Y113470D01*
X283135D01*
Y114470D01*
X281135D01*
Y113470D01*
X280135D01*
Y111470D01*
X281135D01*
Y108470D02*
Y107470D01*
X283135D01*
Y108470D01*
X284135D01*
Y110470D01*
X283135D01*
Y111470D01*
X281135D01*
Y110470D01*
X280135D01*
Y108470D01*
X281135D01*
X284235Y90070D02*
Y89070D01*
X286235D01*
Y90070D01*
X287235D01*
Y92070D01*
X286235D01*
Y93070D01*
X284235D01*
Y92070D01*
X283235D01*
Y90070D01*
X284235D01*
Y87070D02*
Y86070D01*
X286235D01*
Y87070D01*
X287235D01*
Y89070D01*
X286235D01*
Y90070D01*
X284235D01*
Y89070D01*
X283235D01*
Y87070D01*
X284235D01*
X287235D02*
Y86070D01*
X289235D01*
Y87070D01*
X290235D01*
Y89070D01*
X289235D01*
Y90070D01*
X287235D01*
Y89070D01*
X286235D01*
Y87070D01*
X287235D01*
X324035Y147570D02*
Y146570D01*
X326035D01*
Y147570D01*
X327035D01*
Y149570D01*
X326035D01*
Y150570D01*
X324035D01*
Y149570D01*
X323035D01*
Y147570D01*
X324035D01*
X308035Y145070D02*
Y144070D01*
X310035D01*
Y145070D01*
X311035D01*
Y147070D01*
X310035D01*
Y148070D01*
X308035D01*
Y147070D01*
X307035D01*
Y145070D01*
X308035D01*
X305035D02*
Y144070D01*
X307035D01*
Y145070D01*
X308035D01*
Y147070D01*
X307035D01*
Y148070D01*
X305035D01*
Y147070D01*
X304035D01*
Y145070D01*
X305035D01*
Y148070D02*
Y147070D01*
X307035D01*
Y148070D01*
X308035D01*
Y150070D01*
X307035D01*
Y151070D01*
X305035D01*
Y150070D01*
X304035D01*
Y148070D01*
X305035D01*
X308035D02*
Y147070D01*
X310035D01*
Y148070D01*
X311035D01*
Y150070D01*
X310035D01*
Y151070D01*
X308035D01*
Y150070D01*
X307035D01*
Y148070D01*
X308035D01*
X309435Y107570D02*
Y106570D01*
X311435D01*
Y107570D01*
X312435D01*
Y109570D01*
X311435D01*
Y110570D01*
X309435D01*
Y109570D01*
X308435D01*
Y107570D01*
X309435D01*
X306435D02*
Y106570D01*
X308435D01*
Y107570D01*
X309435D01*
Y109570D01*
X308435D01*
Y110570D01*
X306435D01*
Y109570D01*
X305435D01*
Y107570D01*
X306435D01*
Y104570D02*
Y103570D01*
X308435D01*
Y104570D01*
X309435D01*
Y106570D01*
X308435D01*
Y107570D01*
X306435D01*
Y106570D01*
X305435D01*
Y104570D01*
X306435D01*
X309435D02*
Y103570D01*
X311435D01*
Y104570D01*
X312435D01*
Y106570D01*
X311435D01*
Y107570D01*
X309435D01*
Y106570D01*
X308435D01*
Y104570D01*
X309435D01*
X295735Y121770D02*
Y120770D01*
X297735D01*
Y121770D01*
X298735D01*
Y123770D01*
X297735D01*
Y124770D01*
X295735D01*
Y123770D01*
X294735D01*
Y121770D01*
X295735D01*
X283035Y148870D02*
Y147870D01*
X285035D01*
Y148870D01*
X286035D01*
Y150870D01*
X285035D01*
Y151870D01*
X283035D01*
Y150870D01*
X282035D01*
Y148870D01*
X283035D01*
X287035D02*
Y147870D01*
X289035D01*
Y148870D01*
X290035D01*
Y150870D01*
X289035D01*
Y151870D01*
X287035D01*
Y150870D01*
X286035D01*
Y148870D01*
X287035D01*
X225235Y139370D02*
Y138370D01*
X227235D01*
Y139370D01*
X228235D01*
Y141370D01*
X227235D01*
Y142370D01*
X225235D01*
Y141370D01*
X224235D01*
Y139370D01*
X225235D01*
X65270Y332635D02*
Y336635D01*
X69270D01*
Y332635D01*
X65270D01*
X51490D02*
Y336635D01*
X55490D01*
Y332635D01*
X51490D01*
X166685Y338372D02*
X164685Y342372D01*
X168685D01*
X166685Y338372D01*
Y293490D02*
X164685Y297490D01*
X168685D01*
X166685Y293490D01*
X90655Y225135D02*
X91655Y226135D01*
X92655D01*
X91655Y227135D01*
X92655Y228135D01*
X91655D01*
X90655Y229135D01*
X89655Y228135D01*
X88655D01*
X89655Y227135D01*
X88655Y226135D01*
X89655D01*
X90655Y225135D01*
X49285Y244820D02*
X50285Y246820D01*
X49285Y248820D01*
X51285Y247820D01*
X53285Y248820D01*
X52285Y246820D01*
X53285Y244820D01*
X51285Y245820D01*
X49285Y244820D01*
X59128D02*
X60128Y246820D01*
X59128Y248820D01*
X61128Y247820D01*
X63128Y248820D01*
X62128Y246820D01*
X63128Y244820D01*
X61128Y245820D01*
X59128Y244820D01*
X88655D02*
X89655Y246820D01*
X88655Y248820D01*
X90655Y247820D01*
X92655Y248820D01*
X91655Y246820D01*
X92655Y244820D01*
X90655Y245820D01*
X88655Y244820D01*
X78813D02*
X79813Y246820D01*
X78813Y248820D01*
X80813Y247820D01*
X82813Y248820D01*
X81813Y246820D01*
X82813Y244820D01*
X80813Y245820D01*
X78813Y244820D01*
X68970Y225135D02*
X69970Y227135D01*
X68970Y229135D01*
X70970Y228135D01*
X72970Y229135D01*
X71970Y227135D01*
X72970Y225135D01*
X70970Y226135D01*
X68970Y225135D01*
X51285D02*
X52285Y226135D01*
X53285D01*
X52285Y227135D01*
X53285Y228135D01*
X52285D01*
X51285Y229135D01*
X50285Y228135D01*
X49285D01*
X50285Y227135D01*
X49285Y226135D01*
X50285D01*
X51285Y225135D01*
X70970Y244820D02*
X71970Y245820D01*
X72970D01*
X71970Y246820D01*
X72970Y247820D01*
X71970D01*
X70970Y248820D01*
X69970Y247820D01*
X68970D01*
X69970Y246820D01*
X68970Y245820D01*
X69970D01*
X70970Y244820D01*
X65270Y298435D02*
Y302435D01*
X69270D01*
Y298435D01*
X65270D01*
X51490D02*
Y302435D01*
X55490D01*
Y298435D01*
X51490D01*
X129070Y331035D02*
Y330035D01*
X131070D01*
Y331035D01*
X132070D01*
Y333035D01*
X131070D01*
Y334035D01*
X129070D01*
Y333035D01*
X128070D01*
Y331035D01*
X129070D01*
X126070D02*
Y330035D01*
X128070D01*
Y331035D01*
X129070D01*
Y333035D01*
X128070D01*
Y334035D01*
X126070D01*
Y333035D01*
X125070D01*
Y331035D01*
X126070D01*
Y334035D02*
Y333035D01*
X128070D01*
Y334035D01*
X129070D01*
Y336035D01*
X128070D01*
Y337035D01*
X126070D01*
Y336035D01*
X125070D01*
Y334035D01*
X126070D01*
X129070D02*
Y333035D01*
X131070D01*
Y334035D01*
X132070D01*
Y336035D01*
X131070D01*
Y337035D01*
X129070D01*
Y336035D01*
X128070D01*
Y334035D01*
X129070D01*
X118570Y291635D02*
Y290635D01*
X120570D01*
Y291635D01*
X121570D01*
Y293635D01*
X120570D01*
Y294635D01*
X118570D01*
Y293635D01*
X117570D01*
Y291635D01*
X118570D01*
X115570D02*
Y290635D01*
X117570D01*
Y291635D01*
X118570D01*
Y293635D01*
X117570D01*
Y294635D01*
X115570D01*
Y293635D01*
X114570D01*
Y291635D01*
X115570D01*
Y288635D02*
Y287635D01*
X117570D01*
Y288635D01*
X118570D01*
Y290635D01*
X117570D01*
Y291635D01*
X115570D01*
Y290635D01*
X114570D01*
Y288635D01*
X115570D01*
X118570D02*
Y287635D01*
X120570D01*
Y288635D01*
X121570D01*
Y290635D01*
X120570D01*
Y291635D01*
X118570D01*
Y290635D01*
X117570D01*
Y288635D01*
X118570D01*
X150470Y290935D02*
Y289935D01*
X152470D01*
Y290935D01*
X153470D01*
Y292935D01*
X152470D01*
Y293935D01*
X150470D01*
Y292935D01*
X149470D01*
Y290935D01*
X150470D01*
X147470D02*
Y289935D01*
X149470D01*
Y290935D01*
X150470D01*
Y292935D01*
X149470D01*
Y293935D01*
X147470D01*
Y292935D01*
X146470D01*
Y290935D01*
X147470D01*
Y293935D02*
Y292935D01*
X149470D01*
Y293935D01*
X150470D01*
Y295935D01*
X149470D01*
Y296935D01*
X147470D01*
Y295935D01*
X146470D01*
Y293935D01*
X147470D01*
X150470D02*
Y292935D01*
X152470D01*
Y293935D01*
X153470D01*
Y295935D01*
X152470D01*
Y296935D01*
X150470D01*
Y295935D01*
X149470D01*
Y293935D01*
X150470D01*
X145570Y316435D02*
Y315435D01*
X147570D01*
Y316435D01*
X148570D01*
Y318435D01*
X147570D01*
Y319435D01*
X145570D01*
Y318435D01*
X144570D01*
Y316435D01*
X145570D01*
X135670Y342835D02*
Y341835D01*
X137670D01*
Y342835D01*
X138670D01*
Y344835D01*
X137670D01*
Y345835D01*
X135670D01*
Y344835D01*
X134670D01*
Y342835D01*
X135670D01*
X106970Y285635D02*
Y284635D01*
X108970D01*
Y285635D01*
X109970D01*
Y287635D01*
X108970D01*
Y288635D01*
X106970D01*
Y287635D01*
X105970D01*
Y285635D01*
X106970D01*
X110070Y267235D02*
Y266235D01*
X112070D01*
Y267235D01*
X113070D01*
Y269235D01*
X112070D01*
Y270235D01*
X110070D01*
Y269235D01*
X109070D01*
Y267235D01*
X110070D01*
X148770Y310935D02*
Y309935D01*
X150770D01*
Y310935D01*
X151770D01*
Y312935D01*
X150770D01*
Y313935D01*
X148770D01*
Y312935D01*
X147770D01*
Y310935D01*
X148770D01*
Y318835D02*
Y317835D01*
X150770D01*
Y318835D01*
X151770D01*
Y320835D01*
X150770D01*
Y321835D01*
X148770D01*
Y320835D01*
X147770D01*
Y318835D01*
X148770D01*
X146870Y333735D02*
Y332735D01*
X148870D01*
Y333735D01*
X149870D01*
Y335735D01*
X148870D01*
Y336735D01*
X146870D01*
Y335735D01*
X145870D01*
Y333735D01*
X146870D01*
Y330735D02*
Y329735D01*
X148870D01*
Y330735D01*
X149870D01*
Y332735D01*
X148870D01*
Y333735D01*
X146870D01*
Y332735D01*
X145870D01*
Y330735D01*
X146870D01*
Y327735D02*
Y326735D01*
X148870D01*
Y327735D01*
X149870D01*
Y329735D01*
X148870D01*
Y330735D01*
X146870D01*
Y329735D01*
X145870D01*
Y327735D01*
X146870D01*
X106970Y288635D02*
Y287635D01*
X108970D01*
Y288635D01*
X109970D01*
Y290635D01*
X108970D01*
Y291635D01*
X106970D01*
Y290635D01*
X105970D01*
Y288635D01*
X106970D01*
X103970D02*
Y287635D01*
X105970D01*
Y288635D01*
X106970D01*
Y290635D01*
X105970D01*
Y291635D01*
X103970D01*
Y290635D01*
X102970D01*
Y288635D01*
X103970D01*
Y285635D02*
Y284635D01*
X105970D01*
Y285635D01*
X106970D01*
Y287635D01*
X105970D01*
Y288635D01*
X103970D01*
Y287635D01*
X102970D01*
Y285635D01*
X103970D01*
X107070Y267235D02*
Y266235D01*
X109070D01*
Y267235D01*
X110070D01*
Y269235D01*
X109070D01*
Y270235D01*
X107070D01*
Y269235D01*
X106070D01*
Y267235D01*
X107070D01*
Y264235D02*
Y263235D01*
X109070D01*
Y264235D01*
X110070D01*
Y266235D01*
X109070D01*
Y267235D01*
X107070D01*
Y266235D01*
X106070D01*
Y264235D01*
X107070D01*
X110070D02*
Y263235D01*
X112070D01*
Y264235D01*
X113070D01*
Y266235D01*
X112070D01*
Y267235D01*
X110070D01*
Y266235D01*
X109070D01*
Y264235D01*
X110070D01*
X146870Y324735D02*
Y323735D01*
X148870D01*
Y324735D01*
X149870D01*
Y326735D01*
X148870D01*
Y327735D01*
X146870D01*
Y326735D01*
X145870D01*
Y324735D01*
X146870D01*
X130870Y322235D02*
Y321235D01*
X132870D01*
Y322235D01*
X133870D01*
Y324235D01*
X132870D01*
Y325235D01*
X130870D01*
Y324235D01*
X129870D01*
Y322235D01*
X130870D01*
X127870D02*
Y321235D01*
X129870D01*
Y322235D01*
X130870D01*
Y324235D01*
X129870D01*
Y325235D01*
X127870D01*
Y324235D01*
X126870D01*
Y322235D01*
X127870D01*
Y325235D02*
Y324235D01*
X129870D01*
Y325235D01*
X130870D01*
Y327235D01*
X129870D01*
Y328235D01*
X127870D01*
Y327235D01*
X126870D01*
Y325235D01*
X127870D01*
X130870D02*
Y324235D01*
X132870D01*
Y325235D01*
X133870D01*
Y327235D01*
X132870D01*
Y328235D01*
X130870D01*
Y327235D01*
X129870D01*
Y325235D01*
X130870D01*
X132270Y284735D02*
Y283735D01*
X134270D01*
Y284735D01*
X135270D01*
Y286735D01*
X134270D01*
Y287735D01*
X132270D01*
Y286735D01*
X131270D01*
Y284735D01*
X132270D01*
X129270D02*
Y283735D01*
X131270D01*
Y284735D01*
X132270D01*
Y286735D01*
X131270D01*
Y287735D01*
X129270D01*
Y286735D01*
X128270D01*
Y284735D01*
X129270D01*
Y281735D02*
Y280735D01*
X131270D01*
Y281735D01*
X132270D01*
Y283735D01*
X131270D01*
Y284735D01*
X129270D01*
Y283735D01*
X128270D01*
Y281735D01*
X129270D01*
X132270D02*
Y280735D01*
X134270D01*
Y281735D01*
X135270D01*
Y283735D01*
X134270D01*
Y284735D01*
X132270D01*
Y283735D01*
X131270D01*
Y281735D01*
X132270D01*
X118570Y298935D02*
Y297935D01*
X120570D01*
Y298935D01*
X121570D01*
Y300935D01*
X120570D01*
Y301935D01*
X118570D01*
Y300935D01*
X117570D01*
Y298935D01*
X118570D01*
X105870Y326035D02*
Y325035D01*
X107870D01*
Y326035D01*
X108870D01*
Y328035D01*
X107870D01*
Y329035D01*
X105870D01*
Y328035D01*
X104870D01*
Y326035D01*
X105870D01*
X109870D02*
Y325035D01*
X111870D01*
Y326035D01*
X112870D01*
Y328035D01*
X111870D01*
Y329035D01*
X109870D01*
Y328035D01*
X108870D01*
Y326035D01*
X109870D01*
X48070Y316535D02*
Y315535D01*
X50070D01*
Y316535D01*
X51070D01*
Y318535D01*
X50070D01*
Y319535D01*
X48070D01*
Y318535D01*
X47070D01*
Y316535D01*
X48070D01*
X242435Y332635D02*
Y336635D01*
X246435D01*
Y332635D01*
X242435D01*
X228656D02*
Y336635D01*
X232656D01*
Y332635D01*
X228656D01*
X343850Y338372D02*
X341850Y342372D01*
X345850D01*
X343850Y338372D01*
Y293490D02*
X341850Y297490D01*
X345850D01*
X343850Y293490D01*
X267821Y225135D02*
X268821Y226135D01*
X269820D01*
X268821Y227135D01*
X269820Y228135D01*
X268821D01*
X267821Y229135D01*
X266821Y228135D01*
X265821D01*
X266821Y227135D01*
X265821Y226135D01*
X266821D01*
X267821Y225135D01*
X226450Y244820D02*
X227450Y246820D01*
X226450Y248820D01*
X228450Y247820D01*
X230450Y248820D01*
X229450Y246820D01*
X230450Y244820D01*
X228450Y245820D01*
X226450Y244820D01*
X236293D02*
X237293Y246820D01*
X236293Y248820D01*
X238293Y247820D01*
X240293Y248820D01*
X239293Y246820D01*
X240293Y244820D01*
X238293Y245820D01*
X236293Y244820D01*
X265821D02*
X266821Y246820D01*
X265821Y248820D01*
X267821Y247820D01*
X269820Y248820D01*
X268821Y246820D01*
X269820Y244820D01*
X267821Y245820D01*
X265821Y244820D01*
X255978D02*
X256978Y246820D01*
X255978Y248820D01*
X257978Y247820D01*
X259978Y248820D01*
X258978Y246820D01*
X259978Y244820D01*
X257978Y245820D01*
X255978Y244820D01*
X246135Y225135D02*
X247135Y227135D01*
X246135Y229135D01*
X248135Y228135D01*
X250135Y229135D01*
X249135Y227135D01*
X250135Y225135D01*
X248135Y226135D01*
X246135Y225135D01*
X228450D02*
X229450Y226135D01*
X230450D01*
X229450Y227135D01*
X230450Y228135D01*
X229450D01*
X228450Y229135D01*
X227450Y228135D01*
X226450D01*
X227450Y227135D01*
X226450Y226135D01*
X227450D01*
X228450Y225135D01*
X248135Y244820D02*
X249135Y245820D01*
X250135D01*
X249135Y246820D01*
X250135Y247820D01*
X249135D01*
X248135Y248820D01*
X247135Y247820D01*
X246135D01*
X247135Y246820D01*
X246135Y245820D01*
X247135D01*
X248135Y244820D01*
X242435Y298435D02*
Y302435D01*
X246435D01*
Y298435D01*
X242435D01*
X228656D02*
Y302435D01*
X232656D01*
Y298435D01*
X228656D01*
X306235Y331035D02*
Y330035D01*
X308235D01*
Y331035D01*
X309235D01*
Y333035D01*
X308235D01*
Y334035D01*
X306235D01*
Y333035D01*
X305235D01*
Y331035D01*
X306235D01*
X303235D02*
Y330035D01*
X305235D01*
Y331035D01*
X306235D01*
Y333035D01*
X305235D01*
Y334035D01*
X303235D01*
Y333035D01*
X302235D01*
Y331035D01*
X303235D01*
Y334035D02*
Y333035D01*
X305235D01*
Y334035D01*
X306235D01*
Y336035D01*
X305235D01*
Y337035D01*
X303235D01*
Y336035D01*
X302235D01*
Y334035D01*
X303235D01*
X306235D02*
Y333035D01*
X308235D01*
Y334035D01*
X309235D01*
Y336035D01*
X308235D01*
Y337035D01*
X306235D01*
Y336035D01*
X305235D01*
Y334035D01*
X306235D01*
X295735Y291635D02*
Y290635D01*
X297735D01*
Y291635D01*
X298735D01*
Y293635D01*
X297735D01*
Y294635D01*
X295735D01*
Y293635D01*
X294735D01*
Y291635D01*
X295735D01*
X292735D02*
Y290635D01*
X294735D01*
Y291635D01*
X295735D01*
Y293635D01*
X294735D01*
Y294635D01*
X292735D01*
Y293635D01*
X291735D01*
Y291635D01*
X292735D01*
Y288635D02*
Y287635D01*
X294735D01*
Y288635D01*
X295735D01*
Y290635D01*
X294735D01*
Y291635D01*
X292735D01*
Y290635D01*
X291735D01*
Y288635D01*
X292735D01*
X295735D02*
Y287635D01*
X297735D01*
Y288635D01*
X298735D01*
Y290635D01*
X297735D01*
Y291635D01*
X295735D01*
Y290635D01*
X294735D01*
Y288635D01*
X295735D01*
X327635Y290935D02*
Y289935D01*
X329635D01*
Y290935D01*
X330635D01*
Y292935D01*
X329635D01*
Y293935D01*
X327635D01*
Y292935D01*
X326635D01*
Y290935D01*
X327635D01*
X324635D02*
Y289935D01*
X326635D01*
Y290935D01*
X327635D01*
Y292935D01*
X326635D01*
Y293935D01*
X324635D01*
Y292935D01*
X323635D01*
Y290935D01*
X324635D01*
Y293935D02*
Y292935D01*
X326635D01*
Y293935D01*
X327635D01*
Y295935D01*
X326635D01*
Y296935D01*
X324635D01*
Y295935D01*
X323635D01*
Y293935D01*
X324635D01*
X327635D02*
Y292935D01*
X329635D01*
Y293935D01*
X330635D01*
Y295935D01*
X329635D01*
Y296935D01*
X327635D01*
Y295935D01*
X326635D01*
Y293935D01*
X327635D01*
X322735Y316435D02*
Y315435D01*
X324735D01*
Y316435D01*
X325735D01*
Y318435D01*
X324735D01*
Y319435D01*
X322735D01*
Y318435D01*
X321735D01*
Y316435D01*
X322735D01*
X312835Y342835D02*
Y341835D01*
X314835D01*
Y342835D01*
X315835D01*
Y344835D01*
X314835D01*
Y345835D01*
X312835D01*
Y344835D01*
X311835D01*
Y342835D01*
X312835D01*
X284135Y285635D02*
Y284635D01*
X286135D01*
Y285635D01*
X287135D01*
Y287635D01*
X286135D01*
Y288635D01*
X284135D01*
Y287635D01*
X283135D01*
Y285635D01*
X284135D01*
X287235Y267235D02*
Y266235D01*
X289235D01*
Y267235D01*
X290235D01*
Y269235D01*
X289235D01*
Y270235D01*
X287235D01*
Y269235D01*
X286235D01*
Y267235D01*
X287235D01*
X325935Y310935D02*
Y309935D01*
X327935D01*
Y310935D01*
X328935D01*
Y312935D01*
X327935D01*
Y313935D01*
X325935D01*
Y312935D01*
X324935D01*
Y310935D01*
X325935D01*
Y318835D02*
Y317835D01*
X327935D01*
Y318835D01*
X328935D01*
Y320835D01*
X327935D01*
Y321835D01*
X325935D01*
Y320835D01*
X324935D01*
Y318835D01*
X325935D01*
X324035Y333735D02*
Y332735D01*
X326035D01*
Y333735D01*
X327035D01*
Y335735D01*
X326035D01*
Y336735D01*
X324035D01*
Y335735D01*
X323035D01*
Y333735D01*
X324035D01*
Y330735D02*
Y329735D01*
X326035D01*
Y330735D01*
X327035D01*
Y332735D01*
X326035D01*
Y333735D01*
X324035D01*
Y332735D01*
X323035D01*
Y330735D01*
X324035D01*
Y327735D02*
Y326735D01*
X326035D01*
Y327735D01*
X327035D01*
Y329735D01*
X326035D01*
Y330735D01*
X324035D01*
Y329735D01*
X323035D01*
Y327735D01*
X324035D01*
X284135Y288635D02*
Y287635D01*
X286135D01*
Y288635D01*
X287135D01*
Y290635D01*
X286135D01*
Y291635D01*
X284135D01*
Y290635D01*
X283135D01*
Y288635D01*
X284135D01*
X281135D02*
Y287635D01*
X283135D01*
Y288635D01*
X284135D01*
Y290635D01*
X283135D01*
Y291635D01*
X281135D01*
Y290635D01*
X280135D01*
Y288635D01*
X281135D01*
Y285635D02*
Y284635D01*
X283135D01*
Y285635D01*
X284135D01*
Y287635D01*
X283135D01*
Y288635D01*
X281135D01*
Y287635D01*
X280135D01*
Y285635D01*
X281135D01*
X284235Y267235D02*
Y266235D01*
X286235D01*
Y267235D01*
X287235D01*
Y269235D01*
X286235D01*
Y270235D01*
X284235D01*
Y269235D01*
X283235D01*
Y267235D01*
X284235D01*
Y264235D02*
Y263235D01*
X286235D01*
Y264235D01*
X287235D01*
Y266235D01*
X286235D01*
Y267235D01*
X284235D01*
Y266235D01*
X283235D01*
Y264235D01*
X284235D01*
X287235D02*
Y263235D01*
X289235D01*
Y264235D01*
X290235D01*
Y266235D01*
X289235D01*
Y267235D01*
X287235D01*
Y266235D01*
X286235D01*
Y264235D01*
X287235D01*
X324035Y324735D02*
Y323735D01*
X326035D01*
Y324735D01*
X327035D01*
Y326735D01*
X326035D01*
Y327735D01*
X324035D01*
Y326735D01*
X323035D01*
Y324735D01*
X324035D01*
X308035Y322235D02*
Y321235D01*
X310035D01*
Y322235D01*
X311035D01*
Y324235D01*
X310035D01*
Y325235D01*
X308035D01*
Y324235D01*
X307035D01*
Y322235D01*
X308035D01*
X305035D02*
Y321235D01*
X307035D01*
Y322235D01*
X308035D01*
Y324235D01*
X307035D01*
Y325235D01*
X305035D01*
Y324235D01*
X304035D01*
Y322235D01*
X305035D01*
Y325235D02*
Y324235D01*
X307035D01*
Y325235D01*
X308035D01*
Y327235D01*
X307035D01*
Y328235D01*
X305035D01*
Y327235D01*
X304035D01*
Y325235D01*
X305035D01*
X308035D02*
Y324235D01*
X310035D01*
Y325235D01*
X311035D01*
Y327235D01*
X310035D01*
Y328235D01*
X308035D01*
Y327235D01*
X307035D01*
Y325235D01*
X308035D01*
X309435Y284735D02*
Y283735D01*
X311435D01*
Y284735D01*
X312435D01*
Y286735D01*
X311435D01*
Y287735D01*
X309435D01*
Y286735D01*
X308435D01*
Y284735D01*
X309435D01*
X306435D02*
Y283735D01*
X308435D01*
Y284735D01*
X309435D01*
Y286735D01*
X308435D01*
Y287735D01*
X306435D01*
Y286735D01*
X305435D01*
Y284735D01*
X306435D01*
Y281735D02*
Y280735D01*
X308435D01*
Y281735D01*
X309435D01*
Y283735D01*
X308435D01*
Y284735D01*
X306435D01*
Y283735D01*
X305435D01*
Y281735D01*
X306435D01*
X309435D02*
Y280735D01*
X311435D01*
Y281735D01*
X312435D01*
Y283735D01*
X311435D01*
Y284735D01*
X309435D01*
Y283735D01*
X308435D01*
Y281735D01*
X309435D01*
X295735Y298935D02*
Y297935D01*
X297735D01*
Y298935D01*
X298735D01*
Y300935D01*
X297735D01*
Y301935D01*
X295735D01*
Y300935D01*
X294735D01*
Y298935D01*
X295735D01*
X283035Y326035D02*
Y325035D01*
X285035D01*
Y326035D01*
X286035D01*
Y328035D01*
X285035D01*
Y329035D01*
X283035D01*
Y328035D01*
X282035D01*
Y326035D01*
X283035D01*
X287035D02*
Y325035D01*
X289035D01*
Y326035D01*
X290035D01*
Y328035D01*
X289035D01*
Y329035D01*
X287035D01*
Y328035D01*
X286035D01*
Y326035D01*
X287035D01*
X225235Y316535D02*
Y315535D01*
X227235D01*
Y316535D01*
X228235D01*
Y318535D01*
X227235D01*
Y319535D01*
X225235D01*
Y318535D01*
X224235D01*
Y316535D01*
X225235D01*
X497263Y112564D02*
Y111364D01*
X499663D01*
Y112564D01*
X500863D01*
Y114964D01*
X499663D01*
Y116164D01*
X497263D01*
Y114964D01*
X496063D01*
Y112564D01*
X497263D01*
X496063Y99364D02*
Y104164D01*
X500863D01*
Y99364D01*
X496063D01*
Y75364D02*
X497263Y77764D01*
X496063Y80164D01*
X498463Y78964D01*
X500863Y80164D01*
X499663Y77764D01*
X500863Y75364D01*
X498463Y76564D01*
X496063Y75364D01*
X498463Y63364D02*
X499663Y64564D01*
X500863D01*
X499663Y65764D01*
X500863Y66964D01*
X499663D01*
X498463Y68164D01*
X497263Y66964D01*
X496063D01*
X497263Y65764D01*
X496063Y64564D01*
X497263D01*
X498463Y63364D01*
Y51364D02*
X496063Y56164D01*
X500863D01*
X498463Y51364D01*
D12*
X168685Y149624D02*
G03*
X168685Y149624I-2000J0D01*
G01*
Y131907D02*
G03*
X168685Y131907I-2000J0D01*
G01*
X345850Y149624D02*
G03*
X345850Y149624I-2000J0D01*
G01*
Y131907D02*
G03*
X345850Y131907I-2000J0D01*
G01*
X168685Y326789D02*
G03*
X168685Y326789I-2000J0D01*
G01*
Y309072D02*
G03*
X168685Y309072I-2000J0D01*
G01*
X345850Y326789D02*
G03*
X345850Y326789I-2000J0D01*
G01*
Y309072D02*
G03*
X345850Y309072I-2000J0D01*
G01*
D13*
X500861Y131162D02*
X499662Y132361D01*
X497263D01*
X496063Y131162D01*
Y129962D01*
X497263Y128763D01*
X499662D01*
X500861Y127563D01*
Y126363D01*
X499662Y125164D01*
X497263D01*
X496063Y126363D01*
X503261Y129962D02*
Y126363D01*
X504460Y125164D01*
X508059D01*
Y123964D01*
X506859Y122765D01*
X505660D01*
X508059Y125164D02*
Y129962D01*
X510458Y125164D02*
Y129962D01*
X511658D01*
X512857Y128763D01*
Y125164D01*
Y128763D01*
X514057Y129962D01*
X515257Y128763D01*
Y125164D01*
X517656Y132361D02*
Y125164D01*
X521255D01*
X522454Y126363D01*
Y127563D01*
Y128763D01*
X521255Y129962D01*
X517656D01*
X526053Y125164D02*
X528452D01*
X529652Y126363D01*
Y128763D01*
X528452Y129962D01*
X526053D01*
X524854Y128763D01*
Y126363D01*
X526053Y125164D01*
X532051D02*
X534451D01*
X533251D01*
Y132361D01*
X532051D01*
X546451D02*
Y125164D01*
Y128763D01*
X551249D01*
Y132361D01*
Y125164D01*
X553648D02*
X556047D01*
X554848D01*
Y129962D01*
X553648D01*
X560846Y131162D02*
Y129962D01*
X559646D01*
X562045D01*
X560846D01*
Y126363D01*
X562045Y125164D01*
X577640Y131162D02*
X576441Y132361D01*
X574042D01*
X572842Y131162D01*
Y126363D01*
X574042Y125164D01*
X576441D01*
X577640Y126363D01*
X581239Y125164D02*
X583638D01*
X584838Y126363D01*
Y128763D01*
X583638Y129962D01*
X581239D01*
X580040Y128763D01*
Y126363D01*
X581239Y125164D01*
X587237Y129962D02*
Y126363D01*
X588437Y125164D01*
X592036D01*
Y129962D01*
X594435Y125164D02*
Y129962D01*
X598034D01*
X599233Y128763D01*
Y125164D01*
X602832Y131162D02*
Y129962D01*
X601633D01*
X604032D01*
X602832D01*
Y126363D01*
X604032Y125164D01*
X620830Y132361D02*
X616032D01*
Y128763D01*
X618431D01*
X616032D01*
Y125164D01*
X623230D02*
X625629D01*
X624429D01*
Y129962D01*
X623230D01*
X629228Y125164D02*
Y129962D01*
X632827D01*
X634026Y128763D01*
Y125164D01*
X636425D02*
X638825D01*
X637625D01*
Y129962D01*
X636425D01*
X642423Y125164D02*
X646022D01*
X647222Y126363D01*
X646022Y127563D01*
X643623D01*
X642423Y128763D01*
X643623Y129962D01*
X647222D01*
X649621Y132361D02*
Y125164D01*
Y128763D01*
X650821Y129962D01*
X653220D01*
X654420Y128763D01*
Y125164D01*
X660418D02*
X658018D01*
X656819Y126363D01*
Y128763D01*
X658018Y129962D01*
X660418D01*
X661617Y128763D01*
Y127563D01*
X656819D01*
X668815Y132361D02*
Y125164D01*
X665216D01*
X664016Y126363D01*
Y128763D01*
X665216Y129962D01*
X668815D01*
X678412Y132361D02*
Y125164D01*
Y128763D01*
X683210D01*
Y132361D01*
Y125164D01*
X686809D02*
X689208D01*
X690408Y126363D01*
Y128763D01*
X689208Y129962D01*
X686809D01*
X685609Y128763D01*
Y126363D01*
X686809Y125164D01*
X692807D02*
X695206D01*
X694007D01*
Y132361D01*
X692807D01*
X702404Y125164D02*
X700005D01*
X698805Y126363D01*
Y128763D01*
X700005Y129962D01*
X702404D01*
X703604Y128763D01*
Y127563D01*
X698805D01*
X717999Y131162D02*
X716799Y132361D01*
X714400D01*
X713201Y131162D01*
Y129962D01*
X714400Y128763D01*
X716799D01*
X717999Y127563D01*
Y126363D01*
X716799Y125164D01*
X714400D01*
X713201Y126363D01*
X720398Y125164D02*
X722797D01*
X721598D01*
Y129962D01*
X720398D01*
X726396D02*
X731195D01*
X726396Y125164D01*
X731195D01*
X737193D02*
X734794D01*
X733594Y126363D01*
Y128763D01*
X734794Y129962D01*
X737193D01*
X738392Y128763D01*
Y127563D01*
X733594D01*
X750392Y125164D02*
Y132361D01*
X753991D01*
X755191Y131162D01*
Y128763D01*
X753991Y127563D01*
X750392D01*
X757590Y132361D02*
Y125164D01*
Y128763D01*
X758790Y129962D01*
X761189D01*
X762388Y128763D01*
Y125164D01*
X764788Y129962D02*
Y126363D01*
X765987Y125164D01*
X769586D01*
Y123964D01*
X768387Y122765D01*
X767187D01*
X769586Y125164D02*
Y129962D01*
X771985Y125164D02*
X775584D01*
X776784Y126363D01*
X775584Y127563D01*
X773185D01*
X771985Y128763D01*
X773185Y129962D01*
X776784D01*
X779183Y125164D02*
X781582D01*
X780383D01*
Y129962D01*
X779183D01*
X789980D02*
X786381D01*
X785181Y128763D01*
Y126363D01*
X786381Y125164D01*
X789980D01*
X793578Y129962D02*
X795978D01*
X797177Y128763D01*
Y125164D01*
X793578D01*
X792379Y126363D01*
X793578Y127563D01*
X797177D01*
X799576Y125164D02*
X801976D01*
X800776D01*
Y132361D01*
X799576D01*
X812772D02*
Y125164D01*
X817571D01*
X823569D02*
X821169D01*
X819970Y126363D01*
Y128763D01*
X821169Y129962D01*
X823569D01*
X824768Y128763D01*
Y127563D01*
X819970D01*
X827168Y125164D02*
Y129962D01*
X830766D01*
X831966Y128763D01*
Y125164D01*
X836764Y122765D02*
X837964D01*
X839164Y123964D01*
Y129962D01*
X835565D01*
X834365Y128763D01*
Y126363D01*
X835565Y125164D01*
X839164D01*
X842762Y131162D02*
Y129962D01*
X841563D01*
X843962D01*
X842762D01*
Y126363D01*
X843962Y125164D01*
X847561Y132361D02*
Y125164D01*
Y128763D01*
X848761Y129962D01*
X851160D01*
X852359Y128763D01*
Y125164D01*
X864359D02*
Y132361D01*
X867958D01*
X869158Y131162D01*
Y128763D01*
X867958Y127563D01*
X864359D01*
X866759D02*
X869158Y125164D01*
X872757D02*
X875156D01*
X876355Y126363D01*
Y128763D01*
X875156Y129962D01*
X872757D01*
X871557Y128763D01*
Y126363D01*
X872757Y125164D01*
X878755Y129962D02*
Y126363D01*
X879954Y125164D01*
X883553D01*
Y129962D01*
X887152Y131162D02*
Y129962D01*
X885952D01*
X888352D01*
X887152D01*
Y126363D01*
X888352Y125164D01*
X899148D02*
Y132361D01*
X902747D01*
X903946Y131162D01*
Y128763D01*
X902747Y127563D01*
X899148D01*
X907545Y129962D02*
X909945D01*
X911144Y128763D01*
Y125164D01*
X907545D01*
X906346Y126363D01*
X907545Y127563D01*
X911144D01*
X914743Y131162D02*
Y129962D01*
X913543D01*
X915943D01*
X914743D01*
Y126363D01*
X915943Y125164D01*
X919541Y132361D02*
Y125164D01*
Y128763D01*
X920741Y129962D01*
X923140D01*
X924340Y128763D01*
Y125164D01*
X933937Y132361D02*
Y125164D01*
X938735D01*
X944733D02*
X942334D01*
X941134Y126363D01*
Y128763D01*
X942334Y129962D01*
X944733D01*
X945933Y128763D01*
Y127563D01*
X941134D01*
X948332Y125164D02*
Y129962D01*
X951931D01*
X953131Y128763D01*
Y125164D01*
X957929Y122765D02*
X959129D01*
X960328Y123964D01*
Y129962D01*
X956729D01*
X955530Y128763D01*
Y126363D01*
X956729Y125164D01*
X960328D01*
X963927Y131162D02*
Y129962D01*
X962728D01*
X965127D01*
X963927D01*
Y126363D01*
X965127Y125164D01*
X968725Y132361D02*
Y125164D01*
Y128763D01*
X969925Y129962D01*
X972324D01*
X973524Y128763D01*
Y125164D01*
X985524D02*
Y132361D01*
X989123D01*
X990322Y131162D01*
Y128763D01*
X989123Y127563D01*
X985524D01*
X992722Y125164D02*
X995121D01*
X993921D01*
Y132361D01*
X992722D01*
X999919Y129962D02*
X1002319D01*
X1003518Y128763D01*
Y125164D01*
X999919D01*
X998720Y126363D01*
X999919Y127563D01*
X1003518D01*
X1007117Y131162D02*
Y129962D01*
X1005917D01*
X1008317D01*
X1007117D01*
Y126363D01*
X1008317Y125164D01*
X1015514D02*
X1013115D01*
X1011915Y126363D01*
Y128763D01*
X1013115Y129962D01*
X1015514D01*
X1016714Y128763D01*
Y127563D01*
X1011915D01*
X1023912Y132361D02*
Y125164D01*
X1020313D01*
X1019113Y126363D01*
Y128763D01*
X1020313Y129962D01*
X1023912D01*
X1035912Y132361D02*
Y125164D01*
Y128763D01*
X1040710D01*
Y132361D01*
Y125164D01*
X1044309D02*
X1046708D01*
X1047908Y126363D01*
Y128763D01*
X1046708Y129962D01*
X1044309D01*
X1043109Y128763D01*
Y126363D01*
X1044309Y125164D01*
X1050307D02*
X1052706D01*
X1051507D01*
Y132361D01*
X1050307D01*
X1059904Y125164D02*
X1057505D01*
X1056305Y126363D01*
Y128763D01*
X1057505Y129962D01*
X1059904D01*
X1061103Y128763D01*
Y127563D01*
X1056305D01*
X1070700Y132361D02*
X1075499D01*
X1073100D01*
Y125164D01*
X1077898Y129962D02*
Y126363D01*
X1079098Y125164D01*
X1082696D01*
Y123964D01*
X1081497Y122765D01*
X1080297D01*
X1082696Y125164D02*
Y129962D01*
X1085096Y122765D02*
Y129962D01*
X1088694D01*
X1089894Y128763D01*
Y126363D01*
X1088694Y125164D01*
X1085096D01*
X1095892D02*
X1093493D01*
X1092293Y126363D01*
Y128763D01*
X1093493Y129962D01*
X1095892D01*
X1097092Y128763D01*
Y127563D01*
X1092293D01*
X487263Y135964D02*
X1109092D01*
X487263Y119764D02*
X1109092D01*
X487263Y135964D02*
Y35764D01*
X1109092Y135964D02*
Y35764D01*
X542051Y135964D02*
Y35764D01*
X611632Y135964D02*
Y35764D01*
X745992Y135964D02*
Y35764D01*
X859959Y135964D02*
Y35764D01*
X981124Y135964D02*
Y35764D01*
X1031512Y135964D02*
Y35764D01*
X487263Y47764D02*
X1109092D01*
X487263Y35764D02*
X1109092D01*
D14*
X500863Y89764D02*
G03*
X500863Y89764I-2400J0D01*
G01*
D15*
X500062Y31762D02*
X499062Y32762D01*
X497063D01*
X496063Y31762D01*
Y30762D01*
X497063Y29763D01*
X499062D01*
X500062Y28763D01*
Y27764D01*
X499062Y26764D01*
X497063D01*
X496063Y27764D01*
X502061Y26764D02*
X504060D01*
X503061D01*
Y32762D01*
X502061D01*
X508059Y26764D02*
X510058D01*
X511058Y27764D01*
Y29763D01*
X510058Y30762D01*
X508059D01*
X507059Y29763D01*
Y27764D01*
X508059Y26764D01*
X514057Y31762D02*
Y30762D01*
X513058D01*
X515057D01*
X514057D01*
Y27764D01*
X515057Y26764D01*
X528053Y32762D02*
Y26764D01*
X525054D01*
X524054Y27764D01*
Y29763D01*
X525054Y30762D01*
X528053D01*
X533051Y26764D02*
X531052D01*
X530052Y27764D01*
Y29763D01*
X531052Y30762D01*
X533051D01*
X534051Y29763D01*
Y28763D01*
X530052D01*
X537050Y26764D02*
Y31762D01*
Y29763D01*
X536050D01*
X538049D01*
X537050D01*
Y31762D01*
X538049Y32762D01*
X541048Y26764D02*
X543048D01*
X542048D01*
Y30762D01*
X541048D01*
X546047Y26764D02*
Y30762D01*
X549046D01*
X550045Y29763D01*
Y26764D01*
X552045D02*
X554044D01*
X553045D01*
Y30762D01*
X552045D01*
X558043Y31762D02*
Y30762D01*
X557043D01*
X559043D01*
X558043D01*
Y27764D01*
X559043Y26764D01*
X562042D02*
X564041D01*
X563041D01*
Y30762D01*
X562042D01*
X568040Y26764D02*
X570039D01*
X571039Y27764D01*
Y29763D01*
X570039Y30762D01*
X568040D01*
X567040Y29763D01*
Y27764D01*
X568040Y26764D01*
X573038D02*
Y30762D01*
X576037D01*
X577037Y29763D01*
Y26764D01*
X579036D02*
X582035D01*
X583035Y27764D01*
X582035Y28763D01*
X580036D01*
X579036Y29763D01*
X580036Y30762D01*
X583035D01*
X591032D02*
X592032D01*
Y29763D01*
X591032D01*
Y30762D01*
Y27764D02*
X592032D01*
Y26764D01*
X591032D01*
Y27764D01*
X603632Y26764D02*
Y32762D01*
X606631D01*
X607631Y31762D01*
Y29763D01*
X606631Y28763D01*
X603632D01*
X605631D02*
X607631Y26764D01*
X610630D02*
X612629D01*
X613629Y27764D01*
Y29763D01*
X612629Y30762D01*
X610630D01*
X609630Y29763D01*
Y27764D01*
X610630Y26764D01*
X615628Y30762D02*
Y27764D01*
X616628Y26764D01*
X619627D01*
Y30762D01*
X622626Y31762D02*
Y30762D01*
X621626D01*
X623626D01*
X622626D01*
Y27764D01*
X623626Y26764D01*
X632622D02*
Y32762D01*
X635622D01*
X636621Y31762D01*
Y29763D01*
X635622Y28763D01*
X632622D01*
X639620Y30762D02*
X641620D01*
X642619Y29763D01*
Y26764D01*
X639620D01*
X638621Y27764D01*
X639620Y28763D01*
X642619D01*
X645618Y31762D02*
Y30762D01*
X644619D01*
X646618D01*
X645618D01*
Y27764D01*
X646618Y26764D01*
X649617Y32762D02*
Y26764D01*
Y29763D01*
X650617Y30762D01*
X652616D01*
X653616Y29763D01*
Y26764D01*
X661613Y32762D02*
Y26764D01*
X665612D01*
X670610D02*
X668611D01*
X667611Y27764D01*
Y29763D01*
X668611Y30762D01*
X670610D01*
X671610Y29763D01*
Y28763D01*
X667611D01*
X673609Y26764D02*
Y30762D01*
X676608D01*
X677608Y29763D01*
Y26764D01*
X681607Y24764D02*
X682606D01*
X683606Y25764D01*
Y30762D01*
X680607D01*
X679607Y29763D01*
Y27764D01*
X680607Y26764D01*
X683606D01*
X686605Y31762D02*
Y30762D01*
X685605D01*
X687605D01*
X686605D01*
Y27764D01*
X687605Y26764D01*
X690604Y32762D02*
Y26764D01*
Y29763D01*
X691604Y30762D01*
X693603D01*
X694602Y29763D01*
Y26764D01*
X603632Y14764D02*
Y20762D01*
X606631D01*
X607631Y19762D01*
Y17763D01*
X606631Y16763D01*
X603632D01*
X609630Y20762D02*
Y14764D01*
Y17763D01*
X610630Y18763D01*
X612629D01*
X613629Y17763D01*
Y14764D01*
X615628Y18763D02*
Y15764D01*
X616628Y14764D01*
X619627D01*
Y13764D01*
X618627Y12764D01*
X617627D01*
X619627Y14764D02*
Y18763D01*
X621626Y14764D02*
X624625D01*
X625625Y15764D01*
X624625Y16763D01*
X622626D01*
X621626Y17763D01*
X622626Y18763D01*
X625625D01*
X627624Y14764D02*
X629624D01*
X628624D01*
Y18763D01*
X627624D01*
X636621D02*
X633622D01*
X632622Y17763D01*
Y15764D01*
X633622Y14764D01*
X636621D01*
X639620Y18763D02*
X641620D01*
X642619Y17763D01*
Y14764D01*
X639620D01*
X638621Y15764D01*
X639620Y16763D01*
X642619D01*
X644619Y14764D02*
X646618D01*
X645618D01*
Y20762D01*
X644619D01*
X655615D02*
Y14764D01*
X659614D01*
X664612D02*
X662613D01*
X661613Y15764D01*
Y17763D01*
X662613Y18763D01*
X664612D01*
X665612Y17763D01*
Y16763D01*
X661613D01*
X667611Y14764D02*
Y18763D01*
X670610D01*
X671610Y17763D01*
Y14764D01*
X675609Y12764D02*
X676608D01*
X677608Y13764D01*
Y18763D01*
X674609D01*
X673609Y17763D01*
Y15764D01*
X674609Y14764D01*
X677608D01*
X680607Y19762D02*
Y18763D01*
X679607D01*
X681607D01*
X680607D01*
Y15764D01*
X681607Y14764D01*
X684606Y20762D02*
Y14764D01*
Y17763D01*
X685605Y18763D01*
X687605D01*
X688604Y17763D01*
Y14764D01*
M02*
