%FSLAX25Y25*%
%MOIN*%
G70*
G01*
G75*
G04 Layer_Physical_Order=2*
G04 Layer_Color=16711680*
%ADD10R,0.09843X0.04331*%
%ADD11R,0.03150X0.03150*%
%ADD12C,0.02000*%
%ADD13C,0.01000*%
%ADD14C,0.04000*%
%ADD15C,0.01500*%
%ADD16C,0.03000*%
%ADD17C,0.05906*%
G04:AMPARAMS|DCode=18|XSize=59.06mil|YSize=59.06mil|CornerRadius=14.76mil|HoleSize=0mil|Usage=FLASHONLY|Rotation=180.000|XOffset=0mil|YOffset=0mil|HoleType=Round|Shape=RoundedRectangle|*
%AMROUNDEDRECTD18*
21,1,0.05906,0.02953,0,0,180.0*
21,1,0.02953,0.05906,0,0,180.0*
1,1,0.02953,-0.01476,0.01476*
1,1,0.02953,0.01476,0.01476*
1,1,0.02953,0.01476,-0.01476*
1,1,0.02953,-0.01476,-0.01476*
%
%ADD18ROUNDEDRECTD18*%
%ADD19C,0.03150*%
%ADD20O,0.17716X0.07874*%
%ADD21C,0.03937*%
%ADD22O,0.08000X0.11811*%
G04:AMPARAMS|DCode=23|XSize=98.43mil|YSize=98.43mil|CornerRadius=24.61mil|HoleSize=0mil|Usage=FLASHONLY|Rotation=270.000|XOffset=0mil|YOffset=0mil|HoleType=Round|Shape=RoundedRectangle|*
%AMROUNDEDRECTD23*
21,1,0.09843,0.04921,0,0,270.0*
21,1,0.04921,0.09843,0,0,270.0*
1,1,0.04921,-0.02461,-0.02461*
1,1,0.04921,-0.02461,0.02461*
1,1,0.04921,0.02461,0.02461*
1,1,0.04921,0.02461,-0.02461*
%
%ADD23ROUNDEDRECTD23*%
%ADD24C,0.02500*%
%ADD25R,0.03543X0.03937*%
%ADD26R,0.03937X0.03543*%
%ADD27R,0.07874X0.09449*%
G04:AMPARAMS|DCode=28|XSize=31.5mil|YSize=51.18mil|CornerRadius=7.87mil|HoleSize=0mil|Usage=FLASHONLY|Rotation=270.000|XOffset=0mil|YOffset=0mil|HoleType=Round|Shape=RoundedRectangle|*
%AMROUNDEDRECTD28*
21,1,0.03150,0.03543,0,0,270.0*
21,1,0.01575,0.05118,0,0,270.0*
1,1,0.01575,-0.01772,-0.00787*
1,1,0.01575,-0.01772,0.00787*
1,1,0.01575,0.01772,0.00787*
1,1,0.01575,0.01772,-0.00787*
%
%ADD28ROUNDEDRECTD28*%
G04:AMPARAMS|DCode=29|XSize=31.5mil|YSize=51.18mil|CornerRadius=7.87mil|HoleSize=0mil|Usage=FLASHONLY|Rotation=0.000|XOffset=0mil|YOffset=0mil|HoleType=Round|Shape=RoundedRectangle|*
%AMROUNDEDRECTD29*
21,1,0.03150,0.03543,0,0,0.0*
21,1,0.01575,0.05118,0,0,0.0*
1,1,0.01575,0.00787,-0.01772*
1,1,0.01575,-0.00787,-0.01772*
1,1,0.01575,-0.00787,0.01772*
1,1,0.01575,0.00787,0.01772*
%
%ADD29ROUNDEDRECTD29*%
%ADD30O,0.02165X0.05118*%
%ADD31O,0.05118X0.02165*%
G36*
X108760Y113812D02*
X109091Y113591D01*
X109312Y113260D01*
X109390Y112870D01*
X109370D01*
X109388Y108870D01*
X109318Y108519D01*
X109119Y108221D01*
X108821Y108022D01*
X108470Y107952D01*
Y107970D01*
X104270Y107952D01*
X103919Y108022D01*
X103621Y108221D01*
X103422Y108519D01*
X103352Y108870D01*
X103370D01*
X103350Y112870D01*
X103428Y113260D01*
X103649Y113591D01*
X103980Y113812D01*
X104370Y113890D01*
Y113870D01*
X108370Y113890D01*
X108760Y113812D01*
D02*
G37*
G36*
X121876Y132276D02*
X122003Y131970D01*
X121970Y127370D01*
X121990D01*
X121912Y126980D01*
X121691Y126649D01*
X121360Y126428D01*
X120970Y126350D01*
X117370Y126370D01*
Y126390D01*
X116980Y126312D01*
X116649Y126091D01*
X116428Y125760D01*
X116350Y125370D01*
X116370Y120870D01*
X116350D01*
X116428Y120480D01*
X116649Y120149D01*
X116980Y119928D01*
X117370Y119851D01*
X121170Y119870D01*
Y119886D01*
X121482Y119824D01*
X121747Y119647D01*
X121924Y119382D01*
X121986Y119070D01*
X121970Y117970D01*
X122020D01*
X121971Y117852D01*
X122000Y112370D01*
X121883Y111785D01*
X121552Y111289D01*
X121055Y110957D01*
X120470Y110841D01*
Y110870D01*
X116370Y110841D01*
X115785Y110957D01*
X115289Y111289D01*
X114957Y111785D01*
X114841Y112370D01*
X114870D01*
X114900Y115870D01*
X114783Y116455D01*
X114452Y116952D01*
X113955Y117283D01*
X113685Y117337D01*
X97970Y117370D01*
Y117354D01*
X97658Y117417D01*
X97393Y117593D01*
X97216Y117858D01*
X97154Y118170D01*
X97170Y131970D01*
X97137D01*
X97264Y132276D01*
X97570Y132403D01*
X121570Y132370D01*
Y132403D01*
X121876Y132276D01*
D02*
G37*
G36*
X167875Y172221D02*
X168420Y172128D01*
X168951Y171975D01*
X169462Y171764D01*
X169945Y171496D01*
X170396Y171177D01*
X170808Y170808D01*
X171177Y170396D01*
X171358Y170140D01*
X171081Y169179D01*
X169809Y168652D01*
X161764D01*
X161154Y168618D01*
X160552Y168515D01*
X159965Y168346D01*
X159401Y168113D01*
X158867Y167817D01*
X158369Y167464D01*
X157913Y167057D01*
X157506Y166602D01*
X157153Y166103D01*
X156858Y165569D01*
X156624Y165005D01*
X156455Y164418D01*
X156352Y163816D01*
X156318Y163206D01*
X156352Y162597D01*
X156455Y161995D01*
X156624Y161408D01*
X156858Y160844D01*
X157153Y160309D01*
X157506Y159811D01*
X157913Y159356D01*
X158369Y158949D01*
X158867Y158595D01*
X159401Y158300D01*
X159965Y158066D01*
X160552Y157897D01*
X161154Y157795D01*
X161764Y157761D01*
X171606D01*
X172246Y146379D01*
Y146379D01*
X172246D01*
X172246Y135165D01*
X172246D01*
Y135165D01*
X171610Y123840D01*
X171540Y123770D01*
X161764D01*
X161154Y123736D01*
X160552Y123634D01*
X159965Y123464D01*
X159401Y123231D01*
X158867Y122935D01*
X158369Y122582D01*
X157913Y122175D01*
X157506Y121720D01*
X157153Y121222D01*
X156858Y120687D01*
X156624Y120123D01*
X156455Y119536D01*
X156352Y118934D01*
X156318Y118324D01*
X156352Y117715D01*
X156455Y117113D01*
X156624Y116526D01*
X156858Y115962D01*
X157153Y115427D01*
X157506Y114929D01*
X157913Y114474D01*
X158369Y114067D01*
X158867Y113714D01*
X159401Y113418D01*
X159965Y113184D01*
X160552Y113015D01*
X161154Y112913D01*
X161764Y112879D01*
X171606D01*
X172248Y101445D01*
X172252Y49213D01*
X172221Y48661D01*
X172128Y48116D01*
X171975Y47585D01*
X171764Y47074D01*
X171496Y46590D01*
X171177Y46139D01*
X170808Y45727D01*
X170396Y45359D01*
X169945Y45039D01*
X169462Y44772D01*
X168951Y44560D01*
X168420Y44407D01*
X167875Y44315D01*
X167331Y44284D01*
X167323Y44291D01*
Y44291D01*
X49213Y44284D01*
X48661Y44315D01*
X48116Y44407D01*
X47585Y44560D01*
X47074Y44772D01*
X46590Y45039D01*
X46139Y45359D01*
X45727Y45727D01*
X45359Y46139D01*
X45039Y46590D01*
X44772Y47074D01*
X44560Y47585D01*
X44407Y48116D01*
X44315Y48661D01*
X44284Y49205D01*
X44291Y49213D01*
X44291D01*
X44284Y167323D01*
X44315Y167875D01*
X44407Y168420D01*
X44560Y168951D01*
X44772Y169462D01*
X45039Y169945D01*
X45359Y170396D01*
X45727Y170808D01*
X46139Y171177D01*
X46590Y171496D01*
X47074Y171764D01*
X47585Y171975D01*
X48116Y172128D01*
X48661Y172221D01*
X49205Y172251D01*
X49213Y172244D01*
Y172244D01*
X100256Y172248D01*
X100415Y172089D01*
X100732Y171324D01*
X99321Y169913D01*
X99091Y169644D01*
X98906Y169342D01*
X98771Y169015D01*
X98688Y168670D01*
X98660Y168317D01*
Y164076D01*
X95480D01*
Y151628D01*
X96144D01*
X96563Y150719D01*
X96372Y150497D01*
X96188Y150195D01*
X96052Y149867D01*
X95969Y149523D01*
X95945Y149221D01*
X94927D01*
Y142283D01*
X95913D01*
X96052Y142144D01*
X96052Y142144D01*
D01*
X96188Y141817D01*
X96372Y141515D01*
X96602Y141246D01*
X96602Y141246D01*
X96602Y141246D01*
X96840Y141008D01*
Y141008D01*
X96558Y140066D01*
X96558D01*
D01*
Y140066D01*
D01*
X96225Y139928D01*
X95918Y139740D01*
X95644Y139506D01*
X95411Y139232D01*
X95223Y138925D01*
X95085Y138593D01*
X95001Y138242D01*
X94972Y137883D01*
Y134568D01*
X91657D01*
X91298Y134539D01*
X90948Y134455D01*
X90615Y134318D01*
X90308Y134130D01*
X90034Y133896D01*
X89800Y133622D01*
X89612Y133315D01*
X89474Y132982D01*
X89390Y132632D01*
X89362Y132273D01*
Y130698D01*
X89390Y130340D01*
X89474Y129989D01*
X89612Y129657D01*
X89800Y129350D01*
X89827Y129319D01*
X89644Y129020D01*
X89488Y128645D01*
X89393Y128249D01*
X89361Y127844D01*
X89393Y127439D01*
X89488Y127043D01*
X89644Y126668D01*
X89856Y126321D01*
X89900Y126269D01*
X89856Y126217D01*
X89644Y125871D01*
X89488Y125495D01*
X89393Y125100D01*
X89361Y124695D01*
X89393Y124289D01*
X89488Y123894D01*
X89644Y123518D01*
X89856Y123172D01*
X89900Y123120D01*
X89856Y123068D01*
X89644Y122721D01*
X89488Y122345D01*
X89393Y121950D01*
X89361Y121545D01*
X89393Y121140D01*
X89488Y120744D01*
X89644Y120369D01*
X89856Y120022D01*
X89900Y119970D01*
X89856Y119918D01*
X89644Y119571D01*
X89488Y119196D01*
X89039Y118990D01*
X88739Y119295D01*
Y119295D01*
X87632D01*
Y120945D01*
X82908D01*
Y119295D01*
X81802D01*
Y112752D01*
X86832D01*
X86959Y112445D01*
X87144Y112144D01*
X87374Y111874D01*
X87374Y111874D01*
X87374Y111874D01*
X88748Y110500D01*
X89017Y110270D01*
X89319Y110085D01*
X89647Y109950D01*
X89991Y109867D01*
X90344Y109839D01*
X90692D01*
X90776Y109788D01*
X91151Y109632D01*
X91547Y109537D01*
X91952Y109505D01*
X94905D01*
X95310Y109537D01*
X95705Y109632D01*
X96081Y109788D01*
X96428Y110000D01*
X96737Y110264D01*
X97001Y110573D01*
X97213Y110920D01*
X97369Y111295D01*
X97464Y111691D01*
X97495Y112096D01*
X97464Y112501D01*
X97369Y112897D01*
X97213Y113272D01*
X97001Y113619D01*
X96737Y113928D01*
X96428Y114192D01*
X96081Y114404D01*
X95705Y114560D01*
X95310Y114655D01*
X94905Y114687D01*
X92119D01*
X91855Y115324D01*
X91802Y115676D01*
X91932Y115806D01*
X91952Y115805D01*
X94905D01*
X95310Y115837D01*
X95705Y115931D01*
X96081Y116087D01*
X96428Y116299D01*
X96515Y116374D01*
X96556Y116340D01*
X96556Y116340D01*
X96820Y116163D01*
X96820Y116163D01*
X97081Y116024D01*
X97364Y115938D01*
X97364D01*
X97364Y115938D01*
X97364D01*
X97676Y115876D01*
X97970Y115847D01*
X97970D01*
D01*
X98126Y115863D01*
X102580Y115853D01*
X102614Y115805D01*
X102889Y114896D01*
X102812Y114844D01*
X102583Y114657D01*
X102396Y114428D01*
X102175Y114098D01*
X102175Y114098D01*
X102133Y114019D01*
X102036Y113837D01*
X101950Y113554D01*
Y113554D01*
X101872Y113164D01*
X101872Y113160D01*
X101871Y113157D01*
X101857Y113014D01*
X101843Y112870D01*
X101844Y112866D01*
X101843Y112863D01*
X101862Y109040D01*
X101845Y108870D01*
X101874Y108576D01*
X101944Y108225D01*
Y108225D01*
X101996Y108053D01*
X102030Y107942D01*
X102030Y107942D01*
D01*
X102048Y107908D01*
X102169Y107682D01*
X102169Y107682D01*
X102368Y107384D01*
X102368Y107384D01*
X102555Y107155D01*
X102555Y107155D01*
X102555D01*
X102555Y106510D01*
X102537Y106481D01*
X102382Y106105D01*
X102287Y105710D01*
X102255Y105305D01*
Y102352D01*
X102287Y101947D01*
X102382Y101551D01*
X102537Y101176D01*
X102589Y101092D01*
Y100780D01*
X102421Y100612D01*
X102191Y100343D01*
X102006Y100041D01*
X101870Y99714D01*
X101787Y99370D01*
X101777Y99239D01*
X100745D01*
Y98132D01*
X99095D01*
Y93408D01*
X100745D01*
Y92302D01*
X105043D01*
Y91470D01*
X105044Y91466D01*
X105043Y91463D01*
X105053Y89361D01*
X105045Y87471D01*
X105045Y87470D01*
X105045Y87470D01*
X105045Y87459D01*
X105045Y87456D01*
X105045Y87452D01*
X105059Y87310D01*
X105073Y87165D01*
X105074Y87162D01*
X105074Y87158D01*
X105144Y86807D01*
Y86807D01*
X105196Y86636D01*
X105230Y86524D01*
X105230Y86524D01*
D01*
X105248Y86491D01*
X105369Y86264D01*
X105369Y86264D01*
X105568Y85966D01*
X105568Y85966D01*
X105755Y85738D01*
X105755D01*
Y85738D01*
X105805Y85697D01*
X105984Y85550D01*
X106281Y85351D01*
X106281Y85351D01*
X106508Y85230D01*
X106542Y85212D01*
D01*
X106542Y85212D01*
X106653Y85178D01*
X106825Y85126D01*
X106825D01*
X107176Y85057D01*
X107470Y85028D01*
X107641Y85044D01*
X111664Y85027D01*
X111667Y85027D01*
X111670Y85027D01*
X111813Y85041D01*
X111958Y85055D01*
X111961Y85056D01*
X111964Y85056D01*
X112322Y85127D01*
X112322D01*
X112605Y85213D01*
D01*
X112605Y85213D01*
X112762Y85297D01*
X112865Y85352D01*
X112865Y85352D01*
D01*
D01*
X113169Y85555D01*
X113169Y85555D01*
X113169Y85555D01*
X113285Y85650D01*
X113397Y85743D01*
X113398Y85743D01*
X113398Y85743D01*
X113490Y85855D01*
X113585Y85971D01*
X113585Y85971D01*
X113585Y85971D01*
X113788Y86275D01*
D01*
D01*
X113788Y86275D01*
X113906Y86497D01*
X113927Y86535D01*
D01*
X113927Y86535D01*
X114013Y86818D01*
X114013Y86818D01*
X114084Y87176D01*
X114113Y87470D01*
Y87470D01*
D01*
X114095Y87656D01*
X114087Y91373D01*
X114097Y91470D01*
X114089Y91554D01*
X114100Y92302D01*
X118395D01*
Y93408D01*
X120045D01*
Y98132D01*
X118395D01*
Y99239D01*
X117363D01*
X117353Y99370D01*
X117270Y99714D01*
X117135Y100041D01*
X116949Y100343D01*
X116719Y100612D01*
X116551Y100780D01*
Y101092D01*
X116603Y101176D01*
X116758Y101551D01*
X116853Y101947D01*
X116885Y102352D01*
Y105305D01*
X116853Y105710D01*
X116758Y106105D01*
X116603Y106481D01*
X116390Y106827D01*
X116126Y107137D01*
X115817Y107401D01*
X115471Y107613D01*
X115095Y107769D01*
X114700Y107863D01*
X114295Y107895D01*
X113889Y107863D01*
X113494Y107769D01*
X113118Y107613D01*
X112772Y107401D01*
X112720Y107356D01*
X112668Y107401D01*
X112321Y107613D01*
X111945Y107769D01*
X111550Y107863D01*
X111515Y107866D01*
X110872Y108632D01*
X110881Y108727D01*
X110895Y108870D01*
X110895Y108873D01*
X110895Y108877D01*
X110878Y112680D01*
X110897Y112870D01*
X110868Y113164D01*
X110790Y113554D01*
X110705Y113837D01*
X110565Y114098D01*
X110565Y114098D01*
X110344Y114428D01*
X110157Y114657D01*
X110076Y115544D01*
X110076Y115544D01*
X110369Y115837D01*
X110369D01*
Y115837D01*
X112682Y115832D01*
Y115832D01*
X112682D01*
X112838Y115675D01*
X113386Y115121D01*
Y115121D01*
X113365Y112674D01*
X113362Y112664D01*
X113333Y112370D01*
D01*
Y112370D01*
X113362Y112076D01*
X113479Y111491D01*
X113565Y111208D01*
X113704Y110947D01*
X114035Y110451D01*
X114223Y110223D01*
X114223D01*
Y110223D01*
X114451Y110035D01*
X114947Y109704D01*
X115208Y109565D01*
X115491Y109479D01*
X116076Y109362D01*
X116081Y109362D01*
X116087Y109360D01*
X116228Y109347D01*
X116370Y109333D01*
X116376Y109334D01*
X116381Y109334D01*
X120192Y109361D01*
X120470Y109333D01*
D01*
X120470D01*
X120764Y109362D01*
X120873Y109384D01*
X121646Y108750D01*
Y107667D01*
X121674Y107308D01*
X121758Y106958D01*
X121896Y106625D01*
X122084Y106318D01*
X122318Y106044D01*
X122591Y105811D01*
X122898Y105622D01*
X123231Y105485D01*
X123581Y105401D01*
X123878Y105377D01*
X123991Y104806D01*
Y104806D01*
X124018Y104720D01*
X124077Y104523D01*
X124142Y104402D01*
X124216Y104262D01*
X124596Y103694D01*
X124750Y103507D01*
X124784Y103466D01*
X124784D01*
Y103466D01*
X125012Y103279D01*
X125580Y102899D01*
X125719Y102824D01*
X125841Y102760D01*
X126038Y102700D01*
X126123Y102674D01*
X126123D01*
X126794Y102541D01*
X127088Y102512D01*
X127382Y102541D01*
X127394Y102544D01*
X133766Y102527D01*
X133768Y102527D01*
X133770Y102527D01*
X133915Y102541D01*
X134060Y102555D01*
X134062Y102556D01*
X134064Y102556D01*
X134423Y102628D01*
X134423D01*
X134555Y102667D01*
X134706Y102713D01*
X134933Y102835D01*
X134966Y102853D01*
X135270Y103056D01*
X135271Y103056D01*
X135499Y103243D01*
Y103243D01*
X135499D01*
X135686Y103472D01*
X135686Y103472D01*
X135889Y103776D01*
X135890Y103776D01*
X136019Y104018D01*
X136029Y104036D01*
D01*
X136029Y104036D01*
X136063Y104148D01*
X136115Y104319D01*
Y104319D01*
X136186Y104678D01*
X136186Y104678D01*
X136215Y104972D01*
X136198Y105146D01*
X136216Y108963D01*
X136216Y108966D01*
X136216Y108970D01*
X136202Y109114D01*
X136189Y109257D01*
X136188Y109260D01*
X136188Y109264D01*
X136110Y109654D01*
X136024Y109937D01*
X135885Y110198D01*
X135885Y110198D01*
X135664Y110528D01*
X135476Y110757D01*
X135248Y110944D01*
X134917Y111165D01*
X134917Y111165D01*
X134838Y111208D01*
X134657Y111305D01*
X134374Y111390D01*
X134374D01*
X133678Y111619D01*
D01*
X133797Y112905D01*
X134366Y113474D01*
X134490Y113619D01*
X134596Y113743D01*
X134781Y114045D01*
X134917Y114373D01*
X134999Y114717D01*
X135027Y115070D01*
Y116102D01*
X138395D01*
Y116032D01*
X138395D01*
Y111308D01*
X140045D01*
Y110202D01*
X141860D01*
X142081Y110083D01*
X142364Y109998D01*
X143076Y109856D01*
X143370Y109827D01*
X143370D01*
D01*
X143664Y109856D01*
X143682Y109862D01*
X151164Y109830D01*
X151167Y109830D01*
X151170Y109830D01*
X151314Y109844D01*
X151458Y109858D01*
X151461Y109859D01*
X151464Y109859D01*
X152121Y109989D01*
X152403Y110075D01*
X152664Y110214D01*
X153221Y110586D01*
X153449Y110774D01*
Y110774D01*
X153449D01*
X153637Y111002D01*
X154008Y111559D01*
X154148Y111819D01*
X154233Y112102D01*
Y112102D01*
X154364Y112759D01*
X154393Y113053D01*
Y113053D01*
D01*
X154364Y113347D01*
X154361Y113356D01*
X154363Y113861D01*
X154366Y113876D01*
X154366Y113879D01*
X154367Y113883D01*
X154381Y114027D01*
X154395Y114170D01*
X154395Y114173D01*
X154395Y114177D01*
X154378Y117948D01*
X154378Y117983D01*
X154397Y118170D01*
X154368Y118464D01*
X154290Y118854D01*
X154205Y119137D01*
X154065Y119398D01*
X154065Y119398D01*
X154064Y119399D01*
X154049Y119428D01*
X154049Y119428D01*
X153832Y119753D01*
X153832Y119753D01*
D01*
X153644Y119981D01*
X153505Y120095D01*
X153416Y120169D01*
X153416Y120169D01*
X153416Y120169D01*
X153091Y120386D01*
X152848Y120516D01*
X152830Y120525D01*
D01*
X152830Y120525D01*
X152719Y120559D01*
X152548Y120611D01*
X152164Y120687D01*
X151870Y120716D01*
X151870D01*
D01*
X151665Y120696D01*
X150071Y120688D01*
X149967Y121210D01*
X149967Y121210D01*
X149967D01*
X149881Y121493D01*
X149778Y121686D01*
X149742Y121754D01*
X149742Y121754D01*
X149433Y122217D01*
X149433Y122217D01*
X149433Y122217D01*
X149337Y122333D01*
X149245Y122445D01*
X149245Y122445D01*
X149245Y122445D01*
X149040Y122613D01*
X149017Y122633D01*
D01*
X149017Y122633D01*
X148554Y122942D01*
D01*
D01*
X148554Y122942D01*
X148434Y123006D01*
X148287Y123995D01*
X151366Y127074D01*
X151596Y127343D01*
X151781Y127645D01*
X151917Y127973D01*
X151999Y128317D01*
X152027Y128670D01*
Y133190D01*
X152228Y133518D01*
X152394Y133918D01*
X152495Y134339D01*
X152529Y134770D01*
X152495Y135202D01*
X152394Y135623D01*
X152228Y136022D01*
X152002Y136391D01*
X151721Y136721D01*
X151366Y137674D01*
X151596Y137943D01*
X151781Y138245D01*
X151917Y138573D01*
X151999Y138917D01*
X152027Y139270D01*
Y141090D01*
X152228Y141418D01*
X152394Y141818D01*
X152495Y142239D01*
X152529Y142670D01*
X152495Y143102D01*
X152394Y143523D01*
X152228Y143922D01*
X152002Y144291D01*
X151721Y144621D01*
X151391Y144902D01*
X151343Y144931D01*
X151177Y145917D01*
X151205Y145951D01*
X151536Y146447D01*
X151676Y146708D01*
X151761Y146991D01*
X151878Y147576D01*
X151907Y147870D01*
Y147870D01*
D01*
X151878Y148163D01*
X151895Y158267D01*
X151895Y158269D01*
X151895Y158270D01*
X151881Y158414D01*
X151866Y158562D01*
X151866Y158563D01*
X151866Y158564D01*
X151796Y158915D01*
Y158915D01*
X151744Y159087D01*
X151710Y159198D01*
X151710Y159198D01*
D01*
X151692Y159232D01*
X151571Y159459D01*
X151571Y159459D01*
X151372Y159756D01*
X151372Y159756D01*
X151185Y159985D01*
X151185D01*
Y159985D01*
X151135Y160026D01*
X150956Y160172D01*
X150659Y160371D01*
X150659Y160371D01*
X150432Y160492D01*
X150398Y160510D01*
D01*
X150398Y160510D01*
X150287Y160544D01*
X150115Y160596D01*
X150115D01*
X149764Y160666D01*
X149470Y160695D01*
X149300Y160678D01*
X144977Y160699D01*
X144974Y160698D01*
X144970Y160699D01*
X144826Y160685D01*
X144683Y160671D01*
X144680Y160670D01*
X144676Y160670D01*
X144247Y160585D01*
X144247D01*
X143964Y160499D01*
X143703Y160360D01*
X143340Y160116D01*
X143340Y160116D01*
X143161Y159970D01*
X143111Y159929D01*
Y159929D01*
X143111D01*
X142924Y159701D01*
X142681Y159337D01*
X142541Y159076D01*
X142456Y158793D01*
Y158793D01*
X142385Y158439D01*
X140045D01*
Y157332D01*
X138395D01*
Y152608D01*
D01*
Y152608D01*
X138326Y152539D01*
X133352D01*
Y152539D01*
X133197Y152384D01*
X128657Y152405D01*
X128654Y152404D01*
X128650Y152405D01*
X128507Y152391D01*
X128363Y152377D01*
X128360Y152376D01*
X128356Y152376D01*
X127810Y152267D01*
X127810D01*
X127527Y152181D01*
X127334Y152078D01*
X127267Y152042D01*
X127267Y152042D01*
X126804Y151733D01*
X126804Y151733D01*
X126804Y151733D01*
X126688Y151637D01*
X126575Y151545D01*
X126575Y151545D01*
X126575Y151545D01*
X126407Y151340D01*
X126388Y151317D01*
D01*
X126388Y151317D01*
X126078Y150854D01*
D01*
D01*
X126078Y150854D01*
X125939Y150593D01*
X125853Y150310D01*
Y150310D01*
X125745Y149764D01*
X125716Y149470D01*
Y149470D01*
D01*
X125742Y149204D01*
X125725Y145479D01*
X125725Y145475D01*
X125725Y145472D01*
X125739Y145328D01*
X125753Y145185D01*
X125754Y145181D01*
X125754Y145178D01*
X125770Y145100D01*
X125444Y144703D01*
X124204Y144327D01*
X122663D01*
Y149221D01*
X121643D01*
X121621Y149502D01*
X121538Y149846D01*
X121402Y150173D01*
X121217Y150475D01*
X121009Y150719D01*
X121428Y151628D01*
X122102D01*
Y164076D01*
X118922D01*
Y168375D01*
X118895Y168728D01*
X118812Y169072D01*
X118676Y169399D01*
X118491Y169701D01*
X118261Y169971D01*
X116907Y171325D01*
X117223Y172087D01*
X117385Y172249D01*
X167323Y172252D01*
X167875Y172221D01*
D02*
G37*
G36*
X111145Y103828D02*
X111870D01*
Y94077D01*
X111837D01*
X111969Y93411D01*
X112346Y92846D01*
X112380Y92880D01*
X112538Y92643D01*
X112594Y92364D01*
X112581Y91516D01*
X112590Y91470D01*
X112580D01*
X112588Y87470D01*
X112606D01*
X112534Y87112D01*
X112332Y86809D01*
X112028Y86606D01*
X111670Y86535D01*
X107470Y86552D01*
Y86535D01*
X107119Y86605D01*
X106821Y86804D01*
X106622Y87101D01*
X106552Y87452D01*
X106553Y87470D01*
X106552Y87470D01*
X106553D01*
X106561Y89360D01*
X106551Y91470D01*
Y94219D01*
X106522D01*
X106635Y95370D01*
X106971Y96476D01*
X107516Y97496D01*
X108250Y98390D01*
X109151Y99251D01*
X109170Y99232D01*
X109673Y99887D01*
X109989Y100651D01*
X110097Y101470D01*
X110070Y104070D01*
X111145Y103828D01*
D02*
G37*
G36*
X129647Y109985D02*
X129670Y109990D01*
Y109985D01*
X131399Y109978D01*
X133670Y109990D01*
X133690Y109986D01*
Y109990D01*
X134080Y109912D01*
X134411Y109691D01*
X134632Y109360D01*
X134709Y108970D01*
X134690Y104972D01*
X134708D01*
X134636Y104613D01*
X134433Y104309D01*
X134129Y104106D01*
X133770Y104034D01*
X127088Y104052D01*
Y104019D01*
X126418Y104152D01*
X125849Y104532D01*
X125470Y105100D01*
X125336Y105770D01*
X125370Y105870D01*
X125390D01*
X125312Y106260D01*
X125091Y106591D01*
X124760Y106812D01*
X124370Y106890D01*
Y109570D01*
X124337D01*
X124464Y109876D01*
X124770Y110003D01*
X129647Y109985D01*
D02*
G37*
G36*
X147170Y121770D02*
Y121798D01*
X147716Y121689D01*
X148179Y121379D01*
X148489Y120916D01*
X148598Y120370D01*
X148547D01*
X148639Y119906D01*
X148902Y119512D01*
X149296Y119249D01*
X149648Y119179D01*
X149870Y119180D01*
X149870Y119180D01*
X151870Y119190D01*
Y119209D01*
X152253Y119133D01*
X152579Y118915D01*
X152796Y118590D01*
X152797Y118582D01*
X152812Y118560D01*
X152890Y118170D01*
X152872D01*
X152871Y117947D01*
X152888Y114170D01*
X152856Y114013D01*
X152853Y113053D01*
X152886D01*
X152755Y112396D01*
X152383Y111840D01*
X151827Y111468D01*
X151170Y111337D01*
X143370Y111370D01*
Y111334D01*
X142658Y111476D01*
X142054Y111879D01*
X141651Y112483D01*
X141509Y113195D01*
X141545Y119570D01*
X141502D01*
X141673Y120429D01*
X142159Y121156D01*
X142886Y121642D01*
X143745Y121813D01*
X147170Y121770D01*
D02*
G37*
G36*
X135329Y150771D02*
X135894Y150394D01*
X135870Y141370D01*
X134370D01*
Y141341D01*
X133785Y141457D01*
X133289Y141789D01*
X132957Y142285D01*
X132841Y142870D01*
X132903D01*
X132773Y143526D01*
X132401Y144083D01*
X131844Y144455D01*
X131288Y144565D01*
X128170Y144552D01*
Y144534D01*
X127811Y144606D01*
X127507Y144809D01*
X127304Y145113D01*
X127233Y145472D01*
X127251Y149470D01*
X127223D01*
X127332Y150016D01*
X127641Y150479D01*
X128104Y150789D01*
X128650Y150898D01*
X134663Y150870D01*
Y150903D01*
X135329Y150771D01*
D02*
G37*
G36*
X114408Y164076D02*
X111228D01*
Y151628D01*
X114069D01*
X114519Y151177D01*
X114519Y151177D01*
D01*
X114654Y150850D01*
X114839Y150548D01*
X115069Y150279D01*
X115069Y150279D01*
X115069Y150279D01*
X116122Y149226D01*
X116120Y149221D01*
X116120D01*
X116120Y149221D01*
Y148114D01*
X114470D01*
Y143927D01*
X113770D01*
X113417Y143899D01*
X113073Y143817D01*
X112745Y143681D01*
X112443Y143496D01*
X112174Y143266D01*
X109743Y140835D01*
X109591Y140841D01*
X107166Y143266D01*
X106897Y143496D01*
X106595Y143681D01*
X106267Y143817D01*
X105923Y143899D01*
X105570Y143927D01*
X103120D01*
Y148114D01*
X101470D01*
Y149221D01*
X101470Y149221D01*
X101470D01*
X101462Y149241D01*
X102513Y150293D01*
X102743Y150562D01*
X102928Y150864D01*
X103064Y151191D01*
X103147Y151536D01*
X103154Y151628D01*
X106354D01*
Y164076D01*
X103174D01*
Y166483D01*
X108770D01*
Y166483D01*
X108770D01*
X108770Y166483D01*
X108920D01*
Y166483D01*
X114408D01*
Y164076D01*
D02*
G37*
G36*
X149470Y159170D02*
Y159188D01*
X149821Y159118D01*
X150119Y158919D01*
X150318Y158621D01*
X150388Y158270D01*
X150370Y147870D01*
X150399D01*
X150283Y147285D01*
X149952Y146789D01*
X149455Y146457D01*
X148870Y146341D01*
X145270Y146370D01*
Y146343D01*
X144724Y146451D01*
X144261Y146761D01*
X143951Y147224D01*
X143843Y147770D01*
X143870Y158070D01*
X143849D01*
X143934Y158499D01*
X144177Y158863D01*
X144541Y159106D01*
X144970Y159192D01*
X149470Y159170D01*
D02*
G37*
G36*
X143400Y145527D02*
X143423Y145508D01*
D01*
X143423Y145508D01*
X143886Y145198D01*
D01*
D01*
X143886Y145198D01*
X144147Y145059D01*
X144430Y144973D01*
X144430D01*
X144976Y144864D01*
X145270Y144835D01*
X145270D01*
D01*
X145527Y144861D01*
X146860Y144850D01*
X147345Y143975D01*
X147312Y143922D01*
X147147Y143523D01*
X147046Y143102D01*
X147012Y142670D01*
X147046Y142239D01*
X147147Y141818D01*
X147312Y141418D01*
X147513Y141090D01*
Y140205D01*
X145374Y138066D01*
X145144Y137797D01*
X144959Y137495D01*
X144824Y137168D01*
X144741Y136823D01*
X144713Y136470D01*
Y134839D01*
X141545D01*
Y134908D01*
X141545D01*
Y139632D01*
X139895D01*
Y140739D01*
D01*
D01*
X139965Y140808D01*
X141545D01*
Y145532D01*
D01*
Y145532D01*
X141614Y145602D01*
X143309D01*
X143400Y145527D01*
D02*
G37*
%LPC*%
G36*
X136670Y169429D02*
X136239Y169395D01*
X135818Y169294D01*
X135418Y169128D01*
X135049Y168902D01*
X134720Y168621D01*
X134438Y168291D01*
X134212Y167922D01*
X134047Y167523D01*
X133946Y167102D01*
X133912Y166670D01*
X133946Y166239D01*
X133946D01*
X133352Y165939D01*
X133352D01*
Y159002D01*
X139895D01*
Y160108D01*
X141545D01*
Y164832D01*
X139895D01*
Y165939D01*
X139895D01*
X139395Y166239D01*
X139395Y166239D01*
X139429Y166670D01*
X139395Y167102D01*
X139294Y167523D01*
X139128Y167922D01*
X138902Y168291D01*
X138621Y168621D01*
X138292Y168902D01*
X137922Y169128D01*
X137522Y169294D01*
X137102Y169395D01*
X136670Y169429D01*
D02*
G37*
G36*
X67270Y161932D02*
X66688Y161894D01*
X66115Y161780D01*
X65562Y161593D01*
X65039Y161335D01*
X64554Y161010D01*
X64115Y160625D01*
X63730Y160187D01*
X63406Y159701D01*
X63147Y159178D01*
X62960Y158625D01*
X62846Y158053D01*
X62808Y157470D01*
X62846Y156888D01*
X62960Y156315D01*
X63147Y155762D01*
X63406Y155239D01*
X63730Y154754D01*
X63802Y154672D01*
X63802Y153688D01*
X63802D01*
Y147145D01*
X63802Y147145D01*
X63802Y146995D01*
X63802D01*
Y146570D01*
X62839Y146299D01*
X62705Y146518D01*
X62398Y146878D01*
X56939Y152337D01*
Y153688D01*
X56939Y153688D01*
X56939D01*
X56918Y153745D01*
X57078Y153883D01*
X57382Y154239D01*
X57627Y154638D01*
X57806Y155071D01*
X57916Y155527D01*
X57952Y155994D01*
Y158947D01*
X57916Y159414D01*
X57806Y159869D01*
X57627Y160302D01*
X57382Y160701D01*
X57078Y161058D01*
X56722Y161362D01*
X56322Y161607D01*
X55889Y161786D01*
X55434Y161895D01*
X54967Y161932D01*
X52014D01*
X51547Y161895D01*
X51092Y161786D01*
X50659Y161607D01*
X50259Y161362D01*
X49903Y161058D01*
X49599Y160701D01*
X49354Y160302D01*
X49175Y159869D01*
X49065Y159414D01*
X49029Y158947D01*
Y155994D01*
X49065Y155527D01*
X49175Y155071D01*
X49354Y154638D01*
X49599Y154239D01*
X49903Y153883D01*
X50033Y153772D01*
X50002Y153688D01*
X50002D01*
X50002Y153688D01*
Y147145D01*
X51108D01*
Y145495D01*
X55269D01*
X57261Y143503D01*
Y133595D01*
X56939D01*
Y133595D01*
X55832D01*
Y135245D01*
X51108D01*
Y133595D01*
X50002D01*
Y127052D01*
X50002Y127052D01*
X50002D01*
X50033Y126968D01*
X49903Y126858D01*
X49599Y126501D01*
X49354Y126102D01*
X49175Y125669D01*
X49065Y125214D01*
X49029Y124747D01*
Y121794D01*
X49065Y121327D01*
X49175Y120871D01*
X49354Y120438D01*
X49599Y120039D01*
X49903Y119683D01*
X50259Y119378D01*
X50461Y119255D01*
Y100717D01*
X49157Y99413D01*
X48851Y99054D01*
X48604Y98651D01*
X48551Y98523D01*
X48423Y98215D01*
X48313Y97756D01*
X48276Y97285D01*
Y76169D01*
X47850Y75867D01*
X47390Y75456D01*
X46978Y74995D01*
X46621Y74491D01*
X46322Y73951D01*
X46086Y73380D01*
X45915Y72786D01*
X45811Y72177D01*
X45776Y71561D01*
Y67750D01*
X45811Y67133D01*
X45915Y66524D01*
X46086Y65930D01*
X46322Y65359D01*
X46621Y64819D01*
X46978Y64315D01*
X47390Y63854D01*
X47850Y63443D01*
X48354Y63085D01*
X48895Y62787D01*
X49466Y62550D01*
X50059Y62379D01*
X50668Y62276D01*
X51285Y62241D01*
X51902Y62276D01*
X52511Y62379D01*
X53104Y62550D01*
X53675Y62787D01*
X54216Y63085D01*
X54720Y63443D01*
X55180Y63854D01*
X55592Y64315D01*
X55706Y64476D01*
X56706D01*
X56821Y64315D01*
X57232Y63854D01*
X57693Y63443D01*
X58197Y63085D01*
X58737Y62787D01*
X59308Y62550D01*
X59902Y62379D01*
X60511Y62276D01*
X61128Y62241D01*
X61744Y62276D01*
X62353Y62379D01*
X62947Y62550D01*
X63518Y62787D01*
X64058Y63085D01*
X64562Y63443D01*
X65023Y63854D01*
X65434Y64315D01*
X65792Y64819D01*
X66091Y65359D01*
X66327Y65930D01*
X66498Y66524D01*
X66602Y67133D01*
X66636Y67750D01*
Y71561D01*
X66602Y72177D01*
X66498Y72786D01*
X66327Y73380D01*
X66091Y73951D01*
X65792Y74491D01*
X65434Y74995D01*
X65023Y75456D01*
X64562Y75867D01*
X64058Y76225D01*
X63518Y76524D01*
X62947Y76760D01*
X62353Y76931D01*
X61744Y77035D01*
X61128Y77069D01*
X60511Y77035D01*
X59902Y76931D01*
X59308Y76760D01*
X58737Y76524D01*
X58197Y76225D01*
X57693Y75867D01*
X57232Y75456D01*
X56821Y74995D01*
X56706Y74834D01*
X55706D01*
X55592Y74995D01*
X55180Y75456D01*
X54720Y75867D01*
X54294Y76169D01*
Y96039D01*
X55598Y97342D01*
X55905Y97701D01*
X56151Y98104D01*
X56226Y98285D01*
X56332Y98540D01*
X56382Y98748D01*
X57382D01*
X57408Y98640D01*
X57536Y98332D01*
X57589Y98204D01*
X57836Y97801D01*
X58142Y97442D01*
X68042Y87542D01*
X68401Y87235D01*
X68804Y86989D01*
X68985Y86914D01*
X69240Y86808D01*
X69699Y86698D01*
X70170Y86661D01*
X80124D01*
X87646Y79139D01*
Y76169D01*
X87221Y75867D01*
X86760Y75456D01*
X86348Y74995D01*
X86234Y74834D01*
X85234D01*
X85119Y74995D01*
X84708Y75456D01*
X84247Y75867D01*
X83743Y76225D01*
X83203Y76524D01*
X82632Y76760D01*
X82038Y76931D01*
X81429Y77035D01*
X80813Y77069D01*
X80196Y77035D01*
X79587Y76931D01*
X78993Y76760D01*
X78422Y76524D01*
X77882Y76225D01*
X77378Y75867D01*
X76917Y75456D01*
X76506Y74995D01*
X76148Y74491D01*
X75849Y73951D01*
X75613Y73380D01*
X75442Y72786D01*
X75339Y72177D01*
X75304Y71561D01*
Y67750D01*
X75339Y67133D01*
X75442Y66524D01*
X75613Y65930D01*
X75849Y65359D01*
X76148Y64819D01*
X76506Y64315D01*
X76917Y63854D01*
X77378Y63443D01*
X77882Y63085D01*
X78422Y62787D01*
X78993Y62550D01*
X79587Y62379D01*
X80196Y62276D01*
X80813Y62241D01*
X81429Y62276D01*
X82038Y62379D01*
X82632Y62550D01*
X83203Y62787D01*
X83743Y63085D01*
X84247Y63443D01*
X84708Y63854D01*
X85119Y64315D01*
X85234Y64476D01*
X86234D01*
X86348Y64315D01*
X86760Y63854D01*
X87221Y63443D01*
X87724Y63085D01*
X88265Y62787D01*
X88836Y62550D01*
X89429Y62379D01*
X90038Y62276D01*
X90655Y62241D01*
X91272Y62276D01*
X91881Y62379D01*
X92475Y62550D01*
X93045Y62787D01*
X93586Y63085D01*
X94090Y63443D01*
X94550Y63854D01*
X94962Y64315D01*
X95319Y64819D01*
X95618Y65359D01*
X95855Y65930D01*
X96026Y66524D01*
X96129Y67133D01*
X96164Y67750D01*
Y71561D01*
X96129Y72177D01*
X96026Y72786D01*
X95855Y73380D01*
X95618Y73951D01*
X95319Y74491D01*
X94962Y74995D01*
X94550Y75456D01*
X94090Y75867D01*
X93664Y76169D01*
Y80385D01*
X93627Y80856D01*
X93517Y81315D01*
X93389Y81624D01*
X93336Y81751D01*
X93090Y82154D01*
X92783Y82513D01*
X83498Y91798D01*
X83139Y92105D01*
X82736Y92351D01*
X82608Y92404D01*
X82300Y92532D01*
X81841Y92642D01*
X81370Y92679D01*
X71417D01*
X63279Y100817D01*
Y119382D01*
X63878Y119907D01*
X64190Y120049D01*
X64554Y119730D01*
X65039Y119406D01*
X65562Y119148D01*
X66115Y118960D01*
X66688Y118846D01*
X67270Y118808D01*
X67852Y118846D01*
X68425Y118960D01*
X68978Y119148D01*
X69501Y119406D01*
X69987Y119730D01*
X70425Y120115D01*
X70810Y120554D01*
X71135Y121039D01*
X71393Y121562D01*
X71580Y122115D01*
X71694Y122688D01*
X71732Y123270D01*
X71694Y123853D01*
X71580Y124425D01*
X71393Y124978D01*
X71135Y125501D01*
X70810Y125987D01*
X70739Y126068D01*
X70739Y127052D01*
X70739D01*
Y128067D01*
X72352D01*
Y127502D01*
X78895D01*
Y128608D01*
X80545D01*
Y133332D01*
X78895D01*
Y133402D01*
Y134508D01*
X80545D01*
Y139232D01*
X79602D01*
X78895Y139939D01*
Y140339D01*
Y140370D01*
Y140402D01*
Y140801D01*
X79602Y141508D01*
X80545D01*
Y146232D01*
X78895D01*
Y146302D01*
Y147408D01*
X80545D01*
Y152132D01*
X78895D01*
Y153239D01*
X72352D01*
Y152527D01*
X70739D01*
Y153688D01*
X70739D01*
X70739Y154672D01*
X70810Y154754D01*
X71135Y155239D01*
X71393Y155762D01*
X71580Y156315D01*
X71694Y156888D01*
X71732Y157470D01*
X71694Y158053D01*
X71580Y158625D01*
X71393Y159178D01*
X71135Y159701D01*
X70810Y160187D01*
X70425Y160625D01*
X69987Y161010D01*
X69501Y161335D01*
X68978Y161593D01*
X68425Y161780D01*
X67852Y161894D01*
X67270Y161932D01*
D02*
G37*
G36*
X98842Y107895D02*
X97267D01*
X96908Y107866D01*
X96558Y107782D01*
X96225Y107644D01*
X95918Y107456D01*
X95644Y107222D01*
X95411Y106949D01*
X95223Y106642D01*
X95085Y106309D01*
X95031Y106085D01*
X89928D01*
X89575Y106058D01*
X89231Y105975D01*
X88904Y105839D01*
X88739Y105995D01*
Y105995D01*
X87632D01*
Y107645D01*
X82908D01*
Y105995D01*
X81802D01*
Y99452D01*
X88739D01*
Y100467D01*
X88824D01*
X89177Y100494D01*
X89521Y100577D01*
X89848Y100713D01*
X89848Y100713D01*
X89848Y100713D01*
X90150Y100898D01*
X90420Y101128D01*
X90420Y101128D01*
X90420Y101128D01*
X90863Y101571D01*
X95031D01*
X95085Y101348D01*
X95223Y101015D01*
X95411Y100708D01*
X95644Y100434D01*
X95918Y100200D01*
X96225Y100012D01*
X96558Y99875D01*
X96908Y99791D01*
X97267Y99762D01*
X98842D01*
X99201Y99791D01*
X99551Y99875D01*
X99883Y100012D01*
X100190Y100200D01*
X100464Y100434D01*
X100698Y100708D01*
X100886Y101015D01*
X101024Y101348D01*
X101108Y101698D01*
X101136Y102057D01*
Y105600D01*
X101108Y105959D01*
X101024Y106309D01*
X100886Y106642D01*
X100698Y106949D01*
X100464Y107222D01*
X100190Y107456D01*
X99883Y107644D01*
X99551Y107782D01*
X99201Y107866D01*
X98842Y107895D01*
D02*
G37*
%LPD*%
G36*
X285926Y113812D02*
X286256Y113591D01*
X286477Y113260D01*
X286555Y112870D01*
X286535D01*
X286553Y108870D01*
X286483Y108519D01*
X286284Y108221D01*
X285987Y108022D01*
X285635Y107952D01*
Y107970D01*
X281435Y107952D01*
X281084Y108022D01*
X280787Y108221D01*
X280588Y108519D01*
X280518Y108870D01*
X280535D01*
X280516Y112870D01*
X280593Y113260D01*
X280815Y113591D01*
X281145Y113812D01*
X281535Y113890D01*
Y113870D01*
X285535Y113890D01*
X285926Y113812D01*
D02*
G37*
G36*
X299042Y132276D02*
X299168Y131970D01*
X299135Y127370D01*
X299155D01*
X299077Y126980D01*
X298856Y126649D01*
X298526Y126428D01*
X298135Y126350D01*
X294535Y126370D01*
Y126390D01*
X294145Y126312D01*
X293814Y126091D01*
X293593Y125760D01*
X293516Y125370D01*
X293535Y120870D01*
X293516D01*
X293593Y120480D01*
X293814Y120149D01*
X294145Y119928D01*
X294535Y119851D01*
X298335Y119870D01*
Y119886D01*
X298648Y119824D01*
X298912Y119647D01*
X299089Y119382D01*
X299151Y119070D01*
X299135Y117970D01*
X299185D01*
X299136Y117852D01*
X299165Y112370D01*
X299048Y111785D01*
X298717Y111289D01*
X298221Y110957D01*
X297635Y110841D01*
Y110870D01*
X293535Y110841D01*
X292950Y110957D01*
X292454Y111289D01*
X292123Y111785D01*
X292006Y112370D01*
X292035D01*
X292065Y115870D01*
X291948Y116455D01*
X291617Y116952D01*
X291121Y117283D01*
X290850Y117337D01*
X275135Y117370D01*
Y117354D01*
X274823Y117417D01*
X274559Y117593D01*
X274382Y117858D01*
X274320Y118170D01*
X274335Y131970D01*
X274303D01*
X274429Y132276D01*
X274735Y132403D01*
X298735Y132370D01*
Y132403D01*
X299042Y132276D01*
D02*
G37*
G36*
X345040Y172221D02*
X345585Y172128D01*
X346116Y171975D01*
X346627Y171764D01*
X347111Y171496D01*
X347561Y171177D01*
X347973Y170808D01*
X348342Y170396D01*
X348524Y170140D01*
X348247Y169179D01*
X346975Y168652D01*
X338929D01*
X338319Y168618D01*
X337717Y168515D01*
X337131Y168346D01*
X336566Y168113D01*
X336032Y167817D01*
X335534Y167464D01*
X335079Y167057D01*
X334672Y166602D01*
X334318Y166103D01*
X334023Y165569D01*
X333789Y165005D01*
X333620Y164418D01*
X333518Y163816D01*
X333484Y163206D01*
X333518Y162597D01*
X333620Y161995D01*
X333789Y161408D01*
X334023Y160844D01*
X334318Y160309D01*
X334672Y159811D01*
X335079Y159356D01*
X335534Y158949D01*
X336032Y158595D01*
X336566Y158300D01*
X337131Y158066D01*
X337717Y157897D01*
X338319Y157795D01*
X338929Y157761D01*
X348772D01*
X349411Y146379D01*
Y146379D01*
X349411D01*
X349412Y135165D01*
X349412D01*
Y135165D01*
X348776Y123840D01*
X348705Y123770D01*
X338929D01*
X338319Y123736D01*
X337717Y123634D01*
X337131Y123464D01*
X336566Y123231D01*
X336032Y122935D01*
X335534Y122582D01*
X335079Y122175D01*
X334672Y121720D01*
X334318Y121222D01*
X334023Y120687D01*
X333789Y120123D01*
X333620Y119536D01*
X333518Y118934D01*
X333484Y118324D01*
X333518Y117715D01*
X333620Y117113D01*
X333789Y116526D01*
X334023Y115962D01*
X334318Y115427D01*
X334672Y114929D01*
X335079Y114474D01*
X335534Y114067D01*
X336032Y113714D01*
X336566Y113418D01*
X337131Y113184D01*
X337717Y113015D01*
X338319Y112913D01*
X338929Y112879D01*
X348772D01*
X349414Y101445D01*
X349417Y49213D01*
X349386Y48661D01*
X349294Y48116D01*
X349141Y47585D01*
X348929Y47074D01*
X348662Y46590D01*
X348342Y46139D01*
X347973Y45727D01*
X347561Y45359D01*
X347111Y45039D01*
X346627Y44772D01*
X346116Y44560D01*
X345585Y44407D01*
X345040Y44315D01*
X344496Y44284D01*
X344488Y44291D01*
Y44291D01*
X226378Y44284D01*
X225826Y44315D01*
X225281Y44407D01*
X224750Y44560D01*
X224239Y44772D01*
X223756Y45039D01*
X223305Y45359D01*
X222893Y45727D01*
X222524Y46139D01*
X222204Y46590D01*
X221937Y47074D01*
X221726Y47585D01*
X221572Y48116D01*
X221480Y48661D01*
X221449Y49205D01*
X221457Y49213D01*
X221457D01*
X221449Y167323D01*
X221480Y167875D01*
X221572Y168420D01*
X221726Y168951D01*
X221937Y169462D01*
X222204Y169945D01*
X222524Y170396D01*
X222893Y170808D01*
X223305Y171177D01*
X223756Y171496D01*
X224239Y171764D01*
X224750Y171975D01*
X225281Y172128D01*
X225826Y172221D01*
X226370Y172251D01*
X226378Y172244D01*
Y172244D01*
X277422Y172248D01*
X277580Y172089D01*
X277897Y171324D01*
X276487Y169913D01*
X276257Y169644D01*
X276072Y169342D01*
X275936Y169015D01*
X275853Y168670D01*
X275826Y168317D01*
Y164076D01*
X272646D01*
Y151628D01*
X273309D01*
X273728Y150719D01*
X273538Y150497D01*
X273353Y150195D01*
X273217Y149867D01*
X273135Y149523D01*
X273111Y149221D01*
X272092D01*
Y142283D01*
X273078D01*
X273217Y142144D01*
X273217Y142144D01*
D01*
X273353Y141817D01*
X273538Y141515D01*
X273768Y141246D01*
X273768Y141246D01*
X273768Y141246D01*
X274006Y141008D01*
Y141008D01*
X273723Y140066D01*
X273723D01*
D01*
Y140066D01*
D01*
X273391Y139928D01*
X273084Y139740D01*
X272810Y139506D01*
X272576Y139232D01*
X272388Y138925D01*
X272250Y138593D01*
X272166Y138242D01*
X272138Y137883D01*
Y134568D01*
X268822D01*
X268463Y134539D01*
X268113Y134455D01*
X267780Y134318D01*
X267473Y134130D01*
X267200Y133896D01*
X266966Y133622D01*
X266778Y133315D01*
X266640Y132982D01*
X266556Y132632D01*
X266528Y132273D01*
Y130698D01*
X266556Y130340D01*
X266640Y129989D01*
X266778Y129657D01*
X266966Y129350D01*
X266992Y129319D01*
X266809Y129020D01*
X266653Y128645D01*
X266559Y128249D01*
X266527Y127844D01*
X266559Y127439D01*
X266653Y127043D01*
X266809Y126668D01*
X267021Y126321D01*
X267066Y126269D01*
X267021Y126217D01*
X266809Y125871D01*
X266653Y125495D01*
X266559Y125100D01*
X266527Y124695D01*
X266559Y124289D01*
X266653Y123894D01*
X266809Y123518D01*
X267021Y123172D01*
X267066Y123120D01*
X267021Y123068D01*
X266809Y122721D01*
X266653Y122345D01*
X266559Y121950D01*
X266527Y121545D01*
X266559Y121140D01*
X266653Y120744D01*
X266809Y120369D01*
X267021Y120022D01*
X267066Y119970D01*
X267021Y119918D01*
X266809Y119571D01*
X266653Y119196D01*
X266205Y118990D01*
X265904Y119295D01*
Y119295D01*
X264798D01*
Y120945D01*
X260073D01*
Y119295D01*
X258967D01*
Y112752D01*
X263998D01*
X264124Y112445D01*
X264310Y112144D01*
X264540Y111874D01*
X264540Y111874D01*
X264540Y111874D01*
X265914Y110500D01*
X266183Y110270D01*
X266485Y110085D01*
X266812Y109950D01*
X267156Y109867D01*
X267509Y109839D01*
X267857D01*
X267941Y109788D01*
X268317Y109632D01*
X268712Y109537D01*
X269117Y109505D01*
X272070D01*
X272475Y109537D01*
X272871Y109632D01*
X273246Y109788D01*
X273593Y110000D01*
X273902Y110264D01*
X274166Y110573D01*
X274378Y110920D01*
X274534Y111295D01*
X274629Y111691D01*
X274661Y112096D01*
X274629Y112501D01*
X274534Y112897D01*
X274378Y113272D01*
X274166Y113619D01*
X273902Y113928D01*
X273593Y114192D01*
X273246Y114404D01*
X272871Y114560D01*
X272475Y114655D01*
X272070Y114687D01*
X269284D01*
X269020Y115324D01*
X268967Y115676D01*
X269097Y115806D01*
X269117Y115805D01*
X272070D01*
X272475Y115837D01*
X272871Y115931D01*
X273246Y116087D01*
X273593Y116299D01*
X273680Y116374D01*
X273721Y116340D01*
X273721Y116340D01*
X273986Y116163D01*
X273986Y116163D01*
X274247Y116024D01*
X274529Y115938D01*
X274529D01*
X274529Y115938D01*
X274529D01*
X274841Y115876D01*
X275135Y115847D01*
D01*
X275135D01*
X275291Y115863D01*
X279745Y115853D01*
X279779Y115805D01*
X280054Y114896D01*
X279977Y114844D01*
X279749Y114657D01*
X279561Y114428D01*
X279340Y114098D01*
X279340Y114098D01*
X279298Y114019D01*
X279201Y113837D01*
X279115Y113554D01*
Y113554D01*
X279037Y113164D01*
X279037Y113160D01*
X279036Y113157D01*
X279023Y113014D01*
X279009Y112870D01*
X279009Y112866D01*
X279009Y112863D01*
X279027Y109040D01*
X279011Y108870D01*
X279040Y108576D01*
X279109Y108225D01*
Y108225D01*
X279161Y108053D01*
X279195Y107942D01*
X279195Y107942D01*
D01*
X279213Y107908D01*
X279334Y107682D01*
X279334Y107682D01*
X279533Y107384D01*
X279533Y107384D01*
X279721Y107155D01*
X279721Y107155D01*
X279721D01*
X279721Y106510D01*
X279703Y106481D01*
X279547Y106105D01*
X279452Y105710D01*
X279420Y105305D01*
Y102352D01*
X279452Y101947D01*
X279547Y101551D01*
X279703Y101176D01*
X279754Y101092D01*
Y100780D01*
X279586Y100612D01*
X279356Y100343D01*
X279171Y100041D01*
X279035Y99714D01*
X278953Y99370D01*
X278942Y99239D01*
X277910D01*
Y98132D01*
X276261D01*
Y93408D01*
X277910D01*
Y92302D01*
X282209D01*
Y91470D01*
X282209Y91466D01*
X282209Y91463D01*
X282219Y89361D01*
X282211Y87471D01*
X282210Y87470D01*
X282211Y87470D01*
X282211Y87459D01*
X282211Y87456D01*
X282210Y87452D01*
X282225Y87310D01*
X282238Y87165D01*
X282239Y87162D01*
X282240Y87158D01*
X282309Y86807D01*
Y86807D01*
X282361Y86636D01*
X282395Y86524D01*
X282395Y86524D01*
D01*
X282413Y86491D01*
X282534Y86264D01*
X282534Y86264D01*
X282733Y85966D01*
X282733Y85966D01*
X282921Y85738D01*
X282921D01*
Y85738D01*
X282971Y85697D01*
X283149Y85550D01*
X283447Y85351D01*
X283447Y85351D01*
X283674Y85230D01*
X283707Y85212D01*
D01*
X283707Y85212D01*
X283819Y85178D01*
X283990Y85126D01*
X283990D01*
X284341Y85057D01*
X284635Y85028D01*
X284807Y85044D01*
X288829Y85027D01*
X288832Y85027D01*
X288835Y85027D01*
X288979Y85041D01*
X289123Y85055D01*
X289126Y85056D01*
X289129Y85056D01*
X289488Y85127D01*
X289488D01*
X289770Y85213D01*
D01*
X289770Y85213D01*
X289928Y85297D01*
X290031Y85352D01*
X290031Y85352D01*
D01*
D01*
X290334Y85555D01*
X290334Y85555D01*
X290334Y85555D01*
X290450Y85650D01*
X290563Y85743D01*
X290563Y85743D01*
X290563Y85743D01*
X290655Y85855D01*
X290750Y85971D01*
X290750Y85971D01*
X290750Y85971D01*
X290953Y86275D01*
D01*
D01*
X290953Y86275D01*
X291072Y86497D01*
X291092Y86535D01*
D01*
X291092Y86535D01*
X291178Y86818D01*
X291178Y86818D01*
X291249Y87176D01*
X291278Y87470D01*
Y87470D01*
D01*
X291260Y87656D01*
X291253Y91373D01*
X291262Y91470D01*
X291254Y91554D01*
X291266Y92302D01*
X295561D01*
Y93408D01*
X297210D01*
Y98132D01*
X295561D01*
Y99239D01*
X294529D01*
X294518Y99370D01*
X294436Y99714D01*
X294300Y100041D01*
X294115Y100343D01*
X293885Y100612D01*
X293717Y100780D01*
Y101092D01*
X293768Y101176D01*
X293924Y101551D01*
X294019Y101947D01*
X294051Y102352D01*
Y105305D01*
X294019Y105710D01*
X293924Y106105D01*
X293768Y106481D01*
X293556Y106827D01*
X293292Y107137D01*
X292983Y107401D01*
X292636Y107613D01*
X292260Y107769D01*
X291865Y107863D01*
X291460Y107895D01*
X291055Y107863D01*
X290659Y107769D01*
X290284Y107613D01*
X289937Y107401D01*
X289885Y107356D01*
X289833Y107401D01*
X289486Y107613D01*
X289111Y107769D01*
X288716Y107863D01*
X288681Y107866D01*
X288037Y108632D01*
X288046Y108727D01*
X288060Y108870D01*
X288060Y108873D01*
X288060Y108877D01*
X288044Y112680D01*
X288062Y112870D01*
X288033Y113164D01*
X287956Y113554D01*
X287870Y113837D01*
X287731Y114098D01*
X287731Y114098D01*
X287510Y114428D01*
X287322Y114657D01*
X287242Y115544D01*
X287242Y115544D01*
X287534Y115837D01*
X287534D01*
Y115837D01*
X289848Y115832D01*
Y115832D01*
X289848D01*
X290003Y115675D01*
X290551Y115121D01*
Y115121D01*
X290531Y112674D01*
X290528Y112664D01*
X290499Y112370D01*
D01*
Y112370D01*
X290528Y112076D01*
X290644Y111491D01*
X290730Y111208D01*
X290869Y110947D01*
X291201Y110451D01*
X291388Y110223D01*
X291388D01*
Y110223D01*
X291617Y110035D01*
X292113Y109704D01*
X292373Y109565D01*
X292656Y109479D01*
X293241Y109362D01*
X293247Y109362D01*
X293252Y109360D01*
X293394Y109347D01*
X293535Y109333D01*
X293541Y109334D01*
X293546Y109334D01*
X297358Y109361D01*
X297635Y109333D01*
X297635D01*
D01*
X297930Y109362D01*
X298038Y109384D01*
X298811Y108750D01*
Y107667D01*
X298839Y107308D01*
X298923Y106958D01*
X299061Y106625D01*
X299249Y106318D01*
X299483Y106044D01*
X299757Y105811D01*
X300064Y105622D01*
X300396Y105485D01*
X300747Y105401D01*
X301043Y105377D01*
X301157Y104806D01*
Y104806D01*
X301183Y104720D01*
X301243Y104523D01*
X301307Y104402D01*
X301382Y104262D01*
X301762Y103694D01*
X301915Y103507D01*
X301949Y103466D01*
X301949D01*
Y103466D01*
X302177Y103279D01*
X302746Y102899D01*
X302885Y102824D01*
X303006Y102760D01*
X303203Y102700D01*
X303289Y102674D01*
X303289D01*
X303959Y102541D01*
X304253Y102512D01*
X304547Y102541D01*
X304560Y102544D01*
X310931Y102527D01*
X310933Y102527D01*
X310935Y102527D01*
X311080Y102541D01*
X311226Y102555D01*
X311227Y102556D01*
X311229Y102556D01*
X311588Y102628D01*
X311588D01*
X311720Y102667D01*
X311871Y102713D01*
X312098Y102835D01*
X312132Y102853D01*
X312436Y103056D01*
X312436Y103056D01*
X312664Y103243D01*
Y103243D01*
X312664D01*
X312852Y103472D01*
X312852Y103472D01*
X313055Y103776D01*
X313055Y103776D01*
X313185Y104018D01*
X313194Y104036D01*
D01*
X313194Y104036D01*
X313228Y104148D01*
X313280Y104319D01*
Y104319D01*
X313351Y104678D01*
X313351Y104678D01*
X313380Y104972D01*
X313363Y105146D01*
X313382Y108963D01*
X313382Y108966D01*
X313382Y108970D01*
X313368Y109114D01*
X313354Y109257D01*
X313353Y109260D01*
X313353Y109264D01*
X313275Y109654D01*
X313190Y109937D01*
X313050Y110198D01*
X313050Y110198D01*
X312829Y110528D01*
X312642Y110757D01*
X312413Y110944D01*
X312083Y111165D01*
X312083Y111165D01*
X312003Y111208D01*
X311822Y111305D01*
X311539Y111390D01*
X311539D01*
X310843Y111619D01*
D01*
X310962Y112905D01*
X311531Y113474D01*
X311655Y113619D01*
X311761Y113743D01*
X311946Y114045D01*
X312082Y114373D01*
X312165Y114717D01*
X312192Y115070D01*
Y116102D01*
X315561D01*
Y116032D01*
X315561D01*
Y111308D01*
X317210D01*
Y110202D01*
X319025D01*
X319247Y110083D01*
X319529Y109998D01*
X320241Y109856D01*
X320535Y109827D01*
D01*
X320535D01*
X320830Y109856D01*
X320848Y109862D01*
X328329Y109830D01*
X328332Y109830D01*
X328335Y109830D01*
X328479Y109844D01*
X328623Y109858D01*
X328626Y109859D01*
X328629Y109859D01*
X329286Y109989D01*
X329569Y110075D01*
X329829Y110214D01*
X330386Y110586D01*
X330614Y110774D01*
Y110774D01*
X330614D01*
X330802Y111002D01*
X331174Y111559D01*
X331313Y111819D01*
X331399Y112102D01*
Y112102D01*
X331529Y112759D01*
X331558Y113053D01*
Y113053D01*
D01*
X331529Y113347D01*
X331526Y113356D01*
X331528Y113861D01*
X331531Y113876D01*
X331532Y113879D01*
X331533Y113883D01*
X331546Y114027D01*
X331560Y114170D01*
X331560Y114173D01*
X331560Y114177D01*
X331544Y117948D01*
X331544Y117983D01*
X331562Y118170D01*
X331533Y118464D01*
X331456Y118854D01*
X331370Y119137D01*
X331231Y119398D01*
X331231Y119398D01*
X331230Y119399D01*
X331214Y119428D01*
X331214Y119428D01*
X330997Y119753D01*
X330997Y119753D01*
D01*
X330810Y119981D01*
X330671Y120095D01*
X330581Y120169D01*
X330581Y120169D01*
X330581Y120169D01*
X330256Y120386D01*
X330014Y120516D01*
X329996Y120525D01*
D01*
X329996Y120525D01*
X329884Y120559D01*
X329713Y120611D01*
X329329Y120687D01*
X329035Y120716D01*
D01*
X329035D01*
X328830Y120696D01*
X327236Y120688D01*
X327133Y121210D01*
X327133Y121210D01*
X327133D01*
X327047Y121493D01*
X326943Y121686D01*
X326907Y121754D01*
X326907Y121754D01*
X326598Y122217D01*
X326598Y122217D01*
X326598Y122217D01*
X326503Y122333D01*
X326411Y122445D01*
X326411Y122445D01*
X326411Y122445D01*
X326206Y122613D01*
X326182Y122633D01*
D01*
X326182Y122633D01*
X325719Y122942D01*
D01*
D01*
X325719Y122942D01*
X325599Y123006D01*
X325452Y123995D01*
X328531Y127074D01*
X328761Y127343D01*
X328946Y127645D01*
X329082Y127973D01*
X329165Y128317D01*
X329192Y128670D01*
Y133190D01*
X329393Y133518D01*
X329559Y133918D01*
X329660Y134339D01*
X329694Y134770D01*
X329660Y135202D01*
X329559Y135623D01*
X329393Y136022D01*
X329167Y136391D01*
X328886Y136721D01*
X328531Y137674D01*
X328761Y137943D01*
X328946Y138245D01*
X329082Y138573D01*
X329165Y138917D01*
X329192Y139270D01*
Y141090D01*
X329393Y141418D01*
X329559Y141818D01*
X329660Y142239D01*
X329694Y142670D01*
X329660Y143102D01*
X329559Y143523D01*
X329393Y143922D01*
X329167Y144291D01*
X328886Y144621D01*
X328557Y144902D01*
X328508Y144931D01*
X328342Y145917D01*
X328370Y145951D01*
X328702Y146447D01*
X328841Y146708D01*
X328927Y146991D01*
X329043Y147576D01*
X329072Y147870D01*
Y147870D01*
D01*
X329043Y148163D01*
X329060Y158267D01*
X329060Y158269D01*
X329060Y158270D01*
X329046Y158414D01*
X329032Y158562D01*
X329031Y158563D01*
X329031Y158564D01*
X328961Y158915D01*
Y158915D01*
X328909Y159087D01*
X328876Y159198D01*
X328876Y159198D01*
D01*
X328858Y159232D01*
X328736Y159459D01*
X328736Y159459D01*
X328538Y159756D01*
X328538Y159756D01*
X328350Y159985D01*
X328350D01*
Y159985D01*
X328300Y160026D01*
X328122Y160172D01*
X327824Y160371D01*
X327824Y160371D01*
X327597Y160492D01*
X327563Y160510D01*
D01*
X327563Y160510D01*
X327452Y160544D01*
X327281Y160596D01*
X327281D01*
X326929Y160666D01*
X326635Y160695D01*
X326465Y160678D01*
X322143Y160699D01*
X322139Y160698D01*
X322135Y160699D01*
X321992Y160685D01*
X321849Y160671D01*
X321845Y160670D01*
X321841Y160670D01*
X321412Y160585D01*
X321412D01*
X321129Y160499D01*
X320869Y160360D01*
X320505Y160116D01*
X320505Y160116D01*
X320326Y159970D01*
X320277Y159929D01*
Y159929D01*
X320277D01*
X320089Y159701D01*
X319846Y159337D01*
X319707Y159076D01*
X319621Y158793D01*
Y158793D01*
X319550Y158439D01*
X317210D01*
Y157332D01*
X315561D01*
Y152608D01*
D01*
Y152608D01*
X315491Y152539D01*
X310517D01*
Y152539D01*
X310362Y152384D01*
X305823Y152405D01*
X305819Y152404D01*
X305816Y152405D01*
X305672Y152391D01*
X305528Y152377D01*
X305525Y152376D01*
X305522Y152376D01*
X304976Y152267D01*
X304976D01*
X304693Y152181D01*
X304500Y152078D01*
X304432Y152042D01*
X304432Y152042D01*
X303969Y151733D01*
X303969Y151733D01*
X303969Y151733D01*
X303853Y151637D01*
X303741Y151545D01*
X303741Y151545D01*
X303741Y151545D01*
X303573Y151340D01*
X303553Y151317D01*
D01*
X303553Y151317D01*
X303244Y150854D01*
D01*
D01*
X303244Y150854D01*
X303104Y150593D01*
X303019Y150310D01*
Y150310D01*
X302910Y149764D01*
X302881Y149470D01*
Y149470D01*
D01*
X302907Y149204D01*
X302891Y145479D01*
X302891Y145475D01*
X302891Y145472D01*
X302905Y145328D01*
X302918Y145185D01*
X302919Y145181D01*
X302920Y145178D01*
X302935Y145100D01*
X302610Y144703D01*
X301369Y144327D01*
X299828D01*
Y149221D01*
X298808D01*
X298786Y149502D01*
X298703Y149846D01*
X298568Y150173D01*
X298383Y150475D01*
X298174Y150719D01*
X298593Y151628D01*
X299268D01*
Y164076D01*
X296088D01*
Y168375D01*
X296060Y168728D01*
X295977Y169072D01*
X295842Y169399D01*
X295657Y169701D01*
X295427Y169971D01*
X294073Y171325D01*
X294388Y172087D01*
X294550Y172249D01*
X344488Y172252D01*
X345040Y172221D01*
D02*
G37*
G36*
X288310Y103828D02*
X289035D01*
Y94077D01*
X289002D01*
X289135Y93411D01*
X289512Y92846D01*
X289545Y92880D01*
X289704Y92643D01*
X289759Y92364D01*
X289746Y91516D01*
X289755Y91470D01*
X289745D01*
X289753Y87470D01*
X289771D01*
X289700Y87112D01*
X289497Y86809D01*
X289194Y86606D01*
X288835Y86535D01*
X284635Y86552D01*
Y86535D01*
X284284Y86605D01*
X283987Y86804D01*
X283788Y87101D01*
X283718Y87452D01*
X283718Y87470D01*
X283718Y87470D01*
X283718D01*
X283726Y89360D01*
X283716Y91470D01*
Y94219D01*
X283687D01*
X283801Y95370D01*
X284137Y96476D01*
X284682Y97496D01*
X285415Y98390D01*
X286316Y99251D01*
X286335Y99232D01*
X286838Y99887D01*
X287155Y100651D01*
X287263Y101470D01*
X287235Y104070D01*
X288310Y103828D01*
D02*
G37*
G36*
X306812Y109985D02*
X306835Y109990D01*
Y109985D01*
X308564Y109978D01*
X310835Y109990D01*
X310855Y109986D01*
Y109990D01*
X311245Y109912D01*
X311576Y109691D01*
X311797Y109360D01*
X311875Y108970D01*
X311855Y104972D01*
X311873D01*
X311802Y104613D01*
X311598Y104309D01*
X311294Y104106D01*
X310935Y104034D01*
X304253Y104052D01*
Y104019D01*
X303583Y104152D01*
X303015Y104532D01*
X302635Y105100D01*
X302502Y105770D01*
X302535Y105870D01*
X302555D01*
X302477Y106260D01*
X302256Y106591D01*
X301926Y106812D01*
X301535Y106890D01*
Y109570D01*
X301502D01*
X301629Y109876D01*
X301935Y110003D01*
X306812Y109985D01*
D02*
G37*
G36*
X324335Y121770D02*
Y121798D01*
X324882Y121689D01*
X325345Y121379D01*
X325654Y120916D01*
X325763Y120370D01*
X325712D01*
X325804Y119906D01*
X326067Y119512D01*
X326461Y119249D01*
X326814Y119179D01*
X327035Y119180D01*
X327035Y119180D01*
X329035Y119190D01*
Y119209D01*
X329419Y119133D01*
X329744Y118915D01*
X329961Y118590D01*
X329963Y118582D01*
X329977Y118560D01*
X330055Y118170D01*
X330037D01*
X330036Y117947D01*
X330053Y114170D01*
X330022Y114013D01*
X330018Y113053D01*
X330051D01*
X329921Y112396D01*
X329549Y111840D01*
X328992Y111468D01*
X328335Y111337D01*
X320535Y111370D01*
Y111334D01*
X319823Y111476D01*
X319219Y111879D01*
X318816Y112483D01*
X318674Y113195D01*
X318710Y119570D01*
X318667D01*
X318838Y120429D01*
X319324Y121156D01*
X320052Y121642D01*
X320910Y121813D01*
X324335Y121770D01*
D02*
G37*
G36*
X312494Y150771D02*
X313059Y150394D01*
X313035Y141370D01*
X311535D01*
Y141341D01*
X310950Y141457D01*
X310454Y141789D01*
X310122Y142285D01*
X310006Y142870D01*
X310068D01*
X309938Y143526D01*
X309566Y144083D01*
X309010Y144455D01*
X308453Y144565D01*
X305335Y144552D01*
Y144534D01*
X304977Y144606D01*
X304672Y144809D01*
X304469Y145113D01*
X304398Y145472D01*
X304416Y149470D01*
X304388D01*
X304497Y150016D01*
X304806Y150479D01*
X305270Y150789D01*
X305816Y150898D01*
X311828Y150870D01*
Y150903D01*
X312494Y150771D01*
D02*
G37*
G36*
X291574Y164076D02*
X288394D01*
Y151628D01*
X291234D01*
X291684Y151177D01*
X291684Y151177D01*
D01*
X291820Y150850D01*
X292005Y150548D01*
X292235Y150279D01*
X292235Y150279D01*
X292235Y150279D01*
X293287Y149226D01*
X293285Y149221D01*
X293285D01*
X293285Y149221D01*
Y148114D01*
X291635D01*
Y143927D01*
X290935D01*
X290582Y143899D01*
X290238Y143817D01*
X289911Y143681D01*
X289609Y143496D01*
X289339Y143266D01*
X286908Y140835D01*
X286756Y140841D01*
X284331Y143266D01*
X284062Y143496D01*
X283760Y143681D01*
X283433Y143817D01*
X283088Y143899D01*
X282735Y143927D01*
X280285D01*
Y148114D01*
X278635D01*
Y149221D01*
X278635Y149221D01*
X278635D01*
X278627Y149241D01*
X279679Y150293D01*
X279909Y150562D01*
X280094Y150864D01*
X280229Y151191D01*
X280312Y151536D01*
X280319Y151628D01*
X283520D01*
Y164076D01*
X280340D01*
Y166483D01*
X285935D01*
Y166483D01*
X285935D01*
X285935Y166483D01*
X286085D01*
Y166483D01*
X291574D01*
Y164076D01*
D02*
G37*
G36*
X326635Y159170D02*
Y159188D01*
X326987Y159118D01*
X327284Y158919D01*
X327483Y158621D01*
X327553Y158270D01*
X327535Y147870D01*
X327565D01*
X327448Y147285D01*
X327117Y146789D01*
X326621Y146457D01*
X326035Y146341D01*
X322435Y146370D01*
Y146343D01*
X321889Y146451D01*
X321426Y146761D01*
X321117Y147224D01*
X321008Y147770D01*
X321035Y158070D01*
X321014D01*
X321099Y158499D01*
X321342Y158863D01*
X321706Y159106D01*
X322135Y159192D01*
X326635Y159170D01*
D02*
G37*
G36*
X320565Y145527D02*
X320589Y145508D01*
D01*
X320589Y145508D01*
X321052Y145198D01*
D01*
D01*
X321052Y145198D01*
X321312Y145059D01*
X321595Y144973D01*
X321595D01*
X322141Y144864D01*
X322435Y144835D01*
D01*
X322435D01*
X322692Y144861D01*
X324025Y144850D01*
X324510Y143975D01*
X324478Y143922D01*
X324312Y143523D01*
X324211Y143102D01*
X324177Y142670D01*
X324211Y142239D01*
X324312Y141818D01*
X324478Y141418D01*
X324678Y141090D01*
Y140205D01*
X322539Y138066D01*
X322309Y137797D01*
X322125Y137495D01*
X321989Y137168D01*
X321906Y136823D01*
X321879Y136470D01*
Y134839D01*
X318710D01*
Y134908D01*
X318710D01*
Y139632D01*
X317061D01*
Y140739D01*
D01*
D01*
X317130Y140808D01*
X318710D01*
Y145532D01*
D01*
Y145532D01*
X318780Y145602D01*
X320474D01*
X320565Y145527D01*
D02*
G37*
%LPC*%
G36*
X313835Y169429D02*
X313404Y169395D01*
X312983Y169294D01*
X312583Y169128D01*
X312214Y168902D01*
X311885Y168621D01*
X311604Y168291D01*
X311378Y167922D01*
X311212Y167523D01*
X311111Y167102D01*
X311077Y166670D01*
X311111Y166239D01*
X311111D01*
X310517Y165939D01*
X310517D01*
Y159002D01*
X317061D01*
Y160108D01*
X318710D01*
Y164832D01*
X317061D01*
Y165939D01*
X317061D01*
X316560Y166239D01*
X316560Y166239D01*
X316594Y166670D01*
X316560Y167102D01*
X316459Y167523D01*
X316293Y167922D01*
X316067Y168291D01*
X315786Y168621D01*
X315457Y168902D01*
X315088Y169128D01*
X314688Y169294D01*
X314267Y169395D01*
X313835Y169429D01*
D02*
G37*
G36*
X244435Y161932D02*
X243853Y161894D01*
X243281Y161780D01*
X242728Y161593D01*
X242204Y161335D01*
X241719Y161010D01*
X241280Y160625D01*
X240895Y160187D01*
X240571Y159701D01*
X240313Y159178D01*
X240125Y158625D01*
X240011Y158053D01*
X239973Y157470D01*
X240011Y156888D01*
X240125Y156315D01*
X240313Y155762D01*
X240571Y155239D01*
X240895Y154754D01*
X240967Y154672D01*
X240967Y153688D01*
X240967D01*
Y147145D01*
X240967Y147145D01*
X240967Y146995D01*
X240967D01*
Y146570D01*
X240004Y146299D01*
X239870Y146518D01*
X239563Y146878D01*
X234104Y152337D01*
Y153688D01*
X234104Y153688D01*
X234104D01*
X234083Y153745D01*
X234243Y153883D01*
X234548Y154239D01*
X234792Y154638D01*
X234972Y155071D01*
X235081Y155527D01*
X235118Y155994D01*
Y158947D01*
X235081Y159414D01*
X234972Y159869D01*
X234792Y160302D01*
X234548Y160701D01*
X234243Y161058D01*
X233887Y161362D01*
X233488Y161607D01*
X233055Y161786D01*
X232599Y161895D01*
X232132Y161932D01*
X229180D01*
X228713Y161895D01*
X228257Y161786D01*
X227824Y161607D01*
X227425Y161362D01*
X227068Y161058D01*
X226764Y160701D01*
X226519Y160302D01*
X226340Y159869D01*
X226231Y159414D01*
X226194Y158947D01*
Y155994D01*
X226231Y155527D01*
X226340Y155071D01*
X226519Y154638D01*
X226764Y154239D01*
X227068Y153883D01*
X227198Y153772D01*
X227167Y153688D01*
X227167D01*
X227167Y153688D01*
Y147145D01*
X228273D01*
Y145495D01*
X232434D01*
X234426Y143503D01*
Y133595D01*
X234104D01*
Y133595D01*
X232998D01*
Y135245D01*
X228273D01*
Y133595D01*
X227167D01*
Y127052D01*
X227167Y127052D01*
X227167D01*
X227198Y126968D01*
X227068Y126858D01*
X226764Y126501D01*
X226519Y126102D01*
X226340Y125669D01*
X226231Y125214D01*
X226194Y124747D01*
Y121794D01*
X226231Y121327D01*
X226340Y120871D01*
X226519Y120438D01*
X226764Y120039D01*
X227068Y119683D01*
X227425Y119378D01*
X227626Y119255D01*
Y100717D01*
X226323Y99413D01*
X226016Y99054D01*
X225769Y98651D01*
X225716Y98523D01*
X225588Y98215D01*
X225478Y97756D01*
X225441Y97285D01*
Y76169D01*
X225016Y75867D01*
X224555Y75456D01*
X224144Y74995D01*
X223786Y74491D01*
X223487Y73951D01*
X223251Y73380D01*
X223080Y72786D01*
X222976Y72177D01*
X222942Y71561D01*
Y67750D01*
X222976Y67133D01*
X223080Y66524D01*
X223251Y65930D01*
X223487Y65359D01*
X223786Y64819D01*
X224144Y64315D01*
X224555Y63854D01*
X225016Y63443D01*
X225520Y63085D01*
X226060Y62787D01*
X226631Y62550D01*
X227225Y62379D01*
X227834Y62276D01*
X228450Y62241D01*
X229067Y62276D01*
X229676Y62379D01*
X230270Y62550D01*
X230840Y62787D01*
X231381Y63085D01*
X231885Y63443D01*
X232346Y63854D01*
X232757Y64315D01*
X232872Y64476D01*
X233872D01*
X233986Y64315D01*
X234398Y63854D01*
X234858Y63443D01*
X235362Y63085D01*
X235903Y62787D01*
X236473Y62550D01*
X237067Y62379D01*
X237676Y62276D01*
X238293Y62241D01*
X238910Y62276D01*
X239519Y62379D01*
X240112Y62550D01*
X240683Y62787D01*
X241224Y63085D01*
X241727Y63443D01*
X242188Y63854D01*
X242600Y64315D01*
X242957Y64819D01*
X243256Y65359D01*
X243493Y65930D01*
X243664Y66524D01*
X243767Y67133D01*
X243802Y67750D01*
Y71561D01*
X243767Y72177D01*
X243664Y72786D01*
X243493Y73380D01*
X243256Y73951D01*
X242957Y74491D01*
X242600Y74995D01*
X242188Y75456D01*
X241727Y75867D01*
X241224Y76225D01*
X240683Y76524D01*
X240112Y76760D01*
X239519Y76931D01*
X238910Y77035D01*
X238293Y77069D01*
X237676Y77035D01*
X237067Y76931D01*
X236473Y76760D01*
X235903Y76524D01*
X235362Y76225D01*
X234858Y75867D01*
X234398Y75456D01*
X233986Y74995D01*
X233872Y74834D01*
X232872D01*
X232757Y74995D01*
X232346Y75456D01*
X231885Y75867D01*
X231460Y76169D01*
Y96039D01*
X232763Y97342D01*
X233070Y97701D01*
X233317Y98104D01*
X233392Y98285D01*
X233497Y98540D01*
X233547Y98748D01*
X234547D01*
X234573Y98640D01*
X234701Y98332D01*
X234754Y98204D01*
X235001Y97801D01*
X235308Y97442D01*
X245208Y87542D01*
X245567Y87235D01*
X245969Y86989D01*
X246150Y86914D01*
X246406Y86808D01*
X246865Y86698D01*
X247335Y86661D01*
X257289D01*
X264811Y79139D01*
Y76169D01*
X264386Y75867D01*
X263925Y75456D01*
X263514Y74995D01*
X263399Y74834D01*
X262399D01*
X262285Y74995D01*
X261873Y75456D01*
X261413Y75867D01*
X260909Y76225D01*
X260368Y76524D01*
X259797Y76760D01*
X259204Y76931D01*
X258595Y77035D01*
X257978Y77069D01*
X257361Y77035D01*
X256752Y76931D01*
X256159Y76760D01*
X255588Y76524D01*
X255047Y76225D01*
X254543Y75867D01*
X254083Y75456D01*
X253671Y74995D01*
X253314Y74491D01*
X253015Y73951D01*
X252778Y73380D01*
X252607Y72786D01*
X252504Y72177D01*
X252469Y71561D01*
Y67750D01*
X252504Y67133D01*
X252607Y66524D01*
X252778Y65930D01*
X253015Y65359D01*
X253314Y64819D01*
X253671Y64315D01*
X254083Y63854D01*
X254543Y63443D01*
X255047Y63085D01*
X255588Y62787D01*
X256159Y62550D01*
X256752Y62379D01*
X257361Y62276D01*
X257978Y62241D01*
X258595Y62276D01*
X259204Y62379D01*
X259797Y62550D01*
X260368Y62787D01*
X260909Y63085D01*
X261413Y63443D01*
X261873Y63854D01*
X262285Y64315D01*
X262399Y64476D01*
X263399D01*
X263514Y64315D01*
X263925Y63854D01*
X264386Y63443D01*
X264890Y63085D01*
X265430Y62787D01*
X266001Y62550D01*
X266595Y62379D01*
X267204Y62276D01*
X267821Y62241D01*
X268437Y62276D01*
X269046Y62379D01*
X269640Y62550D01*
X270211Y62787D01*
X270751Y63085D01*
X271255Y63443D01*
X271716Y63854D01*
X272127Y64315D01*
X272485Y64819D01*
X272784Y65359D01*
X273020Y65930D01*
X273191Y66524D01*
X273294Y67133D01*
X273329Y67750D01*
Y71561D01*
X273294Y72177D01*
X273191Y72786D01*
X273020Y73380D01*
X272784Y73951D01*
X272485Y74491D01*
X272127Y74995D01*
X271716Y75456D01*
X271255Y75867D01*
X270830Y76169D01*
Y80385D01*
X270793Y80856D01*
X270683Y81315D01*
X270555Y81624D01*
X270502Y81751D01*
X270255Y82154D01*
X269948Y82513D01*
X260663Y91798D01*
X260304Y92105D01*
X259902Y92351D01*
X259774Y92404D01*
X259465Y92532D01*
X259006Y92642D01*
X258535Y92679D01*
X248582D01*
X240445Y100817D01*
Y119382D01*
X241043Y119907D01*
X241356Y120049D01*
X241719Y119730D01*
X242204Y119406D01*
X242728Y119148D01*
X243281Y118960D01*
X243853Y118846D01*
X244435Y118808D01*
X245018Y118846D01*
X245590Y118960D01*
X246143Y119148D01*
X246667Y119406D01*
X247152Y119730D01*
X247591Y120115D01*
X247976Y120554D01*
X248300Y121039D01*
X248558Y121562D01*
X248746Y122115D01*
X248860Y122688D01*
X248898Y123270D01*
X248860Y123853D01*
X248746Y124425D01*
X248558Y124978D01*
X248300Y125501D01*
X247976Y125987D01*
X247904Y126068D01*
X247904Y127052D01*
X247904D01*
Y128067D01*
X249517D01*
Y127502D01*
X256061D01*
Y128608D01*
X257710D01*
Y133332D01*
X256061D01*
Y133402D01*
Y134508D01*
X257710D01*
Y139232D01*
X256768D01*
X256061Y139939D01*
Y140339D01*
Y140370D01*
Y140402D01*
Y140801D01*
X256768Y141508D01*
X257710D01*
Y146232D01*
X256061D01*
Y146302D01*
Y147408D01*
X257710D01*
Y152132D01*
X256061D01*
Y153239D01*
X249517D01*
Y152527D01*
X247904D01*
Y153688D01*
X247904D01*
X247904Y154672D01*
X247976Y154754D01*
X248300Y155239D01*
X248558Y155762D01*
X248746Y156315D01*
X248860Y156888D01*
X248898Y157470D01*
X248860Y158053D01*
X248746Y158625D01*
X248558Y159178D01*
X248300Y159701D01*
X247976Y160187D01*
X247591Y160625D01*
X247152Y161010D01*
X246667Y161335D01*
X246143Y161593D01*
X245590Y161780D01*
X245018Y161894D01*
X244435Y161932D01*
D02*
G37*
G36*
X276007Y107895D02*
X274432D01*
X274073Y107866D01*
X273723Y107782D01*
X273391Y107644D01*
X273084Y107456D01*
X272810Y107222D01*
X272576Y106949D01*
X272388Y106642D01*
X272250Y106309D01*
X272196Y106085D01*
X267094D01*
X266741Y106058D01*
X266396Y105975D01*
X266069Y105839D01*
X265904Y105995D01*
Y105995D01*
X264798D01*
Y107645D01*
X260073D01*
Y105995D01*
X258967D01*
Y99452D01*
X265904D01*
Y100467D01*
X265989D01*
X266342Y100494D01*
X266686Y100577D01*
X267014Y100713D01*
X267014Y100713D01*
X267014Y100713D01*
X267316Y100898D01*
X267585Y101128D01*
X267585Y101128D01*
X267585Y101128D01*
X268029Y101571D01*
X272196D01*
X272250Y101348D01*
X272388Y101015D01*
X272576Y100708D01*
X272810Y100434D01*
X273084Y100200D01*
X273391Y100012D01*
X273723Y99875D01*
X274073Y99791D01*
X274432Y99762D01*
X276007D01*
X276366Y99791D01*
X276716Y99875D01*
X277049Y100012D01*
X277356Y100200D01*
X277629Y100434D01*
X277863Y100708D01*
X278051Y101015D01*
X278189Y101348D01*
X278273Y101698D01*
X278302Y102057D01*
Y105600D01*
X278273Y105959D01*
X278189Y106309D01*
X278051Y106642D01*
X277863Y106949D01*
X277629Y107222D01*
X277356Y107456D01*
X277049Y107644D01*
X276716Y107782D01*
X276366Y107866D01*
X276007Y107895D01*
D02*
G37*
%LPD*%
G36*
X108760Y290977D02*
X109091Y290756D01*
X109312Y290426D01*
X109390Y290035D01*
X109370D01*
X109388Y286035D01*
X109318Y285684D01*
X109119Y285387D01*
X108821Y285188D01*
X108470Y285118D01*
Y285135D01*
X104270Y285118D01*
X103919Y285188D01*
X103621Y285387D01*
X103422Y285684D01*
X103352Y286035D01*
X103370D01*
X103350Y290035D01*
X103428Y290426D01*
X103649Y290756D01*
X103980Y290977D01*
X104370Y291055D01*
Y291035D01*
X108370Y291055D01*
X108760Y290977D01*
D02*
G37*
G36*
X121876Y309442D02*
X122003Y309135D01*
X121970Y304535D01*
X121990D01*
X121912Y304145D01*
X121691Y303815D01*
X121360Y303593D01*
X120970Y303516D01*
X117370Y303535D01*
Y303555D01*
X116980Y303477D01*
X116649Y303256D01*
X116428Y302926D01*
X116350Y302535D01*
X116370Y298035D01*
X116350D01*
X116428Y297645D01*
X116649Y297315D01*
X116980Y297093D01*
X117370Y297016D01*
X121170Y297035D01*
Y297051D01*
X121482Y296989D01*
X121747Y296812D01*
X121924Y296548D01*
X121986Y296235D01*
X121970Y295135D01*
X122020D01*
X121971Y295018D01*
X122000Y289535D01*
X121883Y288950D01*
X121552Y288454D01*
X121055Y288123D01*
X120470Y288006D01*
Y288035D01*
X116370Y288006D01*
X115785Y288123D01*
X115289Y288454D01*
X114957Y288950D01*
X114841Y289535D01*
X114870D01*
X114900Y293035D01*
X114783Y293621D01*
X114452Y294117D01*
X113955Y294448D01*
X113685Y294502D01*
X97970Y294535D01*
Y294520D01*
X97658Y294582D01*
X97393Y294759D01*
X97216Y295023D01*
X97154Y295335D01*
X97170Y309135D01*
X97137D01*
X97264Y309442D01*
X97570Y309568D01*
X121570Y309535D01*
Y309568D01*
X121876Y309442D01*
D02*
G37*
G36*
X167875Y349386D02*
X168420Y349294D01*
X168951Y349141D01*
X169462Y348929D01*
X169945Y348662D01*
X170396Y348342D01*
X170808Y347973D01*
X171177Y347561D01*
X171358Y347305D01*
X171081Y346344D01*
X169809Y345817D01*
X161764D01*
X161154Y345783D01*
X160552Y345681D01*
X159965Y345512D01*
X159401Y345278D01*
X158867Y344983D01*
X158369Y344629D01*
X157913Y344222D01*
X157506Y343767D01*
X157153Y343269D01*
X156858Y342734D01*
X156624Y342170D01*
X156455Y341583D01*
X156352Y340981D01*
X156318Y340372D01*
X156352Y339762D01*
X156455Y339160D01*
X156624Y338573D01*
X156858Y338009D01*
X157153Y337474D01*
X157506Y336976D01*
X157913Y336521D01*
X158369Y336114D01*
X158867Y335761D01*
X159401Y335465D01*
X159965Y335232D01*
X160552Y335063D01*
X161154Y334960D01*
X161764Y334926D01*
X171606D01*
X172246Y323545D01*
Y323544D01*
X172246D01*
X172246Y312330D01*
X172246D01*
Y312330D01*
X171610Y301006D01*
X171540Y300935D01*
X161764D01*
X161154Y300901D01*
X160552Y300799D01*
X159965Y300630D01*
X159401Y300396D01*
X158867Y300101D01*
X158369Y299747D01*
X157913Y299340D01*
X157506Y298885D01*
X157153Y298387D01*
X156858Y297852D01*
X156624Y297288D01*
X156455Y296702D01*
X156352Y296099D01*
X156318Y295490D01*
X156352Y294880D01*
X156455Y294278D01*
X156624Y293691D01*
X156858Y293127D01*
X157153Y292593D01*
X157506Y292094D01*
X157913Y291639D01*
X158369Y291232D01*
X158867Y290879D01*
X159401Y290583D01*
X159965Y290350D01*
X160552Y290181D01*
X161154Y290078D01*
X161764Y290044D01*
X171606D01*
X172248Y278610D01*
X172252Y226378D01*
X172221Y225826D01*
X172128Y225281D01*
X171975Y224750D01*
X171764Y224239D01*
X171496Y223756D01*
X171177Y223305D01*
X170808Y222893D01*
X170396Y222524D01*
X169945Y222204D01*
X169462Y221937D01*
X168951Y221726D01*
X168420Y221572D01*
X167875Y221480D01*
X167331Y221449D01*
X167323Y221457D01*
Y221457D01*
X49213Y221449D01*
X48661Y221480D01*
X48116Y221572D01*
X47585Y221726D01*
X47074Y221937D01*
X46590Y222204D01*
X46139Y222524D01*
X45727Y222893D01*
X45359Y223305D01*
X45039Y223756D01*
X44772Y224239D01*
X44560Y224750D01*
X44407Y225281D01*
X44315Y225826D01*
X44284Y226370D01*
X44291Y226378D01*
X44291D01*
X44284Y344488D01*
X44315Y345040D01*
X44407Y345585D01*
X44560Y346116D01*
X44772Y346627D01*
X45039Y347111D01*
X45359Y347561D01*
X45727Y347973D01*
X46139Y348342D01*
X46590Y348662D01*
X47074Y348929D01*
X47585Y349141D01*
X48116Y349294D01*
X48661Y349386D01*
X49205Y349417D01*
X49213Y349409D01*
Y349410D01*
X100256Y349413D01*
X100415Y349255D01*
X100732Y348489D01*
X99321Y347078D01*
X99091Y346809D01*
X98906Y346507D01*
X98771Y346180D01*
X98688Y345836D01*
X98660Y345483D01*
Y341242D01*
X95480D01*
Y328793D01*
X96144D01*
X96563Y327885D01*
X96372Y327662D01*
X96188Y327360D01*
X96052Y327033D01*
X95969Y326689D01*
X95945Y326386D01*
X94927D01*
Y319449D01*
X95913D01*
X96052Y319310D01*
X96052Y319310D01*
D01*
X96188Y318983D01*
X96372Y318681D01*
X96602Y318411D01*
X96602Y318411D01*
X96602Y318411D01*
X96840Y318173D01*
Y318173D01*
X96558Y317231D01*
X96558D01*
D01*
Y317231D01*
D01*
X96225Y317093D01*
X95918Y316905D01*
X95644Y316671D01*
X95411Y316398D01*
X95223Y316090D01*
X95085Y315758D01*
X95001Y315408D01*
X94972Y315049D01*
Y311733D01*
X91657D01*
X91298Y311705D01*
X90948Y311621D01*
X90615Y311483D01*
X90308Y311295D01*
X90034Y311061D01*
X89800Y310787D01*
X89612Y310480D01*
X89474Y310148D01*
X89390Y309798D01*
X89362Y309439D01*
Y307864D01*
X89390Y307505D01*
X89474Y307155D01*
X89612Y306822D01*
X89800Y306515D01*
X89827Y306484D01*
X89644Y306186D01*
X89488Y305810D01*
X89393Y305415D01*
X89361Y305010D01*
X89393Y304604D01*
X89488Y304209D01*
X89644Y303833D01*
X89856Y303487D01*
X89900Y303435D01*
X89856Y303383D01*
X89644Y303036D01*
X89488Y302660D01*
X89393Y302265D01*
X89361Y301860D01*
X89393Y301455D01*
X89488Y301059D01*
X89644Y300684D01*
X89856Y300337D01*
X89900Y300285D01*
X89856Y300233D01*
X89644Y299886D01*
X89488Y299511D01*
X89393Y299115D01*
X89361Y298710D01*
X89393Y298305D01*
X89488Y297910D01*
X89644Y297534D01*
X89856Y297187D01*
X89900Y297135D01*
X89856Y297083D01*
X89644Y296737D01*
X89488Y296361D01*
X89039Y296156D01*
X88739Y296461D01*
Y296461D01*
X87632D01*
Y298110D01*
X82908D01*
Y296461D01*
X81802D01*
Y289917D01*
X86832D01*
X86959Y289611D01*
X87144Y289309D01*
X87374Y289039D01*
X87374Y289039D01*
X87374Y289039D01*
X88748Y287666D01*
X89017Y287436D01*
X89319Y287250D01*
X89647Y287115D01*
X89991Y287032D01*
X90344Y287004D01*
X90692D01*
X90776Y286953D01*
X91151Y286798D01*
X91547Y286703D01*
X91952Y286671D01*
X94905D01*
X95310Y286703D01*
X95705Y286798D01*
X96081Y286953D01*
X96428Y287165D01*
X96737Y287430D01*
X97001Y287739D01*
X97213Y288085D01*
X97369Y288461D01*
X97464Y288856D01*
X97495Y289261D01*
X97464Y289667D01*
X97369Y290062D01*
X97213Y290438D01*
X97001Y290784D01*
X96737Y291093D01*
X96428Y291357D01*
X96081Y291570D01*
X95705Y291725D01*
X95310Y291820D01*
X94905Y291852D01*
X92119D01*
X91855Y292490D01*
X91802Y292842D01*
X91932Y292971D01*
X91952Y292970D01*
X94905D01*
X95310Y293002D01*
X95705Y293097D01*
X96081Y293252D01*
X96428Y293465D01*
X96515Y293539D01*
X96556Y293505D01*
X96556Y293505D01*
X96820Y293329D01*
X96820Y293329D01*
X97081Y293189D01*
X97364Y293104D01*
X97364D01*
X97364Y293104D01*
X97364D01*
X97676Y293041D01*
X97970Y293012D01*
X97970D01*
D01*
X98126Y293028D01*
X102580Y293018D01*
X102614Y292970D01*
X102889Y292061D01*
X102812Y292010D01*
X102583Y291822D01*
X102396Y291594D01*
X102175Y291263D01*
X102175Y291263D01*
X102133Y291184D01*
X102036Y291002D01*
X101950Y290720D01*
Y290720D01*
X101872Y290330D01*
X101872Y290326D01*
X101871Y290322D01*
X101857Y290179D01*
X101843Y290035D01*
X101844Y290032D01*
X101843Y290028D01*
X101862Y286206D01*
X101845Y286035D01*
X101874Y285741D01*
X101944Y285390D01*
Y285390D01*
X101996Y285219D01*
X102030Y285107D01*
X102030Y285107D01*
D01*
X102048Y285074D01*
X102169Y284847D01*
X102169Y284847D01*
X102368Y284549D01*
X102368Y284549D01*
X102555Y284321D01*
X102555Y284321D01*
X102555D01*
X102555Y283676D01*
X102537Y283646D01*
X102382Y283271D01*
X102287Y282875D01*
X102255Y282470D01*
Y279517D01*
X102287Y279112D01*
X102382Y278717D01*
X102537Y278341D01*
X102589Y278257D01*
Y277946D01*
X102421Y277778D01*
X102191Y277508D01*
X102006Y277206D01*
X101870Y276879D01*
X101787Y276535D01*
X101777Y276404D01*
X100745D01*
Y275298D01*
X99095D01*
Y270573D01*
X100745D01*
Y269467D01*
X105043D01*
Y268635D01*
X105044Y268632D01*
X105043Y268628D01*
X105053Y266526D01*
X105045Y264636D01*
X105045Y264635D01*
X105045Y264635D01*
X105045Y264624D01*
X105045Y264621D01*
X105045Y264618D01*
X105059Y264475D01*
X105073Y264330D01*
X105074Y264327D01*
X105074Y264324D01*
X105144Y263973D01*
Y263973D01*
X105196Y263801D01*
X105230Y263690D01*
X105230Y263690D01*
D01*
X105248Y263656D01*
X105369Y263429D01*
X105369Y263429D01*
X105568Y263132D01*
X105568Y263132D01*
X105755Y262903D01*
X105755D01*
Y262903D01*
X105805Y262862D01*
X105984Y262716D01*
X106281Y262517D01*
X106281Y262517D01*
X106508Y262396D01*
X106542Y262378D01*
D01*
X106542Y262378D01*
X106653Y262344D01*
X106825Y262292D01*
X106825D01*
X107176Y262222D01*
X107470Y262193D01*
X107641Y262210D01*
X111664Y262193D01*
X111667Y262193D01*
X111670Y262193D01*
X111813Y262207D01*
X111958Y262220D01*
X111961Y262221D01*
X111964Y262222D01*
X112322Y262293D01*
X112322D01*
X112605Y262379D01*
D01*
X112605Y262379D01*
X112762Y262463D01*
X112865Y262518D01*
X112865Y262518D01*
D01*
D01*
X113169Y262721D01*
X113169Y262721D01*
X113169Y262721D01*
X113285Y262816D01*
X113397Y262908D01*
X113398Y262908D01*
X113398Y262908D01*
X113490Y263020D01*
X113585Y263136D01*
X113585Y263137D01*
X113585Y263137D01*
X113788Y263440D01*
D01*
D01*
X113788Y263440D01*
X113906Y263662D01*
X113927Y263701D01*
D01*
X113927Y263701D01*
X114013Y263983D01*
X114013Y263983D01*
X114084Y264341D01*
X114113Y264635D01*
D01*
Y264635D01*
X114095Y264822D01*
X114087Y268538D01*
X114097Y268635D01*
X114089Y268720D01*
X114100Y269467D01*
X118395D01*
Y270573D01*
X120045D01*
Y275298D01*
X118395D01*
Y276404D01*
X117363D01*
X117353Y276535D01*
X117270Y276879D01*
X117135Y277206D01*
X116949Y277508D01*
X116719Y277778D01*
X116551Y277946D01*
Y278257D01*
X116603Y278341D01*
X116758Y278717D01*
X116853Y279112D01*
X116885Y279517D01*
Y282470D01*
X116853Y282875D01*
X116758Y283271D01*
X116603Y283646D01*
X116390Y283993D01*
X116126Y284302D01*
X115817Y284566D01*
X115471Y284778D01*
X115095Y284934D01*
X114700Y285029D01*
X114295Y285061D01*
X113889Y285029D01*
X113494Y284934D01*
X113118Y284778D01*
X112772Y284566D01*
X112720Y284522D01*
X112668Y284566D01*
X112321Y284778D01*
X111945Y284934D01*
X111550Y285029D01*
X111515Y285032D01*
X110872Y285797D01*
X110881Y285892D01*
X110895Y286035D01*
X110895Y286039D01*
X110895Y286042D01*
X110878Y289845D01*
X110897Y290035D01*
X110868Y290330D01*
X110790Y290720D01*
X110705Y291002D01*
X110565Y291263D01*
X110565Y291263D01*
X110344Y291594D01*
X110157Y291822D01*
X110076Y292709D01*
X110076Y292709D01*
X110369Y293002D01*
X110369D01*
Y293002D01*
X112682Y292997D01*
Y292997D01*
X112682D01*
X112838Y292840D01*
X113386Y292286D01*
Y292286D01*
X113365Y289839D01*
X113362Y289829D01*
X113333Y289535D01*
Y289535D01*
D01*
X113362Y289241D01*
X113479Y288656D01*
X113565Y288373D01*
X113704Y288113D01*
X114035Y287617D01*
X114223Y287388D01*
X114223D01*
Y287388D01*
X114451Y287201D01*
X114947Y286869D01*
X115208Y286730D01*
X115491Y286644D01*
X116076Y286528D01*
X116081Y286527D01*
X116087Y286526D01*
X116228Y286513D01*
X116370Y286499D01*
X116376Y286499D01*
X116381Y286499D01*
X120192Y286526D01*
X120470Y286499D01*
D01*
X120470D01*
X120764Y286528D01*
X120873Y286549D01*
X121646Y285915D01*
Y284832D01*
X121674Y284473D01*
X121758Y284123D01*
X121896Y283791D01*
X122084Y283484D01*
X122318Y283210D01*
X122591Y282976D01*
X122898Y282788D01*
X123231Y282650D01*
X123581Y282566D01*
X123878Y282543D01*
X123991Y281971D01*
Y281971D01*
X124018Y281885D01*
X124077Y281688D01*
X124142Y281567D01*
X124216Y281428D01*
X124596Y280860D01*
X124750Y280672D01*
X124784Y280631D01*
X124784D01*
Y280631D01*
X125012Y280444D01*
X125580Y280064D01*
X125719Y279990D01*
X125841Y279925D01*
X126038Y279865D01*
X126123Y279839D01*
X126123D01*
X126794Y279706D01*
X127088Y279677D01*
X127382Y279706D01*
X127394Y279710D01*
X133766Y279693D01*
X133768Y279693D01*
X133770Y279693D01*
X133915Y279707D01*
X134060Y279721D01*
X134062Y279721D01*
X134064Y279721D01*
X134423Y279793D01*
X134423D01*
X134555Y279833D01*
X134706Y279879D01*
X134933Y280000D01*
X134966Y280018D01*
X135270Y280221D01*
X135271Y280221D01*
X135499Y280409D01*
Y280409D01*
X135499D01*
X135686Y280637D01*
X135686Y280637D01*
X135889Y280941D01*
X135890Y280941D01*
X136019Y281184D01*
X136029Y281202D01*
D01*
X136029Y281202D01*
X136063Y281313D01*
X136115Y281485D01*
Y281485D01*
X136186Y281843D01*
X136186Y281843D01*
X136215Y282137D01*
X136198Y282312D01*
X136216Y286128D01*
X136216Y286132D01*
X136216Y286135D01*
X136202Y286279D01*
X136189Y286422D01*
X136188Y286426D01*
X136188Y286430D01*
X136110Y286820D01*
X136024Y287102D01*
X135885Y287363D01*
X135885Y287363D01*
X135664Y287694D01*
X135476Y287922D01*
X135248Y288110D01*
X134917Y288331D01*
X134917Y288331D01*
X134838Y288373D01*
X134657Y288470D01*
X134374Y288556D01*
X134374D01*
X133678Y288784D01*
D01*
X133797Y290070D01*
X134366Y290639D01*
X134490Y290785D01*
X134596Y290909D01*
X134781Y291211D01*
X134917Y291538D01*
X134999Y291882D01*
X135027Y292235D01*
Y293267D01*
X138395D01*
Y293198D01*
X138395D01*
Y288473D01*
X140045D01*
Y287367D01*
X141860D01*
X142081Y287249D01*
X142364Y287163D01*
X143076Y287021D01*
X143370Y286992D01*
X143370D01*
D01*
X143664Y287021D01*
X143682Y287027D01*
X151164Y286995D01*
X151167Y286996D01*
X151170Y286995D01*
X151314Y287009D01*
X151458Y287023D01*
X151461Y287024D01*
X151464Y287024D01*
X152121Y287155D01*
X152403Y287241D01*
X152664Y287380D01*
X153221Y287752D01*
X153449Y287939D01*
Y287939D01*
X153449D01*
X153637Y288168D01*
X154008Y288724D01*
X154148Y288985D01*
X154233Y289267D01*
Y289267D01*
X154364Y289924D01*
X154393Y290218D01*
D01*
Y290218D01*
X154364Y290512D01*
X154361Y290522D01*
X154363Y291027D01*
X154366Y291041D01*
X154366Y291045D01*
X154367Y291048D01*
X154381Y291192D01*
X154395Y291335D01*
X154395Y291339D01*
X154395Y291342D01*
X154378Y295114D01*
X154378Y295148D01*
X154397Y295335D01*
X154368Y295630D01*
X154290Y296020D01*
X154205Y296302D01*
X154065Y296563D01*
X154065Y296563D01*
X154064Y296564D01*
X154049Y296593D01*
X154049Y296593D01*
X153832Y296918D01*
X153832Y296918D01*
D01*
X153644Y297147D01*
X153505Y297261D01*
X153416Y297334D01*
X153416Y297334D01*
X153416Y297334D01*
X153091Y297551D01*
X152848Y297681D01*
X152830Y297691D01*
D01*
X152830Y297691D01*
X152719Y297724D01*
X152548Y297776D01*
X152164Y297853D01*
X151870Y297882D01*
X151870D01*
D01*
X151665Y297861D01*
X150071Y297853D01*
X149967Y298376D01*
X149967Y298376D01*
X149967D01*
X149881Y298658D01*
X149778Y298852D01*
X149742Y298919D01*
X149742Y298919D01*
X149433Y299382D01*
X149433Y299382D01*
X149433Y299382D01*
X149337Y299498D01*
X149245Y299611D01*
X149245Y299611D01*
X149245Y299611D01*
X149040Y299779D01*
X149017Y299798D01*
D01*
X149017Y299798D01*
X148554Y300107D01*
D01*
D01*
X148554Y300108D01*
X148434Y300171D01*
X148287Y301161D01*
X151366Y304240D01*
X151596Y304509D01*
X151781Y304811D01*
X151917Y305138D01*
X151999Y305482D01*
X152027Y305835D01*
Y310355D01*
X152228Y310683D01*
X152394Y311083D01*
X152495Y311504D01*
X152529Y311935D01*
X152495Y312367D01*
X152394Y312788D01*
X152228Y313188D01*
X152002Y313557D01*
X151721Y313886D01*
X151366Y314840D01*
X151596Y315109D01*
X151781Y315411D01*
X151917Y315738D01*
X151999Y316082D01*
X152027Y316435D01*
Y318255D01*
X152228Y318583D01*
X152394Y318983D01*
X152495Y319404D01*
X152529Y319835D01*
X152495Y320267D01*
X152394Y320688D01*
X152228Y321088D01*
X152002Y321457D01*
X151721Y321786D01*
X151391Y322067D01*
X151343Y322097D01*
X151177Y323083D01*
X151205Y323117D01*
X151536Y323613D01*
X151676Y323873D01*
X151761Y324156D01*
X151878Y324741D01*
X151907Y325035D01*
D01*
Y325035D01*
X151878Y325329D01*
X151895Y335433D01*
X151895Y335434D01*
X151895Y335435D01*
X151881Y335580D01*
X151866Y335727D01*
X151866Y335728D01*
X151866Y335730D01*
X151796Y336081D01*
Y336081D01*
X151744Y336252D01*
X151710Y336363D01*
X151710Y336363D01*
D01*
X151692Y336397D01*
X151571Y336624D01*
X151571Y336624D01*
X151372Y336922D01*
X151372Y336922D01*
X151185Y337150D01*
X151185D01*
Y337150D01*
X151135Y337191D01*
X150956Y337337D01*
X150659Y337536D01*
X150659Y337537D01*
X150432Y337658D01*
X150398Y337676D01*
D01*
X150398Y337676D01*
X150287Y337709D01*
X150115Y337761D01*
X150115D01*
X149764Y337831D01*
X149470Y337860D01*
X149300Y337843D01*
X144977Y337864D01*
X144974Y337864D01*
X144970Y337864D01*
X144826Y337850D01*
X144683Y337837D01*
X144680Y337836D01*
X144676Y337835D01*
X144247Y337750D01*
X144247D01*
X143964Y337664D01*
X143703Y337525D01*
X143340Y337282D01*
X143340Y337282D01*
X143161Y337135D01*
X143111Y337094D01*
Y337094D01*
X143111D01*
X142924Y336866D01*
X142681Y336502D01*
X142541Y336241D01*
X142456Y335959D01*
Y335959D01*
X142385Y335604D01*
X140045D01*
Y334498D01*
X138395D01*
Y329773D01*
D01*
Y329773D01*
X138326Y329704D01*
X133352D01*
Y329704D01*
X133197Y329549D01*
X128657Y329570D01*
X128654Y329570D01*
X128650Y329570D01*
X128507Y329556D01*
X128363Y329542D01*
X128360Y329541D01*
X128356Y329541D01*
X127810Y329433D01*
X127810D01*
X127527Y329347D01*
X127334Y329243D01*
X127267Y329207D01*
X127267Y329207D01*
X126804Y328898D01*
X126804Y328898D01*
X126804Y328898D01*
X126688Y328803D01*
X126575Y328711D01*
X126575Y328711D01*
X126575Y328711D01*
X126407Y328506D01*
X126388Y328482D01*
D01*
X126388Y328482D01*
X126078Y328019D01*
D01*
D01*
X126078Y328019D01*
X125939Y327759D01*
X125853Y327476D01*
Y327476D01*
X125745Y326929D01*
X125716Y326635D01*
D01*
Y326635D01*
X125742Y326369D01*
X125725Y322644D01*
X125725Y322641D01*
X125725Y322637D01*
X125739Y322493D01*
X125753Y322350D01*
X125754Y322347D01*
X125754Y322343D01*
X125770Y322265D01*
X125444Y321869D01*
X124204Y321492D01*
X122663D01*
Y326386D01*
X121643D01*
X121621Y326667D01*
X121538Y327012D01*
X121402Y327339D01*
X121217Y327641D01*
X121009Y327885D01*
X121428Y328793D01*
X122102D01*
Y341242D01*
X118922D01*
Y345540D01*
X118895Y345893D01*
X118812Y346238D01*
X118676Y346565D01*
X118491Y346867D01*
X118261Y347136D01*
X116907Y348490D01*
X117223Y349252D01*
X117385Y349414D01*
X167323Y349417D01*
X167875Y349386D01*
D02*
G37*
G36*
X111145Y280994D02*
X111870D01*
Y271242D01*
X111837D01*
X111969Y270577D01*
X112346Y270012D01*
X112380Y270045D01*
X112538Y269808D01*
X112594Y269529D01*
X112581Y268681D01*
X112590Y268635D01*
X112580D01*
X112588Y264635D01*
X112606D01*
X112534Y264277D01*
X112332Y263974D01*
X112028Y263771D01*
X111670Y263700D01*
X107470Y263718D01*
Y263700D01*
X107119Y263770D01*
X106821Y263969D01*
X106622Y264267D01*
X106552Y264618D01*
X106553Y264635D01*
X106552Y264635D01*
X106553D01*
X106561Y266526D01*
X106551Y268635D01*
Y271384D01*
X106522D01*
X106635Y272535D01*
X106971Y273642D01*
X107516Y274661D01*
X108250Y275555D01*
X109151Y276416D01*
X109170Y276397D01*
X109673Y277053D01*
X109989Y277816D01*
X110097Y278635D01*
X110070Y281235D01*
X111145Y280994D01*
D02*
G37*
G36*
X129647Y287150D02*
X129670Y287155D01*
Y287150D01*
X131399Y287144D01*
X133670Y287155D01*
X133690Y287151D01*
Y287155D01*
X134080Y287077D01*
X134411Y286856D01*
X134632Y286526D01*
X134709Y286135D01*
X134690Y282137D01*
X134708D01*
X134636Y281779D01*
X134433Y281474D01*
X134129Y281271D01*
X133770Y281200D01*
X127088Y281218D01*
Y281184D01*
X126418Y281317D01*
X125849Y281697D01*
X125470Y282265D01*
X125336Y282935D01*
X125370Y283035D01*
X125390D01*
X125312Y283426D01*
X125091Y283756D01*
X124760Y283977D01*
X124370Y284055D01*
Y286735D01*
X124337D01*
X124464Y287042D01*
X124770Y287168D01*
X129647Y287150D01*
D02*
G37*
G36*
X147170Y298935D02*
Y298963D01*
X147716Y298854D01*
X148179Y298545D01*
X148489Y298082D01*
X148598Y297535D01*
X148547D01*
X148639Y297071D01*
X148902Y296677D01*
X149296Y296414D01*
X149648Y296344D01*
X149870Y296345D01*
X149870Y296345D01*
X151870Y296355D01*
Y296374D01*
X152253Y296298D01*
X152579Y296081D01*
X152796Y295756D01*
X152797Y295748D01*
X152812Y295726D01*
X152890Y295335D01*
X152872D01*
X152871Y295113D01*
X152888Y291335D01*
X152856Y291178D01*
X152853Y290218D01*
X152886D01*
X152755Y289562D01*
X152383Y289005D01*
X151827Y288633D01*
X151170Y288503D01*
X143370Y288535D01*
Y288500D01*
X142658Y288641D01*
X142054Y289045D01*
X141651Y289649D01*
X141509Y290361D01*
X141545Y296735D01*
X141502D01*
X141673Y297594D01*
X142159Y298322D01*
X142886Y298808D01*
X143745Y298978D01*
X147170Y298935D01*
D02*
G37*
G36*
X135329Y327936D02*
X135894Y327559D01*
X135870Y318535D01*
X134370D01*
Y318506D01*
X133785Y318622D01*
X133289Y318954D01*
X132957Y319450D01*
X132841Y320035D01*
X132903D01*
X132773Y320692D01*
X132401Y321248D01*
X131844Y321620D01*
X131288Y321731D01*
X128170Y321718D01*
Y321700D01*
X127811Y321771D01*
X127507Y321974D01*
X127304Y322279D01*
X127233Y322637D01*
X127251Y326635D01*
X127223D01*
X127332Y327182D01*
X127641Y327645D01*
X128104Y327954D01*
X128650Y328063D01*
X134663Y328035D01*
Y328069D01*
X135329Y327936D01*
D02*
G37*
G36*
X114408Y341242D02*
X111228D01*
Y328793D01*
X114069D01*
X114519Y328343D01*
X114519Y328343D01*
D01*
X114654Y328015D01*
X114839Y327714D01*
X115069Y327444D01*
X115069Y327444D01*
X115069Y327444D01*
X116122Y326392D01*
X116120Y326386D01*
X116120D01*
X116120Y326386D01*
Y325279D01*
X114470D01*
Y321092D01*
X113770D01*
X113417Y321065D01*
X113073Y320982D01*
X112745Y320846D01*
X112443Y320661D01*
X112174Y320431D01*
X109743Y318000D01*
X109591Y318006D01*
X107166Y320431D01*
X106897Y320661D01*
X106595Y320846D01*
X106267Y320982D01*
X105923Y321065D01*
X105570Y321092D01*
X103120D01*
Y325279D01*
X101470D01*
Y326386D01*
X101470Y326386D01*
X101470D01*
X101462Y326407D01*
X102513Y327458D01*
X102743Y327728D01*
X102928Y328030D01*
X103064Y328357D01*
X103147Y328701D01*
X103154Y328793D01*
X106354D01*
Y341242D01*
X103174D01*
Y343649D01*
X108770D01*
Y343649D01*
X108770D01*
X108770Y343649D01*
X108920D01*
Y343649D01*
X114408D01*
Y341242D01*
D02*
G37*
G36*
X149470Y336335D02*
Y336353D01*
X149821Y336283D01*
X150119Y336084D01*
X150318Y335787D01*
X150388Y335435D01*
X150370Y325035D01*
X150399D01*
X150283Y324450D01*
X149952Y323954D01*
X149455Y323622D01*
X148870Y323506D01*
X145270Y323535D01*
Y323508D01*
X144724Y323617D01*
X144261Y323926D01*
X143951Y324389D01*
X143843Y324935D01*
X143870Y335235D01*
X143849D01*
X143934Y335665D01*
X144177Y336029D01*
X144541Y336272D01*
X144970Y336357D01*
X149470Y336335D01*
D02*
G37*
G36*
X143400Y322692D02*
X143423Y322673D01*
D01*
X143423Y322673D01*
X143886Y322363D01*
D01*
D01*
X143886Y322363D01*
X144147Y322224D01*
X144430Y322138D01*
X144430D01*
X144976Y322030D01*
X145270Y322001D01*
X145270D01*
D01*
X145527Y322026D01*
X146860Y322015D01*
X147345Y321141D01*
X147312Y321088D01*
X147147Y320688D01*
X147046Y320267D01*
X147012Y319835D01*
X147046Y319404D01*
X147147Y318983D01*
X147312Y318583D01*
X147513Y318255D01*
Y317370D01*
X145374Y315231D01*
X145144Y314962D01*
X144959Y314660D01*
X144824Y314333D01*
X144741Y313988D01*
X144713Y313635D01*
Y312004D01*
X141545D01*
Y312073D01*
X141545D01*
Y316798D01*
X139895D01*
Y317904D01*
D01*
D01*
X139965Y317973D01*
X141545D01*
Y322698D01*
D01*
Y322698D01*
X141614Y322767D01*
X143309D01*
X143400Y322692D01*
D02*
G37*
%LPC*%
G36*
X136670Y346594D02*
X136239Y346560D01*
X135818Y346459D01*
X135418Y346293D01*
X135049Y346067D01*
X134720Y345786D01*
X134438Y345457D01*
X134212Y345088D01*
X134047Y344688D01*
X133946Y344267D01*
X133912Y343835D01*
X133946Y343404D01*
X133946D01*
X133352Y343104D01*
X133352D01*
Y336167D01*
X139895D01*
Y337273D01*
X141545D01*
Y341998D01*
X139895D01*
Y343104D01*
X139895D01*
X139395Y343404D01*
X139395Y343404D01*
X139429Y343835D01*
X139395Y344267D01*
X139294Y344688D01*
X139128Y345088D01*
X138902Y345457D01*
X138621Y345786D01*
X138292Y346067D01*
X137922Y346293D01*
X137522Y346459D01*
X137102Y346560D01*
X136670Y346594D01*
D02*
G37*
G36*
X67270Y339098D02*
X66688Y339059D01*
X66115Y338946D01*
X65562Y338758D01*
X65039Y338500D01*
X64554Y338176D01*
X64115Y337791D01*
X63730Y337352D01*
X63406Y336867D01*
X63147Y336343D01*
X62960Y335790D01*
X62846Y335218D01*
X62808Y334635D01*
X62846Y334053D01*
X62960Y333481D01*
X63147Y332928D01*
X63406Y332404D01*
X63730Y331919D01*
X63802Y331837D01*
X63802Y330854D01*
X63802D01*
Y324310D01*
X63802Y324310D01*
X63802Y324161D01*
X63802D01*
Y323736D01*
X62839Y323464D01*
X62705Y323684D01*
X62398Y324043D01*
X56939Y329502D01*
Y330854D01*
X56939Y330854D01*
X56939D01*
X56918Y330911D01*
X57078Y331048D01*
X57382Y331404D01*
X57627Y331804D01*
X57806Y332237D01*
X57916Y332692D01*
X57952Y333159D01*
Y336112D01*
X57916Y336579D01*
X57806Y337034D01*
X57627Y337467D01*
X57382Y337867D01*
X57078Y338223D01*
X56722Y338527D01*
X56322Y338772D01*
X55889Y338951D01*
X55434Y339061D01*
X54967Y339097D01*
X52014D01*
X51547Y339061D01*
X51092Y338951D01*
X50659Y338772D01*
X50259Y338527D01*
X49903Y338223D01*
X49599Y337867D01*
X49354Y337467D01*
X49175Y337034D01*
X49065Y336579D01*
X49029Y336112D01*
Y333159D01*
X49065Y332692D01*
X49175Y332237D01*
X49354Y331804D01*
X49599Y331404D01*
X49903Y331048D01*
X50033Y330937D01*
X50002Y330854D01*
X50002D01*
X50002Y330854D01*
Y324310D01*
X51108D01*
Y322661D01*
X55269D01*
X57261Y320669D01*
Y310761D01*
X56939D01*
Y310761D01*
X55832D01*
Y312410D01*
X51108D01*
Y310761D01*
X50002D01*
Y304217D01*
X50002Y304217D01*
X50002D01*
X50033Y304134D01*
X49903Y304023D01*
X49599Y303667D01*
X49354Y303267D01*
X49175Y302834D01*
X49065Y302379D01*
X49029Y301912D01*
Y298959D01*
X49065Y298492D01*
X49175Y298037D01*
X49354Y297604D01*
X49599Y297204D01*
X49903Y296848D01*
X50259Y296544D01*
X50461Y296420D01*
Y277882D01*
X49157Y276578D01*
X48851Y276219D01*
X48604Y275817D01*
X48551Y275689D01*
X48423Y275380D01*
X48313Y274921D01*
X48276Y274450D01*
Y253335D01*
X47850Y253033D01*
X47390Y252621D01*
X46978Y252161D01*
X46621Y251657D01*
X46322Y251116D01*
X46086Y250545D01*
X45915Y249952D01*
X45811Y249343D01*
X45776Y248726D01*
Y244915D01*
X45811Y244298D01*
X45915Y243689D01*
X46086Y243096D01*
X46322Y242525D01*
X46621Y241984D01*
X46978Y241480D01*
X47390Y241020D01*
X47850Y240608D01*
X48354Y240251D01*
X48895Y239952D01*
X49466Y239715D01*
X50059Y239544D01*
X50668Y239441D01*
X51285Y239406D01*
X51902Y239441D01*
X52511Y239544D01*
X53104Y239715D01*
X53675Y239952D01*
X54216Y240251D01*
X54720Y240608D01*
X55180Y241020D01*
X55592Y241480D01*
X55706Y241642D01*
X56706D01*
X56821Y241480D01*
X57232Y241020D01*
X57693Y240608D01*
X58197Y240251D01*
X58737Y239952D01*
X59308Y239715D01*
X59902Y239544D01*
X60511Y239441D01*
X61128Y239406D01*
X61744Y239441D01*
X62353Y239544D01*
X62947Y239715D01*
X63518Y239952D01*
X64058Y240251D01*
X64562Y240608D01*
X65023Y241020D01*
X65434Y241480D01*
X65792Y241984D01*
X66091Y242525D01*
X66327Y243096D01*
X66498Y243689D01*
X66602Y244298D01*
X66636Y244915D01*
Y248726D01*
X66602Y249343D01*
X66498Y249952D01*
X66327Y250545D01*
X66091Y251116D01*
X65792Y251657D01*
X65434Y252161D01*
X65023Y252621D01*
X64562Y253033D01*
X64058Y253390D01*
X63518Y253689D01*
X62947Y253925D01*
X62353Y254097D01*
X61744Y254200D01*
X61128Y254235D01*
X60511Y254200D01*
X59902Y254097D01*
X59308Y253925D01*
X58737Y253689D01*
X58197Y253390D01*
X57693Y253033D01*
X57232Y252621D01*
X56821Y252161D01*
X56706Y251999D01*
X55706D01*
X55592Y252161D01*
X55180Y252621D01*
X54720Y253033D01*
X54294Y253335D01*
Y273204D01*
X55598Y274507D01*
X55905Y274867D01*
X56151Y275269D01*
X56226Y275450D01*
X56332Y275706D01*
X56382Y275914D01*
X57382D01*
X57408Y275805D01*
X57536Y275497D01*
X57589Y275369D01*
X57836Y274967D01*
X58142Y274607D01*
X68042Y264707D01*
X68401Y264401D01*
X68804Y264154D01*
X68985Y264079D01*
X69240Y263973D01*
X69699Y263863D01*
X70170Y263826D01*
X80124D01*
X87646Y256304D01*
Y253335D01*
X87221Y253033D01*
X86760Y252621D01*
X86348Y252161D01*
X86234Y251999D01*
X85234D01*
X85119Y252161D01*
X84708Y252621D01*
X84247Y253033D01*
X83743Y253390D01*
X83203Y253689D01*
X82632Y253925D01*
X82038Y254097D01*
X81429Y254200D01*
X80813Y254235D01*
X80196Y254200D01*
X79587Y254097D01*
X78993Y253925D01*
X78422Y253689D01*
X77882Y253390D01*
X77378Y253033D01*
X76917Y252621D01*
X76506Y252161D01*
X76148Y251657D01*
X75849Y251116D01*
X75613Y250545D01*
X75442Y249952D01*
X75339Y249343D01*
X75304Y248726D01*
Y244915D01*
X75339Y244298D01*
X75442Y243689D01*
X75613Y243096D01*
X75849Y242525D01*
X76148Y241984D01*
X76506Y241480D01*
X76917Y241020D01*
X77378Y240608D01*
X77882Y240251D01*
X78422Y239952D01*
X78993Y239715D01*
X79587Y239544D01*
X80196Y239441D01*
X80813Y239406D01*
X81429Y239441D01*
X82038Y239544D01*
X82632Y239715D01*
X83203Y239952D01*
X83743Y240251D01*
X84247Y240608D01*
X84708Y241020D01*
X85119Y241480D01*
X85234Y241642D01*
X86234D01*
X86348Y241480D01*
X86760Y241020D01*
X87221Y240608D01*
X87724Y240251D01*
X88265Y239952D01*
X88836Y239715D01*
X89429Y239544D01*
X90038Y239441D01*
X90655Y239406D01*
X91272Y239441D01*
X91881Y239544D01*
X92475Y239715D01*
X93045Y239952D01*
X93586Y240251D01*
X94090Y240608D01*
X94550Y241020D01*
X94962Y241480D01*
X95319Y241984D01*
X95618Y242525D01*
X95855Y243096D01*
X96026Y243689D01*
X96129Y244298D01*
X96164Y244915D01*
Y248726D01*
X96129Y249343D01*
X96026Y249952D01*
X95855Y250545D01*
X95618Y251116D01*
X95319Y251657D01*
X94962Y252161D01*
X94550Y252621D01*
X94090Y253033D01*
X93664Y253335D01*
Y257550D01*
X93627Y258021D01*
X93517Y258480D01*
X93389Y258789D01*
X93336Y258917D01*
X93090Y259319D01*
X92783Y259678D01*
X83498Y268963D01*
X83139Y269270D01*
X82736Y269517D01*
X82608Y269570D01*
X82300Y269697D01*
X81841Y269808D01*
X81370Y269845D01*
X71417D01*
X63279Y277982D01*
Y296548D01*
X63878Y297072D01*
X64190Y297214D01*
X64554Y296895D01*
X65039Y296571D01*
X65562Y296313D01*
X66115Y296125D01*
X66688Y296011D01*
X67270Y295973D01*
X67852Y296011D01*
X68425Y296125D01*
X68978Y296313D01*
X69501Y296571D01*
X69987Y296895D01*
X70425Y297280D01*
X70810Y297719D01*
X71135Y298204D01*
X71393Y298728D01*
X71580Y299281D01*
X71694Y299853D01*
X71732Y300435D01*
X71694Y301018D01*
X71580Y301590D01*
X71393Y302143D01*
X71135Y302667D01*
X70810Y303152D01*
X70739Y303234D01*
X70739Y304217D01*
X70739D01*
Y305232D01*
X72352D01*
Y304667D01*
X78895D01*
Y305773D01*
X80545D01*
Y310498D01*
X78895D01*
Y310567D01*
Y311673D01*
X80545D01*
Y316398D01*
X79602D01*
X78895Y317105D01*
Y317504D01*
Y317535D01*
Y317567D01*
Y317966D01*
X79602Y318673D01*
X80545D01*
Y323398D01*
X78895D01*
Y323467D01*
Y324573D01*
X80545D01*
Y329298D01*
X78895D01*
Y330404D01*
X72352D01*
Y329692D01*
X70739D01*
Y330854D01*
X70739D01*
X70739Y331837D01*
X70810Y331919D01*
X71135Y332404D01*
X71393Y332928D01*
X71580Y333481D01*
X71694Y334053D01*
X71732Y334635D01*
X71694Y335218D01*
X71580Y335790D01*
X71393Y336343D01*
X71135Y336867D01*
X70810Y337352D01*
X70425Y337791D01*
X69987Y338176D01*
X69501Y338500D01*
X68978Y338758D01*
X68425Y338946D01*
X67852Y339059D01*
X67270Y339098D01*
D02*
G37*
G36*
X98842Y285060D02*
X97267D01*
X96908Y285032D01*
X96558Y284947D01*
X96225Y284810D01*
X95918Y284622D01*
X95644Y284388D01*
X95411Y284114D01*
X95223Y283807D01*
X95085Y283474D01*
X95031Y283251D01*
X89928D01*
X89575Y283223D01*
X89231Y283140D01*
X88904Y283005D01*
X88739Y283161D01*
Y283161D01*
X87632D01*
Y284810D01*
X82908D01*
Y283161D01*
X81802D01*
Y276617D01*
X88739D01*
Y277632D01*
X88824D01*
X89177Y277660D01*
X89521Y277743D01*
X89848Y277878D01*
X89848Y277878D01*
X89848Y277878D01*
X90150Y278063D01*
X90420Y278293D01*
X90420Y278293D01*
X90420Y278293D01*
X90863Y278737D01*
X95031D01*
X95085Y278513D01*
X95223Y278180D01*
X95411Y277873D01*
X95644Y277600D01*
X95918Y277366D01*
X96225Y277178D01*
X96558Y277040D01*
X96908Y276956D01*
X97267Y276928D01*
X98842D01*
X99201Y276956D01*
X99551Y277040D01*
X99883Y277178D01*
X100190Y277366D01*
X100464Y277600D01*
X100698Y277873D01*
X100886Y278180D01*
X101024Y278513D01*
X101108Y278863D01*
X101136Y279222D01*
Y282765D01*
X101108Y283124D01*
X101024Y283474D01*
X100886Y283807D01*
X100698Y284114D01*
X100464Y284388D01*
X100190Y284622D01*
X99883Y284810D01*
X99551Y284947D01*
X99201Y285032D01*
X98842Y285060D01*
D02*
G37*
%LPD*%
G36*
X285926Y290977D02*
X286256Y290756D01*
X286477Y290426D01*
X286555Y290035D01*
X286535D01*
X286553Y286035D01*
X286483Y285684D01*
X286284Y285387D01*
X285987Y285188D01*
X285635Y285118D01*
Y285135D01*
X281435Y285118D01*
X281084Y285188D01*
X280787Y285387D01*
X280588Y285684D01*
X280518Y286035D01*
X280535D01*
X280516Y290035D01*
X280593Y290426D01*
X280815Y290756D01*
X281145Y290977D01*
X281535Y291055D01*
Y291035D01*
X285535Y291055D01*
X285926Y290977D01*
D02*
G37*
G36*
X299042Y309442D02*
X299168Y309135D01*
X299135Y304535D01*
X299155D01*
X299077Y304145D01*
X298856Y303815D01*
X298526Y303593D01*
X298135Y303516D01*
X294535Y303535D01*
Y303555D01*
X294145Y303477D01*
X293814Y303256D01*
X293593Y302926D01*
X293516Y302535D01*
X293535Y298035D01*
X293516D01*
X293593Y297645D01*
X293814Y297315D01*
X294145Y297093D01*
X294535Y297016D01*
X298335Y297035D01*
Y297051D01*
X298648Y296989D01*
X298912Y296812D01*
X299089Y296548D01*
X299151Y296235D01*
X299135Y295135D01*
X299185D01*
X299136Y295018D01*
X299165Y289535D01*
X299048Y288950D01*
X298717Y288454D01*
X298221Y288123D01*
X297635Y288006D01*
Y288035D01*
X293535Y288006D01*
X292950Y288123D01*
X292454Y288454D01*
X292123Y288950D01*
X292006Y289535D01*
X292035D01*
X292065Y293035D01*
X291948Y293621D01*
X291617Y294117D01*
X291121Y294448D01*
X290850Y294502D01*
X275135Y294535D01*
Y294520D01*
X274823Y294582D01*
X274559Y294759D01*
X274382Y295023D01*
X274320Y295335D01*
X274335Y309135D01*
X274303D01*
X274429Y309442D01*
X274735Y309568D01*
X298735Y309535D01*
Y309568D01*
X299042Y309442D01*
D02*
G37*
G36*
X345040Y349386D02*
X345585Y349294D01*
X346116Y349141D01*
X346627Y348929D01*
X347111Y348662D01*
X347561Y348342D01*
X347973Y347973D01*
X348342Y347561D01*
X348524Y347305D01*
X348247Y346344D01*
X346975Y345817D01*
X338929D01*
X338319Y345783D01*
X337717Y345681D01*
X337131Y345512D01*
X336566Y345278D01*
X336032Y344983D01*
X335534Y344629D01*
X335079Y344222D01*
X334672Y343767D01*
X334318Y343269D01*
X334023Y342734D01*
X333789Y342170D01*
X333620Y341583D01*
X333518Y340981D01*
X333484Y340372D01*
X333518Y339762D01*
X333620Y339160D01*
X333789Y338573D01*
X334023Y338009D01*
X334318Y337474D01*
X334672Y336976D01*
X335079Y336521D01*
X335534Y336114D01*
X336032Y335761D01*
X336566Y335465D01*
X337131Y335232D01*
X337717Y335063D01*
X338319Y334960D01*
X338929Y334926D01*
X348772D01*
X349411Y323545D01*
Y323544D01*
X349411D01*
X349412Y312330D01*
X349412D01*
Y312330D01*
X348776Y301006D01*
X348705Y300935D01*
X338929D01*
X338319Y300901D01*
X337717Y300799D01*
X337131Y300630D01*
X336566Y300396D01*
X336032Y300101D01*
X335534Y299747D01*
X335079Y299340D01*
X334672Y298885D01*
X334318Y298387D01*
X334023Y297852D01*
X333789Y297288D01*
X333620Y296702D01*
X333518Y296099D01*
X333484Y295490D01*
X333518Y294880D01*
X333620Y294278D01*
X333789Y293691D01*
X334023Y293127D01*
X334318Y292593D01*
X334672Y292094D01*
X335079Y291639D01*
X335534Y291232D01*
X336032Y290879D01*
X336566Y290583D01*
X337131Y290350D01*
X337717Y290181D01*
X338319Y290078D01*
X338929Y290044D01*
X348772D01*
X349414Y278610D01*
X349417Y226378D01*
X349386Y225826D01*
X349294Y225281D01*
X349141Y224750D01*
X348929Y224239D01*
X348662Y223756D01*
X348342Y223305D01*
X347973Y222893D01*
X347561Y222524D01*
X347111Y222204D01*
X346627Y221937D01*
X346116Y221726D01*
X345585Y221572D01*
X345040Y221480D01*
X344496Y221449D01*
X344488Y221457D01*
Y221457D01*
X226378Y221449D01*
X225826Y221480D01*
X225281Y221572D01*
X224750Y221726D01*
X224239Y221937D01*
X223756Y222204D01*
X223305Y222524D01*
X222893Y222893D01*
X222524Y223305D01*
X222204Y223756D01*
X221937Y224239D01*
X221726Y224750D01*
X221572Y225281D01*
X221480Y225826D01*
X221449Y226370D01*
X221457Y226378D01*
X221457D01*
X221449Y344488D01*
X221480Y345040D01*
X221572Y345585D01*
X221726Y346116D01*
X221937Y346627D01*
X222204Y347111D01*
X222524Y347561D01*
X222893Y347973D01*
X223305Y348342D01*
X223756Y348662D01*
X224239Y348929D01*
X224750Y349141D01*
X225281Y349294D01*
X225826Y349386D01*
X226370Y349417D01*
X226378Y349409D01*
Y349410D01*
X277422Y349413D01*
X277580Y349255D01*
X277897Y348489D01*
X276487Y347078D01*
X276257Y346809D01*
X276072Y346507D01*
X275936Y346180D01*
X275853Y345836D01*
X275826Y345483D01*
Y341242D01*
X272646D01*
Y328793D01*
X273309D01*
X273728Y327885D01*
X273538Y327662D01*
X273353Y327360D01*
X273217Y327033D01*
X273135Y326689D01*
X273111Y326386D01*
X272092D01*
Y319449D01*
X273078D01*
X273217Y319310D01*
X273217Y319310D01*
D01*
X273353Y318983D01*
X273538Y318681D01*
X273768Y318411D01*
X273768Y318411D01*
X273768Y318411D01*
X274006Y318173D01*
Y318173D01*
X273723Y317231D01*
X273723D01*
D01*
Y317231D01*
D01*
X273391Y317093D01*
X273084Y316905D01*
X272810Y316671D01*
X272576Y316398D01*
X272388Y316090D01*
X272250Y315758D01*
X272166Y315408D01*
X272138Y315049D01*
Y311733D01*
X268822D01*
X268463Y311705D01*
X268113Y311621D01*
X267780Y311483D01*
X267473Y311295D01*
X267200Y311061D01*
X266966Y310787D01*
X266778Y310480D01*
X266640Y310148D01*
X266556Y309798D01*
X266528Y309439D01*
Y307864D01*
X266556Y307505D01*
X266640Y307155D01*
X266778Y306822D01*
X266966Y306515D01*
X266992Y306484D01*
X266809Y306186D01*
X266653Y305810D01*
X266559Y305415D01*
X266527Y305010D01*
X266559Y304604D01*
X266653Y304209D01*
X266809Y303833D01*
X267021Y303487D01*
X267066Y303435D01*
X267021Y303383D01*
X266809Y303036D01*
X266653Y302660D01*
X266559Y302265D01*
X266527Y301860D01*
X266559Y301455D01*
X266653Y301059D01*
X266809Y300684D01*
X267021Y300337D01*
X267066Y300285D01*
X267021Y300233D01*
X266809Y299886D01*
X266653Y299511D01*
X266559Y299115D01*
X266527Y298710D01*
X266559Y298305D01*
X266653Y297910D01*
X266809Y297534D01*
X267021Y297187D01*
X267066Y297135D01*
X267021Y297083D01*
X266809Y296737D01*
X266653Y296361D01*
X266205Y296156D01*
X265904Y296461D01*
Y296461D01*
X264798D01*
Y298110D01*
X260073D01*
Y296461D01*
X258967D01*
Y289917D01*
X263998D01*
X264124Y289611D01*
X264310Y289309D01*
X264540Y289039D01*
X264540Y289039D01*
X264540Y289039D01*
X265914Y287666D01*
X266183Y287436D01*
X266485Y287250D01*
X266812Y287115D01*
X267156Y287032D01*
X267509Y287004D01*
X267857D01*
X267941Y286953D01*
X268317Y286798D01*
X268712Y286703D01*
X269117Y286671D01*
X272070D01*
X272475Y286703D01*
X272871Y286798D01*
X273246Y286953D01*
X273593Y287165D01*
X273902Y287430D01*
X274166Y287739D01*
X274378Y288085D01*
X274534Y288461D01*
X274629Y288856D01*
X274661Y289261D01*
X274629Y289667D01*
X274534Y290062D01*
X274378Y290438D01*
X274166Y290784D01*
X273902Y291093D01*
X273593Y291357D01*
X273246Y291570D01*
X272871Y291725D01*
X272475Y291820D01*
X272070Y291852D01*
X269284D01*
X269020Y292490D01*
X268967Y292842D01*
X269097Y292971D01*
X269117Y292970D01*
X272070D01*
X272475Y293002D01*
X272871Y293097D01*
X273246Y293252D01*
X273593Y293465D01*
X273680Y293539D01*
X273721Y293505D01*
X273721Y293505D01*
X273986Y293329D01*
X273986Y293329D01*
X274247Y293189D01*
X274529Y293104D01*
X274529D01*
X274529Y293104D01*
X274529D01*
X274841Y293041D01*
X275135Y293012D01*
D01*
X275135D01*
X275291Y293028D01*
X279745Y293018D01*
X279779Y292970D01*
X280054Y292061D01*
X279977Y292010D01*
X279749Y291822D01*
X279561Y291594D01*
X279340Y291263D01*
X279340Y291263D01*
X279298Y291184D01*
X279201Y291002D01*
X279115Y290720D01*
Y290720D01*
X279037Y290330D01*
X279037Y290326D01*
X279036Y290322D01*
X279023Y290179D01*
X279009Y290035D01*
X279009Y290032D01*
X279009Y290028D01*
X279027Y286206D01*
X279011Y286035D01*
X279040Y285741D01*
X279109Y285390D01*
Y285390D01*
X279161Y285219D01*
X279195Y285107D01*
X279195Y285107D01*
D01*
X279213Y285074D01*
X279334Y284847D01*
X279334Y284847D01*
X279533Y284549D01*
X279533Y284549D01*
X279721Y284321D01*
X279721Y284321D01*
X279721D01*
X279721Y283676D01*
X279703Y283646D01*
X279547Y283271D01*
X279452Y282875D01*
X279420Y282470D01*
Y279517D01*
X279452Y279112D01*
X279547Y278717D01*
X279703Y278341D01*
X279754Y278257D01*
Y277946D01*
X279586Y277778D01*
X279356Y277508D01*
X279171Y277206D01*
X279035Y276879D01*
X278953Y276535D01*
X278942Y276404D01*
X277910D01*
Y275298D01*
X276261D01*
Y270573D01*
X277910D01*
Y269467D01*
X282209D01*
Y268635D01*
X282209Y268632D01*
X282209Y268628D01*
X282219Y266526D01*
X282211Y264636D01*
X282210Y264635D01*
X282211Y264635D01*
X282211Y264624D01*
X282211Y264621D01*
X282210Y264618D01*
X282225Y264475D01*
X282238Y264330D01*
X282239Y264327D01*
X282240Y264324D01*
X282309Y263973D01*
Y263973D01*
X282361Y263801D01*
X282395Y263690D01*
X282395Y263690D01*
D01*
X282413Y263656D01*
X282534Y263429D01*
X282534Y263429D01*
X282733Y263132D01*
X282733Y263132D01*
X282921Y262903D01*
X282921D01*
Y262903D01*
X282971Y262862D01*
X283149Y262716D01*
X283447Y262517D01*
X283447Y262517D01*
X283674Y262396D01*
X283707Y262378D01*
D01*
X283707Y262378D01*
X283819Y262344D01*
X283990Y262292D01*
X283990D01*
X284341Y262222D01*
X284635Y262193D01*
X284807Y262210D01*
X288829Y262193D01*
X288832Y262193D01*
X288835Y262193D01*
X288979Y262207D01*
X289123Y262220D01*
X289126Y262221D01*
X289129Y262222D01*
X289488Y262293D01*
X289488D01*
X289770Y262379D01*
D01*
X289770Y262379D01*
X289928Y262463D01*
X290031Y262518D01*
X290031Y262518D01*
D01*
D01*
X290334Y262721D01*
X290334Y262721D01*
X290334Y262721D01*
X290450Y262816D01*
X290563Y262908D01*
X290563Y262908D01*
X290563Y262908D01*
X290655Y263020D01*
X290750Y263136D01*
X290750Y263137D01*
X290750Y263137D01*
X290953Y263440D01*
D01*
D01*
X290953Y263440D01*
X291072Y263662D01*
X291092Y263701D01*
D01*
X291092Y263701D01*
X291178Y263983D01*
X291178Y263983D01*
X291249Y264341D01*
X291278Y264635D01*
D01*
Y264635D01*
X291260Y264822D01*
X291253Y268538D01*
X291262Y268635D01*
X291254Y268720D01*
X291266Y269467D01*
X295561D01*
Y270573D01*
X297210D01*
Y275298D01*
X295561D01*
Y276404D01*
X294529D01*
X294518Y276535D01*
X294436Y276879D01*
X294300Y277206D01*
X294115Y277508D01*
X293885Y277778D01*
X293717Y277946D01*
Y278257D01*
X293768Y278341D01*
X293924Y278717D01*
X294019Y279112D01*
X294051Y279517D01*
Y282470D01*
X294019Y282875D01*
X293924Y283271D01*
X293768Y283646D01*
X293556Y283993D01*
X293292Y284302D01*
X292983Y284566D01*
X292636Y284778D01*
X292260Y284934D01*
X291865Y285029D01*
X291460Y285061D01*
X291055Y285029D01*
X290659Y284934D01*
X290284Y284778D01*
X289937Y284566D01*
X289885Y284522D01*
X289833Y284566D01*
X289486Y284778D01*
X289111Y284934D01*
X288716Y285029D01*
X288681Y285032D01*
X288037Y285797D01*
X288046Y285892D01*
X288060Y286035D01*
X288060Y286039D01*
X288060Y286042D01*
X288044Y289845D01*
X288062Y290035D01*
X288033Y290330D01*
X287956Y290720D01*
X287870Y291002D01*
X287731Y291263D01*
X287731Y291263D01*
X287510Y291594D01*
X287322Y291822D01*
X287242Y292709D01*
X287242Y292709D01*
X287534Y293002D01*
X287534D01*
Y293002D01*
X289848Y292997D01*
Y292997D01*
X289848D01*
X290003Y292840D01*
X290551Y292286D01*
Y292286D01*
X290531Y289839D01*
X290528Y289829D01*
X290499Y289535D01*
Y289535D01*
D01*
X290528Y289241D01*
X290644Y288656D01*
X290730Y288373D01*
X290869Y288113D01*
X291201Y287617D01*
X291388Y287388D01*
X291388D01*
Y287388D01*
X291617Y287201D01*
X292113Y286869D01*
X292373Y286730D01*
X292656Y286644D01*
X293241Y286528D01*
X293247Y286527D01*
X293252Y286526D01*
X293394Y286513D01*
X293535Y286499D01*
X293541Y286499D01*
X293546Y286499D01*
X297358Y286526D01*
X297635Y286499D01*
X297635D01*
D01*
X297930Y286528D01*
X298038Y286549D01*
X298811Y285915D01*
Y284832D01*
X298839Y284473D01*
X298923Y284123D01*
X299061Y283791D01*
X299249Y283484D01*
X299483Y283210D01*
X299757Y282976D01*
X300064Y282788D01*
X300396Y282650D01*
X300747Y282566D01*
X301043Y282543D01*
X301157Y281971D01*
Y281971D01*
X301183Y281885D01*
X301243Y281688D01*
X301307Y281567D01*
X301382Y281428D01*
X301762Y280860D01*
X301915Y280672D01*
X301949Y280631D01*
X301949D01*
Y280631D01*
X302177Y280444D01*
X302746Y280064D01*
X302885Y279990D01*
X303006Y279925D01*
X303203Y279865D01*
X303289Y279839D01*
X303289D01*
X303959Y279706D01*
X304253Y279677D01*
X304547Y279706D01*
X304560Y279710D01*
X310931Y279693D01*
X310933Y279693D01*
X310935Y279693D01*
X311080Y279707D01*
X311226Y279721D01*
X311227Y279721D01*
X311229Y279721D01*
X311588Y279793D01*
X311588D01*
X311720Y279833D01*
X311871Y279879D01*
X312098Y280000D01*
X312132Y280018D01*
X312436Y280221D01*
X312436Y280221D01*
X312664Y280409D01*
Y280409D01*
X312664D01*
X312852Y280637D01*
X312852Y280637D01*
X313055Y280941D01*
X313055Y280941D01*
X313185Y281184D01*
X313194Y281202D01*
D01*
X313194Y281202D01*
X313228Y281313D01*
X313280Y281485D01*
Y281485D01*
X313351Y281843D01*
X313351Y281843D01*
X313380Y282137D01*
X313363Y282312D01*
X313382Y286128D01*
X313382Y286132D01*
X313382Y286135D01*
X313368Y286279D01*
X313354Y286422D01*
X313353Y286426D01*
X313353Y286430D01*
X313275Y286820D01*
X313190Y287102D01*
X313050Y287363D01*
X313050Y287363D01*
X312829Y287694D01*
X312642Y287922D01*
X312413Y288110D01*
X312083Y288331D01*
X312083Y288331D01*
X312003Y288373D01*
X311822Y288470D01*
X311539Y288556D01*
X311539D01*
X310843Y288784D01*
D01*
X310962Y290070D01*
X311531Y290639D01*
X311655Y290785D01*
X311761Y290909D01*
X311946Y291211D01*
X312082Y291538D01*
X312165Y291882D01*
X312192Y292235D01*
Y293267D01*
X315561D01*
Y293198D01*
X315561D01*
Y288473D01*
X317210D01*
Y287367D01*
X319025D01*
X319247Y287249D01*
X319529Y287163D01*
X320241Y287021D01*
X320535Y286992D01*
D01*
X320535D01*
X320830Y287021D01*
X320848Y287027D01*
X328329Y286995D01*
X328332Y286996D01*
X328335Y286995D01*
X328479Y287009D01*
X328623Y287023D01*
X328626Y287024D01*
X328629Y287024D01*
X329286Y287155D01*
X329569Y287241D01*
X329829Y287380D01*
X330386Y287752D01*
X330614Y287939D01*
Y287939D01*
X330614D01*
X330802Y288168D01*
X331174Y288724D01*
X331313Y288985D01*
X331399Y289267D01*
Y289267D01*
X331529Y289924D01*
X331558Y290218D01*
D01*
Y290218D01*
X331529Y290512D01*
X331526Y290522D01*
X331528Y291027D01*
X331531Y291041D01*
X331532Y291045D01*
X331533Y291048D01*
X331546Y291192D01*
X331560Y291335D01*
X331560Y291339D01*
X331560Y291342D01*
X331544Y295114D01*
X331544Y295148D01*
X331562Y295335D01*
X331533Y295630D01*
X331456Y296020D01*
X331370Y296302D01*
X331231Y296563D01*
X331231Y296563D01*
X331230Y296564D01*
X331214Y296593D01*
X331214Y296593D01*
X330997Y296918D01*
X330997Y296918D01*
D01*
X330810Y297147D01*
X330671Y297261D01*
X330581Y297334D01*
X330581Y297334D01*
X330581Y297334D01*
X330256Y297551D01*
X330014Y297681D01*
X329996Y297691D01*
D01*
X329996Y297691D01*
X329884Y297724D01*
X329713Y297776D01*
X329329Y297853D01*
X329035Y297882D01*
D01*
X329035D01*
X328830Y297861D01*
X327236Y297853D01*
X327133Y298376D01*
X327133Y298376D01*
X327133D01*
X327047Y298658D01*
X326943Y298852D01*
X326907Y298919D01*
X326907Y298919D01*
X326598Y299382D01*
X326598Y299382D01*
X326598Y299382D01*
X326503Y299498D01*
X326411Y299611D01*
X326411Y299611D01*
X326411Y299611D01*
X326206Y299779D01*
X326182Y299798D01*
D01*
X326182Y299798D01*
X325719Y300107D01*
D01*
D01*
X325719Y300108D01*
X325599Y300171D01*
X325452Y301161D01*
X328531Y304240D01*
X328761Y304509D01*
X328946Y304811D01*
X329082Y305138D01*
X329165Y305482D01*
X329192Y305835D01*
Y310355D01*
X329393Y310683D01*
X329559Y311083D01*
X329660Y311504D01*
X329694Y311935D01*
X329660Y312367D01*
X329559Y312788D01*
X329393Y313188D01*
X329167Y313557D01*
X328886Y313886D01*
X328531Y314840D01*
X328761Y315109D01*
X328946Y315411D01*
X329082Y315738D01*
X329165Y316082D01*
X329192Y316435D01*
Y318255D01*
X329393Y318583D01*
X329559Y318983D01*
X329660Y319404D01*
X329694Y319835D01*
X329660Y320267D01*
X329559Y320688D01*
X329393Y321088D01*
X329167Y321457D01*
X328886Y321786D01*
X328557Y322067D01*
X328508Y322097D01*
X328342Y323083D01*
X328370Y323117D01*
X328702Y323613D01*
X328841Y323873D01*
X328927Y324156D01*
X329043Y324741D01*
X329072Y325035D01*
D01*
Y325035D01*
X329043Y325329D01*
X329060Y335433D01*
X329060Y335434D01*
X329060Y335435D01*
X329046Y335580D01*
X329032Y335727D01*
X329031Y335728D01*
X329031Y335730D01*
X328961Y336081D01*
Y336081D01*
X328909Y336252D01*
X328876Y336363D01*
X328876Y336363D01*
D01*
X328858Y336397D01*
X328736Y336624D01*
X328736Y336624D01*
X328538Y336922D01*
X328538Y336922D01*
X328350Y337150D01*
X328350D01*
Y337150D01*
X328300Y337191D01*
X328122Y337337D01*
X327824Y337536D01*
X327824Y337537D01*
X327597Y337658D01*
X327563Y337676D01*
D01*
X327563Y337676D01*
X327452Y337709D01*
X327281Y337761D01*
X327281D01*
X326929Y337831D01*
X326635Y337860D01*
X326465Y337843D01*
X322143Y337864D01*
X322139Y337864D01*
X322135Y337864D01*
X321992Y337850D01*
X321849Y337837D01*
X321845Y337836D01*
X321841Y337835D01*
X321412Y337750D01*
X321412D01*
X321129Y337664D01*
X320869Y337525D01*
X320505Y337282D01*
X320505Y337282D01*
X320326Y337135D01*
X320277Y337094D01*
Y337094D01*
X320277D01*
X320089Y336866D01*
X319846Y336502D01*
X319707Y336241D01*
X319621Y335959D01*
Y335959D01*
X319550Y335604D01*
X317210D01*
Y334498D01*
X315561D01*
Y329773D01*
D01*
Y329773D01*
X315491Y329704D01*
X310517D01*
Y329704D01*
X310362Y329549D01*
X305823Y329570D01*
X305819Y329570D01*
X305816Y329570D01*
X305672Y329556D01*
X305528Y329542D01*
X305525Y329541D01*
X305522Y329541D01*
X304976Y329433D01*
X304976D01*
X304693Y329347D01*
X304500Y329243D01*
X304432Y329207D01*
X304432Y329207D01*
X303969Y328898D01*
X303969Y328898D01*
X303969Y328898D01*
X303853Y328803D01*
X303741Y328711D01*
X303741Y328711D01*
X303741Y328711D01*
X303573Y328506D01*
X303553Y328482D01*
D01*
X303553Y328482D01*
X303244Y328019D01*
D01*
D01*
X303244Y328019D01*
X303104Y327759D01*
X303019Y327476D01*
Y327476D01*
X302910Y326929D01*
X302881Y326635D01*
D01*
Y326635D01*
X302907Y326369D01*
X302891Y322644D01*
X302891Y322641D01*
X302891Y322637D01*
X302905Y322493D01*
X302918Y322350D01*
X302919Y322347D01*
X302920Y322343D01*
X302935Y322265D01*
X302610Y321869D01*
X301369Y321492D01*
X299828D01*
Y326386D01*
X298808D01*
X298786Y326667D01*
X298703Y327012D01*
X298568Y327339D01*
X298383Y327641D01*
X298174Y327885D01*
X298593Y328793D01*
X299268D01*
Y341242D01*
X296088D01*
Y345540D01*
X296060Y345893D01*
X295977Y346238D01*
X295842Y346565D01*
X295657Y346867D01*
X295427Y347136D01*
X294073Y348490D01*
X294388Y349252D01*
X294550Y349414D01*
X344488Y349417D01*
X345040Y349386D01*
D02*
G37*
G36*
X288310Y280994D02*
X289035D01*
Y271242D01*
X289002D01*
X289135Y270577D01*
X289512Y270012D01*
X289545Y270045D01*
X289704Y269808D01*
X289759Y269529D01*
X289746Y268681D01*
X289755Y268635D01*
X289745D01*
X289753Y264635D01*
X289771D01*
X289700Y264277D01*
X289497Y263974D01*
X289194Y263771D01*
X288835Y263700D01*
X284635Y263718D01*
Y263700D01*
X284284Y263770D01*
X283987Y263969D01*
X283788Y264267D01*
X283718Y264618D01*
X283718Y264635D01*
X283718Y264635D01*
X283718D01*
X283726Y266526D01*
X283716Y268635D01*
Y271384D01*
X283687D01*
X283801Y272535D01*
X284137Y273642D01*
X284682Y274661D01*
X285415Y275555D01*
X286316Y276416D01*
X286335Y276397D01*
X286838Y277053D01*
X287155Y277816D01*
X287263Y278635D01*
X287235Y281235D01*
X288310Y280994D01*
D02*
G37*
G36*
X306812Y287150D02*
X306835Y287155D01*
Y287150D01*
X308564Y287144D01*
X310835Y287155D01*
X310855Y287151D01*
Y287155D01*
X311245Y287077D01*
X311576Y286856D01*
X311797Y286526D01*
X311875Y286135D01*
X311855Y282137D01*
X311873D01*
X311802Y281779D01*
X311598Y281474D01*
X311294Y281271D01*
X310935Y281200D01*
X304253Y281218D01*
Y281184D01*
X303583Y281317D01*
X303015Y281697D01*
X302635Y282265D01*
X302502Y282935D01*
X302535Y283035D01*
X302555D01*
X302477Y283426D01*
X302256Y283756D01*
X301926Y283977D01*
X301535Y284055D01*
Y286735D01*
X301502D01*
X301629Y287042D01*
X301935Y287168D01*
X306812Y287150D01*
D02*
G37*
G36*
X324335Y298935D02*
Y298963D01*
X324882Y298854D01*
X325345Y298545D01*
X325654Y298082D01*
X325763Y297535D01*
X325712D01*
X325804Y297071D01*
X326067Y296677D01*
X326461Y296414D01*
X326814Y296344D01*
X327035Y296345D01*
X327035Y296345D01*
X329035Y296355D01*
Y296374D01*
X329419Y296298D01*
X329744Y296081D01*
X329961Y295756D01*
X329963Y295748D01*
X329977Y295726D01*
X330055Y295335D01*
X330037D01*
X330036Y295113D01*
X330053Y291335D01*
X330022Y291178D01*
X330018Y290218D01*
X330051D01*
X329921Y289562D01*
X329549Y289005D01*
X328992Y288633D01*
X328335Y288503D01*
X320535Y288535D01*
Y288500D01*
X319823Y288641D01*
X319219Y289045D01*
X318816Y289649D01*
X318674Y290361D01*
X318710Y296735D01*
X318667D01*
X318838Y297594D01*
X319324Y298322D01*
X320052Y298808D01*
X320910Y298978D01*
X324335Y298935D01*
D02*
G37*
G36*
X312494Y327936D02*
X313059Y327559D01*
X313035Y318535D01*
X311535D01*
Y318506D01*
X310950Y318622D01*
X310454Y318954D01*
X310122Y319450D01*
X310006Y320035D01*
X310068D01*
X309938Y320692D01*
X309566Y321248D01*
X309010Y321620D01*
X308453Y321731D01*
X305335Y321718D01*
Y321700D01*
X304977Y321771D01*
X304672Y321974D01*
X304469Y322279D01*
X304398Y322637D01*
X304416Y326635D01*
X304388D01*
X304497Y327182D01*
X304806Y327645D01*
X305270Y327954D01*
X305816Y328063D01*
X311828Y328035D01*
Y328069D01*
X312494Y327936D01*
D02*
G37*
G36*
X291574Y341242D02*
X288394D01*
Y328793D01*
X291234D01*
X291684Y328343D01*
X291684Y328343D01*
D01*
X291820Y328015D01*
X292005Y327714D01*
X292235Y327444D01*
X292235Y327444D01*
X292235Y327444D01*
X293287Y326392D01*
X293285Y326386D01*
X293285D01*
X293285Y326386D01*
Y325279D01*
X291635D01*
Y321092D01*
X290935D01*
X290582Y321065D01*
X290238Y320982D01*
X289911Y320846D01*
X289609Y320661D01*
X289339Y320431D01*
X286908Y318000D01*
X286756Y318006D01*
X284331Y320431D01*
X284062Y320661D01*
X283760Y320846D01*
X283433Y320982D01*
X283088Y321065D01*
X282735Y321092D01*
X280285D01*
Y325279D01*
X278635D01*
Y326386D01*
X278635Y326386D01*
X278635D01*
X278627Y326407D01*
X279679Y327458D01*
X279909Y327728D01*
X280094Y328030D01*
X280229Y328357D01*
X280312Y328701D01*
X280319Y328793D01*
X283520D01*
Y341242D01*
X280340D01*
Y343649D01*
X285935D01*
Y343649D01*
X285935D01*
X285935Y343649D01*
X286085D01*
Y343649D01*
X291574D01*
Y341242D01*
D02*
G37*
G36*
X326635Y336335D02*
Y336353D01*
X326987Y336283D01*
X327284Y336084D01*
X327483Y335787D01*
X327553Y335435D01*
X327535Y325035D01*
X327565D01*
X327448Y324450D01*
X327117Y323954D01*
X326621Y323622D01*
X326035Y323506D01*
X322435Y323535D01*
Y323508D01*
X321889Y323617D01*
X321426Y323926D01*
X321117Y324389D01*
X321008Y324935D01*
X321035Y335235D01*
X321014D01*
X321099Y335665D01*
X321342Y336029D01*
X321706Y336272D01*
X322135Y336357D01*
X326635Y336335D01*
D02*
G37*
G36*
X320565Y322692D02*
X320589Y322673D01*
D01*
X320589Y322673D01*
X321052Y322363D01*
D01*
D01*
X321052Y322363D01*
X321312Y322224D01*
X321595Y322138D01*
X321595D01*
X322141Y322030D01*
X322435Y322001D01*
D01*
X322435D01*
X322692Y322026D01*
X324025Y322015D01*
X324510Y321141D01*
X324478Y321088D01*
X324312Y320688D01*
X324211Y320267D01*
X324177Y319835D01*
X324211Y319404D01*
X324312Y318983D01*
X324478Y318583D01*
X324678Y318255D01*
Y317370D01*
X322539Y315231D01*
X322309Y314962D01*
X322125Y314660D01*
X321989Y314333D01*
X321906Y313988D01*
X321879Y313635D01*
Y312004D01*
X318710D01*
Y312073D01*
X318710D01*
Y316798D01*
X317061D01*
Y317904D01*
D01*
D01*
X317130Y317973D01*
X318710D01*
Y322698D01*
D01*
Y322698D01*
X318780Y322767D01*
X320474D01*
X320565Y322692D01*
D02*
G37*
%LPC*%
G36*
X313835Y346594D02*
X313404Y346560D01*
X312983Y346459D01*
X312583Y346293D01*
X312214Y346067D01*
X311885Y345786D01*
X311604Y345457D01*
X311378Y345088D01*
X311212Y344688D01*
X311111Y344267D01*
X311077Y343835D01*
X311111Y343404D01*
X311111D01*
X310517Y343104D01*
X310517D01*
Y336167D01*
X317061D01*
Y337273D01*
X318710D01*
Y341998D01*
X317061D01*
Y343104D01*
X317061D01*
X316560Y343404D01*
X316560Y343404D01*
X316594Y343835D01*
X316560Y344267D01*
X316459Y344688D01*
X316293Y345088D01*
X316067Y345457D01*
X315786Y345786D01*
X315457Y346067D01*
X315088Y346293D01*
X314688Y346459D01*
X314267Y346560D01*
X313835Y346594D01*
D02*
G37*
G36*
X244435Y339098D02*
X243853Y339059D01*
X243281Y338946D01*
X242728Y338758D01*
X242204Y338500D01*
X241719Y338176D01*
X241280Y337791D01*
X240895Y337352D01*
X240571Y336867D01*
X240313Y336343D01*
X240125Y335790D01*
X240011Y335218D01*
X239973Y334635D01*
X240011Y334053D01*
X240125Y333481D01*
X240313Y332928D01*
X240571Y332404D01*
X240895Y331919D01*
X240967Y331837D01*
X240967Y330854D01*
X240967D01*
Y324310D01*
X240967Y324310D01*
X240967Y324161D01*
X240967D01*
Y323736D01*
X240004Y323464D01*
X239870Y323684D01*
X239563Y324043D01*
X234104Y329502D01*
Y330854D01*
X234104Y330854D01*
X234104D01*
X234083Y330911D01*
X234243Y331048D01*
X234548Y331404D01*
X234792Y331804D01*
X234972Y332237D01*
X235081Y332692D01*
X235118Y333159D01*
Y336112D01*
X235081Y336579D01*
X234972Y337034D01*
X234792Y337467D01*
X234548Y337867D01*
X234243Y338223D01*
X233887Y338527D01*
X233488Y338772D01*
X233055Y338951D01*
X232599Y339061D01*
X232132Y339097D01*
X229180D01*
X228713Y339061D01*
X228257Y338951D01*
X227824Y338772D01*
X227425Y338527D01*
X227068Y338223D01*
X226764Y337867D01*
X226519Y337467D01*
X226340Y337034D01*
X226231Y336579D01*
X226194Y336112D01*
Y333159D01*
X226231Y332692D01*
X226340Y332237D01*
X226519Y331804D01*
X226764Y331404D01*
X227068Y331048D01*
X227198Y330937D01*
X227167Y330854D01*
X227167D01*
X227167Y330854D01*
Y324310D01*
X228273D01*
Y322661D01*
X232434D01*
X234426Y320669D01*
Y310761D01*
X234104D01*
Y310761D01*
X232998D01*
Y312410D01*
X228273D01*
Y310761D01*
X227167D01*
Y304217D01*
X227167Y304217D01*
X227167D01*
X227198Y304134D01*
X227068Y304023D01*
X226764Y303667D01*
X226519Y303267D01*
X226340Y302834D01*
X226231Y302379D01*
X226194Y301912D01*
Y298959D01*
X226231Y298492D01*
X226340Y298037D01*
X226519Y297604D01*
X226764Y297204D01*
X227068Y296848D01*
X227425Y296544D01*
X227626Y296420D01*
Y277882D01*
X226323Y276578D01*
X226016Y276219D01*
X225769Y275817D01*
X225716Y275689D01*
X225588Y275380D01*
X225478Y274921D01*
X225441Y274450D01*
Y253335D01*
X225016Y253033D01*
X224555Y252621D01*
X224144Y252161D01*
X223786Y251657D01*
X223487Y251116D01*
X223251Y250545D01*
X223080Y249952D01*
X222976Y249343D01*
X222942Y248726D01*
Y244915D01*
X222976Y244298D01*
X223080Y243689D01*
X223251Y243096D01*
X223487Y242525D01*
X223786Y241984D01*
X224144Y241480D01*
X224555Y241020D01*
X225016Y240608D01*
X225520Y240251D01*
X226060Y239952D01*
X226631Y239715D01*
X227225Y239544D01*
X227834Y239441D01*
X228450Y239406D01*
X229067Y239441D01*
X229676Y239544D01*
X230270Y239715D01*
X230840Y239952D01*
X231381Y240251D01*
X231885Y240608D01*
X232346Y241020D01*
X232757Y241480D01*
X232872Y241642D01*
X233872D01*
X233986Y241480D01*
X234398Y241020D01*
X234858Y240608D01*
X235362Y240251D01*
X235903Y239952D01*
X236473Y239715D01*
X237067Y239544D01*
X237676Y239441D01*
X238293Y239406D01*
X238910Y239441D01*
X239519Y239544D01*
X240112Y239715D01*
X240683Y239952D01*
X241224Y240251D01*
X241727Y240608D01*
X242188Y241020D01*
X242600Y241480D01*
X242957Y241984D01*
X243256Y242525D01*
X243493Y243096D01*
X243664Y243689D01*
X243767Y244298D01*
X243802Y244915D01*
Y248726D01*
X243767Y249343D01*
X243664Y249952D01*
X243493Y250545D01*
X243256Y251116D01*
X242957Y251657D01*
X242600Y252161D01*
X242188Y252621D01*
X241727Y253033D01*
X241224Y253390D01*
X240683Y253689D01*
X240112Y253925D01*
X239519Y254097D01*
X238910Y254200D01*
X238293Y254235D01*
X237676Y254200D01*
X237067Y254097D01*
X236473Y253925D01*
X235903Y253689D01*
X235362Y253390D01*
X234858Y253033D01*
X234398Y252621D01*
X233986Y252161D01*
X233872Y251999D01*
X232872D01*
X232757Y252161D01*
X232346Y252621D01*
X231885Y253033D01*
X231460Y253335D01*
Y273204D01*
X232763Y274507D01*
X233070Y274867D01*
X233317Y275269D01*
X233392Y275450D01*
X233497Y275706D01*
X233547Y275914D01*
X234547D01*
X234573Y275805D01*
X234701Y275497D01*
X234754Y275369D01*
X235001Y274967D01*
X235308Y274607D01*
X245208Y264707D01*
X245567Y264401D01*
X245969Y264154D01*
X246150Y264079D01*
X246406Y263973D01*
X246865Y263863D01*
X247335Y263826D01*
X257289D01*
X264811Y256304D01*
Y253335D01*
X264386Y253033D01*
X263925Y252621D01*
X263514Y252161D01*
X263399Y251999D01*
X262399D01*
X262285Y252161D01*
X261873Y252621D01*
X261413Y253033D01*
X260909Y253390D01*
X260368Y253689D01*
X259797Y253925D01*
X259204Y254097D01*
X258595Y254200D01*
X257978Y254235D01*
X257361Y254200D01*
X256752Y254097D01*
X256159Y253925D01*
X255588Y253689D01*
X255047Y253390D01*
X254543Y253033D01*
X254083Y252621D01*
X253671Y252161D01*
X253314Y251657D01*
X253015Y251116D01*
X252778Y250545D01*
X252607Y249952D01*
X252504Y249343D01*
X252469Y248726D01*
Y244915D01*
X252504Y244298D01*
X252607Y243689D01*
X252778Y243096D01*
X253015Y242525D01*
X253314Y241984D01*
X253671Y241480D01*
X254083Y241020D01*
X254543Y240608D01*
X255047Y240251D01*
X255588Y239952D01*
X256159Y239715D01*
X256752Y239544D01*
X257361Y239441D01*
X257978Y239406D01*
X258595Y239441D01*
X259204Y239544D01*
X259797Y239715D01*
X260368Y239952D01*
X260909Y240251D01*
X261413Y240608D01*
X261873Y241020D01*
X262285Y241480D01*
X262399Y241642D01*
X263399D01*
X263514Y241480D01*
X263925Y241020D01*
X264386Y240608D01*
X264890Y240251D01*
X265430Y239952D01*
X266001Y239715D01*
X266595Y239544D01*
X267204Y239441D01*
X267821Y239406D01*
X268437Y239441D01*
X269046Y239544D01*
X269640Y239715D01*
X270211Y239952D01*
X270751Y240251D01*
X271255Y240608D01*
X271716Y241020D01*
X272127Y241480D01*
X272485Y241984D01*
X272784Y242525D01*
X273020Y243096D01*
X273191Y243689D01*
X273294Y244298D01*
X273329Y244915D01*
Y248726D01*
X273294Y249343D01*
X273191Y249952D01*
X273020Y250545D01*
X272784Y251116D01*
X272485Y251657D01*
X272127Y252161D01*
X271716Y252621D01*
X271255Y253033D01*
X270830Y253335D01*
Y257550D01*
X270793Y258021D01*
X270683Y258480D01*
X270555Y258789D01*
X270502Y258917D01*
X270255Y259319D01*
X269948Y259678D01*
X260663Y268963D01*
X260304Y269270D01*
X259902Y269517D01*
X259774Y269570D01*
X259465Y269697D01*
X259006Y269808D01*
X258535Y269845D01*
X248582D01*
X240445Y277982D01*
Y296548D01*
X241043Y297072D01*
X241356Y297214D01*
X241719Y296895D01*
X242204Y296571D01*
X242728Y296313D01*
X243281Y296125D01*
X243853Y296011D01*
X244435Y295973D01*
X245018Y296011D01*
X245590Y296125D01*
X246143Y296313D01*
X246667Y296571D01*
X247152Y296895D01*
X247591Y297280D01*
X247976Y297719D01*
X248300Y298204D01*
X248558Y298728D01*
X248746Y299281D01*
X248860Y299853D01*
X248898Y300435D01*
X248860Y301018D01*
X248746Y301590D01*
X248558Y302143D01*
X248300Y302667D01*
X247976Y303152D01*
X247904Y303234D01*
X247904Y304217D01*
X247904D01*
Y305232D01*
X249517D01*
Y304667D01*
X256061D01*
Y305773D01*
X257710D01*
Y310498D01*
X256061D01*
Y310567D01*
Y311673D01*
X257710D01*
Y316398D01*
X256768D01*
X256061Y317105D01*
Y317504D01*
Y317535D01*
Y317567D01*
Y317966D01*
X256768Y318673D01*
X257710D01*
Y323398D01*
X256061D01*
Y323467D01*
Y324573D01*
X257710D01*
Y329298D01*
X256061D01*
Y330404D01*
X249517D01*
Y329692D01*
X247904D01*
Y330854D01*
X247904D01*
X247904Y331837D01*
X247976Y331919D01*
X248300Y332404D01*
X248558Y332928D01*
X248746Y333481D01*
X248860Y334053D01*
X248898Y334635D01*
X248860Y335218D01*
X248746Y335790D01*
X248558Y336343D01*
X248300Y336867D01*
X247976Y337352D01*
X247591Y337791D01*
X247152Y338176D01*
X246667Y338500D01*
X246143Y338758D01*
X245590Y338946D01*
X245018Y339059D01*
X244435Y339098D01*
D02*
G37*
G36*
X276007Y285060D02*
X274432D01*
X274073Y285032D01*
X273723Y284947D01*
X273391Y284810D01*
X273084Y284622D01*
X272810Y284388D01*
X272576Y284114D01*
X272388Y283807D01*
X272250Y283474D01*
X272196Y283251D01*
X267094D01*
X266741Y283223D01*
X266396Y283140D01*
X266069Y283005D01*
X265904Y283161D01*
Y283161D01*
X264798D01*
Y284810D01*
X260073D01*
Y283161D01*
X258967D01*
Y276617D01*
X265904D01*
Y277632D01*
X265989D01*
X266342Y277660D01*
X266686Y277743D01*
X267014Y277878D01*
X267014Y277878D01*
X267014Y277878D01*
X267316Y278063D01*
X267585Y278293D01*
X267585Y278293D01*
X267585Y278293D01*
X268029Y278737D01*
X272196D01*
X272250Y278513D01*
X272388Y278180D01*
X272576Y277873D01*
X272810Y277600D01*
X273084Y277366D01*
X273391Y277178D01*
X273723Y277040D01*
X274073Y276956D01*
X274432Y276928D01*
X276007D01*
X276366Y276956D01*
X276716Y277040D01*
X277049Y277178D01*
X277356Y277366D01*
X277629Y277600D01*
X277863Y277873D01*
X278051Y278180D01*
X278189Y278513D01*
X278273Y278863D01*
X278302Y279222D01*
Y282765D01*
X278273Y283124D01*
X278189Y283474D01*
X278051Y283807D01*
X277863Y284114D01*
X277629Y284388D01*
X277356Y284622D01*
X277049Y284810D01*
X276716Y284947D01*
X276366Y285032D01*
X276007Y285060D01*
D02*
G37*
%LPD*%
D12*
X110870Y149870D02*
X112698Y148042D01*
X136670Y162470D02*
Y166670D01*
X104891Y145752D02*
Y147891D01*
X106870Y149870D01*
X112698Y145752D02*
Y148042D01*
X288035Y149870D02*
X289864Y148042D01*
X313835Y162470D02*
Y166670D01*
X282057Y145752D02*
Y147891D01*
X284035Y149870D01*
X289864Y145752D02*
Y148042D01*
X110870Y327035D02*
X112698Y325207D01*
X136670Y339635D02*
Y343835D01*
X104891Y322917D02*
Y325057D01*
X106870Y327035D01*
X112698Y322917D02*
Y325207D01*
X288035Y327035D02*
X289864Y325207D01*
X313835Y339635D02*
Y343835D01*
X282057Y322917D02*
Y325057D01*
X284035Y327035D01*
X289864Y322917D02*
Y325207D01*
D13*
X119570Y122770D02*
X120795Y121545D01*
X125712D01*
X296735Y122770D02*
X297961Y121545D01*
X302877D01*
X119570Y299935D02*
X120795Y298710D01*
X125712D01*
X296735Y299935D02*
X297961Y298710D01*
X302877D01*
D15*
X98842Y108396D02*
G03*
X99311Y108865I0J469D01*
G01*
Y114961D02*
G03*
X99026Y115246I-285J0D01*
G01*
X111070Y91070D02*
G03*
X111145Y91145I0J75D01*
G01*
X141068Y170472D02*
X143316Y168224D01*
X132372Y170472D02*
X141068D01*
X130070Y168170D02*
X132372Y170472D01*
X99524Y98724D02*
X101696Y100896D01*
X97324Y98724D02*
X99524D01*
X93428Y108396D02*
X98842D01*
X99311Y108865D02*
Y114961D01*
X93428Y115246D02*
X99026D01*
X93428Y108396D02*
Y108454D01*
X143316Y162470D02*
Y168224D01*
X130070Y157870D02*
Y168170D01*
Y157870D02*
X132970Y154970D01*
X136624D01*
X113970Y128770D02*
X119770D01*
X111670Y126470D02*
X113970Y128770D01*
X119770D02*
X120970Y129970D01*
X120270Y135533D02*
X120970Y134833D01*
Y129970D02*
Y134833D01*
X102770Y126470D02*
X111670D01*
X143316Y137270D02*
Y143170D01*
X143417Y140270D02*
X146570D01*
X143316Y143170D02*
X143316Y143170D01*
X88970Y113470D02*
Y115070D01*
Y113470D02*
X90344Y112096D01*
X93428D01*
X88016Y116024D02*
X88970Y115070D01*
X85270Y116024D02*
X88016D01*
X136624Y162470D02*
X136670D01*
X149770Y128670D02*
Y134770D01*
X146570Y125470D02*
X149770Y128670D01*
X143316Y125470D02*
X146570D01*
X78170Y107670D02*
Y115617D01*
X85270Y122716D01*
X82316Y143870D02*
Y149770D01*
Y136870D02*
Y143870D01*
Y130970D02*
Y136870D01*
X85270Y122716D02*
Y128016D01*
X82316Y130970D02*
X85270Y128016D01*
X81070Y95770D02*
X97324D01*
X78170Y98670D02*
X81070Y95770D01*
X78170Y98670D02*
Y107670D01*
X79917Y109416D02*
X85270D01*
X78170Y107670D02*
X79917Y109416D01*
X109870Y120370D02*
Y126470D01*
X111845Y118395D02*
X125712D01*
X109870Y120370D02*
X111845Y118395D01*
X101696Y127570D02*
Y136112D01*
X85270Y109416D02*
X88870D01*
X89832Y108454D01*
X93428D01*
X98198Y142842D02*
Y145752D01*
X107995Y136112D02*
Y139245D01*
X111145Y136112D02*
Y139045D01*
X113770Y141670D01*
X98198Y142842D02*
X99370Y141670D01*
X105570D01*
X107995Y139245D01*
X98198Y145752D02*
Y149170D01*
X100917Y151889D01*
Y157852D01*
X116665Y151875D02*
Y157852D01*
Y151875D02*
X119391Y149149D01*
Y145752D02*
Y149149D01*
X100917Y157852D02*
Y168317D01*
X102552Y169952D01*
X105498D01*
X112191D02*
X115088D01*
X116665Y168375D01*
Y157852D02*
Y168375D01*
X67270Y137016D02*
X75477D01*
X113770Y141670D02*
X117270D01*
X119391Y143791D01*
Y145752D01*
X117444Y136112D02*
Y138344D01*
X121170Y142070D01*
X126770D01*
X131570Y137270D01*
X136624D01*
X133870Y125470D02*
X136624D01*
X125712Y112096D02*
X129796D01*
X125712Y115246D02*
X129446D01*
X130270Y116070D01*
X129796Y112096D02*
X132770Y115070D01*
Y124370D01*
X133870Y125470D01*
X136624Y119570D02*
Y125470D01*
X67417Y143870D02*
X75624D01*
X67270Y130324D02*
X74977D01*
X67417Y150270D02*
X75624D01*
X67270Y150417D02*
X67417Y150270D01*
X98054Y131186D02*
X102770Y126470D01*
X98054Y131186D02*
Y136112D01*
X85270Y102724D02*
X88824D01*
X89928Y103828D01*
X98054D01*
X104846Y99846D02*
Y103828D01*
X103217Y95770D02*
X104016Y96570D01*
Y99016D01*
X104846Y99846D01*
X101696Y100896D02*
Y103828D01*
X97324Y95770D02*
Y98724D01*
X115124Y96570D02*
X115924Y95770D01*
X114295Y99846D02*
Y103828D01*
Y99846D02*
X115124Y99016D01*
Y96570D02*
Y99016D01*
X121817Y95770D02*
Y99456D01*
X117444Y100896D02*
Y103828D01*
X143316Y131370D02*
X145470D01*
X146970Y132870D01*
Y136470D01*
X149770Y139270D01*
Y142470D01*
X111145Y91070D02*
Y103828D01*
X107995D02*
Y109470D01*
X130270Y116070D02*
Y128370D01*
X133270Y131370D01*
X136624D01*
X121086Y100187D02*
Y103828D01*
X121253Y100019D02*
X121817Y99456D01*
X117444Y100896D02*
X118154Y100187D01*
X121086D01*
X276007Y108396D02*
G03*
X276476Y108865I0J469D01*
G01*
Y114961D02*
G03*
X276191Y115246I-285J0D01*
G01*
X288235Y91070D02*
G03*
X288310Y91145I0J75D01*
G01*
X318233Y170472D02*
X320482Y168224D01*
X309538Y170472D02*
X318233D01*
X307235Y168170D02*
X309538Y170472D01*
X276689Y98724D02*
X278861Y100896D01*
X274489Y98724D02*
X276689D01*
X270594Y108396D02*
X276007D01*
X276476Y108865D02*
Y114961D01*
X270594Y115246D02*
X276191D01*
X270594Y108396D02*
Y108454D01*
X320482Y162470D02*
Y168224D01*
X307235Y157870D02*
Y168170D01*
Y157870D02*
X310135Y154970D01*
X313789D01*
X291135Y128770D02*
X296935D01*
X288835Y126470D02*
X291135Y128770D01*
X296935D02*
X298135Y129970D01*
X297435Y135533D02*
X298135Y134833D01*
Y129970D02*
Y134833D01*
X279935Y126470D02*
X288835D01*
X320482Y137270D02*
Y143170D01*
X320582Y140270D02*
X323735D01*
X320482Y143170D02*
X320482Y143170D01*
X266135Y113470D02*
Y115070D01*
Y113470D02*
X267509Y112096D01*
X270594D01*
X265182Y116024D02*
X266135Y115070D01*
X262435Y116024D02*
X265182D01*
X313789Y162470D02*
X313835D01*
X326935Y128670D02*
Y134770D01*
X323735Y125470D02*
X326935Y128670D01*
X320482Y125470D02*
X323735D01*
X255335Y107670D02*
Y115617D01*
X262435Y122716D01*
X259482Y143870D02*
Y149770D01*
Y136870D02*
Y143870D01*
Y130970D02*
Y136870D01*
X262435Y122716D02*
Y128016D01*
X259482Y130970D02*
X262435Y128016D01*
X258235Y95770D02*
X274489D01*
X255335Y98670D02*
X258235Y95770D01*
X255335Y98670D02*
Y107670D01*
X257082Y109416D02*
X262435D01*
X255335Y107670D02*
X257082Y109416D01*
X287035Y120370D02*
Y126470D01*
X289010Y118395D02*
X302877D01*
X287035Y120370D02*
X289010Y118395D01*
X278861Y127570D02*
Y136112D01*
X262435Y109416D02*
X266035D01*
X266998Y108454D01*
X270594D01*
X275364Y142842D02*
Y145752D01*
X285161Y136112D02*
Y139245D01*
X288310Y136112D02*
Y139045D01*
X290935Y141670D01*
X275364Y142842D02*
X276535Y141670D01*
X282735D01*
X285161Y139245D01*
X275364Y145752D02*
Y149170D01*
X278083Y151889D01*
Y157852D01*
X293831Y151875D02*
Y157852D01*
Y151875D02*
X296557Y149149D01*
Y145752D02*
Y149149D01*
X278083Y157852D02*
Y168317D01*
X279717Y169952D01*
X282664D01*
X289357D02*
X292253D01*
X293831Y168375D01*
Y157852D02*
Y168375D01*
X244435Y137016D02*
X252642D01*
X290935Y141670D02*
X294435D01*
X296557Y143791D01*
Y145752D01*
X294609Y136112D02*
Y138344D01*
X298335Y142070D01*
X303935D01*
X308735Y137270D01*
X313789D01*
X311035Y125470D02*
X313789D01*
X302877Y112096D02*
X306961D01*
X302877Y115246D02*
X306611D01*
X307435Y116070D01*
X306961Y112096D02*
X309935Y115070D01*
Y124370D01*
X311035Y125470D01*
X313789Y119570D02*
Y125470D01*
X244582Y143870D02*
X252789D01*
X244435Y130324D02*
X252143D01*
X244582Y150270D02*
X252789D01*
X244435Y150417D02*
X244582Y150270D01*
X275220Y131186D02*
X279935Y126470D01*
X275220Y131186D02*
Y136112D01*
X262435Y102724D02*
X265989D01*
X267094Y103828D01*
X275220D01*
X282011Y99846D02*
Y103828D01*
X280382Y95770D02*
X281182Y96570D01*
Y99016D01*
X282011Y99846D01*
X278861Y100896D02*
Y103828D01*
X274489Y95770D02*
Y98724D01*
X292289Y96570D02*
X293089Y95770D01*
X291460Y99846D02*
Y103828D01*
Y99846D02*
X292289Y99016D01*
Y96570D02*
Y99016D01*
X298982Y95770D02*
Y99456D01*
X294609Y100896D02*
Y103828D01*
X320482Y131370D02*
X322635D01*
X324135Y132870D01*
Y136470D01*
X326935Y139270D01*
Y142470D01*
X288310Y91070D02*
Y103828D01*
X285161D02*
Y109470D01*
X307435Y116070D02*
Y128370D01*
X310435Y131370D01*
X313789D01*
X298251Y100187D02*
Y103828D01*
X298418Y100019D02*
X298982Y99456D01*
X294609Y100896D02*
X295319Y100187D01*
X298251D01*
X98842Y285561D02*
G03*
X99311Y286031I0J469D01*
G01*
Y292126D02*
G03*
X99026Y292411I-285J0D01*
G01*
X111070Y268235D02*
G03*
X111145Y268310I0J75D01*
G01*
X141068Y347638D02*
X143316Y345389D01*
X132372Y347638D02*
X141068D01*
X130070Y345335D02*
X132372Y347638D01*
X99524Y275889D02*
X101696Y278061D01*
X97324Y275889D02*
X99524D01*
X93428Y285561D02*
X98842D01*
X99311Y286031D02*
Y292126D01*
X93428Y292411D02*
X99026D01*
X93428Y285561D02*
Y285620D01*
X143316Y339635D02*
Y345389D01*
X130070Y335035D02*
Y345335D01*
Y335035D02*
X132970Y332135D01*
X136624D01*
X113970Y305935D02*
X119770D01*
X111670Y303635D02*
X113970Y305935D01*
X119770D02*
X120970Y307135D01*
X120270Y312698D02*
X120970Y311998D01*
Y307135D02*
Y311998D01*
X102770Y303635D02*
X111670D01*
X143316Y314435D02*
Y320335D01*
X143417Y317435D02*
X146570D01*
X143316Y320335D02*
X143316Y320335D01*
X88970Y290635D02*
Y292235D01*
Y290635D02*
X90344Y289261D01*
X93428D01*
X88016Y293189D02*
X88970Y292235D01*
X85270Y293189D02*
X88016D01*
X136624Y339635D02*
X136670D01*
X149770Y305835D02*
Y311935D01*
X146570Y302635D02*
X149770Y305835D01*
X143316Y302635D02*
X146570D01*
X78170Y284835D02*
Y292782D01*
X85270Y299882D01*
X82316Y321035D02*
Y326935D01*
Y314035D02*
Y321035D01*
Y308135D02*
Y314035D01*
X85270Y299882D02*
Y305182D01*
X82316Y308135D02*
X85270Y305182D01*
X81070Y272935D02*
X97324D01*
X78170Y275835D02*
X81070Y272935D01*
X78170Y275835D02*
Y284835D01*
X79917Y286582D02*
X85270D01*
X78170Y284835D02*
X79917Y286582D01*
X109870Y297535D02*
Y303635D01*
X111845Y295561D02*
X125712D01*
X109870Y297535D02*
X111845Y295561D01*
X101696Y304735D02*
Y313277D01*
X85270Y286582D02*
X88870D01*
X89832Y285620D01*
X93428D01*
X98198Y320007D02*
Y322917D01*
X107995Y313277D02*
Y316410D01*
X111145Y313277D02*
Y316210D01*
X113770Y318835D01*
X98198Y320007D02*
X99370Y318835D01*
X105570D01*
X107995Y316410D01*
X98198Y322917D02*
Y326335D01*
X100917Y329054D01*
Y335017D01*
X116665Y329040D02*
Y335017D01*
Y329040D02*
X119391Y326314D01*
Y322917D02*
Y326314D01*
X100917Y335017D02*
Y345483D01*
X102552Y347117D01*
X105498D01*
X112191D02*
X115088D01*
X116665Y345540D01*
Y335017D02*
Y345540D01*
X67270Y314182D02*
X75477D01*
X113770Y318835D02*
X117270D01*
X119391Y320957D01*
Y322917D01*
X117444Y313277D02*
Y315510D01*
X121170Y319235D01*
X126770D01*
X131570Y314435D01*
X136624D01*
X133870Y302635D02*
X136624D01*
X125712Y289261D02*
X129796D01*
X125712Y292411D02*
X129446D01*
X130270Y293235D01*
X129796Y289261D02*
X132770Y292235D01*
Y301535D01*
X133870Y302635D01*
X136624Y296735D02*
Y302635D01*
X67417Y321035D02*
X75624D01*
X67270Y307489D02*
X74977D01*
X67417Y327435D02*
X75624D01*
X67270Y327582D02*
X67417Y327435D01*
X98054Y308351D02*
X102770Y303635D01*
X98054Y308351D02*
Y313277D01*
X85270Y279889D02*
X88824D01*
X89928Y280994D01*
X98054D01*
X104846Y277011D02*
Y280994D01*
X103217Y272935D02*
X104016Y273735D01*
Y276182D01*
X104846Y277011D01*
X101696Y278061D02*
Y280994D01*
X97324Y272935D02*
Y275889D01*
X115124Y273735D02*
X115924Y272935D01*
X114295Y277011D02*
Y280994D01*
Y277011D02*
X115124Y276182D01*
Y273735D02*
Y276182D01*
X121817Y272935D02*
Y276621D01*
X117444Y278061D02*
Y280994D01*
X143316Y308535D02*
X145470D01*
X146970Y310035D01*
Y313635D01*
X149770Y316435D01*
Y319635D01*
X111145Y268235D02*
Y280994D01*
X107995D02*
Y286635D01*
X130270Y293235D02*
Y305535D01*
X133270Y308535D01*
X136624D01*
X121086Y277352D02*
Y280994D01*
X121253Y277185D02*
X121817Y276621D01*
X117444Y278061D02*
X118154Y277352D01*
X121086D01*
X276007Y285561D02*
G03*
X276476Y286031I0J469D01*
G01*
Y292126D02*
G03*
X276191Y292411I-285J0D01*
G01*
X288235Y268235D02*
G03*
X288310Y268310I0J75D01*
G01*
X318233Y347638D02*
X320482Y345389D01*
X309538Y347638D02*
X318233D01*
X307235Y345335D02*
X309538Y347638D01*
X276689Y275889D02*
X278861Y278061D01*
X274489Y275889D02*
X276689D01*
X270594Y285561D02*
X276007D01*
X276476Y286031D02*
Y292126D01*
X270594Y292411D02*
X276191D01*
X270594Y285561D02*
Y285620D01*
X320482Y339635D02*
Y345389D01*
X307235Y335035D02*
Y345335D01*
Y335035D02*
X310135Y332135D01*
X313789D01*
X291135Y305935D02*
X296935D01*
X288835Y303635D02*
X291135Y305935D01*
X296935D02*
X298135Y307135D01*
X297435Y312698D02*
X298135Y311998D01*
Y307135D02*
Y311998D01*
X279935Y303635D02*
X288835D01*
X320482Y314435D02*
Y320335D01*
X320582Y317435D02*
X323735D01*
X320482Y320335D02*
X320482Y320335D01*
X266135Y290635D02*
Y292235D01*
Y290635D02*
X267509Y289261D01*
X270594D01*
X265182Y293189D02*
X266135Y292235D01*
X262435Y293189D02*
X265182D01*
X313789Y339635D02*
X313835D01*
X326935Y305835D02*
Y311935D01*
X323735Y302635D02*
X326935Y305835D01*
X320482Y302635D02*
X323735D01*
X255335Y284835D02*
Y292782D01*
X262435Y299882D01*
X259482Y321035D02*
Y326935D01*
Y314035D02*
Y321035D01*
Y308135D02*
Y314035D01*
X262435Y299882D02*
Y305182D01*
X259482Y308135D02*
X262435Y305182D01*
X258235Y272935D02*
X274489D01*
X255335Y275835D02*
X258235Y272935D01*
X255335Y275835D02*
Y284835D01*
X257082Y286582D02*
X262435D01*
X255335Y284835D02*
X257082Y286582D01*
X287035Y297535D02*
Y303635D01*
X289010Y295561D02*
X302877D01*
X287035Y297535D02*
X289010Y295561D01*
X278861Y304735D02*
Y313277D01*
X262435Y286582D02*
X266035D01*
X266998Y285620D01*
X270594D01*
X275364Y320007D02*
Y322917D01*
X285161Y313277D02*
Y316410D01*
X288310Y313277D02*
Y316210D01*
X290935Y318835D01*
X275364Y320007D02*
X276535Y318835D01*
X282735D01*
X285161Y316410D01*
X275364Y322917D02*
Y326335D01*
X278083Y329054D01*
Y335017D01*
X293831Y329040D02*
Y335017D01*
Y329040D02*
X296557Y326314D01*
Y322917D02*
Y326314D01*
X278083Y335017D02*
Y345483D01*
X279717Y347117D01*
X282664D01*
X289357D02*
X292253D01*
X293831Y345540D01*
Y335017D02*
Y345540D01*
X244435Y314182D02*
X252642D01*
X290935Y318835D02*
X294435D01*
X296557Y320957D01*
Y322917D01*
X294609Y313277D02*
Y315510D01*
X298335Y319235D01*
X303935D01*
X308735Y314435D01*
X313789D01*
X311035Y302635D02*
X313789D01*
X302877Y289261D02*
X306961D01*
X302877Y292411D02*
X306611D01*
X307435Y293235D01*
X306961Y289261D02*
X309935Y292235D01*
Y301535D01*
X311035Y302635D01*
X313789Y296735D02*
Y302635D01*
X244582Y321035D02*
X252789D01*
X244435Y307489D02*
X252143D01*
X244582Y327435D02*
X252789D01*
X244435Y327582D02*
X244582Y327435D01*
X275220Y308351D02*
X279935Y303635D01*
X275220Y308351D02*
Y313277D01*
X262435Y279889D02*
X265989D01*
X267094Y280994D01*
X275220D01*
X282011Y277011D02*
Y280994D01*
X280382Y272935D02*
X281182Y273735D01*
Y276182D01*
X282011Y277011D01*
X278861Y278061D02*
Y280994D01*
X274489Y272935D02*
Y275889D01*
X292289Y273735D02*
X293089Y272935D01*
X291460Y277011D02*
Y280994D01*
Y277011D02*
X292289Y276182D01*
Y273735D02*
Y276182D01*
X298982Y272935D02*
Y276621D01*
X294609Y278061D02*
Y280994D01*
X320482Y308535D02*
X322635D01*
X324135Y310035D01*
Y313635D01*
X326935Y316435D01*
Y319635D01*
X288310Y268235D02*
Y280994D01*
X285161D02*
Y286635D01*
X307435Y293235D02*
Y305535D01*
X310435Y308535D01*
X313789D01*
X298251Y277352D02*
Y280994D01*
X298418Y277185D02*
X298982Y276621D01*
X294609Y278061D02*
X295319Y277352D01*
X298251D01*
D16*
X60270Y99570D02*
Y144750D01*
X54603Y150417D02*
X60270Y144750D01*
X53470Y150417D02*
X54603D01*
X67170Y130224D02*
X67270Y130324D01*
X53470Y150443D02*
Y157497D01*
X53491Y123270D02*
Y130324D01*
X50470Y70470D02*
X51285Y69655D01*
Y97285D01*
X53470Y99470D01*
Y130324D01*
X90655Y69655D02*
Y80385D01*
X60270Y99570D02*
X70170Y89670D01*
X81370D01*
X90655Y80385D01*
X67270Y150417D02*
Y157470D01*
X67170Y123270D02*
Y130224D01*
X53470Y140370D02*
Y143724D01*
X49070Y140370D02*
X53470D01*
Y137016D02*
Y140370D01*
X237435Y99570D02*
Y144750D01*
X231768Y150417D02*
X237435Y144750D01*
X230635Y150417D02*
X231768D01*
X244335Y130224D02*
X244435Y130324D01*
X230635Y150443D02*
Y157497D01*
X230656Y123270D02*
Y130324D01*
X227635Y70470D02*
X228450Y69655D01*
Y97285D01*
X230635Y99470D01*
Y130324D01*
X267821Y69655D02*
Y80385D01*
X237435Y99570D02*
X247335Y89670D01*
X258535D01*
X267821Y80385D01*
X244435Y150417D02*
Y157470D01*
X244335Y123270D02*
Y130224D01*
X230635Y140370D02*
Y143724D01*
X226235Y140370D02*
X230635D01*
Y137016D02*
Y140370D01*
X60270Y276735D02*
Y321915D01*
X54603Y327582D02*
X60270Y321915D01*
X53470Y327582D02*
X54603D01*
X67170Y307389D02*
X67270Y307489D01*
X53470Y327609D02*
Y334662D01*
X53491Y300435D02*
Y307489D01*
X50470Y247635D02*
X51285Y246820D01*
Y274450D01*
X53470Y276635D01*
Y307489D01*
X90655Y246820D02*
Y257550D01*
X60270Y276735D02*
X70170Y266835D01*
X81370D01*
X90655Y257550D01*
X67270Y327582D02*
Y334635D01*
X67170Y300435D02*
Y307389D01*
X53470Y317535D02*
Y320889D01*
X49070Y317535D02*
X53470D01*
Y314182D02*
Y317535D01*
X237435Y276735D02*
Y321915D01*
X231768Y327582D02*
X237435Y321915D01*
X230635Y327582D02*
X231768D01*
X244335Y307389D02*
X244435Y307489D01*
X230635Y327609D02*
Y334662D01*
X230656Y300435D02*
Y307489D01*
X227635Y247635D02*
X228450Y246820D01*
Y274450D01*
X230635Y276635D01*
Y307489D01*
X267821Y246820D02*
Y257550D01*
X237435Y276735D02*
X247335Y266835D01*
X258535D01*
X267821Y257550D01*
X244435Y327582D02*
Y334635D01*
X244335Y300435D02*
Y307389D01*
X230635Y317535D02*
Y320889D01*
X226235Y317535D02*
X230635D01*
Y314182D02*
Y317535D01*
D17*
X67270Y157470D02*
D03*
Y123270D02*
D03*
X244435Y157470D02*
D03*
Y123270D02*
D03*
X67270Y334635D02*
D03*
Y300435D02*
D03*
X244435Y334635D02*
D03*
Y300435D02*
D03*
D18*
X53491Y157470D02*
D03*
Y123270D02*
D03*
X230656Y157470D02*
D03*
Y123270D02*
D03*
X53491Y334635D02*
D03*
Y300435D02*
D03*
X230656Y334635D02*
D03*
Y300435D02*
D03*
D19*
X166685Y149624D02*
D03*
Y131907D02*
D03*
X343850Y149624D02*
D03*
Y131907D02*
D03*
X166685Y326789D02*
D03*
Y309072D02*
D03*
X343850Y326789D02*
D03*
Y309072D02*
D03*
D20*
X166685Y163206D02*
D03*
Y118324D02*
D03*
X343850Y163206D02*
D03*
Y118324D02*
D03*
X166685Y340372D02*
D03*
Y295490D02*
D03*
X343850Y340372D02*
D03*
Y295490D02*
D03*
D21*
X90655Y49970D02*
D03*
X51285D02*
D03*
X70970Y69655D02*
D03*
X267821Y49970D02*
D03*
X228450D02*
D03*
X248135Y69655D02*
D03*
X90655Y227135D02*
D03*
X51285D02*
D03*
X70970Y246820D02*
D03*
X267821Y227135D02*
D03*
X228450D02*
D03*
X248135Y246820D02*
D03*
D22*
X51285Y69655D02*
D03*
X61128D02*
D03*
X90655D02*
D03*
X80813D02*
D03*
X228450D02*
D03*
X238293D02*
D03*
X267821D02*
D03*
X257978D02*
D03*
X51285Y246820D02*
D03*
X61128D02*
D03*
X90655D02*
D03*
X80813D02*
D03*
X228450D02*
D03*
X238293D02*
D03*
X267821D02*
D03*
X257978D02*
D03*
D23*
X70970Y49970D02*
D03*
X248135D02*
D03*
X70970Y227135D02*
D03*
X248135D02*
D03*
D24*
X130070Y154870D02*
D03*
X127070D02*
D03*
Y157870D02*
D03*
X130070D02*
D03*
X119570Y115470D02*
D03*
X116570D02*
D03*
Y112470D02*
D03*
X119570D02*
D03*
X151470Y114770D02*
D03*
X148470D02*
D03*
Y117770D02*
D03*
X151470D02*
D03*
X146570Y140270D02*
D03*
X136670Y166670D02*
D03*
X107970Y109470D02*
D03*
X111070Y91070D02*
D03*
X149770Y134770D02*
D03*
Y142670D02*
D03*
X147870Y157570D02*
D03*
Y154570D02*
D03*
Y151570D02*
D03*
X107970Y112470D02*
D03*
X104970D02*
D03*
Y109470D02*
D03*
X108070Y91070D02*
D03*
Y88070D02*
D03*
X111070D02*
D03*
X147870Y148570D02*
D03*
X131870Y146070D02*
D03*
X128870D02*
D03*
Y149070D02*
D03*
X131870D02*
D03*
X133270Y108570D02*
D03*
X130270D02*
D03*
Y105570D02*
D03*
X133270D02*
D03*
X119570Y122770D02*
D03*
X106870Y149870D02*
D03*
X110870D02*
D03*
X49070Y140370D02*
D03*
X307235Y154870D02*
D03*
X304235D02*
D03*
Y157870D02*
D03*
X307235D02*
D03*
X296735Y115470D02*
D03*
X293735D02*
D03*
Y112470D02*
D03*
X296735D02*
D03*
X328635Y114770D02*
D03*
X325635D02*
D03*
Y117770D02*
D03*
X328635D02*
D03*
X323735Y140270D02*
D03*
X313835Y166670D02*
D03*
X285135Y109470D02*
D03*
X288235Y91070D02*
D03*
X326935Y134770D02*
D03*
Y142670D02*
D03*
X325035Y157570D02*
D03*
Y154570D02*
D03*
Y151570D02*
D03*
X285135Y112470D02*
D03*
X282135D02*
D03*
Y109470D02*
D03*
X285235Y91070D02*
D03*
Y88070D02*
D03*
X288235D02*
D03*
X325035Y148570D02*
D03*
X309035Y146070D02*
D03*
X306035D02*
D03*
Y149070D02*
D03*
X309035D02*
D03*
X310435Y108570D02*
D03*
X307435D02*
D03*
Y105570D02*
D03*
X310435D02*
D03*
X296735Y122770D02*
D03*
X284035Y149870D02*
D03*
X288035D02*
D03*
X226235Y140370D02*
D03*
X130070Y332035D02*
D03*
X127070D02*
D03*
Y335035D02*
D03*
X130070D02*
D03*
X119570Y292635D02*
D03*
X116570D02*
D03*
Y289635D02*
D03*
X119570D02*
D03*
X151470Y291935D02*
D03*
X148470D02*
D03*
Y294935D02*
D03*
X151470D02*
D03*
X146570Y317435D02*
D03*
X136670Y343835D02*
D03*
X107970Y286635D02*
D03*
X111070Y268235D02*
D03*
X149770Y311935D02*
D03*
Y319835D02*
D03*
X147870Y334735D02*
D03*
Y331735D02*
D03*
Y328735D02*
D03*
X107970Y289635D02*
D03*
X104970D02*
D03*
Y286635D02*
D03*
X108070Y268235D02*
D03*
Y265235D02*
D03*
X111070D02*
D03*
X147870Y325735D02*
D03*
X131870Y323235D02*
D03*
X128870D02*
D03*
Y326235D02*
D03*
X131870D02*
D03*
X133270Y285735D02*
D03*
X130270D02*
D03*
Y282735D02*
D03*
X133270D02*
D03*
X119570Y299935D02*
D03*
X106870Y327035D02*
D03*
X110870D02*
D03*
X49070Y317535D02*
D03*
X307235Y332035D02*
D03*
X304235D02*
D03*
Y335035D02*
D03*
X307235D02*
D03*
X296735Y292635D02*
D03*
X293735D02*
D03*
Y289635D02*
D03*
X296735D02*
D03*
X328635Y291935D02*
D03*
X325635D02*
D03*
Y294935D02*
D03*
X328635D02*
D03*
X323735Y317435D02*
D03*
X313835Y343835D02*
D03*
X285135Y286635D02*
D03*
X288235Y268235D02*
D03*
X326935Y311935D02*
D03*
Y319835D02*
D03*
X325035Y334735D02*
D03*
Y331735D02*
D03*
Y328735D02*
D03*
X285135Y289635D02*
D03*
X282135D02*
D03*
Y286635D02*
D03*
X285235Y268235D02*
D03*
Y265235D02*
D03*
X288235D02*
D03*
X325035Y325735D02*
D03*
X309035Y323235D02*
D03*
X306035D02*
D03*
Y326235D02*
D03*
X309035D02*
D03*
X310435Y285735D02*
D03*
X307435D02*
D03*
Y282735D02*
D03*
X310435D02*
D03*
X296735Y299935D02*
D03*
X284035Y327035D02*
D03*
X288035D02*
D03*
X226235Y317535D02*
D03*
D25*
X143316Y131370D02*
D03*
X136624D02*
D03*
X143316Y125470D02*
D03*
X136624D02*
D03*
X143316Y119570D02*
D03*
X136624D02*
D03*
X143316Y154970D02*
D03*
X136624D02*
D03*
X119391Y145752D02*
D03*
X112698D02*
D03*
X136624Y162470D02*
D03*
X143316D02*
D03*
Y113670D02*
D03*
X136624D02*
D03*
X136624Y143170D02*
D03*
X143316D02*
D03*
X136624Y137270D02*
D03*
X143316D02*
D03*
X98198Y145752D02*
D03*
X104891D02*
D03*
X75624Y136870D02*
D03*
X82316D02*
D03*
X75624Y143870D02*
D03*
X82316D02*
D03*
X75624Y149770D02*
D03*
X82316D02*
D03*
X75624Y130970D02*
D03*
X82316D02*
D03*
X104016Y95770D02*
D03*
X97324D02*
D03*
X115124D02*
D03*
X121817D02*
D03*
X112191Y169952D02*
D03*
X105498D02*
D03*
X143316Y149070D02*
D03*
X136624D02*
D03*
X320482Y131370D02*
D03*
X313789D02*
D03*
X320482Y125470D02*
D03*
X313789D02*
D03*
X320482Y119570D02*
D03*
X313789D02*
D03*
X320482Y154970D02*
D03*
X313789D02*
D03*
X296557Y145752D02*
D03*
X289864D02*
D03*
X313789Y162470D02*
D03*
X320482D02*
D03*
Y113670D02*
D03*
X313789D02*
D03*
X313789Y143170D02*
D03*
X320482D02*
D03*
X313789Y137270D02*
D03*
X320482D02*
D03*
X275364Y145752D02*
D03*
X282057D02*
D03*
X252789Y136870D02*
D03*
X259482D02*
D03*
X252789Y143870D02*
D03*
X259482D02*
D03*
X252789Y149770D02*
D03*
X259482D02*
D03*
X252789Y130970D02*
D03*
X259482D02*
D03*
X281182Y95770D02*
D03*
X274489D02*
D03*
X292289D02*
D03*
X298982D02*
D03*
X289357Y169952D02*
D03*
X282664D02*
D03*
X320482Y149070D02*
D03*
X313789D02*
D03*
X143316Y308535D02*
D03*
X136624D02*
D03*
X143316Y302635D02*
D03*
X136624D02*
D03*
X143316Y296735D02*
D03*
X136624D02*
D03*
X143316Y332135D02*
D03*
X136624D02*
D03*
X119391Y322917D02*
D03*
X112698D02*
D03*
X136624Y339635D02*
D03*
X143316D02*
D03*
Y290835D02*
D03*
X136624D02*
D03*
X136624Y320335D02*
D03*
X143316D02*
D03*
X136624Y314435D02*
D03*
X143316D02*
D03*
X98198Y322917D02*
D03*
X104891D02*
D03*
X75624Y314035D02*
D03*
X82316D02*
D03*
X75624Y321035D02*
D03*
X82316D02*
D03*
X75624Y326935D02*
D03*
X82316D02*
D03*
X75624Y308135D02*
D03*
X82316D02*
D03*
X104016Y272935D02*
D03*
X97324D02*
D03*
X115124D02*
D03*
X121817D02*
D03*
X112191Y347117D02*
D03*
X105498D02*
D03*
X143316Y326235D02*
D03*
X136624D02*
D03*
X320482Y308535D02*
D03*
X313789D02*
D03*
X320482Y302635D02*
D03*
X313789D02*
D03*
X320482Y296735D02*
D03*
X313789D02*
D03*
X320482Y332135D02*
D03*
X313789D02*
D03*
X296557Y322917D02*
D03*
X289864D02*
D03*
X313789Y339635D02*
D03*
X320482D02*
D03*
Y290835D02*
D03*
X313789D02*
D03*
X313789Y320335D02*
D03*
X320482D02*
D03*
X313789Y314435D02*
D03*
X320482D02*
D03*
X275364Y322917D02*
D03*
X282057D02*
D03*
X252789Y314035D02*
D03*
X259482D02*
D03*
X252789Y321035D02*
D03*
X259482D02*
D03*
X252789Y326935D02*
D03*
X259482D02*
D03*
X252789Y308135D02*
D03*
X259482D02*
D03*
X281182Y272935D02*
D03*
X274489D02*
D03*
X292289D02*
D03*
X298982D02*
D03*
X289357Y347117D02*
D03*
X282664D02*
D03*
X320482Y326235D02*
D03*
X313789D02*
D03*
D26*
X85270Y116024D02*
D03*
Y122716D02*
D03*
Y102724D02*
D03*
Y109416D02*
D03*
X53470Y130324D02*
D03*
Y137016D02*
D03*
Y150417D02*
D03*
Y143724D02*
D03*
X67270Y130324D02*
D03*
Y137016D02*
D03*
Y150417D02*
D03*
Y143724D02*
D03*
X262435Y116024D02*
D03*
Y122716D02*
D03*
Y102724D02*
D03*
Y109416D02*
D03*
X230635Y130324D02*
D03*
Y137016D02*
D03*
Y150417D02*
D03*
Y143724D02*
D03*
X244435Y130324D02*
D03*
Y137016D02*
D03*
Y150417D02*
D03*
Y143724D02*
D03*
X85270Y293189D02*
D03*
Y299882D02*
D03*
Y279889D02*
D03*
Y286582D02*
D03*
X53470Y307489D02*
D03*
Y314182D02*
D03*
Y327582D02*
D03*
Y320889D02*
D03*
X67270Y307489D02*
D03*
Y314182D02*
D03*
Y327582D02*
D03*
Y320889D02*
D03*
X262435Y293189D02*
D03*
Y299882D02*
D03*
Y279889D02*
D03*
Y286582D02*
D03*
X230635Y307489D02*
D03*
Y314182D02*
D03*
Y327582D02*
D03*
Y320889D02*
D03*
X244435Y307489D02*
D03*
Y314182D02*
D03*
Y327582D02*
D03*
Y320889D02*
D03*
D27*
X100917Y157852D02*
D03*
X116665D02*
D03*
X278083D02*
D03*
X293831D02*
D03*
X100917Y335017D02*
D03*
X116665D02*
D03*
X278083D02*
D03*
X293831D02*
D03*
D28*
X125712Y131486D02*
D03*
Y108454D02*
D03*
X93428Y108454D02*
D03*
Y131486D02*
D03*
X302877D02*
D03*
Y108454D02*
D03*
X270594Y108454D02*
D03*
Y131486D02*
D03*
X125712Y308651D02*
D03*
Y285620D02*
D03*
X93428Y285620D02*
D03*
Y308651D02*
D03*
X302877D02*
D03*
Y285620D02*
D03*
X270594Y285620D02*
D03*
Y308651D02*
D03*
D29*
X121086Y103828D02*
D03*
X98054D02*
D03*
X121086Y136112D02*
D03*
X98054D02*
D03*
X298251Y103828D02*
D03*
X275220D02*
D03*
X298251Y136112D02*
D03*
X275220D02*
D03*
X121086Y280994D02*
D03*
X98054D02*
D03*
X121086Y313277D02*
D03*
X98054D02*
D03*
X298251Y280994D02*
D03*
X275220D02*
D03*
X298251Y313277D02*
D03*
X275220D02*
D03*
D30*
X101696Y103828D02*
D03*
X104846D02*
D03*
X107995D02*
D03*
X111145D02*
D03*
X114295D02*
D03*
X117444D02*
D03*
Y136112D02*
D03*
X114295D02*
D03*
X111145D02*
D03*
X107995D02*
D03*
X104846D02*
D03*
X101696D02*
D03*
X278861Y103828D02*
D03*
X282011D02*
D03*
X285161D02*
D03*
X288310D02*
D03*
X291460D02*
D03*
X294609D02*
D03*
Y136112D02*
D03*
X291460D02*
D03*
X288310D02*
D03*
X285161D02*
D03*
X282011D02*
D03*
X278861D02*
D03*
X101696Y280994D02*
D03*
X104846D02*
D03*
X107995D02*
D03*
X111145D02*
D03*
X114295D02*
D03*
X117444D02*
D03*
Y313277D02*
D03*
X114295D02*
D03*
X111145D02*
D03*
X107995D02*
D03*
X104846D02*
D03*
X101696D02*
D03*
X278861Y280994D02*
D03*
X282011D02*
D03*
X285161D02*
D03*
X288310D02*
D03*
X291460D02*
D03*
X294609D02*
D03*
Y313277D02*
D03*
X291460D02*
D03*
X288310D02*
D03*
X285161D02*
D03*
X282011D02*
D03*
X278861D02*
D03*
D31*
X125712Y112096D02*
D03*
Y115246D02*
D03*
Y118395D02*
D03*
Y121545D02*
D03*
Y124695D02*
D03*
Y127844D02*
D03*
X93428D02*
D03*
Y124695D02*
D03*
Y121545D02*
D03*
Y118395D02*
D03*
Y115246D02*
D03*
Y112096D02*
D03*
X302877D02*
D03*
Y115246D02*
D03*
Y118395D02*
D03*
Y121545D02*
D03*
Y124695D02*
D03*
Y127844D02*
D03*
X270594D02*
D03*
Y124695D02*
D03*
Y121545D02*
D03*
Y118395D02*
D03*
Y115246D02*
D03*
Y112096D02*
D03*
X125712Y289261D02*
D03*
Y292411D02*
D03*
Y295561D02*
D03*
Y298710D02*
D03*
Y301860D02*
D03*
Y305010D02*
D03*
X93428D02*
D03*
Y301860D02*
D03*
Y298710D02*
D03*
Y295561D02*
D03*
Y292411D02*
D03*
Y289261D02*
D03*
X302877D02*
D03*
Y292411D02*
D03*
Y295561D02*
D03*
Y298710D02*
D03*
Y301860D02*
D03*
Y305010D02*
D03*
X270594D02*
D03*
Y301860D02*
D03*
Y298710D02*
D03*
Y295561D02*
D03*
Y292411D02*
D03*
Y289261D02*
D03*
M02*
