M48
;Layer_Color=9474304
;FILE_FORMAT=2:5
INCH,TZ
;TYPE=PLATED
T1F00S00C0.01600
T2F00S00C0.02953
T3F00S00C0.04331
T5F00S00C0.05000
T6F00S00C0.06299
%
T01
X288310Y107845
X288410Y110945
X298135Y117470
X298035Y130470
X277835Y129670
X285935Y144866
X308989Y144884
Y141384
X308989Y150784
X308535Y156570
Y161870
X325735Y157370
Y153870
Y150370
X326914Y144702
X323982Y138984
X323935Y133070
X326935Y123370
X331435Y122570
Y118970
X324082Y115384
X324082Y109484
X307777Y107569
X307835Y104170
X146916Y109484
X146916Y115384
X149770Y123370
X154270Y122570
Y118970
X146770Y133070
X146817Y138984
X149749Y144702
X148570Y150370
Y153870
Y157370
X131370Y156570
Y161870
X131824Y150784
X131824Y144884
Y141384
X120870Y130470
X120970Y117470
X111245Y110945
X111145Y107845
X130612Y107569
X130670Y104170
X100670Y129670
X108770Y144866
X111145Y285010
X111245Y288110
X120970Y294635
X120870Y307635
X100670Y306835
X108770Y322031
X131824Y322050
Y318550
X131824Y327950
X131370Y333735
Y339035
X148570Y334535
Y331035
Y327535
X149749Y321868
X146817Y316150
X146770Y310235
X149770Y300535
X154270Y299735
Y296135
X146916Y292550
X146916Y286650
X130612Y284734
X130670Y281335
X288310Y285010
X288410Y288110
X298135Y294635
X298035Y307635
X277835Y306835
X285935Y322031
X308989Y322050
Y318550
X308989Y327950
X308535Y333735
Y339035
X325735Y334535
Y331035
Y327535
X326914Y321868
X323982Y316150
X323935Y310235
X326935Y300535
X331435Y299735
Y296135
X324082Y292550
X324082Y286650
X307777Y284734
X307835Y281335
T02
X117356Y54891
X151556
X294521
X328721
Y68670
X294521
X151556
X117356
Y232056
Y245835
X151556
Y232056
X294521
Y245835
X328721
Y232056
T03
X343850Y131907
Y149624
X166685
Y131907
Y309072
Y326789
X343850
Y309072
T05
X70970Y49970
X248135
X257978Y69655
X267821
X238293
X228450
X90655
X80813
X61128
X51285
Y246820
X61128
X80813
X90655
X70970Y227135
X248135
X257978Y246820
X267821
X238293
X228450
T06
X51285Y49970
X90655
X228450
X267821
X248135Y69655
X70970
X51285Y227135
X70970Y246820
X90655Y227135
X228450
X248135Y246820
X267821Y227135
M30
