%FSLAX25Y25*%
%MOIN*%
G70*
G01*
G75*
G04 Layer_Color=16711935*
%ADD10C,0.00500*%
%ADD11C,0.01000*%
%ADD12C,0.01500*%
%ADD13R,0.09843X0.04331*%
%ADD14R,0.03150X0.03150*%
%ADD15C,0.03000*%
%ADD16R,0.06000X0.06500*%
%ADD17R,0.03500X0.10600*%
%ADD18R,0.03500X0.06500*%
%ADD19R,0.03500X0.06700*%
%ADD20C,0.03937*%
G04:AMPARAMS|DCode=21|XSize=98.43mil|YSize=98.43mil|CornerRadius=24.61mil|HoleSize=0mil|Usage=FLASHONLY|Rotation=270.000|XOffset=0mil|YOffset=0mil|HoleType=Round|Shape=RoundedRectangle|*
%AMROUNDEDRECTD21*
21,1,0.09843,0.04921,0,0,270.0*
21,1,0.04921,0.09843,0,0,270.0*
1,1,0.04921,-0.02461,-0.02461*
1,1,0.04921,-0.02461,0.02461*
1,1,0.04921,0.02461,0.02461*
1,1,0.04921,0.02461,-0.02461*
%
%ADD21ROUNDEDRECTD21*%
%ADD22O,0.08000X0.11811*%
%ADD23C,0.05906*%
G04:AMPARAMS|DCode=24|XSize=59.06mil|YSize=59.06mil|CornerRadius=14.76mil|HoleSize=0mil|Usage=FLASHONLY|Rotation=270.000|XOffset=0mil|YOffset=0mil|HoleType=Round|Shape=RoundedRectangle|*
%AMROUNDEDRECTD24*
21,1,0.05906,0.02953,0,0,270.0*
21,1,0.02953,0.05906,0,0,270.0*
1,1,0.02953,-0.01476,-0.01476*
1,1,0.02953,-0.01476,0.01476*
1,1,0.02953,0.01476,0.01476*
1,1,0.02953,0.01476,-0.01476*
%
%ADD24ROUNDEDRECTD24*%
%ADD25C,0.03150*%
%ADD26O,0.17716X0.07874*%
%ADD27C,0.02800*%
%ADD28R,0.03543X0.03937*%
%ADD29R,0.03937X0.03543*%
%ADD30R,0.07874X0.09449*%
G04:AMPARAMS|DCode=31|XSize=31.5mil|YSize=51.18mil|CornerRadius=7.87mil|HoleSize=0mil|Usage=FLASHONLY|Rotation=270.000|XOffset=0mil|YOffset=0mil|HoleType=Round|Shape=RoundedRectangle|*
%AMROUNDEDRECTD31*
21,1,0.03150,0.03543,0,0,270.0*
21,1,0.01575,0.05118,0,0,270.0*
1,1,0.01575,-0.01772,-0.00787*
1,1,0.01575,-0.01772,0.00787*
1,1,0.01575,0.01772,0.00787*
1,1,0.01575,0.01772,-0.00787*
%
%ADD31ROUNDEDRECTD31*%
G04:AMPARAMS|DCode=32|XSize=31.5mil|YSize=51.18mil|CornerRadius=7.87mil|HoleSize=0mil|Usage=FLASHONLY|Rotation=0.000|XOffset=0mil|YOffset=0mil|HoleType=Round|Shape=RoundedRectangle|*
%AMROUNDEDRECTD32*
21,1,0.03150,0.03543,0,0,0.0*
21,1,0.01575,0.05118,0,0,0.0*
1,1,0.01575,0.00787,-0.01772*
1,1,0.01575,-0.00787,-0.01772*
1,1,0.01575,-0.00787,0.01772*
1,1,0.01575,0.00787,0.01772*
%
%ADD32ROUNDEDRECTD32*%
%ADD33O,0.02165X0.05118*%
%ADD34O,0.05118X0.02165*%
%ADD35R,0.04500X0.04000*%
%ADD36R,0.05100X0.03000*%
%ADD37C,0.00100*%
%ADD38C,0.00787*%
%ADD39C,0.04737*%
G04:AMPARAMS|DCode=40|XSize=106.42mil|YSize=106.42mil|CornerRadius=28.61mil|HoleSize=0mil|Usage=FLASHONLY|Rotation=270.000|XOffset=0mil|YOffset=0mil|HoleType=Round|Shape=RoundedRectangle|*
%AMROUNDEDRECTD40*
21,1,0.10642,0.04921,0,0,270.0*
21,1,0.04921,0.10642,0,0,270.0*
1,1,0.05721,-0.02461,-0.02461*
1,1,0.05721,-0.02461,0.02461*
1,1,0.05721,0.02461,0.02461*
1,1,0.05721,0.02461,-0.02461*
%
%ADD40ROUNDEDRECTD40*%
%ADD41O,0.08800X0.12611*%
%ADD42C,0.00394*%
%ADD43C,0.00197*%
D10*
X39370Y44291D02*
G03*
X44291Y39370I4921J0D01*
G01*
X172244D02*
G03*
X177165Y44291I0J4921D01*
G01*
X44291Y177165D02*
G03*
X39370Y172244I0J-4921D01*
G01*
X177165Y172244D02*
G03*
X172244Y177165I-4921J0D01*
G01*
X35433Y44291D02*
G03*
X44291Y35433I8858J0D01*
G01*
X46260Y37402D02*
G03*
X44291Y39370I-1969J0D01*
G01*
Y35433D02*
G03*
X46260Y37402I0J1969D01*
G01*
X39370Y44291D02*
G03*
X37402Y46260I-1969J0D01*
G01*
Y46260D02*
G03*
X35433Y44291I0J-1969D01*
G01*
X170276Y37402D02*
G03*
X172244Y35433I1969J0D01*
G01*
Y39370D02*
G03*
X170276Y37402I0J-1969D01*
G01*
X181102Y44291D02*
G03*
X179134Y46260I-1969J0D01*
G01*
Y46260D02*
G03*
X177165Y44291I0J-1969D01*
G01*
X172244Y35433D02*
G03*
X181102Y44291I0J8858D01*
G01*
X172244Y39370D02*
G03*
X177165Y44291I0J4921D01*
G01*
X179134Y170276D02*
G03*
X181102Y172244I0J1969D01*
G01*
X177165D02*
G03*
X179134Y170276I1969J0D01*
G01*
X172244Y181102D02*
G03*
X170276Y179134I0J-1969D01*
G01*
X170276D02*
G03*
X172244Y177165I1969J0D01*
G01*
X181102Y172244D02*
G03*
X172244Y181102I-8858J0D01*
G01*
X177165Y172244D02*
G03*
X172244Y177165I-4921J0D01*
G01*
X46260Y179134D02*
G03*
X44291Y181102I-1969J0D01*
G01*
Y177165D02*
G03*
X46260Y179134I0J1969D01*
G01*
X35433Y172244D02*
G03*
X37402Y170276I1969J0D01*
G01*
Y170276D02*
G03*
X39370Y172244I0J1969D01*
G01*
X44291Y181102D02*
G03*
X35433Y172244I0J-8858D01*
G01*
X44291Y177165D02*
G03*
X39370Y172244I0J-4921D01*
G01*
X172244Y177165D02*
X172244D01*
X39370Y44291D02*
Y172244D01*
X44291Y177165D02*
X172244D01*
X177165Y44291D02*
Y172244D01*
X44291Y39370D02*
X172244D01*
X216535Y44291D02*
G03*
X221457Y39370I4921J0D01*
G01*
X349410D02*
G03*
X354331Y44291I0J4921D01*
G01*
X221457Y177165D02*
G03*
X216535Y172244I0J-4921D01*
G01*
X354331Y172244D02*
G03*
X349410Y177165I-4921J0D01*
G01*
X212598Y44291D02*
G03*
X221457Y35433I8858J0D01*
G01*
X223425Y37402D02*
G03*
X221457Y39370I-1969J0D01*
G01*
Y35433D02*
G03*
X223425Y37402I0J1969D01*
G01*
X216535Y44291D02*
G03*
X214567Y46260I-1969J0D01*
G01*
Y46260D02*
G03*
X212598Y44291I0J-1969D01*
G01*
X347441Y37402D02*
G03*
X349409Y35433I1969J0D01*
G01*
Y39370D02*
G03*
X347441Y37402I0J-1969D01*
G01*
X358268Y44291D02*
G03*
X356299Y46260I-1969J0D01*
G01*
Y46260D02*
G03*
X354331Y44291I0J-1969D01*
G01*
X349409Y35433D02*
G03*
X358268Y44291I0J8858D01*
G01*
X349409Y39370D02*
G03*
X354331Y44291I0J4921D01*
G01*
X356299Y170276D02*
G03*
X358268Y172244I0J1969D01*
G01*
X354331D02*
G03*
X356299Y170276I1969J0D01*
G01*
X349409Y181102D02*
G03*
X347441Y179134I0J-1969D01*
G01*
X347441D02*
G03*
X349409Y177165I1969J0D01*
G01*
X358268Y172244D02*
G03*
X349409Y181102I-8858J0D01*
G01*
X354331Y172244D02*
G03*
X349409Y177165I-4921J0D01*
G01*
X223425Y179134D02*
G03*
X221457Y181102I-1969J0D01*
G01*
Y177165D02*
G03*
X223425Y179134I0J1969D01*
G01*
X212598Y172244D02*
G03*
X214567Y170276I1969J0D01*
G01*
Y170276D02*
G03*
X216535Y172244I0J1969D01*
G01*
X221457Y181102D02*
G03*
X212598Y172244I0J-8858D01*
G01*
X221457Y177165D02*
G03*
X216535Y172244I0J-4921D01*
G01*
X349409Y177165D02*
X349410D01*
X216535Y44291D02*
Y172244D01*
X221457Y177165D02*
X349409D01*
X354331Y44291D02*
Y172244D01*
X221457Y39370D02*
X349410D01*
X39370Y221457D02*
G03*
X44291Y216535I4921J0D01*
G01*
X172244D02*
G03*
X177165Y221457I0J4921D01*
G01*
X44291Y354331D02*
G03*
X39370Y349409I0J-4921D01*
G01*
X177165Y349410D02*
G03*
X172244Y354331I-4921J0D01*
G01*
X35433Y221457D02*
G03*
X44291Y212598I8858J0D01*
G01*
X46260Y214567D02*
G03*
X44291Y216535I-1969J0D01*
G01*
Y212598D02*
G03*
X46260Y214567I0J1969D01*
G01*
X39370Y221457D02*
G03*
X37402Y223425I-1969J0D01*
G01*
Y223425D02*
G03*
X35433Y221457I0J-1969D01*
G01*
X170276Y214567D02*
G03*
X172244Y212598I1969J0D01*
G01*
Y216535D02*
G03*
X170276Y214567I0J-1969D01*
G01*
X181102Y221457D02*
G03*
X179134Y223425I-1969J0D01*
G01*
Y223425D02*
G03*
X177165Y221457I0J-1969D01*
G01*
X172244Y212598D02*
G03*
X181102Y221457I0J8858D01*
G01*
X172244Y216535D02*
G03*
X177165Y221457I0J4921D01*
G01*
X179134Y347441D02*
G03*
X181102Y349410I0J1969D01*
G01*
X177165D02*
G03*
X179134Y347441I1969J0D01*
G01*
X172244Y358268D02*
G03*
X170276Y356299I0J-1969D01*
G01*
X170276D02*
G03*
X172244Y354331I1969J0D01*
G01*
X181102Y349410D02*
G03*
X172244Y358268I-8858J0D01*
G01*
X177165Y349410D02*
G03*
X172244Y354331I-4921J0D01*
G01*
X46260Y356299D02*
G03*
X44291Y358268I-1969J0D01*
G01*
Y354331D02*
G03*
X46260Y356299I0J1969D01*
G01*
X35433Y349409D02*
G03*
X37402Y347441I1969J0D01*
G01*
Y347441D02*
G03*
X39370Y349409I0J1969D01*
G01*
X44291Y358268D02*
G03*
X35433Y349409I0J-8858D01*
G01*
X44291Y354331D02*
G03*
X39370Y349409I0J-4921D01*
G01*
X172244Y354331D02*
X172244D01*
X39370Y221457D02*
Y349409D01*
X44291Y354331D02*
X172244D01*
X177165Y221457D02*
Y349410D01*
X44291Y216535D02*
X172244D01*
X216535Y221457D02*
G03*
X221457Y216535I4921J0D01*
G01*
X349410D02*
G03*
X354331Y221457I0J4921D01*
G01*
X221457Y354331D02*
G03*
X216535Y349409I0J-4921D01*
G01*
X354331Y349410D02*
G03*
X349410Y354331I-4921J0D01*
G01*
X212598Y221457D02*
G03*
X221457Y212598I8858J0D01*
G01*
X223425Y214567D02*
G03*
X221457Y216535I-1969J0D01*
G01*
Y212598D02*
G03*
X223425Y214567I0J1969D01*
G01*
X216535Y221457D02*
G03*
X214567Y223425I-1969J0D01*
G01*
Y223425D02*
G03*
X212598Y221457I0J-1969D01*
G01*
X347441Y214567D02*
G03*
X349409Y212598I1969J0D01*
G01*
Y216535D02*
G03*
X347441Y214567I0J-1969D01*
G01*
X358268Y221457D02*
G03*
X356299Y223425I-1969J0D01*
G01*
Y223425D02*
G03*
X354331Y221457I0J-1969D01*
G01*
X349409Y212598D02*
G03*
X358268Y221457I0J8858D01*
G01*
X349409Y216535D02*
G03*
X354331Y221457I0J4921D01*
G01*
X356299Y347441D02*
G03*
X358268Y349410I0J1969D01*
G01*
X354331D02*
G03*
X356299Y347441I1969J0D01*
G01*
X349409Y358268D02*
G03*
X347441Y356299I0J-1969D01*
G01*
X347441D02*
G03*
X349409Y354331I1969J0D01*
G01*
X358268Y349410D02*
G03*
X349409Y358268I-8858J0D01*
G01*
X354331Y349410D02*
G03*
X349409Y354331I-4921J0D01*
G01*
X223425Y356299D02*
G03*
X221457Y358268I-1969J0D01*
G01*
Y354331D02*
G03*
X223425Y356299I0J1969D01*
G01*
X212598Y349409D02*
G03*
X214567Y347441I1969J0D01*
G01*
Y347441D02*
G03*
X216535Y349409I0J1969D01*
G01*
X221457Y358268D02*
G03*
X212598Y349409I0J-8858D01*
G01*
X221457Y354331D02*
G03*
X216535Y349409I0J-4921D01*
G01*
X349409Y354331D02*
X349410D01*
X216535Y221457D02*
Y349409D01*
X221457Y354331D02*
X349409D01*
X354331Y221457D02*
Y349410D01*
X221457Y216535D02*
X349410D01*
X-29869Y288695D02*
G03*
X-31837Y286727I0J-1969D01*
G01*
X-31837D02*
G03*
X-29869Y284758I1969J0D01*
G01*
X-24947Y279837D02*
G03*
X-29869Y284758I-4921J0D01*
G01*
X-24947Y279837D02*
G03*
X-22979Y277869I1969J0D01*
G01*
Y277869D02*
G03*
X-21010Y279837I0J1969D01*
G01*
D02*
G03*
X-29869Y288695I-8858J0D01*
G01*
D11*
X220472Y177165D02*
G03*
X216535Y173228I0J-3937D01*
G01*
X220472Y181102D02*
G03*
X212598Y173228I0J-7874D01*
G01*
X226378Y179134D02*
G03*
X224409Y181102I-1969J0D01*
G01*
X224410Y177165D02*
G03*
X226378Y179134I0J1969D01*
G01*
X214567Y167323D02*
G03*
X216535Y169291I0J1969D01*
G01*
X212598Y169291D02*
G03*
X214567Y167323I1969J0D01*
G01*
X354331Y173228D02*
G03*
X350394Y177165I-3937J0D01*
G01*
X358268Y173228D02*
G03*
X350394Y181102I-7874J0D01*
G01*
X356299Y167323D02*
G03*
X358268Y169291I0J1969D01*
G01*
X354331Y169291D02*
G03*
X356299Y167323I1969J0D01*
G01*
X344488Y179134D02*
G03*
X346457Y177165I1969J0D01*
G01*
X346457Y181102D02*
G03*
X344488Y179134I0J-1969D01*
G01*
X350394Y39370D02*
G03*
X354331Y43307I0J3937D01*
G01*
X350394Y35433D02*
G03*
X358268Y43307I0J7874D01*
G01*
X344488Y37402D02*
G03*
X346457Y35433I1969J0D01*
G01*
X346457Y39370D02*
G03*
X344488Y37402I0J-1969D01*
G01*
X356299Y49213D02*
G03*
X354331Y47244I0J-1969D01*
G01*
X358268Y47244D02*
G03*
X356299Y49213I-1969J0D01*
G01*
X216535Y43307D02*
G03*
X220472Y39370I3937J0D01*
G01*
X212598Y43307D02*
G03*
X220472Y35433I7874J0D01*
G01*
X214567Y49213D02*
G03*
X212598Y47244I0J-1969D01*
G01*
X216535Y47244D02*
G03*
X214567Y49213I-1969J0D01*
G01*
X226378Y37402D02*
G03*
X224410Y39370I-1969J0D01*
G01*
X224410Y35433D02*
G03*
X226378Y37402I0J1969D01*
G01*
X43307Y177165D02*
G03*
X39370Y173228I0J-3937D01*
G01*
X43307Y181102D02*
G03*
X35433Y173228I0J-7874D01*
G01*
X49213Y179134D02*
G03*
X47244Y181102I-1969J0D01*
G01*
X47244Y177165D02*
G03*
X49213Y179134I0J1969D01*
G01*
X37402Y167323D02*
G03*
X39370Y169291I0J1969D01*
G01*
X35433Y169291D02*
G03*
X37402Y167323I1969J0D01*
G01*
X177165Y173228D02*
G03*
X173228Y177165I-3937J0D01*
G01*
X181102Y173228D02*
G03*
X173228Y181102I-7874J0D01*
G01*
X179134Y167323D02*
G03*
X181102Y169291I0J1969D01*
G01*
X177165Y169291D02*
G03*
X179134Y167323I1969J0D01*
G01*
X167323Y179134D02*
G03*
X169291Y177165I1969J0D01*
G01*
X169291Y181102D02*
G03*
X167323Y179134I0J-1969D01*
G01*
X173228Y39370D02*
G03*
X177165Y43307I0J3937D01*
G01*
X173228Y35433D02*
G03*
X181102Y43307I0J7874D01*
G01*
X167323Y37402D02*
G03*
X169291Y35433I1969J0D01*
G01*
X169291Y39370D02*
G03*
X167323Y37402I0J-1969D01*
G01*
X179134Y49213D02*
G03*
X177165Y47244I0J-1969D01*
G01*
X181102Y47244D02*
G03*
X179134Y49213I-1969J0D01*
G01*
X39370Y43307D02*
G03*
X43307Y39370I3937J0D01*
G01*
X35433Y43307D02*
G03*
X43307Y35433I7874J0D01*
G01*
X37402Y49213D02*
G03*
X35433Y47244I0J-1969D01*
G01*
X39370Y47244D02*
G03*
X37402Y49213I-1969J0D01*
G01*
X49213Y37402D02*
G03*
X47244Y39370I-1969J0D01*
G01*
X47244Y35433D02*
G03*
X49213Y37402I0J1969D01*
G01*
X220472Y354331D02*
G03*
X216535Y350394I0J-3937D01*
G01*
X220472Y358268D02*
G03*
X212598Y350394I0J-7874D01*
G01*
X226378Y356299D02*
G03*
X224409Y358268I-1969J0D01*
G01*
X224410Y354331D02*
G03*
X226378Y356299I0J1969D01*
G01*
X214567Y344488D02*
G03*
X216535Y346457I0J1969D01*
G01*
X212598Y346457D02*
G03*
X214567Y344488I1969J0D01*
G01*
X354331Y350394D02*
G03*
X350394Y354331I-3937J0D01*
G01*
X358268Y350394D02*
G03*
X350394Y358268I-7874J0D01*
G01*
X356299Y344488D02*
G03*
X358268Y346457I0J1969D01*
G01*
X354331Y346457D02*
G03*
X356299Y344488I1969J0D01*
G01*
X344488Y356299D02*
G03*
X346457Y354331I1969J0D01*
G01*
X346457Y358268D02*
G03*
X344488Y356299I0J-1969D01*
G01*
X350394Y216535D02*
G03*
X354331Y220472I0J3937D01*
G01*
X350394Y212598D02*
G03*
X358268Y220472I0J7874D01*
G01*
X344488Y214567D02*
G03*
X346457Y212598I1969J0D01*
G01*
X346457Y216535D02*
G03*
X344488Y214567I0J-1969D01*
G01*
X356299Y226378D02*
G03*
X354331Y224410I0J-1969D01*
G01*
X358268Y224410D02*
G03*
X356299Y226378I-1969J0D01*
G01*
X216535Y220472D02*
G03*
X220472Y216535I3937J0D01*
G01*
X212598Y220472D02*
G03*
X220472Y212598I7874J0D01*
G01*
X214567Y226378D02*
G03*
X212598Y224409I0J-1969D01*
G01*
X216535Y224410D02*
G03*
X214567Y226378I-1969J0D01*
G01*
X226378Y214567D02*
G03*
X224410Y216535I-1969J0D01*
G01*
X224410Y212598D02*
G03*
X226378Y214567I0J1969D01*
G01*
X47244Y212598D02*
G03*
X49213Y214567I0J1969D01*
G01*
D02*
G03*
X47244Y216535I-1969J0D01*
G01*
X39370Y224410D02*
G03*
X37402Y226378I-1969J0D01*
G01*
D02*
G03*
X35433Y224409I0J-1969D01*
G01*
Y220472D02*
G03*
X43307Y212598I7874J0D01*
G01*
X39370Y220472D02*
G03*
X43307Y216535I3937J0D01*
G01*
X181102Y224410D02*
G03*
X179134Y226378I-1969J0D01*
G01*
D02*
G03*
X177165Y224410I0J-1969D01*
G01*
X169291Y216535D02*
G03*
X167323Y214567I0J-1969D01*
G01*
D02*
G03*
X169291Y212598I1969J0D01*
G01*
X173228D02*
G03*
X181102Y220472I0J7874D01*
G01*
X173228Y216535D02*
G03*
X177165Y220472I0J3937D01*
G01*
X169291Y358268D02*
G03*
X167323Y356299I0J-1969D01*
G01*
D02*
G03*
X169291Y354331I1969J0D01*
G01*
X177165Y346457D02*
G03*
X179134Y344488I1969J0D01*
G01*
D02*
G03*
X181102Y346457I0J1969D01*
G01*
Y350394D02*
G03*
X173228Y358268I-7874J0D01*
G01*
X177165Y350394D02*
G03*
X173228Y354331I-3937J0D01*
G01*
X35433Y346457D02*
G03*
X37402Y344488I1969J0D01*
G01*
D02*
G03*
X39370Y346457I0J1969D01*
G01*
X47244Y354331D02*
G03*
X49213Y356299I0J1969D01*
G01*
D02*
G03*
X47244Y358268I-1969J0D01*
G01*
X43307D02*
G03*
X35433Y350394I0J-7874D01*
G01*
X43307Y354331D02*
G03*
X39370Y350394I0J-3937D01*
G01*
X5247028Y5558168D02*
G03*
X5247145Y5558052I5764850J5764733D01*
G01*
X-25543Y293327D02*
X-22043Y296827D01*
X-29043D02*
X-25543Y293327D01*
Y301327D01*
X443913Y354315D02*
X451913D01*
X443913D02*
X447413Y357815D01*
X443913Y354315D02*
X447413Y350815D01*
X443913Y216520D02*
X447413Y213020D01*
X443913Y216520D02*
X447413Y220020D01*
X443913Y216520D02*
X451913D01*
X443913Y177150D02*
X447413Y173650D01*
X443913Y177150D02*
X447413Y180650D01*
X443913Y177150D02*
X451913D01*
X443913Y39354D02*
X447413Y35854D01*
X443913Y39354D02*
X447413Y42854D01*
X443913Y39354D02*
X451913D01*
X39386Y443913D02*
X42886Y447413D01*
X35886D02*
X39386Y443913D01*
Y451913D01*
X177181Y443913D02*
X180681Y447413D01*
X173681D02*
X177181Y443913D01*
Y451913D01*
X216551Y443913D02*
X220051Y447413D01*
X213051D02*
X216551Y443913D01*
Y451913D01*
X354346Y443913D02*
X357846Y447413D01*
X350847D02*
X354346Y443913D01*
Y451913D01*
X39370Y-48228D02*
Y441929D01*
X354331Y-48228D02*
Y441929D01*
X216535Y-48228D02*
Y441929D01*
X177165Y-48228D02*
Y441929D01*
X-48228Y39370D02*
X441929D01*
X-48228Y177165D02*
X441929D01*
X-48228Y216535D02*
X441929D01*
X220472Y181102D02*
X224409D01*
X220472Y177165D02*
X224410D01*
X216535Y169291D02*
Y173228D01*
X212598Y169291D02*
Y173228D01*
X358268Y169291D02*
Y173228D01*
X354331Y169291D02*
Y173228D01*
X346457Y177165D02*
X350394D01*
X346457Y181102D02*
X350394D01*
X346457Y35433D02*
X350394D01*
X346457Y39370D02*
X350394D01*
X354331Y43307D02*
Y47244D01*
X358268Y43307D02*
Y47244D01*
X212598Y43307D02*
Y47244D01*
X216535Y43307D02*
Y47244D01*
X220472Y39370D02*
X224410D01*
X220472Y35433D02*
X224410D01*
X43307Y181102D02*
X47244D01*
X43307Y177165D02*
X47244D01*
X39370Y169291D02*
Y173228D01*
X35433Y169291D02*
Y173228D01*
X181102Y169291D02*
Y173228D01*
X177165Y169291D02*
Y173228D01*
X169291Y177165D02*
X173228D01*
X169291Y181102D02*
X173228D01*
X169291Y35433D02*
X173228D01*
X169291Y39370D02*
X173228D01*
X177165Y43307D02*
Y47244D01*
X181102Y43307D02*
Y47244D01*
X35433Y43307D02*
Y47244D01*
X39370Y43307D02*
Y47244D01*
X43307Y39370D02*
X47244D01*
X43307Y35433D02*
X47244D01*
X220472Y358268D02*
X224409D01*
X220472Y354331D02*
X224410D01*
X216535Y346457D02*
Y350394D01*
X212598Y346457D02*
Y350394D01*
X358268Y346457D02*
Y350394D01*
X354331Y346457D02*
Y350394D01*
X346457Y354331D02*
X350394D01*
X346457Y358268D02*
X350394D01*
X346457Y212598D02*
X350394D01*
X346457Y216535D02*
X350394D01*
X354331Y220472D02*
Y224410D01*
X358268Y220472D02*
Y224410D01*
X212598Y220472D02*
Y224409D01*
X216535Y220472D02*
Y224410D01*
X220472Y216535D02*
X224410D01*
X220472Y212598D02*
X224410D01*
X43307D02*
X47244D01*
X43307Y216535D02*
X47244D01*
X39370Y220472D02*
Y224410D01*
X35433Y220472D02*
Y224409D01*
X181102Y220472D02*
Y224410D01*
X177165Y220472D02*
Y224410D01*
X169291Y216535D02*
X173228D01*
X169291Y212598D02*
X173228D01*
X169291Y358268D02*
X173228D01*
X169291Y354331D02*
X173228D01*
X177165Y346457D02*
Y350394D01*
X181102Y346457D02*
Y350394D01*
X35433Y346457D02*
Y350394D01*
X39370Y346457D02*
Y350394D01*
X43307Y354331D02*
X47244D01*
X43307Y358268D02*
X47244D01*
X-48228Y354331D02*
X441929D01*
X0Y393701D02*
X393701D01*
Y374016D02*
Y393701D01*
Y0D02*
Y374016D01*
X0Y0D02*
Y393701D01*
Y0D02*
X393701D01*
X-89567Y306102D02*
X-87568D01*
X-88567D01*
Y312100D01*
X-89567Y311101D01*
X-84569Y306102D02*
Y307102D01*
X-83569D01*
Y306102D01*
X-84569D01*
X-79570Y311101D02*
X-78570Y312100D01*
X-76571D01*
X-75572Y311101D01*
Y307102D01*
X-76571Y306102D01*
X-78570D01*
X-79570Y307102D01*
Y311101D01*
X-73572Y306102D02*
Y310101D01*
X-72572D01*
X-71573Y309101D01*
Y306102D01*
Y309101D01*
X-70573Y310101D01*
X-69573Y309101D01*
Y306102D01*
X-67574D02*
Y310101D01*
X-66574D01*
X-65575Y309101D01*
Y306102D01*
Y309101D01*
X-64575Y310101D01*
X-63575Y309101D01*
Y306102D01*
X-55578Y312100D02*
Y306102D01*
X-52579D01*
X-51579Y307102D01*
Y311101D01*
X-52579Y312100D01*
X-55578D01*
X-49580Y310101D02*
Y306102D01*
Y308102D01*
X-48580Y309101D01*
X-47581Y310101D01*
X-46581D01*
X-43582Y306102D02*
X-41583D01*
X-42582D01*
Y310101D01*
X-43582D01*
X-38583Y306102D02*
X-36584D01*
X-37584D01*
Y312100D01*
X-38583D01*
X-33585Y306102D02*
X-31586D01*
X-32585D01*
Y312100D01*
X-33585D01*
X-18590Y311101D02*
X-19590Y312100D01*
X-21589D01*
X-22589Y311101D01*
Y307102D01*
X-21589Y306102D01*
X-19590D01*
X-18590Y307102D01*
X-16590Y310101D02*
Y307102D01*
X-15591Y306102D01*
X-12592D01*
Y310101D01*
X-9593Y311101D02*
Y310101D01*
X-10593D01*
X-8593D01*
X-9593D01*
Y307102D01*
X-8593Y306102D01*
X455709Y357376D02*
Y353377D01*
X457708Y351378D01*
X459707Y353377D01*
Y357376D01*
X461707Y354377D02*
X465705D01*
X471703Y356376D02*
X470704Y357376D01*
X468705D01*
X467705Y356376D01*
Y352378D01*
X468705Y351378D01*
X470704D01*
X471703Y352378D01*
X473703Y355377D02*
Y352378D01*
X474703Y351378D01*
X477702D01*
Y355377D01*
X480701Y356376D02*
Y355377D01*
X479701D01*
X481700D01*
X480701D01*
Y352378D01*
X481700Y351378D01*
X455709Y219581D02*
Y215582D01*
X457708Y213583D01*
X459707Y215582D01*
Y219581D01*
X461707Y216582D02*
X465705D01*
X471703Y218581D02*
X470704Y219581D01*
X468704D01*
X467705Y218581D01*
Y214582D01*
X468704Y213583D01*
X470704D01*
X471703Y214582D01*
X473703Y217581D02*
Y214582D01*
X474703Y213583D01*
X477702D01*
Y217581D01*
X480701Y218581D02*
Y217581D01*
X479701D01*
X481700D01*
X480701D01*
Y214582D01*
X481700Y213583D01*
X455709Y180211D02*
Y176212D01*
X457708Y174213D01*
X459707Y176212D01*
Y180211D01*
X461707Y177212D02*
X465705D01*
X471703Y179211D02*
X470704Y180211D01*
X468704D01*
X467705Y179211D01*
Y175212D01*
X468704Y174213D01*
X470704D01*
X471703Y175212D01*
X473703Y178211D02*
Y175212D01*
X474703Y174213D01*
X477702D01*
Y178211D01*
X480701Y179211D02*
Y178211D01*
X479701D01*
X481700D01*
X480701D01*
Y175212D01*
X481700Y174213D01*
X455709Y42415D02*
Y38417D01*
X457708Y36417D01*
X459707Y38417D01*
Y42415D01*
X461707Y39416D02*
X465705D01*
X471703Y41416D02*
X470704Y42415D01*
X468704D01*
X467705Y41416D01*
Y37417D01*
X468704Y36417D01*
X470704D01*
X471703Y37417D01*
X473703Y40416D02*
Y37417D01*
X474703Y36417D01*
X477702D01*
Y40416D01*
X480701Y41416D02*
Y40416D01*
X479701D01*
X481700D01*
X480701D01*
Y37417D01*
X481700Y36417D01*
X36325Y455709D02*
X40323D01*
X42323Y457708D01*
X40323Y459707D01*
X36325D01*
X39324Y461707D02*
Y465705D01*
X37325Y471703D02*
X36325Y470704D01*
Y468704D01*
X37325Y467705D01*
X41323D01*
X42323Y468704D01*
Y470704D01*
X41323Y471703D01*
X38324Y473703D02*
X41323D01*
X42323Y474703D01*
Y477702D01*
X38324D01*
X37325Y480701D02*
X38324D01*
Y479701D01*
Y481700D01*
Y480701D01*
X41323D01*
X42323Y481700D01*
X174120Y455709D02*
X178119D01*
X180118Y457708D01*
X178119Y459707D01*
X174120D01*
X177119Y461707D02*
Y465705D01*
X175120Y471703D02*
X174120Y470704D01*
Y468704D01*
X175120Y467705D01*
X179118D01*
X180118Y468704D01*
Y470704D01*
X179118Y471703D01*
X176119Y473703D02*
X179118D01*
X180118Y474703D01*
Y477702D01*
X176119D01*
X175120Y480701D02*
X176119D01*
Y479701D01*
Y481700D01*
Y480701D01*
X179118D01*
X180118Y481700D01*
X213490Y455709D02*
X217489D01*
X219488Y457708D01*
X217489Y459707D01*
X213490D01*
X216489Y461707D02*
Y465705D01*
X214490Y471703D02*
X213490Y470704D01*
Y468704D01*
X214490Y467705D01*
X218489D01*
X219488Y468704D01*
Y470704D01*
X218489Y471703D01*
X215490Y473703D02*
X218489D01*
X219488Y474703D01*
Y477702D01*
X215490D01*
X214490Y480701D02*
X215490D01*
Y479701D01*
Y481700D01*
Y480701D01*
X218489D01*
X219488Y481700D01*
X351285Y455709D02*
X355284D01*
X357283Y457708D01*
X355284Y459707D01*
X351285D01*
X354284Y461707D02*
Y465705D01*
X352285Y471703D02*
X351285Y470704D01*
Y468704D01*
X352285Y467705D01*
X356284D01*
X357283Y468704D01*
Y470704D01*
X356284Y471703D01*
X353285Y473703D02*
X356284D01*
X357283Y474703D01*
Y477702D01*
X353285D01*
X352285Y480701D02*
X353285D01*
Y479701D01*
Y481700D01*
Y480701D01*
X356284D01*
X357283Y481700D01*
D42*
X133104Y61780D02*
G03*
X133104Y61780I-15748J0D01*
G01*
X167304D02*
G03*
X167304Y61780I-15748J0D01*
G01*
X101302Y108848D02*
G03*
X101302Y108848I-1969J0D01*
G01*
X177315Y117143D02*
Y164387D01*
X98555Y150273D02*
Y163659D01*
X119027Y150273D02*
Y163659D01*
X98555Y150273D02*
X119027D01*
X98555Y163659D02*
X119027D01*
X95790Y132864D02*
X123350D01*
X95790Y105305D02*
X123350D01*
Y132864D01*
X95790Y105305D02*
Y132864D01*
X310269Y61780D02*
G03*
X310269Y61780I-15748J0D01*
G01*
X344469D02*
G03*
X344469Y61780I-15748J0D01*
G01*
X278468Y108848D02*
G03*
X278468Y108848I-1969J0D01*
G01*
X354480Y117143D02*
Y164387D01*
X275720Y150273D02*
Y163659D01*
X296193Y150273D02*
Y163659D01*
X275720Y150273D02*
X296193D01*
X275720Y163659D02*
X296193D01*
X272956Y132864D02*
X300515D01*
X272956Y105305D02*
X300515D01*
Y132864D01*
X272956Y105305D02*
Y132864D01*
X133104Y238946D02*
G03*
X133104Y238946I-15748J0D01*
G01*
X167304D02*
G03*
X167304Y238946I-15748J0D01*
G01*
X101302Y286013D02*
G03*
X101302Y286013I-1969J0D01*
G01*
X177315Y294309D02*
Y341553D01*
X98555Y327438D02*
Y340824D01*
X119027Y327438D02*
Y340824D01*
X98555Y327438D02*
X119027D01*
X98555Y340824D02*
X119027D01*
X95790Y310029D02*
X123350D01*
X95790Y282470D02*
X123350D01*
Y310029D01*
X95790Y282470D02*
Y310029D01*
X310269Y238946D02*
G03*
X310269Y238946I-15748J0D01*
G01*
X344469D02*
G03*
X344469Y238946I-15748J0D01*
G01*
X278468Y286013D02*
G03*
X278468Y286013I-1969J0D01*
G01*
X354480Y294309D02*
Y341553D01*
X275720Y327438D02*
Y340824D01*
X296193Y327438D02*
Y340824D01*
X275720Y327438D02*
X296193D01*
X275720Y340824D02*
X296193D01*
X272956Y310029D02*
X300515D01*
X272956Y282470D02*
X300515D01*
Y310029D01*
X272956Y282470D02*
Y310029D01*
D43*
X136525Y129054D02*
X138100D01*
X136525Y125314D02*
Y129054D01*
X138100Y125314D02*
Y129054D01*
X136525Y125314D02*
X138100D01*
X141840Y129054D02*
X143415D01*
X141840Y125314D02*
Y129054D01*
Y125314D02*
X143415D01*
Y129054D01*
X138100Y125318D02*
X141840D01*
X138100Y125320D02*
X141840Y125318D01*
X138100Y129050D02*
X141840Y129048D01*
X138100Y129050D02*
X141840Y129048D01*
X136525Y123154D02*
X138100D01*
X136525Y119414D02*
Y123154D01*
X138100Y119414D02*
Y123154D01*
X136525Y119414D02*
X138100D01*
X141840Y123154D02*
X143415D01*
X141840Y119414D02*
Y123154D01*
Y119414D02*
X143415D01*
Y123154D01*
X138100Y119418D02*
X141840D01*
X138100Y119420D02*
X141840Y119418D01*
X138100Y123150D02*
X141840Y123148D01*
X138100Y123150D02*
X141840Y123148D01*
X136525Y117254D02*
X138100D01*
X136525Y113514D02*
Y117254D01*
X138100Y113514D02*
Y117254D01*
X136525Y113514D02*
X138100D01*
X141840Y117254D02*
X143415D01*
X141840Y113514D02*
Y117254D01*
Y113514D02*
X143415D01*
Y117254D01*
X138100Y113518D02*
X141840D01*
X138100Y113520D02*
X141840Y113518D01*
X138100Y117250D02*
X141840Y117248D01*
X138100Y117250D02*
X141840Y117248D01*
X137805Y149091D02*
X142135D01*
X137805Y152477D02*
X142135D01*
Y152556D02*
X143316D01*
X142135Y149013D02*
X143316D01*
Y152556D01*
X142135Y149013D02*
Y152556D01*
X136624D02*
X137805D01*
Y149013D02*
Y152556D01*
X136624Y149013D02*
X137805D01*
X136624D02*
Y152556D01*
X113880Y143173D02*
X118210D01*
X113880Y146559D02*
X118210D01*
Y146638D02*
X119391D01*
X118210Y143095D02*
X119391D01*
Y146638D01*
X118210Y143095D02*
Y146638D01*
X112698D02*
X113880D01*
Y143095D02*
Y146638D01*
X112698Y143095D02*
X113880D01*
X112698D02*
Y146638D01*
X141840Y154714D02*
X143415D01*
Y158454D01*
X141840Y154714D02*
Y158454D01*
X143415D01*
X136525Y154714D02*
X138100D01*
Y158454D01*
X136525D02*
X138100D01*
X136525Y154714D02*
Y158454D01*
X138100Y158450D02*
X141840D01*
X138100D02*
X141840Y158448D01*
X138100Y154720D02*
X141840Y154718D01*
X138100Y154720D02*
X141840Y154718D01*
X137805Y107791D02*
X142135D01*
X137805Y111177D02*
X142135D01*
Y111256D02*
X143316D01*
X142135Y107713D02*
X143316D01*
Y111256D01*
X142135Y107713D02*
Y111256D01*
X136624D02*
X137805D01*
Y107713D02*
Y111256D01*
X136624Y107713D02*
X137805D01*
X136624D02*
Y111256D01*
X83577Y116319D02*
Y120650D01*
X86963Y116319D02*
Y120650D01*
X87042Y115138D02*
Y116319D01*
X83498Y115138D02*
Y116319D01*
Y115138D02*
X87042D01*
X83498Y116319D02*
X87042D01*
Y120650D02*
Y121831D01*
X83498Y120650D02*
X87042D01*
X83498D02*
Y121831D01*
X87042D01*
X83577Y103019D02*
Y107350D01*
X86963Y103019D02*
Y107350D01*
X87042Y101838D02*
Y103019D01*
X83498Y101838D02*
Y103019D01*
Y101838D02*
X87042D01*
X83498Y103019D02*
X87042D01*
Y107350D02*
Y108531D01*
X83498Y107350D02*
X87042D01*
X83498D02*
Y108531D01*
X87042D01*
X137805Y140677D02*
X142135D01*
X137805Y137291D02*
X142135D01*
X136624Y137213D02*
X137805D01*
X136624Y140756D02*
X137805D01*
X136624Y137213D02*
Y140756D01*
X137805Y137213D02*
Y140756D01*
X142135Y137213D02*
X143316D01*
X142135D02*
Y140756D01*
X143316D01*
Y137213D02*
Y140756D01*
X136525Y134940D02*
X138100D01*
X136525Y131200D02*
Y134940D01*
X138100Y131200D02*
Y134940D01*
X136525Y131200D02*
X138100D01*
X141840Y134940D02*
X143415D01*
X141840Y131200D02*
Y134940D01*
Y131200D02*
X143415D01*
Y134940D01*
X138100Y131204D02*
X141840D01*
X138100Y131206D02*
X141840Y131204D01*
X138100Y134936D02*
X141840Y134934D01*
X138100Y134936D02*
X141840Y134934D01*
X99379Y146559D02*
X103710D01*
X99379Y143173D02*
X103710D01*
X98198Y143095D02*
X99379D01*
X98198Y146638D02*
X99379D01*
X98198Y143095D02*
Y146638D01*
X99379Y143095D02*
Y146638D01*
X103710Y143095D02*
X104891D01*
X103710D02*
Y146638D01*
X104891D01*
Y143095D02*
Y146638D01*
X137711Y56740D02*
X139286D01*
X137711Y53000D02*
Y56740D01*
X139286Y53000D02*
Y56740D01*
X137711Y53000D02*
X139286D01*
X143026Y56740D02*
X144601D01*
X143026Y53000D02*
Y56740D01*
Y53000D02*
X144601D01*
Y56740D01*
X139286Y53004D02*
X143026D01*
X139286Y53006D02*
X143026Y53004D01*
X139286Y56736D02*
X143026Y56734D01*
X139286Y56736D02*
X143026Y56734D01*
X129626Y53000D02*
X131201D01*
Y56740D01*
X129626Y53000D02*
Y56740D01*
X131201D01*
X124311Y53000D02*
X125886D01*
Y56740D01*
X124311D02*
X125886D01*
X124311Y53000D02*
Y56740D01*
X125886Y56736D02*
X129626D01*
X125886D02*
X129626Y56734D01*
X125886Y53006D02*
X129626Y53004D01*
X125886Y53006D02*
X129626Y53004D01*
X139826Y82240D02*
Y83815D01*
X136086D02*
X139826D01*
X136086Y82240D02*
X139826D01*
X136086D02*
Y83815D01*
X139826Y76925D02*
Y78500D01*
X136086D02*
X139826D01*
X136086Y76925D02*
Y78500D01*
Y76925D02*
X139826D01*
X136090Y78500D02*
Y82240D01*
Y78500D02*
X136092Y82240D01*
X139820Y78500D02*
X139822Y82240D01*
X139820Y78500D02*
X139822Y82240D01*
X132826D02*
Y83815D01*
X129086D02*
X132826D01*
X129086Y82240D02*
X132826D01*
X129086D02*
Y83815D01*
X132826Y76925D02*
Y78500D01*
X129086D02*
X132826D01*
X129086Y76925D02*
Y78500D01*
Y76925D02*
X132826D01*
X129090Y78500D02*
Y82240D01*
Y78500D02*
X129092Y82240D01*
X132820Y78500D02*
X132822Y82240D01*
X132820Y78500D02*
X132822Y82240D01*
X138991Y66977D02*
X143321D01*
X138991Y70363D02*
X143321D01*
Y70442D02*
X144502D01*
X143321Y66898D02*
X144502D01*
Y70442D01*
X143321Y66898D02*
Y70442D01*
X137810D02*
X138991D01*
Y66898D02*
Y70442D01*
X137810Y66898D02*
X138991D01*
X137810D02*
Y70442D01*
X126926Y82240D02*
Y83815D01*
X123186D02*
X126926D01*
X123186Y82240D02*
X126926D01*
X123186D02*
Y83815D01*
X126926Y76925D02*
Y78500D01*
X123186D02*
X126926D01*
X123186Y76925D02*
Y78500D01*
Y76925D02*
X126926D01*
X123190Y78500D02*
Y82240D01*
Y78500D02*
X123192Y82240D01*
X126920Y78500D02*
X126922Y82240D01*
X126920Y78500D02*
X126922Y82240D01*
X145726D02*
Y83815D01*
X141986D02*
X145726D01*
X141986Y82240D02*
X145726D01*
X141986D02*
Y83815D01*
X145726Y76925D02*
Y78500D01*
X141986D02*
X145726D01*
X141986Y76925D02*
Y78500D01*
Y76925D02*
X145726D01*
X141990Y78500D02*
Y82240D01*
Y78500D02*
X141992Y82240D01*
X145720Y78500D02*
X145722Y82240D01*
X145720Y78500D02*
X145722Y82240D01*
X98505Y93191D02*
X102835D01*
X98505Y96577D02*
X102835D01*
Y96656D02*
X104016D01*
X102835Y93113D02*
X104016D01*
Y96656D01*
X102835Y93113D02*
Y96656D01*
X97324D02*
X98505D01*
Y93113D02*
Y96656D01*
X97324Y93113D02*
X98505D01*
X97324D02*
Y96656D01*
X116305Y96577D02*
X120635D01*
X116305Y93191D02*
X120635D01*
X115124Y93113D02*
X116305D01*
X115124Y96656D02*
X116305D01*
X115124Y93113D02*
Y96656D01*
X116305Y93113D02*
Y96656D01*
X120635Y93113D02*
X121817D01*
X120635D02*
Y96656D01*
X121817D01*
Y93113D02*
Y96656D01*
X137598Y158189D02*
X142322Y158185D01*
X137598Y155039D02*
X142322Y155043D01*
X141928Y158189D02*
X143109D01*
Y155039D02*
Y158189D01*
X142322Y155043D02*
Y158189D01*
X141928Y155039D02*
X143109D01*
X136810D02*
X137991D01*
X136810D02*
Y158189D01*
X137991D01*
X137598Y155039D02*
Y158189D01*
X142318Y155047D02*
Y158181D01*
X137602Y155047D02*
Y158181D01*
X137973Y155047D02*
Y158181D01*
X137602Y155047D02*
X142318D01*
X137602Y158181D02*
X142318D01*
X141947Y155047D02*
Y158181D01*
X105400Y170936D02*
X106975D01*
X105400Y167196D02*
Y170936D01*
X106975Y167196D02*
Y170936D01*
X105400Y167196D02*
X106975D01*
X110715Y170936D02*
X112290D01*
X110715Y167196D02*
Y170936D01*
Y167196D02*
X112290D01*
Y170936D01*
X106975Y167200D02*
X110715D01*
X106975Y167202D02*
X110715Y167200D01*
X106975Y170932D02*
X110715Y170930D01*
X106975Y170932D02*
X110715Y170930D01*
X136525Y146754D02*
X138100D01*
X136525Y143014D02*
Y146754D01*
X138100Y143014D02*
Y146754D01*
X136525Y143014D02*
X138100D01*
X141840Y146754D02*
X143415D01*
X141840Y143014D02*
Y146754D01*
Y143014D02*
X143415D01*
Y146754D01*
X138100Y143018D02*
X141840D01*
X138100Y143020D02*
X141840Y143018D01*
X138100Y146750D02*
X141840Y146748D01*
X138100Y146750D02*
X141840Y146748D01*
X125591Y70363D02*
X129921D01*
X125591Y66977D02*
X129921D01*
X124409Y66898D02*
X125591D01*
X124409Y70442D02*
X125591D01*
X124409Y66898D02*
Y70442D01*
X125591Y66898D02*
Y70442D01*
X129921Y66898D02*
X131102D01*
X129921D02*
Y70442D01*
X131102D01*
Y66898D02*
Y70442D01*
X137608Y163445D02*
X142332Y163441D01*
X137608Y160295D02*
X142332Y160299D01*
X141939Y163445D02*
X143120D01*
Y160295D02*
Y163445D01*
X142332Y160299D02*
Y163445D01*
X141939Y160295D02*
X143120D01*
X136820D02*
X138002D01*
X136820D02*
Y163445D01*
X138002D01*
X137608Y160295D02*
Y163445D01*
X142328Y160303D02*
Y163437D01*
X137612Y160303D02*
Y163437D01*
X137983Y160303D02*
Y163437D01*
X137612Y160303D02*
X142328D01*
X137612Y163437D02*
X142328D01*
X141957Y160303D02*
Y163437D01*
X141840Y160000D02*
X143415D01*
Y163740D01*
X141840Y160000D02*
Y163740D01*
X143415D01*
X136525Y160000D02*
X138100D01*
Y163740D01*
X136525D02*
X138100D01*
X136525Y160000D02*
Y163740D01*
X138100Y163736D02*
X141840D01*
X138100D02*
X141840Y163734D01*
X138100Y160006D02*
X141840Y160004D01*
X138100Y160006D02*
X141840Y160004D01*
X313690Y129054D02*
X315265D01*
X313690Y125314D02*
Y129054D01*
X315265Y125314D02*
Y129054D01*
X313690Y125314D02*
X315265D01*
X319005Y129054D02*
X320580D01*
X319005Y125314D02*
Y129054D01*
Y125314D02*
X320580D01*
Y129054D01*
X315265Y125318D02*
X319005D01*
X315265Y125320D02*
X319005Y125318D01*
X315265Y129050D02*
X319005Y129048D01*
X315265Y129050D02*
X319005Y129048D01*
X313690Y123154D02*
X315265D01*
X313690Y119414D02*
Y123154D01*
X315265Y119414D02*
Y123154D01*
X313690Y119414D02*
X315265D01*
X319005Y123154D02*
X320580D01*
X319005Y119414D02*
Y123154D01*
Y119414D02*
X320580D01*
Y123154D01*
X315265Y119418D02*
X319005D01*
X315265Y119420D02*
X319005Y119418D01*
X315265Y123150D02*
X319005Y123148D01*
X315265Y123150D02*
X319005Y123148D01*
X313690Y117254D02*
X315265D01*
X313690Y113514D02*
Y117254D01*
X315265Y113514D02*
Y117254D01*
X313690Y113514D02*
X315265D01*
X319005Y117254D02*
X320580D01*
X319005Y113514D02*
Y117254D01*
Y113514D02*
X320580D01*
Y117254D01*
X315265Y113518D02*
X319005D01*
X315265Y113520D02*
X319005Y113518D01*
X315265Y117250D02*
X319005Y117248D01*
X315265Y117250D02*
X319005Y117248D01*
X314970Y149091D02*
X319301D01*
X314970Y152477D02*
X319301D01*
Y152556D02*
X320482D01*
X319301Y149013D02*
X320482D01*
Y152556D01*
X319301Y149013D02*
Y152556D01*
X313789D02*
X314970D01*
Y149013D02*
Y152556D01*
X313789Y149013D02*
X314970D01*
X313789D02*
Y152556D01*
X291045Y143173D02*
X295376D01*
X291045Y146559D02*
X295376D01*
Y146638D02*
X296557D01*
X295376Y143095D02*
X296557D01*
Y146638D01*
X295376Y143095D02*
Y146638D01*
X289864D02*
X291045D01*
Y143095D02*
Y146638D01*
X289864Y143095D02*
X291045D01*
X289864D02*
Y146638D01*
X319005Y154714D02*
X320580D01*
Y158454D01*
X319005Y154714D02*
Y158454D01*
X320580D01*
X313690Y154714D02*
X315265D01*
Y158454D01*
X313690D02*
X315265D01*
X313690Y154714D02*
Y158454D01*
X315265Y158450D02*
X319005D01*
X315265D02*
X319005Y158448D01*
X315265Y154720D02*
X319005Y154718D01*
X315265Y154720D02*
X319005Y154718D01*
X314970Y107791D02*
X319301D01*
X314970Y111177D02*
X319301D01*
Y111256D02*
X320482D01*
X319301Y107713D02*
X320482D01*
Y111256D01*
X319301Y107713D02*
Y111256D01*
X313789D02*
X314970D01*
Y107713D02*
Y111256D01*
X313789Y107713D02*
X314970D01*
X313789D02*
Y111256D01*
X260742Y116319D02*
Y120650D01*
X264128Y116319D02*
Y120650D01*
X264207Y115138D02*
Y116319D01*
X260664Y115138D02*
Y116319D01*
Y115138D02*
X264207D01*
X260664Y116319D02*
X264207D01*
Y120650D02*
Y121831D01*
X260664Y120650D02*
X264207D01*
X260664D02*
Y121831D01*
X264207D01*
X260742Y103019D02*
Y107350D01*
X264128Y103019D02*
Y107350D01*
X264207Y101838D02*
Y103019D01*
X260664Y101838D02*
Y103019D01*
Y101838D02*
X264207D01*
X260664Y103019D02*
X264207D01*
Y107350D02*
Y108531D01*
X260664Y107350D02*
X264207D01*
X260664D02*
Y108531D01*
X264207D01*
X314970Y140677D02*
X319301D01*
X314970Y137291D02*
X319301D01*
X313789Y137213D02*
X314970D01*
X313789Y140756D02*
X314970D01*
X313789Y137213D02*
Y140756D01*
X314970Y137213D02*
Y140756D01*
X319301Y137213D02*
X320482D01*
X319301D02*
Y140756D01*
X320482D01*
Y137213D02*
Y140756D01*
X313690Y134940D02*
X315265D01*
X313690Y131200D02*
Y134940D01*
X315265Y131200D02*
Y134940D01*
X313690Y131200D02*
X315265D01*
X319005Y134940D02*
X320580D01*
X319005Y131200D02*
Y134940D01*
Y131200D02*
X320580D01*
Y134940D01*
X315265Y131204D02*
X319005D01*
X315265Y131206D02*
X319005Y131204D01*
X315265Y134936D02*
X319005Y134934D01*
X315265Y134936D02*
X319005Y134934D01*
X276545Y146559D02*
X280876D01*
X276545Y143173D02*
X280876D01*
X275364Y143095D02*
X276545D01*
X275364Y146638D02*
X276545D01*
X275364Y143095D02*
Y146638D01*
X276545Y143095D02*
Y146638D01*
X280876Y143095D02*
X282057D01*
X280876D02*
Y146638D01*
X282057D01*
Y143095D02*
Y146638D01*
X314876Y56740D02*
X316451D01*
X314876Y53000D02*
Y56740D01*
X316451Y53000D02*
Y56740D01*
X314876Y53000D02*
X316451D01*
X320191Y56740D02*
X321766D01*
X320191Y53000D02*
Y56740D01*
Y53000D02*
X321766D01*
Y56740D01*
X316451Y53004D02*
X320191D01*
X316451Y53006D02*
X320191Y53004D01*
X316451Y56736D02*
X320191Y56734D01*
X316451Y56736D02*
X320191Y56734D01*
X306791Y53000D02*
X308366D01*
Y56740D01*
X306791Y53000D02*
Y56740D01*
X308366D01*
X301476Y53000D02*
X303051D01*
Y56740D01*
X301476D02*
X303051D01*
X301476Y53000D02*
Y56740D01*
X303051Y56736D02*
X306791D01*
X303051D02*
X306791Y56734D01*
X303051Y53006D02*
X306791Y53004D01*
X303051Y53006D02*
X306791Y53004D01*
X316991Y82240D02*
Y83815D01*
X313251D02*
X316991D01*
X313251Y82240D02*
X316991D01*
X313251D02*
Y83815D01*
X316991Y76925D02*
Y78500D01*
X313251D02*
X316991D01*
X313251Y76925D02*
Y78500D01*
Y76925D02*
X316991D01*
X313255Y78500D02*
Y82240D01*
Y78500D02*
X313257Y82240D01*
X316986Y78500D02*
X316987Y82240D01*
X316986Y78500D02*
X316987Y82240D01*
X309991D02*
Y83815D01*
X306251D02*
X309991D01*
X306251Y82240D02*
X309991D01*
X306251D02*
Y83815D01*
X309991Y76925D02*
Y78500D01*
X306251D02*
X309991D01*
X306251Y76925D02*
Y78500D01*
Y76925D02*
X309991D01*
X306255Y78500D02*
Y82240D01*
Y78500D02*
X306257Y82240D01*
X309985Y78500D02*
X309987Y82240D01*
X309985Y78500D02*
X309987Y82240D01*
X316156Y66977D02*
X320487D01*
X316156Y70363D02*
X320487D01*
Y70442D02*
X321668D01*
X320487Y66898D02*
X321668D01*
Y70442D01*
X320487Y66898D02*
Y70442D01*
X314975D02*
X316156D01*
Y66898D02*
Y70442D01*
X314975Y66898D02*
X316156D01*
X314975D02*
Y70442D01*
X304091Y82240D02*
Y83815D01*
X300351D02*
X304091D01*
X300351Y82240D02*
X304091D01*
X300351D02*
Y83815D01*
X304091Y76925D02*
Y78500D01*
X300351D02*
X304091D01*
X300351Y76925D02*
Y78500D01*
Y76925D02*
X304091D01*
X300355Y78500D02*
Y82240D01*
Y78500D02*
X300357Y82240D01*
X304085Y78500D02*
X304087Y82240D01*
X304085Y78500D02*
X304087Y82240D01*
X322891D02*
Y83815D01*
X319151D02*
X322891D01*
X319151Y82240D02*
X322891D01*
X319151D02*
Y83815D01*
X322891Y76925D02*
Y78500D01*
X319151D02*
X322891D01*
X319151Y76925D02*
Y78500D01*
Y76925D02*
X322891D01*
X319155Y78500D02*
Y82240D01*
Y78500D02*
X319157Y82240D01*
X322885Y78500D02*
X322887Y82240D01*
X322885Y78500D02*
X322887Y82240D01*
X275670Y93191D02*
X280001D01*
X275670Y96577D02*
X280001D01*
Y96656D02*
X281182D01*
X280001Y93113D02*
X281182D01*
Y96656D01*
X280001Y93113D02*
Y96656D01*
X274489D02*
X275670D01*
Y93113D02*
Y96656D01*
X274489Y93113D02*
X275670D01*
X274489D02*
Y96656D01*
X293470Y96577D02*
X297801D01*
X293470Y93191D02*
X297801D01*
X292289Y93113D02*
X293470D01*
X292289Y96656D02*
X293470D01*
X292289Y93113D02*
Y96656D01*
X293470Y93113D02*
Y96656D01*
X297801Y93113D02*
X298982D01*
X297801D02*
Y96656D01*
X298982D01*
Y93113D02*
Y96656D01*
X314763Y158189D02*
X319487Y158185D01*
X314763Y155039D02*
X319487Y155043D01*
X319094Y158189D02*
X320275D01*
Y155039D02*
Y158189D01*
X319487Y155043D02*
Y158189D01*
X319094Y155039D02*
X320275D01*
X313976D02*
X315157D01*
X313976D02*
Y158189D01*
X315157D01*
X314763Y155039D02*
Y158189D01*
X319483Y155047D02*
Y158181D01*
X314767Y155047D02*
Y158181D01*
X315138Y155047D02*
Y158181D01*
X314767Y155047D02*
X319483D01*
X314767Y158181D02*
X319483D01*
X319112Y155047D02*
Y158181D01*
X282565Y170936D02*
X284140D01*
X282565Y167196D02*
Y170936D01*
X284140Y167196D02*
Y170936D01*
X282565Y167196D02*
X284140D01*
X287880Y170936D02*
X289455D01*
X287880Y167196D02*
Y170936D01*
Y167196D02*
X289455D01*
Y170936D01*
X284140Y167200D02*
X287880D01*
X284140Y167202D02*
X287880Y167200D01*
X284140Y170932D02*
X287880Y170930D01*
X284140Y170932D02*
X287880Y170930D01*
X313690Y146754D02*
X315265D01*
X313690Y143014D02*
Y146754D01*
X315265Y143014D02*
Y146754D01*
X313690Y143014D02*
X315265D01*
X319005Y146754D02*
X320580D01*
X319005Y143014D02*
Y146754D01*
Y143014D02*
X320580D01*
Y146754D01*
X315265Y143018D02*
X319005D01*
X315265Y143020D02*
X319005Y143018D01*
X315265Y146750D02*
X319005Y146748D01*
X315265Y146750D02*
X319005Y146748D01*
X302756Y70363D02*
X307087D01*
X302756Y66977D02*
X307087D01*
X301575Y66898D02*
X302756D01*
X301575Y70442D02*
X302756D01*
X301575Y66898D02*
Y70442D01*
X302756Y66898D02*
Y70442D01*
X307087Y66898D02*
X308268D01*
X307087D02*
Y70442D01*
X308268D01*
Y66898D02*
Y70442D01*
X314773Y163445D02*
X319498Y163441D01*
X314773Y160295D02*
X319498Y160299D01*
X319104Y163445D02*
X320285D01*
Y160295D02*
Y163445D01*
X319498Y160299D02*
Y163445D01*
X319104Y160295D02*
X320285D01*
X313986D02*
X315167D01*
X313986D02*
Y163445D01*
X315167D01*
X314773Y160295D02*
Y163445D01*
X319494Y160303D02*
Y163437D01*
X314777Y160303D02*
Y163437D01*
X315148Y160303D02*
Y163437D01*
X314777Y160303D02*
X319494D01*
X314777Y163437D02*
X319494D01*
X319123Y160303D02*
Y163437D01*
X319005Y160000D02*
X320580D01*
Y163740D01*
X319005Y160000D02*
Y163740D01*
X320580D01*
X313690Y160000D02*
X315265D01*
Y163740D01*
X313690D02*
X315265D01*
X313690Y160000D02*
Y163740D01*
X315265Y163736D02*
X319005D01*
X315265D02*
X319005Y163734D01*
X315265Y160006D02*
X319005Y160004D01*
X315265Y160006D02*
X319005Y160004D01*
X136525Y306220D02*
X138100D01*
X136525Y302480D02*
Y306220D01*
X138100Y302480D02*
Y306220D01*
X136525Y302480D02*
X138100D01*
X141840Y306220D02*
X143415D01*
X141840Y302480D02*
Y306220D01*
Y302480D02*
X143415D01*
Y306220D01*
X138100Y302483D02*
X141840D01*
X138100Y302485D02*
X141840Y302483D01*
X138100Y306216D02*
X141840Y306214D01*
X138100Y306216D02*
X141840Y306214D01*
X136525Y300320D02*
X138100D01*
X136525Y296580D02*
Y300320D01*
X138100Y296580D02*
Y300320D01*
X136525Y296580D02*
X138100D01*
X141840Y300320D02*
X143415D01*
X141840Y296580D02*
Y300320D01*
Y296580D02*
X143415D01*
Y300320D01*
X138100Y296583D02*
X141840D01*
X138100Y296585D02*
X141840Y296583D01*
X138100Y300316D02*
X141840Y300314D01*
X138100Y300316D02*
X141840Y300314D01*
X136525Y294420D02*
X138100D01*
X136525Y290680D02*
Y294420D01*
X138100Y290680D02*
Y294420D01*
X136525Y290680D02*
X138100D01*
X141840Y294420D02*
X143415D01*
X141840Y290680D02*
Y294420D01*
Y290680D02*
X143415D01*
Y294420D01*
X138100Y290683D02*
X141840D01*
X138100Y290685D02*
X141840Y290683D01*
X138100Y294416D02*
X141840Y294414D01*
X138100Y294416D02*
X141840Y294414D01*
X137805Y326257D02*
X142135D01*
X137805Y329643D02*
X142135D01*
Y329721D02*
X143316D01*
X142135Y326178D02*
X143316D01*
Y329721D01*
X142135Y326178D02*
Y329721D01*
X136624D02*
X137805D01*
Y326178D02*
Y329721D01*
X136624Y326178D02*
X137805D01*
X136624D02*
Y329721D01*
X113880Y320339D02*
X118210D01*
X113880Y323724D02*
X118210D01*
Y323803D02*
X119391D01*
X118210Y320260D02*
X119391D01*
Y323803D01*
X118210Y320260D02*
Y323803D01*
X112698D02*
X113880D01*
Y320260D02*
Y323803D01*
X112698Y320260D02*
X113880D01*
X112698D02*
Y323803D01*
X141840Y331879D02*
X143415D01*
Y335620D01*
X141840Y331879D02*
Y335620D01*
X143415D01*
X136525Y331879D02*
X138100D01*
Y335620D01*
X136525D02*
X138100D01*
X136525Y331879D02*
Y335620D01*
X138100Y335616D02*
X141840D01*
X138100D02*
X141840Y335614D01*
X138100Y331885D02*
X141840Y331883D01*
X138100Y331885D02*
X141840Y331883D01*
X137805Y284957D02*
X142135D01*
X137805Y288342D02*
X142135D01*
Y288421D02*
X143316D01*
X142135Y284878D02*
X143316D01*
Y288421D01*
X142135Y284878D02*
Y288421D01*
X136624D02*
X137805D01*
Y284878D02*
Y288421D01*
X136624Y284878D02*
X137805D01*
X136624D02*
Y288421D01*
X83577Y293484D02*
Y297815D01*
X86963Y293484D02*
Y297815D01*
X87042Y292303D02*
Y293484D01*
X83498Y292303D02*
Y293484D01*
Y292303D02*
X87042D01*
X83498Y293484D02*
X87042D01*
Y297815D02*
Y298996D01*
X83498Y297815D02*
X87042D01*
X83498D02*
Y298996D01*
X87042D01*
X83577Y280184D02*
Y284515D01*
X86963Y280184D02*
Y284515D01*
X87042Y279003D02*
Y280184D01*
X83498Y279003D02*
Y280184D01*
Y279003D02*
X87042D01*
X83498Y280184D02*
X87042D01*
Y284515D02*
Y285696D01*
X83498Y284515D02*
X87042D01*
X83498D02*
Y285696D01*
X87042D01*
X137805Y317843D02*
X142135D01*
X137805Y314457D02*
X142135D01*
X136624Y314378D02*
X137805D01*
X136624Y317921D02*
X137805D01*
X136624Y314378D02*
Y317921D01*
X137805Y314378D02*
Y317921D01*
X142135Y314378D02*
X143316D01*
X142135D02*
Y317921D01*
X143316D01*
Y314378D02*
Y317921D01*
X136525Y312105D02*
X138100D01*
X136525Y308365D02*
Y312105D01*
X138100Y308365D02*
Y312105D01*
X136525Y308365D02*
X138100D01*
X141840Y312105D02*
X143415D01*
X141840Y308365D02*
Y312105D01*
Y308365D02*
X143415D01*
Y312105D01*
X138100Y308369D02*
X141840D01*
X138100Y308371D02*
X141840Y308369D01*
X138100Y312102D02*
X141840Y312100D01*
X138100Y312102D02*
X141840Y312100D01*
X99379Y323724D02*
X103710D01*
X99379Y320339D02*
X103710D01*
X98198Y320260D02*
X99379D01*
X98198Y323803D02*
X99379D01*
X98198Y320260D02*
Y323803D01*
X99379Y320260D02*
Y323803D01*
X103710Y320260D02*
X104891D01*
X103710D02*
Y323803D01*
X104891D01*
Y320260D02*
Y323803D01*
X137711Y233906D02*
X139286D01*
X137711Y230165D02*
Y233906D01*
X139286Y230165D02*
Y233906D01*
X137711Y230165D02*
X139286D01*
X143026Y233906D02*
X144601D01*
X143026Y230165D02*
Y233906D01*
Y230165D02*
X144601D01*
Y233906D01*
X139286Y230169D02*
X143026D01*
X139286Y230171D02*
X143026Y230169D01*
X139286Y233902D02*
X143026Y233900D01*
X139286Y233902D02*
X143026Y233900D01*
X129626Y230165D02*
X131201D01*
Y233906D01*
X129626Y230165D02*
Y233906D01*
X131201D01*
X124311Y230165D02*
X125886D01*
Y233906D01*
X124311D02*
X125886D01*
X124311Y230165D02*
Y233906D01*
X125886Y233902D02*
X129626D01*
X125886D02*
X129626Y233900D01*
X125886Y230171D02*
X129626Y230169D01*
X125886Y230171D02*
X129626Y230169D01*
X139826Y259405D02*
Y260980D01*
X136086D02*
X139826D01*
X136086Y259405D02*
X139826D01*
X136086D02*
Y260980D01*
X139826Y254090D02*
Y255665D01*
X136086D02*
X139826D01*
X136086Y254090D02*
Y255665D01*
Y254090D02*
X139826D01*
X136090Y255665D02*
Y259405D01*
Y255665D02*
X136092Y259405D01*
X139820Y255665D02*
X139822Y259405D01*
X139820Y255665D02*
X139822Y259405D01*
X132826D02*
Y260980D01*
X129086D02*
X132826D01*
X129086Y259405D02*
X132826D01*
X129086D02*
Y260980D01*
X132826Y254090D02*
Y255665D01*
X129086D02*
X132826D01*
X129086Y254090D02*
Y255665D01*
Y254090D02*
X132826D01*
X129090Y255665D02*
Y259405D01*
Y255665D02*
X129092Y259405D01*
X132820Y255665D02*
X132822Y259405D01*
X132820Y255665D02*
X132822Y259405D01*
X138991Y244143D02*
X143321D01*
X138991Y247528D02*
X143321D01*
Y247607D02*
X144502D01*
X143321Y244064D02*
X144502D01*
Y247607D01*
X143321Y244064D02*
Y247607D01*
X137810D02*
X138991D01*
Y244064D02*
Y247607D01*
X137810Y244064D02*
X138991D01*
X137810D02*
Y247607D01*
X126926Y259405D02*
Y260980D01*
X123186D02*
X126926D01*
X123186Y259405D02*
X126926D01*
X123186D02*
Y260980D01*
X126926Y254090D02*
Y255665D01*
X123186D02*
X126926D01*
X123186Y254090D02*
Y255665D01*
Y254090D02*
X126926D01*
X123190Y255665D02*
Y259405D01*
Y255665D02*
X123192Y259405D01*
X126920Y255665D02*
X126922Y259405D01*
X126920Y255665D02*
X126922Y259405D01*
X145726D02*
Y260980D01*
X141986D02*
X145726D01*
X141986Y259405D02*
X145726D01*
X141986D02*
Y260980D01*
X145726Y254090D02*
Y255665D01*
X141986D02*
X145726D01*
X141986Y254090D02*
Y255665D01*
Y254090D02*
X145726D01*
X141990Y255665D02*
Y259405D01*
Y255665D02*
X141992Y259405D01*
X145720Y255665D02*
X145722Y259405D01*
X145720Y255665D02*
X145722Y259405D01*
X98505Y270357D02*
X102835D01*
X98505Y273743D02*
X102835D01*
Y273821D02*
X104016D01*
X102835Y270278D02*
X104016D01*
Y273821D01*
X102835Y270278D02*
Y273821D01*
X97324D02*
X98505D01*
Y270278D02*
Y273821D01*
X97324Y270278D02*
X98505D01*
X97324D02*
Y273821D01*
X116305Y273743D02*
X120635D01*
X116305Y270357D02*
X120635D01*
X115124Y270278D02*
X116305D01*
X115124Y273821D02*
X116305D01*
X115124Y270278D02*
Y273821D01*
X116305Y270278D02*
Y273821D01*
X120635Y270278D02*
X121817D01*
X120635D02*
Y273821D01*
X121817D01*
Y270278D02*
Y273821D01*
X137598Y335354D02*
X142322Y335350D01*
X137598Y332205D02*
X142322Y332209D01*
X141928Y335354D02*
X143109D01*
Y332205D02*
Y335354D01*
X142322Y332209D02*
Y335354D01*
X141928Y332205D02*
X143109D01*
X136810D02*
X137991D01*
X136810D02*
Y335354D01*
X137991D01*
X137598Y332205D02*
Y335354D01*
X142318Y332213D02*
Y335346D01*
X137602Y332213D02*
Y335346D01*
X137973Y332213D02*
Y335346D01*
X137602Y332213D02*
X142318D01*
X137602Y335346D02*
X142318D01*
X141947Y332213D02*
Y335346D01*
X105400Y348101D02*
X106975D01*
X105400Y344361D02*
Y348101D01*
X106975Y344361D02*
Y348101D01*
X105400Y344361D02*
X106975D01*
X110715Y348101D02*
X112290D01*
X110715Y344361D02*
Y348101D01*
Y344361D02*
X112290D01*
Y348101D01*
X106975Y344365D02*
X110715D01*
X106975Y344367D02*
X110715Y344365D01*
X106975Y348098D02*
X110715Y348096D01*
X106975Y348098D02*
X110715Y348096D01*
X136525Y323920D02*
X138100D01*
X136525Y320180D02*
Y323920D01*
X138100Y320180D02*
Y323920D01*
X136525Y320180D02*
X138100D01*
X141840Y323920D02*
X143415D01*
X141840Y320180D02*
Y323920D01*
Y320180D02*
X143415D01*
Y323920D01*
X138100Y320183D02*
X141840D01*
X138100Y320185D02*
X141840Y320183D01*
X138100Y323916D02*
X141840Y323914D01*
X138100Y323916D02*
X141840Y323914D01*
X125591Y247528D02*
X129921D01*
X125591Y244143D02*
X129921D01*
X124409Y244064D02*
X125591D01*
X124409Y247607D02*
X125591D01*
X124409Y244064D02*
Y247607D01*
X125591Y244064D02*
Y247607D01*
X129921Y244064D02*
X131102D01*
X129921D02*
Y247607D01*
X131102D01*
Y244064D02*
Y247607D01*
X137608Y340610D02*
X142332Y340606D01*
X137608Y337461D02*
X142332Y337465D01*
X141939Y340610D02*
X143120D01*
Y337461D02*
Y340610D01*
X142332Y337465D02*
Y340610D01*
X141939Y337461D02*
X143120D01*
X136820D02*
X138002D01*
X136820D02*
Y340610D01*
X138002D01*
X137608Y337461D02*
Y340610D01*
X142328Y337469D02*
Y340602D01*
X137612Y337469D02*
Y340602D01*
X137983Y337469D02*
Y340602D01*
X137612Y337469D02*
X142328D01*
X137612Y340602D02*
X142328D01*
X141957Y337469D02*
Y340602D01*
X141840Y337165D02*
X143415D01*
Y340905D01*
X141840Y337165D02*
Y340905D01*
X143415D01*
X136525Y337165D02*
X138100D01*
Y340905D01*
X136525D02*
X138100D01*
X136525Y337165D02*
Y340905D01*
X138100Y340902D02*
X141840D01*
X138100D02*
X141840Y340900D01*
X138100Y337171D02*
X141840Y337169D01*
X138100Y337171D02*
X141840Y337169D01*
X313690Y306220D02*
X315265D01*
X313690Y302480D02*
Y306220D01*
X315265Y302480D02*
Y306220D01*
X313690Y302480D02*
X315265D01*
X319005Y306220D02*
X320580D01*
X319005Y302480D02*
Y306220D01*
Y302480D02*
X320580D01*
Y306220D01*
X315265Y302483D02*
X319005D01*
X315265Y302485D02*
X319005Y302483D01*
X315265Y306216D02*
X319005Y306214D01*
X315265Y306216D02*
X319005Y306214D01*
X313690Y300320D02*
X315265D01*
X313690Y296580D02*
Y300320D01*
X315265Y296580D02*
Y300320D01*
X313690Y296580D02*
X315265D01*
X319005Y300320D02*
X320580D01*
X319005Y296580D02*
Y300320D01*
Y296580D02*
X320580D01*
Y300320D01*
X315265Y296583D02*
X319005D01*
X315265Y296585D02*
X319005Y296583D01*
X315265Y300316D02*
X319005Y300314D01*
X315265Y300316D02*
X319005Y300314D01*
X313690Y294420D02*
X315265D01*
X313690Y290680D02*
Y294420D01*
X315265Y290680D02*
Y294420D01*
X313690Y290680D02*
X315265D01*
X319005Y294420D02*
X320580D01*
X319005Y290680D02*
Y294420D01*
Y290680D02*
X320580D01*
Y294420D01*
X315265Y290683D02*
X319005D01*
X315265Y290685D02*
X319005Y290683D01*
X315265Y294416D02*
X319005Y294414D01*
X315265Y294416D02*
X319005Y294414D01*
X314970Y326257D02*
X319301D01*
X314970Y329643D02*
X319301D01*
Y329721D02*
X320482D01*
X319301Y326178D02*
X320482D01*
Y329721D01*
X319301Y326178D02*
Y329721D01*
X313789D02*
X314970D01*
Y326178D02*
Y329721D01*
X313789Y326178D02*
X314970D01*
X313789D02*
Y329721D01*
X291045Y320339D02*
X295376D01*
X291045Y323724D02*
X295376D01*
Y323803D02*
X296557D01*
X295376Y320260D02*
X296557D01*
Y323803D01*
X295376Y320260D02*
Y323803D01*
X289864D02*
X291045D01*
Y320260D02*
Y323803D01*
X289864Y320260D02*
X291045D01*
X289864D02*
Y323803D01*
X319005Y331879D02*
X320580D01*
Y335620D01*
X319005Y331879D02*
Y335620D01*
X320580D01*
X313690Y331879D02*
X315265D01*
Y335620D01*
X313690D02*
X315265D01*
X313690Y331879D02*
Y335620D01*
X315265Y335616D02*
X319005D01*
X315265D02*
X319005Y335614D01*
X315265Y331885D02*
X319005Y331883D01*
X315265Y331885D02*
X319005Y331883D01*
X314970Y284957D02*
X319301D01*
X314970Y288342D02*
X319301D01*
Y288421D02*
X320482D01*
X319301Y284878D02*
X320482D01*
Y288421D01*
X319301Y284878D02*
Y288421D01*
X313789D02*
X314970D01*
Y284878D02*
Y288421D01*
X313789Y284878D02*
X314970D01*
X313789D02*
Y288421D01*
X260742Y293484D02*
Y297815D01*
X264128Y293484D02*
Y297815D01*
X264207Y292303D02*
Y293484D01*
X260664Y292303D02*
Y293484D01*
Y292303D02*
X264207D01*
X260664Y293484D02*
X264207D01*
Y297815D02*
Y298996D01*
X260664Y297815D02*
X264207D01*
X260664D02*
Y298996D01*
X264207D01*
X260742Y280184D02*
Y284515D01*
X264128Y280184D02*
Y284515D01*
X264207Y279003D02*
Y280184D01*
X260664Y279003D02*
Y280184D01*
Y279003D02*
X264207D01*
X260664Y280184D02*
X264207D01*
Y284515D02*
Y285696D01*
X260664Y284515D02*
X264207D01*
X260664D02*
Y285696D01*
X264207D01*
X314970Y317843D02*
X319301D01*
X314970Y314457D02*
X319301D01*
X313789Y314378D02*
X314970D01*
X313789Y317921D02*
X314970D01*
X313789Y314378D02*
Y317921D01*
X314970Y314378D02*
Y317921D01*
X319301Y314378D02*
X320482D01*
X319301D02*
Y317921D01*
X320482D01*
Y314378D02*
Y317921D01*
X313690Y312105D02*
X315265D01*
X313690Y308365D02*
Y312105D01*
X315265Y308365D02*
Y312105D01*
X313690Y308365D02*
X315265D01*
X319005Y312105D02*
X320580D01*
X319005Y308365D02*
Y312105D01*
Y308365D02*
X320580D01*
Y312105D01*
X315265Y308369D02*
X319005D01*
X315265Y308371D02*
X319005Y308369D01*
X315265Y312102D02*
X319005Y312100D01*
X315265Y312102D02*
X319005Y312100D01*
X276545Y323724D02*
X280876D01*
X276545Y320339D02*
X280876D01*
X275364Y320260D02*
X276545D01*
X275364Y323803D02*
X276545D01*
X275364Y320260D02*
Y323803D01*
X276545Y320260D02*
Y323803D01*
X280876Y320260D02*
X282057D01*
X280876D02*
Y323803D01*
X282057D01*
Y320260D02*
Y323803D01*
X314876Y233906D02*
X316451D01*
X314876Y230165D02*
Y233906D01*
X316451Y230165D02*
Y233906D01*
X314876Y230165D02*
X316451D01*
X320191Y233906D02*
X321766D01*
X320191Y230165D02*
Y233906D01*
Y230165D02*
X321766D01*
Y233906D01*
X316451Y230169D02*
X320191D01*
X316451Y230171D02*
X320191Y230169D01*
X316451Y233902D02*
X320191Y233900D01*
X316451Y233902D02*
X320191Y233900D01*
X306791Y230165D02*
X308366D01*
Y233906D01*
X306791Y230165D02*
Y233906D01*
X308366D01*
X301476Y230165D02*
X303051D01*
Y233906D01*
X301476D02*
X303051D01*
X301476Y230165D02*
Y233906D01*
X303051Y233902D02*
X306791D01*
X303051D02*
X306791Y233900D01*
X303051Y230171D02*
X306791Y230169D01*
X303051Y230171D02*
X306791Y230169D01*
X316991Y259405D02*
Y260980D01*
X313251D02*
X316991D01*
X313251Y259405D02*
X316991D01*
X313251D02*
Y260980D01*
X316991Y254090D02*
Y255665D01*
X313251D02*
X316991D01*
X313251Y254090D02*
Y255665D01*
Y254090D02*
X316991D01*
X313255Y255665D02*
Y259405D01*
Y255665D02*
X313257Y259405D01*
X316986Y255665D02*
X316987Y259405D01*
X316986Y255665D02*
X316987Y259405D01*
X309991D02*
Y260980D01*
X306251D02*
X309991D01*
X306251Y259405D02*
X309991D01*
X306251D02*
Y260980D01*
X309991Y254090D02*
Y255665D01*
X306251D02*
X309991D01*
X306251Y254090D02*
Y255665D01*
Y254090D02*
X309991D01*
X306255Y255665D02*
Y259405D01*
Y255665D02*
X306257Y259405D01*
X309985Y255665D02*
X309987Y259405D01*
X309985Y255665D02*
X309987Y259405D01*
X316156Y244143D02*
X320487D01*
X316156Y247528D02*
X320487D01*
Y247607D02*
X321668D01*
X320487Y244064D02*
X321668D01*
Y247607D01*
X320487Y244064D02*
Y247607D01*
X314975D02*
X316156D01*
Y244064D02*
Y247607D01*
X314975Y244064D02*
X316156D01*
X314975D02*
Y247607D01*
X304091Y259405D02*
Y260980D01*
X300351D02*
X304091D01*
X300351Y259405D02*
X304091D01*
X300351D02*
Y260980D01*
X304091Y254090D02*
Y255665D01*
X300351D02*
X304091D01*
X300351Y254090D02*
Y255665D01*
Y254090D02*
X304091D01*
X300355Y255665D02*
Y259405D01*
Y255665D02*
X300357Y259405D01*
X304085Y255665D02*
X304087Y259405D01*
X304085Y255665D02*
X304087Y259405D01*
X322891D02*
Y260980D01*
X319151D02*
X322891D01*
X319151Y259405D02*
X322891D01*
X319151D02*
Y260980D01*
X322891Y254090D02*
Y255665D01*
X319151D02*
X322891D01*
X319151Y254090D02*
Y255665D01*
Y254090D02*
X322891D01*
X319155Y255665D02*
Y259405D01*
Y255665D02*
X319157Y259405D01*
X322885Y255665D02*
X322887Y259405D01*
X322885Y255665D02*
X322887Y259405D01*
X275670Y270357D02*
X280001D01*
X275670Y273743D02*
X280001D01*
Y273821D02*
X281182D01*
X280001Y270278D02*
X281182D01*
Y273821D01*
X280001Y270278D02*
Y273821D01*
X274489D02*
X275670D01*
Y270278D02*
Y273821D01*
X274489Y270278D02*
X275670D01*
X274489D02*
Y273821D01*
X293470Y273743D02*
X297801D01*
X293470Y270357D02*
X297801D01*
X292289Y270278D02*
X293470D01*
X292289Y273821D02*
X293470D01*
X292289Y270278D02*
Y273821D01*
X293470Y270278D02*
Y273821D01*
X297801Y270278D02*
X298982D01*
X297801D02*
Y273821D01*
X298982D01*
Y270278D02*
Y273821D01*
X314763Y335354D02*
X319487Y335350D01*
X314763Y332205D02*
X319487Y332209D01*
X319094Y335354D02*
X320275D01*
Y332205D02*
Y335354D01*
X319487Y332209D02*
Y335354D01*
X319094Y332205D02*
X320275D01*
X313976D02*
X315157D01*
X313976D02*
Y335354D01*
X315157D01*
X314763Y332205D02*
Y335354D01*
X319483Y332213D02*
Y335346D01*
X314767Y332213D02*
Y335346D01*
X315138Y332213D02*
Y335346D01*
X314767Y332213D02*
X319483D01*
X314767Y335346D02*
X319483D01*
X319112Y332213D02*
Y335346D01*
X282565Y348101D02*
X284140D01*
X282565Y344361D02*
Y348101D01*
X284140Y344361D02*
Y348101D01*
X282565Y344361D02*
X284140D01*
X287880Y348101D02*
X289455D01*
X287880Y344361D02*
Y348101D01*
Y344361D02*
X289455D01*
Y348101D01*
X284140Y344365D02*
X287880D01*
X284140Y344367D02*
X287880Y344365D01*
X284140Y348098D02*
X287880Y348096D01*
X284140Y348098D02*
X287880Y348096D01*
X313690Y323920D02*
X315265D01*
X313690Y320180D02*
Y323920D01*
X315265Y320180D02*
Y323920D01*
X313690Y320180D02*
X315265D01*
X319005Y323920D02*
X320580D01*
X319005Y320180D02*
Y323920D01*
Y320180D02*
X320580D01*
Y323920D01*
X315265Y320183D02*
X319005D01*
X315265Y320185D02*
X319005Y320183D01*
X315265Y323916D02*
X319005Y323914D01*
X315265Y323916D02*
X319005Y323914D01*
X302756Y247528D02*
X307087D01*
X302756Y244143D02*
X307087D01*
X301575Y244064D02*
X302756D01*
X301575Y247607D02*
X302756D01*
X301575Y244064D02*
Y247607D01*
X302756Y244064D02*
Y247607D01*
X307087Y244064D02*
X308268D01*
X307087D02*
Y247607D01*
X308268D01*
Y244064D02*
Y247607D01*
X314773Y340610D02*
X319498Y340606D01*
X314773Y337461D02*
X319498Y337465D01*
X319104Y340610D02*
X320285D01*
Y337461D02*
Y340610D01*
X319498Y337465D02*
Y340610D01*
X319104Y337461D02*
X320285D01*
X313986D02*
X315167D01*
X313986D02*
Y340610D01*
X315167D01*
X314773Y337461D02*
Y340610D01*
X319494Y337469D02*
Y340602D01*
X314777Y337469D02*
Y340602D01*
X315148Y337469D02*
Y340602D01*
X314777Y337469D02*
X319494D01*
X314777Y340602D02*
X319494D01*
X319123Y337469D02*
Y340602D01*
X319005Y337165D02*
X320580D01*
Y340905D01*
X319005Y337165D02*
Y340905D01*
X320580D01*
X313690Y337165D02*
X315265D01*
Y340905D01*
X313690D02*
X315265D01*
X313690Y337165D02*
Y340905D01*
X315265Y340902D02*
X319005D01*
X315265D02*
X319005Y340900D01*
X315265Y337171D02*
X319005Y337169D01*
X315265Y337171D02*
X319005Y337169D01*
M02*
