%FSLAX25Y25*%
%MOIN*%
G70*
G01*
G75*
G04 Layer_Color=16711935*
%ADD10C,0.00500*%
%ADD11C,0.01000*%
%ADD12C,0.01500*%
%ADD13R,0.09843X0.04331*%
%ADD14R,0.03150X0.03150*%
%ADD15C,0.03000*%
%ADD16R,0.06000X0.06500*%
%ADD17R,0.03500X0.10600*%
%ADD18R,0.03500X0.06500*%
%ADD19R,0.03500X0.06700*%
%ADD20C,0.03937*%
G04:AMPARAMS|DCode=21|XSize=98.43mil|YSize=98.43mil|CornerRadius=24.61mil|HoleSize=0mil|Usage=FLASHONLY|Rotation=270.000|XOffset=0mil|YOffset=0mil|HoleType=Round|Shape=RoundedRectangle|*
%AMROUNDEDRECTD21*
21,1,0.09843,0.04921,0,0,270.0*
21,1,0.04921,0.09843,0,0,270.0*
1,1,0.04921,-0.02461,-0.02461*
1,1,0.04921,-0.02461,0.02461*
1,1,0.04921,0.02461,0.02461*
1,1,0.04921,0.02461,-0.02461*
%
%ADD21ROUNDEDRECTD21*%
%ADD22O,0.08000X0.11811*%
%ADD23C,0.05906*%
G04:AMPARAMS|DCode=24|XSize=59.06mil|YSize=59.06mil|CornerRadius=14.76mil|HoleSize=0mil|Usage=FLASHONLY|Rotation=270.000|XOffset=0mil|YOffset=0mil|HoleType=Round|Shape=RoundedRectangle|*
%AMROUNDEDRECTD24*
21,1,0.05906,0.02953,0,0,270.0*
21,1,0.02953,0.05906,0,0,270.0*
1,1,0.02953,-0.01476,-0.01476*
1,1,0.02953,-0.01476,0.01476*
1,1,0.02953,0.01476,0.01476*
1,1,0.02953,0.01476,-0.01476*
%
%ADD24ROUNDEDRECTD24*%
%ADD25C,0.03150*%
%ADD26O,0.17716X0.07874*%
%ADD27C,0.02800*%
%ADD28R,0.03543X0.03937*%
%ADD29R,0.03937X0.03543*%
%ADD30R,0.07874X0.09449*%
G04:AMPARAMS|DCode=31|XSize=31.5mil|YSize=51.18mil|CornerRadius=7.87mil|HoleSize=0mil|Usage=FLASHONLY|Rotation=270.000|XOffset=0mil|YOffset=0mil|HoleType=Round|Shape=RoundedRectangle|*
%AMROUNDEDRECTD31*
21,1,0.03150,0.03543,0,0,270.0*
21,1,0.01575,0.05118,0,0,270.0*
1,1,0.01575,-0.01772,-0.00787*
1,1,0.01575,-0.01772,0.00787*
1,1,0.01575,0.01772,0.00787*
1,1,0.01575,0.01772,-0.00787*
%
%ADD31ROUNDEDRECTD31*%
G04:AMPARAMS|DCode=32|XSize=31.5mil|YSize=51.18mil|CornerRadius=7.87mil|HoleSize=0mil|Usage=FLASHONLY|Rotation=0.000|XOffset=0mil|YOffset=0mil|HoleType=Round|Shape=RoundedRectangle|*
%AMROUNDEDRECTD32*
21,1,0.03150,0.03543,0,0,0.0*
21,1,0.01575,0.05118,0,0,0.0*
1,1,0.01575,0.00787,-0.01772*
1,1,0.01575,-0.00787,-0.01772*
1,1,0.01575,-0.00787,0.01772*
1,1,0.01575,0.00787,0.01772*
%
%ADD32ROUNDEDRECTD32*%
%ADD33O,0.02165X0.05118*%
%ADD34O,0.05118X0.02165*%
%ADD35R,0.04500X0.04000*%
%ADD36R,0.05100X0.03000*%
%ADD37C,0.00100*%
%ADD38C,0.00787*%
%ADD39C,0.04737*%
G04:AMPARAMS|DCode=40|XSize=106.42mil|YSize=106.42mil|CornerRadius=28.61mil|HoleSize=0mil|Usage=FLASHONLY|Rotation=270.000|XOffset=0mil|YOffset=0mil|HoleType=Round|Shape=RoundedRectangle|*
%AMROUNDEDRECTD40*
21,1,0.10642,0.04921,0,0,270.0*
21,1,0.04921,0.10642,0,0,270.0*
1,1,0.05721,-0.02461,-0.02461*
1,1,0.05721,-0.02461,0.02461*
1,1,0.05721,0.02461,0.02461*
1,1,0.05721,0.02461,-0.02461*
%
%ADD40ROUNDEDRECTD40*%
%ADD41O,0.08800X0.12611*%
D10*
X-29869Y288695D02*
G03*
X-31837Y286727I0J-1969D01*
G01*
X-31837D02*
G03*
X-29869Y284758I1969J0D01*
G01*
X-24947Y279837D02*
G03*
X-29869Y284758I-4921J0D01*
G01*
X-24947Y279837D02*
G03*
X-22979Y277869I1969J0D01*
G01*
Y277869D02*
G03*
X-21010Y279837I0J1969D01*
G01*
D02*
G03*
X-29869Y288695I-8858J0D01*
G01*
D11*
X220472Y177165D02*
G03*
X216535Y173228I0J-3937D01*
G01*
X220472Y181102D02*
G03*
X212598Y173228I0J-7874D01*
G01*
X226378Y179134D02*
G03*
X224409Y181102I-1969J0D01*
G01*
X224410Y177165D02*
G03*
X226378Y179134I0J1969D01*
G01*
X214567Y167323D02*
G03*
X216535Y169291I0J1969D01*
G01*
X212598Y169291D02*
G03*
X214567Y167323I1969J0D01*
G01*
X354331Y173228D02*
G03*
X350394Y177165I-3937J0D01*
G01*
X358268Y173228D02*
G03*
X350394Y181102I-7874J0D01*
G01*
X356299Y167323D02*
G03*
X358268Y169291I0J1969D01*
G01*
X354331Y169291D02*
G03*
X356299Y167323I1969J0D01*
G01*
X344488Y179134D02*
G03*
X346457Y177165I1969J0D01*
G01*
X346457Y181102D02*
G03*
X344488Y179134I0J-1969D01*
G01*
X350394Y39370D02*
G03*
X354331Y43307I0J3937D01*
G01*
X350394Y35433D02*
G03*
X358268Y43307I0J7874D01*
G01*
X344488Y37402D02*
G03*
X346457Y35433I1969J0D01*
G01*
X346457Y39370D02*
G03*
X344488Y37402I0J-1969D01*
G01*
X356299Y49213D02*
G03*
X354331Y47244I0J-1969D01*
G01*
X358268Y47244D02*
G03*
X356299Y49213I-1969J0D01*
G01*
X216535Y43307D02*
G03*
X220472Y39370I3937J0D01*
G01*
X212598Y43307D02*
G03*
X220472Y35433I7874J0D01*
G01*
X214567Y49213D02*
G03*
X212598Y47244I0J-1969D01*
G01*
X216535Y47244D02*
G03*
X214567Y49213I-1969J0D01*
G01*
X226378Y37402D02*
G03*
X224410Y39370I-1969J0D01*
G01*
X224410Y35433D02*
G03*
X226378Y37402I0J1969D01*
G01*
X43307Y177165D02*
G03*
X39370Y173228I0J-3937D01*
G01*
X43307Y181102D02*
G03*
X35433Y173228I0J-7874D01*
G01*
X49213Y179134D02*
G03*
X47244Y181102I-1969J0D01*
G01*
X47244Y177165D02*
G03*
X49213Y179134I0J1969D01*
G01*
X37402Y167323D02*
G03*
X39370Y169291I0J1969D01*
G01*
X35433Y169291D02*
G03*
X37402Y167323I1969J0D01*
G01*
X177165Y173228D02*
G03*
X173228Y177165I-3937J0D01*
G01*
X181102Y173228D02*
G03*
X173228Y181102I-7874J0D01*
G01*
X179134Y167323D02*
G03*
X181102Y169291I0J1969D01*
G01*
X177165Y169291D02*
G03*
X179134Y167323I1969J0D01*
G01*
X167323Y179134D02*
G03*
X169291Y177165I1969J0D01*
G01*
X169291Y181102D02*
G03*
X167323Y179134I0J-1969D01*
G01*
X173228Y39370D02*
G03*
X177165Y43307I0J3937D01*
G01*
X173228Y35433D02*
G03*
X181102Y43307I0J7874D01*
G01*
X167323Y37402D02*
G03*
X169291Y35433I1969J0D01*
G01*
X169291Y39370D02*
G03*
X167323Y37402I0J-1969D01*
G01*
X179134Y49213D02*
G03*
X177165Y47244I0J-1969D01*
G01*
X181102Y47244D02*
G03*
X179134Y49213I-1969J0D01*
G01*
X39370Y43307D02*
G03*
X43307Y39370I3937J0D01*
G01*
X35433Y43307D02*
G03*
X43307Y35433I7874J0D01*
G01*
X37402Y49213D02*
G03*
X35433Y47244I0J-1969D01*
G01*
X39370Y47244D02*
G03*
X37402Y49213I-1969J0D01*
G01*
X49213Y37402D02*
G03*
X47244Y39370I-1969J0D01*
G01*
X47244Y35433D02*
G03*
X49213Y37402I0J1969D01*
G01*
X220472Y354331D02*
G03*
X216535Y350394I0J-3937D01*
G01*
X220472Y358268D02*
G03*
X212598Y350394I0J-7874D01*
G01*
X226378Y356299D02*
G03*
X224409Y358268I-1969J0D01*
G01*
X224410Y354331D02*
G03*
X226378Y356299I0J1969D01*
G01*
X214567Y344488D02*
G03*
X216535Y346457I0J1969D01*
G01*
X212598Y346457D02*
G03*
X214567Y344488I1969J0D01*
G01*
X354331Y350394D02*
G03*
X350394Y354331I-3937J0D01*
G01*
X358268Y350394D02*
G03*
X350394Y358268I-7874J0D01*
G01*
X356299Y344488D02*
G03*
X358268Y346457I0J1969D01*
G01*
X354331Y346457D02*
G03*
X356299Y344488I1969J0D01*
G01*
X344488Y356299D02*
G03*
X346457Y354331I1969J0D01*
G01*
X346457Y358268D02*
G03*
X344488Y356299I0J-1969D01*
G01*
X350394Y216535D02*
G03*
X354331Y220472I0J3937D01*
G01*
X350394Y212598D02*
G03*
X358268Y220472I0J7874D01*
G01*
X344488Y214567D02*
G03*
X346457Y212598I1969J0D01*
G01*
X346457Y216535D02*
G03*
X344488Y214567I0J-1969D01*
G01*
X356299Y226378D02*
G03*
X354331Y224410I0J-1969D01*
G01*
X358268Y224410D02*
G03*
X356299Y226378I-1969J0D01*
G01*
X216535Y220472D02*
G03*
X220472Y216535I3937J0D01*
G01*
X212598Y220472D02*
G03*
X220472Y212598I7874J0D01*
G01*
X214567Y226378D02*
G03*
X212598Y224409I0J-1969D01*
G01*
X216535Y224410D02*
G03*
X214567Y226378I-1969J0D01*
G01*
X226378Y214567D02*
G03*
X224410Y216535I-1969J0D01*
G01*
X224410Y212598D02*
G03*
X226378Y214567I0J1969D01*
G01*
X47244Y212598D02*
G03*
X49213Y214567I0J1969D01*
G01*
D02*
G03*
X47244Y216535I-1969J0D01*
G01*
X39370Y224410D02*
G03*
X37402Y226378I-1969J0D01*
G01*
D02*
G03*
X35433Y224409I0J-1969D01*
G01*
Y220472D02*
G03*
X43307Y212598I7874J0D01*
G01*
X39370Y220472D02*
G03*
X43307Y216535I3937J0D01*
G01*
X181102Y224410D02*
G03*
X179134Y226378I-1969J0D01*
G01*
D02*
G03*
X177165Y224410I0J-1969D01*
G01*
X169291Y216535D02*
G03*
X167323Y214567I0J-1969D01*
G01*
D02*
G03*
X169291Y212598I1969J0D01*
G01*
X173228D02*
G03*
X181102Y220472I0J7874D01*
G01*
X173228Y216535D02*
G03*
X177165Y220472I0J3937D01*
G01*
X169291Y358268D02*
G03*
X167323Y356299I0J-1969D01*
G01*
D02*
G03*
X169291Y354331I1969J0D01*
G01*
X177165Y346457D02*
G03*
X179134Y344488I1969J0D01*
G01*
D02*
G03*
X181102Y346457I0J1969D01*
G01*
Y350394D02*
G03*
X173228Y358268I-7874J0D01*
G01*
X177165Y350394D02*
G03*
X173228Y354331I-3937J0D01*
G01*
X35433Y346457D02*
G03*
X37402Y344488I1969J0D01*
G01*
D02*
G03*
X39370Y346457I0J1969D01*
G01*
X47244Y354331D02*
G03*
X49213Y356299I0J1969D01*
G01*
D02*
G03*
X47244Y358268I-1969J0D01*
G01*
X43307D02*
G03*
X35433Y350394I0J-7874D01*
G01*
X43307Y354331D02*
G03*
X39370Y350394I0J-3937D01*
G01*
X5247028Y5558168D02*
G03*
X5247145Y5558052I5764850J5764733D01*
G01*
X-25543Y293327D02*
X-22043Y296827D01*
X-29043D02*
X-25543Y293327D01*
Y301327D01*
X443913Y354315D02*
X451913D01*
X443913D02*
X447413Y357815D01*
X443913Y354315D02*
X447413Y350815D01*
X443913Y216520D02*
X447413Y213020D01*
X443913Y216520D02*
X447413Y220020D01*
X443913Y216520D02*
X451913D01*
X443913Y177150D02*
X447413Y173650D01*
X443913Y177150D02*
X447413Y180650D01*
X443913Y177150D02*
X451913D01*
X443913Y39354D02*
X447413Y35854D01*
X443913Y39354D02*
X447413Y42854D01*
X443913Y39354D02*
X451913D01*
X39386Y443913D02*
X42886Y447413D01*
X35886D02*
X39386Y443913D01*
Y451913D01*
X177181Y443913D02*
X180681Y447413D01*
X173681D02*
X177181Y443913D01*
Y451913D01*
X216551Y443913D02*
X220051Y447413D01*
X213051D02*
X216551Y443913D01*
Y451913D01*
X354346Y443913D02*
X357846Y447413D01*
X350847D02*
X354346Y443913D01*
Y451913D01*
X39370Y-48228D02*
Y441929D01*
X354331Y-48228D02*
Y441929D01*
X216535Y-48228D02*
Y441929D01*
X177165Y-48228D02*
Y441929D01*
X-48228Y39370D02*
X441929D01*
X-48228Y177165D02*
X441929D01*
X-48228Y216535D02*
X441929D01*
X220472Y181102D02*
X224409D01*
X220472Y177165D02*
X224410D01*
X216535Y169291D02*
Y173228D01*
X212598Y169291D02*
Y173228D01*
X358268Y169291D02*
Y173228D01*
X354331Y169291D02*
Y173228D01*
X346457Y177165D02*
X350394D01*
X346457Y181102D02*
X350394D01*
X346457Y35433D02*
X350394D01*
X346457Y39370D02*
X350394D01*
X354331Y43307D02*
Y47244D01*
X358268Y43307D02*
Y47244D01*
X212598Y43307D02*
Y47244D01*
X216535Y43307D02*
Y47244D01*
X220472Y39370D02*
X224410D01*
X220472Y35433D02*
X224410D01*
X43307Y181102D02*
X47244D01*
X43307Y177165D02*
X47244D01*
X39370Y169291D02*
Y173228D01*
X35433Y169291D02*
Y173228D01*
X181102Y169291D02*
Y173228D01*
X177165Y169291D02*
Y173228D01*
X169291Y177165D02*
X173228D01*
X169291Y181102D02*
X173228D01*
X169291Y35433D02*
X173228D01*
X169291Y39370D02*
X173228D01*
X177165Y43307D02*
Y47244D01*
X181102Y43307D02*
Y47244D01*
X35433Y43307D02*
Y47244D01*
X39370Y43307D02*
Y47244D01*
X43307Y39370D02*
X47244D01*
X43307Y35433D02*
X47244D01*
X220472Y358268D02*
X224409D01*
X220472Y354331D02*
X224410D01*
X216535Y346457D02*
Y350394D01*
X212598Y346457D02*
Y350394D01*
X358268Y346457D02*
Y350394D01*
X354331Y346457D02*
Y350394D01*
X346457Y354331D02*
X350394D01*
X346457Y358268D02*
X350394D01*
X346457Y212598D02*
X350394D01*
X346457Y216535D02*
X350394D01*
X354331Y220472D02*
Y224410D01*
X358268Y220472D02*
Y224410D01*
X212598Y220472D02*
Y224409D01*
X216535Y220472D02*
Y224410D01*
X220472Y216535D02*
X224410D01*
X220472Y212598D02*
X224410D01*
X43307D02*
X47244D01*
X43307Y216535D02*
X47244D01*
X39370Y220472D02*
Y224410D01*
X35433Y220472D02*
Y224409D01*
X181102Y220472D02*
Y224410D01*
X177165Y220472D02*
Y224410D01*
X169291Y216535D02*
X173228D01*
X169291Y212598D02*
X173228D01*
X169291Y358268D02*
X173228D01*
X169291Y354331D02*
X173228D01*
X177165Y346457D02*
Y350394D01*
X181102Y346457D02*
Y350394D01*
X35433Y346457D02*
Y350394D01*
X39370Y346457D02*
Y350394D01*
X43307Y354331D02*
X47244D01*
X43307Y358268D02*
X47244D01*
X-48228Y354331D02*
X441929D01*
X0Y393701D02*
X393701D01*
Y374016D02*
Y393701D01*
Y0D02*
Y374016D01*
X0Y0D02*
Y393701D01*
Y0D02*
X393701D01*
X-89567Y306102D02*
X-87568D01*
X-88567D01*
Y312100D01*
X-89567Y311101D01*
X-84569Y306102D02*
Y307102D01*
X-83569D01*
Y306102D01*
X-84569D01*
X-79570Y311101D02*
X-78570Y312100D01*
X-76571D01*
X-75572Y311101D01*
Y307102D01*
X-76571Y306102D01*
X-78570D01*
X-79570Y307102D01*
Y311101D01*
X-73572Y306102D02*
Y310101D01*
X-72572D01*
X-71573Y309101D01*
Y306102D01*
Y309101D01*
X-70573Y310101D01*
X-69573Y309101D01*
Y306102D01*
X-67574D02*
Y310101D01*
X-66574D01*
X-65575Y309101D01*
Y306102D01*
Y309101D01*
X-64575Y310101D01*
X-63575Y309101D01*
Y306102D01*
X-55578Y312100D02*
Y306102D01*
X-52579D01*
X-51579Y307102D01*
Y311101D01*
X-52579Y312100D01*
X-55578D01*
X-49580Y310101D02*
Y306102D01*
Y308102D01*
X-48580Y309101D01*
X-47581Y310101D01*
X-46581D01*
X-43582Y306102D02*
X-41583D01*
X-42582D01*
Y310101D01*
X-43582D01*
X-38583Y306102D02*
X-36584D01*
X-37584D01*
Y312100D01*
X-38583D01*
X-33585Y306102D02*
X-31586D01*
X-32585D01*
Y312100D01*
X-33585D01*
X-18590Y311101D02*
X-19590Y312100D01*
X-21589D01*
X-22589Y311101D01*
Y307102D01*
X-21589Y306102D01*
X-19590D01*
X-18590Y307102D01*
X-16590Y310101D02*
Y307102D01*
X-15591Y306102D01*
X-12592D01*
Y310101D01*
X-9593Y311101D02*
Y310101D01*
X-10593D01*
X-8593D01*
X-9593D01*
Y307102D01*
X-8593Y306102D01*
X455709Y357376D02*
Y353377D01*
X457708Y351378D01*
X459707Y353377D01*
Y357376D01*
X461707Y354377D02*
X465705D01*
X471703Y356376D02*
X470704Y357376D01*
X468705D01*
X467705Y356376D01*
Y352378D01*
X468705Y351378D01*
X470704D01*
X471703Y352378D01*
X473703Y355377D02*
Y352378D01*
X474703Y351378D01*
X477702D01*
Y355377D01*
X480701Y356376D02*
Y355377D01*
X479701D01*
X481700D01*
X480701D01*
Y352378D01*
X481700Y351378D01*
X455709Y219581D02*
Y215582D01*
X457708Y213583D01*
X459707Y215582D01*
Y219581D01*
X461707Y216582D02*
X465705D01*
X471703Y218581D02*
X470704Y219581D01*
X468704D01*
X467705Y218581D01*
Y214582D01*
X468704Y213583D01*
X470704D01*
X471703Y214582D01*
X473703Y217581D02*
Y214582D01*
X474703Y213583D01*
X477702D01*
Y217581D01*
X480701Y218581D02*
Y217581D01*
X479701D01*
X481700D01*
X480701D01*
Y214582D01*
X481700Y213583D01*
X455709Y180211D02*
Y176212D01*
X457708Y174213D01*
X459707Y176212D01*
Y180211D01*
X461707Y177212D02*
X465705D01*
X471703Y179211D02*
X470704Y180211D01*
X468704D01*
X467705Y179211D01*
Y175212D01*
X468704Y174213D01*
X470704D01*
X471703Y175212D01*
X473703Y178211D02*
Y175212D01*
X474703Y174213D01*
X477702D01*
Y178211D01*
X480701Y179211D02*
Y178211D01*
X479701D01*
X481700D01*
X480701D01*
Y175212D01*
X481700Y174213D01*
X455709Y42415D02*
Y38417D01*
X457708Y36417D01*
X459707Y38417D01*
Y42415D01*
X461707Y39416D02*
X465705D01*
X471703Y41416D02*
X470704Y42415D01*
X468704D01*
X467705Y41416D01*
Y37417D01*
X468704Y36417D01*
X470704D01*
X471703Y37417D01*
X473703Y40416D02*
Y37417D01*
X474703Y36417D01*
X477702D01*
Y40416D01*
X480701Y41416D02*
Y40416D01*
X479701D01*
X481700D01*
X480701D01*
Y37417D01*
X481700Y36417D01*
X36325Y455709D02*
X40323D01*
X42323Y457708D01*
X40323Y459707D01*
X36325D01*
X39324Y461707D02*
Y465705D01*
X37325Y471703D02*
X36325Y470704D01*
Y468704D01*
X37325Y467705D01*
X41323D01*
X42323Y468704D01*
Y470704D01*
X41323Y471703D01*
X38324Y473703D02*
X41323D01*
X42323Y474703D01*
Y477702D01*
X38324D01*
X37325Y480701D02*
X38324D01*
Y479701D01*
Y481700D01*
Y480701D01*
X41323D01*
X42323Y481700D01*
X174120Y455709D02*
X178119D01*
X180118Y457708D01*
X178119Y459707D01*
X174120D01*
X177119Y461707D02*
Y465705D01*
X175120Y471703D02*
X174120Y470704D01*
Y468704D01*
X175120Y467705D01*
X179118D01*
X180118Y468704D01*
Y470704D01*
X179118Y471703D01*
X176119Y473703D02*
X179118D01*
X180118Y474703D01*
Y477702D01*
X176119D01*
X175120Y480701D02*
X176119D01*
Y479701D01*
Y481700D01*
Y480701D01*
X179118D01*
X180118Y481700D01*
X213490Y455709D02*
X217489D01*
X219488Y457708D01*
X217489Y459707D01*
X213490D01*
X216489Y461707D02*
Y465705D01*
X214490Y471703D02*
X213490Y470704D01*
Y468704D01*
X214490Y467705D01*
X218489D01*
X219488Y468704D01*
Y470704D01*
X218489Y471703D01*
X215490Y473703D02*
X218489D01*
X219488Y474703D01*
Y477702D01*
X215490D01*
X214490Y480701D02*
X215490D01*
Y479701D01*
Y481700D01*
Y480701D01*
X218489D01*
X219488Y481700D01*
X351285Y455709D02*
X355284D01*
X357283Y457708D01*
X355284Y459707D01*
X351285D01*
X354284Y461707D02*
Y465705D01*
X352285Y471703D02*
X351285Y470704D01*
Y468704D01*
X352285Y467705D01*
X356284D01*
X357283Y468704D01*
Y470704D01*
X356284Y471703D01*
X353285Y473703D02*
X356284D01*
X357283Y474703D01*
Y477702D01*
X353285D01*
X352285Y480701D02*
X353285D01*
Y479701D01*
Y481700D01*
Y480701D01*
X356284D01*
X357283Y481700D01*
D23*
X117356Y68670D02*
D03*
X151556D02*
D03*
X294521D02*
D03*
X328721D02*
D03*
X117356Y245835D02*
D03*
X151556D02*
D03*
X294521D02*
D03*
X328721D02*
D03*
D24*
X117356Y54891D02*
D03*
X151556D02*
D03*
X294521D02*
D03*
X328721D02*
D03*
X117356Y232056D02*
D03*
X151556D02*
D03*
X294521D02*
D03*
X328721D02*
D03*
D25*
X166685Y149624D02*
D03*
Y131907D02*
D03*
X343850Y149624D02*
D03*
Y131907D02*
D03*
X166685Y326789D02*
D03*
Y309072D02*
D03*
X343850Y326789D02*
D03*
Y309072D02*
D03*
D26*
X166685Y163206D02*
D03*
Y118324D02*
D03*
X343850Y163206D02*
D03*
Y118324D02*
D03*
X166685Y340372D02*
D03*
Y295490D02*
D03*
X343850Y340372D02*
D03*
Y295490D02*
D03*
D27*
X154270Y118970D02*
D03*
Y122570D02*
D03*
X111145Y107845D02*
D03*
X111245Y110945D02*
D03*
X108770Y144866D02*
D03*
X131824Y150784D02*
D03*
X146817Y138984D02*
D03*
X131824Y141384D02*
D03*
Y144884D02*
D03*
X130670Y104170D02*
D03*
X130612Y107569D02*
D03*
X100670Y129670D02*
D03*
X120970Y117470D02*
D03*
X120870Y130470D02*
D03*
X146916Y109484D02*
D03*
X146916Y115384D02*
D03*
X131370Y161870D02*
D03*
Y156570D02*
D03*
X149749Y144702D02*
D03*
X149770Y123370D02*
D03*
X146770Y133070D02*
D03*
X148570Y150370D02*
D03*
Y153870D02*
D03*
Y157370D02*
D03*
X331435Y118970D02*
D03*
Y122570D02*
D03*
X288310Y107845D02*
D03*
X288410Y110945D02*
D03*
X285935Y144866D02*
D03*
X308989Y150784D02*
D03*
X323982Y138984D02*
D03*
X308989Y141384D02*
D03*
Y144884D02*
D03*
X307835Y104170D02*
D03*
X307777Y107569D02*
D03*
X277835Y129670D02*
D03*
X298135Y117470D02*
D03*
X298035Y130470D02*
D03*
X324082Y109484D02*
D03*
X324082Y115384D02*
D03*
X308535Y161870D02*
D03*
Y156570D02*
D03*
X326914Y144702D02*
D03*
X326935Y123370D02*
D03*
X323935Y133070D02*
D03*
X325735Y150370D02*
D03*
Y153870D02*
D03*
Y157370D02*
D03*
X154270Y296135D02*
D03*
Y299735D02*
D03*
X111145Y285010D02*
D03*
X111245Y288110D02*
D03*
X108770Y322031D02*
D03*
X131824Y327950D02*
D03*
X146817Y316150D02*
D03*
X131824Y318550D02*
D03*
Y322050D02*
D03*
X130670Y281335D02*
D03*
X130612Y284734D02*
D03*
X100670Y306835D02*
D03*
X120970Y294635D02*
D03*
X120870Y307635D02*
D03*
X146916Y286650D02*
D03*
X146916Y292550D02*
D03*
X131370Y339035D02*
D03*
Y333735D02*
D03*
X149749Y321868D02*
D03*
X149770Y300535D02*
D03*
X146770Y310235D02*
D03*
X148570Y327535D02*
D03*
Y331035D02*
D03*
Y334535D02*
D03*
X331435Y296135D02*
D03*
Y299735D02*
D03*
X288310Y285010D02*
D03*
X288410Y288110D02*
D03*
X285935Y322031D02*
D03*
X308989Y327950D02*
D03*
X323982Y316150D02*
D03*
X308989Y318550D02*
D03*
Y322050D02*
D03*
X307835Y281335D02*
D03*
X307777Y284734D02*
D03*
X277835Y306835D02*
D03*
X298135Y294635D02*
D03*
X298035Y307635D02*
D03*
X324082Y286650D02*
D03*
X324082Y292550D02*
D03*
X308535Y339035D02*
D03*
Y333735D02*
D03*
X326914Y321868D02*
D03*
X326935Y300535D02*
D03*
X323935Y310235D02*
D03*
X325735Y327535D02*
D03*
Y331035D02*
D03*
Y334535D02*
D03*
D28*
X143316Y127184D02*
D03*
X136624D02*
D03*
X143316Y121284D02*
D03*
X136624D02*
D03*
X143316Y115384D02*
D03*
X136624D02*
D03*
X143316Y150784D02*
D03*
X136624D02*
D03*
X119391Y144866D02*
D03*
X112698D02*
D03*
X136624Y156584D02*
D03*
X143316D02*
D03*
Y109484D02*
D03*
X136624D02*
D03*
X136624Y138984D02*
D03*
X143316D02*
D03*
Y133070D02*
D03*
X136624D02*
D03*
X98198Y144866D02*
D03*
X104891D02*
D03*
X144502Y54870D02*
D03*
X137810D02*
D03*
X124409D02*
D03*
X131102D02*
D03*
X144502Y68670D02*
D03*
X137810D02*
D03*
X104016Y94884D02*
D03*
X97324D02*
D03*
X115124D02*
D03*
X121817D02*
D03*
X112191Y169066D02*
D03*
X105498D02*
D03*
X143316Y144884D02*
D03*
X136624D02*
D03*
X124409Y68670D02*
D03*
X131102D02*
D03*
X136624Y161870D02*
D03*
X143316D02*
D03*
X320482Y127184D02*
D03*
X313789D02*
D03*
X320482Y121284D02*
D03*
X313789D02*
D03*
X320482Y115384D02*
D03*
X313789D02*
D03*
X320482Y150784D02*
D03*
X313789D02*
D03*
X296557Y144866D02*
D03*
X289864D02*
D03*
X313789Y156584D02*
D03*
X320482D02*
D03*
Y109484D02*
D03*
X313789D02*
D03*
X313789Y138984D02*
D03*
X320482D02*
D03*
Y133070D02*
D03*
X313789D02*
D03*
X275364Y144866D02*
D03*
X282057D02*
D03*
X321668Y54870D02*
D03*
X314975D02*
D03*
X301575D02*
D03*
X308268D02*
D03*
X321668Y68670D02*
D03*
X314975D02*
D03*
X281182Y94884D02*
D03*
X274489D02*
D03*
X292289D02*
D03*
X298982D02*
D03*
X289357Y169066D02*
D03*
X282664D02*
D03*
X320482Y144884D02*
D03*
X313789D02*
D03*
X301575Y68670D02*
D03*
X308268D02*
D03*
X313789Y161870D02*
D03*
X320482D02*
D03*
X143316Y304350D02*
D03*
X136624D02*
D03*
X143316Y298450D02*
D03*
X136624D02*
D03*
X143316Y292550D02*
D03*
X136624D02*
D03*
X143316Y327950D02*
D03*
X136624D02*
D03*
X119391Y322031D02*
D03*
X112698D02*
D03*
X136624Y333750D02*
D03*
X143316D02*
D03*
Y286650D02*
D03*
X136624D02*
D03*
X136624Y316150D02*
D03*
X143316D02*
D03*
Y310235D02*
D03*
X136624D02*
D03*
X98198Y322031D02*
D03*
X104891D02*
D03*
X144502Y232035D02*
D03*
X137810D02*
D03*
X124409D02*
D03*
X131102D02*
D03*
X144502Y245835D02*
D03*
X137810D02*
D03*
X104016Y272050D02*
D03*
X97324D02*
D03*
X115124D02*
D03*
X121817D02*
D03*
X112191Y346231D02*
D03*
X105498D02*
D03*
X143316Y322050D02*
D03*
X136624D02*
D03*
X124409Y245835D02*
D03*
X131102D02*
D03*
X136624Y339035D02*
D03*
X143316D02*
D03*
X320482Y304350D02*
D03*
X313789D02*
D03*
X320482Y298450D02*
D03*
X313789D02*
D03*
X320482Y292550D02*
D03*
X313789D02*
D03*
X320482Y327950D02*
D03*
X313789D02*
D03*
X296557Y322031D02*
D03*
X289864D02*
D03*
X313789Y333750D02*
D03*
X320482D02*
D03*
Y286650D02*
D03*
X313789D02*
D03*
X313789Y316150D02*
D03*
X320482D02*
D03*
Y310235D02*
D03*
X313789D02*
D03*
X275364Y322031D02*
D03*
X282057D02*
D03*
X321668Y232035D02*
D03*
X314975D02*
D03*
X301575D02*
D03*
X308268D02*
D03*
X321668Y245835D02*
D03*
X314975D02*
D03*
X281182Y272050D02*
D03*
X274489D02*
D03*
X292289D02*
D03*
X298982D02*
D03*
X289357Y346231D02*
D03*
X282664D02*
D03*
X320482Y322050D02*
D03*
X313789D02*
D03*
X301575Y245835D02*
D03*
X308268D02*
D03*
X313789Y339035D02*
D03*
X320482D02*
D03*
D29*
X85270Y115138D02*
D03*
Y121831D02*
D03*
Y101838D02*
D03*
Y108531D02*
D03*
X137956Y77024D02*
D03*
Y83716D02*
D03*
X130956Y77024D02*
D03*
Y83716D02*
D03*
X125056Y77024D02*
D03*
Y83716D02*
D03*
X143856Y77024D02*
D03*
Y83716D02*
D03*
X262435Y115138D02*
D03*
Y121831D02*
D03*
Y101838D02*
D03*
Y108531D02*
D03*
X315121Y77024D02*
D03*
Y83716D02*
D03*
X308121Y77024D02*
D03*
Y83716D02*
D03*
X302221Y77024D02*
D03*
Y83716D02*
D03*
X321021Y77024D02*
D03*
Y83716D02*
D03*
X85270Y292303D02*
D03*
Y298996D02*
D03*
Y279003D02*
D03*
Y285696D02*
D03*
X137956Y254189D02*
D03*
Y260882D02*
D03*
X130956Y254189D02*
D03*
Y260882D02*
D03*
X125056Y254189D02*
D03*
Y260882D02*
D03*
X143856Y254189D02*
D03*
Y260882D02*
D03*
X262435Y292303D02*
D03*
Y298996D02*
D03*
Y279003D02*
D03*
Y285696D02*
D03*
X315121Y254189D02*
D03*
Y260882D02*
D03*
X308121Y254189D02*
D03*
Y260882D02*
D03*
X302221Y254189D02*
D03*
Y260882D02*
D03*
X321021Y254189D02*
D03*
Y260882D02*
D03*
D30*
X100917Y156966D02*
D03*
X116665D02*
D03*
X278083D02*
D03*
X293831D02*
D03*
X100917Y334131D02*
D03*
X116665D02*
D03*
X278083D02*
D03*
X293831D02*
D03*
D31*
X125712Y130600D02*
D03*
Y107569D02*
D03*
X93428Y107569D02*
D03*
Y130600D02*
D03*
X302877D02*
D03*
Y107569D02*
D03*
X270594Y107569D02*
D03*
Y130600D02*
D03*
X125712Y307765D02*
D03*
Y284734D02*
D03*
X93428Y284734D02*
D03*
Y307765D02*
D03*
X302877D02*
D03*
Y284734D02*
D03*
X270594Y284734D02*
D03*
Y307765D02*
D03*
D32*
X121086Y102943D02*
D03*
X98054D02*
D03*
X121086Y135226D02*
D03*
X98054D02*
D03*
X298251Y102943D02*
D03*
X275220D02*
D03*
X298251Y135226D02*
D03*
X275220D02*
D03*
X121086Y280108D02*
D03*
X98054D02*
D03*
X121086Y312391D02*
D03*
X98054D02*
D03*
X298251Y280108D02*
D03*
X275220D02*
D03*
X298251Y312391D02*
D03*
X275220D02*
D03*
D33*
X101696Y102943D02*
D03*
X104846D02*
D03*
X107995D02*
D03*
X111145D02*
D03*
X114295D02*
D03*
X117444D02*
D03*
Y135226D02*
D03*
X114295D02*
D03*
X111145D02*
D03*
X107995D02*
D03*
X104846D02*
D03*
X101696D02*
D03*
X278861Y102943D02*
D03*
X282011D02*
D03*
X285161D02*
D03*
X288310D02*
D03*
X291460D02*
D03*
X294609D02*
D03*
Y135226D02*
D03*
X291460D02*
D03*
X288310D02*
D03*
X285161D02*
D03*
X282011D02*
D03*
X278861D02*
D03*
X101696Y280108D02*
D03*
X104846D02*
D03*
X107995D02*
D03*
X111145D02*
D03*
X114295D02*
D03*
X117444D02*
D03*
Y312391D02*
D03*
X114295D02*
D03*
X111145D02*
D03*
X107995D02*
D03*
X104846D02*
D03*
X101696D02*
D03*
X278861Y280108D02*
D03*
X282011D02*
D03*
X285161D02*
D03*
X288310D02*
D03*
X291460D02*
D03*
X294609D02*
D03*
Y312391D02*
D03*
X291460D02*
D03*
X288310D02*
D03*
X285161D02*
D03*
X282011D02*
D03*
X278861D02*
D03*
D34*
X125712Y111210D02*
D03*
Y114360D02*
D03*
Y117509D02*
D03*
Y120659D02*
D03*
Y123809D02*
D03*
Y126958D02*
D03*
X93428D02*
D03*
Y123809D02*
D03*
Y120659D02*
D03*
Y117509D02*
D03*
Y114360D02*
D03*
Y111210D02*
D03*
X302877D02*
D03*
Y114360D02*
D03*
Y117509D02*
D03*
Y120659D02*
D03*
Y123809D02*
D03*
Y126958D02*
D03*
X270594D02*
D03*
Y123809D02*
D03*
Y120659D02*
D03*
Y117509D02*
D03*
Y114360D02*
D03*
Y111210D02*
D03*
X125712Y288376D02*
D03*
Y291525D02*
D03*
Y294675D02*
D03*
Y297824D02*
D03*
Y300974D02*
D03*
Y304124D02*
D03*
X93428D02*
D03*
Y300974D02*
D03*
Y297824D02*
D03*
Y294675D02*
D03*
Y291525D02*
D03*
Y288376D02*
D03*
X302877D02*
D03*
Y291525D02*
D03*
Y294675D02*
D03*
Y297824D02*
D03*
Y300974D02*
D03*
Y304124D02*
D03*
X270594D02*
D03*
Y300974D02*
D03*
Y297824D02*
D03*
Y294675D02*
D03*
Y291525D02*
D03*
Y288376D02*
D03*
D39*
X70970Y69655D02*
D03*
X51285Y49970D02*
D03*
X90655D02*
D03*
X248135Y69655D02*
D03*
X228450Y49970D02*
D03*
X267821D02*
D03*
X70970Y246820D02*
D03*
X51285Y227135D02*
D03*
X90655D02*
D03*
X248135Y246820D02*
D03*
X228450Y227135D02*
D03*
X267821D02*
D03*
D40*
X70970Y49970D02*
D03*
X248135D02*
D03*
X70970Y227135D02*
D03*
X248135D02*
D03*
D41*
X80813Y69655D02*
D03*
X90655D02*
D03*
X61128D02*
D03*
X51285D02*
D03*
X257978D02*
D03*
X267821D02*
D03*
X238293D02*
D03*
X228450D02*
D03*
X80813Y246820D02*
D03*
X90655D02*
D03*
X61128D02*
D03*
X51285D02*
D03*
X257978D02*
D03*
X267821D02*
D03*
X238293D02*
D03*
X228450D02*
D03*
M02*
