%FSLAX25Y25*%
%MOIN*%
G70*
G01*
G75*
G04 Layer_Physical_Order=2*
G04 Layer_Color=16711680*
%ADD10C,0.00500*%
%ADD11C,0.01000*%
%ADD12C,0.01500*%
%ADD13R,0.09843X0.04331*%
%ADD14R,0.03150X0.03150*%
%ADD15C,0.03000*%
%ADD16R,0.06000X0.06500*%
%ADD17R,0.03500X0.10600*%
%ADD18R,0.03500X0.06500*%
%ADD19R,0.03500X0.06700*%
%ADD20C,0.03937*%
G04:AMPARAMS|DCode=21|XSize=98.43mil|YSize=98.43mil|CornerRadius=24.61mil|HoleSize=0mil|Usage=FLASHONLY|Rotation=270.000|XOffset=0mil|YOffset=0mil|HoleType=Round|Shape=RoundedRectangle|*
%AMROUNDEDRECTD21*
21,1,0.09843,0.04921,0,0,270.0*
21,1,0.04921,0.09843,0,0,270.0*
1,1,0.04921,-0.02461,-0.02461*
1,1,0.04921,-0.02461,0.02461*
1,1,0.04921,0.02461,0.02461*
1,1,0.04921,0.02461,-0.02461*
%
%ADD21ROUNDEDRECTD21*%
%ADD22O,0.08000X0.11811*%
%ADD23C,0.05906*%
G04:AMPARAMS|DCode=24|XSize=59.06mil|YSize=59.06mil|CornerRadius=14.76mil|HoleSize=0mil|Usage=FLASHONLY|Rotation=270.000|XOffset=0mil|YOffset=0mil|HoleType=Round|Shape=RoundedRectangle|*
%AMROUNDEDRECTD24*
21,1,0.05906,0.02953,0,0,270.0*
21,1,0.02953,0.05906,0,0,270.0*
1,1,0.02953,-0.01476,-0.01476*
1,1,0.02953,-0.01476,0.01476*
1,1,0.02953,0.01476,0.01476*
1,1,0.02953,0.01476,-0.01476*
%
%ADD24ROUNDEDRECTD24*%
%ADD25C,0.03150*%
%ADD26O,0.17716X0.07874*%
%ADD27C,0.02800*%
%ADD28R,0.03543X0.03937*%
%ADD29R,0.03937X0.03543*%
%ADD30R,0.07874X0.09449*%
G04:AMPARAMS|DCode=31|XSize=31.5mil|YSize=51.18mil|CornerRadius=7.87mil|HoleSize=0mil|Usage=FLASHONLY|Rotation=270.000|XOffset=0mil|YOffset=0mil|HoleType=Round|Shape=RoundedRectangle|*
%AMROUNDEDRECTD31*
21,1,0.03150,0.03543,0,0,270.0*
21,1,0.01575,0.05118,0,0,270.0*
1,1,0.01575,-0.01772,-0.00787*
1,1,0.01575,-0.01772,0.00787*
1,1,0.01575,0.01772,0.00787*
1,1,0.01575,0.01772,-0.00787*
%
%ADD31ROUNDEDRECTD31*%
G04:AMPARAMS|DCode=32|XSize=31.5mil|YSize=51.18mil|CornerRadius=7.87mil|HoleSize=0mil|Usage=FLASHONLY|Rotation=0.000|XOffset=0mil|YOffset=0mil|HoleType=Round|Shape=RoundedRectangle|*
%AMROUNDEDRECTD32*
21,1,0.03150,0.03543,0,0,0.0*
21,1,0.01575,0.05118,0,0,0.0*
1,1,0.01575,0.00787,-0.01772*
1,1,0.01575,-0.00787,-0.01772*
1,1,0.01575,-0.00787,0.01772*
1,1,0.01575,0.00787,0.01772*
%
%ADD32ROUNDEDRECTD32*%
%ADD33O,0.02165X0.05118*%
%ADD34O,0.05118X0.02165*%
%ADD35R,0.04500X0.04000*%
%ADD36R,0.05100X0.03000*%
G36*
X172370Y174370D02*
Y174370D01*
X172380Y174379D01*
X172762Y174341D01*
X173139Y174227D01*
X173487Y174041D01*
X173791Y173791D01*
X174041Y173487D01*
X174227Y173139D01*
X174341Y172762D01*
X174380Y172370D01*
X174380Y168734D01*
X173548Y168179D01*
X173372Y168252D01*
X172796Y168418D01*
X172205Y168518D01*
X171606Y168552D01*
X161764D01*
X161165Y168518D01*
X160574Y168418D01*
X159998Y168252D01*
X159444Y168022D01*
X158920Y167732D01*
X158431Y167385D01*
X157984Y166986D01*
X157585Y166539D01*
X157238Y166050D01*
X156948Y165526D01*
X156718Y164972D01*
X156552Y164396D01*
X156452Y163805D01*
X156418Y163206D01*
X156452Y162608D01*
X156552Y162017D01*
X156718Y161441D01*
X156948Y160887D01*
X157238Y160362D01*
X157585Y159873D01*
X157984Y159426D01*
X158431Y159027D01*
X158920Y158680D01*
X159444Y158390D01*
X159998Y158161D01*
X160574Y157995D01*
X161165Y157895D01*
X161764Y157861D01*
X171606D01*
X172205Y157895D01*
X172796Y157995D01*
X173372Y158161D01*
X173547Y158233D01*
X174379Y157678D01*
X174376Y123854D01*
X173545Y123298D01*
X173372Y123370D01*
X172796Y123536D01*
X172205Y123636D01*
X171606Y123670D01*
X161764D01*
X161165Y123636D01*
X160574Y123536D01*
X159998Y123370D01*
X159444Y123141D01*
X158920Y122851D01*
X158431Y122504D01*
X157984Y122104D01*
X157585Y121657D01*
X157238Y121168D01*
X156948Y120644D01*
X156718Y120090D01*
X156552Y119514D01*
X156452Y118923D01*
X156418Y118324D01*
X156452Y117726D01*
X156552Y117135D01*
X156718Y116559D01*
X156948Y116005D01*
X157238Y115480D01*
X157585Y114992D01*
X157984Y114545D01*
X158431Y114145D01*
X158920Y113798D01*
X159444Y113508D01*
X159998Y113279D01*
X160574Y113113D01*
X161165Y113013D01*
X161764Y112979D01*
X171606D01*
X172205Y113013D01*
X172796Y113113D01*
X173372Y113279D01*
X173544Y113350D01*
X174375Y112795D01*
X174370Y44370D01*
X174370D01*
X174379Y44360D01*
X174341Y43978D01*
X174227Y43601D01*
X174041Y43254D01*
X173791Y42949D01*
X173487Y42699D01*
X173139Y42513D01*
X172762Y42399D01*
X172370Y42360D01*
X44370Y42370D01*
Y42370D01*
X44360Y42361D01*
X43978Y42399D01*
X43601Y42513D01*
X43254Y42699D01*
X42949Y42949D01*
X42699Y43254D01*
X42513Y43601D01*
X42399Y43978D01*
X42360Y44370D01*
X42370Y172370D01*
X42370D01*
X42361Y172380D01*
X42399Y172762D01*
X42513Y173139D01*
X42699Y173487D01*
X42949Y173791D01*
X43254Y174041D01*
X43601Y174227D01*
X43978Y174341D01*
X44370Y174380D01*
X172370Y174370D01*
D02*
G37*
%LPC*%
G36*
X90655Y76969D02*
X90050Y76935D01*
X89452Y76833D01*
X88869Y76666D01*
X88309Y76433D01*
X87778Y76140D01*
X87283Y75789D01*
X86831Y75385D01*
X86427Y74933D01*
X86234Y74661D01*
X85234D01*
X85041Y74933D01*
X84637Y75385D01*
X84185Y75789D01*
X83690Y76140D01*
X83159Y76433D01*
X82599Y76666D01*
X82016Y76833D01*
X81418Y76935D01*
X80813Y76969D01*
X80207Y76935D01*
X79609Y76833D01*
X79026Y76666D01*
X78466Y76433D01*
X77935Y76140D01*
X77440Y75789D01*
X76988Y75385D01*
X76584Y74933D01*
X76233Y74438D01*
X75940Y73907D01*
X75708Y73347D01*
X75540Y72764D01*
X75533Y72722D01*
X74570Y72450D01*
X74194Y72879D01*
X73746Y73272D01*
X73250Y73604D01*
X72715Y73867D01*
X72150Y74059D01*
X71565Y74176D01*
X70970Y74215D01*
X70375Y74176D01*
X69790Y74059D01*
X69225Y73867D01*
X68690Y73604D01*
X68195Y73272D01*
X67746Y72879D01*
X67370Y72450D01*
X66408Y72722D01*
X66400Y72764D01*
X66233Y73347D01*
X66000Y73907D01*
X65707Y74438D01*
X65356Y74933D01*
X64952Y75385D01*
X64500Y75789D01*
X64005Y76140D01*
X63474Y76433D01*
X62914Y76666D01*
X62331Y76833D01*
X61733Y76935D01*
X61128Y76969D01*
X60522Y76935D01*
X59924Y76833D01*
X59341Y76666D01*
X58781Y76433D01*
X58250Y76140D01*
X57755Y75789D01*
X57303Y75385D01*
X56899Y74933D01*
X56706Y74661D01*
X55706D01*
X55514Y74933D01*
X55109Y75385D01*
X54657Y75789D01*
X54163Y76140D01*
X53632Y76433D01*
X53071Y76666D01*
X52488Y76833D01*
X51891Y76935D01*
X51285Y76969D01*
X50679Y76935D01*
X50081Y76833D01*
X49499Y76666D01*
X48938Y76433D01*
X48408Y76140D01*
X47913Y75789D01*
X47461Y75385D01*
X47056Y74933D01*
X46705Y74438D01*
X46412Y73907D01*
X46180Y73347D01*
X46012Y72764D01*
X45911Y72166D01*
X45877Y71561D01*
Y67750D01*
X45911Y67144D01*
X46012Y66546D01*
X46180Y65963D01*
X46412Y65403D01*
X46705Y64872D01*
X47056Y64377D01*
X47461Y63925D01*
X47913Y63521D01*
X48408Y63170D01*
X48938Y62877D01*
X49499Y62645D01*
X50081Y62477D01*
X50679Y62375D01*
X51285Y62341D01*
X51891Y62375D01*
X52488Y62477D01*
X53071Y62645D01*
X53632Y62877D01*
X54163Y63170D01*
X54657Y63521D01*
X55109Y63925D01*
X55514Y64377D01*
X55706Y64649D01*
X56706D01*
X56899Y64377D01*
X57303Y63925D01*
X57755Y63521D01*
X58250Y63170D01*
X58781Y62877D01*
X59341Y62645D01*
X59924Y62477D01*
X60522Y62375D01*
X61128Y62341D01*
X61733Y62375D01*
X62331Y62477D01*
X62914Y62645D01*
X63474Y62877D01*
X64005Y63170D01*
X64500Y63521D01*
X64952Y63925D01*
X65356Y64377D01*
X65707Y64872D01*
X66000Y65403D01*
X66233Y65963D01*
X66400Y66546D01*
X66408Y66588D01*
X67370Y66860D01*
X67746Y66431D01*
X68195Y66038D01*
X68690Y65707D01*
X69225Y65443D01*
X69790Y65251D01*
X70375Y65135D01*
X70970Y65096D01*
X71565Y65135D01*
X72150Y65251D01*
X72715Y65443D01*
X73250Y65707D01*
X73746Y66038D01*
X74194Y66431D01*
X74570Y66860D01*
X75533Y66588D01*
X75540Y66546D01*
X75708Y65963D01*
X75940Y65403D01*
X76233Y64872D01*
X76584Y64377D01*
X76988Y63925D01*
X77440Y63521D01*
X77935Y63170D01*
X78466Y62877D01*
X79026Y62645D01*
X79609Y62477D01*
X80207Y62375D01*
X80813Y62341D01*
X81418Y62375D01*
X82016Y62477D01*
X82599Y62645D01*
X83159Y62877D01*
X83690Y63170D01*
X84185Y63521D01*
X84637Y63925D01*
X85041Y64377D01*
X85234Y64649D01*
X86234D01*
X86427Y64377D01*
X86831Y63925D01*
X87283Y63521D01*
X87721Y63210D01*
X87746Y63185D01*
X87746Y63185D01*
D01*
X87782Y62730D01*
X87888Y62286D01*
X88063Y61864D01*
X88302Y61475D01*
X88598Y61128D01*
X93213Y56513D01*
X93560Y56217D01*
X93949Y55978D01*
X94371Y55804D01*
X94815Y55697D01*
X95270Y55661D01*
X103665D01*
X106493Y52834D01*
X106840Y52537D01*
X107229Y52299D01*
X107651Y52124D01*
X108095Y52017D01*
X108550Y51982D01*
X113384D01*
X113545Y51718D01*
X113839Y51374D01*
X114184Y51080D01*
X114570Y50843D01*
X114988Y50670D01*
X115428Y50564D01*
X115880Y50529D01*
X118832D01*
X119284Y50564D01*
X119724Y50670D01*
X120142Y50843D01*
X120528Y51080D01*
X120872Y51374D01*
X120982Y51502D01*
X121238Y51502D01*
Y51502D01*
X127581D01*
Y52508D01*
X129331D01*
Y57232D01*
X127581D01*
Y58239D01*
X121238D01*
Y58239D01*
X121017Y58239D01*
X120872Y58407D01*
X120528Y58701D01*
X120142Y58938D01*
X119724Y59111D01*
X119284Y59217D01*
X118832Y59252D01*
X115880D01*
X115428Y59217D01*
X114988Y59111D01*
X114570Y58938D01*
X114184Y58701D01*
X113839Y58407D01*
X113545Y58063D01*
X113384Y57800D01*
X109755D01*
X106927Y60627D01*
X106580Y60923D01*
X106191Y61162D01*
X105769Y61337D01*
X105325Y61443D01*
X104870Y61479D01*
X96475D01*
X94467Y63487D01*
X94480Y63925D01*
X94884Y64377D01*
X95235Y64872D01*
X95528Y65403D01*
X95760Y65963D01*
X95928Y66546D01*
X96030Y67144D01*
X96064Y67750D01*
Y71561D01*
X96030Y72166D01*
X95928Y72764D01*
X95760Y73347D01*
X95528Y73907D01*
X95235Y74438D01*
X94884Y74933D01*
X94480Y75385D01*
X94027Y75789D01*
X93533Y76140D01*
X93002Y76433D01*
X92441Y76666D01*
X91859Y76833D01*
X91261Y76935D01*
X90655Y76969D01*
D02*
G37*
G36*
X98842Y106908D02*
X97267D01*
X96924Y106881D01*
X96589Y106801D01*
X96271Y106669D01*
X95977Y106489D01*
X95715Y106266D01*
X95492Y106004D01*
X95312Y105710D01*
X95180Y105392D01*
X95110Y105099D01*
X90642D01*
X90330Y105075D01*
X90305Y105073D01*
X90241Y105057D01*
X89976Y104994D01*
X89755Y104902D01*
X89663Y104864D01*
X89554Y104797D01*
X89375Y104687D01*
X89117Y104467D01*
X88639Y105009D01*
Y105009D01*
X87632D01*
Y106759D01*
X82908D01*
Y105009D01*
X81902D01*
Y98666D01*
X88639D01*
Y99681D01*
X89538D01*
X89875Y99708D01*
X90204Y99787D01*
X90517Y99916D01*
X90517Y99916D01*
X90517Y99916D01*
X90805Y100093D01*
X91063Y100313D01*
X91063Y100313D01*
X91063Y100313D01*
X91536Y100786D01*
X95110D01*
X95180Y100493D01*
X95312Y100175D01*
X95492Y99881D01*
X95715Y99619D01*
X95977Y99396D01*
X96271Y99216D01*
X96589Y99084D01*
X96924Y99004D01*
X97267Y98977D01*
X98842D01*
X99185Y99004D01*
X99520Y99084D01*
X99838Y99216D01*
X100131Y99396D01*
X100393Y99619D01*
X100617Y99881D01*
X100797Y100175D01*
X100928Y100493D01*
X101009Y100828D01*
X101036Y101171D01*
Y104714D01*
X101009Y105057D01*
X100928Y105392D01*
X100797Y105710D01*
X100617Y106004D01*
X100393Y106266D01*
X100131Y106489D01*
X99838Y106669D01*
X99520Y106801D01*
X99185Y106881D01*
X98842Y106908D01*
D02*
G37*
G36*
X153032Y59252D02*
X150080D01*
X149628Y59217D01*
X149188Y59111D01*
X148770Y58938D01*
X148384Y58701D01*
X148039Y58407D01*
X147896Y58239D01*
X147674Y58239D01*
Y58239D01*
X141331D01*
Y57232D01*
X139581D01*
Y52508D01*
X141331D01*
Y51502D01*
X147674D01*
Y51502D01*
X147930Y51502D01*
X148039Y51374D01*
X148384Y51080D01*
X148770Y50843D01*
X149188Y50670D01*
X149628Y50564D01*
X150080Y50529D01*
X153032D01*
X153484Y50564D01*
X153924Y50670D01*
X154342Y50843D01*
X154728Y51080D01*
X155072Y51374D01*
X155367Y51718D01*
X155603Y52104D01*
X155776Y52523D01*
X155882Y52963D01*
X155918Y53414D01*
Y56367D01*
X155882Y56818D01*
X155776Y57258D01*
X155603Y57677D01*
X155367Y58063D01*
X155072Y58407D01*
X154728Y58701D01*
X154342Y58938D01*
X153924Y59111D01*
X153484Y59217D01*
X153032Y59252D01*
D02*
G37*
G36*
X51285Y54529D02*
X50690Y54490D01*
X50105Y54374D01*
X49540Y54182D01*
X49005Y53919D01*
X48509Y53587D01*
X48061Y53194D01*
X47668Y52746D01*
X47337Y52250D01*
X47073Y51715D01*
X46881Y51150D01*
X46765Y50565D01*
X46726Y49970D01*
X46765Y49375D01*
X46881Y48790D01*
X47073Y48225D01*
X47337Y47690D01*
X47668Y47194D01*
X48061Y46746D01*
X48509Y46353D01*
X49005Y46022D01*
X49540Y45758D01*
X50105Y45566D01*
X50690Y45450D01*
X51285Y45411D01*
X51880Y45450D01*
X52465Y45566D01*
X53030Y45758D01*
X53565Y46022D01*
X54061Y46353D01*
X54509Y46746D01*
X54902Y47194D01*
X55234Y47690D01*
X55497Y48225D01*
X55689Y48790D01*
X55805Y49375D01*
X55844Y49970D01*
X55805Y50565D01*
X55689Y51150D01*
X55497Y51715D01*
X55234Y52250D01*
X54902Y52746D01*
X54509Y53194D01*
X54061Y53587D01*
X53565Y53919D01*
X53030Y54182D01*
X52465Y54374D01*
X51880Y54490D01*
X51285Y54529D01*
D02*
G37*
G36*
X90655D02*
X90060Y54490D01*
X89475Y54374D01*
X88910Y54182D01*
X88375Y53919D01*
X87880Y53587D01*
X87431Y53194D01*
X87038Y52746D01*
X86707Y52250D01*
X86443Y51715D01*
X86251Y51150D01*
X86135Y50565D01*
X86096Y49970D01*
X86135Y49375D01*
X86251Y48790D01*
X86443Y48225D01*
X86707Y47690D01*
X87038Y47194D01*
X87431Y46746D01*
X87880Y46353D01*
X88375Y46022D01*
X88910Y45758D01*
X89475Y45566D01*
X90060Y45450D01*
X90655Y45411D01*
X91250Y45450D01*
X91835Y45566D01*
X92400Y45758D01*
X92935Y46022D01*
X93431Y46353D01*
X93879Y46746D01*
X94272Y47194D01*
X94604Y47690D01*
X94867Y48225D01*
X95059Y48790D01*
X95175Y49375D01*
X95214Y49970D01*
X95175Y50565D01*
X95059Y51150D01*
X94867Y51715D01*
X94604Y52250D01*
X94272Y52746D01*
X93879Y53194D01*
X93431Y53587D01*
X92935Y53919D01*
X92400Y54182D01*
X91835Y54374D01*
X91250Y54490D01*
X90655Y54529D01*
D02*
G37*
G36*
X113870Y114277D02*
X107870D01*
X107596Y114250D01*
X107332Y114170D01*
X107088Y114040D01*
X106875Y113865D01*
X106700Y113652D01*
X106570Y113408D01*
X106490Y113145D01*
X106463Y112870D01*
Y107433D01*
X106363Y107269D01*
X105632Y106780D01*
X105615Y106787D01*
X105235Y106878D01*
X104846Y106909D01*
X104456Y106878D01*
X104076Y106787D01*
X103715Y106638D01*
X103382Y106434D01*
X103085Y106180D01*
X102831Y105883D01*
X102627Y105550D01*
X102477Y105188D01*
X102386Y104808D01*
X102355Y104419D01*
Y101466D01*
X102386Y101076D01*
X102477Y100697D01*
X102627Y100336D01*
X102689Y100234D01*
Y98253D01*
X100845D01*
Y97246D01*
X99095D01*
Y92522D01*
X100845D01*
Y91516D01*
X105615D01*
X105670Y91332D01*
X105800Y91088D01*
X105975Y90875D01*
X106188Y90700D01*
X106432Y90570D01*
X106461Y90561D01*
Y76656D01*
X106461Y76656D01*
X106461D01*
X106497Y76201D01*
X106604Y75757D01*
X106778Y75335D01*
X107017Y74946D01*
X107313Y74599D01*
X113009Y68903D01*
X112994Y68670D01*
X113031Y68101D01*
X113143Y67541D01*
X113326Y67001D01*
X113578Y66489D01*
X113895Y66015D01*
X114271Y65586D01*
X114700Y65209D01*
X115175Y64892D01*
X115687Y64640D01*
X116227Y64457D01*
X116787Y64345D01*
X117356Y64308D01*
X117925Y64345D01*
X118485Y64457D01*
X119025Y64640D01*
X119537Y64892D01*
X120011Y65209D01*
X120440Y65586D01*
X120594Y65761D01*
X121238Y65302D01*
Y65302D01*
X127581D01*
Y65302D01*
X127581D01*
X127581Y65302D01*
X127931D01*
Y65302D01*
X133931D01*
Y65302D01*
X133931Y65302D01*
X134274Y65302D01*
X134456D01*
X134638D01*
X134981Y65302D01*
X134981Y65302D01*
Y65302D01*
X140981D01*
Y65302D01*
X140981D01*
X140981Y65302D01*
X141331D01*
Y65302D01*
X147674D01*
Y65302D01*
X148318Y65761D01*
X148471Y65586D01*
X148900Y65209D01*
X149375Y64892D01*
X149887Y64640D01*
X150427Y64457D01*
X150987Y64345D01*
X151556Y64308D01*
X152125Y64345D01*
X152685Y64457D01*
X153225Y64640D01*
X153737Y64892D01*
X154211Y65209D01*
X154640Y65586D01*
X155017Y66015D01*
X155334Y66489D01*
X155586Y67001D01*
X155769Y67541D01*
X155881Y68101D01*
X155918Y68670D01*
X155881Y69239D01*
X155769Y69799D01*
X155586Y70339D01*
X155334Y70851D01*
X155017Y71325D01*
X154640Y71754D01*
X154211Y72131D01*
X153737Y72448D01*
X153225Y72700D01*
X152685Y72883D01*
X152125Y72995D01*
X151556Y73032D01*
X150987Y72995D01*
X150427Y72883D01*
X149887Y72700D01*
X149375Y72448D01*
X148900Y72131D01*
X148471Y71754D01*
X148318Y71579D01*
X147674Y72039D01*
Y72039D01*
X147411Y72039D01*
Y76377D01*
X147378Y76799D01*
X147376Y76832D01*
X147269Y77276D01*
X147224Y77384D01*
Y80195D01*
X146218D01*
Y81945D01*
X141494D01*
Y80195D01*
X140318D01*
Y81945D01*
X135594D01*
Y80902D01*
X134887Y80195D01*
X134587D01*
X134456D01*
X134325D01*
X134025D01*
X133318Y80902D01*
Y81945D01*
X128594D01*
Y80195D01*
X127418D01*
Y81945D01*
X122694D01*
Y80195D01*
X121687D01*
Y77384D01*
X121643Y77276D01*
X121536Y76832D01*
X121501Y76377D01*
Y72039D01*
X121238Y72039D01*
Y72039D01*
X120594Y71579D01*
X120440Y71754D01*
X120011Y72131D01*
X119537Y72448D01*
X119025Y72700D01*
X118485Y72883D01*
X117925Y72995D01*
X117356Y73032D01*
X117123Y73017D01*
X112279Y77861D01*
Y90723D01*
X112465Y90875D01*
X112640Y91088D01*
X112770Y91332D01*
X112826Y91516D01*
X118295D01*
Y92522D01*
X120045D01*
Y97246D01*
X118295D01*
Y98253D01*
X116451D01*
Y100234D01*
X116513Y100336D01*
X116663Y100697D01*
X116754Y101076D01*
X116785Y101466D01*
Y104419D01*
X116754Y104808D01*
X116663Y105188D01*
X116513Y105550D01*
X116309Y105883D01*
X116055Y106180D01*
X115758Y106434D01*
X115425Y106638D01*
X115277Y106699D01*
Y112870D01*
X115250Y113145D01*
X115170Y113408D01*
X115040Y113652D01*
X114865Y113865D01*
X114652Y114040D01*
X114408Y114170D01*
X114145Y114250D01*
X113870Y114277D01*
D02*
G37*
G36*
X166685Y153197D02*
X166219Y153166D01*
X165760Y153075D01*
X165318Y152925D01*
X164899Y152718D01*
X164510Y152458D01*
X164158Y152150D01*
X163850Y151799D01*
X163591Y151410D01*
X163384Y150991D01*
X163234Y150548D01*
X163143Y150090D01*
X163112Y149624D01*
X163143Y149157D01*
X163234Y148699D01*
X163384Y148256D01*
X163591Y147837D01*
X163850Y147449D01*
X164158Y147097D01*
X164510Y146789D01*
X164899Y146529D01*
X165318Y146323D01*
X165760Y146172D01*
X166219Y146081D01*
X166685Y146051D01*
X167151Y146081D01*
X167610Y146172D01*
X168052Y146323D01*
X168472Y146529D01*
X168860Y146789D01*
X169211Y147097D01*
X169520Y147449D01*
X169779Y147837D01*
X169986Y148256D01*
X170136Y148699D01*
X170228Y149157D01*
X170258Y149624D01*
X170228Y150090D01*
X170136Y150548D01*
X169986Y150991D01*
X169779Y151410D01*
X169520Y151799D01*
X169211Y152150D01*
X168860Y152458D01*
X168472Y152718D01*
X168052Y152925D01*
X167610Y153075D01*
X167151Y153166D01*
X166685Y153197D01*
D02*
G37*
G36*
Y135480D02*
X166219Y135450D01*
X165760Y135358D01*
X165318Y135208D01*
X164899Y135001D01*
X164510Y134742D01*
X164158Y134434D01*
X163850Y134082D01*
X163591Y133694D01*
X163384Y133274D01*
X163234Y132832D01*
X163143Y132373D01*
X163112Y131907D01*
X163143Y131441D01*
X163234Y130982D01*
X163384Y130540D01*
X163591Y130121D01*
X163850Y129732D01*
X164158Y129381D01*
X164510Y129072D01*
X164899Y128813D01*
X165318Y128606D01*
X165760Y128456D01*
X166219Y128365D01*
X166685Y128334D01*
X167151Y128365D01*
X167610Y128456D01*
X168052Y128606D01*
X168472Y128813D01*
X168860Y129072D01*
X169211Y129381D01*
X169520Y129732D01*
X169779Y130121D01*
X169986Y130540D01*
X170136Y130982D01*
X170228Y131441D01*
X170258Y131907D01*
X170228Y132373D01*
X170136Y132832D01*
X169986Y133274D01*
X169779Y133694D01*
X169520Y134082D01*
X169211Y134434D01*
X168860Y134742D01*
X168472Y135001D01*
X168052Y135208D01*
X167610Y135358D01*
X167151Y135450D01*
X166685Y135480D01*
D02*
G37*
G36*
X109020Y172435D02*
X108748Y172435D01*
X108670D01*
Y172435D01*
X108670D01*
X108670D01*
X102327D01*
Y171196D01*
X102000Y171117D01*
X101687Y170988D01*
X101399Y170811D01*
X101141Y170591D01*
X99392Y168842D01*
X99173Y168585D01*
X98996Y168296D01*
X98866Y167984D01*
X98787Y167655D01*
X98761Y167317D01*
Y163091D01*
X95580D01*
Y150842D01*
X96585D01*
X96968Y149918D01*
X96673Y149623D01*
X96454Y149366D01*
X96277Y149077D01*
X96147Y148765D01*
X96068Y148436D01*
X96052Y148235D01*
X95027D01*
Y141498D01*
X96179D01*
X96277Y141263D01*
X96454Y140974D01*
X96673Y140717D01*
X97286Y140104D01*
X96940Y139166D01*
X96924Y139165D01*
X96589Y139084D01*
X96271Y138953D01*
X95977Y138773D01*
X95715Y138549D01*
X95492Y138287D01*
X95312Y137994D01*
X95180Y137676D01*
X95100Y137341D01*
X95073Y136998D01*
Y133581D01*
X91657D01*
X91313Y133554D01*
X90979Y133474D01*
X90661Y133342D01*
X90367Y133162D01*
X90105Y132939D01*
X89882Y132677D01*
X89702Y132384D01*
X89570Y132065D01*
X89490Y131731D01*
X89463Y131387D01*
Y129813D01*
X89490Y129469D01*
X89570Y129135D01*
X89702Y128816D01*
X89882Y128523D01*
X89952Y128440D01*
X89937Y128422D01*
X89733Y128089D01*
X89583Y127728D01*
X89492Y127348D01*
X89462Y126958D01*
X89492Y126569D01*
X89583Y126189D01*
X89733Y125828D01*
X89908Y125541D01*
X89785Y125365D01*
X89089Y124770D01*
X88639Y124860D01*
Y125002D01*
X81902D01*
Y118659D01*
X82908D01*
Y116909D01*
X87113D01*
Y112770D01*
X87140Y112433D01*
X87219Y112104D01*
X87349Y111791D01*
X87525Y111502D01*
X87745Y111245D01*
X87745Y111245D01*
X87745Y111245D01*
X89305Y109685D01*
X89305D01*
X89305Y109685D01*
X89305Y109685D01*
Y109685D01*
X89562Y109465D01*
X89851Y109289D01*
D01*
D01*
Y109289D01*
X89851Y109289D01*
D01*
D01*
X89851D01*
Y109289D01*
D01*
X89851D01*
Y109289D01*
X90163Y109159D01*
X90493Y109080D01*
X90517Y109078D01*
X90703Y109063D01*
X90821Y108991D01*
X91182Y108842D01*
X91562Y108750D01*
X91952Y108720D01*
X94905D01*
X95294Y108750D01*
X95674Y108842D01*
X96035Y108991D01*
X96368Y109195D01*
X96666Y109449D01*
X96920Y109746D01*
X97124Y110080D01*
X97273Y110441D01*
X97364Y110821D01*
X97395Y111210D01*
X97364Y111600D01*
X97273Y111980D01*
X97124Y112341D01*
X96920Y112674D01*
X96666Y112971D01*
X96368Y113225D01*
X96035Y113429D01*
X95674Y113579D01*
X95294Y113670D01*
X94905Y113700D01*
X91952D01*
X91952Y113701D01*
X91952Y113700D01*
D01*
X91562Y113673D01*
X91427Y114234D01*
X92046Y115019D01*
X94905D01*
X95294Y115050D01*
X95674Y115141D01*
X96035Y115290D01*
X96368Y115495D01*
X96666Y115749D01*
X96920Y116046D01*
X97124Y116379D01*
X97273Y116740D01*
X97364Y117120D01*
X97395Y117509D01*
X97364Y117899D01*
X97273Y118279D01*
X97124Y118640D01*
X96920Y118973D01*
X96825Y119084D01*
X96920Y119195D01*
X97124Y119528D01*
X97273Y119889D01*
X97364Y120269D01*
X97395Y120659D01*
X97364Y121049D01*
X97273Y121429D01*
X97124Y121790D01*
X96920Y122123D01*
X96825Y122234D01*
X96920Y122345D01*
X97124Y122678D01*
X97273Y123039D01*
X97364Y123419D01*
X97395Y123809D01*
X97364Y124198D01*
X97273Y124578D01*
X97124Y124939D01*
X96920Y125272D01*
X96825Y125383D01*
X96920Y125494D01*
X97124Y125828D01*
X97273Y126189D01*
X97364Y126569D01*
X97395Y126958D01*
X97400Y126963D01*
X99950D01*
X100231Y126896D01*
X100670Y126861D01*
X101110Y126896D01*
X101390Y126963D01*
X102470D01*
X102744Y126990D01*
X103008Y127070D01*
X103252Y127200D01*
X103465Y127375D01*
X103640Y127588D01*
X103770Y127832D01*
X103850Y128096D01*
X103877Y128370D01*
Y128877D01*
X104408Y131090D01*
X104611Y131278D01*
X104846Y131259D01*
X105235Y131290D01*
X105615Y131381D01*
X105976Y131531D01*
X106309Y131735D01*
X106421Y131830D01*
X106532Y131735D01*
X106865Y131531D01*
X107226Y131381D01*
X107606Y131290D01*
X107995Y131259D01*
X108385Y131290D01*
X108765Y131381D01*
X109126Y131531D01*
X109459Y131735D01*
X109570Y131830D01*
X109681Y131735D01*
X110014Y131531D01*
X110375Y131381D01*
X110755Y131290D01*
X111145Y131259D01*
X111535Y131290D01*
X111915Y131381D01*
X112276Y131531D01*
X112609Y131735D01*
X112720Y131830D01*
X112831Y131735D01*
X113164Y131531D01*
X113525Y131381D01*
X113905Y131290D01*
X114295Y131259D01*
X114684Y131290D01*
X115064Y131381D01*
X115425Y131531D01*
X115758Y131735D01*
X115869Y131830D01*
X115980Y131735D01*
X116314Y131531D01*
X116674Y131381D01*
X117054Y131290D01*
X117414Y131262D01*
X118064Y130501D01*
X118061Y130470D01*
X118096Y130031D01*
X118199Y129602D01*
X118368Y129195D01*
X118598Y128819D01*
X118884Y128484D01*
X119219Y128198D01*
X119595Y127968D01*
X120002Y127799D01*
X120431Y127696D01*
X120870Y127661D01*
X121039Y127675D01*
X121746Y126968D01*
X121745Y126958D01*
X121776Y126569D01*
X121867Y126189D01*
X122017Y125828D01*
X122221Y125494D01*
X122316Y125383D01*
X122221Y125272D01*
X122017Y124939D01*
X121867Y124578D01*
X121776Y124198D01*
X121745Y123809D01*
X121776Y123419D01*
X121867Y123039D01*
X122017Y122678D01*
X122221Y122345D01*
X122475Y122048D01*
X122772Y121794D01*
X123105Y121590D01*
X123466Y121440D01*
X123846Y121349D01*
X124235Y121318D01*
X127188D01*
X127479Y121341D01*
X127676Y121159D01*
Y120159D01*
X127479Y119977D01*
X127188Y120000D01*
X124235D01*
X123846Y119969D01*
X123466Y119878D01*
X123105Y119728D01*
X123003Y119666D01*
X122710D01*
X122621Y119742D01*
X122245Y119973D01*
X121838Y120141D01*
X121409Y120244D01*
X120970Y120279D01*
X120531Y120244D01*
X120102Y120141D01*
X119695Y119973D01*
X119319Y119742D01*
X118984Y119456D01*
X118698Y119121D01*
X118468Y118745D01*
X118299Y118338D01*
X118196Y117909D01*
X118161Y117470D01*
X118196Y117031D01*
X118299Y116602D01*
X118468Y116195D01*
X118698Y115819D01*
X118984Y115484D01*
X119319Y115198D01*
X119695Y114968D01*
X120102Y114799D01*
X120531Y114696D01*
X120970Y114661D01*
X121054Y114629D01*
X121772Y114015D01*
X121776Y113970D01*
X121867Y113590D01*
X122017Y113229D01*
X122221Y112896D01*
X122316Y112785D01*
X122221Y112674D01*
X122017Y112341D01*
X121867Y111980D01*
X121776Y111600D01*
X121745Y111210D01*
X121776Y110821D01*
X121867Y110441D01*
X122017Y110080D01*
X122221Y109746D01*
X122236Y109729D01*
X122165Y109646D01*
X121985Y109352D01*
X121853Y109034D01*
X121773Y108699D01*
X121746Y108356D01*
Y106781D01*
X121773Y106438D01*
X121853Y106103D01*
X121985Y105785D01*
X122165Y105491D01*
X122389Y105229D01*
X122651Y105006D01*
X122944Y104826D01*
X123262Y104694D01*
X123597Y104614D01*
X123940Y104587D01*
X127463D01*
Y102370D01*
X127490Y102096D01*
X127570Y101832D01*
X127700Y101588D01*
X127875Y101375D01*
X128088Y101200D01*
X128332Y101070D01*
X128596Y100990D01*
X128870Y100963D01*
X132370D01*
X132644Y100990D01*
X132908Y101070D01*
X133152Y101200D01*
X133365Y101375D01*
X133540Y101588D01*
X133670Y101832D01*
X133750Y102096D01*
X133777Y102370D01*
Y109070D01*
X133750Y109344D01*
X133670Y109608D01*
X133540Y109852D01*
X133365Y110065D01*
D01*
X133365Y110065D01*
X133365Y110065D01*
X133365Y110065D01*
X133365Y110065D01*
X133144Y110294D01*
X134195Y111345D01*
X134415Y111602D01*
X134525Y111781D01*
X134592Y111891D01*
X134630Y111983D01*
X134643Y112016D01*
X138395D01*
Y111846D01*
X138395D01*
Y107122D01*
X140145D01*
Y106116D01*
X146488D01*
Y106280D01*
X146917Y106676D01*
X147356Y106710D01*
X147784Y106813D01*
X148192Y106982D01*
X148567Y107212D01*
X148903Y107498D01*
X149189Y107833D01*
X149419Y108209D01*
X149588Y108616D01*
X149691Y109045D01*
X149725Y109484D01*
X149691Y109924D01*
X149588Y110352D01*
X149419Y110759D01*
X149189Y111135D01*
X148903Y111470D01*
X148567Y111757D01*
X148277Y111934D01*
Y112934D01*
X148567Y113112D01*
X148902Y113398D01*
X149189Y113733D01*
X149419Y114109D01*
X149588Y114516D01*
X149691Y114945D01*
X149725Y115384D01*
X149691Y115824D01*
X149588Y116252D01*
X149419Y116659D01*
X149189Y117035D01*
X148902Y117370D01*
X148567Y117657D01*
X148192Y117887D01*
X147784Y118055D01*
X147514Y118120D01*
X147631Y119113D01*
X148970D01*
X149307Y119140D01*
X149636Y119219D01*
X149949Y119349D01*
X150238Y119525D01*
X150495Y119745D01*
X151295Y120545D01*
X151515Y120802D01*
X151692Y121091D01*
X151821Y121404D01*
X151840Y121482D01*
X152042Y121719D01*
X152273Y122095D01*
X152441Y122502D01*
X152544Y122931D01*
X152579Y123370D01*
X152544Y123809D01*
X152441Y124238D01*
X152273Y124645D01*
X152042Y125021D01*
X151756Y125356D01*
X151421Y125642D01*
X151045Y125873D01*
X150638Y126041D01*
X150209Y126144D01*
X150181Y126146D01*
X149835Y127085D01*
X151274Y128524D01*
X151494Y128781D01*
X151670Y129070D01*
X151800Y129382D01*
X151879Y129711D01*
X151906Y130049D01*
Y142916D01*
X152021Y143052D01*
X152251Y143427D01*
X152420Y143834D01*
X152523Y144263D01*
X152558Y144702D01*
X152523Y145142D01*
X152420Y145570D01*
X152251Y145977D01*
X152021Y146353D01*
X151735Y146688D01*
X151400Y146975D01*
X151149Y147128D01*
X151365Y147375D01*
X151365Y147375D01*
X151365D01*
X151365Y147375D01*
X151365Y147375D01*
D01*
X151540Y147589D01*
X151670Y147832D01*
X151750Y148096D01*
X151777Y148370D01*
Y158970D01*
X151750Y159245D01*
X151670Y159508D01*
X151540Y159752D01*
X151365Y159965D01*
X151152Y160140D01*
X150908Y160270D01*
X150645Y160350D01*
X150370Y160377D01*
X146870D01*
X146596Y160350D01*
X146332Y160270D01*
X146089Y160140D01*
X145875Y159965D01*
X145700Y159752D01*
X145570Y159508D01*
X145490Y159245D01*
X145463Y158970D01*
Y154153D01*
X141545D01*
Y154153D01*
Y154222D01*
X141545Y154860D01*
X141545Y154860D01*
X141545D01*
Y158946D01*
D01*
Y158946D01*
X141545Y158946D01*
Y159508D01*
X141545D01*
Y164232D01*
X139795D01*
Y165239D01*
X133452D01*
Y164938D01*
X132621Y164383D01*
X132238Y164541D01*
X131809Y164644D01*
X131370Y164679D01*
X130931Y164644D01*
X130502Y164541D01*
X130095Y164373D01*
X129719Y164142D01*
X129384Y163856D01*
X129098Y163521D01*
X128868Y163145D01*
X128699Y162738D01*
X128596Y162309D01*
X128561Y161870D01*
X128596Y161431D01*
X128699Y161002D01*
X128868Y160595D01*
X129098Y160219D01*
X129384Y159884D01*
X129576Y159720D01*
Y158720D01*
X129384Y158556D01*
X129098Y158221D01*
X128868Y157845D01*
X128699Y157438D01*
X128596Y157009D01*
X128561Y156570D01*
X128596Y156131D01*
X128699Y155702D01*
X128868Y155295D01*
X129098Y154919D01*
X129384Y154584D01*
X129719Y154298D01*
X130095Y154068D01*
X130502Y153899D01*
X130931Y153796D01*
X131370Y153761D01*
X131809Y153796D01*
X132238Y153899D01*
X132621Y154057D01*
X133452Y153502D01*
Y153216D01*
X138326D01*
X138395Y153146D01*
X138395Y152509D01*
X138395Y152509D01*
X138395D01*
Y148422D01*
D01*
Y148422D01*
X138226Y148253D01*
X133452D01*
Y147793D01*
X132724D01*
X132516Y147777D01*
X129870D01*
X129596Y147750D01*
X129332Y147670D01*
X129088Y147540D01*
X128875Y147365D01*
X128700Y147152D01*
X128570Y146908D01*
X128490Y146644D01*
X128463Y146370D01*
Y139870D01*
X128490Y139596D01*
X128570Y139332D01*
X128596Y139285D01*
X128343Y138862D01*
X127350Y138740D01*
X124295Y141795D01*
X124038Y142015D01*
X123749Y142192D01*
X123436Y142321D01*
X123107Y142400D01*
X122770Y142427D01*
X122563D01*
Y148235D01*
X121533D01*
X121523Y148362D01*
X121521Y148386D01*
X121506Y148450D01*
X121442Y148715D01*
X121351Y148936D01*
X121313Y149028D01*
X121246Y149138D01*
X121136Y149317D01*
X120916Y149574D01*
X120572Y149918D01*
X120955Y150842D01*
X122002D01*
Y163091D01*
X118822D01*
Y167475D01*
X118795Y167812D01*
X118716Y168141D01*
X118587Y168454D01*
X118410Y168743D01*
X118190Y169000D01*
X116599Y170591D01*
X116342Y170811D01*
X116053Y170988D01*
X115741Y171117D01*
X115411Y171196D01*
X115363Y171200D01*
Y172435D01*
X109020D01*
Y172435D01*
D02*
G37*
%LPD*%
G36*
X114509Y163091D02*
X111328D01*
Y150842D01*
X114509D01*
Y150775D01*
X114535Y150437D01*
X114614Y150108D01*
X114744Y149796D01*
X114921Y149507D01*
X115140Y149250D01*
X116220Y148170D01*
Y147228D01*
X114470D01*
Y146412D01*
X114445Y146391D01*
X114225Y146134D01*
X114049Y145845D01*
X113919Y145533D01*
X113840Y145203D01*
X113813Y144866D01*
Y143240D01*
X113300Y142727D01*
X112170D01*
X111833Y142700D01*
X111504Y142621D01*
X111191Y142492D01*
X110902Y142315D01*
X110645Y142095D01*
X109620Y141070D01*
D01*
X109620Y141070D01*
Y141070D01*
X109420Y141070D01*
X108395Y142095D01*
X108138Y142315D01*
X107849Y142492D01*
X107536Y142621D01*
X107207Y142700D01*
X106870Y142727D01*
X103120D01*
Y147228D01*
X101370D01*
Y148220D01*
X102442Y149292D01*
X102662Y149550D01*
X102839Y149838D01*
X102968Y150151D01*
X103047Y150480D01*
X103074Y150817D01*
Y150842D01*
X106254D01*
Y163091D01*
X103074D01*
Y165698D01*
X108670D01*
Y165698D01*
X108670D01*
X108670Y165698D01*
X109020D01*
Y165698D01*
X114509D01*
Y163091D01*
D02*
G37*
G36*
X147592Y142305D02*
Y136551D01*
X147471Y136439D01*
X146488Y136439D01*
Y136439D01*
X141545D01*
Y136622D01*
X141545D01*
Y141346D01*
D01*
Y141346D01*
X141714Y141516D01*
X146488D01*
Y142822D01*
X146795Y142909D01*
X147592Y142305D01*
D02*
G37*
G36*
X349535Y174370D02*
Y174370D01*
X349545Y174379D01*
X349927Y174341D01*
X350305Y174227D01*
X350652Y174041D01*
X350957Y173791D01*
X351206Y173487D01*
X351392Y173139D01*
X351506Y172762D01*
X351545Y172370D01*
X351545Y168734D01*
X350713Y168179D01*
X350537Y168252D01*
X349961Y168418D01*
X349370Y168518D01*
X348772Y168552D01*
X338929D01*
X338331Y168518D01*
X337740Y168418D01*
X337164Y168252D01*
X336610Y168022D01*
X336085Y167732D01*
X335596Y167385D01*
X335149Y166986D01*
X334750Y166539D01*
X334403Y166050D01*
X334113Y165526D01*
X333884Y164972D01*
X333718Y164396D01*
X333617Y163805D01*
X333584Y163206D01*
X333617Y162608D01*
X333718Y162017D01*
X333884Y161441D01*
X334113Y160887D01*
X334403Y160362D01*
X334750Y159873D01*
X335149Y159426D01*
X335596Y159027D01*
X336085Y158680D01*
X336610Y158390D01*
X337164Y158161D01*
X337740Y157995D01*
X338331Y157895D01*
X338929Y157861D01*
X348772D01*
X349370Y157895D01*
X349961Y157995D01*
X350537Y158161D01*
X350713Y158233D01*
X351544Y157678D01*
X351541Y123854D01*
X350710Y123298D01*
X350537Y123370D01*
X349961Y123536D01*
X349370Y123636D01*
X348772Y123670D01*
X338929D01*
X338331Y123636D01*
X337740Y123536D01*
X337164Y123370D01*
X336610Y123141D01*
X336085Y122851D01*
X335596Y122504D01*
X335149Y122104D01*
X334750Y121657D01*
X334403Y121168D01*
X334113Y120644D01*
X333884Y120090D01*
X333718Y119514D01*
X333617Y118923D01*
X333584Y118324D01*
X333617Y117726D01*
X333718Y117135D01*
X333884Y116559D01*
X334113Y116005D01*
X334403Y115480D01*
X334750Y114992D01*
X335149Y114545D01*
X335596Y114145D01*
X336085Y113798D01*
X336610Y113508D01*
X337164Y113279D01*
X337740Y113113D01*
X338331Y113013D01*
X338929Y112979D01*
X348772D01*
X349370Y113013D01*
X349961Y113113D01*
X350537Y113279D01*
X350709Y113350D01*
X351541Y112795D01*
X351535Y44370D01*
X351535D01*
X351544Y44360D01*
X351506Y43978D01*
X351392Y43601D01*
X351206Y43254D01*
X350957Y42949D01*
X350652Y42699D01*
X350305Y42513D01*
X349927Y42399D01*
X349535Y42360D01*
X221535Y42370D01*
Y42370D01*
X221526Y42361D01*
X221143Y42399D01*
X220766Y42513D01*
X220419Y42699D01*
X220114Y42949D01*
X219864Y43254D01*
X219679Y43601D01*
X219564Y43978D01*
X219526Y44370D01*
X219535Y172370D01*
X219535D01*
X219527Y172380D01*
X219564Y172762D01*
X219679Y173139D01*
X219864Y173487D01*
X220114Y173791D01*
X220419Y174041D01*
X220766Y174227D01*
X221143Y174341D01*
X221535Y174380D01*
X349535Y174370D01*
D02*
G37*
%LPC*%
G36*
X267821Y76969D02*
X267215Y76935D01*
X266617Y76833D01*
X266034Y76666D01*
X265474Y76433D01*
X264943Y76140D01*
X264448Y75789D01*
X263996Y75385D01*
X263592Y74933D01*
X263399Y74661D01*
X262399D01*
X262207Y74933D01*
X261802Y75385D01*
X261350Y75789D01*
X260856Y76140D01*
X260325Y76433D01*
X259764Y76666D01*
X259181Y76833D01*
X258583Y76935D01*
X257978Y76969D01*
X257372Y76935D01*
X256774Y76833D01*
X256192Y76666D01*
X255631Y76433D01*
X255100Y76140D01*
X254606Y75789D01*
X254154Y75385D01*
X253749Y74933D01*
X253398Y74438D01*
X253105Y73907D01*
X252873Y73347D01*
X252705Y72764D01*
X252698Y72722D01*
X251736Y72450D01*
X251359Y72879D01*
X250911Y73272D01*
X250415Y73604D01*
X249880Y73867D01*
X249316Y74059D01*
X248730Y74176D01*
X248135Y74215D01*
X247540Y74176D01*
X246955Y74059D01*
X246391Y73867D01*
X245856Y73604D01*
X245360Y73272D01*
X244912Y72879D01*
X244535Y72450D01*
X243573Y72722D01*
X243566Y72764D01*
X243398Y73347D01*
X243166Y73907D01*
X242872Y74438D01*
X242522Y74933D01*
X242117Y75385D01*
X241665Y75789D01*
X241170Y76140D01*
X240640Y76433D01*
X240079Y76666D01*
X239496Y76833D01*
X238898Y76935D01*
X238293Y76969D01*
X237687Y76935D01*
X237089Y76833D01*
X236507Y76666D01*
X235946Y76433D01*
X235415Y76140D01*
X234921Y75789D01*
X234469Y75385D01*
X234064Y74933D01*
X233872Y74661D01*
X232872D01*
X232679Y74933D01*
X232275Y75385D01*
X231822Y75789D01*
X231328Y76140D01*
X230797Y76433D01*
X230237Y76666D01*
X229654Y76833D01*
X229056Y76935D01*
X228450Y76969D01*
X227845Y76935D01*
X227247Y76833D01*
X226664Y76666D01*
X226104Y76433D01*
X225573Y76140D01*
X225078Y75789D01*
X224626Y75385D01*
X224222Y74933D01*
X223871Y74438D01*
X223577Y73907D01*
X223345Y73347D01*
X223178Y72764D01*
X223076Y72166D01*
X223042Y71561D01*
Y67750D01*
X223076Y67144D01*
X223178Y66546D01*
X223345Y65963D01*
X223577Y65403D01*
X223871Y64872D01*
X224222Y64377D01*
X224626Y63925D01*
X225078Y63521D01*
X225573Y63170D01*
X226104Y62877D01*
X226664Y62645D01*
X227247Y62477D01*
X227845Y62375D01*
X228450Y62341D01*
X229056Y62375D01*
X229654Y62477D01*
X230237Y62645D01*
X230797Y62877D01*
X231328Y63170D01*
X231822Y63521D01*
X232275Y63925D01*
X232679Y64377D01*
X232872Y64649D01*
X233872D01*
X234064Y64377D01*
X234469Y63925D01*
X234921Y63521D01*
X235415Y63170D01*
X235946Y62877D01*
X236507Y62645D01*
X237089Y62477D01*
X237687Y62375D01*
X238293Y62341D01*
X238898Y62375D01*
X239496Y62477D01*
X240079Y62645D01*
X240640Y62877D01*
X241170Y63170D01*
X241665Y63521D01*
X242117Y63925D01*
X242522Y64377D01*
X242872Y64872D01*
X243166Y65403D01*
X243398Y65963D01*
X243566Y66546D01*
X243573Y66588D01*
X244535Y66860D01*
X244912Y66431D01*
X245360Y66038D01*
X245856Y65707D01*
X246391Y65443D01*
X246955Y65251D01*
X247540Y65135D01*
X248135Y65096D01*
X248730Y65135D01*
X249316Y65251D01*
X249880Y65443D01*
X250415Y65707D01*
X250911Y66038D01*
X251359Y66431D01*
X251736Y66860D01*
X252698Y66588D01*
X252705Y66546D01*
X252873Y65963D01*
X253105Y65403D01*
X253398Y64872D01*
X253749Y64377D01*
X254154Y63925D01*
X254606Y63521D01*
X255100Y63170D01*
X255631Y62877D01*
X256192Y62645D01*
X256774Y62477D01*
X257372Y62375D01*
X257978Y62341D01*
X258583Y62375D01*
X259181Y62477D01*
X259764Y62645D01*
X260325Y62877D01*
X260856Y63170D01*
X261350Y63521D01*
X261802Y63925D01*
X262207Y64377D01*
X262399Y64649D01*
X263399D01*
X263592Y64377D01*
X263996Y63925D01*
X264448Y63521D01*
X264886Y63210D01*
X264912Y63185D01*
X264912Y63185D01*
D01*
X264947Y62730D01*
X265054Y62286D01*
X265229Y61864D01*
X265467Y61475D01*
X265763Y61128D01*
X270378Y56513D01*
X270726Y56217D01*
X271115Y55978D01*
X271536Y55804D01*
X271980Y55697D01*
X272435Y55661D01*
X280831D01*
X283658Y52834D01*
X284005Y52537D01*
X284394Y52299D01*
X284816Y52124D01*
X285260Y52017D01*
X285715Y51982D01*
X290549D01*
X290711Y51718D01*
X291005Y51374D01*
X291349Y51080D01*
X291735Y50843D01*
X292153Y50670D01*
X292594Y50564D01*
X293045Y50529D01*
X295998D01*
X296449Y50564D01*
X296889Y50670D01*
X297308Y50843D01*
X297694Y51080D01*
X298038Y51374D01*
X298147Y51502D01*
X298403Y51502D01*
Y51502D01*
X304747D01*
Y52508D01*
X306496D01*
Y57232D01*
X304747D01*
Y58239D01*
X298403D01*
Y58239D01*
X298182Y58239D01*
X298038Y58407D01*
X297694Y58701D01*
X297308Y58938D01*
X296889Y59111D01*
X296449Y59217D01*
X295998Y59252D01*
X293045D01*
X292594Y59217D01*
X292153Y59111D01*
X291735Y58938D01*
X291349Y58701D01*
X291005Y58407D01*
X290711Y58063D01*
X290549Y57800D01*
X286920D01*
X284092Y60627D01*
X283745Y60923D01*
X283356Y61162D01*
X282934Y61337D01*
X282490Y61443D01*
X282035Y61479D01*
X273640D01*
X271633Y63487D01*
X271645Y63925D01*
X272049Y64377D01*
X272400Y64872D01*
X272693Y65403D01*
X272925Y65963D01*
X273093Y66546D01*
X273195Y67144D01*
X273229Y67750D01*
Y71561D01*
X273195Y72166D01*
X273093Y72764D01*
X272925Y73347D01*
X272693Y73907D01*
X272400Y74438D01*
X272049Y74933D01*
X271645Y75385D01*
X271193Y75789D01*
X270698Y76140D01*
X270167Y76433D01*
X269607Y76666D01*
X269024Y76833D01*
X268426Y76935D01*
X267821Y76969D01*
D02*
G37*
G36*
X276007Y106908D02*
X274432D01*
X274089Y106881D01*
X273754Y106801D01*
X273436Y106669D01*
X273143Y106489D01*
X272881Y106266D01*
X272657Y106004D01*
X272477Y105710D01*
X272345Y105392D01*
X272275Y105099D01*
X267808D01*
X267495Y105075D01*
X267470Y105073D01*
X267407Y105057D01*
X267141Y104994D01*
X266920Y104902D01*
X266829Y104864D01*
X266719Y104797D01*
X266540Y104687D01*
X266283Y104467D01*
X265804Y105009D01*
Y105009D01*
X264798D01*
Y106759D01*
X260073D01*
Y105009D01*
X259067D01*
Y98666D01*
X265804D01*
Y99681D01*
X266703D01*
X267040Y99708D01*
X267370Y99787D01*
X267682Y99916D01*
X267682Y99916D01*
X267682Y99916D01*
X267971Y100093D01*
X268228Y100313D01*
X268228Y100313D01*
X268228Y100313D01*
X268701Y100786D01*
X272275D01*
X272345Y100493D01*
X272477Y100175D01*
X272657Y99881D01*
X272881Y99619D01*
X273143Y99396D01*
X273436Y99216D01*
X273754Y99084D01*
X274089Y99004D01*
X274432Y98977D01*
X276007D01*
X276350Y99004D01*
X276685Y99084D01*
X277003Y99216D01*
X277297Y99396D01*
X277559Y99619D01*
X277782Y99881D01*
X277962Y100175D01*
X278094Y100493D01*
X278174Y100828D01*
X278201Y101171D01*
Y104714D01*
X278174Y105057D01*
X278094Y105392D01*
X277962Y105710D01*
X277782Y106004D01*
X277559Y106266D01*
X277297Y106489D01*
X277003Y106669D01*
X276685Y106801D01*
X276350Y106881D01*
X276007Y106908D01*
D02*
G37*
G36*
X330198Y59252D02*
X327245D01*
X326794Y59217D01*
X326353Y59111D01*
X325935Y58938D01*
X325549Y58701D01*
X325205Y58407D01*
X325061Y58239D01*
X324839Y58239D01*
Y58239D01*
X318496D01*
Y57232D01*
X316746D01*
Y52508D01*
X318496D01*
Y51502D01*
X324839D01*
Y51502D01*
X325096Y51502D01*
X325205Y51374D01*
X325549Y51080D01*
X325935Y50843D01*
X326353Y50670D01*
X326794Y50564D01*
X327245Y50529D01*
X330198D01*
X330649Y50564D01*
X331089Y50670D01*
X331508Y50843D01*
X331894Y51080D01*
X332238Y51374D01*
X332532Y51718D01*
X332769Y52104D01*
X332942Y52523D01*
X333047Y52963D01*
X333083Y53414D01*
Y56367D01*
X333047Y56818D01*
X332942Y57258D01*
X332769Y57677D01*
X332532Y58063D01*
X332238Y58407D01*
X331894Y58701D01*
X331508Y58938D01*
X331089Y59111D01*
X330649Y59217D01*
X330198Y59252D01*
D02*
G37*
G36*
X228450Y54529D02*
X227855Y54490D01*
X227270Y54374D01*
X226706Y54182D01*
X226171Y53919D01*
X225675Y53587D01*
X225226Y53194D01*
X224833Y52746D01*
X224502Y52250D01*
X224238Y51715D01*
X224046Y51150D01*
X223930Y50565D01*
X223891Y49970D01*
X223930Y49375D01*
X224046Y48790D01*
X224238Y48225D01*
X224502Y47690D01*
X224833Y47194D01*
X225226Y46746D01*
X225675Y46353D01*
X226171Y46022D01*
X226706Y45758D01*
X227270Y45566D01*
X227855Y45450D01*
X228450Y45411D01*
X229046Y45450D01*
X229630Y45566D01*
X230195Y45758D01*
X230730Y46022D01*
X231226Y46353D01*
X231674Y46746D01*
X232068Y47194D01*
X232399Y47690D01*
X232663Y48225D01*
X232854Y48790D01*
X232971Y49375D01*
X233010Y49970D01*
X232971Y50565D01*
X232854Y51150D01*
X232663Y51715D01*
X232399Y52250D01*
X232068Y52746D01*
X231674Y53194D01*
X231226Y53587D01*
X230730Y53919D01*
X230195Y54182D01*
X229630Y54374D01*
X229046Y54490D01*
X228450Y54529D01*
D02*
G37*
G36*
X267821D02*
X267225Y54490D01*
X266640Y54374D01*
X266076Y54182D01*
X265541Y53919D01*
X265045Y53587D01*
X264597Y53194D01*
X264203Y52746D01*
X263872Y52250D01*
X263608Y51715D01*
X263417Y51150D01*
X263300Y50565D01*
X263261Y49970D01*
X263300Y49375D01*
X263417Y48790D01*
X263608Y48225D01*
X263872Y47690D01*
X264203Y47194D01*
X264597Y46746D01*
X265045Y46353D01*
X265541Y46022D01*
X266076Y45758D01*
X266640Y45566D01*
X267225Y45450D01*
X267821Y45411D01*
X268416Y45450D01*
X269001Y45566D01*
X269565Y45758D01*
X270100Y46022D01*
X270596Y46353D01*
X271044Y46746D01*
X271438Y47194D01*
X271769Y47690D01*
X272033Y48225D01*
X272224Y48790D01*
X272341Y49375D01*
X272380Y49970D01*
X272341Y50565D01*
X272224Y51150D01*
X272033Y51715D01*
X271769Y52250D01*
X271438Y52746D01*
X271044Y53194D01*
X270596Y53587D01*
X270100Y53919D01*
X269565Y54182D01*
X269001Y54374D01*
X268416Y54490D01*
X267821Y54529D01*
D02*
G37*
G36*
X291035Y114277D02*
X285035D01*
X284761Y114250D01*
X284497Y114170D01*
X284254Y114040D01*
X284041Y113865D01*
X283866Y113652D01*
X283736Y113408D01*
X283656Y113145D01*
X283629Y112870D01*
Y107433D01*
X283528Y107269D01*
X282797Y106780D01*
X282781Y106787D01*
X282401Y106878D01*
X282011Y106909D01*
X281621Y106878D01*
X281241Y106787D01*
X280880Y106638D01*
X280547Y106434D01*
X280250Y106180D01*
X279996Y105883D01*
X279792Y105550D01*
X279643Y105188D01*
X279551Y104808D01*
X279521Y104419D01*
Y101466D01*
X279551Y101076D01*
X279643Y100697D01*
X279792Y100336D01*
X279854Y100234D01*
Y98253D01*
X278010D01*
Y97246D01*
X276261D01*
Y92522D01*
X278010D01*
Y91516D01*
X282780D01*
X282836Y91332D01*
X282966Y91088D01*
X283141Y90875D01*
X283354Y90700D01*
X283597Y90570D01*
X283627Y90561D01*
Y76656D01*
X283627Y76656D01*
X283627D01*
X283662Y76201D01*
X283769Y75757D01*
X283944Y75335D01*
X284182Y74946D01*
X284478Y74599D01*
X290175Y68903D01*
X290159Y68670D01*
X290196Y68101D01*
X290308Y67541D01*
X290491Y67001D01*
X290744Y66489D01*
X291061Y66015D01*
X291437Y65586D01*
X291866Y65209D01*
X292340Y64892D01*
X292852Y64640D01*
X293392Y64457D01*
X293952Y64345D01*
X294521Y64308D01*
X295091Y64345D01*
X295650Y64457D01*
X296191Y64640D01*
X296702Y64892D01*
X297177Y65209D01*
X297606Y65586D01*
X297760Y65761D01*
X298403Y65302D01*
Y65302D01*
X304747D01*
Y65302D01*
X304747D01*
X304747Y65302D01*
X305096D01*
Y65302D01*
X311096D01*
Y65302D01*
X311096Y65302D01*
X311439Y65302D01*
X311621D01*
X311803D01*
X312146Y65302D01*
X312146Y65302D01*
Y65302D01*
X318146D01*
Y65302D01*
X318146D01*
X318146Y65302D01*
X318496D01*
Y65302D01*
X324839D01*
Y65302D01*
X325483Y65761D01*
X325637Y65586D01*
X326066Y65209D01*
X326540Y64892D01*
X327052Y64640D01*
X327592Y64457D01*
X328152Y64345D01*
X328721Y64308D01*
X329291Y64345D01*
X329850Y64457D01*
X330391Y64640D01*
X330902Y64892D01*
X331377Y65209D01*
X331806Y65586D01*
X332182Y66015D01*
X332499Y66489D01*
X332751Y67001D01*
X332935Y67541D01*
X333046Y68101D01*
X333083Y68670D01*
X333046Y69239D01*
X332935Y69799D01*
X332751Y70339D01*
X332499Y70851D01*
X332182Y71325D01*
X331806Y71754D01*
X331377Y72131D01*
X330902Y72448D01*
X330391Y72700D01*
X329850Y72883D01*
X329291Y72995D01*
X328721Y73032D01*
X328152Y72995D01*
X327592Y72883D01*
X327052Y72700D01*
X326540Y72448D01*
X326066Y72131D01*
X325637Y71754D01*
X325483Y71579D01*
X324839Y72039D01*
Y72039D01*
X324577Y72039D01*
Y76377D01*
X324543Y76799D01*
X324541Y76832D01*
X324434Y77276D01*
X324390Y77384D01*
Y80195D01*
X323383D01*
Y81945D01*
X318659D01*
Y80195D01*
X317483D01*
Y81945D01*
X312759D01*
Y80902D01*
X312052Y80195D01*
X311753D01*
X311621D01*
X311490D01*
X311191D01*
X310484Y80902D01*
Y81945D01*
X305759D01*
Y80195D01*
X304584D01*
Y81945D01*
X299859D01*
Y80195D01*
X298853D01*
Y77384D01*
X298808Y77276D01*
X298702Y76832D01*
X298666Y76377D01*
Y72039D01*
X298403Y72039D01*
Y72039D01*
X297760Y71579D01*
X297606Y71754D01*
X297177Y72131D01*
X296702Y72448D01*
X296191Y72700D01*
X295650Y72883D01*
X295091Y72995D01*
X294521Y73032D01*
X294288Y73017D01*
X289444Y77861D01*
Y90723D01*
X289630Y90875D01*
X289805Y91088D01*
X289935Y91332D01*
X289991Y91516D01*
X295461D01*
Y92522D01*
X297210D01*
Y97246D01*
X295461D01*
Y98253D01*
X293617D01*
Y100234D01*
X293679Y100336D01*
X293828Y100697D01*
X293919Y101076D01*
X293950Y101466D01*
Y104419D01*
X293919Y104808D01*
X293828Y105188D01*
X293679Y105550D01*
X293475Y105883D01*
X293221Y106180D01*
X292924Y106434D01*
X292590Y106638D01*
X292442Y106699D01*
Y112870D01*
X292415Y113145D01*
X292335Y113408D01*
X292205Y113652D01*
X292030Y113865D01*
X291817Y114040D01*
X291574Y114170D01*
X291310Y114250D01*
X291035Y114277D01*
D02*
G37*
G36*
X343850Y153197D02*
X343384Y153166D01*
X342926Y153075D01*
X342483Y152925D01*
X342064Y152718D01*
X341675Y152458D01*
X341324Y152150D01*
X341016Y151799D01*
X340756Y151410D01*
X340549Y150991D01*
X340399Y150548D01*
X340308Y150090D01*
X340277Y149624D01*
X340308Y149157D01*
X340399Y148699D01*
X340549Y148256D01*
X340756Y147837D01*
X341016Y147449D01*
X341324Y147097D01*
X341675Y146789D01*
X342064Y146529D01*
X342483Y146323D01*
X342926Y146172D01*
X343384Y146081D01*
X343850Y146051D01*
X344317Y146081D01*
X344775Y146172D01*
X345218Y146323D01*
X345637Y146529D01*
X346025Y146789D01*
X346377Y147097D01*
X346685Y147449D01*
X346945Y147837D01*
X347151Y148256D01*
X347302Y148699D01*
X347393Y149157D01*
X347423Y149624D01*
X347393Y150090D01*
X347302Y150548D01*
X347151Y150991D01*
X346945Y151410D01*
X346685Y151799D01*
X346377Y152150D01*
X346025Y152458D01*
X345637Y152718D01*
X345218Y152925D01*
X344775Y153075D01*
X344317Y153166D01*
X343850Y153197D01*
D02*
G37*
G36*
Y135480D02*
X343384Y135450D01*
X342926Y135358D01*
X342483Y135208D01*
X342064Y135001D01*
X341675Y134742D01*
X341324Y134434D01*
X341016Y134082D01*
X340756Y133694D01*
X340549Y133274D01*
X340399Y132832D01*
X340308Y132373D01*
X340277Y131907D01*
X340308Y131441D01*
X340399Y130982D01*
X340549Y130540D01*
X340756Y130121D01*
X341016Y129732D01*
X341324Y129381D01*
X341675Y129072D01*
X342064Y128813D01*
X342483Y128606D01*
X342926Y128456D01*
X343384Y128365D01*
X343850Y128334D01*
X344317Y128365D01*
X344775Y128456D01*
X345218Y128606D01*
X345637Y128813D01*
X346025Y129072D01*
X346377Y129381D01*
X346685Y129732D01*
X346945Y130121D01*
X347151Y130540D01*
X347302Y130982D01*
X347393Y131441D01*
X347423Y131907D01*
X347393Y132373D01*
X347302Y132832D01*
X347151Y133274D01*
X346945Y133694D01*
X346685Y134082D01*
X346377Y134434D01*
X346025Y134742D01*
X345637Y135001D01*
X345218Y135208D01*
X344775Y135358D01*
X344317Y135450D01*
X343850Y135480D01*
D02*
G37*
G36*
X286185Y172435D02*
X285914Y172435D01*
X285835D01*
Y172435D01*
X285835D01*
X285835D01*
X279492D01*
Y171196D01*
X279165Y171117D01*
X278852Y170988D01*
X278564Y170811D01*
X278307Y170591D01*
X276558Y168842D01*
X276338Y168585D01*
X276161Y168296D01*
X276031Y167984D01*
X275953Y167655D01*
X275926Y167317D01*
Y163091D01*
X272746D01*
Y150842D01*
X273750D01*
X274133Y149918D01*
X273839Y149623D01*
X273619Y149366D01*
X273442Y149077D01*
X273313Y148765D01*
X273234Y148436D01*
X273218Y148235D01*
X272192D01*
Y141498D01*
X273345D01*
X273442Y141263D01*
X273619Y140974D01*
X273839Y140717D01*
X274451Y140104D01*
X274105Y139166D01*
X274089Y139165D01*
X273754Y139084D01*
X273436Y138953D01*
X273143Y138773D01*
X272881Y138549D01*
X272657Y138287D01*
X272477Y137994D01*
X272345Y137676D01*
X272265Y137341D01*
X272238Y136998D01*
Y133581D01*
X268822D01*
X268479Y133554D01*
X268144Y133474D01*
X267826Y133342D01*
X267532Y133162D01*
X267270Y132939D01*
X267047Y132677D01*
X266867Y132384D01*
X266735Y132065D01*
X266655Y131731D01*
X266628Y131387D01*
Y129813D01*
X266655Y129469D01*
X266735Y129135D01*
X266867Y128816D01*
X267047Y128523D01*
X267118Y128440D01*
X267103Y128422D01*
X266898Y128089D01*
X266749Y127728D01*
X266658Y127348D01*
X266627Y126958D01*
X266658Y126569D01*
X266749Y126189D01*
X266898Y125828D01*
X267074Y125541D01*
X266951Y125365D01*
X266255Y124770D01*
X265804Y124860D01*
Y125002D01*
X259067D01*
Y118659D01*
X260073D01*
Y116909D01*
X264279D01*
Y112770D01*
X264305Y112433D01*
X264384Y112104D01*
X264514Y111791D01*
X264691Y111502D01*
X264910Y111245D01*
X264910Y111245D01*
X264911Y111245D01*
X266470Y109685D01*
D01*
X266470Y109685D01*
X266470Y109685D01*
Y109685D01*
X266728Y109465D01*
X267016Y109289D01*
D01*
D01*
Y109289D01*
X267016Y109289D01*
D01*
D01*
X267016D01*
Y109289D01*
D01*
X267016D01*
Y109289D01*
X267329Y109159D01*
X267658Y109080D01*
X267683Y109078D01*
X267869Y109063D01*
X267987Y108991D01*
X268348Y108842D01*
X268728Y108750D01*
X269117Y108720D01*
X272070D01*
X272460Y108750D01*
X272840Y108842D01*
X273201Y108991D01*
X273534Y109195D01*
X273831Y109449D01*
X274085Y109746D01*
X274289Y110080D01*
X274439Y110441D01*
X274530Y110821D01*
X274560Y111210D01*
X274530Y111600D01*
X274439Y111980D01*
X274289Y112341D01*
X274085Y112674D01*
X273831Y112971D01*
X273534Y113225D01*
X273201Y113429D01*
X272840Y113579D01*
X272460Y113670D01*
X272070Y113700D01*
X269117D01*
X269117Y113701D01*
X269117Y113700D01*
D01*
X268727Y113673D01*
X268592Y114234D01*
X269212Y115019D01*
X272070D01*
X272460Y115050D01*
X272840Y115141D01*
X273201Y115290D01*
X273534Y115495D01*
X273831Y115749D01*
X274085Y116046D01*
X274289Y116379D01*
X274439Y116740D01*
X274530Y117120D01*
X274560Y117509D01*
X274530Y117899D01*
X274439Y118279D01*
X274289Y118640D01*
X274085Y118973D01*
X273990Y119084D01*
X274085Y119195D01*
X274289Y119528D01*
X274439Y119889D01*
X274530Y120269D01*
X274560Y120659D01*
X274530Y121049D01*
X274439Y121429D01*
X274289Y121790D01*
X274085Y122123D01*
X273990Y122234D01*
X274085Y122345D01*
X274289Y122678D01*
X274439Y123039D01*
X274530Y123419D01*
X274560Y123809D01*
X274530Y124198D01*
X274439Y124578D01*
X274289Y124939D01*
X274085Y125272D01*
X273990Y125383D01*
X274085Y125494D01*
X274289Y125828D01*
X274439Y126189D01*
X274530Y126569D01*
X274560Y126958D01*
X274565Y126963D01*
X277116D01*
X277396Y126896D01*
X277835Y126861D01*
X278275Y126896D01*
X278555Y126963D01*
X279635D01*
X279910Y126990D01*
X280174Y127070D01*
X280417Y127200D01*
X280630Y127375D01*
X280805Y127588D01*
X280935Y127832D01*
X281015Y128096D01*
X281042Y128370D01*
Y128877D01*
X281573Y131090D01*
X281776Y131278D01*
X282011Y131259D01*
X282401Y131290D01*
X282781Y131381D01*
X283142Y131531D01*
X283475Y131735D01*
X283586Y131830D01*
X283697Y131735D01*
X284030Y131531D01*
X284391Y131381D01*
X284771Y131290D01*
X285161Y131259D01*
X285550Y131290D01*
X285930Y131381D01*
X286291Y131531D01*
X286624Y131735D01*
X286735Y131830D01*
X286846Y131735D01*
X287180Y131531D01*
X287541Y131381D01*
X287921Y131290D01*
X288310Y131259D01*
X288700Y131290D01*
X289080Y131381D01*
X289441Y131531D01*
X289774Y131735D01*
X289885Y131830D01*
X289996Y131735D01*
X290329Y131531D01*
X290690Y131381D01*
X291070Y131290D01*
X291460Y131259D01*
X291849Y131290D01*
X292229Y131381D01*
X292590Y131531D01*
X292924Y131735D01*
X293035Y131830D01*
X293146Y131735D01*
X293479Y131531D01*
X293840Y131381D01*
X294220Y131290D01*
X294580Y131262D01*
X295229Y130501D01*
X295227Y130470D01*
X295261Y130031D01*
X295364Y129602D01*
X295533Y129195D01*
X295763Y128819D01*
X296049Y128484D01*
X296385Y128198D01*
X296760Y127968D01*
X297167Y127799D01*
X297596Y127696D01*
X298035Y127661D01*
X298204Y127675D01*
X298911Y126968D01*
X298910Y126958D01*
X298941Y126569D01*
X299032Y126189D01*
X299182Y125828D01*
X299386Y125494D01*
X299481Y125383D01*
X299386Y125272D01*
X299182Y124939D01*
X299032Y124578D01*
X298941Y124198D01*
X298910Y123809D01*
X298941Y123419D01*
X299032Y123039D01*
X299182Y122678D01*
X299386Y122345D01*
X299640Y122048D01*
X299937Y121794D01*
X300270Y121590D01*
X300631Y121440D01*
X301011Y121349D01*
X301401Y121318D01*
X304353D01*
X304644Y121341D01*
X304841Y121159D01*
Y120159D01*
X304644Y119977D01*
X304353Y120000D01*
X301401D01*
X301011Y119969D01*
X300631Y119878D01*
X300270Y119728D01*
X300169Y119666D01*
X299876D01*
X299786Y119742D01*
X299411Y119973D01*
X299003Y120141D01*
X298575Y120244D01*
X298135Y120279D01*
X297696Y120244D01*
X297268Y120141D01*
X296860Y119973D01*
X296484Y119742D01*
X296149Y119456D01*
X295863Y119121D01*
X295633Y118745D01*
X295464Y118338D01*
X295361Y117909D01*
X295327Y117470D01*
X295361Y117031D01*
X295464Y116602D01*
X295633Y116195D01*
X295863Y115819D01*
X296149Y115484D01*
X296484Y115198D01*
X296860Y114968D01*
X297268Y114799D01*
X297696Y114696D01*
X298135Y114661D01*
X298219Y114629D01*
X298938Y114015D01*
X298941Y113970D01*
X299032Y113590D01*
X299182Y113229D01*
X299386Y112896D01*
X299481Y112785D01*
X299386Y112674D01*
X299182Y112341D01*
X299032Y111980D01*
X298941Y111600D01*
X298910Y111210D01*
X298941Y110821D01*
X299032Y110441D01*
X299182Y110080D01*
X299386Y109746D01*
X299401Y109729D01*
X299330Y109646D01*
X299150Y109352D01*
X299019Y109034D01*
X298938Y108699D01*
X298911Y108356D01*
Y106781D01*
X298938Y106438D01*
X299019Y106103D01*
X299150Y105785D01*
X299330Y105491D01*
X299554Y105229D01*
X299816Y105006D01*
X300109Y104826D01*
X300428Y104694D01*
X300762Y104614D01*
X301105Y104587D01*
X304629D01*
Y102370D01*
X304656Y102096D01*
X304736Y101832D01*
X304866Y101588D01*
X305041Y101375D01*
X305254Y101200D01*
X305497Y101070D01*
X305761Y100990D01*
X306035Y100963D01*
X309535D01*
X309810Y100990D01*
X310074Y101070D01*
X310317Y101200D01*
X310530Y101375D01*
X310705Y101588D01*
X310835Y101832D01*
X310915Y102096D01*
X310942Y102370D01*
Y109070D01*
X310915Y109344D01*
X310835Y109608D01*
X310705Y109852D01*
X310530Y110065D01*
D01*
X310530Y110065D01*
X310530Y110065D01*
X310530Y110065D01*
X310530Y110065D01*
X310309Y110294D01*
X311360Y111345D01*
X311580Y111602D01*
X311690Y111781D01*
X311757Y111891D01*
X311795Y111983D01*
X311809Y112016D01*
X315561D01*
Y111846D01*
X315561D01*
Y107122D01*
X317310D01*
Y106116D01*
X323654D01*
Y106280D01*
X324082Y106676D01*
X324521Y106710D01*
X324950Y106813D01*
X325357Y106982D01*
X325733Y107212D01*
X326068Y107498D01*
X326354Y107833D01*
X326584Y108209D01*
X326753Y108616D01*
X326856Y109045D01*
X326890Y109484D01*
X326856Y109924D01*
X326753Y110352D01*
X326584Y110759D01*
X326354Y111135D01*
X326068Y111470D01*
X325733Y111757D01*
X325443Y111934D01*
Y112934D01*
X325733Y113112D01*
X326068Y113398D01*
X326354Y113733D01*
X326584Y114109D01*
X326753Y114516D01*
X326856Y114945D01*
X326890Y115384D01*
X326856Y115824D01*
X326753Y116252D01*
X326584Y116659D01*
X326354Y117035D01*
X326068Y117370D01*
X325733Y117657D01*
X325357Y117887D01*
X324950Y118055D01*
X324679Y118120D01*
X324797Y119113D01*
X326135D01*
X326473Y119140D01*
X326802Y119219D01*
X327115Y119349D01*
X327403Y119525D01*
X327660Y119745D01*
X328460Y120545D01*
X328680Y120802D01*
X328857Y121091D01*
X328987Y121404D01*
X329005Y121482D01*
X329208Y121719D01*
X329438Y122095D01*
X329607Y122502D01*
X329710Y122931D01*
X329744Y123370D01*
X329710Y123809D01*
X329607Y124238D01*
X329438Y124645D01*
X329208Y125021D01*
X328922Y125356D01*
X328586Y125642D01*
X328210Y125873D01*
X327803Y126041D01*
X327375Y126144D01*
X327346Y126146D01*
X327000Y127085D01*
X328439Y128524D01*
X328659Y128781D01*
X328836Y129070D01*
X328965Y129382D01*
X329044Y129711D01*
X329071Y130049D01*
Y142916D01*
X329186Y143052D01*
X329417Y143427D01*
X329585Y143834D01*
X329688Y144263D01*
X329723Y144702D01*
X329688Y145142D01*
X329585Y145570D01*
X329417Y145977D01*
X329186Y146353D01*
X328900Y146688D01*
X328565Y146975D01*
X328315Y147128D01*
X328530Y147375D01*
X328530Y147375D01*
X328530D01*
X328530Y147375D01*
X328530Y147375D01*
D01*
X328705Y147589D01*
X328835Y147832D01*
X328915Y148096D01*
X328942Y148370D01*
Y158970D01*
X328915Y159245D01*
X328835Y159508D01*
X328705Y159752D01*
X328530Y159965D01*
X328317Y160140D01*
X328074Y160270D01*
X327810Y160350D01*
X327535Y160377D01*
X324035D01*
X323761Y160350D01*
X323497Y160270D01*
X323254Y160140D01*
X323041Y159965D01*
X322866Y159752D01*
X322736Y159508D01*
X322656Y159245D01*
X322629Y158970D01*
Y154153D01*
X318710D01*
Y154153D01*
Y154222D01*
X318710Y154860D01*
X318710Y154860D01*
X318710D01*
Y158946D01*
D01*
Y158946D01*
X318710Y158946D01*
Y159508D01*
X318710D01*
Y164232D01*
X316961D01*
Y165239D01*
X310617D01*
Y164938D01*
X309786Y164383D01*
X309403Y164541D01*
X308975Y164644D01*
X308535Y164679D01*
X308096Y164644D01*
X307667Y164541D01*
X307260Y164373D01*
X306885Y164142D01*
X306549Y163856D01*
X306263Y163521D01*
X306033Y163145D01*
X305864Y162738D01*
X305761Y162309D01*
X305727Y161870D01*
X305761Y161431D01*
X305864Y161002D01*
X306033Y160595D01*
X306263Y160219D01*
X306549Y159884D01*
X306741Y159720D01*
Y158720D01*
X306549Y158556D01*
X306263Y158221D01*
X306033Y157845D01*
X305864Y157438D01*
X305761Y157009D01*
X305727Y156570D01*
X305761Y156131D01*
X305864Y155702D01*
X306033Y155295D01*
X306263Y154919D01*
X306549Y154584D01*
X306885Y154298D01*
X307260Y154068D01*
X307667Y153899D01*
X308096Y153796D01*
X308535Y153761D01*
X308975Y153796D01*
X309403Y153899D01*
X309786Y154057D01*
X310617Y153502D01*
Y153216D01*
X315491D01*
X315561Y153146D01*
X315561Y152509D01*
X315561Y152509D01*
X315561D01*
Y148422D01*
D01*
Y148422D01*
X315391Y148253D01*
X310617D01*
Y147793D01*
X309889D01*
X309681Y147777D01*
X307035D01*
X306761Y147750D01*
X306497Y147670D01*
X306254Y147540D01*
X306041Y147365D01*
X305866Y147152D01*
X305736Y146908D01*
X305656Y146644D01*
X305629Y146370D01*
Y139870D01*
X305656Y139596D01*
X305736Y139332D01*
X305761Y139285D01*
X305508Y138862D01*
X304516Y138740D01*
X301460Y141795D01*
X301203Y142015D01*
X300915Y142192D01*
X300602Y142321D01*
X300273Y142400D01*
X299935Y142427D01*
X299728D01*
Y148235D01*
X298699D01*
X298689Y148362D01*
X298687Y148386D01*
X298672Y148450D01*
X298608Y148715D01*
X298516Y148936D01*
X298478Y149028D01*
X298411Y149138D01*
X298302Y149317D01*
X298082Y149574D01*
X297738Y149918D01*
X298120Y150842D01*
X299168D01*
Y163091D01*
X295987D01*
Y167475D01*
X295961Y167812D01*
X295882Y168141D01*
X295752Y168454D01*
X295575Y168743D01*
X295356Y169000D01*
X293764Y170591D01*
X293507Y170811D01*
X293218Y170988D01*
X292906Y171117D01*
X292577Y171196D01*
X292528Y171200D01*
Y172435D01*
X286185D01*
Y172435D01*
D02*
G37*
%LPD*%
G36*
X291674Y163091D02*
X288494D01*
Y150842D01*
X291674D01*
Y150775D01*
X291701Y150437D01*
X291780Y150108D01*
X291909Y149796D01*
X292086Y149507D01*
X292306Y149250D01*
X293385Y148170D01*
Y147228D01*
X291635D01*
Y146412D01*
X291610Y146391D01*
X291391Y146134D01*
X291214Y145845D01*
X291084Y145533D01*
X291005Y145203D01*
X290979Y144866D01*
Y143240D01*
X290465Y142727D01*
X289335D01*
X288998Y142700D01*
X288669Y142621D01*
X288356Y142492D01*
X288068Y142315D01*
X287810Y142095D01*
X286785Y141070D01*
D01*
X286785Y141070D01*
Y141070D01*
X286586Y141070D01*
X285560Y142095D01*
X285303Y142315D01*
X285015Y142492D01*
X284702Y142621D01*
X284373Y142700D01*
X284035Y142727D01*
X280285D01*
Y147228D01*
X278535D01*
Y148220D01*
X279608Y149292D01*
X279827Y149550D01*
X280004Y149838D01*
X280134Y150151D01*
X280213Y150480D01*
X280239Y150817D01*
Y150842D01*
X283420D01*
Y163091D01*
X280239D01*
Y165698D01*
X285835D01*
Y165698D01*
X285835D01*
X285835Y165698D01*
X286185D01*
Y165698D01*
X291674D01*
Y163091D01*
D02*
G37*
G36*
X324758Y142305D02*
Y136551D01*
X324636Y136439D01*
X323654Y136439D01*
Y136439D01*
X318710D01*
Y136622D01*
X318710D01*
Y141346D01*
D01*
Y141346D01*
X318880Y141516D01*
X323654D01*
Y142822D01*
X323960Y142909D01*
X324758Y142305D01*
D02*
G37*
G36*
X172370Y351535D02*
Y351535D01*
X172380Y351544D01*
X172762Y351506D01*
X173139Y351392D01*
X173487Y351206D01*
X173791Y350957D01*
X174041Y350652D01*
X174227Y350305D01*
X174341Y349927D01*
X174380Y349535D01*
X174380Y345900D01*
X173548Y345344D01*
X173372Y345417D01*
X172796Y345583D01*
X172205Y345684D01*
X171606Y345717D01*
X161764D01*
X161165Y345684D01*
X160574Y345583D01*
X159998Y345417D01*
X159444Y345188D01*
X158920Y344898D01*
X158431Y344551D01*
X157984Y344151D01*
X157585Y343705D01*
X157238Y343216D01*
X156948Y342691D01*
X156718Y342137D01*
X156552Y341561D01*
X156452Y340970D01*
X156418Y340372D01*
X156452Y339773D01*
X156552Y339182D01*
X156718Y338606D01*
X156948Y338052D01*
X157238Y337528D01*
X157585Y337039D01*
X157984Y336592D01*
X158431Y336192D01*
X158920Y335846D01*
X159444Y335556D01*
X159998Y335326D01*
X160574Y335160D01*
X161165Y335060D01*
X161764Y335026D01*
X171606D01*
X172205Y335060D01*
X172796Y335160D01*
X173372Y335326D01*
X173547Y335399D01*
X174379Y334843D01*
X174376Y301019D01*
X173545Y300464D01*
X173372Y300535D01*
X172796Y300701D01*
X172205Y300802D01*
X171606Y300835D01*
X161764D01*
X161165Y300802D01*
X160574Y300701D01*
X159998Y300535D01*
X159444Y300306D01*
X158920Y300016D01*
X158431Y299669D01*
X157984Y299270D01*
X157585Y298823D01*
X157238Y298334D01*
X156948Y297809D01*
X156718Y297255D01*
X156552Y296679D01*
X156452Y296088D01*
X156418Y295490D01*
X156452Y294891D01*
X156552Y294300D01*
X156718Y293724D01*
X156948Y293170D01*
X157238Y292646D01*
X157585Y292157D01*
X157984Y291710D01*
X158431Y291311D01*
X158920Y290964D01*
X159444Y290674D01*
X159998Y290444D01*
X160574Y290278D01*
X161165Y290178D01*
X161764Y290144D01*
X171606D01*
X172205Y290178D01*
X172796Y290278D01*
X173372Y290444D01*
X173544Y290516D01*
X174375Y289960D01*
X174370Y221535D01*
X174370D01*
X174379Y221526D01*
X174341Y221143D01*
X174227Y220766D01*
X174041Y220419D01*
X173791Y220114D01*
X173487Y219864D01*
X173139Y219679D01*
X172762Y219564D01*
X172370Y219526D01*
X44370Y219535D01*
Y219535D01*
X44360Y219527D01*
X43978Y219564D01*
X43601Y219679D01*
X43254Y219864D01*
X42949Y220114D01*
X42699Y220419D01*
X42513Y220766D01*
X42399Y221143D01*
X42360Y221535D01*
X42370Y349535D01*
X42370D01*
X42361Y349545D01*
X42399Y349927D01*
X42513Y350305D01*
X42699Y350652D01*
X42949Y350957D01*
X43254Y351206D01*
X43601Y351392D01*
X43978Y351506D01*
X44370Y351545D01*
X172370Y351535D01*
D02*
G37*
%LPC*%
G36*
X90655Y254134D02*
X90050Y254100D01*
X89452Y253999D01*
X88869Y253831D01*
X88309Y253599D01*
X87778Y253306D01*
X87283Y252955D01*
X86831Y252550D01*
X86427Y252098D01*
X86234Y251827D01*
X85234D01*
X85041Y252098D01*
X84637Y252550D01*
X84185Y252955D01*
X83690Y253306D01*
X83159Y253599D01*
X82599Y253831D01*
X82016Y253999D01*
X81418Y254100D01*
X80813Y254134D01*
X80207Y254100D01*
X79609Y253999D01*
X79026Y253831D01*
X78466Y253599D01*
X77935Y253306D01*
X77440Y252955D01*
X76988Y252550D01*
X76584Y252098D01*
X76233Y251604D01*
X75940Y251073D01*
X75708Y250512D01*
X75540Y249929D01*
X75533Y249888D01*
X74570Y249615D01*
X74194Y250044D01*
X73746Y250438D01*
X73250Y250769D01*
X72715Y251033D01*
X72150Y251224D01*
X71565Y251341D01*
X70970Y251380D01*
X70375Y251341D01*
X69790Y251224D01*
X69225Y251033D01*
X68690Y250769D01*
X68195Y250438D01*
X67746Y250044D01*
X67370Y249615D01*
X66408Y249888D01*
X66400Y249929D01*
X66233Y250512D01*
X66000Y251073D01*
X65707Y251604D01*
X65356Y252098D01*
X64952Y252550D01*
X64500Y252955D01*
X64005Y253306D01*
X63474Y253599D01*
X62914Y253831D01*
X62331Y253999D01*
X61733Y254100D01*
X61128Y254134D01*
X60522Y254100D01*
X59924Y253999D01*
X59341Y253831D01*
X58781Y253599D01*
X58250Y253306D01*
X57755Y252955D01*
X57303Y252550D01*
X56899Y252098D01*
X56706Y251827D01*
X55706D01*
X55514Y252098D01*
X55109Y252550D01*
X54657Y252955D01*
X54163Y253306D01*
X53632Y253599D01*
X53071Y253831D01*
X52488Y253999D01*
X51891Y254100D01*
X51285Y254134D01*
X50679Y254100D01*
X50081Y253999D01*
X49499Y253831D01*
X48938Y253599D01*
X48408Y253306D01*
X47913Y252955D01*
X47461Y252550D01*
X47056Y252098D01*
X46705Y251604D01*
X46412Y251073D01*
X46180Y250512D01*
X46012Y249929D01*
X45911Y249331D01*
X45877Y248726D01*
Y244915D01*
X45911Y244309D01*
X46012Y243711D01*
X46180Y243129D01*
X46412Y242568D01*
X46705Y242038D01*
X47056Y241543D01*
X47461Y241091D01*
X47913Y240686D01*
X48408Y240335D01*
X48938Y240042D01*
X49499Y239810D01*
X50081Y239642D01*
X50679Y239541D01*
X51285Y239506D01*
X51891Y239541D01*
X52488Y239642D01*
X53071Y239810D01*
X53632Y240042D01*
X54163Y240335D01*
X54657Y240686D01*
X55109Y241091D01*
X55514Y241543D01*
X55706Y241814D01*
X56706D01*
X56899Y241543D01*
X57303Y241091D01*
X57755Y240686D01*
X58250Y240335D01*
X58781Y240042D01*
X59341Y239810D01*
X59924Y239642D01*
X60522Y239541D01*
X61128Y239506D01*
X61733Y239541D01*
X62331Y239642D01*
X62914Y239810D01*
X63474Y240042D01*
X64005Y240335D01*
X64500Y240686D01*
X64952Y241091D01*
X65356Y241543D01*
X65707Y242038D01*
X66000Y242568D01*
X66233Y243129D01*
X66400Y243711D01*
X66408Y243753D01*
X67370Y244026D01*
X67746Y243597D01*
X68195Y243203D01*
X68690Y242872D01*
X69225Y242608D01*
X69790Y242417D01*
X70375Y242300D01*
X70970Y242261D01*
X71565Y242300D01*
X72150Y242417D01*
X72715Y242608D01*
X73250Y242872D01*
X73746Y243203D01*
X74194Y243597D01*
X74570Y244026D01*
X75533Y243753D01*
X75540Y243711D01*
X75708Y243129D01*
X75940Y242568D01*
X76233Y242038D01*
X76584Y241543D01*
X76988Y241091D01*
X77440Y240686D01*
X77935Y240335D01*
X78466Y240042D01*
X79026Y239810D01*
X79609Y239642D01*
X80207Y239541D01*
X80813Y239506D01*
X81418Y239541D01*
X82016Y239642D01*
X82599Y239810D01*
X83159Y240042D01*
X83690Y240335D01*
X84185Y240686D01*
X84637Y241091D01*
X85041Y241543D01*
X85234Y241814D01*
X86234D01*
X86427Y241543D01*
X86831Y241091D01*
X87283Y240686D01*
X87721Y240376D01*
X87746Y240350D01*
X87746Y240350D01*
D01*
X87782Y239895D01*
X87888Y239452D01*
X88063Y239030D01*
X88302Y238640D01*
X88598Y238293D01*
X93213Y233679D01*
X93560Y233382D01*
X93949Y233143D01*
X94371Y232969D01*
X94815Y232862D01*
X95270Y232826D01*
X103665D01*
X106493Y229999D01*
X106840Y229702D01*
X107229Y229464D01*
X107651Y229289D01*
X108095Y229183D01*
X108550Y229147D01*
X113384D01*
X113545Y228884D01*
X113839Y228539D01*
X114184Y228245D01*
X114570Y228009D01*
X114988Y227835D01*
X115428Y227730D01*
X115880Y227694D01*
X118832D01*
X119284Y227730D01*
X119724Y227835D01*
X120142Y228009D01*
X120528Y228245D01*
X120872Y228539D01*
X120982Y228667D01*
X121238Y228667D01*
Y228667D01*
X127581D01*
Y229673D01*
X129331D01*
Y234398D01*
X127581D01*
Y235404D01*
X121238D01*
Y235404D01*
X121017Y235404D01*
X120872Y235573D01*
X120528Y235866D01*
X120142Y236103D01*
X119724Y236276D01*
X119284Y236382D01*
X118832Y236418D01*
X115880D01*
X115428Y236382D01*
X114988Y236276D01*
X114570Y236103D01*
X114184Y235866D01*
X113839Y235573D01*
X113545Y235228D01*
X113384Y234965D01*
X109755D01*
X106927Y237792D01*
X106580Y238089D01*
X106191Y238327D01*
X105769Y238502D01*
X105325Y238609D01*
X104870Y238644D01*
X96475D01*
X94467Y240652D01*
X94480Y241091D01*
X94884Y241543D01*
X95235Y242038D01*
X95528Y242568D01*
X95760Y243129D01*
X95928Y243711D01*
X96030Y244309D01*
X96064Y244915D01*
Y248726D01*
X96030Y249331D01*
X95928Y249929D01*
X95760Y250512D01*
X95528Y251073D01*
X95235Y251604D01*
X94884Y252098D01*
X94480Y252550D01*
X94027Y252955D01*
X93533Y253306D01*
X93002Y253599D01*
X92441Y253831D01*
X91859Y253999D01*
X91261Y254100D01*
X90655Y254134D01*
D02*
G37*
G36*
X98842Y284074D02*
X97267D01*
X96924Y284047D01*
X96589Y283966D01*
X96271Y283835D01*
X95977Y283655D01*
X95715Y283431D01*
X95492Y283169D01*
X95312Y282876D01*
X95180Y282558D01*
X95110Y282264D01*
X90642D01*
X90330Y282240D01*
X90305Y282238D01*
X90241Y282223D01*
X89976Y282159D01*
X89755Y282067D01*
X89663Y282029D01*
X89554Y281962D01*
X89375Y281853D01*
X89117Y281633D01*
X88639Y282175D01*
Y282175D01*
X87632D01*
Y283924D01*
X82908D01*
Y282175D01*
X81902D01*
Y275831D01*
X88639D01*
Y276847D01*
X89538D01*
X89875Y276873D01*
X90204Y276952D01*
X90517Y277081D01*
X90517Y277081D01*
X90517Y277081D01*
X90805Y277258D01*
X91063Y277478D01*
X91063Y277478D01*
X91063Y277478D01*
X91536Y277951D01*
X95110D01*
X95180Y277658D01*
X95312Y277340D01*
X95492Y277046D01*
X95715Y276785D01*
X95977Y276561D01*
X96271Y276381D01*
X96589Y276249D01*
X96924Y276169D01*
X97267Y276142D01*
X98842D01*
X99185Y276169D01*
X99520Y276249D01*
X99838Y276381D01*
X100131Y276561D01*
X100393Y276785D01*
X100617Y277046D01*
X100797Y277340D01*
X100928Y277658D01*
X101009Y277993D01*
X101036Y278336D01*
Y281879D01*
X101009Y282223D01*
X100928Y282558D01*
X100797Y282876D01*
X100617Y283169D01*
X100393Y283431D01*
X100131Y283655D01*
X99838Y283835D01*
X99520Y283966D01*
X99185Y284047D01*
X98842Y284074D01*
D02*
G37*
G36*
X153032Y236418D02*
X150080D01*
X149628Y236382D01*
X149188Y236276D01*
X148770Y236103D01*
X148384Y235866D01*
X148039Y235573D01*
X147896Y235404D01*
X147674Y235404D01*
Y235404D01*
X141331D01*
Y234398D01*
X139581D01*
Y229673D01*
X141331D01*
Y228667D01*
X147674D01*
Y228667D01*
X147930Y228667D01*
X148039Y228539D01*
X148384Y228245D01*
X148770Y228009D01*
X149188Y227835D01*
X149628Y227730D01*
X150080Y227694D01*
X153032D01*
X153484Y227730D01*
X153924Y227835D01*
X154342Y228009D01*
X154728Y228245D01*
X155072Y228539D01*
X155367Y228884D01*
X155603Y229270D01*
X155776Y229688D01*
X155882Y230128D01*
X155918Y230579D01*
Y233532D01*
X155882Y233984D01*
X155776Y234424D01*
X155603Y234842D01*
X155367Y235228D01*
X155072Y235573D01*
X154728Y235866D01*
X154342Y236103D01*
X153924Y236276D01*
X153484Y236382D01*
X153032Y236418D01*
D02*
G37*
G36*
X51285Y231695D02*
X50690Y231656D01*
X50105Y231539D01*
X49540Y231348D01*
X49005Y231084D01*
X48509Y230753D01*
X48061Y230359D01*
X47668Y229911D01*
X47337Y229415D01*
X47073Y228880D01*
X46881Y228315D01*
X46765Y227730D01*
X46726Y227135D01*
X46765Y226540D01*
X46881Y225955D01*
X47073Y225391D01*
X47337Y224856D01*
X47668Y224360D01*
X48061Y223911D01*
X48509Y223518D01*
X49005Y223187D01*
X49540Y222923D01*
X50105Y222731D01*
X50690Y222615D01*
X51285Y222576D01*
X51880Y222615D01*
X52465Y222731D01*
X53030Y222923D01*
X53565Y223187D01*
X54061Y223518D01*
X54509Y223911D01*
X54902Y224360D01*
X55234Y224856D01*
X55497Y225391D01*
X55689Y225955D01*
X55805Y226540D01*
X55844Y227135D01*
X55805Y227730D01*
X55689Y228315D01*
X55497Y228880D01*
X55234Y229415D01*
X54902Y229911D01*
X54509Y230359D01*
X54061Y230753D01*
X53565Y231084D01*
X53030Y231348D01*
X52465Y231539D01*
X51880Y231656D01*
X51285Y231695D01*
D02*
G37*
G36*
X90655D02*
X90060Y231656D01*
X89475Y231539D01*
X88910Y231348D01*
X88375Y231084D01*
X87880Y230753D01*
X87431Y230359D01*
X87038Y229911D01*
X86707Y229415D01*
X86443Y228880D01*
X86251Y228315D01*
X86135Y227730D01*
X86096Y227135D01*
X86135Y226540D01*
X86251Y225955D01*
X86443Y225391D01*
X86707Y224856D01*
X87038Y224360D01*
X87431Y223911D01*
X87880Y223518D01*
X88375Y223187D01*
X88910Y222923D01*
X89475Y222731D01*
X90060Y222615D01*
X90655Y222576D01*
X91250Y222615D01*
X91835Y222731D01*
X92400Y222923D01*
X92935Y223187D01*
X93431Y223518D01*
X93879Y223911D01*
X94272Y224360D01*
X94604Y224856D01*
X94867Y225391D01*
X95059Y225955D01*
X95175Y226540D01*
X95214Y227135D01*
X95175Y227730D01*
X95059Y228315D01*
X94867Y228880D01*
X94604Y229415D01*
X94272Y229911D01*
X93879Y230359D01*
X93431Y230753D01*
X92935Y231084D01*
X92400Y231348D01*
X91835Y231539D01*
X91250Y231656D01*
X90655Y231695D01*
D02*
G37*
G36*
X113870Y291442D02*
X107870D01*
X107596Y291415D01*
X107332Y291335D01*
X107088Y291205D01*
X106875Y291030D01*
X106700Y290817D01*
X106570Y290574D01*
X106490Y290310D01*
X106463Y290035D01*
Y284598D01*
X106363Y284434D01*
X105632Y283946D01*
X105615Y283953D01*
X105235Y284044D01*
X104846Y284075D01*
X104456Y284044D01*
X104076Y283953D01*
X103715Y283803D01*
X103382Y283599D01*
X103085Y283345D01*
X102831Y283048D01*
X102627Y282715D01*
X102477Y282354D01*
X102386Y281974D01*
X102355Y281584D01*
Y278631D01*
X102386Y278242D01*
X102477Y277862D01*
X102627Y277501D01*
X102689Y277399D01*
Y275418D01*
X100845D01*
Y274412D01*
X99095D01*
Y269687D01*
X100845D01*
Y268681D01*
X105615D01*
X105670Y268497D01*
X105800Y268254D01*
X105975Y268041D01*
X106188Y267866D01*
X106432Y267736D01*
X106461Y267727D01*
Y253821D01*
X106461Y253821D01*
X106461D01*
X106497Y253366D01*
X106604Y252922D01*
X106778Y252501D01*
X107017Y252112D01*
X107313Y251764D01*
X113009Y246068D01*
X112994Y245835D01*
X113031Y245266D01*
X113143Y244706D01*
X113326Y244166D01*
X113578Y243654D01*
X113895Y243180D01*
X114271Y242751D01*
X114700Y242375D01*
X115175Y242058D01*
X115687Y241805D01*
X116227Y241622D01*
X116787Y241511D01*
X117356Y241473D01*
X117925Y241511D01*
X118485Y241622D01*
X119025Y241805D01*
X119537Y242058D01*
X120011Y242375D01*
X120440Y242751D01*
X120594Y242927D01*
X121238Y242467D01*
Y242467D01*
X127581D01*
Y242467D01*
X127581D01*
X127581Y242467D01*
X127931D01*
Y242467D01*
X133931D01*
Y242467D01*
X133931Y242467D01*
X134274Y242467D01*
X134456D01*
X134638D01*
X134981Y242467D01*
X134981Y242467D01*
Y242467D01*
X140981D01*
Y242467D01*
X140981D01*
X140981Y242467D01*
X141331D01*
Y242467D01*
X147674D01*
Y242467D01*
X148318Y242927D01*
X148471Y242751D01*
X148900Y242375D01*
X149375Y242058D01*
X149887Y241805D01*
X150427Y241622D01*
X150987Y241511D01*
X151556Y241473D01*
X152125Y241511D01*
X152685Y241622D01*
X153225Y241805D01*
X153737Y242058D01*
X154211Y242375D01*
X154640Y242751D01*
X155017Y243180D01*
X155334Y243654D01*
X155586Y244166D01*
X155769Y244706D01*
X155881Y245266D01*
X155918Y245835D01*
X155881Y246405D01*
X155769Y246964D01*
X155586Y247505D01*
X155334Y248017D01*
X155017Y248491D01*
X154640Y248920D01*
X154211Y249296D01*
X153737Y249613D01*
X153225Y249866D01*
X152685Y250049D01*
X152125Y250160D01*
X151556Y250198D01*
X150987Y250160D01*
X150427Y250049D01*
X149887Y249866D01*
X149375Y249613D01*
X148900Y249296D01*
X148471Y248920D01*
X148318Y248744D01*
X147674Y249204D01*
Y249204D01*
X147411Y249204D01*
Y253542D01*
X147378Y253964D01*
X147376Y253998D01*
X147269Y254441D01*
X147224Y254549D01*
Y257361D01*
X146218D01*
Y259110D01*
X141494D01*
Y257361D01*
X140318D01*
Y259110D01*
X135594D01*
Y258068D01*
X134887Y257361D01*
X134587D01*
X134456D01*
X134325D01*
X134025D01*
X133318Y258068D01*
Y259110D01*
X128594D01*
Y257361D01*
X127418D01*
Y259110D01*
X122694D01*
Y257361D01*
X121687D01*
Y254549D01*
X121643Y254441D01*
X121536Y253998D01*
X121501Y253542D01*
Y249204D01*
X121238Y249204D01*
Y249204D01*
X120594Y248744D01*
X120440Y248920D01*
X120011Y249296D01*
X119537Y249613D01*
X119025Y249866D01*
X118485Y250049D01*
X117925Y250160D01*
X117356Y250198D01*
X117123Y250182D01*
X112279Y255026D01*
Y267888D01*
X112465Y268041D01*
X112640Y268254D01*
X112770Y268497D01*
X112826Y268681D01*
X118295D01*
Y269687D01*
X120045D01*
Y274412D01*
X118295D01*
Y275418D01*
X116451D01*
Y277399D01*
X116513Y277501D01*
X116663Y277862D01*
X116754Y278242D01*
X116785Y278631D01*
Y281584D01*
X116754Y281974D01*
X116663Y282354D01*
X116513Y282715D01*
X116309Y283048D01*
X116055Y283345D01*
X115758Y283599D01*
X115425Y283803D01*
X115277Y283864D01*
Y290035D01*
X115250Y290310D01*
X115170Y290574D01*
X115040Y290817D01*
X114865Y291030D01*
X114652Y291205D01*
X114408Y291335D01*
X114145Y291415D01*
X113870Y291442D01*
D02*
G37*
G36*
X166685Y330362D02*
X166219Y330331D01*
X165760Y330240D01*
X165318Y330090D01*
X164899Y329883D01*
X164510Y329624D01*
X164158Y329315D01*
X163850Y328964D01*
X163591Y328575D01*
X163384Y328156D01*
X163234Y327714D01*
X163143Y327255D01*
X163112Y326789D01*
X163143Y326323D01*
X163234Y325864D01*
X163384Y325422D01*
X163591Y325003D01*
X163850Y324614D01*
X164158Y324262D01*
X164510Y323954D01*
X164899Y323695D01*
X165318Y323488D01*
X165760Y323338D01*
X166219Y323247D01*
X166685Y323216D01*
X167151Y323247D01*
X167610Y323338D01*
X168052Y323488D01*
X168472Y323695D01*
X168860Y323954D01*
X169211Y324262D01*
X169520Y324614D01*
X169779Y325003D01*
X169986Y325422D01*
X170136Y325864D01*
X170228Y326323D01*
X170258Y326789D01*
X170228Y327255D01*
X170136Y327714D01*
X169986Y328156D01*
X169779Y328575D01*
X169520Y328964D01*
X169211Y329315D01*
X168860Y329624D01*
X168472Y329883D01*
X168052Y330090D01*
X167610Y330240D01*
X167151Y330331D01*
X166685Y330362D01*
D02*
G37*
G36*
Y312645D02*
X166219Y312615D01*
X165760Y312524D01*
X165318Y312373D01*
X164899Y312167D01*
X164510Y311907D01*
X164158Y311599D01*
X163850Y311247D01*
X163591Y310859D01*
X163384Y310440D01*
X163234Y309997D01*
X163143Y309539D01*
X163112Y309072D01*
X163143Y308606D01*
X163234Y308148D01*
X163384Y307705D01*
X163591Y307286D01*
X163850Y306897D01*
X164158Y306546D01*
X164510Y306238D01*
X164899Y305978D01*
X165318Y305771D01*
X165760Y305621D01*
X166219Y305530D01*
X166685Y305499D01*
X167151Y305530D01*
X167610Y305621D01*
X168052Y305771D01*
X168472Y305978D01*
X168860Y306238D01*
X169211Y306546D01*
X169520Y306897D01*
X169779Y307286D01*
X169986Y307705D01*
X170136Y308148D01*
X170228Y308606D01*
X170258Y309072D01*
X170228Y309539D01*
X170136Y309997D01*
X169986Y310440D01*
X169779Y310859D01*
X169520Y311247D01*
X169211Y311599D01*
X168860Y311907D01*
X168472Y312167D01*
X168052Y312373D01*
X167610Y312524D01*
X167151Y312615D01*
X166685Y312645D01*
D02*
G37*
G36*
X109020Y349600D02*
X108748Y349600D01*
X108670D01*
Y349600D01*
X108670D01*
X108670D01*
X102327D01*
Y348361D01*
X102000Y348283D01*
X101687Y348153D01*
X101399Y347976D01*
X101141Y347756D01*
X99392Y346008D01*
X99173Y345750D01*
X98996Y345462D01*
X98866Y345149D01*
X98787Y344820D01*
X98761Y344483D01*
Y340256D01*
X95580D01*
Y328007D01*
X96585D01*
X96968Y327083D01*
X96673Y326789D01*
X96454Y326531D01*
X96277Y326243D01*
X96147Y325930D01*
X96068Y325601D01*
X96052Y325400D01*
X95027D01*
Y318663D01*
X96179D01*
X96277Y318428D01*
X96454Y318139D01*
X96673Y317882D01*
X97286Y317270D01*
X96940Y316331D01*
X96924Y316330D01*
X96589Y316250D01*
X96271Y316118D01*
X95977Y315938D01*
X95715Y315714D01*
X95492Y315453D01*
X95312Y315159D01*
X95180Y314841D01*
X95100Y314506D01*
X95073Y314163D01*
Y310747D01*
X91657D01*
X91313Y310720D01*
X90979Y310640D01*
X90661Y310508D01*
X90367Y310328D01*
X90105Y310104D01*
X89882Y309842D01*
X89702Y309549D01*
X89570Y309231D01*
X89490Y308896D01*
X89463Y308553D01*
Y306978D01*
X89490Y306635D01*
X89570Y306300D01*
X89702Y305982D01*
X89882Y305688D01*
X89952Y305605D01*
X89937Y305587D01*
X89733Y305254D01*
X89583Y304893D01*
X89492Y304513D01*
X89462Y304124D01*
X89492Y303734D01*
X89583Y303354D01*
X89733Y302993D01*
X89908Y302707D01*
X89785Y302530D01*
X89089Y301936D01*
X88639Y302025D01*
Y302168D01*
X81902D01*
Y295824D01*
X82908D01*
Y294075D01*
X87113D01*
Y289935D01*
X87140Y289598D01*
X87219Y289269D01*
X87349Y288956D01*
X87525Y288668D01*
X87745Y288410D01*
X87745Y288410D01*
X87745Y288410D01*
X89305Y286851D01*
X89305Y286851D01*
X89305Y286851D01*
X89305Y286851D01*
Y286851D01*
X89562Y286631D01*
X89851Y286454D01*
D01*
D01*
Y286454D01*
X89851Y286454D01*
D01*
D01*
X89851D01*
Y286454D01*
D01*
X89851D01*
Y286454D01*
X90163Y286324D01*
X90493Y286245D01*
X90517Y286244D01*
X90703Y286229D01*
X90821Y286157D01*
X91182Y286007D01*
X91562Y285916D01*
X91952Y285885D01*
X94905D01*
X95294Y285916D01*
X95674Y286007D01*
X96035Y286157D01*
X96368Y286361D01*
X96666Y286615D01*
X96920Y286912D01*
X97124Y287245D01*
X97273Y287606D01*
X97364Y287986D01*
X97395Y288376D01*
X97364Y288765D01*
X97273Y289145D01*
X97124Y289506D01*
X96920Y289839D01*
X96666Y290137D01*
X96368Y290390D01*
X96035Y290595D01*
X95674Y290744D01*
X95294Y290835D01*
X94905Y290866D01*
X91952D01*
X91952Y290866D01*
X91952Y290866D01*
D01*
X91562Y290838D01*
X91427Y291399D01*
X92046Y292184D01*
X94905D01*
X95294Y292215D01*
X95674Y292306D01*
X96035Y292456D01*
X96368Y292660D01*
X96666Y292914D01*
X96920Y293211D01*
X97124Y293544D01*
X97273Y293905D01*
X97364Y294285D01*
X97395Y294675D01*
X97364Y295064D01*
X97273Y295444D01*
X97124Y295805D01*
X96920Y296139D01*
X96825Y296250D01*
X96920Y296361D01*
X97124Y296694D01*
X97273Y297055D01*
X97364Y297435D01*
X97395Y297824D01*
X97364Y298214D01*
X97273Y298594D01*
X97124Y298955D01*
X96920Y299288D01*
X96825Y299399D01*
X96920Y299510D01*
X97124Y299843D01*
X97273Y300204D01*
X97364Y300584D01*
X97395Y300974D01*
X97364Y301363D01*
X97273Y301744D01*
X97124Y302105D01*
X96920Y302438D01*
X96825Y302549D01*
X96920Y302660D01*
X97124Y302993D01*
X97273Y303354D01*
X97364Y303734D01*
X97395Y304124D01*
X97400Y304129D01*
X99950D01*
X100231Y304061D01*
X100670Y304027D01*
X101110Y304061D01*
X101390Y304129D01*
X102470D01*
X102744Y304156D01*
X103008Y304236D01*
X103252Y304366D01*
X103465Y304541D01*
X103640Y304754D01*
X103770Y304997D01*
X103850Y305261D01*
X103877Y305535D01*
Y306043D01*
X104408Y308255D01*
X104611Y308443D01*
X104846Y308425D01*
X105235Y308455D01*
X105615Y308546D01*
X105976Y308696D01*
X106309Y308900D01*
X106421Y308995D01*
X106532Y308900D01*
X106865Y308696D01*
X107226Y308546D01*
X107606Y308455D01*
X107995Y308425D01*
X108385Y308455D01*
X108765Y308546D01*
X109126Y308696D01*
X109459Y308900D01*
X109570Y308995D01*
X109681Y308900D01*
X110014Y308696D01*
X110375Y308546D01*
X110755Y308455D01*
X111145Y308425D01*
X111535Y308455D01*
X111915Y308546D01*
X112276Y308696D01*
X112609Y308900D01*
X112720Y308995D01*
X112831Y308900D01*
X113164Y308696D01*
X113525Y308546D01*
X113905Y308455D01*
X114295Y308425D01*
X114684Y308455D01*
X115064Y308546D01*
X115425Y308696D01*
X115758Y308900D01*
X115869Y308995D01*
X115980Y308900D01*
X116314Y308696D01*
X116674Y308546D01*
X117054Y308455D01*
X117414Y308427D01*
X118064Y307666D01*
X118061Y307635D01*
X118096Y307196D01*
X118199Y306768D01*
X118368Y306360D01*
X118598Y305984D01*
X118884Y305649D01*
X119219Y305363D01*
X119595Y305133D01*
X120002Y304964D01*
X120431Y304861D01*
X120870Y304827D01*
X121039Y304840D01*
X121746Y304133D01*
X121745Y304124D01*
X121776Y303734D01*
X121867Y303354D01*
X122017Y302993D01*
X122221Y302660D01*
X122316Y302549D01*
X122221Y302438D01*
X122017Y302105D01*
X121867Y301744D01*
X121776Y301363D01*
X121745Y300974D01*
X121776Y300584D01*
X121867Y300204D01*
X122017Y299843D01*
X122221Y299510D01*
X122475Y299213D01*
X122772Y298959D01*
X123105Y298755D01*
X123466Y298605D01*
X123846Y298514D01*
X124235Y298484D01*
X127188D01*
X127479Y298506D01*
X127676Y298324D01*
Y297324D01*
X127479Y297142D01*
X127188Y297165D01*
X124235D01*
X123846Y297134D01*
X123466Y297043D01*
X123105Y296894D01*
X123003Y296831D01*
X122710D01*
X122621Y296908D01*
X122245Y297138D01*
X121838Y297307D01*
X121409Y297410D01*
X120970Y297444D01*
X120531Y297410D01*
X120102Y297307D01*
X119695Y297138D01*
X119319Y296908D01*
X118984Y296621D01*
X118698Y296286D01*
X118468Y295911D01*
X118299Y295503D01*
X118196Y295075D01*
X118161Y294635D01*
X118196Y294196D01*
X118299Y293767D01*
X118468Y293360D01*
X118698Y292985D01*
X118984Y292649D01*
X119319Y292363D01*
X119695Y292133D01*
X120102Y291964D01*
X120531Y291861D01*
X120970Y291827D01*
X121054Y291794D01*
X121772Y291181D01*
X121776Y291136D01*
X121867Y290756D01*
X122017Y290394D01*
X122221Y290061D01*
X122316Y289950D01*
X122221Y289839D01*
X122017Y289506D01*
X121867Y289145D01*
X121776Y288765D01*
X121745Y288376D01*
X121776Y287986D01*
X121867Y287606D01*
X122017Y287245D01*
X122221Y286912D01*
X122236Y286894D01*
X122165Y286811D01*
X121985Y286517D01*
X121853Y286199D01*
X121773Y285864D01*
X121746Y285521D01*
Y283946D01*
X121773Y283603D01*
X121853Y283268D01*
X121985Y282950D01*
X122165Y282657D01*
X122389Y282395D01*
X122651Y282171D01*
X122944Y281991D01*
X123262Y281860D01*
X123597Y281779D01*
X123940Y281752D01*
X127463D01*
Y279535D01*
X127490Y279261D01*
X127570Y278997D01*
X127700Y278754D01*
X127875Y278541D01*
X128088Y278366D01*
X128332Y278236D01*
X128596Y278156D01*
X128870Y278129D01*
X132370D01*
X132644Y278156D01*
X132908Y278236D01*
X133152Y278366D01*
X133365Y278541D01*
X133540Y278754D01*
X133670Y278997D01*
X133750Y279261D01*
X133777Y279535D01*
Y286235D01*
X133750Y286510D01*
X133670Y286774D01*
X133540Y287017D01*
X133365Y287230D01*
D01*
X133365Y287230D01*
X133365Y287230D01*
X133365Y287230D01*
X133365Y287230D01*
X133144Y287459D01*
X134195Y288510D01*
X134415Y288768D01*
X134525Y288947D01*
X134592Y289056D01*
X134630Y289148D01*
X134643Y289181D01*
X138395D01*
Y289012D01*
X138395D01*
Y284287D01*
X140145D01*
Y283281D01*
X146488D01*
Y283445D01*
X146917Y283841D01*
X147356Y283875D01*
X147784Y283978D01*
X148192Y284147D01*
X148567Y284377D01*
X148903Y284664D01*
X149189Y284999D01*
X149419Y285374D01*
X149588Y285782D01*
X149691Y286210D01*
X149725Y286650D01*
X149691Y287089D01*
X149588Y287517D01*
X149419Y287925D01*
X149189Y288300D01*
X148903Y288636D01*
X148567Y288922D01*
X148277Y289100D01*
Y290100D01*
X148567Y290277D01*
X148902Y290564D01*
X149189Y290899D01*
X149419Y291274D01*
X149588Y291682D01*
X149691Y292110D01*
X149725Y292550D01*
X149691Y292989D01*
X149588Y293418D01*
X149419Y293825D01*
X149189Y294200D01*
X148902Y294536D01*
X148567Y294822D01*
X148192Y295052D01*
X147784Y295221D01*
X147514Y295286D01*
X147631Y296279D01*
X148970D01*
X149307Y296305D01*
X149636Y296384D01*
X149949Y296514D01*
X150238Y296691D01*
X150495Y296910D01*
X151295Y297710D01*
X151515Y297968D01*
X151692Y298256D01*
X151821Y298569D01*
X151840Y298648D01*
X152042Y298885D01*
X152273Y299260D01*
X152441Y299668D01*
X152544Y300096D01*
X152579Y300535D01*
X152544Y300975D01*
X152441Y301403D01*
X152273Y301811D01*
X152042Y302186D01*
X151756Y302521D01*
X151421Y302808D01*
X151045Y303038D01*
X150638Y303207D01*
X150209Y303309D01*
X150181Y303312D01*
X149835Y304250D01*
X151274Y305689D01*
X151494Y305946D01*
X151670Y306235D01*
X151800Y306548D01*
X151879Y306877D01*
X151906Y307214D01*
Y320081D01*
X152021Y320217D01*
X152251Y320593D01*
X152420Y321000D01*
X152523Y321428D01*
X152558Y321868D01*
X152523Y322307D01*
X152420Y322736D01*
X152251Y323143D01*
X152021Y323519D01*
X151735Y323854D01*
X151400Y324140D01*
X151149Y324293D01*
X151365Y324541D01*
X151365Y324541D01*
X151365D01*
X151365Y324541D01*
X151365Y324541D01*
D01*
X151540Y324754D01*
X151670Y324997D01*
X151750Y325261D01*
X151777Y325535D01*
Y336135D01*
X151750Y336410D01*
X151670Y336674D01*
X151540Y336917D01*
X151365Y337130D01*
X151152Y337305D01*
X150908Y337435D01*
X150645Y337515D01*
X150370Y337542D01*
X146870D01*
X146596Y337515D01*
X146332Y337435D01*
X146089Y337305D01*
X145875Y337130D01*
X145700Y336917D01*
X145570Y336674D01*
X145490Y336410D01*
X145463Y336135D01*
Y331318D01*
X141545D01*
Y331318D01*
Y331387D01*
X141545Y332025D01*
X141545Y332025D01*
X141545D01*
Y336112D01*
D01*
Y336112D01*
X141545Y336112D01*
Y336673D01*
X141545D01*
Y341398D01*
X139795D01*
Y342404D01*
X133452D01*
Y342104D01*
X132621Y341548D01*
X132238Y341707D01*
X131809Y341810D01*
X131370Y341844D01*
X130931Y341810D01*
X130502Y341707D01*
X130095Y341538D01*
X129719Y341308D01*
X129384Y341021D01*
X129098Y340686D01*
X128868Y340311D01*
X128699Y339903D01*
X128596Y339475D01*
X128561Y339035D01*
X128596Y338596D01*
X128699Y338168D01*
X128868Y337760D01*
X129098Y337385D01*
X129384Y337049D01*
X129576Y336885D01*
Y335885D01*
X129384Y335721D01*
X129098Y335386D01*
X128868Y335011D01*
X128699Y334603D01*
X128596Y334175D01*
X128561Y333735D01*
X128596Y333296D01*
X128699Y332868D01*
X128868Y332460D01*
X129098Y332084D01*
X129384Y331749D01*
X129719Y331463D01*
X130095Y331233D01*
X130502Y331064D01*
X130931Y330961D01*
X131370Y330927D01*
X131809Y330961D01*
X132238Y331064D01*
X132621Y331223D01*
X133452Y330667D01*
Y330381D01*
X138326D01*
X138395Y330312D01*
X138395Y329674D01*
X138395Y329674D01*
X138395D01*
Y325587D01*
D01*
Y325587D01*
X138226Y325418D01*
X133452D01*
Y324958D01*
X132724D01*
X132516Y324942D01*
X129870D01*
X129596Y324915D01*
X129332Y324835D01*
X129088Y324705D01*
X128875Y324530D01*
X128700Y324317D01*
X128570Y324074D01*
X128490Y323810D01*
X128463Y323535D01*
Y317035D01*
X128490Y316761D01*
X128570Y316497D01*
X128596Y316450D01*
X128343Y316028D01*
X127350Y315905D01*
X124295Y318960D01*
X124038Y319180D01*
X123749Y319357D01*
X123436Y319486D01*
X123107Y319566D01*
X122770Y319592D01*
X122563D01*
Y325400D01*
X121533D01*
X121523Y325527D01*
X121521Y325552D01*
X121506Y325615D01*
X121442Y325881D01*
X121351Y326102D01*
X121313Y326193D01*
X121246Y326303D01*
X121136Y326482D01*
X120916Y326739D01*
X120572Y327083D01*
X120955Y328007D01*
X122002D01*
Y340256D01*
X118822D01*
Y344640D01*
X118795Y344978D01*
X118716Y345307D01*
X118587Y345619D01*
X118410Y345908D01*
X118190Y346165D01*
X116599Y347756D01*
X116342Y347976D01*
X116053Y348153D01*
X115741Y348283D01*
X115411Y348361D01*
X115363Y348365D01*
Y349600D01*
X109020D01*
Y349600D01*
D02*
G37*
%LPD*%
G36*
X114509Y340256D02*
X111328D01*
Y328007D01*
X114509D01*
Y327940D01*
X114535Y327603D01*
X114614Y327274D01*
X114744Y326961D01*
X114921Y326673D01*
X115140Y326415D01*
X116220Y325336D01*
Y324394D01*
X114470D01*
Y323578D01*
X114445Y323556D01*
X114225Y323299D01*
X114049Y323011D01*
X113919Y322698D01*
X113840Y322369D01*
X113813Y322031D01*
Y320406D01*
X113300Y319892D01*
X112170D01*
X111833Y319865D01*
X111504Y319787D01*
X111191Y319657D01*
X110902Y319480D01*
X110645Y319260D01*
X109620Y318235D01*
D01*
X109620Y318235D01*
Y318235D01*
X109420Y318235D01*
X108395Y319260D01*
X108138Y319480D01*
X107849Y319657D01*
X107536Y319787D01*
X107207Y319865D01*
X106870Y319892D01*
X103120D01*
Y324394D01*
X101370D01*
Y325385D01*
X102442Y326458D01*
X102662Y326715D01*
X102839Y327004D01*
X102968Y327316D01*
X103047Y327645D01*
X103074Y327983D01*
Y328007D01*
X106254D01*
Y340256D01*
X103074D01*
Y342863D01*
X108670D01*
Y342863D01*
X108670D01*
X108670Y342863D01*
X109020D01*
Y342863D01*
X114509D01*
Y340256D01*
D02*
G37*
G36*
X147592Y319471D02*
Y313716D01*
X147471Y313604D01*
X146488Y313604D01*
Y313604D01*
X141545D01*
Y313787D01*
X141545D01*
Y318512D01*
D01*
Y318512D01*
X141714Y318681D01*
X146488D01*
Y319988D01*
X146795Y320074D01*
X147592Y319471D01*
D02*
G37*
G36*
X349535Y351535D02*
Y351535D01*
X349545Y351544D01*
X349927Y351506D01*
X350305Y351392D01*
X350652Y351206D01*
X350957Y350957D01*
X351206Y350652D01*
X351392Y350305D01*
X351506Y349927D01*
X351545Y349535D01*
X351545Y345900D01*
X350713Y345344D01*
X350537Y345417D01*
X349961Y345583D01*
X349370Y345684D01*
X348772Y345717D01*
X338929D01*
X338331Y345684D01*
X337740Y345583D01*
X337164Y345417D01*
X336610Y345188D01*
X336085Y344898D01*
X335596Y344551D01*
X335149Y344151D01*
X334750Y343705D01*
X334403Y343216D01*
X334113Y342691D01*
X333884Y342137D01*
X333718Y341561D01*
X333617Y340970D01*
X333584Y340372D01*
X333617Y339773D01*
X333718Y339182D01*
X333884Y338606D01*
X334113Y338052D01*
X334403Y337528D01*
X334750Y337039D01*
X335149Y336592D01*
X335596Y336192D01*
X336085Y335846D01*
X336610Y335556D01*
X337164Y335326D01*
X337740Y335160D01*
X338331Y335060D01*
X338929Y335026D01*
X348772D01*
X349370Y335060D01*
X349961Y335160D01*
X350537Y335326D01*
X350713Y335399D01*
X351544Y334843D01*
X351541Y301019D01*
X350710Y300464D01*
X350537Y300535D01*
X349961Y300701D01*
X349370Y300802D01*
X348772Y300835D01*
X338929D01*
X338331Y300802D01*
X337740Y300701D01*
X337164Y300535D01*
X336610Y300306D01*
X336085Y300016D01*
X335596Y299669D01*
X335149Y299270D01*
X334750Y298823D01*
X334403Y298334D01*
X334113Y297809D01*
X333884Y297255D01*
X333718Y296679D01*
X333617Y296088D01*
X333584Y295490D01*
X333617Y294891D01*
X333718Y294300D01*
X333884Y293724D01*
X334113Y293170D01*
X334403Y292646D01*
X334750Y292157D01*
X335149Y291710D01*
X335596Y291311D01*
X336085Y290964D01*
X336610Y290674D01*
X337164Y290444D01*
X337740Y290278D01*
X338331Y290178D01*
X338929Y290144D01*
X348772D01*
X349370Y290178D01*
X349961Y290278D01*
X350537Y290444D01*
X350709Y290516D01*
X351541Y289960D01*
X351535Y221535D01*
X351535D01*
X351544Y221526D01*
X351506Y221143D01*
X351392Y220766D01*
X351206Y220419D01*
X350957Y220114D01*
X350652Y219864D01*
X350305Y219679D01*
X349927Y219564D01*
X349535Y219526D01*
X221535Y219535D01*
Y219535D01*
X221526Y219527D01*
X221143Y219564D01*
X220766Y219679D01*
X220419Y219864D01*
X220114Y220114D01*
X219864Y220419D01*
X219679Y220766D01*
X219564Y221143D01*
X219526Y221535D01*
X219535Y349535D01*
X219535D01*
X219527Y349545D01*
X219564Y349927D01*
X219679Y350305D01*
X219864Y350652D01*
X220114Y350957D01*
X220419Y351206D01*
X220766Y351392D01*
X221143Y351506D01*
X221535Y351545D01*
X349535Y351535D01*
D02*
G37*
%LPC*%
G36*
X267821Y254134D02*
X267215Y254100D01*
X266617Y253999D01*
X266034Y253831D01*
X265474Y253599D01*
X264943Y253306D01*
X264448Y252955D01*
X263996Y252550D01*
X263592Y252098D01*
X263399Y251827D01*
X262399D01*
X262207Y252098D01*
X261802Y252550D01*
X261350Y252955D01*
X260856Y253306D01*
X260325Y253599D01*
X259764Y253831D01*
X259181Y253999D01*
X258583Y254100D01*
X257978Y254134D01*
X257372Y254100D01*
X256774Y253999D01*
X256192Y253831D01*
X255631Y253599D01*
X255100Y253306D01*
X254606Y252955D01*
X254154Y252550D01*
X253749Y252098D01*
X253398Y251604D01*
X253105Y251073D01*
X252873Y250512D01*
X252705Y249929D01*
X252698Y249888D01*
X251736Y249615D01*
X251359Y250044D01*
X250911Y250438D01*
X250415Y250769D01*
X249880Y251033D01*
X249316Y251224D01*
X248730Y251341D01*
X248135Y251380D01*
X247540Y251341D01*
X246955Y251224D01*
X246391Y251033D01*
X245856Y250769D01*
X245360Y250438D01*
X244912Y250044D01*
X244535Y249615D01*
X243573Y249888D01*
X243566Y249929D01*
X243398Y250512D01*
X243166Y251073D01*
X242872Y251604D01*
X242522Y252098D01*
X242117Y252550D01*
X241665Y252955D01*
X241170Y253306D01*
X240640Y253599D01*
X240079Y253831D01*
X239496Y253999D01*
X238898Y254100D01*
X238293Y254134D01*
X237687Y254100D01*
X237089Y253999D01*
X236507Y253831D01*
X235946Y253599D01*
X235415Y253306D01*
X234921Y252955D01*
X234469Y252550D01*
X234064Y252098D01*
X233872Y251827D01*
X232872D01*
X232679Y252098D01*
X232275Y252550D01*
X231822Y252955D01*
X231328Y253306D01*
X230797Y253599D01*
X230237Y253831D01*
X229654Y253999D01*
X229056Y254100D01*
X228450Y254134D01*
X227845Y254100D01*
X227247Y253999D01*
X226664Y253831D01*
X226104Y253599D01*
X225573Y253306D01*
X225078Y252955D01*
X224626Y252550D01*
X224222Y252098D01*
X223871Y251604D01*
X223577Y251073D01*
X223345Y250512D01*
X223178Y249929D01*
X223076Y249331D01*
X223042Y248726D01*
Y244915D01*
X223076Y244309D01*
X223178Y243711D01*
X223345Y243129D01*
X223577Y242568D01*
X223871Y242038D01*
X224222Y241543D01*
X224626Y241091D01*
X225078Y240686D01*
X225573Y240335D01*
X226104Y240042D01*
X226664Y239810D01*
X227247Y239642D01*
X227845Y239541D01*
X228450Y239506D01*
X229056Y239541D01*
X229654Y239642D01*
X230237Y239810D01*
X230797Y240042D01*
X231328Y240335D01*
X231822Y240686D01*
X232275Y241091D01*
X232679Y241543D01*
X232872Y241814D01*
X233872D01*
X234064Y241543D01*
X234469Y241091D01*
X234921Y240686D01*
X235415Y240335D01*
X235946Y240042D01*
X236507Y239810D01*
X237089Y239642D01*
X237687Y239541D01*
X238293Y239506D01*
X238898Y239541D01*
X239496Y239642D01*
X240079Y239810D01*
X240640Y240042D01*
X241170Y240335D01*
X241665Y240686D01*
X242117Y241091D01*
X242522Y241543D01*
X242872Y242038D01*
X243166Y242568D01*
X243398Y243129D01*
X243566Y243711D01*
X243573Y243753D01*
X244535Y244026D01*
X244912Y243597D01*
X245360Y243203D01*
X245856Y242872D01*
X246391Y242608D01*
X246955Y242417D01*
X247540Y242300D01*
X248135Y242261D01*
X248730Y242300D01*
X249316Y242417D01*
X249880Y242608D01*
X250415Y242872D01*
X250911Y243203D01*
X251359Y243597D01*
X251736Y244026D01*
X252698Y243753D01*
X252705Y243711D01*
X252873Y243129D01*
X253105Y242568D01*
X253398Y242038D01*
X253749Y241543D01*
X254154Y241091D01*
X254606Y240686D01*
X255100Y240335D01*
X255631Y240042D01*
X256192Y239810D01*
X256774Y239642D01*
X257372Y239541D01*
X257978Y239506D01*
X258583Y239541D01*
X259181Y239642D01*
X259764Y239810D01*
X260325Y240042D01*
X260856Y240335D01*
X261350Y240686D01*
X261802Y241091D01*
X262207Y241543D01*
X262399Y241814D01*
X263399D01*
X263592Y241543D01*
X263996Y241091D01*
X264448Y240686D01*
X264886Y240376D01*
X264912Y240350D01*
X264912Y240350D01*
D01*
X264947Y239895D01*
X265054Y239452D01*
X265229Y239030D01*
X265467Y238640D01*
X265763Y238293D01*
X270378Y233679D01*
X270726Y233382D01*
X271115Y233143D01*
X271536Y232969D01*
X271980Y232862D01*
X272435Y232826D01*
X280831D01*
X283658Y229999D01*
X284005Y229702D01*
X284394Y229464D01*
X284816Y229289D01*
X285260Y229183D01*
X285715Y229147D01*
X290549D01*
X290711Y228884D01*
X291005Y228539D01*
X291349Y228245D01*
X291735Y228009D01*
X292153Y227835D01*
X292594Y227730D01*
X293045Y227694D01*
X295998D01*
X296449Y227730D01*
X296889Y227835D01*
X297308Y228009D01*
X297694Y228245D01*
X298038Y228539D01*
X298147Y228667D01*
X298403Y228667D01*
Y228667D01*
X304747D01*
Y229673D01*
X306496D01*
Y234398D01*
X304747D01*
Y235404D01*
X298403D01*
Y235404D01*
X298182Y235404D01*
X298038Y235573D01*
X297694Y235866D01*
X297308Y236103D01*
X296889Y236276D01*
X296449Y236382D01*
X295998Y236418D01*
X293045D01*
X292594Y236382D01*
X292153Y236276D01*
X291735Y236103D01*
X291349Y235866D01*
X291005Y235573D01*
X290711Y235228D01*
X290549Y234965D01*
X286920D01*
X284092Y237792D01*
X283745Y238089D01*
X283356Y238327D01*
X282934Y238502D01*
X282490Y238609D01*
X282035Y238644D01*
X273640D01*
X271633Y240652D01*
X271645Y241091D01*
X272049Y241543D01*
X272400Y242038D01*
X272693Y242568D01*
X272925Y243129D01*
X273093Y243711D01*
X273195Y244309D01*
X273229Y244915D01*
Y248726D01*
X273195Y249331D01*
X273093Y249929D01*
X272925Y250512D01*
X272693Y251073D01*
X272400Y251604D01*
X272049Y252098D01*
X271645Y252550D01*
X271193Y252955D01*
X270698Y253306D01*
X270167Y253599D01*
X269607Y253831D01*
X269024Y253999D01*
X268426Y254100D01*
X267821Y254134D01*
D02*
G37*
G36*
X276007Y284074D02*
X274432D01*
X274089Y284047D01*
X273754Y283966D01*
X273436Y283835D01*
X273143Y283655D01*
X272881Y283431D01*
X272657Y283169D01*
X272477Y282876D01*
X272345Y282558D01*
X272275Y282264D01*
X267808D01*
X267495Y282240D01*
X267470Y282238D01*
X267407Y282223D01*
X267141Y282159D01*
X266920Y282067D01*
X266829Y282029D01*
X266719Y281962D01*
X266540Y281853D01*
X266283Y281633D01*
X265804Y282175D01*
Y282175D01*
X264798D01*
Y283924D01*
X260073D01*
Y282175D01*
X259067D01*
Y275831D01*
X265804D01*
Y276847D01*
X266703D01*
X267040Y276873D01*
X267370Y276952D01*
X267682Y277081D01*
X267682Y277081D01*
X267682Y277081D01*
X267971Y277258D01*
X268228Y277478D01*
X268228Y277478D01*
X268228Y277478D01*
X268701Y277951D01*
X272275D01*
X272345Y277658D01*
X272477Y277340D01*
X272657Y277046D01*
X272881Y276785D01*
X273143Y276561D01*
X273436Y276381D01*
X273754Y276249D01*
X274089Y276169D01*
X274432Y276142D01*
X276007D01*
X276350Y276169D01*
X276685Y276249D01*
X277003Y276381D01*
X277297Y276561D01*
X277559Y276785D01*
X277782Y277046D01*
X277962Y277340D01*
X278094Y277658D01*
X278174Y277993D01*
X278201Y278336D01*
Y281879D01*
X278174Y282223D01*
X278094Y282558D01*
X277962Y282876D01*
X277782Y283169D01*
X277559Y283431D01*
X277297Y283655D01*
X277003Y283835D01*
X276685Y283966D01*
X276350Y284047D01*
X276007Y284074D01*
D02*
G37*
G36*
X330198Y236418D02*
X327245D01*
X326794Y236382D01*
X326353Y236276D01*
X325935Y236103D01*
X325549Y235866D01*
X325205Y235573D01*
X325061Y235404D01*
X324839Y235404D01*
Y235404D01*
X318496D01*
Y234398D01*
X316746D01*
Y229673D01*
X318496D01*
Y228667D01*
X324839D01*
Y228667D01*
X325096Y228667D01*
X325205Y228539D01*
X325549Y228245D01*
X325935Y228009D01*
X326353Y227835D01*
X326794Y227730D01*
X327245Y227694D01*
X330198D01*
X330649Y227730D01*
X331089Y227835D01*
X331508Y228009D01*
X331894Y228245D01*
X332238Y228539D01*
X332532Y228884D01*
X332769Y229270D01*
X332942Y229688D01*
X333047Y230128D01*
X333083Y230579D01*
Y233532D01*
X333047Y233984D01*
X332942Y234424D01*
X332769Y234842D01*
X332532Y235228D01*
X332238Y235573D01*
X331894Y235866D01*
X331508Y236103D01*
X331089Y236276D01*
X330649Y236382D01*
X330198Y236418D01*
D02*
G37*
G36*
X228450Y231695D02*
X227855Y231656D01*
X227270Y231539D01*
X226706Y231348D01*
X226171Y231084D01*
X225675Y230753D01*
X225226Y230359D01*
X224833Y229911D01*
X224502Y229415D01*
X224238Y228880D01*
X224046Y228315D01*
X223930Y227730D01*
X223891Y227135D01*
X223930Y226540D01*
X224046Y225955D01*
X224238Y225391D01*
X224502Y224856D01*
X224833Y224360D01*
X225226Y223911D01*
X225675Y223518D01*
X226171Y223187D01*
X226706Y222923D01*
X227270Y222731D01*
X227855Y222615D01*
X228450Y222576D01*
X229046Y222615D01*
X229630Y222731D01*
X230195Y222923D01*
X230730Y223187D01*
X231226Y223518D01*
X231674Y223911D01*
X232068Y224360D01*
X232399Y224856D01*
X232663Y225391D01*
X232854Y225955D01*
X232971Y226540D01*
X233010Y227135D01*
X232971Y227730D01*
X232854Y228315D01*
X232663Y228880D01*
X232399Y229415D01*
X232068Y229911D01*
X231674Y230359D01*
X231226Y230753D01*
X230730Y231084D01*
X230195Y231348D01*
X229630Y231539D01*
X229046Y231656D01*
X228450Y231695D01*
D02*
G37*
G36*
X267821D02*
X267225Y231656D01*
X266640Y231539D01*
X266076Y231348D01*
X265541Y231084D01*
X265045Y230753D01*
X264597Y230359D01*
X264203Y229911D01*
X263872Y229415D01*
X263608Y228880D01*
X263417Y228315D01*
X263300Y227730D01*
X263261Y227135D01*
X263300Y226540D01*
X263417Y225955D01*
X263608Y225391D01*
X263872Y224856D01*
X264203Y224360D01*
X264597Y223911D01*
X265045Y223518D01*
X265541Y223187D01*
X266076Y222923D01*
X266640Y222731D01*
X267225Y222615D01*
X267821Y222576D01*
X268416Y222615D01*
X269001Y222731D01*
X269565Y222923D01*
X270100Y223187D01*
X270596Y223518D01*
X271044Y223911D01*
X271438Y224360D01*
X271769Y224856D01*
X272033Y225391D01*
X272224Y225955D01*
X272341Y226540D01*
X272380Y227135D01*
X272341Y227730D01*
X272224Y228315D01*
X272033Y228880D01*
X271769Y229415D01*
X271438Y229911D01*
X271044Y230359D01*
X270596Y230753D01*
X270100Y231084D01*
X269565Y231348D01*
X269001Y231539D01*
X268416Y231656D01*
X267821Y231695D01*
D02*
G37*
G36*
X291035Y291442D02*
X285035D01*
X284761Y291415D01*
X284497Y291335D01*
X284254Y291205D01*
X284041Y291030D01*
X283866Y290817D01*
X283736Y290574D01*
X283656Y290310D01*
X283629Y290035D01*
Y284598D01*
X283528Y284434D01*
X282797Y283946D01*
X282781Y283953D01*
X282401Y284044D01*
X282011Y284075D01*
X281621Y284044D01*
X281241Y283953D01*
X280880Y283803D01*
X280547Y283599D01*
X280250Y283345D01*
X279996Y283048D01*
X279792Y282715D01*
X279643Y282354D01*
X279551Y281974D01*
X279521Y281584D01*
Y278631D01*
X279551Y278242D01*
X279643Y277862D01*
X279792Y277501D01*
X279854Y277399D01*
Y275418D01*
X278010D01*
Y274412D01*
X276261D01*
Y269687D01*
X278010D01*
Y268681D01*
X282780D01*
X282836Y268497D01*
X282966Y268254D01*
X283141Y268041D01*
X283354Y267866D01*
X283597Y267736D01*
X283627Y267727D01*
Y253821D01*
X283627Y253821D01*
X283627D01*
X283662Y253366D01*
X283769Y252922D01*
X283944Y252501D01*
X284182Y252112D01*
X284478Y251764D01*
X290175Y246068D01*
X290159Y245835D01*
X290196Y245266D01*
X290308Y244706D01*
X290491Y244166D01*
X290744Y243654D01*
X291061Y243180D01*
X291437Y242751D01*
X291866Y242375D01*
X292340Y242058D01*
X292852Y241805D01*
X293392Y241622D01*
X293952Y241511D01*
X294521Y241473D01*
X295091Y241511D01*
X295650Y241622D01*
X296191Y241805D01*
X296702Y242058D01*
X297177Y242375D01*
X297606Y242751D01*
X297760Y242927D01*
X298403Y242467D01*
Y242467D01*
X304747D01*
Y242467D01*
X304747D01*
X304747Y242467D01*
X305096D01*
Y242467D01*
X311096D01*
Y242467D01*
X311096Y242467D01*
X311439Y242467D01*
X311621D01*
X311803D01*
X312146Y242467D01*
X312146Y242467D01*
Y242467D01*
X318146D01*
Y242467D01*
X318146D01*
X318146Y242467D01*
X318496D01*
Y242467D01*
X324839D01*
Y242467D01*
X325483Y242927D01*
X325637Y242751D01*
X326066Y242375D01*
X326540Y242058D01*
X327052Y241805D01*
X327592Y241622D01*
X328152Y241511D01*
X328721Y241473D01*
X329291Y241511D01*
X329850Y241622D01*
X330391Y241805D01*
X330902Y242058D01*
X331377Y242375D01*
X331806Y242751D01*
X332182Y243180D01*
X332499Y243654D01*
X332751Y244166D01*
X332935Y244706D01*
X333046Y245266D01*
X333083Y245835D01*
X333046Y246405D01*
X332935Y246964D01*
X332751Y247505D01*
X332499Y248017D01*
X332182Y248491D01*
X331806Y248920D01*
X331377Y249296D01*
X330902Y249613D01*
X330391Y249866D01*
X329850Y250049D01*
X329291Y250160D01*
X328721Y250198D01*
X328152Y250160D01*
X327592Y250049D01*
X327052Y249866D01*
X326540Y249613D01*
X326066Y249296D01*
X325637Y248920D01*
X325483Y248744D01*
X324839Y249204D01*
Y249204D01*
X324577Y249204D01*
Y253542D01*
X324543Y253964D01*
X324541Y253998D01*
X324434Y254441D01*
X324390Y254549D01*
Y257361D01*
X323383D01*
Y259110D01*
X318659D01*
Y257361D01*
X317483D01*
Y259110D01*
X312759D01*
Y258068D01*
X312052Y257361D01*
X311753D01*
X311621D01*
X311490D01*
X311191D01*
X310484Y258068D01*
Y259110D01*
X305759D01*
Y257361D01*
X304584D01*
Y259110D01*
X299859D01*
Y257361D01*
X298853D01*
Y254549D01*
X298808Y254441D01*
X298702Y253998D01*
X298666Y253542D01*
Y249204D01*
X298403Y249204D01*
Y249204D01*
X297760Y248744D01*
X297606Y248920D01*
X297177Y249296D01*
X296702Y249613D01*
X296191Y249866D01*
X295650Y250049D01*
X295091Y250160D01*
X294521Y250198D01*
X294288Y250182D01*
X289444Y255026D01*
Y267888D01*
X289630Y268041D01*
X289805Y268254D01*
X289935Y268497D01*
X289991Y268681D01*
X295461D01*
Y269687D01*
X297210D01*
Y274412D01*
X295461D01*
Y275418D01*
X293617D01*
Y277399D01*
X293679Y277501D01*
X293828Y277862D01*
X293919Y278242D01*
X293950Y278631D01*
Y281584D01*
X293919Y281974D01*
X293828Y282354D01*
X293679Y282715D01*
X293475Y283048D01*
X293221Y283345D01*
X292924Y283599D01*
X292590Y283803D01*
X292442Y283864D01*
Y290035D01*
X292415Y290310D01*
X292335Y290574D01*
X292205Y290817D01*
X292030Y291030D01*
X291817Y291205D01*
X291574Y291335D01*
X291310Y291415D01*
X291035Y291442D01*
D02*
G37*
G36*
X343850Y330362D02*
X343384Y330331D01*
X342926Y330240D01*
X342483Y330090D01*
X342064Y329883D01*
X341675Y329624D01*
X341324Y329315D01*
X341016Y328964D01*
X340756Y328575D01*
X340549Y328156D01*
X340399Y327714D01*
X340308Y327255D01*
X340277Y326789D01*
X340308Y326323D01*
X340399Y325864D01*
X340549Y325422D01*
X340756Y325003D01*
X341016Y324614D01*
X341324Y324262D01*
X341675Y323954D01*
X342064Y323695D01*
X342483Y323488D01*
X342926Y323338D01*
X343384Y323247D01*
X343850Y323216D01*
X344317Y323247D01*
X344775Y323338D01*
X345218Y323488D01*
X345637Y323695D01*
X346025Y323954D01*
X346377Y324262D01*
X346685Y324614D01*
X346945Y325003D01*
X347151Y325422D01*
X347302Y325864D01*
X347393Y326323D01*
X347423Y326789D01*
X347393Y327255D01*
X347302Y327714D01*
X347151Y328156D01*
X346945Y328575D01*
X346685Y328964D01*
X346377Y329315D01*
X346025Y329624D01*
X345637Y329883D01*
X345218Y330090D01*
X344775Y330240D01*
X344317Y330331D01*
X343850Y330362D01*
D02*
G37*
G36*
Y312645D02*
X343384Y312615D01*
X342926Y312524D01*
X342483Y312373D01*
X342064Y312167D01*
X341675Y311907D01*
X341324Y311599D01*
X341016Y311247D01*
X340756Y310859D01*
X340549Y310440D01*
X340399Y309997D01*
X340308Y309539D01*
X340277Y309072D01*
X340308Y308606D01*
X340399Y308148D01*
X340549Y307705D01*
X340756Y307286D01*
X341016Y306897D01*
X341324Y306546D01*
X341675Y306238D01*
X342064Y305978D01*
X342483Y305771D01*
X342926Y305621D01*
X343384Y305530D01*
X343850Y305499D01*
X344317Y305530D01*
X344775Y305621D01*
X345218Y305771D01*
X345637Y305978D01*
X346025Y306238D01*
X346377Y306546D01*
X346685Y306897D01*
X346945Y307286D01*
X347151Y307705D01*
X347302Y308148D01*
X347393Y308606D01*
X347423Y309072D01*
X347393Y309539D01*
X347302Y309997D01*
X347151Y310440D01*
X346945Y310859D01*
X346685Y311247D01*
X346377Y311599D01*
X346025Y311907D01*
X345637Y312167D01*
X345218Y312373D01*
X344775Y312524D01*
X344317Y312615D01*
X343850Y312645D01*
D02*
G37*
G36*
X286185Y349600D02*
X285914Y349600D01*
X285835D01*
Y349600D01*
X285835D01*
X285835D01*
X279492D01*
Y348361D01*
X279165Y348283D01*
X278852Y348153D01*
X278564Y347976D01*
X278307Y347756D01*
X276558Y346008D01*
X276338Y345750D01*
X276161Y345462D01*
X276031Y345149D01*
X275953Y344820D01*
X275926Y344483D01*
Y340256D01*
X272746D01*
Y328007D01*
X273750D01*
X274133Y327083D01*
X273839Y326789D01*
X273619Y326531D01*
X273442Y326243D01*
X273313Y325930D01*
X273234Y325601D01*
X273218Y325400D01*
X272192D01*
Y318663D01*
X273345D01*
X273442Y318428D01*
X273619Y318139D01*
X273839Y317882D01*
X274451Y317270D01*
X274105Y316331D01*
X274089Y316330D01*
X273754Y316250D01*
X273436Y316118D01*
X273143Y315938D01*
X272881Y315714D01*
X272657Y315453D01*
X272477Y315159D01*
X272345Y314841D01*
X272265Y314506D01*
X272238Y314163D01*
Y310747D01*
X268822D01*
X268479Y310720D01*
X268144Y310640D01*
X267826Y310508D01*
X267532Y310328D01*
X267270Y310104D01*
X267047Y309842D01*
X266867Y309549D01*
X266735Y309231D01*
X266655Y308896D01*
X266628Y308553D01*
Y306978D01*
X266655Y306635D01*
X266735Y306300D01*
X266867Y305982D01*
X267047Y305688D01*
X267118Y305605D01*
X267103Y305587D01*
X266898Y305254D01*
X266749Y304893D01*
X266658Y304513D01*
X266627Y304124D01*
X266658Y303734D01*
X266749Y303354D01*
X266898Y302993D01*
X267074Y302707D01*
X266951Y302530D01*
X266255Y301936D01*
X265804Y302025D01*
Y302168D01*
X259067D01*
Y295824D01*
X260073D01*
Y294075D01*
X264279D01*
Y289935D01*
X264305Y289598D01*
X264384Y289269D01*
X264514Y288956D01*
X264691Y288668D01*
X264910Y288410D01*
X264910Y288410D01*
X264911Y288410D01*
X266470Y286851D01*
Y286851D01*
X266470Y286851D01*
X266470Y286851D01*
Y286851D01*
X266728Y286631D01*
X267016Y286454D01*
D01*
D01*
Y286454D01*
X267016Y286454D01*
D01*
D01*
X267016D01*
Y286454D01*
D01*
X267016D01*
Y286454D01*
X267329Y286324D01*
X267658Y286245D01*
X267683Y286244D01*
X267869Y286229D01*
X267987Y286157D01*
X268348Y286007D01*
X268728Y285916D01*
X269117Y285885D01*
X272070D01*
X272460Y285916D01*
X272840Y286007D01*
X273201Y286157D01*
X273534Y286361D01*
X273831Y286615D01*
X274085Y286912D01*
X274289Y287245D01*
X274439Y287606D01*
X274530Y287986D01*
X274560Y288376D01*
X274530Y288765D01*
X274439Y289145D01*
X274289Y289506D01*
X274085Y289839D01*
X273831Y290137D01*
X273534Y290390D01*
X273201Y290595D01*
X272840Y290744D01*
X272460Y290835D01*
X272070Y290866D01*
X269117D01*
X269117Y290866D01*
X269117Y290866D01*
D01*
X268727Y290838D01*
X268592Y291399D01*
X269212Y292184D01*
X272070D01*
X272460Y292215D01*
X272840Y292306D01*
X273201Y292456D01*
X273534Y292660D01*
X273831Y292914D01*
X274085Y293211D01*
X274289Y293544D01*
X274439Y293905D01*
X274530Y294285D01*
X274560Y294675D01*
X274530Y295064D01*
X274439Y295444D01*
X274289Y295805D01*
X274085Y296139D01*
X273990Y296250D01*
X274085Y296361D01*
X274289Y296694D01*
X274439Y297055D01*
X274530Y297435D01*
X274560Y297824D01*
X274530Y298214D01*
X274439Y298594D01*
X274289Y298955D01*
X274085Y299288D01*
X273990Y299399D01*
X274085Y299510D01*
X274289Y299843D01*
X274439Y300204D01*
X274530Y300584D01*
X274560Y300974D01*
X274530Y301363D01*
X274439Y301744D01*
X274289Y302105D01*
X274085Y302438D01*
X273990Y302549D01*
X274085Y302660D01*
X274289Y302993D01*
X274439Y303354D01*
X274530Y303734D01*
X274560Y304124D01*
X274565Y304129D01*
X277116D01*
X277396Y304061D01*
X277835Y304027D01*
X278275Y304061D01*
X278555Y304129D01*
X279635D01*
X279910Y304156D01*
X280174Y304236D01*
X280417Y304366D01*
X280630Y304541D01*
X280805Y304754D01*
X280935Y304997D01*
X281015Y305261D01*
X281042Y305535D01*
Y306043D01*
X281573Y308255D01*
X281776Y308443D01*
X282011Y308425D01*
X282401Y308455D01*
X282781Y308546D01*
X283142Y308696D01*
X283475Y308900D01*
X283586Y308995D01*
X283697Y308900D01*
X284030Y308696D01*
X284391Y308546D01*
X284771Y308455D01*
X285161Y308425D01*
X285550Y308455D01*
X285930Y308546D01*
X286291Y308696D01*
X286624Y308900D01*
X286735Y308995D01*
X286846Y308900D01*
X287180Y308696D01*
X287541Y308546D01*
X287921Y308455D01*
X288310Y308425D01*
X288700Y308455D01*
X289080Y308546D01*
X289441Y308696D01*
X289774Y308900D01*
X289885Y308995D01*
X289996Y308900D01*
X290329Y308696D01*
X290690Y308546D01*
X291070Y308455D01*
X291460Y308425D01*
X291849Y308455D01*
X292229Y308546D01*
X292590Y308696D01*
X292924Y308900D01*
X293035Y308995D01*
X293146Y308900D01*
X293479Y308696D01*
X293840Y308546D01*
X294220Y308455D01*
X294580Y308427D01*
X295229Y307666D01*
X295227Y307635D01*
X295261Y307196D01*
X295364Y306768D01*
X295533Y306360D01*
X295763Y305984D01*
X296049Y305649D01*
X296385Y305363D01*
X296760Y305133D01*
X297167Y304964D01*
X297596Y304861D01*
X298035Y304827D01*
X298204Y304840D01*
X298911Y304133D01*
X298910Y304124D01*
X298941Y303734D01*
X299032Y303354D01*
X299182Y302993D01*
X299386Y302660D01*
X299481Y302549D01*
X299386Y302438D01*
X299182Y302105D01*
X299032Y301744D01*
X298941Y301363D01*
X298910Y300974D01*
X298941Y300584D01*
X299032Y300204D01*
X299182Y299843D01*
X299386Y299510D01*
X299640Y299213D01*
X299937Y298959D01*
X300270Y298755D01*
X300631Y298605D01*
X301011Y298514D01*
X301401Y298484D01*
X304353D01*
X304644Y298506D01*
X304841Y298324D01*
Y297324D01*
X304644Y297142D01*
X304353Y297165D01*
X301401D01*
X301011Y297134D01*
X300631Y297043D01*
X300270Y296894D01*
X300169Y296831D01*
X299876D01*
X299786Y296908D01*
X299411Y297138D01*
X299003Y297307D01*
X298575Y297410D01*
X298135Y297444D01*
X297696Y297410D01*
X297268Y297307D01*
X296860Y297138D01*
X296484Y296908D01*
X296149Y296621D01*
X295863Y296286D01*
X295633Y295911D01*
X295464Y295503D01*
X295361Y295075D01*
X295327Y294635D01*
X295361Y294196D01*
X295464Y293767D01*
X295633Y293360D01*
X295863Y292985D01*
X296149Y292649D01*
X296484Y292363D01*
X296860Y292133D01*
X297268Y291964D01*
X297696Y291861D01*
X298135Y291827D01*
X298219Y291794D01*
X298938Y291181D01*
X298941Y291136D01*
X299032Y290756D01*
X299182Y290394D01*
X299386Y290061D01*
X299481Y289950D01*
X299386Y289839D01*
X299182Y289506D01*
X299032Y289145D01*
X298941Y288765D01*
X298910Y288376D01*
X298941Y287986D01*
X299032Y287606D01*
X299182Y287245D01*
X299386Y286912D01*
X299401Y286894D01*
X299330Y286811D01*
X299150Y286517D01*
X299019Y286199D01*
X298938Y285864D01*
X298911Y285521D01*
Y283946D01*
X298938Y283603D01*
X299019Y283268D01*
X299150Y282950D01*
X299330Y282657D01*
X299554Y282395D01*
X299816Y282171D01*
X300109Y281991D01*
X300428Y281860D01*
X300762Y281779D01*
X301105Y281752D01*
X304629D01*
Y279535D01*
X304656Y279261D01*
X304736Y278997D01*
X304866Y278754D01*
X305041Y278541D01*
X305254Y278366D01*
X305497Y278236D01*
X305761Y278156D01*
X306035Y278129D01*
X309535D01*
X309810Y278156D01*
X310074Y278236D01*
X310317Y278366D01*
X310530Y278541D01*
X310705Y278754D01*
X310835Y278997D01*
X310915Y279261D01*
X310942Y279535D01*
Y286235D01*
X310915Y286510D01*
X310835Y286774D01*
X310705Y287017D01*
X310530Y287230D01*
D01*
X310530Y287230D01*
X310530Y287230D01*
X310530Y287230D01*
X310530Y287230D01*
X310309Y287459D01*
X311360Y288510D01*
X311580Y288768D01*
X311690Y288947D01*
X311757Y289056D01*
X311795Y289148D01*
X311809Y289181D01*
X315561D01*
Y289012D01*
X315561D01*
Y284287D01*
X317310D01*
Y283281D01*
X323654D01*
Y283445D01*
X324082Y283841D01*
X324521Y283875D01*
X324950Y283978D01*
X325357Y284147D01*
X325733Y284377D01*
X326068Y284664D01*
X326354Y284999D01*
X326584Y285374D01*
X326753Y285782D01*
X326856Y286210D01*
X326890Y286650D01*
X326856Y287089D01*
X326753Y287517D01*
X326584Y287925D01*
X326354Y288300D01*
X326068Y288636D01*
X325733Y288922D01*
X325443Y289100D01*
Y290100D01*
X325733Y290277D01*
X326068Y290564D01*
X326354Y290899D01*
X326584Y291274D01*
X326753Y291682D01*
X326856Y292110D01*
X326890Y292550D01*
X326856Y292989D01*
X326753Y293418D01*
X326584Y293825D01*
X326354Y294200D01*
X326068Y294536D01*
X325733Y294822D01*
X325357Y295052D01*
X324950Y295221D01*
X324679Y295286D01*
X324797Y296279D01*
X326135D01*
X326473Y296305D01*
X326802Y296384D01*
X327115Y296514D01*
X327403Y296691D01*
X327660Y296910D01*
X328460Y297710D01*
X328680Y297968D01*
X328857Y298256D01*
X328987Y298569D01*
X329005Y298648D01*
X329208Y298885D01*
X329438Y299260D01*
X329607Y299668D01*
X329710Y300096D01*
X329744Y300535D01*
X329710Y300975D01*
X329607Y301403D01*
X329438Y301811D01*
X329208Y302186D01*
X328922Y302521D01*
X328586Y302808D01*
X328210Y303038D01*
X327803Y303207D01*
X327375Y303309D01*
X327346Y303312D01*
X327000Y304250D01*
X328439Y305689D01*
X328659Y305946D01*
X328836Y306235D01*
X328965Y306548D01*
X329044Y306877D01*
X329071Y307214D01*
Y320081D01*
X329186Y320217D01*
X329417Y320593D01*
X329585Y321000D01*
X329688Y321428D01*
X329723Y321868D01*
X329688Y322307D01*
X329585Y322736D01*
X329417Y323143D01*
X329186Y323519D01*
X328900Y323854D01*
X328565Y324140D01*
X328315Y324293D01*
X328530Y324541D01*
X328530Y324541D01*
X328530D01*
X328530Y324541D01*
X328530Y324541D01*
D01*
X328705Y324754D01*
X328835Y324997D01*
X328915Y325261D01*
X328942Y325535D01*
Y336135D01*
X328915Y336410D01*
X328835Y336674D01*
X328705Y336917D01*
X328530Y337130D01*
X328317Y337305D01*
X328074Y337435D01*
X327810Y337515D01*
X327535Y337542D01*
X324035D01*
X323761Y337515D01*
X323497Y337435D01*
X323254Y337305D01*
X323041Y337130D01*
X322866Y336917D01*
X322736Y336674D01*
X322656Y336410D01*
X322629Y336135D01*
Y331318D01*
X318710D01*
Y331318D01*
Y331387D01*
X318710Y332025D01*
X318710Y332025D01*
X318710D01*
Y336112D01*
D01*
Y336112D01*
X318710Y336112D01*
Y336673D01*
X318710D01*
Y341398D01*
X316961D01*
Y342404D01*
X310617D01*
Y342104D01*
X309786Y341548D01*
X309403Y341707D01*
X308975Y341810D01*
X308535Y341844D01*
X308096Y341810D01*
X307667Y341707D01*
X307260Y341538D01*
X306885Y341308D01*
X306549Y341021D01*
X306263Y340686D01*
X306033Y340311D01*
X305864Y339903D01*
X305761Y339475D01*
X305727Y339035D01*
X305761Y338596D01*
X305864Y338168D01*
X306033Y337760D01*
X306263Y337385D01*
X306549Y337049D01*
X306741Y336885D01*
Y335885D01*
X306549Y335721D01*
X306263Y335386D01*
X306033Y335011D01*
X305864Y334603D01*
X305761Y334175D01*
X305727Y333735D01*
X305761Y333296D01*
X305864Y332868D01*
X306033Y332460D01*
X306263Y332084D01*
X306549Y331749D01*
X306885Y331463D01*
X307260Y331233D01*
X307667Y331064D01*
X308096Y330961D01*
X308535Y330927D01*
X308975Y330961D01*
X309403Y331064D01*
X309786Y331223D01*
X310617Y330667D01*
Y330381D01*
X315491D01*
X315561Y330312D01*
X315561Y329674D01*
X315561Y329674D01*
X315561D01*
Y325587D01*
D01*
Y325587D01*
X315391Y325418D01*
X310617D01*
Y324958D01*
X309889D01*
X309681Y324942D01*
X307035D01*
X306761Y324915D01*
X306497Y324835D01*
X306254Y324705D01*
X306041Y324530D01*
X305866Y324317D01*
X305736Y324074D01*
X305656Y323810D01*
X305629Y323535D01*
Y317035D01*
X305656Y316761D01*
X305736Y316497D01*
X305761Y316450D01*
X305508Y316028D01*
X304516Y315905D01*
X301460Y318960D01*
X301203Y319180D01*
X300915Y319357D01*
X300602Y319486D01*
X300273Y319566D01*
X299935Y319592D01*
X299728D01*
Y325400D01*
X298699D01*
X298689Y325527D01*
X298687Y325552D01*
X298672Y325615D01*
X298608Y325881D01*
X298516Y326102D01*
X298478Y326193D01*
X298411Y326303D01*
X298302Y326482D01*
X298082Y326739D01*
X297738Y327083D01*
X298120Y328007D01*
X299168D01*
Y340256D01*
X295987D01*
Y344640D01*
X295961Y344978D01*
X295882Y345307D01*
X295752Y345619D01*
X295575Y345908D01*
X295356Y346165D01*
X293764Y347756D01*
X293507Y347976D01*
X293218Y348153D01*
X292906Y348283D01*
X292577Y348361D01*
X292528Y348365D01*
Y349600D01*
X286185D01*
Y349600D01*
D02*
G37*
%LPD*%
G36*
X291674Y340256D02*
X288494D01*
Y328007D01*
X291674D01*
Y327940D01*
X291701Y327603D01*
X291780Y327274D01*
X291909Y326961D01*
X292086Y326673D01*
X292306Y326415D01*
X293385Y325336D01*
Y324394D01*
X291635D01*
Y323578D01*
X291610Y323556D01*
X291391Y323299D01*
X291214Y323011D01*
X291084Y322698D01*
X291005Y322369D01*
X290979Y322031D01*
Y320406D01*
X290465Y319892D01*
X289335D01*
X288998Y319865D01*
X288669Y319787D01*
X288356Y319657D01*
X288068Y319480D01*
X287810Y319260D01*
X286785Y318235D01*
D01*
X286785Y318235D01*
Y318235D01*
X286586Y318235D01*
X285560Y319260D01*
X285303Y319480D01*
X285015Y319657D01*
X284702Y319787D01*
X284373Y319865D01*
X284035Y319892D01*
X280285D01*
Y324394D01*
X278535D01*
Y325385D01*
X279608Y326458D01*
X279827Y326715D01*
X280004Y327004D01*
X280134Y327316D01*
X280213Y327645D01*
X280239Y327983D01*
Y328007D01*
X283420D01*
Y340256D01*
X280239D01*
Y342863D01*
X285835D01*
Y342863D01*
X285835D01*
X285835Y342863D01*
X286185D01*
Y342863D01*
X291674D01*
Y340256D01*
D02*
G37*
G36*
X324758Y319471D02*
Y313716D01*
X324636Y313604D01*
X323654Y313604D01*
Y313604D01*
X318710D01*
Y313787D01*
X318710D01*
Y318512D01*
D01*
Y318512D01*
X318880Y318681D01*
X323654D01*
Y319988D01*
X323960Y320074D01*
X324758Y319471D01*
D02*
G37*
D10*
X-29869Y288695D02*
G03*
X-31837Y286727I0J-1969D01*
G01*
X-31837D02*
G03*
X-29869Y284758I1969J0D01*
G01*
X-24947Y279837D02*
G03*
X-29869Y284758I-4921J0D01*
G01*
X-24947Y279837D02*
G03*
X-22979Y277869I1969J0D01*
G01*
Y277869D02*
G03*
X-21010Y279837I0J1969D01*
G01*
D02*
G03*
X-29869Y288695I-8858J0D01*
G01*
D11*
X220472Y177165D02*
G03*
X216535Y173228I0J-3937D01*
G01*
X220472Y181102D02*
G03*
X212598Y173228I0J-7874D01*
G01*
X226378Y179134D02*
G03*
X224409Y181102I-1969J0D01*
G01*
X224410Y177165D02*
G03*
X226378Y179134I0J1969D01*
G01*
X214567Y167323D02*
G03*
X216535Y169291I0J1969D01*
G01*
X212598Y169291D02*
G03*
X214567Y167323I1969J0D01*
G01*
X354331Y173228D02*
G03*
X350394Y177165I-3937J0D01*
G01*
X358268Y173228D02*
G03*
X350394Y181102I-7874J0D01*
G01*
X356299Y167323D02*
G03*
X358268Y169291I0J1969D01*
G01*
X354331Y169291D02*
G03*
X356299Y167323I1969J0D01*
G01*
X344488Y179134D02*
G03*
X346457Y177165I1969J0D01*
G01*
X346457Y181102D02*
G03*
X344488Y179134I0J-1969D01*
G01*
X350394Y39370D02*
G03*
X354331Y43307I0J3937D01*
G01*
X350394Y35433D02*
G03*
X358268Y43307I0J7874D01*
G01*
X344488Y37402D02*
G03*
X346457Y35433I1969J0D01*
G01*
X346457Y39370D02*
G03*
X344488Y37402I0J-1969D01*
G01*
X356299Y49213D02*
G03*
X354331Y47244I0J-1969D01*
G01*
X358268Y47244D02*
G03*
X356299Y49213I-1969J0D01*
G01*
X216535Y43307D02*
G03*
X220472Y39370I3937J0D01*
G01*
X212598Y43307D02*
G03*
X220472Y35433I7874J0D01*
G01*
X214567Y49213D02*
G03*
X212598Y47244I0J-1969D01*
G01*
X216535Y47244D02*
G03*
X214567Y49213I-1969J0D01*
G01*
X226378Y37402D02*
G03*
X224410Y39370I-1969J0D01*
G01*
X224410Y35433D02*
G03*
X226378Y37402I0J1969D01*
G01*
X43307Y177165D02*
G03*
X39370Y173228I0J-3937D01*
G01*
X43307Y181102D02*
G03*
X35433Y173228I0J-7874D01*
G01*
X49213Y179134D02*
G03*
X47244Y181102I-1969J0D01*
G01*
X47244Y177165D02*
G03*
X49213Y179134I0J1969D01*
G01*
X37402Y167323D02*
G03*
X39370Y169291I0J1969D01*
G01*
X35433Y169291D02*
G03*
X37402Y167323I1969J0D01*
G01*
X177165Y173228D02*
G03*
X173228Y177165I-3937J0D01*
G01*
X181102Y173228D02*
G03*
X173228Y181102I-7874J0D01*
G01*
X179134Y167323D02*
G03*
X181102Y169291I0J1969D01*
G01*
X177165Y169291D02*
G03*
X179134Y167323I1969J0D01*
G01*
X167323Y179134D02*
G03*
X169291Y177165I1969J0D01*
G01*
X169291Y181102D02*
G03*
X167323Y179134I0J-1969D01*
G01*
X173228Y39370D02*
G03*
X177165Y43307I0J3937D01*
G01*
X173228Y35433D02*
G03*
X181102Y43307I0J7874D01*
G01*
X167323Y37402D02*
G03*
X169291Y35433I1969J0D01*
G01*
X169291Y39370D02*
G03*
X167323Y37402I0J-1969D01*
G01*
X179134Y49213D02*
G03*
X177165Y47244I0J-1969D01*
G01*
X181102Y47244D02*
G03*
X179134Y49213I-1969J0D01*
G01*
X39370Y43307D02*
G03*
X43307Y39370I3937J0D01*
G01*
X35433Y43307D02*
G03*
X43307Y35433I7874J0D01*
G01*
X37402Y49213D02*
G03*
X35433Y47244I0J-1969D01*
G01*
X39370Y47244D02*
G03*
X37402Y49213I-1969J0D01*
G01*
X49213Y37402D02*
G03*
X47244Y39370I-1969J0D01*
G01*
X47244Y35433D02*
G03*
X49213Y37402I0J1969D01*
G01*
X220472Y354331D02*
G03*
X216535Y350394I0J-3937D01*
G01*
X220472Y358268D02*
G03*
X212598Y350394I0J-7874D01*
G01*
X226378Y356299D02*
G03*
X224409Y358268I-1969J0D01*
G01*
X224410Y354331D02*
G03*
X226378Y356299I0J1969D01*
G01*
X214567Y344488D02*
G03*
X216535Y346457I0J1969D01*
G01*
X212598Y346457D02*
G03*
X214567Y344488I1969J0D01*
G01*
X354331Y350394D02*
G03*
X350394Y354331I-3937J0D01*
G01*
X358268Y350394D02*
G03*
X350394Y358268I-7874J0D01*
G01*
X356299Y344488D02*
G03*
X358268Y346457I0J1969D01*
G01*
X354331Y346457D02*
G03*
X356299Y344488I1969J0D01*
G01*
X344488Y356299D02*
G03*
X346457Y354331I1969J0D01*
G01*
X346457Y358268D02*
G03*
X344488Y356299I0J-1969D01*
G01*
X350394Y216535D02*
G03*
X354331Y220472I0J3937D01*
G01*
X350394Y212598D02*
G03*
X358268Y220472I0J7874D01*
G01*
X344488Y214567D02*
G03*
X346457Y212598I1969J0D01*
G01*
X346457Y216535D02*
G03*
X344488Y214567I0J-1969D01*
G01*
X356299Y226378D02*
G03*
X354331Y224410I0J-1969D01*
G01*
X358268Y224410D02*
G03*
X356299Y226378I-1969J0D01*
G01*
X216535Y220472D02*
G03*
X220472Y216535I3937J0D01*
G01*
X212598Y220472D02*
G03*
X220472Y212598I7874J0D01*
G01*
X214567Y226378D02*
G03*
X212598Y224409I0J-1969D01*
G01*
X216535Y224410D02*
G03*
X214567Y226378I-1969J0D01*
G01*
X226378Y214567D02*
G03*
X224410Y216535I-1969J0D01*
G01*
X224410Y212598D02*
G03*
X226378Y214567I0J1969D01*
G01*
X47244Y212598D02*
G03*
X49213Y214567I0J1969D01*
G01*
D02*
G03*
X47244Y216535I-1969J0D01*
G01*
X39370Y224410D02*
G03*
X37402Y226378I-1969J0D01*
G01*
D02*
G03*
X35433Y224409I0J-1969D01*
G01*
Y220472D02*
G03*
X43307Y212598I7874J0D01*
G01*
X39370Y220472D02*
G03*
X43307Y216535I3937J0D01*
G01*
X181102Y224410D02*
G03*
X179134Y226378I-1969J0D01*
G01*
D02*
G03*
X177165Y224410I0J-1969D01*
G01*
X169291Y216535D02*
G03*
X167323Y214567I0J-1969D01*
G01*
D02*
G03*
X169291Y212598I1969J0D01*
G01*
X173228D02*
G03*
X181102Y220472I0J7874D01*
G01*
X173228Y216535D02*
G03*
X177165Y220472I0J3937D01*
G01*
X169291Y358268D02*
G03*
X167323Y356299I0J-1969D01*
G01*
D02*
G03*
X169291Y354331I1969J0D01*
G01*
X177165Y346457D02*
G03*
X179134Y344488I1969J0D01*
G01*
D02*
G03*
X181102Y346457I0J1969D01*
G01*
Y350394D02*
G03*
X173228Y358268I-7874J0D01*
G01*
X177165Y350394D02*
G03*
X173228Y354331I-3937J0D01*
G01*
X35433Y346457D02*
G03*
X37402Y344488I1969J0D01*
G01*
D02*
G03*
X39370Y346457I0J1969D01*
G01*
X47244Y354331D02*
G03*
X49213Y356299I0J1969D01*
G01*
D02*
G03*
X47244Y358268I-1969J0D01*
G01*
X43307D02*
G03*
X35433Y350394I0J-7874D01*
G01*
X43307Y354331D02*
G03*
X39370Y350394I0J-3937D01*
G01*
X5247028Y5558168D02*
G03*
X5247145Y5558052I5764850J5764733D01*
G01*
X-25543Y293327D02*
X-22043Y296827D01*
X-29043D02*
X-25543Y293327D01*
Y301327D01*
X443913Y354315D02*
X451913D01*
X443913D02*
X447413Y357815D01*
X443913Y354315D02*
X447413Y350815D01*
X443913Y216520D02*
X447413Y213020D01*
X443913Y216520D02*
X447413Y220020D01*
X443913Y216520D02*
X451913D01*
X443913Y177150D02*
X447413Y173650D01*
X443913Y177150D02*
X447413Y180650D01*
X443913Y177150D02*
X451913D01*
X443913Y39354D02*
X447413Y35854D01*
X443913Y39354D02*
X447413Y42854D01*
X443913Y39354D02*
X451913D01*
X39386Y443913D02*
X42886Y447413D01*
X35886D02*
X39386Y443913D01*
Y451913D01*
X177181Y443913D02*
X180681Y447413D01*
X173681D02*
X177181Y443913D01*
Y451913D01*
X216551Y443913D02*
X220051Y447413D01*
X213051D02*
X216551Y443913D01*
Y451913D01*
X354346Y443913D02*
X357846Y447413D01*
X350847D02*
X354346Y443913D01*
Y451913D01*
X39370Y-48228D02*
Y441929D01*
X354331Y-48228D02*
Y441929D01*
X216535Y-48228D02*
Y441929D01*
X177165Y-48228D02*
Y441929D01*
X-48228Y39370D02*
X441929D01*
X-48228Y177165D02*
X441929D01*
X-48228Y216535D02*
X441929D01*
X220472Y181102D02*
X224409D01*
X220472Y177165D02*
X224410D01*
X216535Y169291D02*
Y173228D01*
X212598Y169291D02*
Y173228D01*
X358268Y169291D02*
Y173228D01*
X354331Y169291D02*
Y173228D01*
X346457Y177165D02*
X350394D01*
X346457Y181102D02*
X350394D01*
X346457Y35433D02*
X350394D01*
X346457Y39370D02*
X350394D01*
X354331Y43307D02*
Y47244D01*
X358268Y43307D02*
Y47244D01*
X212598Y43307D02*
Y47244D01*
X216535Y43307D02*
Y47244D01*
X220472Y39370D02*
X224410D01*
X220472Y35433D02*
X224410D01*
X43307Y181102D02*
X47244D01*
X43307Y177165D02*
X47244D01*
X39370Y169291D02*
Y173228D01*
X35433Y169291D02*
Y173228D01*
X181102Y169291D02*
Y173228D01*
X177165Y169291D02*
Y173228D01*
X169291Y177165D02*
X173228D01*
X169291Y181102D02*
X173228D01*
X169291Y35433D02*
X173228D01*
X169291Y39370D02*
X173228D01*
X177165Y43307D02*
Y47244D01*
X181102Y43307D02*
Y47244D01*
X35433Y43307D02*
Y47244D01*
X39370Y43307D02*
Y47244D01*
X43307Y39370D02*
X47244D01*
X43307Y35433D02*
X47244D01*
X220472Y358268D02*
X224409D01*
X220472Y354331D02*
X224410D01*
X216535Y346457D02*
Y350394D01*
X212598Y346457D02*
Y350394D01*
X358268Y346457D02*
Y350394D01*
X354331Y346457D02*
Y350394D01*
X346457Y354331D02*
X350394D01*
X346457Y358268D02*
X350394D01*
X346457Y212598D02*
X350394D01*
X346457Y216535D02*
X350394D01*
X354331Y220472D02*
Y224410D01*
X358268Y220472D02*
Y224410D01*
X212598Y220472D02*
Y224409D01*
X216535Y220472D02*
Y224410D01*
X220472Y216535D02*
X224410D01*
X220472Y212598D02*
X224410D01*
X43307D02*
X47244D01*
X43307Y216535D02*
X47244D01*
X39370Y220472D02*
Y224410D01*
X35433Y220472D02*
Y224409D01*
X181102Y220472D02*
Y224410D01*
X177165Y220472D02*
Y224410D01*
X169291Y216535D02*
X173228D01*
X169291Y212598D02*
X173228D01*
X169291Y358268D02*
X173228D01*
X169291Y354331D02*
X173228D01*
X177165Y346457D02*
Y350394D01*
X181102Y346457D02*
Y350394D01*
X35433Y346457D02*
Y350394D01*
X39370Y346457D02*
Y350394D01*
X43307Y354331D02*
X47244D01*
X43307Y358268D02*
X47244D01*
X-48228Y354331D02*
X441929D01*
X0Y393701D02*
X393701D01*
Y374016D02*
Y393701D01*
Y0D02*
Y374016D01*
X0Y0D02*
Y393701D01*
Y0D02*
X393701D01*
X-89567Y306102D02*
X-87568D01*
X-88567D01*
Y312100D01*
X-89567Y311101D01*
X-84569Y306102D02*
Y307102D01*
X-83569D01*
Y306102D01*
X-84569D01*
X-79570Y311101D02*
X-78570Y312100D01*
X-76571D01*
X-75572Y311101D01*
Y307102D01*
X-76571Y306102D01*
X-78570D01*
X-79570Y307102D01*
Y311101D01*
X-73572Y306102D02*
Y310101D01*
X-72572D01*
X-71573Y309101D01*
Y306102D01*
Y309101D01*
X-70573Y310101D01*
X-69573Y309101D01*
Y306102D01*
X-67574D02*
Y310101D01*
X-66574D01*
X-65575Y309101D01*
Y306102D01*
Y309101D01*
X-64575Y310101D01*
X-63575Y309101D01*
Y306102D01*
X-55578Y312100D02*
Y306102D01*
X-52579D01*
X-51579Y307102D01*
Y311101D01*
X-52579Y312100D01*
X-55578D01*
X-49580Y310101D02*
Y306102D01*
Y308102D01*
X-48580Y309101D01*
X-47581Y310101D01*
X-46581D01*
X-43582Y306102D02*
X-41583D01*
X-42582D01*
Y310101D01*
X-43582D01*
X-38583Y306102D02*
X-36584D01*
X-37584D01*
Y312100D01*
X-38583D01*
X-33585Y306102D02*
X-31586D01*
X-32585D01*
Y312100D01*
X-33585D01*
X-18590Y311101D02*
X-19590Y312100D01*
X-21589D01*
X-22589Y311101D01*
Y307102D01*
X-21589Y306102D01*
X-19590D01*
X-18590Y307102D01*
X-16590Y310101D02*
Y307102D01*
X-15591Y306102D01*
X-12592D01*
Y310101D01*
X-9593Y311101D02*
Y310101D01*
X-10593D01*
X-8593D01*
X-9593D01*
Y307102D01*
X-8593Y306102D01*
X455709Y357376D02*
Y353377D01*
X457708Y351378D01*
X459707Y353377D01*
Y357376D01*
X461707Y354377D02*
X465705D01*
X471703Y356376D02*
X470704Y357376D01*
X468705D01*
X467705Y356376D01*
Y352378D01*
X468705Y351378D01*
X470704D01*
X471703Y352378D01*
X473703Y355377D02*
Y352378D01*
X474703Y351378D01*
X477702D01*
Y355377D01*
X480701Y356376D02*
Y355377D01*
X479701D01*
X481700D01*
X480701D01*
Y352378D01*
X481700Y351378D01*
X455709Y219581D02*
Y215582D01*
X457708Y213583D01*
X459707Y215582D01*
Y219581D01*
X461707Y216582D02*
X465705D01*
X471703Y218581D02*
X470704Y219581D01*
X468704D01*
X467705Y218581D01*
Y214582D01*
X468704Y213583D01*
X470704D01*
X471703Y214582D01*
X473703Y217581D02*
Y214582D01*
X474703Y213583D01*
X477702D01*
Y217581D01*
X480701Y218581D02*
Y217581D01*
X479701D01*
X481700D01*
X480701D01*
Y214582D01*
X481700Y213583D01*
X455709Y180211D02*
Y176212D01*
X457708Y174213D01*
X459707Y176212D01*
Y180211D01*
X461707Y177212D02*
X465705D01*
X471703Y179211D02*
X470704Y180211D01*
X468704D01*
X467705Y179211D01*
Y175212D01*
X468704Y174213D01*
X470704D01*
X471703Y175212D01*
X473703Y178211D02*
Y175212D01*
X474703Y174213D01*
X477702D01*
Y178211D01*
X480701Y179211D02*
Y178211D01*
X479701D01*
X481700D01*
X480701D01*
Y175212D01*
X481700Y174213D01*
X455709Y42415D02*
Y38417D01*
X457708Y36417D01*
X459707Y38417D01*
Y42415D01*
X461707Y39416D02*
X465705D01*
X471703Y41416D02*
X470704Y42415D01*
X468704D01*
X467705Y41416D01*
Y37417D01*
X468704Y36417D01*
X470704D01*
X471703Y37417D01*
X473703Y40416D02*
Y37417D01*
X474703Y36417D01*
X477702D01*
Y40416D01*
X480701Y41416D02*
Y40416D01*
X479701D01*
X481700D01*
X480701D01*
Y37417D01*
X481700Y36417D01*
X36325Y455709D02*
X40323D01*
X42323Y457708D01*
X40323Y459707D01*
X36325D01*
X39324Y461707D02*
Y465705D01*
X37325Y471703D02*
X36325Y470704D01*
Y468704D01*
X37325Y467705D01*
X41323D01*
X42323Y468704D01*
Y470704D01*
X41323Y471703D01*
X38324Y473703D02*
X41323D01*
X42323Y474703D01*
Y477702D01*
X38324D01*
X37325Y480701D02*
X38324D01*
Y479701D01*
Y481700D01*
Y480701D01*
X41323D01*
X42323Y481700D01*
X174120Y455709D02*
X178119D01*
X180118Y457708D01*
X178119Y459707D01*
X174120D01*
X177119Y461707D02*
Y465705D01*
X175120Y471703D02*
X174120Y470704D01*
Y468704D01*
X175120Y467705D01*
X179118D01*
X180118Y468704D01*
Y470704D01*
X179118Y471703D01*
X176119Y473703D02*
X179118D01*
X180118Y474703D01*
Y477702D01*
X176119D01*
X175120Y480701D02*
X176119D01*
Y479701D01*
Y481700D01*
Y480701D01*
X179118D01*
X180118Y481700D01*
X213490Y455709D02*
X217489D01*
X219488Y457708D01*
X217489Y459707D01*
X213490D01*
X216489Y461707D02*
Y465705D01*
X214490Y471703D02*
X213490Y470704D01*
Y468704D01*
X214490Y467705D01*
X218489D01*
X219488Y468704D01*
Y470704D01*
X218489Y471703D01*
X215490Y473703D02*
X218489D01*
X219488Y474703D01*
Y477702D01*
X215490D01*
X214490Y480701D02*
X215490D01*
Y479701D01*
Y481700D01*
Y480701D01*
X218489D01*
X219488Y481700D01*
X351285Y455709D02*
X355284D01*
X357283Y457708D01*
X355284Y459707D01*
X351285D01*
X354284Y461707D02*
Y465705D01*
X352285Y471703D02*
X351285Y470704D01*
Y468704D01*
X352285Y467705D01*
X356284D01*
X357283Y468704D01*
Y470704D01*
X356284Y471703D01*
X353285Y473703D02*
X356284D01*
X357283Y474703D01*
Y477702D01*
X353285D01*
X352285Y480701D02*
X353285D01*
Y479701D01*
Y481700D01*
Y480701D01*
X356284D01*
X357283Y481700D01*
D12*
X111145Y102943D02*
Y107345D01*
X107995Y92870D02*
Y102943D01*
X143316Y138984D02*
X146817D01*
X121009Y117509D02*
X125712D01*
X120970Y117470D02*
X121009Y117509D01*
X120870Y130470D02*
X121086Y130686D01*
Y135226D01*
X143316Y109484D02*
X146916D01*
X143316Y115384D02*
X146916D01*
X143316Y133070D02*
X146770D01*
X124409Y76377D02*
X125056Y77024D01*
X118970Y140270D02*
X122770D01*
X126770Y136270D01*
X130170D01*
X133370Y133070D01*
X136624D01*
X131370Y161870D02*
X136624D01*
X131384Y156584D02*
X136624D01*
X149770Y122070D02*
Y123370D01*
X148970Y121270D02*
X149770Y122070D01*
X143331Y121270D02*
X148970D01*
X143316Y121284D02*
X143331Y121270D01*
X143316Y127184D02*
X146884D01*
X149749Y130049D01*
Y144702D01*
X98054Y131386D02*
Y135226D01*
Y131386D02*
X98844Y130596D01*
X101696D01*
Y135226D01*
X115970Y144866D02*
X118489D01*
X115970Y142347D02*
Y144866D01*
X114193Y140570D02*
X115970Y142347D01*
X112170Y140570D02*
X114193D01*
X118489Y144866D02*
X119391Y145768D01*
Y148049D01*
X117444Y138744D02*
X118970Y140270D01*
X117444Y135226D02*
Y138744D01*
X106870Y140570D02*
X107995Y139445D01*
X99870Y140570D02*
X106870D01*
X98198Y142242D02*
X99870Y140570D01*
X107995Y135226D02*
Y139445D01*
X98198Y142242D02*
Y144866D01*
X111145Y135226D02*
Y139545D01*
X112170Y140570D01*
X98198Y144866D02*
Y148098D01*
X100917Y150817D01*
Y156966D01*
X116665Y150775D02*
X119391Y148049D01*
X116665Y150775D02*
Y156966D01*
X102666Y169066D02*
X105498D01*
X100917Y167317D02*
X102666Y169066D01*
X100917Y156966D02*
Y167317D01*
X116665Y156966D02*
Y167475D01*
X115074Y169066D02*
X116665Y167475D01*
X112191Y169066D02*
X115074D01*
X134084Y121284D02*
X136624D01*
X125852Y111070D02*
X130870D01*
X125712Y114360D02*
X129160D01*
X132684Y127184D02*
X136624D01*
Y115384D02*
Y121284D01*
X130870Y111070D02*
X132670Y112870D01*
Y119870D01*
X134084Y121284D01*
X129160Y114360D02*
X130370Y115570D01*
Y124870D01*
X132684Y127184D01*
X104846Y95713D02*
Y102943D01*
X114295Y95713D02*
Y102943D01*
X121086Y95615D02*
Y102943D01*
X101696Y99596D02*
Y102943D01*
X97324Y94884D02*
Y98024D01*
X98170Y98870D01*
X100970D01*
X101696Y99596D01*
X90572Y107569D02*
X93428D01*
X89609Y108531D02*
X90572Y107569D01*
X85270Y108531D02*
X89609D01*
X85270Y101838D02*
X89538D01*
X90642Y102943D01*
X98054D01*
X90830Y111210D02*
X93428D01*
X85270Y121831D02*
X88410D01*
X89270Y112770D02*
X90830Y111210D01*
X89270Y112770D02*
Y120970D01*
X88410Y121831D02*
X89270Y120970D01*
X288310Y102943D02*
Y107345D01*
X285161Y92870D02*
Y102943D01*
X320482Y138984D02*
X323982D01*
X298175Y117509D02*
X302877D01*
X298135Y117470D02*
X298175Y117509D01*
X298035Y130470D02*
X298251Y130686D01*
Y135226D01*
X320482Y109484D02*
X324082D01*
X320482Y115384D02*
X324082D01*
X320482Y133070D02*
X323935D01*
X301575Y76377D02*
X302221Y77024D01*
X296135Y140270D02*
X299935D01*
X303935Y136270D01*
X307335D01*
X310535Y133070D01*
X313789D01*
X308535Y161870D02*
X313789D01*
X308550Y156584D02*
X313789D01*
X326935Y122070D02*
Y123370D01*
X326135Y121270D02*
X326935Y122070D01*
X320496Y121270D02*
X326135D01*
X320482Y121284D02*
X320496Y121270D01*
X320482Y127184D02*
X324050D01*
X326914Y130049D01*
Y144702D01*
X275220Y131386D02*
Y135226D01*
Y131386D02*
X276009Y130596D01*
X278861D01*
Y135226D01*
X293135Y144866D02*
X295655D01*
X293135Y142347D02*
Y144866D01*
X291358Y140570D02*
X293135Y142347D01*
X289335Y140570D02*
X291358D01*
X295655Y144866D02*
X296557Y145768D01*
Y148049D01*
X294609Y138744D02*
X296135Y140270D01*
X294609Y135226D02*
Y138744D01*
X284035Y140570D02*
X285161Y139445D01*
X277035Y140570D02*
X284035D01*
X275364Y142242D02*
X277035Y140570D01*
X285161Y135226D02*
Y139445D01*
X275364Y142242D02*
Y144866D01*
X288310Y135226D02*
Y139545D01*
X289335Y140570D01*
X275364Y144866D02*
Y148098D01*
X278083Y150817D01*
Y156966D01*
X293831Y150775D02*
X296557Y148049D01*
X293831Y150775D02*
Y156966D01*
X279831Y169066D02*
X282664D01*
X278083Y167317D02*
X279831Y169066D01*
X278083Y156966D02*
Y167317D01*
X293831Y156966D02*
Y167475D01*
X292239Y169066D02*
X293831Y167475D01*
X289357Y169066D02*
X292239D01*
X311250Y121284D02*
X313789D01*
X303017Y111070D02*
X308035D01*
X302877Y114360D02*
X306325D01*
X309850Y127184D02*
X313789D01*
Y115384D02*
Y121284D01*
X308035Y111070D02*
X309835Y112870D01*
Y119870D01*
X311250Y121284D01*
X306325Y114360D02*
X307535Y115570D01*
Y124870D01*
X309850Y127184D01*
X282011Y95713D02*
Y102943D01*
X291460Y95713D02*
Y102943D01*
X298251Y95615D02*
Y102943D01*
X278861Y99596D02*
Y102943D01*
X274489Y94884D02*
Y98024D01*
X275335Y98870D01*
X278135D01*
X278861Y99596D01*
X267737Y107569D02*
X270594D01*
X266775Y108531D02*
X267737Y107569D01*
X262435Y108531D02*
X266775D01*
X262435Y101838D02*
X266703D01*
X267808Y102943D01*
X275220D01*
X267995Y111210D02*
X270594D01*
X262435Y121831D02*
X265575D01*
X266435Y112770D02*
X267995Y111210D01*
X266435Y112770D02*
Y120970D01*
X265575Y121831D02*
X266435Y120970D01*
X111145Y280108D02*
Y284510D01*
X107995Y270035D02*
Y280108D01*
X143316Y316150D02*
X146817D01*
X121009Y294675D02*
X125712D01*
X120970Y294635D02*
X121009Y294675D01*
X120870Y307635D02*
X121086Y307851D01*
Y312391D01*
X143316Y286650D02*
X146916D01*
X143316Y292550D02*
X146916D01*
X143316Y310235D02*
X146770D01*
X124409Y253542D02*
X125056Y254189D01*
X118970Y317435D02*
X122770D01*
X126770Y313435D01*
X130170D01*
X133370Y310235D01*
X136624D01*
X131370Y339035D02*
X136624D01*
X131384Y333750D02*
X136624D01*
X149770Y299235D02*
Y300535D01*
X148970Y298435D02*
X149770Y299235D01*
X143331Y298435D02*
X148970D01*
X143316Y298450D02*
X143331Y298435D01*
X143316Y304350D02*
X146884D01*
X149749Y307214D01*
Y321868D01*
X98054Y308551D02*
Y312391D01*
Y308551D02*
X98844Y307761D01*
X101696D01*
Y312391D01*
X115970Y322031D02*
X118489D01*
X115970Y319512D02*
Y322031D01*
X114193Y317735D02*
X115970Y319512D01*
X112170Y317735D02*
X114193D01*
X118489Y322031D02*
X119391Y322934D01*
Y325214D01*
X117444Y315910D02*
X118970Y317435D01*
X117444Y312391D02*
Y315910D01*
X106870Y317735D02*
X107995Y316610D01*
X99870Y317735D02*
X106870D01*
X98198Y319407D02*
X99870Y317735D01*
X107995Y312391D02*
Y316610D01*
X98198Y319407D02*
Y322031D01*
X111145Y312391D02*
Y316710D01*
X112170Y317735D01*
X98198Y322031D02*
Y325264D01*
X100917Y327983D01*
Y334131D01*
X116665Y327940D02*
X119391Y325214D01*
X116665Y327940D02*
Y334131D01*
X102666Y346231D02*
X105498D01*
X100917Y344483D02*
X102666Y346231D01*
X100917Y334131D02*
Y344483D01*
X116665Y334131D02*
Y344640D01*
X115074Y346231D02*
X116665Y344640D01*
X112191Y346231D02*
X115074D01*
X134084Y298450D02*
X136624D01*
X125852Y288235D02*
X130870D01*
X125712Y291525D02*
X129160D01*
X132684Y304350D02*
X136624D01*
Y292550D02*
Y298450D01*
X130870Y288235D02*
X132670Y290035D01*
Y297035D01*
X134084Y298450D01*
X129160Y291525D02*
X130370Y292735D01*
Y302035D01*
X132684Y304350D01*
X104846Y272879D02*
Y280108D01*
X114295Y272879D02*
Y280108D01*
X121086Y272780D02*
Y280108D01*
X101696Y276761D02*
Y280108D01*
X97324Y272050D02*
Y275189D01*
X98170Y276035D01*
X100970D01*
X101696Y276761D01*
X90572Y284734D02*
X93428D01*
X89609Y285696D02*
X90572Y284734D01*
X85270Y285696D02*
X89609D01*
X85270Y279003D02*
X89538D01*
X90642Y280108D01*
X98054D01*
X90830Y288376D02*
X93428D01*
X85270Y298996D02*
X88410D01*
X89270Y289935D02*
X90830Y288376D01*
X89270Y289935D02*
Y298135D01*
X88410Y298996D02*
X89270Y298135D01*
X288310Y280108D02*
Y284510D01*
X285161Y270035D02*
Y280108D01*
X320482Y316150D02*
X323982D01*
X298175Y294675D02*
X302877D01*
X298135Y294635D02*
X298175Y294675D01*
X298035Y307635D02*
X298251Y307851D01*
Y312391D01*
X320482Y286650D02*
X324082D01*
X320482Y292550D02*
X324082D01*
X320482Y310235D02*
X323935D01*
X301575Y253542D02*
X302221Y254189D01*
X296135Y317435D02*
X299935D01*
X303935Y313435D01*
X307335D01*
X310535Y310235D01*
X313789D01*
X308535Y339035D02*
X313789D01*
X308550Y333750D02*
X313789D01*
X326935Y299235D02*
Y300535D01*
X326135Y298435D02*
X326935Y299235D01*
X320496Y298435D02*
X326135D01*
X320482Y298450D02*
X320496Y298435D01*
X320482Y304350D02*
X324050D01*
X326914Y307214D01*
Y321868D01*
X275220Y308551D02*
Y312391D01*
Y308551D02*
X276009Y307761D01*
X278861D01*
Y312391D01*
X293135Y322031D02*
X295655D01*
X293135Y319512D02*
Y322031D01*
X291358Y317735D02*
X293135Y319512D01*
X289335Y317735D02*
X291358D01*
X295655Y322031D02*
X296557Y322934D01*
Y325214D01*
X294609Y315910D02*
X296135Y317435D01*
X294609Y312391D02*
Y315910D01*
X284035Y317735D02*
X285161Y316610D01*
X277035Y317735D02*
X284035D01*
X275364Y319407D02*
X277035Y317735D01*
X285161Y312391D02*
Y316610D01*
X275364Y319407D02*
Y322031D01*
X288310Y312391D02*
Y316710D01*
X289335Y317735D01*
X275364Y322031D02*
Y325264D01*
X278083Y327983D01*
Y334131D01*
X293831Y327940D02*
X296557Y325214D01*
X293831Y327940D02*
Y334131D01*
X279831Y346231D02*
X282664D01*
X278083Y344483D02*
X279831Y346231D01*
X278083Y334131D02*
Y344483D01*
X293831Y334131D02*
Y344640D01*
X292239Y346231D02*
X293831Y344640D01*
X289357Y346231D02*
X292239D01*
X311250Y298450D02*
X313789D01*
X303017Y288235D02*
X308035D01*
X302877Y291525D02*
X306325D01*
X309850Y304350D02*
X313789D01*
Y292550D02*
Y298450D01*
X308035Y288235D02*
X309835Y290035D01*
Y297035D01*
X311250Y298450D01*
X306325Y291525D02*
X307535Y292735D01*
Y302035D01*
X309850Y304350D01*
X282011Y272879D02*
Y280108D01*
X291460Y272879D02*
Y280108D01*
X298251Y272780D02*
Y280108D01*
X278861Y276761D02*
Y280108D01*
X274489Y272050D02*
Y275189D01*
X275335Y276035D01*
X278135D01*
X278861Y276761D01*
X267737Y284734D02*
X270594D01*
X266775Y285696D02*
X267737Y284734D01*
X262435Y285696D02*
X266775D01*
X262435Y279003D02*
X266703D01*
X267808Y280108D01*
X275220D01*
X267995Y288376D02*
X270594D01*
X262435Y298996D02*
X265575D01*
X266435Y289935D02*
X267995Y288376D01*
X266435Y289935D02*
Y298135D01*
X265575Y298996D02*
X266435Y298135D01*
D15*
X95270Y58570D02*
X104870D01*
X90655Y63185D02*
X95270Y58570D01*
X90655Y63185D02*
Y69655D01*
X143316Y156584D02*
Y161870D01*
X108770Y144866D02*
X112698D01*
X104891D02*
X108770D01*
X109370Y76656D02*
Y93770D01*
Y76656D02*
X117356Y68670D01*
X108550Y54891D02*
X117356D01*
X104870Y58570D02*
X108550Y54891D01*
X143316Y150784D02*
X148156D01*
X143316Y144884D02*
Y150784D01*
X125712Y107569D02*
X130612D01*
X132724Y144884D02*
X136624D01*
Y138984D02*
Y144884D01*
X85270Y108531D02*
Y115138D01*
X143856Y77024D02*
X144502Y76377D01*
Y68670D02*
Y76377D01*
X124409Y68670D02*
Y76377D01*
X144502Y68670D02*
X151556D01*
X151535Y54870D02*
X151556Y54891D01*
X144502Y54870D02*
X151535D01*
X124389Y54891D02*
X124409Y54870D01*
X117356Y54891D02*
X124389D01*
X117356Y68670D02*
X124409D01*
X125056Y83716D02*
X130956D01*
X137956D01*
X143856D01*
X131102Y54870D02*
X137810D01*
X137956Y68817D02*
Y77024D01*
X130956Y68817D02*
Y77024D01*
X272435Y58570D02*
X282035D01*
X267821Y63185D02*
X272435Y58570D01*
X267821Y63185D02*
Y69655D01*
X320482Y156584D02*
Y161870D01*
X285935Y144866D02*
X289864D01*
X282057D02*
X285935D01*
X286535Y76656D02*
Y93770D01*
Y76656D02*
X294521Y68670D01*
X285715Y54891D02*
X294521D01*
X282035Y58570D02*
X285715Y54891D01*
X320482Y150784D02*
X325321D01*
X320482Y144884D02*
Y150784D01*
X302877Y107569D02*
X307777D01*
X309889Y144884D02*
X313789D01*
Y138984D02*
Y144884D01*
X262435Y108531D02*
Y115138D01*
X321021Y77024D02*
X321668Y76377D01*
Y68670D02*
Y76377D01*
X301575Y68670D02*
Y76377D01*
X321668Y68670D02*
X328721D01*
X328701Y54870D02*
X328721Y54891D01*
X321668Y54870D02*
X328701D01*
X301554Y54891D02*
X301575Y54870D01*
X294521Y54891D02*
X301554D01*
X294521Y68670D02*
X301575D01*
X302221Y83716D02*
X308121D01*
X315121D01*
X321021D01*
X308268Y54870D02*
X314975D01*
X315121Y68817D02*
Y77024D01*
X308121Y68817D02*
Y77024D01*
X95270Y235735D02*
X104870D01*
X90655Y240350D02*
X95270Y235735D01*
X90655Y240350D02*
Y246820D01*
X143316Y333750D02*
Y339035D01*
X108770Y322031D02*
X112698D01*
X104891D02*
X108770D01*
X109370Y253821D02*
Y270935D01*
Y253821D02*
X117356Y245835D01*
X108550Y232056D02*
X117356D01*
X104870Y235735D02*
X108550Y232056D01*
X143316Y327950D02*
X148156D01*
X143316Y322050D02*
Y327950D01*
X125712Y284734D02*
X130612D01*
X132724Y322050D02*
X136624D01*
Y316150D02*
Y322050D01*
X85270Y285696D02*
Y292303D01*
X143856Y254189D02*
X144502Y253542D01*
Y245835D02*
Y253542D01*
X124409Y245835D02*
Y253542D01*
X144502Y245835D02*
X151556D01*
X151535Y232035D02*
X151556Y232056D01*
X144502Y232035D02*
X151535D01*
X124389Y232056D02*
X124409Y232035D01*
X117356Y232056D02*
X124389D01*
X117356Y245835D02*
X124409D01*
X125056Y260882D02*
X130956D01*
X137956D01*
X143856D01*
X131102Y232035D02*
X137810D01*
X137956Y245982D02*
Y254189D01*
X130956Y245982D02*
Y254189D01*
X272435Y235735D02*
X282035D01*
X267821Y240350D02*
X272435Y235735D01*
X267821Y240350D02*
Y246820D01*
X320482Y333750D02*
Y339035D01*
X285935Y322031D02*
X289864D01*
X282057D02*
X285935D01*
X286535Y253821D02*
Y270935D01*
Y253821D02*
X294521Y245835D01*
X285715Y232056D02*
X294521D01*
X282035Y235735D02*
X285715Y232056D01*
X320482Y327950D02*
X325321D01*
X320482Y322050D02*
Y327950D01*
X302877Y284734D02*
X307777D01*
X309889Y322050D02*
X313789D01*
Y316150D02*
Y322050D01*
X262435Y285696D02*
Y292303D01*
X321021Y254189D02*
X321668Y253542D01*
Y245835D02*
Y253542D01*
X301575Y245835D02*
Y253542D01*
X321668Y245835D02*
X328721D01*
X328701Y232035D02*
X328721Y232056D01*
X321668Y232035D02*
X328701D01*
X301554Y232056D02*
X301575Y232035D01*
X294521Y232056D02*
X301554D01*
X294521Y245835D02*
X301575D01*
X302221Y260882D02*
X308121D01*
X315121D01*
X321021D01*
X308268Y232035D02*
X314975D01*
X315121Y245982D02*
Y254189D01*
X308121Y245982D02*
Y254189D01*
D16*
X110870Y109620D02*
D03*
X288035D02*
D03*
X110870Y286785D02*
D03*
X288035D02*
D03*
D17*
X148620Y153670D02*
D03*
X325785D02*
D03*
X148620Y330835D02*
D03*
X325785D02*
D03*
D18*
X131620Y143120D02*
D03*
X308785D02*
D03*
X131620Y320285D02*
D03*
X308785D02*
D03*
D19*
X130620Y105720D02*
D03*
X307785D02*
D03*
X130620Y282885D02*
D03*
X307785D02*
D03*
D20*
X70970Y69655D02*
D03*
X51285Y49970D02*
D03*
X90655D02*
D03*
X248135Y69655D02*
D03*
X228450Y49970D02*
D03*
X267821D02*
D03*
X70970Y246820D02*
D03*
X51285Y227135D02*
D03*
X90655D02*
D03*
X248135Y246820D02*
D03*
X228450Y227135D02*
D03*
X267821D02*
D03*
D21*
X70970Y49970D02*
D03*
X248135D02*
D03*
X70970Y227135D02*
D03*
X248135D02*
D03*
D22*
X80813Y69655D02*
D03*
X90655D02*
D03*
X61128D02*
D03*
X51285D02*
D03*
X257978D02*
D03*
X267821D02*
D03*
X238293D02*
D03*
X228450D02*
D03*
X80813Y246820D02*
D03*
X90655D02*
D03*
X61128D02*
D03*
X51285D02*
D03*
X257978D02*
D03*
X267821D02*
D03*
X238293D02*
D03*
X228450D02*
D03*
D23*
X117356Y68670D02*
D03*
X151556D02*
D03*
X294521D02*
D03*
X328721D02*
D03*
X117356Y245835D02*
D03*
X151556D02*
D03*
X294521D02*
D03*
X328721D02*
D03*
D24*
X117356Y54891D02*
D03*
X151556D02*
D03*
X294521D02*
D03*
X328721D02*
D03*
X117356Y232056D02*
D03*
X151556D02*
D03*
X294521D02*
D03*
X328721D02*
D03*
D25*
X166685Y149624D02*
D03*
Y131907D02*
D03*
X343850Y149624D02*
D03*
Y131907D02*
D03*
X166685Y326789D02*
D03*
Y309072D02*
D03*
X343850Y326789D02*
D03*
Y309072D02*
D03*
D26*
X166685Y163206D02*
D03*
Y118324D02*
D03*
X343850Y163206D02*
D03*
Y118324D02*
D03*
X166685Y340372D02*
D03*
Y295490D02*
D03*
X343850Y340372D02*
D03*
Y295490D02*
D03*
D27*
X154270Y118970D02*
D03*
Y122570D02*
D03*
X111145Y107845D02*
D03*
X111245Y110945D02*
D03*
X108770Y144866D02*
D03*
X131824Y150784D02*
D03*
X146817Y138984D02*
D03*
X131824Y141384D02*
D03*
Y144884D02*
D03*
X130670Y104170D02*
D03*
X130612Y107569D02*
D03*
X100670Y129670D02*
D03*
X120970Y117470D02*
D03*
X120870Y130470D02*
D03*
X146916Y109484D02*
D03*
X146916Y115384D02*
D03*
X131370Y161870D02*
D03*
Y156570D02*
D03*
X149749Y144702D02*
D03*
X149770Y123370D02*
D03*
X146770Y133070D02*
D03*
X148570Y150370D02*
D03*
Y153870D02*
D03*
Y157370D02*
D03*
X331435Y118970D02*
D03*
Y122570D02*
D03*
X288310Y107845D02*
D03*
X288410Y110945D02*
D03*
X285935Y144866D02*
D03*
X308989Y150784D02*
D03*
X323982Y138984D02*
D03*
X308989Y141384D02*
D03*
Y144884D02*
D03*
X307835Y104170D02*
D03*
X307777Y107569D02*
D03*
X277835Y129670D02*
D03*
X298135Y117470D02*
D03*
X298035Y130470D02*
D03*
X324082Y109484D02*
D03*
X324082Y115384D02*
D03*
X308535Y161870D02*
D03*
Y156570D02*
D03*
X326914Y144702D02*
D03*
X326935Y123370D02*
D03*
X323935Y133070D02*
D03*
X325735Y150370D02*
D03*
Y153870D02*
D03*
Y157370D02*
D03*
X154270Y296135D02*
D03*
Y299735D02*
D03*
X111145Y285010D02*
D03*
X111245Y288110D02*
D03*
X108770Y322031D02*
D03*
X131824Y327950D02*
D03*
X146817Y316150D02*
D03*
X131824Y318550D02*
D03*
Y322050D02*
D03*
X130670Y281335D02*
D03*
X130612Y284734D02*
D03*
X100670Y306835D02*
D03*
X120970Y294635D02*
D03*
X120870Y307635D02*
D03*
X146916Y286650D02*
D03*
X146916Y292550D02*
D03*
X131370Y339035D02*
D03*
Y333735D02*
D03*
X149749Y321868D02*
D03*
X149770Y300535D02*
D03*
X146770Y310235D02*
D03*
X148570Y327535D02*
D03*
Y331035D02*
D03*
Y334535D02*
D03*
X331435Y296135D02*
D03*
Y299735D02*
D03*
X288310Y285010D02*
D03*
X288410Y288110D02*
D03*
X285935Y322031D02*
D03*
X308989Y327950D02*
D03*
X323982Y316150D02*
D03*
X308989Y318550D02*
D03*
Y322050D02*
D03*
X307835Y281335D02*
D03*
X307777Y284734D02*
D03*
X277835Y306835D02*
D03*
X298135Y294635D02*
D03*
X298035Y307635D02*
D03*
X324082Y286650D02*
D03*
X324082Y292550D02*
D03*
X308535Y339035D02*
D03*
Y333735D02*
D03*
X326914Y321868D02*
D03*
X326935Y300535D02*
D03*
X323935Y310235D02*
D03*
X325735Y327535D02*
D03*
Y331035D02*
D03*
Y334535D02*
D03*
D28*
X143316Y127184D02*
D03*
X136624D02*
D03*
X143316Y121284D02*
D03*
X136624D02*
D03*
X143316Y115384D02*
D03*
X136624D02*
D03*
X143316Y150784D02*
D03*
X136624D02*
D03*
X119391Y144866D02*
D03*
X112698D02*
D03*
X136624Y156584D02*
D03*
X143316D02*
D03*
Y109484D02*
D03*
X136624D02*
D03*
X136624Y138984D02*
D03*
X143316D02*
D03*
Y133070D02*
D03*
X136624D02*
D03*
X98198Y144866D02*
D03*
X104891D02*
D03*
X144502Y54870D02*
D03*
X137810D02*
D03*
X124409D02*
D03*
X131102D02*
D03*
X144502Y68670D02*
D03*
X137810D02*
D03*
X104016Y94884D02*
D03*
X97324D02*
D03*
X115124D02*
D03*
X121817D02*
D03*
X112191Y169066D02*
D03*
X105498D02*
D03*
X143316Y144884D02*
D03*
X136624D02*
D03*
X124409Y68670D02*
D03*
X131102D02*
D03*
X136624Y161870D02*
D03*
X143316D02*
D03*
X320482Y127184D02*
D03*
X313789D02*
D03*
X320482Y121284D02*
D03*
X313789D02*
D03*
X320482Y115384D02*
D03*
X313789D02*
D03*
X320482Y150784D02*
D03*
X313789D02*
D03*
X296557Y144866D02*
D03*
X289864D02*
D03*
X313789Y156584D02*
D03*
X320482D02*
D03*
Y109484D02*
D03*
X313789D02*
D03*
X313789Y138984D02*
D03*
X320482D02*
D03*
Y133070D02*
D03*
X313789D02*
D03*
X275364Y144866D02*
D03*
X282057D02*
D03*
X321668Y54870D02*
D03*
X314975D02*
D03*
X301575D02*
D03*
X308268D02*
D03*
X321668Y68670D02*
D03*
X314975D02*
D03*
X281182Y94884D02*
D03*
X274489D02*
D03*
X292289D02*
D03*
X298982D02*
D03*
X289357Y169066D02*
D03*
X282664D02*
D03*
X320482Y144884D02*
D03*
X313789D02*
D03*
X301575Y68670D02*
D03*
X308268D02*
D03*
X313789Y161870D02*
D03*
X320482D02*
D03*
X143316Y304350D02*
D03*
X136624D02*
D03*
X143316Y298450D02*
D03*
X136624D02*
D03*
X143316Y292550D02*
D03*
X136624D02*
D03*
X143316Y327950D02*
D03*
X136624D02*
D03*
X119391Y322031D02*
D03*
X112698D02*
D03*
X136624Y333750D02*
D03*
X143316D02*
D03*
Y286650D02*
D03*
X136624D02*
D03*
X136624Y316150D02*
D03*
X143316D02*
D03*
Y310235D02*
D03*
X136624D02*
D03*
X98198Y322031D02*
D03*
X104891D02*
D03*
X144502Y232035D02*
D03*
X137810D02*
D03*
X124409D02*
D03*
X131102D02*
D03*
X144502Y245835D02*
D03*
X137810D02*
D03*
X104016Y272050D02*
D03*
X97324D02*
D03*
X115124D02*
D03*
X121817D02*
D03*
X112191Y346231D02*
D03*
X105498D02*
D03*
X143316Y322050D02*
D03*
X136624D02*
D03*
X124409Y245835D02*
D03*
X131102D02*
D03*
X136624Y339035D02*
D03*
X143316D02*
D03*
X320482Y304350D02*
D03*
X313789D02*
D03*
X320482Y298450D02*
D03*
X313789D02*
D03*
X320482Y292550D02*
D03*
X313789D02*
D03*
X320482Y327950D02*
D03*
X313789D02*
D03*
X296557Y322031D02*
D03*
X289864D02*
D03*
X313789Y333750D02*
D03*
X320482D02*
D03*
Y286650D02*
D03*
X313789D02*
D03*
X313789Y316150D02*
D03*
X320482D02*
D03*
Y310235D02*
D03*
X313789D02*
D03*
X275364Y322031D02*
D03*
X282057D02*
D03*
X321668Y232035D02*
D03*
X314975D02*
D03*
X301575D02*
D03*
X308268D02*
D03*
X321668Y245835D02*
D03*
X314975D02*
D03*
X281182Y272050D02*
D03*
X274489D02*
D03*
X292289D02*
D03*
X298982D02*
D03*
X289357Y346231D02*
D03*
X282664D02*
D03*
X320482Y322050D02*
D03*
X313789D02*
D03*
X301575Y245835D02*
D03*
X308268D02*
D03*
X313789Y339035D02*
D03*
X320482D02*
D03*
D29*
X85270Y115138D02*
D03*
Y121831D02*
D03*
Y101838D02*
D03*
Y108531D02*
D03*
X137956Y77024D02*
D03*
Y83716D02*
D03*
X130956Y77024D02*
D03*
Y83716D02*
D03*
X125056Y77024D02*
D03*
Y83716D02*
D03*
X143856Y77024D02*
D03*
Y83716D02*
D03*
X262435Y115138D02*
D03*
Y121831D02*
D03*
Y101838D02*
D03*
Y108531D02*
D03*
X315121Y77024D02*
D03*
Y83716D02*
D03*
X308121Y77024D02*
D03*
Y83716D02*
D03*
X302221Y77024D02*
D03*
Y83716D02*
D03*
X321021Y77024D02*
D03*
Y83716D02*
D03*
X85270Y292303D02*
D03*
Y298996D02*
D03*
Y279003D02*
D03*
Y285696D02*
D03*
X137956Y254189D02*
D03*
Y260882D02*
D03*
X130956Y254189D02*
D03*
Y260882D02*
D03*
X125056Y254189D02*
D03*
Y260882D02*
D03*
X143856Y254189D02*
D03*
Y260882D02*
D03*
X262435Y292303D02*
D03*
Y298996D02*
D03*
Y279003D02*
D03*
Y285696D02*
D03*
X315121Y254189D02*
D03*
Y260882D02*
D03*
X308121Y254189D02*
D03*
Y260882D02*
D03*
X302221Y254189D02*
D03*
Y260882D02*
D03*
X321021Y254189D02*
D03*
Y260882D02*
D03*
D30*
X100917Y156966D02*
D03*
X116665D02*
D03*
X278083D02*
D03*
X293831D02*
D03*
X100917Y334131D02*
D03*
X116665D02*
D03*
X278083D02*
D03*
X293831D02*
D03*
D31*
X125712Y130600D02*
D03*
Y107569D02*
D03*
X93428Y107569D02*
D03*
Y130600D02*
D03*
X302877D02*
D03*
Y107569D02*
D03*
X270594Y107569D02*
D03*
Y130600D02*
D03*
X125712Y307765D02*
D03*
Y284734D02*
D03*
X93428Y284734D02*
D03*
Y307765D02*
D03*
X302877D02*
D03*
Y284734D02*
D03*
X270594Y284734D02*
D03*
Y307765D02*
D03*
D32*
X121086Y102943D02*
D03*
X98054D02*
D03*
X121086Y135226D02*
D03*
X98054D02*
D03*
X298251Y102943D02*
D03*
X275220D02*
D03*
X298251Y135226D02*
D03*
X275220D02*
D03*
X121086Y280108D02*
D03*
X98054D02*
D03*
X121086Y312391D02*
D03*
X98054D02*
D03*
X298251Y280108D02*
D03*
X275220D02*
D03*
X298251Y312391D02*
D03*
X275220D02*
D03*
D33*
X101696Y102943D02*
D03*
X104846D02*
D03*
X107995D02*
D03*
X111145D02*
D03*
X114295D02*
D03*
X117444D02*
D03*
Y135226D02*
D03*
X114295D02*
D03*
X111145D02*
D03*
X107995D02*
D03*
X104846D02*
D03*
X101696D02*
D03*
X278861Y102943D02*
D03*
X282011D02*
D03*
X285161D02*
D03*
X288310D02*
D03*
X291460D02*
D03*
X294609D02*
D03*
Y135226D02*
D03*
X291460D02*
D03*
X288310D02*
D03*
X285161D02*
D03*
X282011D02*
D03*
X278861D02*
D03*
X101696Y280108D02*
D03*
X104846D02*
D03*
X107995D02*
D03*
X111145D02*
D03*
X114295D02*
D03*
X117444D02*
D03*
Y312391D02*
D03*
X114295D02*
D03*
X111145D02*
D03*
X107995D02*
D03*
X104846D02*
D03*
X101696D02*
D03*
X278861Y280108D02*
D03*
X282011D02*
D03*
X285161D02*
D03*
X288310D02*
D03*
X291460D02*
D03*
X294609D02*
D03*
Y312391D02*
D03*
X291460D02*
D03*
X288310D02*
D03*
X285161D02*
D03*
X282011D02*
D03*
X278861D02*
D03*
D34*
X125712Y111210D02*
D03*
Y114360D02*
D03*
Y117509D02*
D03*
Y120659D02*
D03*
Y123809D02*
D03*
Y126958D02*
D03*
X93428D02*
D03*
Y123809D02*
D03*
Y120659D02*
D03*
Y117509D02*
D03*
Y114360D02*
D03*
Y111210D02*
D03*
X302877D02*
D03*
Y114360D02*
D03*
Y117509D02*
D03*
Y120659D02*
D03*
Y123809D02*
D03*
Y126958D02*
D03*
X270594D02*
D03*
Y123809D02*
D03*
Y120659D02*
D03*
Y117509D02*
D03*
Y114360D02*
D03*
Y111210D02*
D03*
X125712Y288376D02*
D03*
Y291525D02*
D03*
Y294675D02*
D03*
Y297824D02*
D03*
Y300974D02*
D03*
Y304124D02*
D03*
X93428D02*
D03*
Y300974D02*
D03*
Y297824D02*
D03*
Y294675D02*
D03*
Y291525D02*
D03*
Y288376D02*
D03*
X302877D02*
D03*
Y291525D02*
D03*
Y294675D02*
D03*
Y297824D02*
D03*
Y300974D02*
D03*
Y304124D02*
D03*
X270594D02*
D03*
Y300974D02*
D03*
Y297824D02*
D03*
Y294675D02*
D03*
Y291525D02*
D03*
Y288376D02*
D03*
D35*
X109220Y93870D02*
D03*
X286385D02*
D03*
X109220Y271035D02*
D03*
X286385D02*
D03*
D36*
X99920Y129870D02*
D03*
X277085D02*
D03*
X99920Y307035D02*
D03*
X277085D02*
D03*
M02*
