M48
;Layer_Color=9474304
;FILE_FORMAT=2:5
INCH,TZ
;TYPE=PLATED
T1F00S00C0.01200
T2F00S00C0.02953
T3F00S00C0.04331
T5F00S00C0.05000
T6F00S00C0.06299
%
T01
X226235Y140370
X284035Y149870
X288035
X306035Y149070
Y146070
X309035
Y149070
X307235Y154870
X304235
Y157870
X307235
X313835Y166670
X325035Y157570
Y154570
Y151570
Y148570
X326935Y142670
X323735Y140270
X326935Y134770
X325635Y117770
Y114770
X328635
Y117770
X310435Y108570
X307435
Y105570
X310435
X296735Y112470
Y115470
X293735
Y112470
X285135
Y109470
X282135
Y112470
X285235Y91070
X288235
Y88070
X285235
X296735Y122770
X151470Y117770
Y114770
X148470
Y117770
X149770Y134770
Y142670
X146570Y140270
X147870Y148570
Y151570
Y154570
Y157570
X130070Y157870
Y154870
X127070
Y157870
X128870Y149070
Y146070
X131870
Y149070
X110870Y149870
X106870
X107970Y112470
Y109470
X104970
Y112470
X116570
Y115470
X119570
Y112470
Y122770
X130270Y108570
X133270
Y105570
X130270
X111070Y91070
X108070
Y88070
X111070
X136670Y166670
X49070Y140370
Y317535
X106870Y327035
X110870
X128870Y326235
Y323235
X131870
Y326235
X130070Y332035
X127070
Y335035
X130070
X136670Y343835
X147870Y334735
Y331735
Y328735
Y325735
X149770Y319835
X146570Y317435
X149770Y311935
X148470Y294935
Y291935
X151470
Y294935
X133270Y285735
X130270
Y282735
X133270
X119570Y289635
Y292635
X116570
Y289635
X107970
Y286635
X104970
Y289635
X108070Y268235
X111070
Y265235
X108070
X119570Y299935
X226235Y317535
X284035Y327035
X288035
X306035Y326235
Y323235
X309035
Y326235
X307235Y332035
X304235
Y335035
X307235
X313835Y343835
X325035Y334735
Y331735
Y328735
Y325735
X326935Y319835
X323735Y317435
X326935Y311935
X325635Y294935
Y291935
X328635
Y294935
X310435Y285735
X307435
Y282735
X310435
X296735Y289635
Y292635
X293735
Y289635
X285135
Y286635
X282135
Y289635
X285235Y268235
X288235
Y265235
X285235
X296735Y299935
T02
X230656Y123270
X244435
Y157470
X230656
X67270
Y123270
X53491
Y157470
Y300435
Y334635
X67270
Y300435
X230656
X244435
Y334635
X230656
T03
X343850Y131907
Y149624
X166685
Y131907
Y309072
Y326789
X343850
Y309072
T05
X70970Y49970
X248135
X238293Y69655
X228450
X257978
X267821
X90655
X80813
X61128
X51285
Y246820
X61128
X80813
X90655
X70970Y227135
X228450Y246820
X238293
X257978
X267821
X248135Y227135
T06
X51285Y49970
X90655
X228450
X267821
X248135Y69655
X70970
X51285Y227135
X90655
X70970Y246820
X228450Y227135
X267821
X248135Y246820
M30
