%FSLAX25Y25*%
%MOIN*%
G70*
G01*
G75*
G04 Layer_Physical_Order=1*
G04 Layer_Color=255*
%ADD10R,0.09843X0.04331*%
%ADD11R,0.03150X0.03150*%
%ADD12C,0.02000*%
%ADD13C,0.01000*%
%ADD14C,0.04000*%
%ADD15C,0.01500*%
%ADD16C,0.03000*%
%ADD17C,0.05906*%
G04:AMPARAMS|DCode=18|XSize=59.06mil|YSize=59.06mil|CornerRadius=14.76mil|HoleSize=0mil|Usage=FLASHONLY|Rotation=180.000|XOffset=0mil|YOffset=0mil|HoleType=Round|Shape=RoundedRectangle|*
%AMROUNDEDRECTD18*
21,1,0.05906,0.02953,0,0,180.0*
21,1,0.02953,0.05906,0,0,180.0*
1,1,0.02953,-0.01476,0.01476*
1,1,0.02953,0.01476,0.01476*
1,1,0.02953,0.01476,-0.01476*
1,1,0.02953,-0.01476,-0.01476*
%
%ADD18ROUNDEDRECTD18*%
%ADD19C,0.03150*%
%ADD20O,0.17716X0.07874*%
%ADD21C,0.03937*%
%ADD22O,0.08000X0.11811*%
G04:AMPARAMS|DCode=23|XSize=98.43mil|YSize=98.43mil|CornerRadius=24.61mil|HoleSize=0mil|Usage=FLASHONLY|Rotation=270.000|XOffset=0mil|YOffset=0mil|HoleType=Round|Shape=RoundedRectangle|*
%AMROUNDEDRECTD23*
21,1,0.09843,0.04921,0,0,270.0*
21,1,0.04921,0.09843,0,0,270.0*
1,1,0.04921,-0.02461,-0.02461*
1,1,0.04921,-0.02461,0.02461*
1,1,0.04921,0.02461,0.02461*
1,1,0.04921,0.02461,-0.02461*
%
%ADD23ROUNDEDRECTD23*%
%ADD24C,0.02500*%
G36*
X152370Y163870D02*
Y163890D01*
X152760Y163812D01*
X153091Y163591D01*
X153312Y163260D01*
X153390Y162870D01*
X153370Y154370D01*
X153409D01*
X153254Y153590D01*
X152812Y152928D01*
X152150Y152486D01*
X151370Y152331D01*
Y152390D01*
X150980Y152312D01*
X150649Y152091D01*
X150428Y151760D01*
X150350Y151370D01*
X150370Y147870D01*
X150399D01*
X150283Y147285D01*
X149952Y146789D01*
X149455Y146457D01*
X148870Y146341D01*
X146070Y146370D01*
Y146349D01*
X145641Y146434D01*
X145277Y146677D01*
X145034Y147041D01*
X144948Y147470D01*
X144970Y162470D01*
X144943D01*
X145051Y163016D01*
X145361Y163479D01*
X145824Y163789D01*
X146370Y163898D01*
X152370Y163870D01*
D02*
G37*
G36*
X167624Y172317D02*
X168212Y172217D01*
X168786Y172052D01*
X169337Y171824D01*
X169860Y171535D01*
X170347Y171189D01*
X170792Y170792D01*
X171189Y170347D01*
X171423Y170018D01*
X171146Y169057D01*
X170169Y168652D01*
X161764D01*
X161154Y168618D01*
X160552Y168515D01*
X159965Y168346D01*
X159401Y168113D01*
X158867Y167817D01*
X158369Y167464D01*
X157913Y167057D01*
X157506Y166602D01*
X157153Y166103D01*
X156858Y165569D01*
X156624Y165005D01*
X156455Y164418D01*
X156352Y163816D01*
X156318Y163206D01*
X156352Y162597D01*
X156455Y161995D01*
X156624Y161408D01*
X156858Y160844D01*
X157153Y160309D01*
X157506Y159811D01*
X157913Y159356D01*
X158150Y159144D01*
X157793Y158210D01*
X155594D01*
X154888Y158918D01*
X154897Y162867D01*
X154897Y162868D01*
X154897Y162870D01*
X154883Y163015D01*
X154869Y163161D01*
X154868Y163162D01*
X154868Y163164D01*
X154790Y163554D01*
X154705Y163837D01*
X154565Y164098D01*
X154565Y164098D01*
X154344Y164428D01*
X154157Y164657D01*
X153928Y164844D01*
X153598Y165065D01*
X153598Y165065D01*
X153519Y165108D01*
X153337Y165205D01*
X153054Y165290D01*
X153054D01*
X152664Y165368D01*
X152370Y165397D01*
X152180Y165378D01*
X147310Y165401D01*
X147011Y165472D01*
X146540Y165509D01*
X146381D01*
Y165575D01*
X140232D01*
X140232Y165575D01*
Y165575D01*
X139294Y165818D01*
X139294D01*
X139395Y166239D01*
X139429Y166670D01*
X139395Y167102D01*
X139294Y167523D01*
X139128Y167922D01*
X138902Y168291D01*
X138621Y168621D01*
X138292Y168902D01*
X137922Y169128D01*
X137522Y169294D01*
X137102Y169395D01*
X136670Y169429D01*
X136239Y169395D01*
X135818Y169294D01*
X135418Y169128D01*
X135049Y168902D01*
X134720Y168621D01*
X134438Y168291D01*
X134212Y167922D01*
X134047Y167523D01*
X133946Y167102D01*
X133912Y166670D01*
X133946Y166239D01*
X134047Y165818D01*
X134047D01*
X133539Y165575D01*
X133539D01*
Y159425D01*
X139688D01*
Y159425D01*
X139688D01*
X139688Y159425D01*
X140232D01*
Y159425D01*
X142751D01*
X143457Y158718D01*
X143441Y147472D01*
X143441Y147471D01*
X143441Y147470D01*
X143456Y147325D01*
X143470Y147178D01*
X143470Y147177D01*
X143470Y147176D01*
X143556Y146747D01*
Y146747D01*
X143641Y146464D01*
X143781Y146203D01*
X144024Y145840D01*
X144024Y145840D01*
X144170Y145661D01*
X144211Y145611D01*
X144211D01*
Y145611D01*
X144440Y145424D01*
X144804Y145181D01*
X145064Y145041D01*
X145347Y144956D01*
X145347D01*
X145776Y144870D01*
X145776Y144870D01*
X146070Y144841D01*
D01*
X146070D01*
X146267Y144861D01*
X146863Y144854D01*
X147347Y143979D01*
X147312Y143922D01*
X147147Y143523D01*
X147046Y143102D01*
X147012Y142670D01*
X147046Y142239D01*
X147147Y141818D01*
X147312Y141418D01*
X147538Y141049D01*
X147819Y140719D01*
X148149Y140438D01*
X148518Y140212D01*
X148918Y140047D01*
X149339Y139945D01*
X149770Y139912D01*
X149927Y139766D01*
X149829Y138771D01*
X149543Y138596D01*
X149274Y138366D01*
X148174Y137266D01*
X147944Y136997D01*
X147759Y136695D01*
X147723Y136608D01*
X147538Y136391D01*
X147312Y136022D01*
X147147Y135623D01*
X147046Y135202D01*
X147012Y134770D01*
X147046Y134339D01*
X147147Y133918D01*
X147312Y133518D01*
X147538Y133149D01*
X147819Y132819D01*
X148149Y132538D01*
X148518Y132312D01*
X148918Y132147D01*
X149339Y132045D01*
X149770Y132012D01*
X150202Y132045D01*
X150622Y132147D01*
X151022Y132312D01*
X151391Y132538D01*
X151721Y132819D01*
X152002Y133149D01*
X152011Y133163D01*
X162870D01*
Y140494D01*
D01*
Y140494D01*
X162870Y140494D01*
Y141037D01*
X162870D01*
Y148368D01*
X151875D01*
X151865Y150171D01*
X152570Y150880D01*
X162870D01*
Y157761D01*
X171606D01*
X171624Y157762D01*
X172350Y157075D01*
X172348Y124456D01*
X171621Y123769D01*
X171606Y123770D01*
X161764D01*
X161154Y123736D01*
X160552Y123634D01*
X159965Y123464D01*
X159401Y123231D01*
X158867Y122935D01*
X158369Y122582D01*
X157913Y122175D01*
X157506Y121720D01*
X157153Y121222D01*
X156858Y120687D01*
X156624Y120123D01*
X156455Y119536D01*
X156352Y118934D01*
X156318Y118324D01*
X156352Y117715D01*
X156455Y117113D01*
X156624Y116526D01*
X156858Y115962D01*
X157153Y115427D01*
X157506Y114929D01*
X157913Y114474D01*
X158369Y114067D01*
X158867Y113714D01*
X159401Y113418D01*
X159965Y113184D01*
X160552Y113015D01*
X161154Y112913D01*
X161764Y112879D01*
X171606D01*
X171620Y112880D01*
X172347Y112193D01*
X172343Y49213D01*
X172343D01*
X172350Y49205D01*
X172319Y48650D01*
X172224Y48094D01*
X172068Y47552D01*
X171853Y47031D01*
X171580Y46538D01*
X171254Y46078D01*
X170878Y45658D01*
X170457Y45282D01*
X169998Y44956D01*
X169504Y44683D01*
X168983Y44467D01*
X168442Y44311D01*
X167886Y44217D01*
X167323Y44185D01*
X49213Y44193D01*
Y44193D01*
X49205Y44185D01*
X48650Y44217D01*
X48094Y44311D01*
X47552Y44467D01*
X47031Y44683D01*
X46538Y44956D01*
X46078Y45282D01*
X45658Y45658D01*
X45282Y46078D01*
X44956Y46538D01*
X44683Y47031D01*
X44467Y47552D01*
X44311Y48094D01*
X44217Y48650D01*
X44185Y49213D01*
X44193Y167323D01*
X44193D01*
X44185Y167331D01*
X44217Y167886D01*
X44311Y168442D01*
X44467Y168983D01*
X44683Y169504D01*
X44956Y169998D01*
X45282Y170457D01*
X45658Y170878D01*
X46078Y171254D01*
X46538Y171580D01*
X47031Y171853D01*
X47552Y172068D01*
X48094Y172224D01*
X48650Y172319D01*
X49205Y172350D01*
X49213Y172343D01*
Y172343D01*
X49213Y172343D01*
X167028D01*
Y172343D01*
X167036Y172350D01*
X167624Y172317D01*
D02*
G37*
%LPC*%
G36*
X90655Y77069D02*
X90038Y77035D01*
X89429Y76931D01*
X88836Y76760D01*
X88265Y76524D01*
X87724Y76225D01*
X87221Y75867D01*
X86760Y75456D01*
X86348Y74995D01*
X86234Y74834D01*
X85234D01*
X85119Y74995D01*
X84708Y75456D01*
X84247Y75867D01*
X83743Y76225D01*
X83203Y76524D01*
X82632Y76760D01*
X82038Y76931D01*
X81429Y77035D01*
X80813Y77069D01*
X80196Y77035D01*
X79587Y76931D01*
X78993Y76760D01*
X78422Y76524D01*
X77882Y76225D01*
X77378Y75867D01*
X76917Y75456D01*
X76506Y74995D01*
X76148Y74491D01*
X75849Y73951D01*
X75613Y73380D01*
X75442Y72786D01*
X75339Y72177D01*
X75304Y71561D01*
Y67750D01*
X75339Y67133D01*
X75442Y66524D01*
X75613Y65930D01*
X75849Y65359D01*
X76148Y64819D01*
X76506Y64315D01*
X76917Y63854D01*
X77378Y63443D01*
X77882Y63085D01*
X78422Y62787D01*
X78993Y62550D01*
X79587Y62379D01*
X80196Y62276D01*
X80813Y62241D01*
X81429Y62276D01*
X82038Y62379D01*
X82632Y62550D01*
X83203Y62787D01*
X83743Y63085D01*
X84247Y63443D01*
X84708Y63854D01*
X85119Y64315D01*
X85234Y64476D01*
X86234D01*
X86348Y64315D01*
X86760Y63854D01*
X87221Y63443D01*
X87724Y63085D01*
X88265Y62787D01*
X88836Y62550D01*
X89429Y62379D01*
X90038Y62276D01*
X90655Y62241D01*
X91272Y62276D01*
X91881Y62379D01*
X92475Y62550D01*
X93045Y62787D01*
X93586Y63085D01*
X94090Y63443D01*
X94550Y63854D01*
X94962Y64315D01*
X95319Y64819D01*
X95618Y65359D01*
X95855Y65930D01*
X96026Y66524D01*
X96129Y67133D01*
X96164Y67750D01*
Y71561D01*
X96129Y72177D01*
X96026Y72786D01*
X95855Y73380D01*
X95618Y73951D01*
X95319Y74491D01*
X94962Y74995D01*
X94550Y75456D01*
X94090Y75867D01*
X93586Y76225D01*
X93045Y76524D01*
X92475Y76760D01*
X91881Y76931D01*
X91272Y77035D01*
X90655Y77069D01*
D02*
G37*
G36*
X54967Y127732D02*
X52014D01*
X51547Y127695D01*
X51092Y127586D01*
X50659Y127407D01*
X50259Y127162D01*
X49903Y126858D01*
X49599Y126501D01*
X49354Y126102D01*
X49175Y125669D01*
X49065Y125214D01*
X49029Y124747D01*
Y121794D01*
X49065Y121327D01*
X49175Y120871D01*
X49354Y120438D01*
X49599Y120039D01*
X49903Y119683D01*
X50259Y119378D01*
X50659Y119133D01*
X51092Y118954D01*
X51547Y118845D01*
X52014Y118808D01*
X54967D01*
X55434Y118845D01*
X55889Y118954D01*
X56322Y119133D01*
X56722Y119378D01*
X57078Y119683D01*
X57382Y120039D01*
X57627Y120438D01*
X57806Y120871D01*
X57916Y121327D01*
X57952Y121794D01*
Y124747D01*
X57916Y125214D01*
X57806Y125669D01*
X57627Y126102D01*
X57382Y126501D01*
X57078Y126858D01*
X56722Y127162D01*
X56322Y127407D01*
X55889Y127586D01*
X55434Y127695D01*
X54967Y127732D01*
D02*
G37*
G36*
X68870Y127907D02*
X68870D01*
D01*
X68596Y127880D01*
X65383Y127907D01*
X65376Y127906D01*
X65370Y127907D01*
X65230Y127893D01*
X65088Y127880D01*
X65082Y127878D01*
X65076Y127878D01*
X64491Y127761D01*
X64208Y127676D01*
X63947Y127536D01*
X63451Y127205D01*
X63223Y127017D01*
Y127017D01*
X63223D01*
X63035Y126789D01*
X62704Y126293D01*
X62565Y126032D01*
X62479Y125749D01*
X62362Y125164D01*
X62333Y124870D01*
Y124870D01*
D01*
X62362Y124582D01*
X62344Y119275D01*
X62344Y119273D01*
X62344Y119270D01*
X62358Y119126D01*
X62372Y118981D01*
X62373Y118979D01*
X62373Y118976D01*
X62448Y118599D01*
Y118599D01*
X62468Y118533D01*
X62534Y118316D01*
X62624Y118147D01*
X62673Y118056D01*
X62886Y117736D01*
X62887Y117736D01*
X62887Y117736D01*
X62991Y117609D01*
X63074Y117508D01*
X63074Y117508D01*
X63074Y117508D01*
X63205Y117400D01*
X63221Y117387D01*
X80720Y99844D01*
X80797Y99781D01*
X80870Y99713D01*
X81626Y99132D01*
X81668Y99106D01*
X81706Y99075D01*
X81793Y99028D01*
X81877Y98976D01*
X81923Y98959D01*
X81967Y98936D01*
X82848Y98571D01*
X82895Y98556D01*
X82940Y98536D01*
X83036Y98514D01*
X83131Y98485D01*
X83180Y98480D01*
X83228Y98469D01*
X84173Y98344D01*
X84272Y98341D01*
X84370Y98332D01*
X84419Y98336D01*
X84469Y98335D01*
X84566Y98351D01*
X84664Y98361D01*
X84678Y98365D01*
X88862Y98392D01*
X89454Y98314D01*
X89918Y98122D01*
X90258Y97860D01*
X90301Y97808D01*
X100060Y87982D01*
X100062Y87980D01*
X100064Y87978D01*
X100176Y87886D01*
X100288Y87793D01*
X100290Y87792D01*
X100292Y87791D01*
X101091Y87257D01*
X101091Y87257D01*
X101212Y87192D01*
X101351Y87118D01*
X101634Y87032D01*
X101634D01*
X102576Y86844D01*
X102870Y86816D01*
X103164Y86844D01*
X103234Y86866D01*
X104911Y86879D01*
X104950Y86686D01*
X105036Y86403D01*
X105175Y86142D01*
X105175Y86142D01*
X105396Y85812D01*
X105583Y85583D01*
X105812Y85396D01*
X106142Y85175D01*
X106142Y85175D01*
X106222Y85133D01*
X106403Y85036D01*
X106686Y84950D01*
X106686D01*
X107076Y84872D01*
X107370Y84843D01*
X107555Y84861D01*
X111359Y84834D01*
X111365Y84834D01*
X111370Y84833D01*
X111512Y84847D01*
X111653Y84860D01*
X111659Y84862D01*
X111664Y84862D01*
X112249Y84979D01*
X112532Y85065D01*
X112793Y85204D01*
X113289Y85535D01*
X113517Y85723D01*
Y85723D01*
X113517D01*
X113705Y85951D01*
X114036Y86447D01*
X114176Y86708D01*
X114261Y86991D01*
X114378Y87576D01*
X114407Y87870D01*
Y87870D01*
D01*
X114379Y88147D01*
X114407Y91859D01*
X114406Y91865D01*
X114407Y91870D01*
X114393Y92012D01*
X114380Y92153D01*
X114378Y92159D01*
X114378Y92164D01*
X114261Y92749D01*
X114176Y93032D01*
X114036Y93293D01*
X113705Y93789D01*
X113517Y94017D01*
X113517D01*
Y94017D01*
X113289Y94205D01*
X112793Y94536D01*
X112532Y94676D01*
X112249Y94761D01*
X111664Y94878D01*
X111370Y94907D01*
X111370D01*
D01*
X111076Y94878D01*
X111071Y94876D01*
X104518Y94854D01*
X94180Y105259D01*
X94178Y105260D01*
X94176Y105262D01*
X94063Y105355D01*
X93952Y105447D01*
X93950Y105448D01*
X93948Y105450D01*
X93150Y105983D01*
X93149Y105983D01*
X93028Y106048D01*
X92889Y106123D01*
X92606Y106208D01*
X92606D01*
X91664Y106396D01*
X91370Y106425D01*
X91076Y106396D01*
X91008Y106375D01*
X86878Y106349D01*
X86286Y106426D01*
X85823Y106619D01*
X85481Y106880D01*
X85436Y106936D01*
X85434Y106937D01*
X85433Y106939D01*
X72213Y120092D01*
X71930Y120516D01*
X71872Y120808D01*
X71877Y120859D01*
X71907Y124859D01*
X71906Y124865D01*
X71907Y124870D01*
X71893Y125012D01*
X71880Y125153D01*
X71878Y125159D01*
X71878Y125164D01*
X71761Y125749D01*
X71676Y126032D01*
X71536Y126293D01*
X71205Y126789D01*
X71017Y127017D01*
X71017D01*
Y127017D01*
X70789Y127205D01*
X70293Y127536D01*
X70032Y127676D01*
X69749Y127761D01*
X69164Y127878D01*
X68870Y127907D01*
D02*
G37*
G36*
X132280Y151997D02*
X132276Y151997D01*
X132273Y151997D01*
X128469Y151978D01*
X128280Y151997D01*
X127986Y151968D01*
X127596Y151890D01*
X127313Y151805D01*
X127052Y151665D01*
X127052Y151665D01*
X126722Y151444D01*
X126493Y151257D01*
X126306Y151028D01*
X126085Y150698D01*
X126085Y150698D01*
X126042Y150619D01*
X125945Y150437D01*
X125860Y150154D01*
Y150154D01*
X125782Y149764D01*
X125782Y149760D01*
X125781Y149757D01*
X125767Y149614D01*
X125753Y149470D01*
X125753Y149466D01*
X125753Y149463D01*
X125772Y145641D01*
X125755Y145470D01*
X125784Y145176D01*
X125854Y144825D01*
Y144825D01*
X125906Y144653D01*
X125940Y144542D01*
X125940Y144542D01*
D01*
X125958Y144508D01*
X126079Y144281D01*
X126079Y144281D01*
X126278Y143984D01*
X126278Y143984D01*
X126465Y143755D01*
X126465D01*
Y143755D01*
X126515Y143714D01*
X126694Y143568D01*
X126763Y143522D01*
Y108743D01*
X126737Y105374D01*
X126738Y105368D01*
X126737Y105362D01*
X126751Y105221D01*
X126764Y105079D01*
X126766Y105074D01*
X126766Y105068D01*
X126836Y104718D01*
X126098Y104323D01*
X125928Y104272D01*
X124455Y105746D01*
X124184Y106076D01*
X123785Y106822D01*
X123539Y107632D01*
X123460Y108441D01*
X123462Y108456D01*
X123467Y108561D01*
X123477Y108665D01*
X123503Y115865D01*
X123503Y115867D01*
X123503Y115870D01*
X123489Y116015D01*
X123475Y116159D01*
X123474Y116162D01*
X123474Y116164D01*
X123373Y116671D01*
X123347Y116757D01*
X123287Y116954D01*
X123148Y117215D01*
X122861Y117645D01*
X122861Y117645D01*
X122714Y117823D01*
X122673Y117873D01*
X122673D01*
Y117873D01*
X122651Y117892D01*
X122445Y118061D01*
X122445Y118061D01*
X122015Y118348D01*
X122015Y118348D01*
X121981Y118366D01*
X121754Y118487D01*
X121557Y118547D01*
X121471Y118573D01*
X120964Y118674D01*
X120670Y118703D01*
X120670D01*
D01*
X120431Y118679D01*
X116182Y118713D01*
X116176Y118712D01*
X116170Y118713D01*
X116029Y118699D01*
X115888Y118686D01*
X115882Y118684D01*
X115876Y118684D01*
X115174Y118544D01*
X115174D01*
X114891Y118458D01*
X114630Y118319D01*
X114035Y117921D01*
X114035Y117921D01*
X113807Y117734D01*
X113686Y117587D01*
X113619Y117505D01*
X113619Y117505D01*
X113221Y116910D01*
X113221Y116910D01*
X113100Y116683D01*
X113082Y116649D01*
D01*
X113082Y116649D01*
X113048Y116538D01*
X112996Y116367D01*
Y116366D01*
X112856Y115664D01*
X112828Y115370D01*
X112856Y115076D01*
X112859Y115069D01*
X112824Y112390D01*
X112825Y112380D01*
X112824Y112370D01*
X112837Y112233D01*
X112849Y112095D01*
X112852Y112086D01*
X112853Y112076D01*
X113008Y111296D01*
Y111296D01*
X113094Y111013D01*
X113168Y110874D01*
X113233Y110752D01*
X113233Y110752D01*
X113675Y110091D01*
X113862Y109862D01*
X113862D01*
Y109862D01*
X114091Y109675D01*
X114752Y109233D01*
X114752Y109233D01*
X114874Y109168D01*
X115013Y109094D01*
X115296Y109008D01*
X115296D01*
X116063Y108855D01*
Y107660D01*
X116054Y107617D01*
X116052Y107600D01*
X116048Y107584D01*
X116038Y107453D01*
X116025Y107323D01*
X116027Y107306D01*
X116025Y107289D01*
X116056Y105970D01*
X116054Y105964D01*
X116025Y105670D01*
D01*
Y105670D01*
X116054Y105376D01*
X116204Y104622D01*
X116290Y104340D01*
X116429Y104079D01*
X116429Y104079D01*
X116518Y103946D01*
X116533Y103916D01*
X116787Y103535D01*
X116809Y103510D01*
X116856Y103440D01*
X116857Y103438D01*
X116859Y103436D01*
X116951Y103324D01*
X117043Y103212D01*
X117045Y103210D01*
X117047Y103208D01*
X120679Y99601D01*
X124748Y95532D01*
X124876Y95376D01*
X125104Y95188D01*
X125169Y95146D01*
X125235Y95087D01*
X125616Y94832D01*
X125696Y94793D01*
X125782Y94736D01*
X125782Y94736D01*
X126042Y94596D01*
X126325Y94511D01*
X126453Y94485D01*
X126462Y94482D01*
X126912Y94393D01*
X126922Y94392D01*
X127125Y94352D01*
X127127Y94351D01*
X127128Y94351D01*
X127272Y94337D01*
X127419Y94323D01*
X127421Y94323D01*
X127423Y94323D01*
X142434Y94362D01*
X142476Y94349D01*
X142770Y94320D01*
X142770D01*
D01*
X143064Y94349D01*
X143064Y94349D01*
X143260Y94388D01*
X143328Y94393D01*
X143328D01*
X143328Y94393D01*
X143328Y94393D01*
X143778Y94482D01*
X143843Y94504D01*
X143912Y94518D01*
X144195Y94604D01*
X144455Y94743D01*
X144492Y94767D01*
X144624Y94832D01*
X145005Y95087D01*
X145116Y95184D01*
X145174Y95223D01*
X145176Y95225D01*
X145178Y95226D01*
X145290Y95318D01*
X145402Y95411D01*
X145404Y95413D01*
X145406Y95414D01*
X149911Y99950D01*
X153950Y103990D01*
X153954Y103994D01*
X154060Y104081D01*
X154247Y104309D01*
X154624Y104874D01*
X154624Y104874D01*
X154754Y105116D01*
X154764Y105134D01*
D01*
X154764Y105134D01*
X154797Y105245D01*
X154849Y105417D01*
Y105417D01*
X154982Y106083D01*
X154982Y106086D01*
X154983Y106088D01*
X154997Y106233D01*
X155011Y106377D01*
X155010Y106380D01*
X155011Y106382D01*
X154984Y114184D01*
X154998Y116048D01*
X155006Y116129D01*
D01*
Y116129D01*
X154999Y116198D01*
X155009Y117579D01*
X155008Y117584D01*
X155009Y117590D01*
X154995Y117731D01*
X154982Y117873D01*
X154980Y117878D01*
X154980Y117884D01*
X154856Y118508D01*
X154770Y118791D01*
X154630Y119051D01*
X154630Y119051D01*
X154277Y119581D01*
X154277Y119581D01*
X154130Y119759D01*
X154089Y119809D01*
X154089D01*
Y119809D01*
X154040Y119850D01*
X153861Y119997D01*
X153861Y119997D01*
X153332Y120350D01*
X153332Y120350D01*
X153071Y120489D01*
X152788Y120575D01*
X152164Y120699D01*
X151870Y120728D01*
X151576Y120699D01*
X151563Y120695D01*
X148059Y120678D01*
X147870Y120697D01*
X147576Y120668D01*
X147544Y120662D01*
X147522Y120659D01*
X147381Y120645D01*
X147374Y120643D01*
X147367Y120642D01*
X147233Y120600D01*
X147226Y120598D01*
X147186Y120590D01*
X146903Y120505D01*
X146642Y120365D01*
X146642Y120365D01*
X146312Y120144D01*
X146083Y119957D01*
X145896Y119728D01*
X145675Y119398D01*
X145675Y119398D01*
X145633Y119319D01*
X145536Y119137D01*
X145474Y118934D01*
X145460Y118909D01*
X145457Y118899D01*
X145452Y118890D01*
X145414Y118758D01*
X145373Y118627D01*
X145372Y118616D01*
X145369Y118606D01*
X145357Y118470D01*
X145343Y118333D01*
X145325Y114179D01*
X145326Y114175D01*
X145325Y114172D01*
X145339Y114029D01*
X145353Y113884D01*
X145354Y113881D01*
X145354Y113878D01*
X145425Y113519D01*
Y113519D01*
X145466Y113388D01*
X145511Y113236D01*
X145633Y113010D01*
X145651Y112976D01*
X145854Y112672D01*
X145854Y112672D01*
X146041Y112443D01*
X146041D01*
Y112443D01*
X146270Y112256D01*
X146270Y112256D01*
X146574Y112053D01*
X146574Y112053D01*
X146817Y111923D01*
X146834Y111913D01*
D01*
X146835Y111913D01*
X146946Y111880D01*
X147117Y111828D01*
X147117D01*
X147476Y111756D01*
X147476Y111756D01*
X147770Y111727D01*
X147963Y111553D01*
Y108293D01*
X147933Y108070D01*
X147818Y107791D01*
X147775Y107735D01*
X141624Y101584D01*
X141556Y101532D01*
X141258Y101409D01*
X141021Y101378D01*
X129277D01*
X129210Y101386D01*
X128753Y102276D01*
X128936Y102618D01*
X129286Y102549D01*
X129580Y102520D01*
X129580D01*
D01*
X129840Y102545D01*
X132470D01*
X132599Y102558D01*
X133608Y102562D01*
X133780Y102545D01*
X134074Y102574D01*
X134425Y102644D01*
X134425D01*
X134597Y102696D01*
X134708Y102730D01*
X134708Y102730D01*
D01*
X134741Y102748D01*
X134968Y102869D01*
X134968Y102869D01*
X135266Y103068D01*
X135266Y103068D01*
X135494Y103255D01*
Y103255D01*
X135494D01*
X135536Y103305D01*
X135682Y103484D01*
X135881Y103781D01*
X135881Y103781D01*
X136002Y104008D01*
X136020Y104042D01*
D01*
X136020Y104042D01*
X136054Y104153D01*
X136106Y104325D01*
Y104325D01*
X136176Y104676D01*
X136176Y104679D01*
X136177Y104683D01*
X136191Y104827D01*
X136205Y104970D01*
X136204Y104973D01*
X136205Y104977D01*
X136188Y108780D01*
X136207Y108970D01*
X136178Y109264D01*
X136100Y109654D01*
X136014Y109937D01*
X135875Y110198D01*
X135875Y110198D01*
X135654Y110528D01*
X135467Y110757D01*
X135238Y110944D01*
X134907Y111165D01*
X134907Y111165D01*
X134828Y111208D01*
X134647Y111305D01*
X134364Y111390D01*
X134364D01*
X133974Y111468D01*
X133970Y111468D01*
X133967Y111469D01*
X133946Y111471D01*
X133926Y111477D01*
X133803Y111485D01*
X133778Y111487D01*
Y143509D01*
X133866Y143568D01*
X133866Y143568D01*
X134095Y143755D01*
Y143755D01*
X134095D01*
X134135Y143805D01*
X134282Y143984D01*
X134481Y144281D01*
X134481Y144281D01*
X134602Y144508D01*
X134620Y144542D01*
D01*
X134620Y144542D01*
X134654Y144653D01*
X134706Y144825D01*
Y144825D01*
X134776Y145176D01*
X134776Y145179D01*
X134777Y145183D01*
X134791Y145327D01*
X134805Y145470D01*
X134804Y145473D01*
X134805Y145477D01*
X134788Y149280D01*
X134807Y149470D01*
X134778Y149764D01*
X134700Y150154D01*
X134614Y150437D01*
X134475Y150698D01*
X134475Y150698D01*
X134254Y151028D01*
X134067Y151257D01*
X133838Y151444D01*
X133508Y151665D01*
X133507Y151665D01*
X133428Y151708D01*
X133247Y151805D01*
X132964Y151890D01*
X132964D01*
X132574Y151968D01*
X132570Y151968D01*
X132567Y151969D01*
X132424Y151983D01*
X132280Y151997D01*
D02*
G37*
G36*
X70870Y162897D02*
X70677Y162878D01*
X64375Y162897D01*
X64372Y162897D01*
X64370Y162897D01*
X64225Y162883D01*
X64081Y162869D01*
X64078Y162868D01*
X64076Y162868D01*
X63686Y162790D01*
X63403Y162705D01*
X63143Y162565D01*
X63142Y162565D01*
X62812Y162344D01*
X62583Y162157D01*
X62396Y161928D01*
X62175Y161598D01*
X62175Y161598D01*
X62133Y161519D01*
X62036Y161337D01*
X61950Y161054D01*
Y161054D01*
X61872Y160664D01*
X61843Y160370D01*
X61862Y160180D01*
X61843Y155877D01*
X61844Y155873D01*
X61843Y155870D01*
X61857Y155727D01*
X61871Y155582D01*
X61872Y155579D01*
X61872Y155576D01*
X61950Y155186D01*
X62036Y154903D01*
X62175Y154642D01*
X62175Y154642D01*
X62396Y154312D01*
X62583Y154083D01*
X62812Y153896D01*
X63143Y153675D01*
X63143Y153675D01*
X63222Y153633D01*
X63362Y153558D01*
X63329Y150091D01*
X63330Y150084D01*
X63329Y150077D01*
X63343Y149937D01*
X63356Y149797D01*
X63358Y149790D01*
X63358Y149783D01*
X63491Y149117D01*
Y149117D01*
X63543Y148945D01*
X63577Y148834D01*
X63577Y148834D01*
D01*
X63586Y148816D01*
X63716Y148574D01*
X63716Y148574D01*
X64093Y148009D01*
X64093Y148009D01*
X64134Y147959D01*
X64281Y147781D01*
X64509Y147593D01*
X64527Y147583D01*
X71360Y140817D01*
X72466Y139469D01*
X73254Y137994D01*
X73740Y136393D01*
X73883Y134937D01*
X73878Y134877D01*
X73863Y134731D01*
X73833Y122288D01*
X73843Y122188D01*
X73846Y122088D01*
X73964Y121196D01*
X73975Y121148D01*
X73980Y121099D01*
X74008Y121005D01*
X74031Y120908D01*
X74051Y120863D01*
X74065Y120816D01*
X74410Y119986D01*
X74433Y119942D01*
X74450Y119896D01*
X74502Y119812D01*
X74549Y119725D01*
X74580Y119687D01*
X74606Y119645D01*
X75153Y118932D01*
X75221Y118860D01*
X75283Y118783D01*
X75322Y118752D01*
X75355Y118716D01*
X75436Y118659D01*
X75507Y118600D01*
X84560Y109482D01*
X84562Y109480D01*
X84564Y109478D01*
X84676Y109386D01*
X84788Y109293D01*
X84790Y109292D01*
X84792Y109291D01*
X85591Y108757D01*
X85591Y108757D01*
X85712Y108692D01*
X85851Y108618D01*
X86134Y108532D01*
X86134D01*
X87076Y108344D01*
X87370Y108316D01*
X87664Y108344D01*
X87726Y108363D01*
X101411Y108382D01*
X101450Y108186D01*
X101536Y107903D01*
X101675Y107642D01*
X101675Y107642D01*
X101896Y107312D01*
X102083Y107083D01*
X102312Y106896D01*
X102643Y106675D01*
X102643Y106675D01*
X102722Y106633D01*
X102903Y106536D01*
X103186Y106450D01*
X103186D01*
X103576Y106372D01*
X103870Y106343D01*
X104056Y106362D01*
X108360Y106333D01*
X108365Y106334D01*
X108370Y106333D01*
X108512Y106347D01*
X108654Y106360D01*
X108659Y106362D01*
X108664Y106362D01*
X109249Y106479D01*
X109532Y106565D01*
X109793Y106704D01*
X110289Y107035D01*
X110517Y107223D01*
Y107223D01*
X110517D01*
X110705Y107451D01*
X111036Y107947D01*
X111176Y108208D01*
X111261Y108491D01*
X111378Y109076D01*
X111407Y109370D01*
Y109370D01*
D01*
X111379Y109647D01*
X111407Y113359D01*
X111406Y113365D01*
X111407Y113370D01*
X111393Y113512D01*
X111380Y113653D01*
X111378Y113659D01*
X111378Y113664D01*
X111261Y114249D01*
X111176Y114532D01*
X111036Y114793D01*
X110705Y115289D01*
X110517Y115517D01*
X110517D01*
Y115517D01*
X110289Y115705D01*
X109793Y116036D01*
X109532Y116176D01*
X109249Y116261D01*
X108664Y116378D01*
X108370Y116407D01*
X108370D01*
D01*
X108076Y116378D01*
X108072Y116377D01*
X90017Y116330D01*
X89516Y116430D01*
X89267Y116597D01*
X89229Y116643D01*
X89227Y116645D01*
X89225Y116647D01*
X82543Y123285D01*
X82145Y123804D01*
X81932Y124318D01*
X81870Y124790D01*
X81877Y124868D01*
X81901Y141368D01*
X81901Y141369D01*
X81901Y141370D01*
X81887Y141516D01*
X81872Y141662D01*
X81872Y141663D01*
X81872Y141664D01*
X81778Y142135D01*
X81752Y142221D01*
X81693Y142418D01*
X81608Y142576D01*
X81553Y142678D01*
X81553Y142678D01*
X81287Y143078D01*
X81286Y143078D01*
X81286Y143078D01*
X81199Y143184D01*
X81099Y143306D01*
X81099Y143306D01*
X81099Y143307D01*
X81001Y143387D01*
X80906Y143464D01*
X73083Y151239D01*
X72321Y152168D01*
X71788Y153165D01*
X71460Y154246D01*
X71394Y154918D01*
X71554Y154950D01*
X71837Y155036D01*
X72098Y155175D01*
X72098Y155175D01*
X72428Y155396D01*
X72657Y155583D01*
X72844Y155812D01*
X73065Y156142D01*
X73065Y156142D01*
X73108Y156222D01*
X73205Y156403D01*
X73290Y156686D01*
Y156686D01*
X73368Y157076D01*
X73397Y157370D01*
X73379Y157556D01*
X73397Y160360D01*
X73396Y160365D01*
X73397Y160370D01*
X73383Y160512D01*
X73370Y160654D01*
X73368Y160659D01*
X73368Y160664D01*
X73290Y161054D01*
X73205Y161337D01*
X73065Y161598D01*
X73065Y161598D01*
X72844Y161928D01*
X72657Y162157D01*
X72428Y162344D01*
X72098Y162565D01*
X72098Y162565D01*
X72019Y162608D01*
X71837Y162705D01*
X71554Y162790D01*
X71554D01*
X71164Y162868D01*
X70870Y162897D01*
D02*
G37*
G36*
X61128Y77069D02*
X60511Y77035D01*
X59902Y76931D01*
X59308Y76760D01*
X58737Y76524D01*
X58197Y76225D01*
X57693Y75867D01*
X57232Y75456D01*
X56821Y74995D01*
X56706Y74834D01*
X55706D01*
X55592Y74995D01*
X55180Y75456D01*
X54720Y75867D01*
X54216Y76225D01*
X53675Y76524D01*
X53104Y76760D01*
X52511Y76931D01*
X51902Y77035D01*
X51285Y77069D01*
X50668Y77035D01*
X50059Y76931D01*
X49466Y76760D01*
X48895Y76524D01*
X48354Y76225D01*
X47850Y75867D01*
X47390Y75456D01*
X46978Y74995D01*
X46621Y74491D01*
X46322Y73951D01*
X46086Y73380D01*
X45915Y72786D01*
X45811Y72177D01*
X45776Y71561D01*
Y67750D01*
X45811Y67133D01*
X45915Y66524D01*
X46086Y65930D01*
X46322Y65359D01*
X46621Y64819D01*
X46978Y64315D01*
X47390Y63854D01*
X47850Y63443D01*
X48354Y63085D01*
X48895Y62787D01*
X49466Y62550D01*
X50059Y62379D01*
X50668Y62276D01*
X51285Y62241D01*
X51902Y62276D01*
X52511Y62379D01*
X53104Y62550D01*
X53675Y62787D01*
X54216Y63085D01*
X54720Y63443D01*
X55180Y63854D01*
X55592Y64315D01*
X55706Y64476D01*
X56706D01*
X56821Y64315D01*
X57232Y63854D01*
X57693Y63443D01*
X58197Y63085D01*
X58737Y62787D01*
X59308Y62550D01*
X59902Y62379D01*
X60511Y62276D01*
X61128Y62241D01*
X61744Y62276D01*
X62353Y62379D01*
X62947Y62550D01*
X63518Y62787D01*
X64058Y63085D01*
X64562Y63443D01*
X65023Y63854D01*
X65434Y64315D01*
X65792Y64819D01*
X66091Y65359D01*
X66327Y65930D01*
X66498Y66524D01*
X66602Y67133D01*
X66636Y67750D01*
Y71561D01*
X66602Y72177D01*
X66498Y72786D01*
X66327Y73380D01*
X66091Y73951D01*
X65792Y74491D01*
X65434Y74995D01*
X65023Y75456D01*
X64562Y75867D01*
X64058Y76225D01*
X63518Y76524D01*
X62947Y76760D01*
X62353Y76931D01*
X61744Y77035D01*
X61128Y77069D01*
D02*
G37*
G36*
X54967Y161932D02*
X52014D01*
X51547Y161895D01*
X51092Y161786D01*
X50659Y161607D01*
X50259Y161362D01*
X49903Y161058D01*
X49599Y160701D01*
X49354Y160302D01*
X49175Y159869D01*
X49065Y159414D01*
X49029Y158947D01*
Y155994D01*
X49065Y155527D01*
X49175Y155071D01*
X49354Y154638D01*
X49599Y154239D01*
X49903Y153883D01*
X50259Y153578D01*
X50659Y153333D01*
X51092Y153154D01*
X51547Y153045D01*
X52014Y153008D01*
X54967D01*
X55434Y153045D01*
X55889Y153154D01*
X56322Y153333D01*
X56722Y153578D01*
X57078Y153883D01*
X57382Y154239D01*
X57627Y154638D01*
X57806Y155071D01*
X57916Y155527D01*
X57952Y155994D01*
Y158947D01*
X57916Y159414D01*
X57806Y159869D01*
X57627Y160302D01*
X57382Y160701D01*
X57078Y161058D01*
X56722Y161362D01*
X56322Y161607D01*
X55889Y161786D01*
X55434Y161895D01*
X54967Y161932D01*
D02*
G37*
%LPD*%
G36*
X132321Y110527D02*
X132516Y110235D01*
X132807Y110041D01*
X133079Y109987D01*
X133680Y109990D01*
X134070Y109912D01*
X134401Y109691D01*
X134622Y109360D01*
X134699Y108970D01*
X134680D01*
X134697Y104970D01*
X134628Y104619D01*
X134429Y104321D01*
X134131Y104122D01*
X133780Y104052D01*
Y104070D01*
X132470Y104065D01*
Y104052D01*
X129580D01*
Y104027D01*
X129069Y104128D01*
X128636Y104418D01*
X128346Y104851D01*
X128244Y105362D01*
X128270Y108770D01*
X128304D01*
X128699Y109165D01*
X128738Y109360D01*
X128959Y109691D01*
X129290Y109912D01*
X129680Y109990D01*
Y109970D01*
X133079Y109987D01*
D01*
X131680Y109980D01*
X131570Y110870D01*
X132253D01*
X132321Y110527D01*
D02*
G37*
G36*
X132670Y150412D02*
X133001Y150191D01*
X133222Y149860D01*
X133300Y149470D01*
X133280D01*
X133298Y145470D01*
X133228Y145119D01*
X133029Y144821D01*
X132731Y144622D01*
X132380Y144552D01*
Y144570D01*
X128180Y144552D01*
X127829Y144622D01*
X127531Y144821D01*
X127332Y145119D01*
X127262Y145470D01*
X127280D01*
X127260Y149470D01*
X127338Y149860D01*
X127559Y150191D01*
X127890Y150412D01*
X128280Y150490D01*
Y150470D01*
X132280Y150490D01*
X132670Y150412D01*
D02*
G37*
G36*
X71260Y161312D02*
X71591Y161091D01*
X71812Y160760D01*
X71890Y160370D01*
X71870Y157370D01*
X71890D01*
X71812Y156980D01*
X71591Y156649D01*
X71260Y156428D01*
X70870Y156351D01*
Y156390D01*
X70480Y156312D01*
X70149Y156091D01*
X69928Y155760D01*
X69850Y155370D01*
X69835D01*
X69975Y153950D01*
X70389Y152585D01*
X71061Y151327D01*
X71967Y150224D01*
X80016Y142224D01*
X80033Y142240D01*
X80300Y141841D01*
X80394Y141370D01*
X80370Y124870D01*
X80339D01*
X80463Y123925D01*
X80828Y123044D01*
X81409Y122287D01*
X88163Y115577D01*
X88130Y115544D01*
X88928Y115010D01*
X89870Y114823D01*
X108370Y114870D01*
Y114900D01*
X108955Y114783D01*
X109451Y114452D01*
X109783Y113955D01*
X109899Y113370D01*
X109870Y109370D01*
X109899D01*
X109783Y108785D01*
X109451Y108289D01*
X108955Y107957D01*
X108370Y107841D01*
X103870Y107870D01*
Y107851D01*
X103480Y107928D01*
X103149Y108149D01*
X102928Y108480D01*
X102850Y108870D01*
X102890D01*
X102812Y109260D01*
X102591Y109591D01*
X102260Y109812D01*
X101870Y109890D01*
X87370Y109870D01*
Y109823D01*
X86428Y110010D01*
X85629Y110544D01*
X76370Y119870D01*
X76349Y119849D01*
X75802Y120563D01*
X75458Y121393D01*
X75341Y122284D01*
X75370Y134728D01*
X75419D01*
X75225Y136688D01*
X74654Y138573D01*
X73725Y140311D01*
X72475Y141833D01*
X65370Y148870D01*
X65346Y148846D01*
X64969Y149411D01*
X64837Y150077D01*
X64870Y153663D01*
X64903D01*
X64771Y154329D01*
X64394Y154894D01*
X64370Y154850D01*
X63980Y154928D01*
X63649Y155149D01*
X63428Y155480D01*
X63350Y155870D01*
X63370Y160370D01*
X63350D01*
X63428Y160760D01*
X63649Y161091D01*
X63980Y161312D01*
X64370Y161390D01*
X70870Y161370D01*
Y161390D01*
X71260Y161312D01*
D02*
G37*
G36*
X152494Y119097D02*
X153024Y118743D01*
X153377Y118214D01*
X153501Y117590D01*
X153491Y116146D01*
X153498Y116129D01*
X153491D01*
X153477Y114187D01*
X153504Y106377D01*
X153371Y105711D01*
X152994Y105146D01*
X152970Y105170D01*
X144337Y96476D01*
X143618Y95996D01*
X142770Y95828D01*
Y95870D01*
X127419Y95830D01*
X126619Y95989D01*
X125942Y96442D01*
X125970Y96470D01*
X118109Y104278D01*
X117682Y104917D01*
X117532Y105670D01*
X117570D01*
X117532Y107323D01*
X117682Y108074D01*
X118094Y108691D01*
X117997Y108711D01*
X117765Y108865D01*
X117611Y109097D01*
X117556Y109370D01*
X117590D01*
X117512Y109760D01*
X117291Y110091D01*
X116960Y110312D01*
X116570Y110390D01*
X116370Y110370D01*
Y110331D01*
X115590Y110486D01*
X114928Y110928D01*
X114486Y111590D01*
X114331Y112370D01*
X114370Y115370D01*
X114335D01*
X114474Y116072D01*
X114872Y116668D01*
X115468Y117066D01*
X116170Y117205D01*
X120670Y117170D01*
Y117196D01*
X121177Y117095D01*
X121607Y116807D01*
X121895Y116377D01*
X121996Y115870D01*
X121970Y108670D01*
X121942Y108474D01*
X122054Y107336D01*
X122386Y106242D01*
X122925Y105234D01*
X123650Y104350D01*
X123670Y104370D01*
X127304Y100701D01*
X127909Y100237D01*
X128614Y99945D01*
X129370Y99845D01*
Y99870D01*
X140939Y99847D01*
X141652Y99940D01*
X142316Y100216D01*
X142887Y100653D01*
X142870Y100670D01*
X148708Y106476D01*
X149134Y107031D01*
X149402Y107677D01*
X149493Y108370D01*
X149470D01*
X149488Y112370D01*
X149418Y112721D01*
X149219Y113019D01*
X148921Y113218D01*
X148615Y113279D01*
X148570Y113279D01*
Y113270D01*
X147770Y113252D01*
Y113234D01*
X147411Y113306D01*
X147107Y113509D01*
X146904Y113813D01*
X146833Y114172D01*
X146851Y118326D01*
X146889Y118366D01*
X146928Y118560D01*
X147149Y118891D01*
X147480Y119112D01*
X147655Y119147D01*
X147675Y119167D01*
X147716Y119159D01*
X147870Y119190D01*
Y119170D01*
X151870Y119190D01*
Y119221D01*
X152494Y119097D01*
D02*
G37*
G36*
X69455Y126283D02*
X69951Y125952D01*
X70283Y125455D01*
X70399Y124870D01*
X70370Y120870D01*
X70323D01*
X70510Y119928D01*
X71044Y119130D01*
X84370Y105870D01*
X84349Y105849D01*
X85062Y105302D01*
X85893Y104958D01*
X86784Y104841D01*
X91370Y104870D01*
Y104917D01*
X92312Y104730D01*
X93111Y104196D01*
X103516Y93724D01*
X103500Y93707D01*
X103899Y93440D01*
X104370Y93346D01*
X111370Y93370D01*
Y93400D01*
X111955Y93283D01*
X112452Y92952D01*
X112783Y92455D01*
X112899Y91870D01*
X112870Y87870D01*
X112899D01*
X112783Y87285D01*
X112452Y86789D01*
X111955Y86457D01*
X111370Y86341D01*
X107370Y86370D01*
Y86351D01*
X106980Y86428D01*
X106649Y86649D01*
X106428Y86980D01*
X106351Y87370D01*
X106390D01*
X106312Y87760D01*
X106091Y88091D01*
X105760Y88312D01*
X105370Y88390D01*
X102870Y88370D01*
Y88323D01*
X101928Y88510D01*
X101129Y89044D01*
X91370Y98870D01*
X91391Y98891D01*
X90678Y99438D01*
X89847Y99782D01*
X88956Y99900D01*
X84370Y99870D01*
Y99839D01*
X83425Y99963D01*
X82544Y100328D01*
X81787Y100909D01*
X64153Y118587D01*
X64139Y118574D01*
X63926Y118893D01*
X63851Y119270D01*
X63870Y124870D01*
X63841D01*
X63957Y125455D01*
X64289Y125952D01*
X64785Y126283D01*
X65370Y126400D01*
X68870Y126370D01*
Y126400D01*
X69455Y126283D01*
D02*
G37*
G36*
X329535Y163870D02*
Y163890D01*
X329926Y163812D01*
X330256Y163591D01*
X330477Y163260D01*
X330555Y162870D01*
X330535Y154370D01*
X330575D01*
X330419Y153590D01*
X329977Y152928D01*
X329316Y152486D01*
X328535Y152331D01*
Y152390D01*
X328145Y152312D01*
X327815Y152091D01*
X327593Y151760D01*
X327516Y151370D01*
X327535Y147870D01*
X327565D01*
X327448Y147285D01*
X327117Y146789D01*
X326621Y146457D01*
X326035Y146341D01*
X323235Y146370D01*
Y146349D01*
X322806Y146434D01*
X322442Y146677D01*
X322199Y147041D01*
X322114Y147470D01*
X322135Y162470D01*
X322108D01*
X322217Y163016D01*
X322526Y163479D01*
X322989Y163789D01*
X323535Y163898D01*
X329535Y163870D01*
D02*
G37*
G36*
X344789Y172317D02*
X345377Y172217D01*
X345951Y172052D01*
X346503Y171824D01*
X347025Y171535D01*
X347512Y171189D01*
X347957Y170792D01*
X348355Y170347D01*
X348588Y170018D01*
X348311Y169057D01*
X347334Y168652D01*
X338929D01*
X338319Y168618D01*
X337717Y168515D01*
X337131Y168346D01*
X336566Y168113D01*
X336032Y167817D01*
X335534Y167464D01*
X335079Y167057D01*
X334672Y166602D01*
X334318Y166103D01*
X334023Y165569D01*
X333789Y165005D01*
X333620Y164418D01*
X333518Y163816D01*
X333484Y163206D01*
X333518Y162597D01*
X333620Y161995D01*
X333789Y161408D01*
X334023Y160844D01*
X334318Y160309D01*
X334672Y159811D01*
X335079Y159356D01*
X335315Y159144D01*
X334958Y158210D01*
X332759D01*
X332053Y158918D01*
X332062Y162867D01*
X332062Y162868D01*
X332062Y162870D01*
X332048Y163015D01*
X332034Y163161D01*
X332033Y163162D01*
X332033Y163164D01*
X331956Y163554D01*
X331870Y163837D01*
X331731Y164098D01*
X331731Y164098D01*
X331510Y164428D01*
X331322Y164657D01*
X331094Y164844D01*
X330763Y165065D01*
X330763Y165065D01*
X330684Y165108D01*
X330502Y165205D01*
X330220Y165290D01*
X330220D01*
X329830Y165368D01*
X329535Y165397D01*
X329345Y165378D01*
X324475Y165401D01*
X324176Y165472D01*
X323706Y165509D01*
X323547D01*
Y165575D01*
X317397D01*
X317397Y165575D01*
Y165575D01*
X316459Y165818D01*
X316459D01*
X316560Y166239D01*
X316594Y166670D01*
X316560Y167102D01*
X316459Y167523D01*
X316293Y167922D01*
X316067Y168291D01*
X315786Y168621D01*
X315457Y168902D01*
X315088Y169128D01*
X314688Y169294D01*
X314267Y169395D01*
X313835Y169429D01*
X313404Y169395D01*
X312983Y169294D01*
X312583Y169128D01*
X312214Y168902D01*
X311885Y168621D01*
X311604Y168291D01*
X311378Y167922D01*
X311212Y167523D01*
X311111Y167102D01*
X311077Y166670D01*
X311111Y166239D01*
X311212Y165818D01*
X311212D01*
X310704Y165575D01*
X310704D01*
Y159425D01*
X316853D01*
Y159425D01*
X316853D01*
X316853Y159425D01*
X317397D01*
Y159425D01*
X319916D01*
X320623Y158718D01*
X320607Y147472D01*
X320607Y147471D01*
X320607Y147470D01*
X320621Y147325D01*
X320635Y147178D01*
X320636Y147177D01*
X320636Y147176D01*
X320721Y146747D01*
Y146747D01*
X320807Y146464D01*
X320946Y146203D01*
X321189Y145840D01*
X321189Y145840D01*
X321336Y145661D01*
X321377Y145611D01*
X321377D01*
Y145611D01*
X321605Y145424D01*
X321969Y145181D01*
X322229Y145041D01*
X322512Y144956D01*
X322512D01*
X322941Y144870D01*
X322941Y144870D01*
X323235Y144841D01*
X323235D01*
D01*
X323432Y144861D01*
X324028Y144854D01*
X324513Y143979D01*
X324478Y143922D01*
X324312Y143523D01*
X324211Y143102D01*
X324177Y142670D01*
X324211Y142239D01*
X324312Y141818D01*
X324478Y141418D01*
X324704Y141049D01*
X324985Y140719D01*
X325314Y140438D01*
X325683Y140212D01*
X326083Y140047D01*
X326504Y139945D01*
X326935Y139912D01*
X327093Y139766D01*
X326995Y138771D01*
X326709Y138596D01*
X326439Y138366D01*
X325340Y137266D01*
X325110Y136997D01*
X324924Y136695D01*
X324888Y136608D01*
X324704Y136391D01*
X324478Y136022D01*
X324312Y135623D01*
X324211Y135202D01*
X324177Y134770D01*
X324211Y134339D01*
X324312Y133918D01*
X324478Y133518D01*
X324704Y133149D01*
X324985Y132819D01*
X325314Y132538D01*
X325683Y132312D01*
X326083Y132147D01*
X326504Y132045D01*
X326935Y132012D01*
X327367Y132045D01*
X327788Y132147D01*
X328188Y132312D01*
X328557Y132538D01*
X328886Y132819D01*
X329167Y133149D01*
X329176Y133163D01*
X340035D01*
Y140494D01*
D01*
Y140494D01*
X340035Y140494D01*
Y141037D01*
X340035D01*
Y148368D01*
X329040D01*
X329030Y150171D01*
X329735Y150880D01*
X340035D01*
Y157761D01*
X348772D01*
X348789Y157762D01*
X349516Y157075D01*
X349513Y124456D01*
X348786Y123769D01*
X348772Y123770D01*
X338929D01*
X338319Y123736D01*
X337717Y123634D01*
X337131Y123464D01*
X336566Y123231D01*
X336032Y122935D01*
X335534Y122582D01*
X335079Y122175D01*
X334672Y121720D01*
X334318Y121222D01*
X334023Y120687D01*
X333789Y120123D01*
X333620Y119536D01*
X333518Y118934D01*
X333484Y118324D01*
X333518Y117715D01*
X333620Y117113D01*
X333789Y116526D01*
X334023Y115962D01*
X334318Y115427D01*
X334672Y114929D01*
X335079Y114474D01*
X335534Y114067D01*
X336032Y113714D01*
X336566Y113418D01*
X337131Y113184D01*
X337717Y113015D01*
X338319Y112913D01*
X338929Y112879D01*
X348772D01*
X348786Y112880D01*
X349512Y112193D01*
X349508Y49213D01*
X349508D01*
X349515Y49205D01*
X349484Y48650D01*
X349390Y48094D01*
X349234Y47552D01*
X349018Y47031D01*
X348745Y46538D01*
X348419Y46078D01*
X348043Y45658D01*
X347623Y45282D01*
X347163Y44956D01*
X346670Y44683D01*
X346149Y44467D01*
X345607Y44311D01*
X345051Y44217D01*
X344488Y44185D01*
X226378Y44193D01*
Y44193D01*
X226370Y44185D01*
X225815Y44217D01*
X225259Y44311D01*
X224717Y44467D01*
X224197Y44683D01*
X223703Y44956D01*
X223243Y45282D01*
X222823Y45658D01*
X222447Y46078D01*
X222121Y46538D01*
X221848Y47031D01*
X221633Y47552D01*
X221476Y48094D01*
X221382Y48650D01*
X221350Y49213D01*
X221358Y167323D01*
X221358D01*
X221351Y167331D01*
X221382Y167886D01*
X221476Y168442D01*
X221633Y168983D01*
X221848Y169504D01*
X222121Y169998D01*
X222447Y170457D01*
X222823Y170878D01*
X223243Y171254D01*
X223703Y171580D01*
X224197Y171853D01*
X224717Y172068D01*
X225259Y172224D01*
X225815Y172319D01*
X226370Y172350D01*
X226378Y172343D01*
Y172343D01*
X226378Y172343D01*
X344193D01*
Y172343D01*
X344201Y172350D01*
X344789Y172317D01*
D02*
G37*
%LPC*%
G36*
X267821Y77069D02*
X267204Y77035D01*
X266595Y76931D01*
X266001Y76760D01*
X265430Y76524D01*
X264890Y76225D01*
X264386Y75867D01*
X263925Y75456D01*
X263514Y74995D01*
X263399Y74834D01*
X262399D01*
X262285Y74995D01*
X261873Y75456D01*
X261413Y75867D01*
X260909Y76225D01*
X260368Y76524D01*
X259797Y76760D01*
X259204Y76931D01*
X258595Y77035D01*
X257978Y77069D01*
X257361Y77035D01*
X256752Y76931D01*
X256159Y76760D01*
X255588Y76524D01*
X255047Y76225D01*
X254543Y75867D01*
X254083Y75456D01*
X253671Y74995D01*
X253314Y74491D01*
X253015Y73951D01*
X252778Y73380D01*
X252607Y72786D01*
X252504Y72177D01*
X252469Y71561D01*
Y67750D01*
X252504Y67133D01*
X252607Y66524D01*
X252778Y65930D01*
X253015Y65359D01*
X253314Y64819D01*
X253671Y64315D01*
X254083Y63854D01*
X254543Y63443D01*
X255047Y63085D01*
X255588Y62787D01*
X256159Y62550D01*
X256752Y62379D01*
X257361Y62276D01*
X257978Y62241D01*
X258595Y62276D01*
X259204Y62379D01*
X259797Y62550D01*
X260368Y62787D01*
X260909Y63085D01*
X261413Y63443D01*
X261873Y63854D01*
X262285Y64315D01*
X262399Y64476D01*
X263399D01*
X263514Y64315D01*
X263925Y63854D01*
X264386Y63443D01*
X264890Y63085D01*
X265430Y62787D01*
X266001Y62550D01*
X266595Y62379D01*
X267204Y62276D01*
X267821Y62241D01*
X268437Y62276D01*
X269046Y62379D01*
X269640Y62550D01*
X270211Y62787D01*
X270751Y63085D01*
X271255Y63443D01*
X271716Y63854D01*
X272127Y64315D01*
X272485Y64819D01*
X272784Y65359D01*
X273020Y65930D01*
X273191Y66524D01*
X273294Y67133D01*
X273329Y67750D01*
Y71561D01*
X273294Y72177D01*
X273191Y72786D01*
X273020Y73380D01*
X272784Y73951D01*
X272485Y74491D01*
X272127Y74995D01*
X271716Y75456D01*
X271255Y75867D01*
X270751Y76225D01*
X270211Y76524D01*
X269640Y76760D01*
X269046Y76931D01*
X268437Y77035D01*
X267821Y77069D01*
D02*
G37*
G36*
X232132Y127732D02*
X229180D01*
X228713Y127695D01*
X228257Y127586D01*
X227824Y127407D01*
X227425Y127162D01*
X227068Y126858D01*
X226764Y126501D01*
X226519Y126102D01*
X226340Y125669D01*
X226231Y125214D01*
X226194Y124747D01*
Y121794D01*
X226231Y121327D01*
X226340Y120871D01*
X226519Y120438D01*
X226764Y120039D01*
X227068Y119683D01*
X227425Y119378D01*
X227824Y119133D01*
X228257Y118954D01*
X228713Y118845D01*
X229180Y118808D01*
X232132D01*
X232599Y118845D01*
X233055Y118954D01*
X233488Y119133D01*
X233887Y119378D01*
X234243Y119683D01*
X234548Y120039D01*
X234792Y120438D01*
X234972Y120871D01*
X235081Y121327D01*
X235118Y121794D01*
Y124747D01*
X235081Y125214D01*
X234972Y125669D01*
X234792Y126102D01*
X234548Y126501D01*
X234243Y126858D01*
X233887Y127162D01*
X233488Y127407D01*
X233055Y127586D01*
X232599Y127695D01*
X232132Y127732D01*
D02*
G37*
G36*
X246035Y127907D02*
D01*
X246035D01*
X245761Y127880D01*
X242548Y127907D01*
X242542Y127906D01*
X242535Y127907D01*
X242395Y127893D01*
X242254Y127880D01*
X242248Y127878D01*
X242241Y127878D01*
X241656Y127761D01*
X241373Y127676D01*
X241113Y127536D01*
X240617Y127205D01*
X240388Y127017D01*
Y127017D01*
X240388D01*
X240201Y126789D01*
X239869Y126293D01*
X239730Y126032D01*
X239644Y125749D01*
X239528Y125164D01*
X239499Y124870D01*
Y124870D01*
D01*
X239527Y124582D01*
X239509Y119275D01*
X239510Y119273D01*
X239509Y119270D01*
X239524Y119126D01*
X239537Y118981D01*
X239538Y118979D01*
X239538Y118976D01*
X239613Y118599D01*
Y118599D01*
X239633Y118533D01*
X239699Y118316D01*
X239790Y118147D01*
X239838Y118056D01*
X240052Y117736D01*
X240052Y117736D01*
X240052Y117736D01*
X240156Y117609D01*
X240239Y117508D01*
X240239Y117508D01*
X240240Y117508D01*
X240371Y117400D01*
X240386Y117387D01*
X257886Y99844D01*
X257962Y99781D01*
X258035Y99713D01*
X258792Y99132D01*
X258834Y99106D01*
X258872Y99075D01*
X258959Y99028D01*
X259043Y98976D01*
X259089Y98959D01*
X259132Y98936D01*
X260013Y98571D01*
X260061Y98556D01*
X260106Y98536D01*
X260202Y98514D01*
X260296Y98485D01*
X260345Y98480D01*
X260393Y98469D01*
X261339Y98344D01*
X261437Y98341D01*
X261535Y98332D01*
X261585Y98336D01*
X261634Y98335D01*
X261731Y98351D01*
X261829Y98361D01*
X261843Y98365D01*
X266027Y98392D01*
X266619Y98314D01*
X267083Y98122D01*
X267423Y97860D01*
X267466Y97808D01*
X277225Y87982D01*
X277227Y87980D01*
X277229Y87978D01*
X277341Y87886D01*
X277453Y87793D01*
X277455Y87792D01*
X277457Y87791D01*
X278256Y87257D01*
X278256Y87257D01*
X278377Y87192D01*
X278517Y87118D01*
X278799Y87032D01*
X278799D01*
X279741Y86844D01*
X280035Y86816D01*
X280329Y86844D01*
X280399Y86866D01*
X282077Y86879D01*
X282115Y86686D01*
X282201Y86403D01*
X282340Y86142D01*
X282340Y86142D01*
X282561Y85812D01*
X282749Y85583D01*
X282977Y85396D01*
X283308Y85175D01*
X283308Y85175D01*
X283387Y85133D01*
X283568Y85036D01*
X283851Y84950D01*
X283851D01*
X284241Y84872D01*
X284535Y84843D01*
X284720Y84861D01*
X288524Y84834D01*
X288530Y84834D01*
X288535Y84833D01*
X288677Y84847D01*
X288819Y84860D01*
X288824Y84862D01*
X288829Y84862D01*
X289415Y84979D01*
X289698Y85065D01*
X289958Y85204D01*
X290454Y85535D01*
X290683Y85723D01*
Y85723D01*
X290683D01*
X290870Y85951D01*
X291202Y86447D01*
X291341Y86708D01*
X291427Y86991D01*
X291543Y87576D01*
X291572Y87870D01*
Y87870D01*
D01*
X291545Y88147D01*
X291572Y91859D01*
X291571Y91865D01*
X291572Y91870D01*
X291558Y92012D01*
X291545Y92153D01*
X291544Y92159D01*
X291543Y92164D01*
X291427Y92749D01*
X291341Y93032D01*
X291202Y93293D01*
X290870Y93789D01*
X290683Y94017D01*
X290683D01*
Y94017D01*
X290454Y94205D01*
X289958Y94536D01*
X289698Y94676D01*
X289415Y94761D01*
X288829Y94878D01*
X288535Y94907D01*
D01*
X288535D01*
X288241Y94878D01*
X288237Y94876D01*
X281683Y94854D01*
X271345Y105259D01*
X271343Y105260D01*
X271342Y105262D01*
X271229Y105355D01*
X271117Y105447D01*
X271115Y105448D01*
X271113Y105450D01*
X270315Y105983D01*
X270315Y105983D01*
X270194Y106048D01*
X270054Y106123D01*
X269772Y106208D01*
X269772D01*
X268829Y106396D01*
X268535Y106425D01*
X268241Y106396D01*
X268173Y106375D01*
X264044Y106349D01*
X263452Y106426D01*
X262988Y106619D01*
X262647Y106880D01*
X262601Y106936D01*
X262600Y106937D01*
X262598Y106939D01*
X249379Y120092D01*
X249095Y120516D01*
X249037Y120808D01*
X249043Y120859D01*
X249072Y124859D01*
X249072Y124865D01*
X249072Y124870D01*
X249058Y125012D01*
X249045Y125153D01*
X249044Y125159D01*
X249043Y125164D01*
X248927Y125749D01*
X248841Y126032D01*
X248702Y126293D01*
X248370Y126789D01*
X248183Y127017D01*
X248183D01*
Y127017D01*
X247954Y127205D01*
X247458Y127536D01*
X247198Y127676D01*
X246915Y127761D01*
X246329Y127878D01*
X246035Y127907D01*
D02*
G37*
G36*
X309445Y151997D02*
X309441Y151997D01*
X309438Y151997D01*
X305635Y151978D01*
X305445Y151997D01*
X305151Y151968D01*
X304761Y151890D01*
X304478Y151805D01*
X304218Y151665D01*
X304218Y151665D01*
X303887Y151444D01*
X303659Y151257D01*
X303471Y151028D01*
X303250Y150698D01*
X303250Y150698D01*
X303208Y150619D01*
X303111Y150437D01*
X303025Y150154D01*
Y150154D01*
X302947Y149764D01*
X302947Y149760D01*
X302946Y149757D01*
X302933Y149614D01*
X302918Y149470D01*
X302919Y149466D01*
X302918Y149463D01*
X302937Y145641D01*
X302920Y145470D01*
X302949Y145176D01*
X303019Y144825D01*
Y144825D01*
X303071Y144653D01*
X303105Y144542D01*
X303105Y144542D01*
D01*
X303123Y144508D01*
X303244Y144281D01*
X303244Y144281D01*
X303443Y143984D01*
X303443Y143984D01*
X303631Y143755D01*
X303631D01*
Y143755D01*
X303680Y143714D01*
X303859Y143568D01*
X303928Y143522D01*
Y108743D01*
X303903Y105374D01*
X303903Y105368D01*
X303903Y105362D01*
X303917Y105221D01*
X303929Y105079D01*
X303931Y105074D01*
X303931Y105068D01*
X304001Y104718D01*
X303263Y104323D01*
X303094Y104272D01*
X301620Y105746D01*
X301350Y106076D01*
X300951Y106822D01*
X300705Y107632D01*
X300625Y108441D01*
X300627Y108456D01*
X300632Y108561D01*
X300643Y108665D01*
X300668Y115865D01*
X300668Y115867D01*
X300668Y115870D01*
X300654Y116015D01*
X300640Y116159D01*
X300640Y116162D01*
X300639Y116164D01*
X300538Y116671D01*
X300512Y116757D01*
X300452Y116954D01*
X300313Y117215D01*
X300026Y117645D01*
X300026Y117645D01*
X299879Y117823D01*
X299838Y117873D01*
X299838D01*
Y117873D01*
X299816Y117892D01*
X299610Y118061D01*
X299610Y118061D01*
X299180Y118348D01*
X299180Y118348D01*
X299146Y118366D01*
X298920Y118487D01*
X298723Y118547D01*
X298637Y118573D01*
X298130Y118674D01*
X297835Y118703D01*
D01*
X297835D01*
X297596Y118679D01*
X293347Y118713D01*
X293341Y118712D01*
X293335Y118713D01*
X293194Y118699D01*
X293053Y118686D01*
X293047Y118684D01*
X293041Y118684D01*
X292339Y118544D01*
X292339D01*
X292056Y118458D01*
X291796Y118319D01*
X291200Y117921D01*
X291200Y117921D01*
X290972Y117734D01*
X290852Y117587D01*
X290785Y117505D01*
X290784Y117505D01*
X290387Y116910D01*
X290387Y116910D01*
X290265Y116683D01*
X290247Y116649D01*
D01*
X290247Y116649D01*
X290214Y116538D01*
X290162Y116367D01*
Y116366D01*
X290022Y115664D01*
X289993Y115370D01*
X290022Y115076D01*
X290024Y115069D01*
X289989Y112390D01*
X289990Y112380D01*
X289989Y112370D01*
X290002Y112233D01*
X290014Y112095D01*
X290017Y112086D01*
X290018Y112076D01*
X290173Y111296D01*
Y111296D01*
X290259Y111013D01*
X290333Y110874D01*
X290398Y110752D01*
X290398Y110752D01*
X290840Y110091D01*
X291028Y109862D01*
X291028D01*
Y109862D01*
X291256Y109675D01*
X291918Y109233D01*
X291918Y109233D01*
X292039Y109168D01*
X292178Y109094D01*
X292461Y109008D01*
X292461D01*
X293228Y108855D01*
Y107660D01*
X293219Y107617D01*
X293218Y107600D01*
X293213Y107584D01*
X293203Y107453D01*
X293191Y107323D01*
X293192Y107306D01*
X293191Y107289D01*
X293221Y105970D01*
X293219Y105964D01*
X293190Y105670D01*
D01*
Y105670D01*
X293219Y105376D01*
X293369Y104622D01*
X293455Y104340D01*
X293594Y104079D01*
X293594Y104079D01*
X293683Y103946D01*
X293698Y103916D01*
X293953Y103535D01*
X293974Y103510D01*
X294021Y103440D01*
X294023Y103438D01*
X294024Y103436D01*
X294117Y103324D01*
X294209Y103212D01*
X294211Y103210D01*
X294212Y103208D01*
X297845Y99601D01*
X301913Y95532D01*
X302041Y95376D01*
X302270Y95188D01*
X302334Y95146D01*
X302400Y95087D01*
X302782Y94832D01*
X302861Y94793D01*
X302947Y94736D01*
X302947Y94736D01*
X303208Y94596D01*
X303491Y94511D01*
X303618Y94485D01*
X303628Y94482D01*
X304078Y94393D01*
X304087Y94392D01*
X304290Y94352D01*
X304292Y94351D01*
X304294Y94351D01*
X304437Y94337D01*
X304584Y94323D01*
X304586Y94323D01*
X304588Y94323D01*
X319599Y94362D01*
X319641Y94349D01*
X319935Y94320D01*
D01*
X319935D01*
X320230Y94349D01*
X320230Y94349D01*
X320425Y94388D01*
X320493Y94393D01*
X320493D01*
X320493Y94393D01*
X320493Y94393D01*
X320943Y94482D01*
X321008Y94504D01*
X321077Y94518D01*
X321360Y94604D01*
X321621Y94743D01*
X321657Y94767D01*
X321789Y94832D01*
X322171Y95087D01*
X322281Y95184D01*
X322339Y95223D01*
X322341Y95225D01*
X322344Y95226D01*
X322455Y95318D01*
X322568Y95411D01*
X322569Y95413D01*
X322571Y95414D01*
X327076Y99950D01*
X331116Y103990D01*
X331119Y103994D01*
X331225Y104081D01*
X331412Y104309D01*
X331790Y104874D01*
X331790Y104874D01*
X331919Y105116D01*
X331929Y105134D01*
D01*
X331929Y105134D01*
X331963Y105245D01*
X332015Y105417D01*
Y105417D01*
X332147Y106083D01*
X332147Y106086D01*
X332148Y106088D01*
X332162Y106233D01*
X332176Y106377D01*
X332176Y106380D01*
X332176Y106382D01*
X332149Y114184D01*
X332163Y116048D01*
X332171Y116129D01*
D01*
Y116129D01*
X332164Y116198D01*
X332174Y117579D01*
X332173Y117584D01*
X332174Y117590D01*
X332160Y117731D01*
X332147Y117873D01*
X332146Y117878D01*
X332145Y117884D01*
X332021Y118508D01*
X331935Y118791D01*
X331796Y119051D01*
X331796Y119051D01*
X331442Y119581D01*
X331442Y119581D01*
X331296Y119759D01*
X331255Y119809D01*
X331255D01*
Y119809D01*
X331205Y119850D01*
X331026Y119997D01*
X331026Y119997D01*
X330497Y120350D01*
X330497Y120350D01*
X330237Y120489D01*
X329954Y120575D01*
X329329Y120699D01*
X329035Y120728D01*
X328741Y120699D01*
X328729Y120695D01*
X325225Y120678D01*
X325035Y120697D01*
X324741Y120668D01*
X324709Y120662D01*
X324687Y120659D01*
X324546Y120645D01*
X324539Y120643D01*
X324532Y120642D01*
X324399Y120600D01*
X324392Y120598D01*
X324351Y120590D01*
X324068Y120505D01*
X323808Y120365D01*
X323808Y120365D01*
X323477Y120144D01*
X323249Y119957D01*
X323061Y119728D01*
X322840Y119398D01*
X322840Y119398D01*
X322798Y119319D01*
X322701Y119137D01*
X322639Y118934D01*
X322626Y118909D01*
X322623Y118899D01*
X322618Y118890D01*
X322579Y118758D01*
X322539Y118627D01*
X322538Y118616D01*
X322535Y118606D01*
X322523Y118470D01*
X322509Y118333D01*
X322491Y114179D01*
X322491Y114175D01*
X322491Y114172D01*
X322505Y114029D01*
X322518Y113884D01*
X322519Y113881D01*
X322519Y113878D01*
X322591Y113519D01*
Y113519D01*
X322631Y113388D01*
X322677Y113236D01*
X322798Y113010D01*
X322816Y112976D01*
X323019Y112672D01*
X323019Y112672D01*
X323207Y112443D01*
X323207D01*
Y112443D01*
X323435Y112256D01*
X323435Y112256D01*
X323739Y112053D01*
X323739Y112053D01*
X323982Y111923D01*
X324000Y111913D01*
D01*
X324000Y111913D01*
X324111Y111880D01*
X324283Y111828D01*
X324283D01*
X324641Y111756D01*
X324641Y111756D01*
X324935Y111727D01*
X325128Y111553D01*
Y108293D01*
X325099Y108070D01*
X324983Y107791D01*
X324940Y107735D01*
X318789Y101584D01*
X318721Y101532D01*
X318424Y101409D01*
X318186Y101378D01*
X306442D01*
X306375Y101386D01*
X305918Y102276D01*
X306101Y102618D01*
X306451Y102549D01*
X306745Y102520D01*
D01*
X306745D01*
X307006Y102545D01*
X309635D01*
X309764Y102558D01*
X310774Y102562D01*
X310945Y102545D01*
X311239Y102574D01*
X311590Y102644D01*
X311591D01*
X311762Y102696D01*
X311873Y102730D01*
X311873Y102730D01*
D01*
X311907Y102748D01*
X312134Y102869D01*
X312134Y102869D01*
X312432Y103068D01*
X312432Y103068D01*
X312660Y103255D01*
Y103255D01*
X312660D01*
X312701Y103305D01*
X312847Y103484D01*
X313046Y103781D01*
X313046Y103781D01*
X313168Y104008D01*
X313186Y104042D01*
D01*
X313186Y104042D01*
X313219Y104153D01*
X313271Y104325D01*
Y104325D01*
X313341Y104676D01*
X313341Y104679D01*
X313342Y104683D01*
X313356Y104827D01*
X313370Y104970D01*
X313370Y104973D01*
X313370Y104977D01*
X313353Y108780D01*
X313372Y108970D01*
X313343Y109264D01*
X313265Y109654D01*
X313180Y109937D01*
X313040Y110198D01*
X313040Y110198D01*
X312819Y110528D01*
X312632Y110757D01*
X312404Y110944D01*
X312073Y111165D01*
X312073Y111165D01*
X311994Y111208D01*
X311812Y111305D01*
X311529Y111390D01*
X311529D01*
X311139Y111468D01*
X311136Y111468D01*
X311132Y111469D01*
X311111Y111471D01*
X311091Y111477D01*
X310968Y111485D01*
X310943Y111487D01*
Y143509D01*
X311032Y143568D01*
X311032Y143568D01*
X311260Y143755D01*
Y143755D01*
X311260D01*
X311301Y143805D01*
X311447Y143984D01*
X311646Y144281D01*
X311646Y144281D01*
X311768Y144508D01*
X311786Y144542D01*
D01*
X311786Y144542D01*
X311819Y144653D01*
X311871Y144825D01*
Y144825D01*
X311941Y145176D01*
X311942Y145179D01*
X311942Y145183D01*
X311956Y145327D01*
X311970Y145470D01*
X311970Y145473D01*
X311970Y145477D01*
X311953Y149280D01*
X311972Y149470D01*
X311943Y149764D01*
X311865Y150154D01*
X311780Y150437D01*
X311641Y150698D01*
X311640Y150698D01*
X311419Y151028D01*
X311232Y151257D01*
X311004Y151444D01*
X310673Y151665D01*
X310673Y151665D01*
X310594Y151708D01*
X310412Y151805D01*
X310129Y151890D01*
X310129D01*
X309739Y151968D01*
X309736Y151968D01*
X309732Y151969D01*
X309589Y151983D01*
X309445Y151997D01*
D02*
G37*
G36*
X248035Y162897D02*
X247843Y162878D01*
X241540Y162897D01*
X241538Y162897D01*
X241535Y162897D01*
X241390Y162883D01*
X241246Y162869D01*
X241244Y162868D01*
X241241Y162868D01*
X240851Y162790D01*
X240568Y162705D01*
X240308Y162565D01*
X240308Y162565D01*
X239977Y162344D01*
X239749Y162157D01*
X239561Y161928D01*
X239340Y161598D01*
X239340Y161598D01*
X239298Y161519D01*
X239201Y161337D01*
X239115Y161054D01*
Y161054D01*
X239037Y160664D01*
X239009Y160370D01*
X239027Y160180D01*
X239009Y155877D01*
X239009Y155873D01*
X239009Y155870D01*
X239023Y155727D01*
X239036Y155582D01*
X239037Y155579D01*
X239037Y155576D01*
X239115Y155186D01*
X239201Y154903D01*
X239340Y154642D01*
X239340Y154642D01*
X239561Y154312D01*
X239749Y154083D01*
X239977Y153896D01*
X240308Y153675D01*
X240308Y153675D01*
X240387Y153633D01*
X240527Y153558D01*
X240495Y150091D01*
X240495Y150084D01*
X240495Y150077D01*
X240509Y149937D01*
X240521Y149797D01*
X240523Y149790D01*
X240524Y149783D01*
X240656Y149117D01*
Y149117D01*
X240708Y148945D01*
X240742Y148834D01*
X240742Y148834D01*
D01*
X240752Y148816D01*
X240881Y148574D01*
X240881Y148574D01*
X241259Y148009D01*
X241259Y148009D01*
X241300Y147959D01*
X241446Y147781D01*
X241674Y147593D01*
X241692Y147583D01*
X248525Y140817D01*
X249631Y139469D01*
X250420Y137994D01*
X250905Y136393D01*
X251049Y134937D01*
X251043Y134877D01*
X251028Y134731D01*
X250999Y122288D01*
X251008Y122188D01*
X251012Y122088D01*
X251129Y121196D01*
X251140Y121148D01*
X251145Y121099D01*
X251174Y121005D01*
X251196Y120908D01*
X251216Y120863D01*
X251231Y120816D01*
X251575Y119986D01*
X251598Y119942D01*
X251616Y119896D01*
X251668Y119812D01*
X251714Y119725D01*
X251745Y119687D01*
X251771Y119645D01*
X252319Y118932D01*
X252386Y118860D01*
X252449Y118783D01*
X252487Y118752D01*
X252521Y118716D01*
X252601Y118659D01*
X252673Y118600D01*
X261725Y109482D01*
X261727Y109480D01*
X261729Y109478D01*
X261841Y109386D01*
X261953Y109293D01*
X261955Y109292D01*
X261958Y109291D01*
X262756Y108757D01*
X262756Y108757D01*
X262877Y108692D01*
X263017Y108618D01*
X263299Y108532D01*
X263299D01*
X264241Y108344D01*
X264535Y108316D01*
X264829Y108344D01*
X264892Y108363D01*
X278576Y108382D01*
X278615Y108186D01*
X278701Y107903D01*
X278840Y107642D01*
X278840Y107642D01*
X279061Y107312D01*
X279249Y107083D01*
X279477Y106896D01*
X279808Y106675D01*
X279808Y106675D01*
X279887Y106633D01*
X280068Y106536D01*
X280351Y106450D01*
X280351D01*
X280741Y106372D01*
X281035Y106343D01*
X281222Y106362D01*
X285526Y106333D01*
X285530Y106334D01*
X285535Y106333D01*
X285677Y106347D01*
X285820Y106360D01*
X285825Y106362D01*
X285829Y106362D01*
X286415Y106479D01*
X286698Y106565D01*
X286958Y106704D01*
X287454Y107035D01*
X287683Y107223D01*
Y107223D01*
X287683D01*
X287870Y107451D01*
X288202Y107947D01*
X288341Y108208D01*
X288427Y108491D01*
X288543Y109076D01*
X288572Y109370D01*
Y109370D01*
D01*
X288545Y109647D01*
X288572Y113359D01*
X288572Y113365D01*
X288572Y113370D01*
X288558Y113512D01*
X288545Y113653D01*
X288544Y113659D01*
X288543Y113664D01*
X288427Y114249D01*
X288341Y114532D01*
X288202Y114793D01*
X287870Y115289D01*
X287683Y115517D01*
X287683D01*
Y115517D01*
X287454Y115705D01*
X286958Y116036D01*
X286698Y116176D01*
X286415Y116261D01*
X285829Y116378D01*
X285535Y116407D01*
D01*
X285535D01*
X285241Y116378D01*
X285238Y116377D01*
X267182Y116330D01*
X266682Y116430D01*
X266432Y116597D01*
X266394Y116643D01*
X266392Y116645D01*
X266391Y116647D01*
X259708Y123285D01*
X259310Y123804D01*
X259097Y124318D01*
X259035Y124790D01*
X259043Y124868D01*
X259066Y141368D01*
X259066Y141369D01*
X259066Y141370D01*
X259052Y141516D01*
X259038Y141662D01*
X259037Y141663D01*
X259037Y141664D01*
X258944Y142135D01*
X258918Y142221D01*
X258858Y142418D01*
X258773Y142576D01*
X258719Y142678D01*
X258719Y142678D01*
X258452Y143078D01*
X258452Y143078D01*
X258452Y143078D01*
X258365Y143184D01*
X258264Y143306D01*
X258264Y143306D01*
X258264Y143307D01*
X258166Y143387D01*
X258072Y143464D01*
X250249Y151239D01*
X249486Y152168D01*
X248954Y153165D01*
X248626Y154246D01*
X248559Y154918D01*
X248720Y154950D01*
X249002Y155036D01*
X249263Y155175D01*
X249263Y155175D01*
X249594Y155396D01*
X249822Y155583D01*
X250010Y155812D01*
X250231Y156142D01*
X250231Y156142D01*
X250273Y156222D01*
X250370Y156403D01*
X250456Y156686D01*
Y156686D01*
X250533Y157076D01*
X250562Y157370D01*
X250544Y157556D01*
X250562Y160360D01*
X250562Y160365D01*
X250562Y160370D01*
X250548Y160512D01*
X250535Y160654D01*
X250534Y160659D01*
X250533Y160664D01*
X250456Y161054D01*
X250370Y161337D01*
X250231Y161598D01*
X250231Y161598D01*
X250010Y161928D01*
X249822Y162157D01*
X249594Y162344D01*
X249263Y162565D01*
X249263Y162565D01*
X249184Y162608D01*
X249002Y162705D01*
X248720Y162790D01*
X248720D01*
X248329Y162868D01*
X248035Y162897D01*
D02*
G37*
G36*
X238293Y77069D02*
X237676Y77035D01*
X237067Y76931D01*
X236473Y76760D01*
X235903Y76524D01*
X235362Y76225D01*
X234858Y75867D01*
X234398Y75456D01*
X233986Y74995D01*
X233872Y74834D01*
X232872D01*
X232757Y74995D01*
X232346Y75456D01*
X231885Y75867D01*
X231381Y76225D01*
X230840Y76524D01*
X230270Y76760D01*
X229676Y76931D01*
X229067Y77035D01*
X228450Y77069D01*
X227834Y77035D01*
X227225Y76931D01*
X226631Y76760D01*
X226060Y76524D01*
X225520Y76225D01*
X225016Y75867D01*
X224555Y75456D01*
X224144Y74995D01*
X223786Y74491D01*
X223487Y73951D01*
X223251Y73380D01*
X223080Y72786D01*
X222976Y72177D01*
X222942Y71561D01*
Y67750D01*
X222976Y67133D01*
X223080Y66524D01*
X223251Y65930D01*
X223487Y65359D01*
X223786Y64819D01*
X224144Y64315D01*
X224555Y63854D01*
X225016Y63443D01*
X225520Y63085D01*
X226060Y62787D01*
X226631Y62550D01*
X227225Y62379D01*
X227834Y62276D01*
X228450Y62241D01*
X229067Y62276D01*
X229676Y62379D01*
X230270Y62550D01*
X230840Y62787D01*
X231381Y63085D01*
X231885Y63443D01*
X232346Y63854D01*
X232757Y64315D01*
X232872Y64476D01*
X233872D01*
X233986Y64315D01*
X234398Y63854D01*
X234858Y63443D01*
X235362Y63085D01*
X235903Y62787D01*
X236473Y62550D01*
X237067Y62379D01*
X237676Y62276D01*
X238293Y62241D01*
X238910Y62276D01*
X239519Y62379D01*
X240112Y62550D01*
X240683Y62787D01*
X241224Y63085D01*
X241727Y63443D01*
X242188Y63854D01*
X242600Y64315D01*
X242957Y64819D01*
X243256Y65359D01*
X243493Y65930D01*
X243664Y66524D01*
X243767Y67133D01*
X243802Y67750D01*
Y71561D01*
X243767Y72177D01*
X243664Y72786D01*
X243493Y73380D01*
X243256Y73951D01*
X242957Y74491D01*
X242600Y74995D01*
X242188Y75456D01*
X241727Y75867D01*
X241224Y76225D01*
X240683Y76524D01*
X240112Y76760D01*
X239519Y76931D01*
X238910Y77035D01*
X238293Y77069D01*
D02*
G37*
G36*
X232132Y161932D02*
X229180D01*
X228713Y161895D01*
X228257Y161786D01*
X227824Y161607D01*
X227425Y161362D01*
X227068Y161058D01*
X226764Y160701D01*
X226519Y160302D01*
X226340Y159869D01*
X226231Y159414D01*
X226194Y158947D01*
Y155994D01*
X226231Y155527D01*
X226340Y155071D01*
X226519Y154638D01*
X226764Y154239D01*
X227068Y153883D01*
X227425Y153578D01*
X227824Y153333D01*
X228257Y153154D01*
X228713Y153045D01*
X229180Y153008D01*
X232132D01*
X232599Y153045D01*
X233055Y153154D01*
X233488Y153333D01*
X233887Y153578D01*
X234243Y153883D01*
X234548Y154239D01*
X234792Y154638D01*
X234972Y155071D01*
X235081Y155527D01*
X235118Y155994D01*
Y158947D01*
X235081Y159414D01*
X234972Y159869D01*
X234792Y160302D01*
X234548Y160701D01*
X234243Y161058D01*
X233887Y161362D01*
X233488Y161607D01*
X233055Y161786D01*
X232599Y161895D01*
X232132Y161932D01*
D02*
G37*
%LPD*%
G36*
X309487Y110527D02*
X309681Y110235D01*
X309972Y110041D01*
X310244Y109987D01*
X310845Y109990D01*
X311235Y109912D01*
X311566Y109691D01*
X311787Y109360D01*
X311865Y108970D01*
X311845D01*
X311863Y104970D01*
X311793Y104619D01*
X311594Y104321D01*
X311296Y104122D01*
X310945Y104052D01*
Y104070D01*
X309635Y104065D01*
Y104052D01*
X306745D01*
Y104027D01*
X306234Y104128D01*
X305801Y104418D01*
X305511Y104851D01*
X305410Y105362D01*
X305435Y108770D01*
X305469D01*
X305864Y109165D01*
X305903Y109360D01*
X306124Y109691D01*
X306455Y109912D01*
X306845Y109990D01*
Y109970D01*
X310244Y109987D01*
D01*
X308845Y109980D01*
X308735Y110870D01*
X309418D01*
X309487Y110527D01*
D02*
G37*
G36*
X309835Y150412D02*
X310166Y150191D01*
X310387Y149860D01*
X310465Y149470D01*
X310445D01*
X310463Y145470D01*
X310393Y145119D01*
X310194Y144821D01*
X309896Y144622D01*
X309545Y144552D01*
Y144570D01*
X305345Y144552D01*
X304994Y144622D01*
X304696Y144821D01*
X304497Y145119D01*
X304428Y145470D01*
X304445D01*
X304426Y149470D01*
X304503Y149860D01*
X304724Y150191D01*
X305055Y150412D01*
X305445Y150490D01*
Y150470D01*
X309445Y150490D01*
X309835Y150412D01*
D02*
G37*
G36*
X248426Y161312D02*
X248756Y161091D01*
X248977Y160760D01*
X249055Y160370D01*
X249035Y157370D01*
X249055D01*
X248977Y156980D01*
X248756Y156649D01*
X248426Y156428D01*
X248035Y156351D01*
Y156390D01*
X247645Y156312D01*
X247315Y156091D01*
X247093Y155760D01*
X247016Y155370D01*
X247000D01*
X247140Y153950D01*
X247554Y152585D01*
X248227Y151327D01*
X249132Y150224D01*
X257182Y142224D01*
X257199Y142240D01*
X257465Y141841D01*
X257559Y141370D01*
X257535Y124870D01*
X257504D01*
X257629Y123925D01*
X257994Y123044D01*
X258574Y122287D01*
X265328Y115577D01*
X265295Y115544D01*
X266093Y115010D01*
X267035Y114823D01*
X285535Y114870D01*
Y114900D01*
X286121Y114783D01*
X286617Y114452D01*
X286948Y113955D01*
X287065Y113370D01*
X287035Y109370D01*
X287065D01*
X286948Y108785D01*
X286617Y108289D01*
X286121Y107957D01*
X285535Y107841D01*
X281035Y107870D01*
Y107851D01*
X280645Y107928D01*
X280314Y108149D01*
X280093Y108480D01*
X280016Y108870D01*
X280055D01*
X279977Y109260D01*
X279756Y109591D01*
X279426Y109812D01*
X279035Y109890D01*
X264535Y109870D01*
Y109823D01*
X263593Y110010D01*
X262795Y110544D01*
X253535Y119870D01*
X253515Y119849D01*
X252967Y120563D01*
X252623Y121393D01*
X252506Y122284D01*
X252535Y134728D01*
X252584D01*
X252391Y136688D01*
X251819Y138573D01*
X250890Y140311D01*
X249641Y141833D01*
X242535Y148870D01*
X242512Y148846D01*
X242134Y149411D01*
X242002Y150077D01*
X242035Y153663D01*
X242069D01*
X241936Y154329D01*
X241559Y154894D01*
X241535Y154850D01*
X241145Y154928D01*
X240814Y155149D01*
X240593Y155480D01*
X240516Y155870D01*
X240535Y160370D01*
X240516D01*
X240593Y160760D01*
X240814Y161091D01*
X241145Y161312D01*
X241535Y161390D01*
X248035Y161370D01*
Y161390D01*
X248426Y161312D01*
D02*
G37*
G36*
X329660Y119097D02*
X330189Y118743D01*
X330543Y118214D01*
X330667Y117590D01*
X330656Y116146D01*
X330664Y116129D01*
X330656D01*
X330642Y114187D01*
X330669Y106377D01*
X330536Y105711D01*
X330159Y105146D01*
X330135Y105170D01*
X321502Y96476D01*
X320783Y95996D01*
X319935Y95828D01*
Y95870D01*
X304584Y95830D01*
X303785Y95989D01*
X303107Y96442D01*
X303135Y96470D01*
X295274Y104278D01*
X294847Y104917D01*
X294698Y105670D01*
X294735D01*
X294698Y107323D01*
X294847Y108074D01*
X295260Y108691D01*
X295162Y108711D01*
X294931Y108865D01*
X294776Y109097D01*
X294722Y109370D01*
X294755D01*
X294677Y109760D01*
X294456Y110091D01*
X294126Y110312D01*
X293735Y110390D01*
X293535Y110370D01*
Y110331D01*
X292755Y110486D01*
X292093Y110928D01*
X291652Y111590D01*
X291496Y112370D01*
X291535Y115370D01*
X291500D01*
X291640Y116072D01*
X292038Y116668D01*
X292633Y117066D01*
X293335Y117205D01*
X297835Y117170D01*
Y117196D01*
X298343Y117095D01*
X298773Y116807D01*
X299060Y116377D01*
X299161Y115870D01*
X299135Y108670D01*
X299107Y108474D01*
X299219Y107336D01*
X299551Y106242D01*
X300090Y105234D01*
X300816Y104350D01*
X300835Y104370D01*
X304469Y100701D01*
X305074Y100237D01*
X305779Y99945D01*
X306535Y99845D01*
Y99870D01*
X318104Y99847D01*
X318817Y99940D01*
X319481Y100216D01*
X320052Y100653D01*
X320035Y100670D01*
X325874Y106476D01*
X326300Y107031D01*
X326567Y107677D01*
X326658Y108370D01*
X326635D01*
X326653Y112370D01*
X326583Y112721D01*
X326384Y113019D01*
X326087Y113218D01*
X325780Y113279D01*
X325735Y113279D01*
Y113270D01*
X324935Y113252D01*
Y113234D01*
X324577Y113306D01*
X324272Y113509D01*
X324069Y113813D01*
X323998Y114172D01*
X324016Y118326D01*
X324055Y118366D01*
X324093Y118560D01*
X324314Y118891D01*
X324645Y119112D01*
X324821Y119147D01*
X324840Y119167D01*
X324881Y119159D01*
X325035Y119190D01*
Y119170D01*
X329035Y119190D01*
Y119221D01*
X329660Y119097D01*
D02*
G37*
G36*
X246621Y126283D02*
X247117Y125952D01*
X247448Y125455D01*
X247565Y124870D01*
X247535Y120870D01*
X247488D01*
X247675Y119928D01*
X248209Y119130D01*
X261535Y105870D01*
X261515Y105849D01*
X262228Y105302D01*
X263058Y104958D01*
X263950Y104841D01*
X268535Y104870D01*
Y104917D01*
X269477Y104730D01*
X270276Y104196D01*
X280682Y93724D01*
X280665Y93707D01*
X281064Y93440D01*
X281535Y93346D01*
X288535Y93370D01*
Y93400D01*
X289121Y93283D01*
X289617Y92952D01*
X289948Y92455D01*
X290065Y91870D01*
X290035Y87870D01*
X290065D01*
X289948Y87285D01*
X289617Y86789D01*
X289121Y86457D01*
X288535Y86341D01*
X284535Y86370D01*
Y86351D01*
X284145Y86428D01*
X283815Y86649D01*
X283593Y86980D01*
X283516Y87370D01*
X283555D01*
X283477Y87760D01*
X283256Y88091D01*
X282926Y88312D01*
X282535Y88390D01*
X280035Y88370D01*
Y88323D01*
X279093Y88510D01*
X278295Y89044D01*
X268535Y98870D01*
X268556Y98891D01*
X267843Y99438D01*
X267013Y99782D01*
X266121Y99900D01*
X261535Y99870D01*
Y99839D01*
X260590Y99963D01*
X259709Y100328D01*
X258953Y100909D01*
X241318Y118587D01*
X241305Y118574D01*
X241091Y118893D01*
X241017Y119270D01*
X241035Y124870D01*
X241006D01*
X241123Y125455D01*
X241454Y125952D01*
X241950Y126283D01*
X242535Y126400D01*
X246035Y126370D01*
Y126400D01*
X246621Y126283D01*
D02*
G37*
G36*
X152370Y341035D02*
Y341055D01*
X152760Y340977D01*
X153091Y340756D01*
X153312Y340426D01*
X153390Y340035D01*
X153370Y331535D01*
X153409D01*
X153254Y330755D01*
X152812Y330094D01*
X152150Y329651D01*
X151370Y329496D01*
Y329555D01*
X150980Y329477D01*
X150649Y329256D01*
X150428Y328926D01*
X150350Y328535D01*
X150370Y325035D01*
X150399D01*
X150283Y324450D01*
X149952Y323954D01*
X149455Y323622D01*
X148870Y323506D01*
X146070Y323535D01*
Y323514D01*
X145641Y323599D01*
X145277Y323842D01*
X145034Y324206D01*
X144948Y324635D01*
X144970Y339635D01*
X144943D01*
X145051Y340182D01*
X145361Y340645D01*
X145824Y340954D01*
X146370Y341063D01*
X152370Y341035D01*
D02*
G37*
G36*
X167624Y349483D02*
X168212Y349383D01*
X168786Y349218D01*
X169337Y348989D01*
X169860Y348700D01*
X170347Y348355D01*
X170792Y347957D01*
X171189Y347512D01*
X171423Y347183D01*
X171146Y346222D01*
X170169Y345817D01*
X161764D01*
X161154Y345783D01*
X160552Y345681D01*
X159965Y345512D01*
X159401Y345278D01*
X158867Y344983D01*
X158369Y344629D01*
X157913Y344222D01*
X157506Y343767D01*
X157153Y343269D01*
X156858Y342734D01*
X156624Y342170D01*
X156455Y341583D01*
X156352Y340981D01*
X156318Y340372D01*
X156352Y339762D01*
X156455Y339160D01*
X156624Y338573D01*
X156858Y338009D01*
X157153Y337474D01*
X157506Y336976D01*
X157913Y336521D01*
X158150Y336310D01*
X157793Y335376D01*
X155594D01*
X154888Y336084D01*
X154897Y340032D01*
X154897Y340034D01*
X154897Y340035D01*
X154883Y340181D01*
X154869Y340326D01*
X154868Y340328D01*
X154868Y340330D01*
X154790Y340720D01*
X154705Y341002D01*
X154565Y341263D01*
X154565Y341263D01*
X154344Y341594D01*
X154157Y341822D01*
X153928Y342010D01*
X153598Y342231D01*
X153598Y342231D01*
X153519Y342273D01*
X153337Y342370D01*
X153054Y342456D01*
X153054D01*
X152664Y342533D01*
X152370Y342562D01*
X152180Y342544D01*
X147310Y342566D01*
X147011Y342638D01*
X146540Y342675D01*
X146381D01*
Y342740D01*
X140232D01*
X140232Y342740D01*
Y342740D01*
X139294Y342983D01*
X139294D01*
X139395Y343404D01*
X139429Y343835D01*
X139395Y344267D01*
X139294Y344688D01*
X139128Y345088D01*
X138902Y345457D01*
X138621Y345786D01*
X138292Y346067D01*
X137922Y346293D01*
X137522Y346459D01*
X137102Y346560D01*
X136670Y346594D01*
X136239Y346560D01*
X135818Y346459D01*
X135418Y346293D01*
X135049Y346067D01*
X134720Y345786D01*
X134438Y345457D01*
X134212Y345088D01*
X134047Y344688D01*
X133946Y344267D01*
X133912Y343835D01*
X133946Y343404D01*
X134047Y342983D01*
X134047D01*
X133539Y342740D01*
X133539D01*
Y336591D01*
X139688D01*
Y336591D01*
X139688D01*
X139688Y336591D01*
X140232D01*
Y336591D01*
X142751D01*
X143457Y335883D01*
X143441Y324638D01*
X143441Y324637D01*
X143441Y324635D01*
X143456Y324490D01*
X143470Y324343D01*
X143470Y324342D01*
X143470Y324341D01*
X143556Y323912D01*
Y323912D01*
X143641Y323629D01*
X143781Y323369D01*
X144024Y323005D01*
X144024Y323005D01*
X144170Y322827D01*
X144211Y322777D01*
X144211D01*
Y322777D01*
X144440Y322589D01*
X144804Y322346D01*
X145064Y322207D01*
X145347Y322121D01*
X145347D01*
X145776Y322036D01*
X145776Y322036D01*
X146070Y322007D01*
D01*
X146070D01*
X146267Y322026D01*
X146863Y322020D01*
X147347Y321145D01*
X147312Y321088D01*
X147147Y320688D01*
X147046Y320267D01*
X147012Y319835D01*
X147046Y319404D01*
X147147Y318983D01*
X147312Y318583D01*
X147538Y318214D01*
X147819Y317885D01*
X148149Y317604D01*
X148518Y317378D01*
X148918Y317212D01*
X149339Y317111D01*
X149770Y317077D01*
X149927Y316932D01*
X149829Y315936D01*
X149543Y315761D01*
X149274Y315531D01*
X148174Y314431D01*
X147944Y314162D01*
X147759Y313860D01*
X147723Y313773D01*
X147538Y313557D01*
X147312Y313188D01*
X147147Y312788D01*
X147046Y312367D01*
X147012Y311935D01*
X147046Y311504D01*
X147147Y311083D01*
X147312Y310683D01*
X147538Y310314D01*
X147819Y309985D01*
X148149Y309704D01*
X148518Y309478D01*
X148918Y309312D01*
X149339Y309211D01*
X149770Y309177D01*
X150202Y309211D01*
X150622Y309312D01*
X151022Y309478D01*
X151391Y309704D01*
X151721Y309985D01*
X152002Y310314D01*
X152011Y310328D01*
X162870D01*
Y317659D01*
D01*
Y317659D01*
X162870Y317659D01*
Y318202D01*
X162870D01*
Y325533D01*
X151875D01*
X151865Y327336D01*
X152570Y328045D01*
X162870D01*
Y334926D01*
X171606D01*
X171624Y334927D01*
X172350Y334240D01*
X172348Y301622D01*
X171621Y300935D01*
X171606Y300935D01*
X161764D01*
X161154Y300901D01*
X160552Y300799D01*
X159965Y300630D01*
X159401Y300396D01*
X158867Y300101D01*
X158369Y299747D01*
X157913Y299340D01*
X157506Y298885D01*
X157153Y298387D01*
X156858Y297852D01*
X156624Y297288D01*
X156455Y296702D01*
X156352Y296099D01*
X156318Y295490D01*
X156352Y294880D01*
X156455Y294278D01*
X156624Y293691D01*
X156858Y293127D01*
X157153Y292593D01*
X157506Y292094D01*
X157913Y291639D01*
X158369Y291232D01*
X158867Y290879D01*
X159401Y290583D01*
X159965Y290350D01*
X160552Y290181D01*
X161154Y290078D01*
X161764Y290044D01*
X171606D01*
X171620Y290045D01*
X172347Y289358D01*
X172343Y226378D01*
X172343D01*
X172350Y226370D01*
X172319Y225815D01*
X172224Y225259D01*
X172068Y224717D01*
X171853Y224197D01*
X171580Y223703D01*
X171254Y223243D01*
X170878Y222823D01*
X170457Y222447D01*
X169998Y222121D01*
X169504Y221848D01*
X168983Y221633D01*
X168442Y221476D01*
X167886Y221382D01*
X167323Y221350D01*
X49213Y221358D01*
Y221358D01*
X49205Y221351D01*
X48650Y221382D01*
X48094Y221476D01*
X47552Y221633D01*
X47031Y221848D01*
X46538Y222121D01*
X46078Y222447D01*
X45658Y222823D01*
X45282Y223243D01*
X44956Y223703D01*
X44683Y224197D01*
X44467Y224717D01*
X44311Y225259D01*
X44217Y225815D01*
X44185Y226378D01*
X44193Y344488D01*
X44193D01*
X44185Y344496D01*
X44217Y345051D01*
X44311Y345607D01*
X44467Y346149D01*
X44683Y346670D01*
X44956Y347163D01*
X45282Y347623D01*
X45658Y348043D01*
X46078Y348419D01*
X46538Y348745D01*
X47031Y349018D01*
X47552Y349234D01*
X48094Y349390D01*
X48650Y349484D01*
X49205Y349515D01*
X49213Y349508D01*
Y349508D01*
X49213Y349508D01*
X167028D01*
Y349508D01*
X167036Y349516D01*
X167624Y349483D01*
D02*
G37*
%LPC*%
G36*
X90655Y254235D02*
X90038Y254200D01*
X89429Y254097D01*
X88836Y253925D01*
X88265Y253689D01*
X87724Y253390D01*
X87221Y253033D01*
X86760Y252621D01*
X86348Y252161D01*
X86234Y251999D01*
X85234D01*
X85119Y252161D01*
X84708Y252621D01*
X84247Y253033D01*
X83743Y253390D01*
X83203Y253689D01*
X82632Y253925D01*
X82038Y254097D01*
X81429Y254200D01*
X80813Y254235D01*
X80196Y254200D01*
X79587Y254097D01*
X78993Y253925D01*
X78422Y253689D01*
X77882Y253390D01*
X77378Y253033D01*
X76917Y252621D01*
X76506Y252161D01*
X76148Y251657D01*
X75849Y251116D01*
X75613Y250545D01*
X75442Y249952D01*
X75339Y249343D01*
X75304Y248726D01*
Y244915D01*
X75339Y244298D01*
X75442Y243689D01*
X75613Y243096D01*
X75849Y242525D01*
X76148Y241984D01*
X76506Y241480D01*
X76917Y241020D01*
X77378Y240608D01*
X77882Y240251D01*
X78422Y239952D01*
X78993Y239715D01*
X79587Y239544D01*
X80196Y239441D01*
X80813Y239406D01*
X81429Y239441D01*
X82038Y239544D01*
X82632Y239715D01*
X83203Y239952D01*
X83743Y240251D01*
X84247Y240608D01*
X84708Y241020D01*
X85119Y241480D01*
X85234Y241642D01*
X86234D01*
X86348Y241480D01*
X86760Y241020D01*
X87221Y240608D01*
X87724Y240251D01*
X88265Y239952D01*
X88836Y239715D01*
X89429Y239544D01*
X90038Y239441D01*
X90655Y239406D01*
X91272Y239441D01*
X91881Y239544D01*
X92475Y239715D01*
X93045Y239952D01*
X93586Y240251D01*
X94090Y240608D01*
X94550Y241020D01*
X94962Y241480D01*
X95319Y241984D01*
X95618Y242525D01*
X95855Y243096D01*
X96026Y243689D01*
X96129Y244298D01*
X96164Y244915D01*
Y248726D01*
X96129Y249343D01*
X96026Y249952D01*
X95855Y250545D01*
X95618Y251116D01*
X95319Y251657D01*
X94962Y252161D01*
X94550Y252621D01*
X94090Y253033D01*
X93586Y253390D01*
X93045Y253689D01*
X92475Y253925D01*
X91881Y254097D01*
X91272Y254200D01*
X90655Y254235D01*
D02*
G37*
G36*
X54967Y304897D02*
X52014D01*
X51547Y304861D01*
X51092Y304751D01*
X50659Y304572D01*
X50259Y304327D01*
X49903Y304023D01*
X49599Y303667D01*
X49354Y303267D01*
X49175Y302834D01*
X49065Y302379D01*
X49029Y301912D01*
Y298959D01*
X49065Y298492D01*
X49175Y298037D01*
X49354Y297604D01*
X49599Y297204D01*
X49903Y296848D01*
X50259Y296544D01*
X50659Y296299D01*
X51092Y296120D01*
X51547Y296010D01*
X52014Y295973D01*
X54967D01*
X55434Y296010D01*
X55889Y296120D01*
X56322Y296299D01*
X56722Y296544D01*
X57078Y296848D01*
X57382Y297204D01*
X57627Y297604D01*
X57806Y298037D01*
X57916Y298492D01*
X57952Y298959D01*
Y301912D01*
X57916Y302379D01*
X57806Y302834D01*
X57627Y303267D01*
X57382Y303667D01*
X57078Y304023D01*
X56722Y304327D01*
X56322Y304572D01*
X55889Y304751D01*
X55434Y304861D01*
X54967Y304897D01*
D02*
G37*
G36*
X68870Y305072D02*
X68870D01*
D01*
X68596Y305045D01*
X65383Y305072D01*
X65376Y305071D01*
X65370Y305072D01*
X65230Y305058D01*
X65088Y305046D01*
X65082Y305044D01*
X65076Y305043D01*
X64491Y304927D01*
X64208Y304841D01*
X63947Y304702D01*
X63451Y304370D01*
X63223Y304183D01*
Y304183D01*
X63223D01*
X63035Y303954D01*
X62704Y303458D01*
X62565Y303198D01*
X62479Y302915D01*
X62362Y302329D01*
X62333Y302035D01*
D01*
Y302035D01*
X62362Y301747D01*
X62344Y296441D01*
X62344Y296438D01*
X62344Y296435D01*
X62358Y296291D01*
X62372Y296146D01*
X62373Y296144D01*
X62373Y296141D01*
X62448Y295765D01*
Y295765D01*
X62468Y295699D01*
X62534Y295482D01*
X62624Y295312D01*
X62673Y295221D01*
X62886Y294902D01*
X62887Y294902D01*
X62887Y294901D01*
X62991Y294774D01*
X63074Y294673D01*
X63074Y294673D01*
X63074Y294673D01*
X63205Y294566D01*
X63221Y294552D01*
X80720Y277010D01*
X80797Y276946D01*
X80870Y276878D01*
X81626Y276298D01*
X81668Y276272D01*
X81706Y276240D01*
X81793Y276194D01*
X81877Y276142D01*
X81923Y276124D01*
X81967Y276101D01*
X82848Y275736D01*
X82895Y275722D01*
X82940Y275701D01*
X83036Y275679D01*
X83131Y275650D01*
X83180Y275645D01*
X83228Y275634D01*
X84173Y275510D01*
X84272Y275507D01*
X84370Y275497D01*
X84419Y275502D01*
X84469Y275500D01*
X84566Y275516D01*
X84664Y275526D01*
X84678Y275530D01*
X88862Y275557D01*
X89454Y275479D01*
X89918Y275287D01*
X90258Y275026D01*
X90301Y274973D01*
X100060Y265147D01*
X100062Y265145D01*
X100064Y265143D01*
X100176Y265051D01*
X100288Y264959D01*
X100290Y264957D01*
X100292Y264956D01*
X101091Y264422D01*
X101091Y264422D01*
X101212Y264357D01*
X101351Y264283D01*
X101634Y264197D01*
X101634D01*
X102576Y264010D01*
X102870Y263981D01*
X103164Y264010D01*
X103234Y264031D01*
X104911Y264044D01*
X104950Y263851D01*
X105036Y263568D01*
X105175Y263308D01*
X105175Y263308D01*
X105396Y262977D01*
X105583Y262749D01*
X105812Y262561D01*
X106142Y262340D01*
X106142Y262340D01*
X106222Y262298D01*
X106403Y262201D01*
X106686Y262115D01*
X106686D01*
X107076Y262037D01*
X107370Y262009D01*
X107555Y262027D01*
X111359Y261999D01*
X111365Y261999D01*
X111370Y261999D01*
X111512Y262013D01*
X111653Y262026D01*
X111659Y262027D01*
X111664Y262028D01*
X112249Y262144D01*
X112532Y262230D01*
X112793Y262369D01*
X113289Y262701D01*
X113517Y262888D01*
Y262888D01*
X113517D01*
X113705Y263117D01*
X114036Y263613D01*
X114176Y263873D01*
X114261Y264156D01*
X114378Y264741D01*
X114407Y265035D01*
D01*
Y265035D01*
X114379Y265313D01*
X114407Y269024D01*
X114406Y269030D01*
X114407Y269035D01*
X114393Y269177D01*
X114380Y269319D01*
X114378Y269324D01*
X114378Y269330D01*
X114261Y269915D01*
X114176Y270198D01*
X114036Y270458D01*
X113705Y270954D01*
X113517Y271183D01*
X113517D01*
Y271183D01*
X113289Y271370D01*
X112793Y271702D01*
X112532Y271841D01*
X112249Y271927D01*
X111664Y272043D01*
X111370Y272072D01*
X111370D01*
D01*
X111076Y272043D01*
X111071Y272042D01*
X104518Y272020D01*
X94180Y282424D01*
X94178Y282426D01*
X94176Y282428D01*
X94063Y282521D01*
X93952Y282612D01*
X93950Y282613D01*
X93948Y282615D01*
X93150Y283149D01*
X93149Y283149D01*
X93028Y283213D01*
X92889Y283288D01*
X92606Y283374D01*
X92606D01*
X91664Y283561D01*
X91370Y283590D01*
X91076Y283561D01*
X91008Y283540D01*
X86878Y283514D01*
X86286Y283592D01*
X85823Y283784D01*
X85481Y284046D01*
X85436Y284101D01*
X85434Y284102D01*
X85433Y284104D01*
X72213Y297257D01*
X71930Y297682D01*
X71872Y297973D01*
X71877Y298024D01*
X71907Y302024D01*
X71906Y302030D01*
X71907Y302035D01*
X71893Y302177D01*
X71880Y302319D01*
X71878Y302324D01*
X71878Y302329D01*
X71761Y302915D01*
X71676Y303198D01*
X71536Y303458D01*
X71205Y303954D01*
X71017Y304183D01*
X71017D01*
Y304183D01*
X70789Y304370D01*
X70293Y304702D01*
X70032Y304841D01*
X69749Y304927D01*
X69164Y305043D01*
X68870Y305072D01*
D02*
G37*
G36*
X132280Y329162D02*
X132276Y329162D01*
X132273Y329162D01*
X128469Y329144D01*
X128280Y329162D01*
X127986Y329133D01*
X127596Y329056D01*
X127313Y328970D01*
X127052Y328831D01*
X127052Y328831D01*
X126722Y328610D01*
X126493Y328422D01*
X126306Y328194D01*
X126085Y327863D01*
X126085Y327863D01*
X126042Y327784D01*
X125945Y327602D01*
X125860Y327320D01*
Y327320D01*
X125782Y326929D01*
X125782Y326926D01*
X125781Y326922D01*
X125767Y326779D01*
X125753Y326635D01*
X125753Y326632D01*
X125753Y326628D01*
X125772Y322806D01*
X125755Y322635D01*
X125784Y322341D01*
X125854Y321990D01*
Y321990D01*
X125906Y321819D01*
X125940Y321708D01*
X125940Y321708D01*
D01*
X125958Y321674D01*
X126079Y321447D01*
X126079Y321447D01*
X126278Y321149D01*
X126278Y321149D01*
X126465Y320921D01*
X126465D01*
Y320921D01*
X126515Y320880D01*
X126694Y320733D01*
X126763Y320687D01*
Y285908D01*
X126737Y282539D01*
X126738Y282533D01*
X126737Y282528D01*
X126751Y282386D01*
X126764Y282245D01*
X126766Y282239D01*
X126766Y282234D01*
X126836Y281883D01*
X126098Y281489D01*
X125928Y281437D01*
X124455Y282911D01*
X124184Y283241D01*
X123785Y283987D01*
X123539Y284797D01*
X123460Y285606D01*
X123462Y285622D01*
X123467Y285726D01*
X123477Y285830D01*
X123503Y293030D01*
X123503Y293033D01*
X123503Y293035D01*
X123489Y293180D01*
X123475Y293324D01*
X123474Y293327D01*
X123474Y293330D01*
X123373Y293837D01*
X123347Y293922D01*
X123287Y294120D01*
X123148Y294380D01*
X122861Y294810D01*
X122861Y294810D01*
X122714Y294989D01*
X122673Y295039D01*
X122673D01*
Y295039D01*
X122651Y295057D01*
X122445Y295226D01*
X122445Y295226D01*
X122015Y295513D01*
X122015Y295513D01*
X121981Y295531D01*
X121754Y295653D01*
X121557Y295712D01*
X121471Y295738D01*
X120964Y295839D01*
X120670Y295868D01*
X120670D01*
D01*
X120431Y295845D01*
X116182Y295878D01*
X116176Y295877D01*
X116170Y295878D01*
X116029Y295864D01*
X115888Y295851D01*
X115882Y295850D01*
X115876Y295849D01*
X115174Y295709D01*
X115174D01*
X114891Y295623D01*
X114630Y295484D01*
X114035Y295086D01*
X114035Y295086D01*
X113807Y294899D01*
X113686Y294753D01*
X113619Y294671D01*
X113619Y294671D01*
X113221Y294075D01*
X113221Y294075D01*
X113100Y293848D01*
X113082Y293815D01*
D01*
X113082Y293815D01*
X113048Y293703D01*
X112996Y293532D01*
Y293532D01*
X112856Y292829D01*
X112828Y292535D01*
X112856Y292241D01*
X112859Y292234D01*
X112824Y289555D01*
X112825Y289545D01*
X112824Y289535D01*
X112837Y289398D01*
X112849Y289261D01*
X112852Y289251D01*
X112853Y289241D01*
X113008Y288461D01*
Y288461D01*
X113094Y288178D01*
X113168Y288039D01*
X113233Y287918D01*
X113233Y287918D01*
X113675Y287256D01*
X113862Y287028D01*
X113862D01*
Y287028D01*
X114091Y286840D01*
X114752Y286398D01*
X114752Y286398D01*
X114874Y286333D01*
X115013Y286259D01*
X115296Y286173D01*
X115296D01*
X116063Y286021D01*
Y284825D01*
X116054Y284783D01*
X116052Y284766D01*
X116048Y284749D01*
X116038Y284619D01*
X116025Y284489D01*
X116027Y284472D01*
X116025Y284454D01*
X116056Y283135D01*
X116054Y283130D01*
X116025Y282835D01*
Y282835D01*
D01*
X116054Y282541D01*
X116204Y281788D01*
X116290Y281505D01*
X116429Y281244D01*
X116429Y281244D01*
X116518Y281111D01*
X116533Y281082D01*
X116787Y280700D01*
X116809Y280675D01*
X116856Y280606D01*
X116857Y280604D01*
X116859Y280601D01*
X116951Y280489D01*
X117043Y280377D01*
X117045Y280376D01*
X117047Y280374D01*
X120679Y276766D01*
X124748Y272697D01*
X124876Y272541D01*
X125104Y272354D01*
X125169Y272311D01*
X125235Y272253D01*
X125616Y271998D01*
X125696Y271959D01*
X125782Y271901D01*
X125782Y271901D01*
X126042Y271762D01*
X126325Y271676D01*
X126453Y271651D01*
X126462Y271647D01*
X126912Y271558D01*
X126922Y271557D01*
X127125Y271517D01*
X127127Y271517D01*
X127128Y271516D01*
X127272Y271502D01*
X127419Y271488D01*
X127421Y271488D01*
X127423Y271488D01*
X142434Y271527D01*
X142476Y271515D01*
X142770Y271486D01*
X142770D01*
D01*
X143064Y271515D01*
X143064Y271515D01*
X143260Y271553D01*
X143328Y271558D01*
X143328D01*
X143328Y271558D01*
X143328Y271558D01*
X143778Y271647D01*
X143843Y271669D01*
X143912Y271683D01*
X144195Y271769D01*
X144455Y271908D01*
X144492Y271933D01*
X144624Y271998D01*
X145005Y272253D01*
X145116Y272350D01*
X145174Y272389D01*
X145176Y272390D01*
X145178Y272391D01*
X145290Y272484D01*
X145402Y272576D01*
X145404Y272578D01*
X145406Y272580D01*
X149911Y277116D01*
X153950Y281155D01*
X153954Y281159D01*
X154060Y281246D01*
X154247Y281474D01*
X154624Y282039D01*
X154624Y282039D01*
X154754Y282282D01*
X154764Y282300D01*
D01*
X154764Y282300D01*
X154797Y282411D01*
X154849Y282582D01*
Y282582D01*
X154982Y283248D01*
X154982Y283251D01*
X154983Y283254D01*
X154997Y283398D01*
X155011Y283542D01*
X155010Y283545D01*
X155011Y283548D01*
X154984Y291350D01*
X154998Y293214D01*
X155006Y293294D01*
Y293294D01*
D01*
X154999Y293363D01*
X155009Y294744D01*
X155008Y294750D01*
X155009Y294755D01*
X154995Y294896D01*
X154982Y295038D01*
X154980Y295044D01*
X154980Y295049D01*
X154856Y295673D01*
X154770Y295956D01*
X154630Y296217D01*
X154630Y296217D01*
X154277Y296746D01*
X154277Y296746D01*
X154130Y296924D01*
X154089Y296974D01*
X154089D01*
Y296974D01*
X154040Y297015D01*
X153861Y297162D01*
X153861Y297162D01*
X153332Y297515D01*
X153332Y297515D01*
X153071Y297655D01*
X152788Y297741D01*
X152164Y297865D01*
X151870Y297894D01*
X151576Y297865D01*
X151563Y297861D01*
X148059Y297844D01*
X147870Y297862D01*
X147576Y297833D01*
X147544Y297827D01*
X147522Y297825D01*
X147381Y297811D01*
X147374Y297809D01*
X147367Y297808D01*
X147233Y297766D01*
X147226Y297764D01*
X147186Y297756D01*
X146903Y297670D01*
X146642Y297531D01*
X146642Y297531D01*
X146312Y297310D01*
X146083Y297122D01*
X145896Y296894D01*
X145675Y296563D01*
X145675Y296563D01*
X145633Y296484D01*
X145536Y296302D01*
X145474Y296100D01*
X145460Y296075D01*
X145457Y296064D01*
X145452Y296055D01*
X145414Y295923D01*
X145373Y295792D01*
X145372Y295782D01*
X145369Y295771D01*
X145357Y295635D01*
X145343Y295498D01*
X145325Y291344D01*
X145326Y291341D01*
X145325Y291337D01*
X145339Y291194D01*
X145353Y291050D01*
X145354Y291047D01*
X145354Y291043D01*
X145425Y290685D01*
Y290685D01*
X145466Y290553D01*
X145511Y290402D01*
X145633Y290175D01*
X145651Y290141D01*
X145854Y289837D01*
X145854Y289837D01*
X146041Y289609D01*
X146041D01*
Y289609D01*
X146270Y289421D01*
X146270Y289421D01*
X146574Y289218D01*
X146574Y289218D01*
X146817Y289088D01*
X146834Y289079D01*
D01*
X146835Y289079D01*
X146946Y289045D01*
X147117Y288993D01*
X147117D01*
X147476Y288921D01*
X147476Y288921D01*
X147770Y288893D01*
X147963Y288718D01*
Y285458D01*
X147933Y285236D01*
X147818Y284956D01*
X147775Y284900D01*
X141624Y278750D01*
X141556Y278697D01*
X141258Y278574D01*
X141021Y278543D01*
X129277D01*
X129210Y278552D01*
X128753Y279441D01*
X128936Y279784D01*
X129286Y279714D01*
X129580Y279685D01*
X129580D01*
D01*
X129840Y279711D01*
X132470D01*
X132599Y279723D01*
X133608Y279727D01*
X133780Y279711D01*
X134074Y279739D01*
X134425Y279809D01*
X134425D01*
X134597Y279861D01*
X134708Y279895D01*
X134708Y279895D01*
D01*
X134741Y279913D01*
X134968Y280034D01*
X134968Y280034D01*
X135266Y280233D01*
X135266Y280233D01*
X135494Y280421D01*
Y280421D01*
X135494D01*
X135536Y280471D01*
X135682Y280649D01*
X135881Y280947D01*
X135881Y280947D01*
X136002Y281174D01*
X136020Y281207D01*
D01*
X136020Y281207D01*
X136054Y281319D01*
X136106Y281490D01*
Y281490D01*
X136176Y281841D01*
X136176Y281845D01*
X136177Y281848D01*
X136191Y281992D01*
X136205Y282135D01*
X136204Y282139D01*
X136205Y282142D01*
X136188Y285945D01*
X136207Y286135D01*
X136178Y286430D01*
X136100Y286820D01*
X136014Y287102D01*
X135875Y287363D01*
X135875Y287363D01*
X135654Y287694D01*
X135467Y287922D01*
X135238Y288110D01*
X134907Y288331D01*
X134907Y288331D01*
X134828Y288373D01*
X134647Y288470D01*
X134364Y288556D01*
X134364D01*
X133974Y288633D01*
X133970Y288634D01*
X133967Y288635D01*
X133946Y288637D01*
X133926Y288642D01*
X133803Y288650D01*
X133778Y288653D01*
Y320674D01*
X133866Y320733D01*
X133866Y320733D01*
X134095Y320921D01*
Y320921D01*
X134095D01*
X134135Y320971D01*
X134282Y321149D01*
X134481Y321447D01*
X134481Y321447D01*
X134602Y321674D01*
X134620Y321708D01*
D01*
X134620Y321708D01*
X134654Y321819D01*
X134706Y321990D01*
Y321990D01*
X134776Y322341D01*
X134776Y322345D01*
X134777Y322348D01*
X134791Y322492D01*
X134805Y322635D01*
X134804Y322639D01*
X134805Y322642D01*
X134788Y326445D01*
X134807Y326635D01*
X134778Y326929D01*
X134700Y327320D01*
X134614Y327602D01*
X134475Y327863D01*
X134475Y327863D01*
X134254Y328194D01*
X134067Y328422D01*
X133838Y328610D01*
X133508Y328831D01*
X133507Y328831D01*
X133428Y328873D01*
X133247Y328970D01*
X132964Y329056D01*
X132964D01*
X132574Y329133D01*
X132570Y329134D01*
X132567Y329135D01*
X132424Y329148D01*
X132280Y329162D01*
D02*
G37*
G36*
X70870Y340062D02*
X70677Y340043D01*
X64375Y340062D01*
X64372Y340062D01*
X64370Y340062D01*
X64225Y340048D01*
X64081Y340034D01*
X64078Y340034D01*
X64076Y340033D01*
X63686Y339956D01*
X63403Y339870D01*
X63143Y339731D01*
X63142Y339731D01*
X62812Y339510D01*
X62583Y339322D01*
X62396Y339094D01*
X62175Y338763D01*
X62175Y338763D01*
X62133Y338684D01*
X62036Y338502D01*
X61950Y338220D01*
Y338220D01*
X61872Y337829D01*
X61843Y337535D01*
X61862Y337345D01*
X61843Y333042D01*
X61844Y333039D01*
X61843Y333035D01*
X61857Y332893D01*
X61871Y332748D01*
X61872Y332745D01*
X61872Y332741D01*
X61950Y332351D01*
X62036Y332068D01*
X62175Y331808D01*
X62175Y331808D01*
X62396Y331477D01*
X62583Y331249D01*
X62812Y331061D01*
X63143Y330840D01*
X63143Y330840D01*
X63222Y330798D01*
X63362Y330723D01*
X63329Y327257D01*
X63330Y327250D01*
X63329Y327242D01*
X63343Y327102D01*
X63356Y326962D01*
X63358Y326956D01*
X63358Y326948D01*
X63491Y326282D01*
Y326282D01*
X63543Y326111D01*
X63577Y326000D01*
X63577Y326000D01*
D01*
X63586Y325982D01*
X63716Y325739D01*
X63716Y325739D01*
X64093Y325174D01*
X64093Y325174D01*
X64134Y325125D01*
X64281Y324946D01*
X64509Y324759D01*
X64527Y324749D01*
X71360Y317982D01*
X72466Y316634D01*
X73254Y315159D01*
X73740Y313558D01*
X73883Y312102D01*
X73878Y312043D01*
X73863Y311897D01*
X73833Y299453D01*
X73843Y299353D01*
X73846Y299253D01*
X73964Y298362D01*
X73975Y298313D01*
X73980Y298264D01*
X74008Y298170D01*
X74031Y298074D01*
X74051Y298029D01*
X74065Y297982D01*
X74410Y297151D01*
X74433Y297108D01*
X74450Y297061D01*
X74502Y296977D01*
X74549Y296890D01*
X74580Y296852D01*
X74606Y296810D01*
X75153Y296097D01*
X75221Y296025D01*
X75283Y295949D01*
X75322Y295917D01*
X75355Y295881D01*
X75436Y295824D01*
X75507Y295765D01*
X84560Y286647D01*
X84562Y286645D01*
X84564Y286643D01*
X84676Y286551D01*
X84788Y286459D01*
X84790Y286458D01*
X84792Y286456D01*
X85591Y285922D01*
X85591Y285922D01*
X85712Y285857D01*
X85851Y285783D01*
X86134Y285697D01*
X86134D01*
X87076Y285510D01*
X87370Y285481D01*
X87664Y285510D01*
X87726Y285529D01*
X101411Y285547D01*
X101450Y285351D01*
X101536Y285068D01*
X101675Y284808D01*
X101675Y284808D01*
X101896Y284477D01*
X102083Y284249D01*
X102312Y284061D01*
X102643Y283840D01*
X102643Y283840D01*
X102722Y283798D01*
X102903Y283701D01*
X103186Y283615D01*
X103186D01*
X103576Y283538D01*
X103870Y283509D01*
X104056Y283527D01*
X108360Y283499D01*
X108365Y283499D01*
X108370Y283499D01*
X108512Y283513D01*
X108654Y283526D01*
X108659Y283527D01*
X108664Y283528D01*
X109249Y283644D01*
X109532Y283730D01*
X109793Y283869D01*
X110289Y284201D01*
X110517Y284388D01*
Y284388D01*
X110517D01*
X110705Y284617D01*
X111036Y285113D01*
X111176Y285373D01*
X111261Y285656D01*
X111378Y286241D01*
X111407Y286535D01*
D01*
Y286535D01*
X111379Y286813D01*
X111407Y290524D01*
X111406Y290530D01*
X111407Y290535D01*
X111393Y290677D01*
X111380Y290819D01*
X111378Y290824D01*
X111378Y290829D01*
X111261Y291415D01*
X111176Y291698D01*
X111036Y291958D01*
X110705Y292454D01*
X110517Y292683D01*
X110517D01*
Y292683D01*
X110289Y292870D01*
X109793Y293202D01*
X109532Y293341D01*
X109249Y293427D01*
X108664Y293543D01*
X108370Y293572D01*
X108370D01*
D01*
X108076Y293543D01*
X108072Y293542D01*
X90017Y293496D01*
X89516Y293595D01*
X89267Y293762D01*
X89229Y293809D01*
X89227Y293810D01*
X89225Y293812D01*
X82543Y300451D01*
X82145Y300969D01*
X81932Y301484D01*
X81870Y301956D01*
X81877Y302033D01*
X81901Y318533D01*
X81901Y318534D01*
X81901Y318535D01*
X81887Y318682D01*
X81872Y318827D01*
X81872Y318828D01*
X81872Y318829D01*
X81778Y319301D01*
X81752Y319386D01*
X81693Y319583D01*
X81608Y319741D01*
X81553Y319844D01*
X81553Y319844D01*
X81287Y320243D01*
X81286Y320243D01*
X81286Y320244D01*
X81199Y320350D01*
X81099Y320472D01*
X81099Y320472D01*
X81099Y320472D01*
X81001Y320552D01*
X80906Y320630D01*
X73083Y328405D01*
X72321Y329334D01*
X71788Y330330D01*
X71460Y331411D01*
X71394Y332083D01*
X71554Y332115D01*
X71837Y332201D01*
X72098Y332340D01*
X72098Y332340D01*
X72428Y332561D01*
X72657Y332749D01*
X72844Y332977D01*
X73065Y333308D01*
X73065Y333308D01*
X73108Y333387D01*
X73205Y333568D01*
X73290Y333851D01*
Y333851D01*
X73368Y334241D01*
X73397Y334535D01*
X73379Y334722D01*
X73397Y337526D01*
X73396Y337530D01*
X73397Y337535D01*
X73383Y337677D01*
X73370Y337820D01*
X73368Y337825D01*
X73368Y337829D01*
X73290Y338220D01*
X73205Y338502D01*
X73065Y338763D01*
X73065Y338763D01*
X72844Y339094D01*
X72657Y339322D01*
X72428Y339510D01*
X72098Y339731D01*
X72098Y339731D01*
X72019Y339773D01*
X71837Y339870D01*
X71554Y339956D01*
X71554D01*
X71164Y340033D01*
X70870Y340062D01*
D02*
G37*
G36*
X61128Y254235D02*
X60511Y254200D01*
X59902Y254097D01*
X59308Y253925D01*
X58737Y253689D01*
X58197Y253390D01*
X57693Y253033D01*
X57232Y252621D01*
X56821Y252161D01*
X56706Y251999D01*
X55706D01*
X55592Y252161D01*
X55180Y252621D01*
X54720Y253033D01*
X54216Y253390D01*
X53675Y253689D01*
X53104Y253925D01*
X52511Y254097D01*
X51902Y254200D01*
X51285Y254235D01*
X50668Y254200D01*
X50059Y254097D01*
X49466Y253925D01*
X48895Y253689D01*
X48354Y253390D01*
X47850Y253033D01*
X47390Y252621D01*
X46978Y252161D01*
X46621Y251657D01*
X46322Y251116D01*
X46086Y250545D01*
X45915Y249952D01*
X45811Y249343D01*
X45776Y248726D01*
Y244915D01*
X45811Y244298D01*
X45915Y243689D01*
X46086Y243096D01*
X46322Y242525D01*
X46621Y241984D01*
X46978Y241480D01*
X47390Y241020D01*
X47850Y240608D01*
X48354Y240251D01*
X48895Y239952D01*
X49466Y239715D01*
X50059Y239544D01*
X50668Y239441D01*
X51285Y239406D01*
X51902Y239441D01*
X52511Y239544D01*
X53104Y239715D01*
X53675Y239952D01*
X54216Y240251D01*
X54720Y240608D01*
X55180Y241020D01*
X55592Y241480D01*
X55706Y241642D01*
X56706D01*
X56821Y241480D01*
X57232Y241020D01*
X57693Y240608D01*
X58197Y240251D01*
X58737Y239952D01*
X59308Y239715D01*
X59902Y239544D01*
X60511Y239441D01*
X61128Y239406D01*
X61744Y239441D01*
X62353Y239544D01*
X62947Y239715D01*
X63518Y239952D01*
X64058Y240251D01*
X64562Y240608D01*
X65023Y241020D01*
X65434Y241480D01*
X65792Y241984D01*
X66091Y242525D01*
X66327Y243096D01*
X66498Y243689D01*
X66602Y244298D01*
X66636Y244915D01*
Y248726D01*
X66602Y249343D01*
X66498Y249952D01*
X66327Y250545D01*
X66091Y251116D01*
X65792Y251657D01*
X65434Y252161D01*
X65023Y252621D01*
X64562Y253033D01*
X64058Y253390D01*
X63518Y253689D01*
X62947Y253925D01*
X62353Y254097D01*
X61744Y254200D01*
X61128Y254235D01*
D02*
G37*
G36*
X54967Y339097D02*
X52014D01*
X51547Y339061D01*
X51092Y338951D01*
X50659Y338772D01*
X50259Y338527D01*
X49903Y338223D01*
X49599Y337867D01*
X49354Y337467D01*
X49175Y337034D01*
X49065Y336579D01*
X49029Y336112D01*
Y333159D01*
X49065Y332692D01*
X49175Y332237D01*
X49354Y331804D01*
X49599Y331404D01*
X49903Y331048D01*
X50259Y330744D01*
X50659Y330499D01*
X51092Y330320D01*
X51547Y330210D01*
X52014Y330173D01*
X54967D01*
X55434Y330210D01*
X55889Y330320D01*
X56322Y330499D01*
X56722Y330744D01*
X57078Y331048D01*
X57382Y331404D01*
X57627Y331804D01*
X57806Y332237D01*
X57916Y332692D01*
X57952Y333159D01*
Y336112D01*
X57916Y336579D01*
X57806Y337034D01*
X57627Y337467D01*
X57382Y337867D01*
X57078Y338223D01*
X56722Y338527D01*
X56322Y338772D01*
X55889Y338951D01*
X55434Y339061D01*
X54967Y339097D01*
D02*
G37*
%LPD*%
G36*
X132321Y287692D02*
X132516Y287401D01*
X132807Y287206D01*
X133079Y287152D01*
X133680Y287155D01*
X134070Y287077D01*
X134401Y286856D01*
X134622Y286526D01*
X134699Y286135D01*
X134680D01*
X134697Y282135D01*
X134628Y281784D01*
X134429Y281487D01*
X134131Y281288D01*
X133780Y281218D01*
Y281235D01*
X132470Y281230D01*
Y281218D01*
X129580D01*
Y281192D01*
X129069Y281294D01*
X128636Y281583D01*
X128346Y282016D01*
X128244Y282528D01*
X128270Y285935D01*
X128304D01*
X128699Y286331D01*
X128738Y286526D01*
X128959Y286856D01*
X129290Y287077D01*
X129680Y287155D01*
Y287135D01*
X133079Y287152D01*
D01*
X131680Y287145D01*
X131570Y288035D01*
X132253D01*
X132321Y287692D01*
D02*
G37*
G36*
X132670Y327577D02*
X133001Y327356D01*
X133222Y327026D01*
X133300Y326635D01*
X133280D01*
X133298Y322635D01*
X133228Y322284D01*
X133029Y321987D01*
X132731Y321788D01*
X132380Y321718D01*
Y321735D01*
X128180Y321718D01*
X127829Y321788D01*
X127531Y321987D01*
X127332Y322284D01*
X127262Y322635D01*
X127280D01*
X127260Y326635D01*
X127338Y327026D01*
X127559Y327356D01*
X127890Y327577D01*
X128280Y327655D01*
Y327635D01*
X132280Y327655D01*
X132670Y327577D01*
D02*
G37*
G36*
X71260Y338477D02*
X71591Y338256D01*
X71812Y337926D01*
X71890Y337535D01*
X71870Y334535D01*
X71890D01*
X71812Y334145D01*
X71591Y333815D01*
X71260Y333593D01*
X70870Y333516D01*
Y333555D01*
X70480Y333477D01*
X70149Y333256D01*
X69928Y332926D01*
X69850Y332535D01*
X69835D01*
X69975Y331116D01*
X70389Y329750D01*
X71061Y328492D01*
X71967Y327389D01*
X80016Y319389D01*
X80033Y319406D01*
X80300Y319006D01*
X80394Y318535D01*
X80370Y302035D01*
X80339D01*
X80463Y301090D01*
X80828Y300209D01*
X81409Y299453D01*
X88163Y292742D01*
X88130Y292709D01*
X88928Y292176D01*
X89870Y291988D01*
X108370Y292035D01*
Y292065D01*
X108955Y291948D01*
X109451Y291617D01*
X109783Y291121D01*
X109899Y290535D01*
X109870Y286535D01*
X109899D01*
X109783Y285950D01*
X109451Y285454D01*
X108955Y285122D01*
X108370Y285006D01*
X103870Y285035D01*
Y285016D01*
X103480Y285093D01*
X103149Y285314D01*
X102928Y285645D01*
X102850Y286035D01*
X102890D01*
X102812Y286426D01*
X102591Y286756D01*
X102260Y286977D01*
X101870Y287055D01*
X87370Y287035D01*
Y286988D01*
X86428Y287175D01*
X85629Y287709D01*
X76370Y297035D01*
X76349Y297015D01*
X75802Y297728D01*
X75458Y298558D01*
X75341Y299450D01*
X75370Y311893D01*
X75419D01*
X75225Y313854D01*
X74654Y315739D01*
X73725Y317476D01*
X72475Y318999D01*
X65370Y326035D01*
X65346Y326012D01*
X64969Y326576D01*
X64837Y327242D01*
X64870Y330828D01*
X64903D01*
X64771Y331494D01*
X64394Y332059D01*
X64370Y332016D01*
X63980Y332093D01*
X63649Y332314D01*
X63428Y332645D01*
X63350Y333035D01*
X63370Y337535D01*
X63350D01*
X63428Y337926D01*
X63649Y338256D01*
X63980Y338477D01*
X64370Y338555D01*
X70870Y338535D01*
Y338555D01*
X71260Y338477D01*
D02*
G37*
G36*
X152494Y296262D02*
X153024Y295909D01*
X153377Y295379D01*
X153501Y294755D01*
X153491Y293312D01*
X153498Y293294D01*
X153491D01*
X153477Y291353D01*
X153504Y283542D01*
X153371Y282876D01*
X152994Y282312D01*
X152970Y282335D01*
X144337Y273642D01*
X143618Y273162D01*
X142770Y272993D01*
Y273035D01*
X127419Y272995D01*
X126619Y273154D01*
X125942Y273607D01*
X125970Y273635D01*
X118109Y281443D01*
X117682Y282082D01*
X117532Y282835D01*
X117570D01*
X117532Y284489D01*
X117682Y285239D01*
X118094Y285857D01*
X117997Y285876D01*
X117765Y286031D01*
X117611Y286262D01*
X117556Y286535D01*
X117590D01*
X117512Y286926D01*
X117291Y287256D01*
X116960Y287477D01*
X116570Y287555D01*
X116370Y287535D01*
Y287496D01*
X115590Y287651D01*
X114928Y288093D01*
X114486Y288755D01*
X114331Y289535D01*
X114370Y292535D01*
X114335D01*
X114474Y293238D01*
X114872Y293833D01*
X115468Y294231D01*
X116170Y294371D01*
X120670Y294335D01*
Y294361D01*
X121177Y294260D01*
X121607Y293973D01*
X121895Y293543D01*
X121996Y293035D01*
X121970Y285835D01*
X121942Y285640D01*
X122054Y284502D01*
X122386Y283408D01*
X122925Y282399D01*
X123650Y281516D01*
X123670Y281535D01*
X127304Y277866D01*
X127909Y277402D01*
X128614Y277110D01*
X129370Y277010D01*
Y277035D01*
X140939Y277012D01*
X141652Y277106D01*
X142316Y277381D01*
X142887Y277819D01*
X142870Y277835D01*
X148708Y283641D01*
X149134Y284196D01*
X149402Y284842D01*
X149493Y285535D01*
X149470D01*
X149488Y289535D01*
X149418Y289887D01*
X149219Y290184D01*
X148921Y290383D01*
X148615Y290444D01*
X148570Y290444D01*
Y290435D01*
X147770Y290418D01*
Y290400D01*
X147411Y290471D01*
X147107Y290674D01*
X146904Y290979D01*
X146833Y291337D01*
X146851Y295492D01*
X146889Y295532D01*
X146928Y295726D01*
X147149Y296056D01*
X147480Y296277D01*
X147655Y296312D01*
X147675Y296332D01*
X147716Y296324D01*
X147870Y296355D01*
Y296335D01*
X151870Y296355D01*
Y296386D01*
X152494Y296262D01*
D02*
G37*
G36*
X69455Y303448D02*
X69951Y303117D01*
X70283Y302621D01*
X70399Y302035D01*
X70370Y298035D01*
X70323D01*
X70510Y297093D01*
X71044Y296295D01*
X84370Y283035D01*
X84349Y283015D01*
X85062Y282467D01*
X85893Y282123D01*
X86784Y282006D01*
X91370Y282035D01*
Y282083D01*
X92312Y281895D01*
X93111Y281362D01*
X103516Y270889D01*
X103500Y270872D01*
X103899Y270605D01*
X104370Y270512D01*
X111370Y270535D01*
Y270565D01*
X111955Y270448D01*
X112452Y270117D01*
X112783Y269621D01*
X112899Y269035D01*
X112870Y265035D01*
X112899D01*
X112783Y264450D01*
X112452Y263954D01*
X111955Y263622D01*
X111370Y263506D01*
X107370Y263535D01*
Y263516D01*
X106980Y263593D01*
X106649Y263814D01*
X106428Y264145D01*
X106351Y264535D01*
X106390D01*
X106312Y264926D01*
X106091Y265256D01*
X105760Y265477D01*
X105370Y265555D01*
X102870Y265535D01*
Y265488D01*
X101928Y265675D01*
X101129Y266209D01*
X91370Y276035D01*
X91391Y276056D01*
X90678Y276604D01*
X89847Y276948D01*
X88956Y277065D01*
X84370Y277035D01*
Y277004D01*
X83425Y277129D01*
X82544Y277494D01*
X81787Y278074D01*
X64153Y295753D01*
X64139Y295739D01*
X63926Y296059D01*
X63851Y296435D01*
X63870Y302035D01*
X63841D01*
X63957Y302621D01*
X64289Y303117D01*
X64785Y303448D01*
X65370Y303565D01*
X68870Y303535D01*
Y303565D01*
X69455Y303448D01*
D02*
G37*
G36*
X329535Y341035D02*
Y341055D01*
X329926Y340977D01*
X330256Y340756D01*
X330477Y340426D01*
X330555Y340035D01*
X330535Y331535D01*
X330575D01*
X330419Y330755D01*
X329977Y330094D01*
X329316Y329651D01*
X328535Y329496D01*
Y329555D01*
X328145Y329477D01*
X327815Y329256D01*
X327593Y328926D01*
X327516Y328535D01*
X327535Y325035D01*
X327565D01*
X327448Y324450D01*
X327117Y323954D01*
X326621Y323622D01*
X326035Y323506D01*
X323235Y323535D01*
Y323514D01*
X322806Y323599D01*
X322442Y323842D01*
X322199Y324206D01*
X322114Y324635D01*
X322135Y339635D01*
X322108D01*
X322217Y340182D01*
X322526Y340645D01*
X322989Y340954D01*
X323535Y341063D01*
X329535Y341035D01*
D02*
G37*
G36*
X344789Y349483D02*
X345377Y349383D01*
X345951Y349218D01*
X346503Y348989D01*
X347025Y348700D01*
X347512Y348355D01*
X347957Y347957D01*
X348355Y347512D01*
X348588Y347183D01*
X348311Y346222D01*
X347334Y345817D01*
X338929D01*
X338319Y345783D01*
X337717Y345681D01*
X337131Y345512D01*
X336566Y345278D01*
X336032Y344983D01*
X335534Y344629D01*
X335079Y344222D01*
X334672Y343767D01*
X334318Y343269D01*
X334023Y342734D01*
X333789Y342170D01*
X333620Y341583D01*
X333518Y340981D01*
X333484Y340372D01*
X333518Y339762D01*
X333620Y339160D01*
X333789Y338573D01*
X334023Y338009D01*
X334318Y337474D01*
X334672Y336976D01*
X335079Y336521D01*
X335315Y336310D01*
X334958Y335376D01*
X332759D01*
X332053Y336084D01*
X332062Y340032D01*
X332062Y340034D01*
X332062Y340035D01*
X332048Y340181D01*
X332034Y340326D01*
X332033Y340328D01*
X332033Y340330D01*
X331956Y340720D01*
X331870Y341002D01*
X331731Y341263D01*
X331731Y341263D01*
X331510Y341594D01*
X331322Y341822D01*
X331094Y342010D01*
X330763Y342231D01*
X330763Y342231D01*
X330684Y342273D01*
X330502Y342370D01*
X330220Y342456D01*
X330220D01*
X329830Y342533D01*
X329535Y342562D01*
X329345Y342544D01*
X324475Y342566D01*
X324176Y342638D01*
X323706Y342675D01*
X323547D01*
Y342740D01*
X317397D01*
X317397Y342740D01*
Y342740D01*
X316459Y342983D01*
X316459D01*
X316560Y343404D01*
X316594Y343835D01*
X316560Y344267D01*
X316459Y344688D01*
X316293Y345088D01*
X316067Y345457D01*
X315786Y345786D01*
X315457Y346067D01*
X315088Y346293D01*
X314688Y346459D01*
X314267Y346560D01*
X313835Y346594D01*
X313404Y346560D01*
X312983Y346459D01*
X312583Y346293D01*
X312214Y346067D01*
X311885Y345786D01*
X311604Y345457D01*
X311378Y345088D01*
X311212Y344688D01*
X311111Y344267D01*
X311077Y343835D01*
X311111Y343404D01*
X311212Y342983D01*
X311212D01*
X310704Y342740D01*
X310704D01*
Y336591D01*
X316853D01*
Y336591D01*
X316853D01*
X316853Y336591D01*
X317397D01*
Y336591D01*
X319916D01*
X320623Y335883D01*
X320607Y324638D01*
X320607Y324637D01*
X320607Y324635D01*
X320621Y324490D01*
X320635Y324343D01*
X320636Y324342D01*
X320636Y324341D01*
X320721Y323912D01*
Y323912D01*
X320807Y323629D01*
X320946Y323369D01*
X321189Y323005D01*
X321189Y323005D01*
X321336Y322827D01*
X321377Y322777D01*
X321377D01*
Y322777D01*
X321605Y322589D01*
X321969Y322346D01*
X322229Y322207D01*
X322512Y322121D01*
X322512D01*
X322941Y322036D01*
X322941Y322036D01*
X323235Y322007D01*
X323235D01*
D01*
X323432Y322026D01*
X324028Y322020D01*
X324513Y321145D01*
X324478Y321088D01*
X324312Y320688D01*
X324211Y320267D01*
X324177Y319835D01*
X324211Y319404D01*
X324312Y318983D01*
X324478Y318583D01*
X324704Y318214D01*
X324985Y317885D01*
X325314Y317604D01*
X325683Y317378D01*
X326083Y317212D01*
X326504Y317111D01*
X326935Y317077D01*
X327093Y316932D01*
X326995Y315936D01*
X326709Y315761D01*
X326439Y315531D01*
X325340Y314431D01*
X325110Y314162D01*
X324924Y313860D01*
X324888Y313773D01*
X324704Y313557D01*
X324478Y313188D01*
X324312Y312788D01*
X324211Y312367D01*
X324177Y311935D01*
X324211Y311504D01*
X324312Y311083D01*
X324478Y310683D01*
X324704Y310314D01*
X324985Y309985D01*
X325314Y309704D01*
X325683Y309478D01*
X326083Y309312D01*
X326504Y309211D01*
X326935Y309177D01*
X327367Y309211D01*
X327788Y309312D01*
X328188Y309478D01*
X328557Y309704D01*
X328886Y309985D01*
X329167Y310314D01*
X329176Y310328D01*
X340035D01*
Y317659D01*
D01*
Y317659D01*
X340035Y317659D01*
Y318202D01*
X340035D01*
Y325533D01*
X329040D01*
X329030Y327336D01*
X329735Y328045D01*
X340035D01*
Y334926D01*
X348772D01*
X348789Y334927D01*
X349516Y334240D01*
X349513Y301622D01*
X348786Y300935D01*
X348772Y300935D01*
X338929D01*
X338319Y300901D01*
X337717Y300799D01*
X337131Y300630D01*
X336566Y300396D01*
X336032Y300101D01*
X335534Y299747D01*
X335079Y299340D01*
X334672Y298885D01*
X334318Y298387D01*
X334023Y297852D01*
X333789Y297288D01*
X333620Y296702D01*
X333518Y296099D01*
X333484Y295490D01*
X333518Y294880D01*
X333620Y294278D01*
X333789Y293691D01*
X334023Y293127D01*
X334318Y292593D01*
X334672Y292094D01*
X335079Y291639D01*
X335534Y291232D01*
X336032Y290879D01*
X336566Y290583D01*
X337131Y290350D01*
X337717Y290181D01*
X338319Y290078D01*
X338929Y290044D01*
X348772D01*
X348786Y290045D01*
X349512Y289358D01*
X349508Y226378D01*
X349508D01*
X349515Y226370D01*
X349484Y225815D01*
X349390Y225259D01*
X349234Y224717D01*
X349018Y224197D01*
X348745Y223703D01*
X348419Y223243D01*
X348043Y222823D01*
X347623Y222447D01*
X347163Y222121D01*
X346670Y221848D01*
X346149Y221633D01*
X345607Y221476D01*
X345051Y221382D01*
X344488Y221350D01*
X226378Y221358D01*
Y221358D01*
X226370Y221351D01*
X225815Y221382D01*
X225259Y221476D01*
X224717Y221633D01*
X224197Y221848D01*
X223703Y222121D01*
X223243Y222447D01*
X222823Y222823D01*
X222447Y223243D01*
X222121Y223703D01*
X221848Y224197D01*
X221633Y224717D01*
X221476Y225259D01*
X221382Y225815D01*
X221350Y226378D01*
X221358Y344488D01*
X221358D01*
X221351Y344496D01*
X221382Y345051D01*
X221476Y345607D01*
X221633Y346149D01*
X221848Y346670D01*
X222121Y347163D01*
X222447Y347623D01*
X222823Y348043D01*
X223243Y348419D01*
X223703Y348745D01*
X224197Y349018D01*
X224717Y349234D01*
X225259Y349390D01*
X225815Y349484D01*
X226370Y349515D01*
X226378Y349508D01*
Y349508D01*
X226378Y349508D01*
X344193D01*
Y349508D01*
X344201Y349516D01*
X344789Y349483D01*
D02*
G37*
%LPC*%
G36*
X267821Y254235D02*
X267204Y254200D01*
X266595Y254097D01*
X266001Y253925D01*
X265430Y253689D01*
X264890Y253390D01*
X264386Y253033D01*
X263925Y252621D01*
X263514Y252161D01*
X263399Y251999D01*
X262399D01*
X262285Y252161D01*
X261873Y252621D01*
X261413Y253033D01*
X260909Y253390D01*
X260368Y253689D01*
X259797Y253925D01*
X259204Y254097D01*
X258595Y254200D01*
X257978Y254235D01*
X257361Y254200D01*
X256752Y254097D01*
X256159Y253925D01*
X255588Y253689D01*
X255047Y253390D01*
X254543Y253033D01*
X254083Y252621D01*
X253671Y252161D01*
X253314Y251657D01*
X253015Y251116D01*
X252778Y250545D01*
X252607Y249952D01*
X252504Y249343D01*
X252469Y248726D01*
Y244915D01*
X252504Y244298D01*
X252607Y243689D01*
X252778Y243096D01*
X253015Y242525D01*
X253314Y241984D01*
X253671Y241480D01*
X254083Y241020D01*
X254543Y240608D01*
X255047Y240251D01*
X255588Y239952D01*
X256159Y239715D01*
X256752Y239544D01*
X257361Y239441D01*
X257978Y239406D01*
X258595Y239441D01*
X259204Y239544D01*
X259797Y239715D01*
X260368Y239952D01*
X260909Y240251D01*
X261413Y240608D01*
X261873Y241020D01*
X262285Y241480D01*
X262399Y241642D01*
X263399D01*
X263514Y241480D01*
X263925Y241020D01*
X264386Y240608D01*
X264890Y240251D01*
X265430Y239952D01*
X266001Y239715D01*
X266595Y239544D01*
X267204Y239441D01*
X267821Y239406D01*
X268437Y239441D01*
X269046Y239544D01*
X269640Y239715D01*
X270211Y239952D01*
X270751Y240251D01*
X271255Y240608D01*
X271716Y241020D01*
X272127Y241480D01*
X272485Y241984D01*
X272784Y242525D01*
X273020Y243096D01*
X273191Y243689D01*
X273294Y244298D01*
X273329Y244915D01*
Y248726D01*
X273294Y249343D01*
X273191Y249952D01*
X273020Y250545D01*
X272784Y251116D01*
X272485Y251657D01*
X272127Y252161D01*
X271716Y252621D01*
X271255Y253033D01*
X270751Y253390D01*
X270211Y253689D01*
X269640Y253925D01*
X269046Y254097D01*
X268437Y254200D01*
X267821Y254235D01*
D02*
G37*
G36*
X232132Y304897D02*
X229180D01*
X228713Y304861D01*
X228257Y304751D01*
X227824Y304572D01*
X227425Y304327D01*
X227068Y304023D01*
X226764Y303667D01*
X226519Y303267D01*
X226340Y302834D01*
X226231Y302379D01*
X226194Y301912D01*
Y298959D01*
X226231Y298492D01*
X226340Y298037D01*
X226519Y297604D01*
X226764Y297204D01*
X227068Y296848D01*
X227425Y296544D01*
X227824Y296299D01*
X228257Y296120D01*
X228713Y296010D01*
X229180Y295973D01*
X232132D01*
X232599Y296010D01*
X233055Y296120D01*
X233488Y296299D01*
X233887Y296544D01*
X234243Y296848D01*
X234548Y297204D01*
X234792Y297604D01*
X234972Y298037D01*
X235081Y298492D01*
X235118Y298959D01*
Y301912D01*
X235081Y302379D01*
X234972Y302834D01*
X234792Y303267D01*
X234548Y303667D01*
X234243Y304023D01*
X233887Y304327D01*
X233488Y304572D01*
X233055Y304751D01*
X232599Y304861D01*
X232132Y304897D01*
D02*
G37*
G36*
X246035Y305072D02*
D01*
X246035D01*
X245761Y305045D01*
X242548Y305072D01*
X242542Y305071D01*
X242535Y305072D01*
X242395Y305058D01*
X242254Y305046D01*
X242248Y305044D01*
X242241Y305043D01*
X241656Y304927D01*
X241373Y304841D01*
X241113Y304702D01*
X240617Y304370D01*
X240388Y304183D01*
Y304183D01*
X240388D01*
X240201Y303954D01*
X239869Y303458D01*
X239730Y303198D01*
X239644Y302915D01*
X239528Y302329D01*
X239499Y302035D01*
D01*
Y302035D01*
X239527Y301747D01*
X239509Y296441D01*
X239510Y296438D01*
X239509Y296435D01*
X239524Y296291D01*
X239537Y296146D01*
X239538Y296144D01*
X239538Y296141D01*
X239613Y295765D01*
Y295765D01*
X239633Y295699D01*
X239699Y295482D01*
X239790Y295312D01*
X239838Y295221D01*
X240052Y294902D01*
X240052Y294902D01*
X240052Y294901D01*
X240156Y294774D01*
X240239Y294673D01*
X240239Y294673D01*
X240240Y294673D01*
X240371Y294566D01*
X240386Y294552D01*
X257886Y277010D01*
X257962Y276946D01*
X258035Y276878D01*
X258792Y276298D01*
X258834Y276272D01*
X258872Y276240D01*
X258959Y276194D01*
X259043Y276142D01*
X259089Y276124D01*
X259132Y276101D01*
X260013Y275736D01*
X260061Y275722D01*
X260106Y275701D01*
X260202Y275679D01*
X260296Y275650D01*
X260345Y275645D01*
X260393Y275634D01*
X261339Y275510D01*
X261437Y275507D01*
X261535Y275497D01*
X261585Y275502D01*
X261634Y275500D01*
X261731Y275516D01*
X261829Y275526D01*
X261843Y275530D01*
X266027Y275557D01*
X266619Y275479D01*
X267083Y275287D01*
X267423Y275026D01*
X267466Y274973D01*
X277225Y265147D01*
X277227Y265145D01*
X277229Y265143D01*
X277341Y265051D01*
X277453Y264959D01*
X277455Y264957D01*
X277457Y264956D01*
X278256Y264422D01*
X278256Y264422D01*
X278377Y264357D01*
X278517Y264283D01*
X278799Y264197D01*
X278799D01*
X279741Y264010D01*
X280035Y263981D01*
X280329Y264010D01*
X280399Y264031D01*
X282077Y264044D01*
X282115Y263851D01*
X282201Y263568D01*
X282340Y263308D01*
X282340Y263308D01*
X282561Y262977D01*
X282749Y262749D01*
X282977Y262561D01*
X283308Y262340D01*
X283308Y262340D01*
X283387Y262298D01*
X283568Y262201D01*
X283851Y262115D01*
X283851D01*
X284241Y262037D01*
X284535Y262009D01*
X284720Y262027D01*
X288524Y261999D01*
X288530Y261999D01*
X288535Y261999D01*
X288677Y262013D01*
X288819Y262026D01*
X288824Y262027D01*
X288829Y262028D01*
X289415Y262144D01*
X289698Y262230D01*
X289958Y262369D01*
X290454Y262701D01*
X290683Y262888D01*
Y262888D01*
X290683D01*
X290870Y263117D01*
X291202Y263613D01*
X291341Y263873D01*
X291427Y264156D01*
X291543Y264741D01*
X291572Y265035D01*
D01*
Y265035D01*
X291545Y265313D01*
X291572Y269024D01*
X291571Y269030D01*
X291572Y269035D01*
X291558Y269177D01*
X291545Y269319D01*
X291544Y269324D01*
X291543Y269330D01*
X291427Y269915D01*
X291341Y270198D01*
X291202Y270458D01*
X290870Y270954D01*
X290683Y271183D01*
X290683D01*
Y271183D01*
X290454Y271370D01*
X289958Y271702D01*
X289698Y271841D01*
X289415Y271927D01*
X288829Y272043D01*
X288535Y272072D01*
D01*
X288535D01*
X288241Y272043D01*
X288237Y272042D01*
X281683Y272020D01*
X271345Y282424D01*
X271343Y282426D01*
X271342Y282428D01*
X271229Y282521D01*
X271117Y282612D01*
X271115Y282613D01*
X271113Y282615D01*
X270315Y283149D01*
X270315Y283149D01*
X270194Y283213D01*
X270054Y283288D01*
X269772Y283374D01*
X269772D01*
X268829Y283561D01*
X268535Y283590D01*
X268241Y283561D01*
X268173Y283540D01*
X264044Y283514D01*
X263452Y283592D01*
X262988Y283784D01*
X262647Y284046D01*
X262601Y284101D01*
X262600Y284102D01*
X262598Y284104D01*
X249379Y297257D01*
X249095Y297682D01*
X249037Y297973D01*
X249043Y298024D01*
X249072Y302024D01*
X249072Y302030D01*
X249072Y302035D01*
X249058Y302177D01*
X249045Y302319D01*
X249044Y302324D01*
X249043Y302329D01*
X248927Y302915D01*
X248841Y303198D01*
X248702Y303458D01*
X248370Y303954D01*
X248183Y304183D01*
X248183D01*
Y304183D01*
X247954Y304370D01*
X247458Y304702D01*
X247198Y304841D01*
X246915Y304927D01*
X246329Y305043D01*
X246035Y305072D01*
D02*
G37*
G36*
X309445Y329162D02*
X309441Y329162D01*
X309438Y329162D01*
X305635Y329144D01*
X305445Y329162D01*
X305151Y329133D01*
X304761Y329056D01*
X304478Y328970D01*
X304218Y328831D01*
X304218Y328831D01*
X303887Y328610D01*
X303659Y328422D01*
X303471Y328194D01*
X303250Y327863D01*
X303250Y327863D01*
X303208Y327784D01*
X303111Y327602D01*
X303025Y327320D01*
Y327320D01*
X302947Y326929D01*
X302947Y326926D01*
X302946Y326922D01*
X302933Y326779D01*
X302918Y326635D01*
X302919Y326632D01*
X302918Y326628D01*
X302937Y322806D01*
X302920Y322635D01*
X302949Y322341D01*
X303019Y321990D01*
Y321990D01*
X303071Y321819D01*
X303105Y321708D01*
X303105Y321708D01*
D01*
X303123Y321674D01*
X303244Y321447D01*
X303244Y321447D01*
X303443Y321149D01*
X303443Y321149D01*
X303631Y320921D01*
X303631D01*
Y320921D01*
X303680Y320880D01*
X303859Y320733D01*
X303928Y320687D01*
Y285908D01*
X303903Y282539D01*
X303903Y282533D01*
X303903Y282528D01*
X303917Y282386D01*
X303929Y282245D01*
X303931Y282239D01*
X303931Y282234D01*
X304001Y281883D01*
X303263Y281489D01*
X303094Y281437D01*
X301620Y282911D01*
X301350Y283241D01*
X300951Y283987D01*
X300705Y284797D01*
X300625Y285606D01*
X300627Y285622D01*
X300632Y285726D01*
X300643Y285830D01*
X300668Y293030D01*
X300668Y293033D01*
X300668Y293035D01*
X300654Y293180D01*
X300640Y293324D01*
X300640Y293327D01*
X300639Y293330D01*
X300538Y293837D01*
X300512Y293922D01*
X300452Y294120D01*
X300313Y294380D01*
X300026Y294810D01*
X300026Y294810D01*
X299879Y294989D01*
X299838Y295039D01*
X299838D01*
Y295039D01*
X299816Y295057D01*
X299610Y295226D01*
X299610Y295226D01*
X299180Y295513D01*
X299180Y295513D01*
X299146Y295531D01*
X298920Y295653D01*
X298723Y295712D01*
X298637Y295738D01*
X298130Y295839D01*
X297835Y295868D01*
D01*
X297835D01*
X297596Y295845D01*
X293347Y295878D01*
X293341Y295877D01*
X293335Y295878D01*
X293194Y295864D01*
X293053Y295851D01*
X293047Y295850D01*
X293041Y295849D01*
X292339Y295709D01*
X292339D01*
X292056Y295623D01*
X291796Y295484D01*
X291200Y295086D01*
X291200Y295086D01*
X290972Y294899D01*
X290852Y294753D01*
X290785Y294671D01*
X290784Y294671D01*
X290387Y294075D01*
X290387Y294075D01*
X290265Y293848D01*
X290247Y293815D01*
D01*
X290247Y293815D01*
X290214Y293703D01*
X290162Y293532D01*
Y293532D01*
X290022Y292829D01*
X289993Y292535D01*
X290022Y292241D01*
X290024Y292234D01*
X289989Y289555D01*
X289990Y289545D01*
X289989Y289535D01*
X290002Y289398D01*
X290014Y289261D01*
X290017Y289251D01*
X290018Y289241D01*
X290173Y288461D01*
Y288461D01*
X290259Y288178D01*
X290333Y288039D01*
X290398Y287918D01*
X290398Y287918D01*
X290840Y287256D01*
X291028Y287028D01*
X291028D01*
Y287028D01*
X291256Y286840D01*
X291918Y286398D01*
X291918Y286398D01*
X292039Y286333D01*
X292178Y286259D01*
X292461Y286173D01*
X292461D01*
X293228Y286021D01*
Y284825D01*
X293219Y284783D01*
X293218Y284766D01*
X293213Y284749D01*
X293203Y284619D01*
X293191Y284489D01*
X293192Y284472D01*
X293191Y284454D01*
X293221Y283135D01*
X293219Y283130D01*
X293190Y282835D01*
Y282835D01*
D01*
X293219Y282541D01*
X293369Y281788D01*
X293455Y281505D01*
X293594Y281244D01*
X293594Y281244D01*
X293683Y281111D01*
X293698Y281082D01*
X293953Y280700D01*
X293974Y280675D01*
X294021Y280606D01*
X294023Y280604D01*
X294024Y280601D01*
X294117Y280489D01*
X294209Y280377D01*
X294211Y280376D01*
X294212Y280374D01*
X297845Y276766D01*
X301913Y272697D01*
X302041Y272541D01*
X302270Y272354D01*
X302334Y272311D01*
X302400Y272253D01*
X302782Y271998D01*
X302861Y271959D01*
X302947Y271901D01*
X302947Y271901D01*
X303208Y271762D01*
X303491Y271676D01*
X303618Y271651D01*
X303628Y271647D01*
X304078Y271558D01*
X304087Y271557D01*
X304290Y271517D01*
X304292Y271517D01*
X304294Y271516D01*
X304437Y271502D01*
X304584Y271488D01*
X304586Y271488D01*
X304588Y271488D01*
X319599Y271527D01*
X319641Y271515D01*
X319935Y271486D01*
D01*
X319935D01*
X320230Y271515D01*
X320230Y271515D01*
X320425Y271553D01*
X320493Y271558D01*
X320493D01*
X320493Y271558D01*
X320493Y271558D01*
X320943Y271647D01*
X321008Y271669D01*
X321077Y271683D01*
X321360Y271769D01*
X321621Y271908D01*
X321657Y271933D01*
X321789Y271998D01*
X322171Y272253D01*
X322281Y272350D01*
X322339Y272389D01*
X322341Y272390D01*
X322344Y272391D01*
X322455Y272484D01*
X322568Y272576D01*
X322569Y272578D01*
X322571Y272580D01*
X327076Y277116D01*
X331116Y281155D01*
X331119Y281159D01*
X331225Y281246D01*
X331412Y281474D01*
X331790Y282039D01*
X331790Y282039D01*
X331919Y282282D01*
X331929Y282300D01*
D01*
X331929Y282300D01*
X331963Y282411D01*
X332015Y282582D01*
Y282582D01*
X332147Y283248D01*
X332147Y283251D01*
X332148Y283254D01*
X332162Y283398D01*
X332176Y283542D01*
X332176Y283545D01*
X332176Y283548D01*
X332149Y291350D01*
X332163Y293214D01*
X332171Y293294D01*
Y293294D01*
D01*
X332164Y293363D01*
X332174Y294744D01*
X332173Y294750D01*
X332174Y294755D01*
X332160Y294896D01*
X332147Y295038D01*
X332146Y295044D01*
X332145Y295049D01*
X332021Y295673D01*
X331935Y295956D01*
X331796Y296217D01*
X331796Y296217D01*
X331442Y296746D01*
X331442Y296746D01*
X331296Y296924D01*
X331255Y296974D01*
X331255D01*
Y296974D01*
X331205Y297015D01*
X331026Y297162D01*
X331026Y297162D01*
X330497Y297515D01*
X330497Y297515D01*
X330237Y297655D01*
X329954Y297741D01*
X329329Y297865D01*
X329035Y297894D01*
X328741Y297865D01*
X328729Y297861D01*
X325225Y297844D01*
X325035Y297862D01*
X324741Y297833D01*
X324709Y297827D01*
X324687Y297825D01*
X324546Y297811D01*
X324539Y297809D01*
X324532Y297808D01*
X324399Y297766D01*
X324392Y297764D01*
X324351Y297756D01*
X324068Y297670D01*
X323808Y297531D01*
X323808Y297531D01*
X323477Y297310D01*
X323249Y297122D01*
X323061Y296894D01*
X322840Y296563D01*
X322840Y296563D01*
X322798Y296484D01*
X322701Y296302D01*
X322639Y296100D01*
X322626Y296075D01*
X322623Y296064D01*
X322618Y296055D01*
X322579Y295923D01*
X322539Y295792D01*
X322538Y295782D01*
X322535Y295771D01*
X322523Y295635D01*
X322509Y295498D01*
X322491Y291344D01*
X322491Y291341D01*
X322491Y291337D01*
X322505Y291194D01*
X322518Y291050D01*
X322519Y291047D01*
X322519Y291043D01*
X322591Y290685D01*
Y290685D01*
X322631Y290553D01*
X322677Y290402D01*
X322798Y290175D01*
X322816Y290141D01*
X323019Y289837D01*
X323019Y289837D01*
X323207Y289609D01*
X323207D01*
Y289609D01*
X323435Y289421D01*
X323435Y289421D01*
X323739Y289218D01*
X323739Y289218D01*
X323982Y289088D01*
X324000Y289079D01*
D01*
X324000Y289079D01*
X324111Y289045D01*
X324283Y288993D01*
X324283D01*
X324641Y288921D01*
X324641Y288921D01*
X324935Y288893D01*
X325128Y288718D01*
Y285458D01*
X325099Y285236D01*
X324983Y284956D01*
X324940Y284900D01*
X318789Y278750D01*
X318721Y278697D01*
X318424Y278574D01*
X318186Y278543D01*
X306442D01*
X306375Y278552D01*
X305918Y279441D01*
X306101Y279784D01*
X306451Y279714D01*
X306745Y279685D01*
D01*
X306745D01*
X307006Y279711D01*
X309635D01*
X309764Y279723D01*
X310774Y279727D01*
X310945Y279711D01*
X311239Y279739D01*
X311590Y279809D01*
X311591D01*
X311762Y279861D01*
X311873Y279895D01*
X311873Y279895D01*
D01*
X311907Y279913D01*
X312134Y280034D01*
X312134Y280034D01*
X312432Y280233D01*
X312432Y280233D01*
X312660Y280421D01*
Y280421D01*
X312660D01*
X312701Y280471D01*
X312847Y280649D01*
X313046Y280947D01*
X313046Y280947D01*
X313168Y281174D01*
X313186Y281207D01*
D01*
X313186Y281207D01*
X313219Y281319D01*
X313271Y281490D01*
Y281490D01*
X313341Y281841D01*
X313341Y281845D01*
X313342Y281848D01*
X313356Y281992D01*
X313370Y282135D01*
X313370Y282139D01*
X313370Y282142D01*
X313353Y285945D01*
X313372Y286135D01*
X313343Y286430D01*
X313265Y286820D01*
X313180Y287102D01*
X313040Y287363D01*
X313040Y287363D01*
X312819Y287694D01*
X312632Y287922D01*
X312404Y288110D01*
X312073Y288331D01*
X312073Y288331D01*
X311994Y288373D01*
X311812Y288470D01*
X311529Y288556D01*
X311529D01*
X311139Y288633D01*
X311136Y288634D01*
X311132Y288635D01*
X311111Y288637D01*
X311091Y288642D01*
X310968Y288650D01*
X310943Y288653D01*
Y320674D01*
X311032Y320733D01*
X311032Y320733D01*
X311260Y320921D01*
Y320921D01*
X311260D01*
X311301Y320971D01*
X311447Y321149D01*
X311646Y321447D01*
X311646Y321447D01*
X311768Y321674D01*
X311786Y321708D01*
D01*
X311786Y321708D01*
X311819Y321819D01*
X311871Y321990D01*
Y321990D01*
X311941Y322341D01*
X311942Y322345D01*
X311942Y322348D01*
X311956Y322492D01*
X311970Y322635D01*
X311970Y322639D01*
X311970Y322642D01*
X311953Y326445D01*
X311972Y326635D01*
X311943Y326929D01*
X311865Y327320D01*
X311780Y327602D01*
X311641Y327863D01*
X311640Y327863D01*
X311419Y328194D01*
X311232Y328422D01*
X311004Y328610D01*
X310673Y328831D01*
X310673Y328831D01*
X310594Y328873D01*
X310412Y328970D01*
X310129Y329056D01*
X310129D01*
X309739Y329133D01*
X309736Y329134D01*
X309732Y329135D01*
X309589Y329148D01*
X309445Y329162D01*
D02*
G37*
G36*
X248035Y340062D02*
X247843Y340043D01*
X241540Y340062D01*
X241538Y340062D01*
X241535Y340062D01*
X241390Y340048D01*
X241246Y340034D01*
X241244Y340034D01*
X241241Y340033D01*
X240851Y339956D01*
X240568Y339870D01*
X240308Y339731D01*
X240308Y339731D01*
X239977Y339510D01*
X239749Y339322D01*
X239561Y339094D01*
X239340Y338763D01*
X239340Y338763D01*
X239298Y338684D01*
X239201Y338502D01*
X239115Y338220D01*
Y338220D01*
X239037Y337829D01*
X239009Y337535D01*
X239027Y337345D01*
X239009Y333042D01*
X239009Y333039D01*
X239009Y333035D01*
X239023Y332893D01*
X239036Y332748D01*
X239037Y332745D01*
X239037Y332741D01*
X239115Y332351D01*
X239201Y332068D01*
X239340Y331808D01*
X239340Y331808D01*
X239561Y331477D01*
X239749Y331249D01*
X239977Y331061D01*
X240308Y330840D01*
X240308Y330840D01*
X240387Y330798D01*
X240527Y330723D01*
X240495Y327257D01*
X240495Y327250D01*
X240495Y327242D01*
X240509Y327102D01*
X240521Y326962D01*
X240523Y326956D01*
X240524Y326948D01*
X240656Y326282D01*
Y326282D01*
X240708Y326111D01*
X240742Y326000D01*
X240742Y326000D01*
D01*
X240752Y325982D01*
X240881Y325739D01*
X240881Y325739D01*
X241259Y325174D01*
X241259Y325174D01*
X241300Y325125D01*
X241446Y324946D01*
X241674Y324759D01*
X241692Y324749D01*
X248525Y317982D01*
X249631Y316634D01*
X250420Y315159D01*
X250905Y313558D01*
X251049Y312102D01*
X251043Y312043D01*
X251028Y311897D01*
X250999Y299453D01*
X251008Y299353D01*
X251012Y299253D01*
X251129Y298362D01*
X251140Y298313D01*
X251145Y298264D01*
X251174Y298170D01*
X251196Y298074D01*
X251216Y298029D01*
X251231Y297982D01*
X251575Y297151D01*
X251598Y297108D01*
X251616Y297061D01*
X251668Y296977D01*
X251714Y296890D01*
X251745Y296852D01*
X251771Y296810D01*
X252319Y296097D01*
X252386Y296025D01*
X252449Y295949D01*
X252487Y295917D01*
X252521Y295881D01*
X252601Y295824D01*
X252673Y295765D01*
X261725Y286647D01*
X261727Y286645D01*
X261729Y286643D01*
X261841Y286551D01*
X261953Y286459D01*
X261955Y286458D01*
X261958Y286456D01*
X262756Y285922D01*
X262756Y285922D01*
X262877Y285857D01*
X263017Y285783D01*
X263299Y285697D01*
X263299D01*
X264241Y285510D01*
X264535Y285481D01*
X264829Y285510D01*
X264892Y285529D01*
X278576Y285547D01*
X278615Y285351D01*
X278701Y285068D01*
X278840Y284808D01*
X278840Y284808D01*
X279061Y284477D01*
X279249Y284249D01*
X279477Y284061D01*
X279808Y283840D01*
X279808Y283840D01*
X279887Y283798D01*
X280068Y283701D01*
X280351Y283615D01*
X280351D01*
X280741Y283538D01*
X281035Y283509D01*
X281222Y283527D01*
X285526Y283499D01*
X285530Y283499D01*
X285535Y283499D01*
X285677Y283513D01*
X285820Y283526D01*
X285825Y283527D01*
X285829Y283528D01*
X286415Y283644D01*
X286698Y283730D01*
X286958Y283869D01*
X287454Y284201D01*
X287683Y284388D01*
Y284388D01*
X287683D01*
X287870Y284617D01*
X288202Y285113D01*
X288341Y285373D01*
X288427Y285656D01*
X288543Y286241D01*
X288572Y286535D01*
D01*
Y286535D01*
X288545Y286813D01*
X288572Y290524D01*
X288572Y290530D01*
X288572Y290535D01*
X288558Y290677D01*
X288545Y290819D01*
X288544Y290824D01*
X288543Y290829D01*
X288427Y291415D01*
X288341Y291698D01*
X288202Y291958D01*
X287870Y292454D01*
X287683Y292683D01*
X287683D01*
Y292683D01*
X287454Y292870D01*
X286958Y293202D01*
X286698Y293341D01*
X286415Y293427D01*
X285829Y293543D01*
X285535Y293572D01*
D01*
X285535D01*
X285241Y293543D01*
X285238Y293542D01*
X267182Y293496D01*
X266682Y293595D01*
X266432Y293762D01*
X266394Y293809D01*
X266392Y293810D01*
X266391Y293812D01*
X259708Y300451D01*
X259310Y300969D01*
X259097Y301484D01*
X259035Y301956D01*
X259043Y302033D01*
X259066Y318533D01*
X259066Y318534D01*
X259066Y318535D01*
X259052Y318682D01*
X259038Y318827D01*
X259037Y318828D01*
X259037Y318829D01*
X258944Y319301D01*
X258918Y319386D01*
X258858Y319583D01*
X258773Y319741D01*
X258719Y319844D01*
X258719Y319844D01*
X258452Y320243D01*
X258452Y320243D01*
X258452Y320244D01*
X258365Y320350D01*
X258264Y320472D01*
X258264Y320472D01*
X258264Y320472D01*
X258166Y320552D01*
X258072Y320630D01*
X250249Y328405D01*
X249486Y329334D01*
X248954Y330330D01*
X248626Y331411D01*
X248559Y332083D01*
X248720Y332115D01*
X249002Y332201D01*
X249263Y332340D01*
X249263Y332340D01*
X249594Y332561D01*
X249822Y332749D01*
X250010Y332977D01*
X250231Y333308D01*
X250231Y333308D01*
X250273Y333387D01*
X250370Y333568D01*
X250456Y333851D01*
Y333851D01*
X250533Y334241D01*
X250562Y334535D01*
X250544Y334722D01*
X250562Y337526D01*
X250562Y337530D01*
X250562Y337535D01*
X250548Y337677D01*
X250535Y337820D01*
X250534Y337825D01*
X250533Y337829D01*
X250456Y338220D01*
X250370Y338502D01*
X250231Y338763D01*
X250231Y338763D01*
X250010Y339094D01*
X249822Y339322D01*
X249594Y339510D01*
X249263Y339731D01*
X249263Y339731D01*
X249184Y339773D01*
X249002Y339870D01*
X248720Y339956D01*
X248720D01*
X248329Y340033D01*
X248035Y340062D01*
D02*
G37*
G36*
X238293Y254235D02*
X237676Y254200D01*
X237067Y254097D01*
X236473Y253925D01*
X235903Y253689D01*
X235362Y253390D01*
X234858Y253033D01*
X234398Y252621D01*
X233986Y252161D01*
X233872Y251999D01*
X232872D01*
X232757Y252161D01*
X232346Y252621D01*
X231885Y253033D01*
X231381Y253390D01*
X230840Y253689D01*
X230270Y253925D01*
X229676Y254097D01*
X229067Y254200D01*
X228450Y254235D01*
X227834Y254200D01*
X227225Y254097D01*
X226631Y253925D01*
X226060Y253689D01*
X225520Y253390D01*
X225016Y253033D01*
X224555Y252621D01*
X224144Y252161D01*
X223786Y251657D01*
X223487Y251116D01*
X223251Y250545D01*
X223080Y249952D01*
X222976Y249343D01*
X222942Y248726D01*
Y244915D01*
X222976Y244298D01*
X223080Y243689D01*
X223251Y243096D01*
X223487Y242525D01*
X223786Y241984D01*
X224144Y241480D01*
X224555Y241020D01*
X225016Y240608D01*
X225520Y240251D01*
X226060Y239952D01*
X226631Y239715D01*
X227225Y239544D01*
X227834Y239441D01*
X228450Y239406D01*
X229067Y239441D01*
X229676Y239544D01*
X230270Y239715D01*
X230840Y239952D01*
X231381Y240251D01*
X231885Y240608D01*
X232346Y241020D01*
X232757Y241480D01*
X232872Y241642D01*
X233872D01*
X233986Y241480D01*
X234398Y241020D01*
X234858Y240608D01*
X235362Y240251D01*
X235903Y239952D01*
X236473Y239715D01*
X237067Y239544D01*
X237676Y239441D01*
X238293Y239406D01*
X238910Y239441D01*
X239519Y239544D01*
X240112Y239715D01*
X240683Y239952D01*
X241224Y240251D01*
X241727Y240608D01*
X242188Y241020D01*
X242600Y241480D01*
X242957Y241984D01*
X243256Y242525D01*
X243493Y243096D01*
X243664Y243689D01*
X243767Y244298D01*
X243802Y244915D01*
Y248726D01*
X243767Y249343D01*
X243664Y249952D01*
X243493Y250545D01*
X243256Y251116D01*
X242957Y251657D01*
X242600Y252161D01*
X242188Y252621D01*
X241727Y253033D01*
X241224Y253390D01*
X240683Y253689D01*
X240112Y253925D01*
X239519Y254097D01*
X238910Y254200D01*
X238293Y254235D01*
D02*
G37*
G36*
X232132Y339097D02*
X229180D01*
X228713Y339061D01*
X228257Y338951D01*
X227824Y338772D01*
X227425Y338527D01*
X227068Y338223D01*
X226764Y337867D01*
X226519Y337467D01*
X226340Y337034D01*
X226231Y336579D01*
X226194Y336112D01*
Y333159D01*
X226231Y332692D01*
X226340Y332237D01*
X226519Y331804D01*
X226764Y331404D01*
X227068Y331048D01*
X227425Y330744D01*
X227824Y330499D01*
X228257Y330320D01*
X228713Y330210D01*
X229180Y330173D01*
X232132D01*
X232599Y330210D01*
X233055Y330320D01*
X233488Y330499D01*
X233887Y330744D01*
X234243Y331048D01*
X234548Y331404D01*
X234792Y331804D01*
X234972Y332237D01*
X235081Y332692D01*
X235118Y333159D01*
Y336112D01*
X235081Y336579D01*
X234972Y337034D01*
X234792Y337467D01*
X234548Y337867D01*
X234243Y338223D01*
X233887Y338527D01*
X233488Y338772D01*
X233055Y338951D01*
X232599Y339061D01*
X232132Y339097D01*
D02*
G37*
%LPD*%
G36*
X309487Y287692D02*
X309681Y287401D01*
X309972Y287206D01*
X310244Y287152D01*
X310845Y287155D01*
X311235Y287077D01*
X311566Y286856D01*
X311787Y286526D01*
X311865Y286135D01*
X311845D01*
X311863Y282135D01*
X311793Y281784D01*
X311594Y281487D01*
X311296Y281288D01*
X310945Y281218D01*
Y281235D01*
X309635Y281230D01*
Y281218D01*
X306745D01*
Y281192D01*
X306234Y281294D01*
X305801Y281583D01*
X305511Y282016D01*
X305410Y282528D01*
X305435Y285935D01*
X305469D01*
X305864Y286331D01*
X305903Y286526D01*
X306124Y286856D01*
X306455Y287077D01*
X306845Y287155D01*
Y287135D01*
X310244Y287152D01*
D01*
X308845Y287145D01*
X308735Y288035D01*
X309418D01*
X309487Y287692D01*
D02*
G37*
G36*
X309835Y327577D02*
X310166Y327356D01*
X310387Y327026D01*
X310465Y326635D01*
X310445D01*
X310463Y322635D01*
X310393Y322284D01*
X310194Y321987D01*
X309896Y321788D01*
X309545Y321718D01*
Y321735D01*
X305345Y321718D01*
X304994Y321788D01*
X304696Y321987D01*
X304497Y322284D01*
X304428Y322635D01*
X304445D01*
X304426Y326635D01*
X304503Y327026D01*
X304724Y327356D01*
X305055Y327577D01*
X305445Y327655D01*
Y327635D01*
X309445Y327655D01*
X309835Y327577D01*
D02*
G37*
G36*
X248426Y338477D02*
X248756Y338256D01*
X248977Y337926D01*
X249055Y337535D01*
X249035Y334535D01*
X249055D01*
X248977Y334145D01*
X248756Y333815D01*
X248426Y333593D01*
X248035Y333516D01*
Y333555D01*
X247645Y333477D01*
X247315Y333256D01*
X247093Y332926D01*
X247016Y332535D01*
X247000D01*
X247140Y331116D01*
X247554Y329750D01*
X248227Y328492D01*
X249132Y327389D01*
X257182Y319389D01*
X257199Y319406D01*
X257465Y319006D01*
X257559Y318535D01*
X257535Y302035D01*
X257504D01*
X257629Y301090D01*
X257994Y300209D01*
X258574Y299453D01*
X265328Y292742D01*
X265295Y292709D01*
X266093Y292176D01*
X267035Y291988D01*
X285535Y292035D01*
Y292065D01*
X286121Y291948D01*
X286617Y291617D01*
X286948Y291121D01*
X287065Y290535D01*
X287035Y286535D01*
X287065D01*
X286948Y285950D01*
X286617Y285454D01*
X286121Y285122D01*
X285535Y285006D01*
X281035Y285035D01*
Y285016D01*
X280645Y285093D01*
X280314Y285314D01*
X280093Y285645D01*
X280016Y286035D01*
X280055D01*
X279977Y286426D01*
X279756Y286756D01*
X279426Y286977D01*
X279035Y287055D01*
X264535Y287035D01*
Y286988D01*
X263593Y287175D01*
X262795Y287709D01*
X253535Y297035D01*
X253515Y297015D01*
X252967Y297728D01*
X252623Y298558D01*
X252506Y299450D01*
X252535Y311893D01*
X252584D01*
X252391Y313854D01*
X251819Y315739D01*
X250890Y317476D01*
X249641Y318999D01*
X242535Y326035D01*
X242512Y326012D01*
X242134Y326576D01*
X242002Y327242D01*
X242035Y330828D01*
X242069D01*
X241936Y331494D01*
X241559Y332059D01*
X241535Y332016D01*
X241145Y332093D01*
X240814Y332314D01*
X240593Y332645D01*
X240516Y333035D01*
X240535Y337535D01*
X240516D01*
X240593Y337926D01*
X240814Y338256D01*
X241145Y338477D01*
X241535Y338555D01*
X248035Y338535D01*
Y338555D01*
X248426Y338477D01*
D02*
G37*
G36*
X329660Y296262D02*
X330189Y295909D01*
X330543Y295379D01*
X330667Y294755D01*
X330656Y293312D01*
X330664Y293294D01*
X330656D01*
X330642Y291353D01*
X330669Y283542D01*
X330536Y282876D01*
X330159Y282312D01*
X330135Y282335D01*
X321502Y273642D01*
X320783Y273162D01*
X319935Y272993D01*
Y273035D01*
X304584Y272995D01*
X303785Y273154D01*
X303107Y273607D01*
X303135Y273635D01*
X295274Y281443D01*
X294847Y282082D01*
X294698Y282835D01*
X294735D01*
X294698Y284489D01*
X294847Y285239D01*
X295260Y285857D01*
X295162Y285876D01*
X294931Y286031D01*
X294776Y286262D01*
X294722Y286535D01*
X294755D01*
X294677Y286926D01*
X294456Y287256D01*
X294126Y287477D01*
X293735Y287555D01*
X293535Y287535D01*
Y287496D01*
X292755Y287651D01*
X292093Y288093D01*
X291652Y288755D01*
X291496Y289535D01*
X291535Y292535D01*
X291500D01*
X291640Y293238D01*
X292038Y293833D01*
X292633Y294231D01*
X293335Y294371D01*
X297835Y294335D01*
Y294361D01*
X298343Y294260D01*
X298773Y293973D01*
X299060Y293543D01*
X299161Y293035D01*
X299135Y285835D01*
X299107Y285640D01*
X299219Y284502D01*
X299551Y283408D01*
X300090Y282399D01*
X300816Y281516D01*
X300835Y281535D01*
X304469Y277866D01*
X305074Y277402D01*
X305779Y277110D01*
X306535Y277010D01*
Y277035D01*
X318104Y277012D01*
X318817Y277106D01*
X319481Y277381D01*
X320052Y277819D01*
X320035Y277835D01*
X325874Y283641D01*
X326300Y284196D01*
X326567Y284842D01*
X326658Y285535D01*
X326635D01*
X326653Y289535D01*
X326583Y289887D01*
X326384Y290184D01*
X326087Y290383D01*
X325780Y290444D01*
X325735Y290444D01*
Y290435D01*
X324935Y290418D01*
Y290400D01*
X324577Y290471D01*
X324272Y290674D01*
X324069Y290979D01*
X323998Y291337D01*
X324016Y295492D01*
X324055Y295532D01*
X324093Y295726D01*
X324314Y296056D01*
X324645Y296277D01*
X324821Y296312D01*
X324840Y296332D01*
X324881Y296324D01*
X325035Y296355D01*
Y296335D01*
X329035Y296355D01*
Y296386D01*
X329660Y296262D01*
D02*
G37*
G36*
X246621Y303448D02*
X247117Y303117D01*
X247448Y302621D01*
X247565Y302035D01*
X247535Y298035D01*
X247488D01*
X247675Y297093D01*
X248209Y296295D01*
X261535Y283035D01*
X261515Y283015D01*
X262228Y282467D01*
X263058Y282123D01*
X263950Y282006D01*
X268535Y282035D01*
Y282083D01*
X269477Y281895D01*
X270276Y281362D01*
X280682Y270889D01*
X280665Y270872D01*
X281064Y270605D01*
X281535Y270512D01*
X288535Y270535D01*
Y270565D01*
X289121Y270448D01*
X289617Y270117D01*
X289948Y269621D01*
X290065Y269035D01*
X290035Y265035D01*
X290065D01*
X289948Y264450D01*
X289617Y263954D01*
X289121Y263622D01*
X288535Y263506D01*
X284535Y263535D01*
Y263516D01*
X284145Y263593D01*
X283815Y263814D01*
X283593Y264145D01*
X283516Y264535D01*
X283555D01*
X283477Y264926D01*
X283256Y265256D01*
X282926Y265477D01*
X282535Y265555D01*
X280035Y265535D01*
Y265488D01*
X279093Y265675D01*
X278295Y266209D01*
X268535Y276035D01*
X268556Y276056D01*
X267843Y276604D01*
X267013Y276948D01*
X266121Y277065D01*
X261535Y277035D01*
Y277004D01*
X260590Y277129D01*
X259709Y277494D01*
X258953Y278074D01*
X241318Y295753D01*
X241305Y295739D01*
X241091Y296059D01*
X241017Y296435D01*
X241035Y302035D01*
X241006D01*
X241123Y302621D01*
X241454Y303117D01*
X241950Y303448D01*
X242535Y303565D01*
X246035Y303535D01*
Y303565D01*
X246621Y303448D01*
D02*
G37*
D10*
X156449Y154545D02*
D03*
Y144702D02*
D03*
Y136828D02*
D03*
Y126986D02*
D03*
X333614Y154545D02*
D03*
Y144702D02*
D03*
Y136828D02*
D03*
Y126986D02*
D03*
X156449Y331710D02*
D03*
Y321868D02*
D03*
Y313994D02*
D03*
Y304151D02*
D03*
X333614Y331710D02*
D03*
Y321868D02*
D03*
Y313994D02*
D03*
Y304151D02*
D03*
D11*
X143306Y162500D02*
D03*
X136613D02*
D03*
X320472D02*
D03*
X313779D02*
D03*
X143306Y339665D02*
D03*
X136613D02*
D03*
X320472D02*
D03*
X313779D02*
D03*
D12*
X61570Y49970D02*
X70970D01*
X55241Y56299D02*
X61570Y49970D01*
X49803Y56299D02*
X55241D01*
X45276Y60827D02*
X49803Y56299D01*
X45276Y136576D02*
X49070Y140370D01*
X106870Y149870D02*
X110870D01*
X136670Y162500D02*
Y166670D01*
X70970Y49970D02*
Y69655D01*
X238735Y49970D02*
X248135D01*
X232406Y56299D02*
X238735Y49970D01*
X226969Y56299D02*
X232406D01*
X222441Y60827D02*
X226969Y56299D01*
X222441Y136576D02*
X226235Y140370D01*
X284035Y149870D02*
X288035D01*
X313835Y162500D02*
Y166670D01*
X248135Y49970D02*
Y69655D01*
X61570Y227135D02*
X70970D01*
X55241Y233465D02*
X61570Y227135D01*
X49803Y233465D02*
X55241D01*
X45276Y237992D02*
X49803Y233465D01*
X45276Y313741D02*
X49070Y317535D01*
X106870Y327035D02*
X110870D01*
X136670Y339665D02*
Y343835D01*
X70970Y227135D02*
Y246820D01*
X238735Y227135D02*
X248135D01*
X232406Y233465D02*
X238735Y227135D01*
X226969Y233465D02*
X232406D01*
X222441Y237992D02*
X226969Y233465D01*
X222441Y313741D02*
X226235Y317535D01*
X284035Y327035D02*
X288035D01*
X313835Y339665D02*
Y343835D01*
X248135Y227135D02*
Y246820D01*
D13*
X119570Y147170D02*
X128570Y156170D01*
X110870Y149870D02*
X118870Y157870D01*
X127070D01*
X119570Y122770D02*
Y147170D01*
X296735D02*
X305735Y156170D01*
X288035Y149870D02*
X296035Y157870D01*
X304235D01*
X296735Y122770D02*
Y147170D01*
X119570Y324335D02*
X128570Y333335D01*
X110870Y327035D02*
X118870Y335035D01*
X127070D01*
X119570Y299935D02*
Y324335D01*
X296735D02*
X305735Y333335D01*
X288035Y327035D02*
X296035Y335035D01*
X304235D01*
X296735Y299935D02*
Y324335D01*
D14*
X128570Y156170D02*
X134170D01*
X139270Y151070D01*
Y133470D02*
X145754Y126986D01*
X156449D01*
X102670Y91070D02*
X108070D01*
X91270Y102470D02*
X102670Y91070D01*
X84070Y102470D02*
X91270D01*
X142870Y97870D02*
X151470Y106470D01*
X127370Y97870D02*
X142870D01*
X119570Y105670D02*
X127370Y97870D01*
X151470Y106470D02*
Y114770D01*
X119570Y105670D02*
Y112470D01*
X130270Y108570D02*
Y146070D01*
X67270Y119270D02*
Y123270D01*
X88070Y112470D02*
X104970D01*
X67270Y119270D02*
X84070Y102470D01*
X77970Y122570D02*
X88070Y112470D01*
X77970Y122570D02*
Y140770D01*
X67270Y151470D02*
Y157470D01*
Y151470D02*
X77970Y140770D01*
X139270Y140470D02*
Y151070D01*
Y133470D02*
Y140470D01*
X305735Y156170D02*
X311335D01*
X316435Y151070D01*
Y133470D02*
X322920Y126986D01*
X333614D01*
X279835Y91070D02*
X285235D01*
X268435Y102470D02*
X279835Y91070D01*
X261235Y102470D02*
X268435D01*
X320035Y97870D02*
X328635Y106470D01*
X304535Y97870D02*
X320035D01*
X296735Y105670D02*
X304535Y97870D01*
X328635Y106470D02*
Y114770D01*
X296735Y105670D02*
Y112470D01*
X307435Y108570D02*
Y146070D01*
X244435Y119270D02*
Y123270D01*
X265235Y112470D02*
X282135D01*
X244435Y119270D02*
X261235Y102470D01*
X255135Y122570D02*
X265235Y112470D01*
X255135Y122570D02*
Y140770D01*
X244435Y151470D02*
Y157470D01*
Y151470D02*
X255135Y140770D01*
X316435Y140470D02*
Y151070D01*
Y133470D02*
Y140470D01*
X128570Y333335D02*
X134170D01*
X139270Y328235D01*
Y310635D02*
X145754Y304151D01*
X156449D01*
X102670Y268235D02*
X108070D01*
X91270Y279635D02*
X102670Y268235D01*
X84070Y279635D02*
X91270D01*
X142870Y275035D02*
X151470Y283635D01*
X127370Y275035D02*
X142870D01*
X119570Y282835D02*
X127370Y275035D01*
X151470Y283635D02*
Y291935D01*
X119570Y282835D02*
Y289635D01*
X130270Y285735D02*
Y323235D01*
X67270Y296435D02*
Y300435D01*
X88070Y289635D02*
X104970D01*
X67270Y296435D02*
X84070Y279635D01*
X77970Y299735D02*
X88070Y289635D01*
X77970Y299735D02*
Y317935D01*
X67270Y328635D02*
Y334635D01*
Y328635D02*
X77970Y317935D01*
X139270Y317635D02*
Y328235D01*
Y310635D02*
Y317635D01*
X305735Y333335D02*
X311335D01*
X316435Y328235D01*
Y310635D02*
X322920Y304151D01*
X333614D01*
X279835Y268235D02*
X285235D01*
X268435Y279635D02*
X279835Y268235D01*
X261235Y279635D02*
X268435D01*
X320035Y275035D02*
X328635Y283635D01*
X304535Y275035D02*
X320035D01*
X296735Y282835D02*
X304535Y275035D01*
X328635Y283635D02*
Y291935D01*
X296735Y282835D02*
Y289635D01*
X307435Y285735D02*
Y323235D01*
X244435Y296435D02*
Y300435D01*
X265235Y289635D02*
X282135D01*
X244435Y296435D02*
X261235Y279635D01*
X255135Y299735D02*
X265235Y289635D01*
X255135Y299735D02*
Y317935D01*
X244435Y328635D02*
Y334635D01*
Y328635D02*
X255135Y317935D01*
X316435Y317635D02*
Y328235D01*
Y310635D02*
Y317635D01*
D15*
X149770Y134770D02*
Y135670D01*
X150870Y136770D01*
X156391D01*
X149870Y142670D02*
Y143670D01*
X150870Y144670D01*
X156416D01*
X139470Y140270D02*
X146570D01*
X139270Y140470D02*
X139470Y140270D01*
X326935Y134770D02*
Y135670D01*
X328035Y136770D01*
X333556D01*
X327035Y142670D02*
Y143670D01*
X328035Y144670D01*
X333582D01*
X316635Y140270D02*
X323735D01*
X316435Y140470D02*
X316635Y140270D01*
X149770Y311935D02*
Y312835D01*
X150870Y313935D01*
X156391D01*
X149870Y319835D02*
Y320835D01*
X150870Y321835D01*
X156416D01*
X139470Y317435D02*
X146570D01*
X139270Y317635D02*
X139470Y317435D01*
X326935Y311935D02*
Y312835D01*
X328035Y313935D01*
X333556D01*
X327035Y319835D02*
Y320835D01*
X328035Y321835D01*
X333582D01*
X316635Y317435D02*
X323735D01*
X316435Y317635D02*
X316635Y317435D01*
D16*
X143306Y162500D02*
X146540D01*
X147870Y161170D01*
Y155870D02*
Y161170D01*
X320472Y162500D02*
X323706D01*
X325035Y161170D01*
Y155870D02*
Y161170D01*
X143306Y339665D02*
X146540D01*
X147870Y338335D01*
Y333035D02*
Y338335D01*
X320472Y339665D02*
X323706D01*
X325035Y338335D01*
Y333035D02*
Y338335D01*
D17*
X67270Y157470D02*
D03*
Y123270D02*
D03*
X244435Y157470D02*
D03*
Y123270D02*
D03*
X67270Y334635D02*
D03*
Y300435D02*
D03*
X244435Y334635D02*
D03*
Y300435D02*
D03*
D18*
X53491Y157470D02*
D03*
Y123270D02*
D03*
X230656Y157470D02*
D03*
Y123270D02*
D03*
X53491Y334635D02*
D03*
Y300435D02*
D03*
X230656Y334635D02*
D03*
Y300435D02*
D03*
D19*
X166685Y149624D02*
D03*
Y131907D02*
D03*
X343850Y149624D02*
D03*
Y131907D02*
D03*
X166685Y326789D02*
D03*
Y309072D02*
D03*
X343850Y326789D02*
D03*
Y309072D02*
D03*
D20*
X166685Y163206D02*
D03*
Y118324D02*
D03*
X343850Y163206D02*
D03*
Y118324D02*
D03*
X166685Y340372D02*
D03*
Y295490D02*
D03*
X343850Y340372D02*
D03*
Y295490D02*
D03*
D21*
X90655Y49970D02*
D03*
X51285D02*
D03*
X70970Y69655D02*
D03*
X267821Y49970D02*
D03*
X228450D02*
D03*
X248135Y69655D02*
D03*
X90655Y227135D02*
D03*
X51285D02*
D03*
X70970Y246820D02*
D03*
X267821Y227135D02*
D03*
X228450D02*
D03*
X248135Y246820D02*
D03*
D22*
X51285Y69655D02*
D03*
X61128D02*
D03*
X90655D02*
D03*
X80813D02*
D03*
X228450D02*
D03*
X238293D02*
D03*
X267821D02*
D03*
X257978D02*
D03*
X51285Y246820D02*
D03*
X61128D02*
D03*
X90655D02*
D03*
X80813D02*
D03*
X228450D02*
D03*
X238293D02*
D03*
X267821D02*
D03*
X257978D02*
D03*
D23*
X70970Y49970D02*
D03*
X248135D02*
D03*
X70970Y227135D02*
D03*
X248135D02*
D03*
D24*
X130070Y154870D02*
D03*
X127070D02*
D03*
Y157870D02*
D03*
X130070D02*
D03*
X119570Y115470D02*
D03*
X116570D02*
D03*
Y112470D02*
D03*
X119570D02*
D03*
X151470Y114770D02*
D03*
X148470D02*
D03*
Y117770D02*
D03*
X151470D02*
D03*
X146570Y140270D02*
D03*
X136670Y166670D02*
D03*
X107970Y109470D02*
D03*
X111070Y91070D02*
D03*
X149770Y134770D02*
D03*
Y142670D02*
D03*
X147870Y157570D02*
D03*
Y154570D02*
D03*
Y151570D02*
D03*
X107970Y112470D02*
D03*
X104970D02*
D03*
Y109470D02*
D03*
X108070Y91070D02*
D03*
Y88070D02*
D03*
X111070D02*
D03*
X147870Y148570D02*
D03*
X131870Y146070D02*
D03*
X128870D02*
D03*
Y149070D02*
D03*
X131870D02*
D03*
X133270Y108570D02*
D03*
X130270D02*
D03*
Y105570D02*
D03*
X133270D02*
D03*
X119570Y122770D02*
D03*
X106870Y149870D02*
D03*
X110870D02*
D03*
X49070Y140370D02*
D03*
X307235Y154870D02*
D03*
X304235D02*
D03*
Y157870D02*
D03*
X307235D02*
D03*
X296735Y115470D02*
D03*
X293735D02*
D03*
Y112470D02*
D03*
X296735D02*
D03*
X328635Y114770D02*
D03*
X325635D02*
D03*
Y117770D02*
D03*
X328635D02*
D03*
X323735Y140270D02*
D03*
X313835Y166670D02*
D03*
X285135Y109470D02*
D03*
X288235Y91070D02*
D03*
X326935Y134770D02*
D03*
Y142670D02*
D03*
X325035Y157570D02*
D03*
Y154570D02*
D03*
Y151570D02*
D03*
X285135Y112470D02*
D03*
X282135D02*
D03*
Y109470D02*
D03*
X285235Y91070D02*
D03*
Y88070D02*
D03*
X288235D02*
D03*
X325035Y148570D02*
D03*
X309035Y146070D02*
D03*
X306035D02*
D03*
Y149070D02*
D03*
X309035D02*
D03*
X310435Y108570D02*
D03*
X307435D02*
D03*
Y105570D02*
D03*
X310435D02*
D03*
X296735Y122770D02*
D03*
X284035Y149870D02*
D03*
X288035D02*
D03*
X226235Y140370D02*
D03*
X130070Y332035D02*
D03*
X127070D02*
D03*
Y335035D02*
D03*
X130070D02*
D03*
X119570Y292635D02*
D03*
X116570D02*
D03*
Y289635D02*
D03*
X119570D02*
D03*
X151470Y291935D02*
D03*
X148470D02*
D03*
Y294935D02*
D03*
X151470D02*
D03*
X146570Y317435D02*
D03*
X136670Y343835D02*
D03*
X107970Y286635D02*
D03*
X111070Y268235D02*
D03*
X149770Y311935D02*
D03*
Y319835D02*
D03*
X147870Y334735D02*
D03*
Y331735D02*
D03*
Y328735D02*
D03*
X107970Y289635D02*
D03*
X104970D02*
D03*
Y286635D02*
D03*
X108070Y268235D02*
D03*
Y265235D02*
D03*
X111070D02*
D03*
X147870Y325735D02*
D03*
X131870Y323235D02*
D03*
X128870D02*
D03*
Y326235D02*
D03*
X131870D02*
D03*
X133270Y285735D02*
D03*
X130270D02*
D03*
Y282735D02*
D03*
X133270D02*
D03*
X119570Y299935D02*
D03*
X106870Y327035D02*
D03*
X110870D02*
D03*
X49070Y317535D02*
D03*
X307235Y332035D02*
D03*
X304235D02*
D03*
Y335035D02*
D03*
X307235D02*
D03*
X296735Y292635D02*
D03*
X293735D02*
D03*
Y289635D02*
D03*
X296735D02*
D03*
X328635Y291935D02*
D03*
X325635D02*
D03*
Y294935D02*
D03*
X328635D02*
D03*
X323735Y317435D02*
D03*
X313835Y343835D02*
D03*
X285135Y286635D02*
D03*
X288235Y268235D02*
D03*
X326935Y311935D02*
D03*
Y319835D02*
D03*
X325035Y334735D02*
D03*
Y331735D02*
D03*
Y328735D02*
D03*
X285135Y289635D02*
D03*
X282135D02*
D03*
Y286635D02*
D03*
X285235Y268235D02*
D03*
Y265235D02*
D03*
X288235D02*
D03*
X325035Y325735D02*
D03*
X309035Y323235D02*
D03*
X306035D02*
D03*
Y326235D02*
D03*
X309035D02*
D03*
X310435Y285735D02*
D03*
X307435D02*
D03*
Y282735D02*
D03*
X310435D02*
D03*
X296735Y299935D02*
D03*
X284035Y327035D02*
D03*
X288035D02*
D03*
X226235Y317535D02*
D03*
M02*
